<?xml version="1.0" encoding="utf-8"?>
<!-- Generator: Adobe Illustrator 16.0.4, SVG Export Plug-In . SVG Version: 6.00 Build 0)  -->
<!DOCTYPE svg PUBLIC "-//W3C//DTD SVG 1.1//EN" "http://www.w3.org/Graphics/SVG/1.1/DTD/svg11.dtd">
<svg version="1.1" id="Layer_1" xmlns="http://www.w3.org/2000/svg" xmlns:xlink="http://www.w3.org/1999/xlink" x="0px" y="0px"
	 width="612px" height="792px" viewBox="0 0 612 792">
<path fill-rule="evenodd" clip-rule="evenodd" d="M89.802,243.707c-1.846,3.36-3.143,6.875-3.466,10.77
	c-0.445,5.366-0.119,10.668,0.9,15.945c0.181,0.935,0.232,1.91,0.214,2.865c-0.09,4.686,0.285,9.382-1.05,14.007
	c-1.146,3.972-2.646,7.692-5.73,10.54c-2.22,2.051-4.658,3.979-7.605,4.731c-6.3,1.607-12.481,1.613-17.993-2.599
	c-0.19-0.146-0.417-0.263-0.563-0.444c-3.611-4.517-6.106-9.468-4.871-15.428c0.854-4.117,2.143-8.146,3.315-12.192
	c0.235-0.812,0.712-1.614,1.261-2.268c2.287-2.72,2.934-5.969,3.008-9.354c0.039-1.736-0.299-3.482-0.469-5.224
	c-0.232-2.372-0.465-4.745-0.728-7.421c-1.688,0.371-3.281,0.697-4.859,1.079c-0.608,0.147-1.169,0.515-1.779,0.621
	c-1.267,0.223-1.95-0.532-1.614-1.797c0.243-0.917,0.655-1.787,0.967-2.687c1.224-3.523,2.554-7.015,3.618-10.586
	c0.811-2.72,0.342-5.538,0.003-8.311c-0.801-6.571-1.457-13.162-2.428-19.708c-1.59-10.726-3.356-21.426-5.115-32.127
	c-0.374-2.274-1.173-4.48-1.527-6.757c-0.602-3.86-1.09-7.743-1.472-11.632c-0.521-5.321-0.961-10.652-1.318-15.987
	c-0.319-4.768-0.817-9.56-0.625-14.316c0.26-6.429,1.115-12.834,1.688-19.252c0.121-1.351,0.172-2.712,0.173-4.068
	c0.01-9.482-0.138-18.966,0.045-28.444c0.11-5.729,0.711-11.448,1.117-17.17c0.187-2.628,0.337-5.265,0.677-7.875
	c0.495-3.796,0.913-7.627,1.808-11.337c0.663-2.745,1.846-5.372,3.571-7.747c1.906-2.624,4.625-3.999,7.47-4.845
	c4.272-1.27,8.72-1.724,13.228-1.684c3.67,0.033,6.663,1.5,9.341,3.721c2.146,1.781,4.159,3.74,6.1,5.747
	c3.47,3.587,5.569,7.946,6.706,12.769c0.494,2.094,0.781,4.236,1.238,6.339c0.234,1.073,0.734,2.091,0.946,3.167
	c0.927,4.707,1.049,9.456,0.685,14.233c-0.164,2.148-0.034,4.322-0.267,6.459c-0.463,4.254-0.983,8.508-1.665,12.732
	c-1.08,6.703-2.564,13.349-3.402,20.079c-0.707,5.682-0.738,11.448-1.069,17.176c-0.262,4.536-0.739,9.072-0.733,13.608
	c0.006,4.938,0.483,9.876,0.711,14.816c0.198,4.306,0.318,8.614,0.508,12.921c0.108,2.461,0.502,4.929,0.39,7.376
	c-0.242,5.291,0.625,10.478,1.086,15.707c0.996,11.305,2.532,22.539,4.496,33.707c0.883,5.021,2.459,9.897,4.535,14.593
	c0.771,1.743,1.382,3.567,1.913,5.399c0.23,0.793,0.388,1.764-0.493,2.426c-0.598,0.449-2.886,0.556-3.571,0.188
	C94.875,244.971,92.641,243.756,89.802,243.707z M98.832,243.696c-0.465-1.609-0.706-2.677-1.08-3.695
	c-1.044-2.846-2.326-5.616-3.184-8.514c-2.021-6.825-3.079-13.849-3.888-20.91c-0.554-4.833-1.17-9.659-1.705-14.494
	c-0.456-4.122-1.025-8.244-1.211-12.382c-0.42-9.336-0.629-18.682-0.939-28.023c-0.032-0.956-0.212-1.907-0.247-2.863
	c-0.217-5.911-0.628-11.825-0.554-17.733c0.074-5.903,0.573-11.805,1.011-17.699c0.539-7.243,1.143-14.482,1.843-21.711
	c0.408-4.207,1.067-8.39,1.601-12.585c0.421-3.311,1.043-6.614,1.181-9.938c0.207-5.027,0.149-10.07,0.047-15.103
	c-0.058-2.855-0.246-5.734-0.7-8.55c-0.819-5.08-2.323-9.995-5.684-14.013c-3.023-3.614-6.463-6.849-10.496-9.364
	c-0.734-0.458-1.571-0.834-2.412-1.024c-7.205-1.622-13.9-0.032-20.274,3.371c-0.467,0.249-0.879,0.714-1.162,1.174
	c-0.906,1.475-1.68,3.033-2.617,4.487c-0.989,1.532-1.359,3.176-1.448,4.972c-0.118,2.382-0.131,4.818-0.664,7.122
	c-1.281,5.541-1.897,11.152-2.284,16.799c-0.289,4.212-0.552,8.431-0.62,12.651c-0.059,3.667,0.268,7.339,0.256,11.009
	c-0.02,6.064-0.157,12.128-0.283,18.191c-0.057,2.733,1.065,5.529-0.412,8.189c-0.539,6.017-1.888,11.93-1.259,18.088
	c0.794,7.773,1.325,15.571,2.437,23.316c0.668,4.656,0.98,9.365,1.67,14.019c1.331,8.981,2.835,17.938,4.229,26.91
	c0.954,6.138,1.967,12.271,2.727,18.435c0.76,6.171,1.679,12.347,1.424,18.595c-0.076,1.849-0.449,3.685-0.691,5.562
	c9.606-6.077,10.638-6.592,13.383-6.442c-0.583,0.608-0.9,1.148-1.37,1.387c-1.276,0.648-2.576,1.305-3.939,1.715
	c-5.874,1.771-8.248,6.752-11.131,11.608c1.731,0.369,2.758-0.506,3.805-1.153c1.355-0.837,2.529-2.012,3.949-2.687
	c2.211-1.05,4.514-2.331,6.869-2.554c3.46-0.327,7.039-0.074,10.498,0.419c4.05,0.578,8.073,0.854,12.157,0.803
	c1.866-0.023,3.767,0.374,5.602,0.797C94.958,242.267,96.583,242.946,98.832,243.696z M60.146,243.039
	c-0.947,3.395-1.309,6.72-1.096,10.073c0.183,2.882,0.012,5.713-0.268,8.582c-0.308,3.158-1.161,6.082-2.518,8.912
	c-0.893,1.864-1.747,3.751-2.519,5.668c-0.441,1.096-0.482,2.387-1.051,3.393c-2.238,3.963-1.959,8.168-0.322,11.966
	c2.417,5.606,6.409,9.285,13.223,9.68c7.772,0.451,13.412-3.588,16.137-10.186c1.622-3.925,2.414-8.264,3.082-12.494
	c0.899-5.692,0.462-11.438-0.34-17.142c-0.502-3.565-0.806-7.123,0.291-10.663c0.586-1.892,1.02-3.832,1.471-5.762
	c0.138-0.588,0.105-1.215,0.148-1.796c-2.216,0-4.253,0.045-6.287-0.011c-2.626-0.072-5.251-0.223-7.876-0.344
	c-0.796-0.037-1.606-0.012-2.386-0.15C66.654,242.197,63.502,242.298,60.146,243.039z"/>
<path fill-rule="evenodd" clip-rule="evenodd" fill="#EE2A7B" d="M98.832,243.696c-2.249-0.75-3.873-1.43-5.564-1.819
	c-1.835-0.423-3.735-0.82-5.602-0.797c-4.083,0.052-8.106-0.225-12.157-0.803c-3.458-0.493-7.037-0.746-10.498-0.419
	c-2.354,0.223-4.657,1.504-6.869,2.554c-1.42,0.675-2.594,1.85-3.949,2.687c-1.047,0.647-2.074,1.522-3.805,1.153
	c2.883-4.856,5.257-9.838,11.131-11.608c1.363-0.41,2.663-1.066,3.939-1.715c0.47-0.238,0.786-0.778,1.37-1.387
	c-2.745-0.149-3.777,0.365-13.383,6.442c0.242-1.878,0.616-3.714,0.691-5.562c0.255-6.248-0.664-12.424-1.424-18.595
	c-0.76-6.163-1.772-12.297-2.727-18.435c-1.395-8.973-2.899-17.929-4.229-26.91c-0.689-4.653-1.001-9.362-1.67-14.019
	c-1.112-7.745-1.643-15.543-2.437-23.316c-0.629-6.158,0.72-12.071,1.259-18.088c1.477-2.661,0.355-5.457,0.412-8.189
	c0.126-6.063,0.263-12.127,0.283-18.191c0.012-3.67-0.314-7.342-0.256-11.009c0.067-4.22,0.331-8.439,0.62-12.651
	c0.387-5.647,1.003-11.259,2.284-16.799c0.533-2.304,0.545-4.74,0.664-7.122c0.089-1.795,0.459-3.439,1.448-4.972
	c0.938-1.454,1.711-3.012,2.617-4.487c0.282-0.46,0.695-0.925,1.162-1.174c6.374-3.402,13.069-4.992,20.274-3.371
	c0.84,0.189,1.677,0.566,2.412,1.024c4.033,2.515,7.473,5.75,10.496,9.364c3.361,4.019,4.864,8.933,5.684,14.013
	c0.454,2.816,0.642,5.695,0.7,8.55c0.103,5.033,0.16,10.076-0.047,15.103c-0.137,3.323-0.76,6.627-1.181,9.938
	c-0.534,4.195-1.193,8.378-1.601,12.585c-0.701,7.229-1.305,14.468-1.843,21.711c-0.438,5.894-0.937,11.795-1.011,17.699
	c-0.074,5.908,0.337,11.822,0.554,17.733c0.035,0.956,0.215,1.907,0.247,2.863c0.31,9.342,0.52,18.688,0.939,28.023
	c0.186,4.138,0.755,8.26,1.211,12.382c0.535,4.835,1.151,9.661,1.705,14.494c0.809,7.062,1.868,14.085,3.888,20.91
	c0.858,2.897,2.14,5.668,3.184,8.514C98.125,241.02,98.367,242.087,98.832,243.696z"/>
<path fill-rule="evenodd" clip-rule="evenodd" fill="#BE1E2D" d="M60.146,243.039c3.356-0.741,6.508-0.842,9.69-0.273
	c0.779,0.139,1.589,0.113,2.386,0.15c2.625,0.121,5.25,0.271,7.876,0.344c2.034,0.056,4.071,0.011,6.287,0.011
	c-0.043,0.581-0.011,1.208-0.148,1.796c-0.451,1.93-0.885,3.87-1.471,5.762c-1.097,3.54-0.793,7.098-0.291,10.663
	c0.802,5.704,1.239,11.449,0.34,17.142c-0.668,4.23-1.46,8.569-3.082,12.494c-2.726,6.598-8.365,10.637-16.137,10.186
	c-6.813-0.395-10.806-4.073-13.223-9.68c-1.637-3.798-1.917-8.003,0.322-11.966c0.568-1.006,0.609-2.297,1.051-3.393
	c0.772-1.917,1.625-3.804,2.519-5.668c1.357-2.83,2.209-5.754,2.518-8.912c0.28-2.869,0.451-5.7,0.268-8.582
	C58.837,249.759,59.198,246.434,60.146,243.039z M78.992,280.767c-0.221-0.092-0.442-0.184-0.664-0.276
	c-1.119,1.599-2.143,3.275-3.375,4.781c-4.037,4.93-9.538,5.264-15.156,4.224c-2.291-0.424-4.677-1.42-6.384-3.371
	c-0.271-0.311-0.911-0.3-1.781-0.556c0.273,0.914,0.318,1.466,0.582,1.879c1.244,1.949,2.984,3.41,5.219,3.915
	c2.934,0.662,5.93,1.083,8.919,1.454c2.886,0.358,5.397-0.635,7.226-2.884c1.751-2.154,3.353-4.439,4.886-6.756
	C78.887,282.537,78.829,281.579,78.992,280.767z"/>
<path fill-rule="evenodd" clip-rule="evenodd" d="M78.992,280.767c-0.163,0.812-0.105,1.771-0.529,2.41
	c-1.533,2.316-3.134,4.602-4.886,6.756c-1.829,2.249-4.34,3.242-7.226,2.884c-2.989-0.371-5.985-0.792-8.919-1.454
	c-2.235-0.505-3.975-1.966-5.219-3.915c-0.263-0.413-0.309-0.965-0.582-1.879c0.871,0.256,1.51,0.245,1.781,0.556
	c1.707,1.951,4.093,2.947,6.384,3.371c5.618,1.04,11.119,0.706,15.156-4.224c1.233-1.506,2.256-3.183,3.375-4.781
	C78.55,280.583,78.771,280.675,78.992,280.767z"/>
</svg>
