<?xml version="1.0" encoding="utf-8"?>
<!-- Generator: Adobe Illustrator 19.2.0, SVG Export Plug-In . SVG Version: 6.00 Build 0)  -->
<svg version="1.1" id="Layer_1" xmlns="http://www.w3.org/2000/svg" xmlns:xlink="http://www.w3.org/1999/xlink" x="0px" y="0px"
	 viewBox="0 0 141 107" style="enable-background:new 0 0 141 107;" xml:space="preserve">
<style type="text/css">
	.st0{fill:#FEE5D2;}
	.st1{fill:#FFFFFF;}
</style>
<path d="M67.9,5.7c1,1.8,2,3.6,2.9,5.2c0.6-1,1.3-2.2,2.2-3.6c1.3,1.7,2.2,3.5,2.3,5.4c0.1,1.9-0.2,3.7,0,5.6c0.2,2.2,0.4,4.4,1,6.5
	c1.4,5,1.2,10,0.2,15.1c-0.4,2.2-0.8,4.5-1.2,6.7c-0.2,1.1,0.2,1.7,1.4,1.9c2.1,0.4,2.4,0.8,2.2,2.8c-0.1,2.4-0.2,4.7-0.3,7.1
	c-0.1,2.2-0.7,4.2-2.5,5.6c-1.1,0.8-1.5,2-1.5,3.3c0.2,5.4-1.6,10.3-3.6,15.2c-1.7,4.1-3.8,8.1-6,11.9c-0.8,1.4-2.5,2.4-3.8,3.5
	c-4.3,3.7-9.4,5.2-15,4.9c-1.7-0.1-3.4-0.9-5-1.6c-1.5-0.6-2.8-1.6-4.1-2.5c-0.4-0.3-0.8-0.6-1.1-1c-4.2-6.4-8.4-12.8-12.5-19.3
	c-0.8-1.2-1.1-2.7-1.8-4.5c-1.8-0.8-3-2.8-4.6-4.6c-0.3-0.4-0.3-1.1-0.5-1.7c-0.7-2.5-1.4-5-2-7.6c-0.4-1.7-0.9-3.4-1-5.2
	c-0.1-1.9,0.8-2.5,3.1-2.5c-0.6-3.8-1.2-7.6-1.8-11.5c-0.3,0.2-0.5,0.4-1,0.9c-0.3-1.8-0.5-3.5-0.7-5.1c-0.4-2.8,0-5.5,0-8.3
	c0-0.9,0.6-1.2,1.3-1.8c2.1-1.7,4.5-2.5,6.8-3.6c3-1.4,4.6-3.8,5.5-6.9c0.2-0.8,0.4-1.5,0.8-2.8c0.9,1.1,1.5,1.8,2.1,2.5
	c2.7-0.9,3.4-3.2,3.8-5.9c1.8,0.8,0.8,3.5,2.9,3.9c3.9-1.6,5.2-5.5,7.3-8.7c1.9,0.8,1.3,2.1,1.1,3.3c-0.2,1.2-0.5,2.5-0.3,4
	c0.6-0.6,1.3-1.3,2.2-2.2c0.2,1.3,0.4,2.4,0.7,3.9c2.3-3.1,2.5-6.4,2.8-10.2c1.2,1.8,1.2,3.3,1.5,4.8c0.3,1.4,0.4,2.8,1,4.2
	c0-1,0-2,0-3.5c0.7,0.9,1.1,1.3,1.4,1.7C55.8,9,55.6,6.5,56,3.9c1.7,0.9,2.4,2.1,2.4,3.7c0,1.5,0,3,0.2,4.6c0.3-1.3,0.6-2.6,0.9-3.9
	c0.2,0,0.3,0,0.5,0c0.2,0.8,0.4,1.7,0.6,2.5c0.1,0,0.2,0,0.4,0c0.2-1.7,0.5-3.4,0.7-5.3c0.4,0.3,1,0.5,1.2,0.9
	c1.1,1.7,1.7,3.7,1.6,5.8c0,0.8-0.1,1.7-0.1,2.6c0.2-0.1,0.5-0.1,0.5-0.2c0.2-1,0.2-2,0.6-2.9c0.3-0.8,1.2-1.4,1.4-2.2
	c0.3-1.1,0.3-2.4,0.4-3.6C67.5,5.8,67.7,5.7,67.9,5.7z M44.6,27.2c1-0.6,2.1-1.2,3.1-1.7c-0.4,0.7-0.8,1.4-1.3,2.5
	c1.8,0,3.7,0.6,4.9-0.1c4.2-2.4,7-6,7.7-11.4c-1.3,2-2.4,3.7-3.6,5.3c-1.1,1.5-1.8,3.5-4.1,4.5c2.8-4.5,3.9-7.6,3.8-9.7
	c-0.7,0.9-1.5,1.8-2.3,2.7c-0.1-0.3-0.1-0.6-0.2-0.8c0-1.3,0-2.6,0-3.9c-0.2,0.3-0.4,0.6-0.5,0.8c-0.3,1.5-0.5,2.9-0.8,4.4
	c0,0.1-0.1,0.3-0.1,0.4c-1.2,1.8-2.3,3.6-3.5,5.5c0.4-1,0.7-2,1.1-3c0.3-0.8,0.7-1.7,0.9-2.5c0,0-0.4-0.2-0.6-0.3
	c1-2.4,2.2-4.7,2.1-7.1c-1.7,3.2-3.5,6.5-5.3,9.9c-0.6,0.5-1.3,1-1.8,1.6c-0.5,0.6-0.7,1.4-1.3,1.9c-0.8,0.6-1.7,1-2.6,1.3
	c-0.4,0.1-0.9-0.4-1.5-0.7c1.3-1.6,3.1-2.5,3.5-5c-0.9,1-1.6,1.6-2.2,2.3c-0.6,0.7-1.1,1.4-2.5,1.3c2.2-3.1,3.9-6.1,4.6-9.6
	c-0.4,0.4-0.6,0.9-0.9,1.4c-1.7,3-3.3,6.1-5.3,8.9c-1.1,1.4-2.3,3.1-4.3,3.6c0.2-0.3,0.3-0.6,0.5-0.8c2.4-2.3,4.3-4.9,5.4-8.1
	c0.2-0.5,0.7-0.8,1.1-1.2c0.2-0.2,0.6-0.4,0.6-0.6c0-1.8,1.3-3,2-4.5c0.6-1,1-2.1,1.5-3.2c-2.6,2.9-4.2,6.4-7.1,9.5
	c0-0.9-0.1-1.3-0.1-1.7c1.8-1.1,2.4-3,3.7-5c-1.5,0.8-2.4,1.3-3.5,1.8c-0.1,1.1-0.1,2.2-0.2,3.3c-0.5,1.3-1,2.6-1.6,3.8
	c-0.6,1.1-1.3,2.2-2,3.3l0.1,0c0.7-1.8,1.4-3.6,2.3-6c-3.4,2.1-5.2,5.1-7.5,7.4c-0.1,0.1-0.2,0.4-0.2,0.4c1.2,1.1-0.2,1.6-0.6,2.1
	c-1,1.1-2.2,2.1-3.3,3.1c2.4,0,4.5-0.3,6-2.9c0.2,0.6,0.4,0.9,0.5,1.3c0.5-0.4,0.9-0.7,1.3-1c0.4-0.3,0.8-0.6,1.2-1
	c-0.1,0.9-0.3,1.7-0.4,2.7c2.8,0,5.4-0.7,7.7-2c1.4-0.8,2.4-2.2,4.3-1.9c0.3,0.1,0.8-0.5,1.2-0.8C44.4,27.4,44.5,27.3,44.6,27.2z
	 M44.3,21.3c-1.1,1.4-2.1,2.9-3.2,4.3c0.2,0.1,0.3,0.2,0.5,0.4c0.9-1.2,1.9-2.3,2.7-3.5C44.4,22.2,44.2,21.7,44.3,21.3
	c0.8-1.1,1.6-2.3,2.6-3.4c0.8-0.8,1.3-1.6,1.6-2.9c-1.2,0.6-2.4,0.9-3,1.6c-0.8,1.1-1.3,2.5-1.8,3.8C43.6,20.6,44.1,21,44.3,21.3z
	 M69.5,23.9c-0.5,0.1-0.9,0.2-1.3,0.4c-1.8,0.9-3.5,1.8-5.3,2.7c-0.6,0.3-1.2,0.6-2.1,0.9c2.1,0.8,3.6,0.9,4.8,0
	c1.3-1,2.4-2.2,3.6-3.4c0.1,0.7,0.4,1.1,1.2,0.6c1.9-1.1,2.1-3.1,2.6-5.3C71.7,21.4,70.6,22.7,69.5,23.9z M19.7,35.9
	c0.1,2,0.3,3.8,0.3,5.6c0,1.8,0,3.6,0.4,5.5c0.8,3.9,0.9,7.9,1.7,11.8c1.1,5,1.7,10,1.7,15c0,1.8,0.5,3.2,1.4,4.7
	c2.6,3.9,5.1,7.8,7.5,11.7c1.7,2.8,3.9,5.1,6.2,7.3c1.1,1,2.6,1.8,4.1,2.4c2.6,1.1,5.3,1,8.2,0.6c4.6-0.7,8-3.3,11.5-6
	c0.3-0.2,0.5-0.7,0.7-1c2.7-6.3,6.2-12.2,7.6-19c1.2-5.9,2.3-11.8,1.5-17.8c-0.3-2.2-0.4-4.4-0.4-6.6c0.1-3.3,0.3-6.6,0.5-9.9
	c0.3-3.8-0.9-7.3-1.8-11.1c-1.7,1.4-3,0.7-4.1-0.4c-0.5,0.2-0.8,0.3-1.1,0.4c-2.4,1-4.8,1.5-7.2-0.3c-0.3-0.2-0.8-0.4-1.2-0.3
	c-1.4,0.2-2.9,0.3-4.2,1c-1.7,0.9-3.5,0.9-5.2,0.7c-3.2-0.5-6,0.2-8.7,1.7c-4.3,2.3-4.3,2.5-8.7,2.2C28,33.8,26,34.4,24,36.2
	c-0.9,0.8-2,1.7-3.9,1.3c0.8-0.6,1.3-0.9,1.9-1.3c0.1,0,0-0.2,0-0.4C21.3,35.8,20.6,35.8,19.7,35.9z M22,71.3
	c-1.1-4.2-2.2-8.5-3.2-12.8c-0.4-2-1.6-3-3.6-4c0.3,1.7,0.4,3.1,0.7,4.5c0.5,2.2,1.2,4.4,1.8,6.6C18.5,68,19.4,70.2,22,71.3z
	 M77.9,49.9c-0.4-0.1-1.2-0.6-1.7-0.4c-0.8,0.3-1.6,0.8-1.6,2c-0.1,2.8-0.2,5.7-0.3,8.5c0,0.8,0.2,1.6,0.4,2.5
	c2.4-2.1,2.3-2.1,2.4-4.8C77.2,55.2,77.6,52.7,77.9,49.9z M27.6,24.5c2-2,4.6-3.4,5.5-6.3c0.1-0.4,0.2-1,0.5-1.1
	c1.9-0.8,0.7-1.9,0.5-2.9C32.7,18.2,29.3,20.8,27.6,24.5z M61.3,18.5c-2.1,2.8-4.3,5.7-6.3,8.4C58,26.8,60.7,23.7,61.3,18.5z
	 M45.9,12.6c-3.7,2.3-3.6,6.1-5.1,8.9C43.1,19.1,44.9,16.4,45.9,12.6z M18.1,28.3c1.7-1.2,3.3-2.4,4.3-4.4c-1.7,0.6-3.3,1.3-4.8,2.1
	C16.2,26.8,16.3,27.3,18.1,28.3z M19.2,31.2c0.2,0.2,0.4,0.3,0.5,0.5c2.7-1.7,5.3-3.5,6.5-6.8C23.9,27,21.6,29.1,19.2,31.2z
	 M69.2,13c-1.7,2.1-2.4,3.9-2.6,6.2C69.1,17.3,69.3,16.8,69.2,13z M58.9,19.7c2.2-3.1,3.1-5.6,2.7-8C59.5,13.9,59.6,16.7,58.9,19.7z
	 M54.8,21c1.5-1.7,2.9-2.9,2-5.2c-0.2-0.5,0.1-1.1,0.2-1.7c0.1-0.9,0.2-1.8,0.2-2.8C56.5,14.5,55.7,17.6,54.8,21z M60.9,24.6
	c0.2,0.2,0.4,0.3,0.6,0.5c1.5-2,4-3.4,4.4-6.9C63.9,20.6,62.4,22.6,60.9,24.6z M56.4,11c-0.2-0.1-0.4-0.1-0.6-0.2
	c-1.1,1.9-2.8,3.6-1.9,6.2C54.7,15,55.5,13,56.4,11z M62.6,8.5c-0.6,0.8-0.8,1.4-0.3,2.2c0.4,0.6,0.6,1.3,0.7,2.1
	c0.1,0.7,0,1.5,0,2.2C63.5,12.9,63.8,10.8,62.6,8.5z M66.9,13.9c0.2,0.1,0.3,0.1,0.5,0.2c0.5-1.1,1.1-2.2,1.6-3.3
	c0.3-0.7-0.1-1.2-1-1.5C67.6,10.9,67.3,12.4,66.9,13.9z M72.6,14.4c-1.8,1.2-2,2-1.6,4.5C71.6,17.1,72.1,15.8,72.6,14.4z M62.4,18.2
	c-0.4,1.2-0.7,2.2-1,3.2c0.1,0.1,0.2,0.1,0.4,0.2c0.7-1,1.4-1.9,2.2-3C63.2,18.4,62.9,18.3,62.4,18.2z M18.3,38.6
	c0.3-2.8,0.3-2.8-0.6-4.2C17.9,36,18.1,37.3,18.3,38.6z M72.6,17c1-1.1,1.4-2.3,0.8-3.7C73.1,14.6,72.9,15.8,72.6,17z M73.4,36.3
	c0.3,0,0.6,0,0.8,0c-0.2-1-0.4-2-0.6-3c-0.2,0-0.3,0.1-0.5,0.1C73.2,34.3,73.3,35.3,73.4,36.3z M29.1,18.2c-0.2-0.1-0.3-0.2-0.5-0.4
	c-0.5,1-1,1.9-1.7,3.3C28.8,20.4,29,19.3,29.1,18.2z M15.9,34.2c-0.2,0-0.3,0-0.5,0.1c0.1,1.1,0.2,2.1,0.3,3.2c0.1,0,0.1,0,0.2,0
	C15.9,36.3,15.9,35.2,15.9,34.2z M68.9,20.3c-0.2-0.1-0.3-0.2-0.5-0.3c-0.3,0.6-0.6,1.2-0.8,1.7c0.1,0.1,0.2,0.1,0.3,0.2
	C68.2,21.3,68.6,20.8,68.9,20.3z M66.9,21.3c-0.2-0.1-0.3-0.3-0.5-0.4c-0.3,0.4-0.6,0.7-0.8,1C66,21.7,66.5,21.5,66.9,21.3z
	 M73.3,28.1c0.1,0,0.2,0,0.2-0.1c-0.1-0.5-0.2-0.9-0.4-1.4c-0.1,0-0.2,0.1-0.3,0.1C73,27.2,73.2,27.7,73.3,28.1z"/>
<path class="st0" d="M19.7,35.9c0.9-0.1,1.6-0.1,2.3-0.2c0,0.2,0.1,0.4,0,0.4c-0.5,0.4-1.1,0.8-1.9,1.3c1.8,0.5,3-0.5,3.9-1.3
	c2-1.8,4-2.4,6.7-2.2c4.4,0.2,4.5,0,8.7-2.2c2.8-1.5,5.6-2.2,8.7-1.7c1.7,0.3,3.5,0.2,5.2-0.7c1.2-0.7,2.7-0.7,4.2-1
	c0.4-0.1,0.9,0.1,1.2,0.3c2.3,1.9,4.7,1.3,7.2,0.3c0.3-0.1,0.6-0.3,1.1-0.4c1.1,1,2.4,1.8,4.1,0.4c0.9,3.8,2.1,7.3,1.8,11.1
	c-0.2,3.3-0.5,6.6-0.5,9.9c0,2.2,0.1,4.4,0.4,6.6c0.8,6.1-0.3,11.9-1.5,17.8c-1.4,6.8-4.9,12.8-7.6,19c-0.2,0.4-0.4,0.8-0.7,1
	c-3.5,2.7-6.9,5.3-11.5,6c-2.8,0.4-5.5,0.5-8.2-0.6c-1.5-0.6-3-1.3-4.1-2.4c-2.4-2.2-4.5-4.5-6.2-7.3c-2.4-4-4.9-7.9-7.5-11.7
	c-1-1.5-1.4-2.9-1.4-4.7c0-5.1-0.6-10.1-1.7-15c-0.8-3.9-0.9-7.9-1.7-11.8C20.1,45,20,43.3,20,41.4C20.1,39.7,19.8,37.9,19.7,35.9z
	 M55.8,72.8c-4.2-1.7-7.1-2.1-8.5-1.3c0.5,0.6,1,1.1,1.3,1.4c1.3,0.3,2.4,0.7,3.4,0.8C53.3,73.8,54.9,74.5,55.8,72.8
	c0.8-0.6,1.7-1.1,2.5-1.6C56.7,70.7,56,71.4,55.8,72.8z M61.9,83c0.4-0.3,0.7-0.6,1.1-0.9c-1-0.5-1.9-0.9-2.8-1.4
	c-2-1.1-3.9-1.5-5.8,0.2c-0.3,0.3-0.7,0.4-1,0.6c-0.8-0.4-1.4-0.8-2.1-1.2c-1.3-0.7-2.3-0.6-3.5,0.4c-0.6,0.5-1.1,1.1-1.4,1.8
	c-0.6,1.2-1.4,1.8-2.6,2.2c-0.5,0.1-0.9,0.4-1.3,0.7c0.7,0.4,1.5,0.6,2,0.3c1.9-0.9,3.4-0.7,4.7,1c0.2,0.2,0.4,0.3,0.6,0.5
	c2.4,2,5.7,2,8-0.1C59.3,85.7,60.6,84.3,61.9,83L61.9,83z M50.8,51.8c1.4,1.4,1.3,1.4,1.4,3.2c0.1,1.9,0.1,3.7,0.4,5.5
	c0.5,2.6,1.3,5.2,1.9,7.9c2.1-0.6,2.2-0.6,1.4-2.4c-0.2-0.5-0.5-0.9-0.7-1.4c-1.2-3.3-1.5-6.7-1-10.1c1.9,0.3,3.7,0.9,5.3,0.7
	c1.7-0.3,3.4-1.1,4.6-2.6c-0.7,0.2-1.5,0.3-2.4,0.5c0-0.9,0.1-1.5,0.1-2.3c1,0,1.9,0,2.8,0c-0.7-0.8-1.5-1.2-2.3-1.4
	c-0.9-0.2-2,0.2-2.9-0.4c3-3.5,3.7-3.7,9.8-3.3c-0.4-0.5-0.7-0.9-1-1.1c-2.3-1.1-4.6-1.1-6.7,0.3C58,47.2,54.5,49.4,50.8,51.8z
	 M36.3,52.3c-3.4,0.5-6.3,1-8.6,3.4c4.6,3.2,10.3,3.3,11.7,0.2c-1,0.3-1.9,0.5-3.2,0.8c0.4-1,0.7-1.7,0.9-2.3c2.5,0.1,5,1.8,7.6-0.3
	c-0.6-0.5-1-1.1-1.6-1.3c-1.8-0.8-3.5-1.6-5.3-2.3c-2.8-1-5.6-1.9-8.4-2.6c-2.5-0.6-3.9,0.3-4.9,2.9c0.1,0.1,0.3,0.2,0.4,0.2
	c0.4-0.2,0.8-0.5,1.2-0.8c1.1-0.9,2.3-1.5,3.7-0.8C31.9,50.1,33.9,51.1,36.3,52.3z M40.6,42.3c0,0.2-0.1,0.3-0.1,0.5
	c1,0.1,2.1,0.4,3.1,0.3c2.6-0.2,5.2-0.6,7.8-1.1c0.9-0.2,1.7-0.8,2.5-1.2C49.4,41.8,45,42.3,40.6,42.3z M36.8,59.6
	c-1.4,0.1-2.8,0.2-4.1,0.3C34.1,60.8,35.4,60.5,36.8,59.6z"/>
<path class="st1" d="M31.5,29.5c-0.4,0.3-0.8,0.6-1.2,1c-0.4,0.3-0.8,0.6-1.3,1c-0.1-0.4-0.3-0.7-0.5-1.3c-1.5,2.6-3.6,2.9-6,2.9
	c1.1-1,2.3-2,3.3-3.1c0.5-0.5,1.8-1,0.6-2.1c0,0,0.1-0.3,0.2-0.4c2.4-2.3,4.1-5.3,7.5-7.4c-0.9,2.3-1.6,4.2-2.3,6
	c-0.8,0.7-1.6,1.4-2.4,2c1.3-0.2,2.2-0.7,2.3-2.1c0.7-1.1,1.4-2.1,2-3.3c0.6-1.2,1.1-2.5,1.6-3.8l-0.1,0c0,0.4,0,0.8,0.1,1.7
	c2.9-3.1,4.5-6.6,7.1-9.5c-0.5,1.1-1,2.1-1.5,3.2c-0.8,1.4-2,2.7-2,4.5c0,0.2-0.4,0.4-0.6,0.6c-0.4,0.4-0.9,0.8-1.1,1.2
	c-1.1,3.2-3,5.8-5.4,8.1C31.7,28.9,31.6,29.2,31.5,29.5C31.4,29.5,31.5,29.5,31.5,29.5z"/>
<path class="st1" d="M44.3,27.5c-0.4,0.3-0.8,0.8-1.2,0.8c-1.9-0.4-3,1.1-4.3,1.9c-2.4,1.4-5,2-7.7,2c0.1-1,0.3-1.8,0.4-2.7
	c0,0-0.1,0.1-0.1,0.1c2-0.5,3.2-2.1,4.3-3.6c2-2.8,3.6-5.9,5.3-8.9c0.3-0.5,0.5-1,0.9-1.4c-0.7,3.5-2.4,6.5-4.6,9.6
	c1.4,0.1,1.9-0.6,2.5-1.3c0.6-0.7,1.3-1.4,2.2-2.3c-0.3,2.5-2.2,3.4-3.5,5c0.6,0.3,1.1,0.8,1.5,0.7c0.9-0.3,1.9-0.7,2.6-1.3
	c0.6-0.4,0.8-1.3,1.3-1.9c0.5-0.6,1.2-1.1,1.8-1.6c0.1,0.2,0.3,0.4,0.4,0.5c-0.4,0.5-0.7,1.1-1.1,1.4c-1,0.7-1.8,1.5-1.9,3
	C43.6,27.5,44,27.5,44.3,27.5z"/>
<path class="st1" d="M47.6,25.6c1.2-1.8,2.3-3.6,3.5-5.5c-0.5,1.3-0.8,2.5-1.4,3.7C49.2,25,48.5,26,47.8,27c2.4-1.4,4.7-5.4,4.8-7.8
	c0.8-0.9,1.6-1.9,2.3-2.7c0.1,2.1-1,5.2-3.8,9.7c2.3-1,2.9-3,4.1-4.5c1.2-1.6,2.2-3.3,3.6-5.3c-0.6,5.4-3.4,9-7.7,11.4
	c-1.2,0.7-3,0.1-4.9,0.1C46.9,26.9,47.3,26.2,47.6,25.6C47.7,25.5,47.6,25.6,47.6,25.6z"/>
<path class="st0" d="M22,71.3c-2.6-1.1-3.5-3.3-4.1-5.7c-0.6-2.2-1.3-4.4-1.8-6.6c-0.3-1.4-0.5-2.8-0.7-4.5c1.9,1,3.1,2,3.6,4
	C19.7,62.9,20.9,67.1,22,71.3z"/>
<path class="st0" d="M77.9,49.9c-0.3,2.9-0.7,5.3-0.8,7.8c-0.1,2.7-0.1,2.7-2.4,4.8c-0.1-0.9-0.4-1.7-0.4-2.5
	c0.1-2.8,0.2-5.7,0.3-8.5c0-1.2,0.8-1.7,1.6-2C76.7,49.3,77.5,49.8,77.9,49.9z"/>
<path class="st1" d="M27.6,24.5c1.7-3.7,5.1-6.3,6.5-10.3c0.2,1,1.4,2.1-0.5,2.9c-0.3,0.1-0.3,0.7-0.5,1.1
	C32.2,21.1,29.6,22.6,27.6,24.5z"/>
<path class="st1" d="M61.3,18.5c-0.6,5.2-3.3,8.3-6.3,8.4C57,24.2,59.1,21.3,61.3,18.5z"/>
<path class="st1" d="M69.2,24.6c-1.2,1.1-2.3,2.4-3.6,3.4c-1.2,0.9-2.7,0.8-4.8,0c0.8-0.4,1.5-0.6,2.1-0.9c1.8-0.9,3.5-1.8,5.3-2.7
	c0.4-0.2,0.9-0.3,1.3-0.4C69.4,24.1,69.3,24.4,69.2,24.6z"/>
<path class="st1" d="M45.9,12.6c-1,3.8-2.8,6.5-5.1,8.9C42.3,18.7,42.2,14.9,45.9,12.6z"/>
<path d="M52.7,19.2c-0.1,2.4-2.4,6.4-4.8,7.8c0.6-1.1,1.4-2.1,1.9-3.2c0.6-1.2,0.9-2.5,1.4-3.7c0-0.1,0.1-0.3,0.1-0.4
	c0.4-0.4,0.9-0.9,1.3-1.3C52.6,18.7,52.6,19,52.7,19.2z"/>
<path class="st1" d="M46.2,23c-0.1-0.2-0.3-0.4-0.4-0.5c1.8-3.3,3.6-6.7,5.3-9.9c0.1,2.5-1.1,4.8-2.1,7.1c-0.1,0.2-0.2,0.4-0.3,0.6
	C47.8,21.3,47,22.2,46.2,23z"/>
<path class="st1" d="M18.1,28.3c-1.8-1-1.9-1.5-0.5-2.3c1.5-0.8,3.1-1.5,4.8-2.1C21.4,25.9,19.7,27.1,18.1,28.3z"/>
<path class="st1" d="M19.2,31.2c2.3-2.1,4.7-4.2,7-6.3c-1.2,3.3-3.8,5-6.5,6.8C19.6,31.5,19.4,31.4,19.2,31.2z"/>
<path class="st1" d="M44.3,21.3c-0.2-0.3-0.7-0.6-0.6-0.8c0.5-1.3,1-2.7,1.8-3.8c0.6-0.7,1.8-1,3-1.6c-0.3,1.3-0.8,2.1-1.6,2.9
	C45.9,18.9,45.1,20.2,44.3,21.3L44.3,21.3z"/>
<path class="st1" d="M279.1,68.4c0.1,3.5-0.1,4-2.5,5.9C276.8,72.1,277.5,70.4,279.1,68.4z"/>
<path class="st1" d="M269.3,74.7c0.7-2.8,0.6-5.5,2.5-7.5C272.2,69.4,271.4,71.8,269.3,74.7z"/>
<path d="M46.2,23c0.8-0.9,1.7-1.7,2.5-2.6c-1.4,2.3-2.7,4.5-4.1,6.8c-0.1,0.1-0.2,0.2-0.3,0.2c-0.3,0-0.6,0-1.1,0
	c0.1-1.5,0.9-2.3,1.9-3C45.5,24.1,45.8,23.5,46.2,23z"/>
<path class="st1" d="M44.6,27.2c1.4-2.3,2.7-4.5,4.1-6.8c0.1-0.2,0.2-0.4,0.3-0.6c0.2,0.1,0.6,0.3,0.6,0.3c-0.3,0.8-0.6,1.7-0.9,2.5
	c-0.4,1-0.7,2-1.1,3c0,0,0.1-0.1,0.1-0.1C46.6,26.1,45.6,26.7,44.6,27.2z"/>
<path class="st1" d="M54.8,21c0.9-3.5,1.6-6.5,2.4-9.7c-0.1,1-0.1,1.9-0.2,2.8c-0.1,0.6-0.4,1.2-0.2,1.7
	C57.7,18.1,56.3,19.3,54.8,21z"/>
<path class="st1" d="M69.2,24.6c0.1-0.2,0.2-0.4,0.3-0.7c1.1-1.2,2.1-2.5,3.5-4.1c-0.6,2.3-0.7,4.2-2.6,5.3
	C69.6,25.7,69.3,25.3,69.2,24.6z"/>
<path class="st1" d="M247.2,74c0-1,0.1-2,0.1-3.1c1-0.5,1.9-1,3.3-1.7C249.4,71.1,248.9,72.9,247.2,74L247.2,74z"/>
<path class="st1" d="M60.9,24.6c1.5-2,3.1-4,5-6.4c-0.4,3.5-2.8,4.9-4.4,6.9C61.2,24.9,61,24.8,60.9,24.6z"/>
<path class="st1" d="M266.9,66.5c-0.8,1.9-1.6,3.8-2.4,5.7c-0.8-2.5,0.8-4.1,1.8-5.9C266.6,66.4,266.7,66.4,266.9,66.5z"/>
<path class="st1" d="M272.8,64.1c1.1,2.2,0.9,4.1,0.4,6.1c0-0.7,0.1-1.4,0-2.1c-0.1-0.7-0.3-1.4-0.6-1.9
	C272,65.4,272.2,64.9,272.8,64.1z"/>
<path class="st1" d="M276.9,69.2c0.3-1.4,0.7-2.8,1.1-4.4c0.8,0.3,1.2,0.8,0.9,1.5c-0.5,1.1-1,2.1-1.5,3.1
	C277.2,69.3,277,69.3,276.9,69.2z"/>
<path class="st1" d="M282.3,69.7c-0.5,1.3-0.9,2.6-1.5,4.3C280.3,71.6,280.6,70.8,282.3,69.7z"/>
<path class="st1" d="M62.4,18.2c0.5,0.1,0.9,0.2,1.6,0.4c-0.8,1.1-1.5,2.1-2.2,3c-0.1-0.1-0.2-0.1-0.4-0.2
	C61.7,20.4,62,19.4,62.4,18.2z"/>
<path class="st1" d="M44.2,21.3c0,0.4,0.2,0.8,0,1.1c-0.9,1.2-1.8,2.4-2.7,3.5c-0.2-0.1-0.3-0.2-0.5-0.4
	C42.1,24.1,43.2,22.7,44.2,21.3C44.3,21.3,44.2,21.3,44.2,21.3z"/>
<path class="st1" d="M263.3,73.5c-0.4,0.4-0.8,0.8-1.2,1.2c0.2-1.4,0.5-2.8,0.7-4.1c0.1-0.3,0.3-0.5,0.5-0.8
	C263.3,71,263.3,72.3,263.3,73.5z"/>
<path class="st1" d="M18.3,38.6c-0.2-1.3-0.4-2.6-0.6-4.2C18.6,35.9,18.6,35.9,18.3,38.6z"/>
<path class="st1" d="M282.3,72.2c0.2-1.2,0.5-2.3,0.7-3.5C283.6,70,283.2,71.2,282.3,72.2z"/>
<path class="st1" d="M73.4,36.3c-0.1-1-0.2-1.9-0.3-2.9c0.2,0,0.3-0.1,0.5-0.1c0.2,1,0.4,2,0.6,3C74,36.3,73.7,36.3,73.4,36.3z"/>
<path class="st1" d="M29.1,18.2c-0.1,1.1-0.4,2.2-2.2,3c0.7-1.4,1.2-2.4,1.7-3.3C28.8,17.9,29,18,29.1,18.2z"/>
<path class="st1" d="M16.9,33.2c0,1.1,0,2.1,0,3.2c-0.1,0-0.1,0-0.2,0c-0.1-1.1-0.2-2.1-0.3-3.2C16.6,33.2,16.8,33.2,16.9,33.2z"/>
<path class="st1" d="M68.9,20.3c-0.3,0.5-0.7,1.1-1,1.6c-0.1-0.1-0.2-0.1-0.3-0.2c0.3-0.6,0.6-1.2,0.8-1.7
	C68.6,20.1,68.7,20.2,68.9,20.3z"/>
<path class="st1" d="M66.9,21.3c-0.4,0.2-0.9,0.4-1.3,0.6c0.2-0.3,0.5-0.7,0.8-1C66.6,21,66.8,21.1,66.9,21.3z"/>
<path class="st1" d="M73.3,28.1c-0.2-0.5-0.3-0.9-0.5-1.4c0.1,0,0.2-0.1,0.3-0.1c0.1,0.5,0.2,0.9,0.4,1.4
	C73.5,28.1,73.4,28.1,73.3,28.1z"/>
<path d="M50.8,51.8c3.7-2.4,7.2-4.7,10.7-6.9c2.2-1.4,4.5-1.4,6.7-0.3c0.4,0.2,0.6,0.7,1,1.1c-6.1-0.4-6.8-0.2-9.8,3.3
	c0.9,0.7,1.9,0.2,2.9,0.4c0.8,0.2,1.6,0.6,2.3,1.4c-0.9,0-1.7,0-2.8,0c0,0.8-0.1,1.4-0.1,2.3c0.9-0.2,1.6-0.4,2.4-0.5
	c-1.2,1.6-3,2.4-4.6,2.6c-1.6,0.3-3.4-0.4-5.3-0.7c-0.5,3.4-0.2,6.8,1,10.1c0.2,0.5,0.4,0.9,0.7,1.4c0.8,1.8,0.8,1.8-1.4,2.4
	c-0.7-2.6-1.4-5.2-1.9-7.9c-0.3-1.8-0.3-3.7-0.4-5.5C52.1,53.3,52.2,53.3,50.8,51.8z M57.1,51.8c-0.7,0.5-1.3,0.9-2.3,1.7
	c1.5,0.3,2.5,0.4,3.9,0.7C58,53.1,57.6,52.5,57.1,51.8z"/>
<path d="M36.3,52.3c-2.4-1.2-4.4-2.2-6.4-3.1c-1.4-0.7-2.6,0-3.7,0.8c-0.4,0.3-0.8,0.6-1.2,0.8c-0.1,0-0.3-0.1-0.4-0.2
	c1.1-2.6,2.4-3.5,4.9-2.9c2.9,0.7,5.7,1.7,8.4,2.6c1.8,0.6,3.6,1.4,5.3,2.3c0.6,0.3,1,0.8,1.6,1.3c-2.6,2.1-5,0.4-7.6,0.3
	c-0.2,0.6-0.5,1.3-0.9,2.3c1.2-0.3,2.2-0.5,3.2-0.8c-1.5,3.2-7.2,3.1-11.7-0.2C30,53.4,33,52.8,36.3,52.3z M30.3,55.8
	c0.9,0.2,1.4,0.4,2,0.5C32,54.9,32,54.9,30.3,55.8z"/>
<path d="M62,83c-1.4,1.3-2.7,2.7-4.1,4c-2.3,2.1-5.7,2.1-8,0.1c-0.2-0.2-0.4-0.3-0.6-0.5c-1.3-1.7-2.8-1.9-4.7-1
	c-0.5,0.3-1.3,0-2-0.3c0.4-0.2,0.9-0.5,1.3-0.7c1.2-0.3,2.1-1,2.6-2.2c0.3-0.7,0.9-1.3,1.4-1.8c1.1-1,2.2-1.1,3.5-0.4
	c0.7,0.4,1.3,0.7,2.1,1.2c0.3-0.2,0.7-0.3,1-0.6c1.9-1.7,3.8-1.4,5.8-0.2c0.8,0.5,1.7,0.9,2.8,1.4C62.6,82.4,62.3,82.7,62,83
	c-0.8-1.5-2.5-1.8-3.8-2.6c-0.2-0.1-0.6,0.1-0.9,0.3c-0.9,0.4-1.8,0.8-2.6,1.4c-0.7,0.5-1.4,0.5-2.1,0.1c-0.5-0.3-1-0.6-1.5-0.9
	c-1.4-0.7-1.8-0.5-2.7,1c1.2,0.2,2.4,0.6,3.6,0.7c1.8,0,3.8,1,5.5-0.8c0.6-0.6,1.6-0.6,2.7,0.2c-0.8,0.2-1.6,0.1-1.9,0.5
	c-1.8,2.7-4.2,2.5-6.9,1.5c-0.9-0.4-1.9-0.7-3,0.3c1.8,1.7,3.5,3.1,6.2,2.7c2-0.3,3.3-1.7,4.7-2.8C60,83.8,60.7,82.9,62,83z"/>
<path d="M55.8,72.8c-0.9,1.8-2.5,1-3.8,0.9c-1.1,0-2.1-0.5-3.4-0.8c-0.3-0.3-0.8-0.8-1.3-1.4C48.8,70.7,51.7,71.2,55.8,72.8
	L55.8,72.8z"/>
<path d="M40.6,42.3c4.4,0,8.8-0.5,13.3-1.4c-0.8,0.4-1.6,1-2.5,1.2c-2.6,0.5-5.2,0.8-7.8,1.1c-1,0.1-2.1-0.2-3.1-0.3
	C40.5,42.6,40.6,42.5,40.6,42.3z"/>
<path d="M36.8,59.6c-1.3,0.9-2.7,1.2-4.1,0.3C34,59.8,35.4,59.7,36.8,59.6z"/>
<path d="M55.8,72.8c0.1-1.5,0.9-2.1,2.5-1.6C57.5,71.8,56.7,72.3,55.8,72.8L55.8,72.8z"/>
<path d="M31.9,26c-0.1,1.4-1,1.9-2.3,2.1C30.3,27.4,31.1,26.7,31.9,26L31.9,26z"/>
<path class="st1" d="M57.1,51.8c0.5,0.7,0.9,1.3,1.6,2.4c-1.4-0.2-2.4-0.4-3.9-0.7C55.9,52.8,56.5,52.3,57.1,51.8z"/>
<path class="st1" d="M30.3,55.8c1.7-1,1.7-1,2,0.5C31.7,56.2,31.2,56.1,30.3,55.8z"/>
<path class="st0" d="M62,83c-1.3-0.1-1.9,0.8-2.8,1.5c-1.4,1.2-2.6,2.5-4.7,2.8c-2.7,0.4-4.4-1-6.2-2.7c1.1-0.9,2.1-0.6,3-0.3
	c2.6,1,5,1.2,6.9-1.5c0.2-0.3,1-0.3,1.9-0.5c-1-0.8-2.1-0.8-2.7-0.2c-1.7,1.8-3.6,0.8-5.5,0.8c-1.2,0-2.4-0.4-3.6-0.7
	c0.9-1.6,1.3-1.7,2.7-1c0.5,0.3,1,0.6,1.5,0.9c0.7,0.5,1.4,0.4,2.1-0.1c0.8-0.5,1.7-0.9,2.6-1.4c0.3-0.1,0.7-0.4,0.9-0.3
	C59.5,81.1,61.2,81.4,62,83C61.9,83,62,83,62,83z"/>
</svg>
