<?xml version="1.0" encoding="utf-8"?>
<!-- Generator: Adobe Illustrator 16.0.4, SVG Export Plug-In . SVG Version: 6.00 Build 0)  -->
<!DOCTYPE svg PUBLIC "-//W3C//DTD SVG 1.1//EN" "http://www.w3.org/Graphics/SVG/1.1/DTD/svg11.dtd">
<svg version="1.1" id="Layer_1" xmlns="http://www.w3.org/2000/svg" xmlns:xlink="http://www.w3.org/1999/xlink" x="0px" y="0px"
	 width="612px" height="792px" viewBox="0 0 612 792" enable-background="new 0 0 612 792" xml:space="preserve">
<path fill-rule="evenodd" clip-rule="evenodd" d="M106.55,155.825c0.516-1.026,0.992-1.838,1.341-2.702
	c0.464-1.149,1.204-2.064,2.119-2.861c0.964-0.839,1.926-1.658,2.567-2.816c0.296-0.535,0.832-0.985,1.351-1.341
	c1.32-0.903,3.017-0.291,3.001,1.28c-0.046,4.542,2.26,8.235,4.07,12.093c1.254,2.674,3.263,4.909,4.878,7.377
	c3.101,4.736,6.475,9.286,9.302,14.211c2.622,4.567,6,8.625,9.255,12.753c4.755,6.032,9.822,11.777,15.699,16.749
	c1.587,1.342,3.019,2.884,4.694,4.086c4.786,3.432,9.541,6.919,14.976,9.343c3.203,1.428,5.957,1.119,9.04-0.678
	c7.438-4.335,14.646-9.073,22.525-12.664c4.052-1.847,7.979-3.993,12.038-5.858c3.622-1.665,7.319-3.032,11.21-3.994
	c3.472-0.858,6.83-2.19,10.221-3.362c5.208-1.799,10.531-3.135,15.958-4.074c3.774-0.653,7.546-1.284,11.393-1.343
	c1.187-0.018,2.279-0.415,3.412-0.896c4.397-1.868,8.187-4.572,11.765-7.686c2.411-2.098,5.158-3.741,8.031-5.183
	c1.951-0.979,4.03-0.881,6.077-1.134c4.227-0.521,8.367,0.169,12.241,1.675c3.903,1.518,7.201,4.21,9.896,7.409
	c1.735,2.059,3.883,2.7,6.292,2.914c1.661,0.147,3.339,0.228,5.023-0.059c1.447-0.246,1.655,0.116,1.416,1.58
	c-0.545,3.349-1.921,6.396-3.351,9.424c-0.852,1.802-0.847,1.859,1.023,1.95c5.335,0.261,10.676,0.396,16.01,0.602
	c8.821,0.34,17.706,0.514,26.345,2.592c4.405,1.06,8.729,2.479,12.99,4.105c5.228,1.994,10.066,4.768,15.158,7.015
	c4.378,1.931,8.805,3.754,13.435,5.049c2.381,0.666,4.67,1.653,7.039,2.365c5.266,1.583,10.553,3.093,15.946,4.199
	c1.149,0.235,2.071-0.048,2.851-0.814c2.214-2.177,4.573-4.19,6.551-6.625c2.417-2.975,5.344-5.479,8.148-8.094
	c4.676-4.356,9.785-8.186,14.657-12.302c3.717-3.14,7.691-5.974,11.436-9.084c2.448-2.033,5.028-3.944,7.064-6.44
	c0.919-1.127,1.471-2.379,1.869-3.808c1.26-4.512,3.01-8.762,7.416-11.239c0.421-0.237,0.823-0.556,1.29-0.58
	c1.456-0.074,1.994-0.977,2.287-2.243c0.919-3.979,2.641-7.678,4.191-11.423c1.218-2.941,2.702-5.756,4.957-8.137
	c1.464-1.545,3.185-2.301,5.152-2.763c0.497-0.116,1.092-0.214,1.337,0.199c0.902,1.519,2.49,2.698,2.05,4.875
	c-0.744,3.673-0.95,7.442-1.854,11.094c-0.071,0.289,0.025,0.621,0.046,0.954c5.953-2.121,10.897-5.617,15.396-9.918
	c3.205-3.065,5.994-6.335,8.145-10.246c1.333-2.422,3.063-4.686,5.231-6.509c1.611-1.356,2.664-1.007,3.182,1.063
	c0.296,1.181,0.298,2.372-0.218,3.523c-0.129,0.288-0.191,0.61,0.062,1.031c1.14-0.256,2.056-1.005,3.031-1.622
	c0.531-0.336,1.076-0.955,1.689-0.385c0.671,0.624,1.52,1.293,1.172,2.417c-0.211,0.684-0.539,1.324-0.578,2.064
	c-0.039,0.728-0.117,1.423,0.597,1.928c0.883,0.625,0.811,1.466,0.461,2.359c-0.641,1.637-1.337,3.244-2.227,4.768
	c-0.467,0.8-1.05,1.563-1.251,2.474c0.663,0.444,1.187,0.039,1.718-0.021c1.17-0.132,2.062,0.342,2.668,1.264
	c0.6,0.913,0.223,1.801-0.272,2.676c-1.007,1.782-2.298,3.224-4.229,4.046c-2.814,1.197-5.081,3.311-7.76,4.729
	c-5.801,3.07-9.75,8.19-14.137,12.798c-2.136,2.243-4.562,3.987-7.209,5.45c-1.619,0.895-3.194,1.78-4.458,3.151
	c-0.6,0.65-1.323,1.144-2.069,1.62c-1.345,0.856-2.673,1.742-3.842,2.854c1.957,1.72,4.059,3.192,5.752,5.107
	c1.702,1.924,1.82,3.706,0.358,5.374c-0.956,1.091-2.379,1.337-3.686,1.377c-1.483,0.045-2.788,0.392-4.112,1.01
	c-2.971,1.387-5.868,2.88-8.613,4.687c-1.256,0.828-2.697,1.372-4.032,2.085c-4.272,2.282-7.836,5.452-11.197,8.892
	c-1.896,1.94-3.883,3.793-5.864,5.648c-4.781,4.477-9.418,9.101-14.043,13.739c-1.462,1.467-3.104,2.737-4.501,4.296
	c-5.651,6.305-10.963,12.88-15.967,19.706c-0.511,0.697-0.888,1.458-1.238,2.275c-0.729,1.699-2.226,2.646-4.106,2.829
	c-1.619,0.158-3.236-0.125-4.709-0.682c-7.086-2.683-14.352-4.825-21.512-7.284c-3.627-1.246-7.131-2.764-10.604-4.371
	c-1.811-0.838-3.658-1.549-5.68-1.725c-0.544-0.048-1.07-0.304-1.604-0.466c-5.717-1.738-11.438-3.462-17.145-5.23
	c-1.028-0.318-2.021-0.469-3.05-0.126c-0.547,0.183-1.102,0.215-1.659,0.139c-3.968-0.543-7.979-0.356-11.96-0.725
	c-1.621-0.149-1.971-0.646-2.882,1.608c-2.063,5.107-4.378,10.12-6.268,15.289c-1.968,5.382-3.791,10.825-4.939,16.474
	c-0.506,2.487-1.479,4.872-1.92,7.399c-0.569,3.266-0.506,6.543-0.247,9.806c0.403,5.087,0.637,10.192,1.574,15.233
	c0.92,4.947,1.906,9.907,1.588,14.983c-0.379,6.053-0.757,12.113-3.127,17.824c-0.489,1.18-0.83,2.41-0.921,3.705
	c-0.123,1.763,0.112,2.167,1.901,2.723c2.282,0.71,4.602,1.317,6.661,2.595c0.407,0.252,0.82,0.496,1.217,0.764
	c0.818,0.553,0.707,1.275,0.074,1.775c-0.866,0.685-1.827,1.242-2.992,1.403c-1.98,0.273-3.945,0.631-5.959,0.59
	c-0.697-0.014-1.426-0.184-2.291,0.225c0.967,5.535,0.665,11.229,1.986,16.767c0.517,2.167,0.676,4.419,0.671,6.662
	c-0.005,2.487,0.394,4.93,0.729,7.383c0.163,1.186,0.287,2.391,0.265,3.584c-0.13,7.189,0.587,14.355,0.416,21.555
	c-0.134,5.65-0.164,11.317,0.164,16.99c0.243,4.191-0.517,8.432-0.618,12.655c-0.104,4.304-0.454,8.597-0.282,12.92
	c0.137,3.417-0.206,6.858-0.423,10.283c-0.288,4.543-0.72,9.076-0.982,13.62c-0.372,6.456-0.535,12.922-0.817,19.381
	c-0.21,4.777-1.004,9.531-1.596,14.288c-0.414,3.336-0.883,6.675-0.22,10.013c0.227,1.139-0.457,1.974-0.559,2.989
	c-0.9,8.98-2.098,17.924-2.168,26.986c-0.037,4.777-1.016,9.52-1.823,14.244c-0.391,2.283-0.863,4.554-1.2,6.845
	c-0.57,3.887-1.711,7.603-3.094,11.266c-1.98,5.244-2.745,10.627-1.747,16.209c0.252,1.413,0.789,2.582,2.055,3.306
	c0.453,0.26,0.854,0.496,0.685,1.077c-0.139,0.472-0.425,0.885-0.951,0.982c-0.466,0.087-0.946,0.098-1.42,0.141
	c-2.187,0.194-2.49,0.328-2.879,2.665c-0.589,3.54-1.207,7.104-1.385,10.678c-0.254,5.107-0.092,10.233,0.409,15.334
	c0.077,0.788,0.278,1.572,0.501,2.335c1.386,4.764,1.885,9.714,3.081,14.519c0.838,3.365,0.133,6.679-0.687,9.938
	c-0.202,0.802-0.89,1.487-1.382,2.208c-1.801,2.641-3.593,5.27-6.008,7.439c-2.425,2.177-4.974,3.261-8.406,3.206
	c-5.255-0.085-9.112-2.312-12.387-6.103c-1.234-1.427-1.948-3.085-2.464-4.856c-1.481-5.094-1.311-10.295-0.696-15.455
	c0.556-4.67,1.376-9.321,2.339-13.926c0.815-3.897,1.788-7.76,2.424-11.699c0.535-3.321,0.542-6.676,0.818-10.012
	c0.182-2.184-0.489-4.364-1.644-6.161c-0.754-1.172-0.803-2.231-0.603-3.359c0.516-2.903,1.048-5.815,1.829-8.654
	c0.499-1.814,0.485-3.645,0.639-5.457c0.559-6.599,1.278-13.201-0.009-19.82c-0.394-2.023-0.378-4.132-0.476-6.204
	c-0.214-4.541-1.438-8.998-1.112-13.582c0.062-0.867,0.1-1.735,0.149-2.626c-0.577-0.137-0.61,0.31-0.682,0.648
	c-1.522,7.177-2.995,14.364-4.583,21.526c-0.349,1.574-0.103,3.155-0.531,4.738c-0.979,3.627-1.825,7.296-3.546,10.656
	c-0.993,1.938-1.201,3.949-1.07,6.032c0.116,1.844,0.088,3.665-0.239,5.488c-0.272,1.518,0.134,3.026,0.159,4.542
	c0.124,7.587,0.486,15.17,0.115,22.761c-0.179,3.674-1.175,6.99-3.273,10.09c-2.646,3.907-5.45,7.697-8.297,11.445
	c-3.017,3.971-7.079,5.863-12.213,4.853c-1.079-0.213-1.96-0.723-2.749-1.379c-2.287-1.898-4.354-4.12-5.781-6.654
	c-2.074-3.683-3.075-7.784-3.178-12.096c-0.099-4.124,1.244-7.872,2.771-11.545c2.425-5.831,4.304-11.859,6.636-17.721
	c0.379-0.954,0.637-2.004,0.701-3.024c0.176-2.786,0.465-5.557,0.762-8.331c0.323-3.014,0.306-6.059,1.066-9.026
	c0.388-1.513-0.263-3.013-0.25-4.521c0.053-6.233-0.384-12.46-0.036-18.702c0.578-10.358,0.201-20.738,0.465-31.104
	c0.071-2.793,0.105-5.569,0.042-8.366c-0.106-4.669-1.573-8.921-3.157-13.18c-1.659-4.461-3.288-8.904-4.357-13.58
	c-1.351-5.909-2.735-11.813-4.08-17.726c-0.566-2.488-0.965-5.016-1.531-7.504c-0.442-1.943-0.918-3.892-1.569-5.771
	c-1.538-4.45-3.205-8.846-3.848-13.56c-0.735-5.384-2.384-10.588-3.341-15.928c-0.717-3.995-1.124-8.044-1.762-12.055
	c-0.869-5.453-0.867-10.977-1.46-16.45c-0.154-1.426-0.347-2.853-0.62-4.259c-0.965-4.969-0.933-10.018-1.284-15.037
	c-0.19-2.709-0.462-5.413-0.713-8.118c-0.095-1.019-0.344-1.687-1.702-1.734c-3.246-0.114-6.134-1.665-9.143-2.703
	c-0.549-0.189-0.999-0.776-1.404-1.256c-0.826-0.976-0.846-1.649,0.205-2.411c1.358-0.985,2.479-2.25,3.845-3.189
	c4.44-3.055,7.125-7.28,8.361-12.432c1.1-4.584,2.607-9.059,3.66-13.644c1.052-4.581,1.771-9.24,2.595-13.872
	c1.106-6.22,1.369-12.536,2.072-18.802c0.071-0.633,0.104-1.27,0.185-1.901c0.379-2.965,0.173-5.846-0.694-8.748
	c-1.758-5.881-3.295-11.827-4.977-17.731c-1.247-4.375-2.822-8.641-4.562-12.842c-0.492-1.188-0.818-2.402-1.125-3.649
	c-0.985-4.013-1.7-8.116-3.513-11.883c-0.519-1.077-0.9-2.458-1.782-3.065c-1.375-0.947-2.447-2.335-4.106-2.898
	c-1.441-0.488-2.884-0.886-4.404-1.059c-3.197-0.364-6.147,0.697-9.138,1.501c-3.099,0.833-5.983,2.2-8.744,3.814
	c-1.88,1.099-4.007,1.553-5.999,2.353c-3.616,1.453-7.099,3.185-10.651,4.765c-4.006,1.782-7.963,3.737-12.028,5.322
	c-2.743,1.069-5.329,2.714-8.471,2.92c-3.516,0.229-7.076,0.585-10.514,0.102c-3.568-0.502-6.787-2.333-9.353-5
	c-1.879-1.954-3.646-4.015-5.458-6.034c-0.212-0.237-0.468-0.481-0.565-0.768c-1.133-3.359-3.13-6.281-4.818-9.346
	c-1.571-2.854-3.16-5.701-4.705-8.571c-1.701-3.16-3.376-6.334-5.104-9.48c-3.517-6.404-7.87-12.203-13-17.388
	c-4.773-4.823-9.188-9.972-13.835-14.908c-3.623-3.848-7.608-7.237-12.042-10.116c-2.078-1.349-4.059-2.833-5.694-4.74
	c-0.771-0.9-1.699-1.62-2.785-2.193c-1.612-0.851-1.556-2.194,0.015-3.199c0.202-0.129,0.429-0.22,0.622-0.361
	c2.154-1.579,2.677-1.524,0.747-3.923c-1.975-2.456-4.57-4.014-7.119-5.563c-3.345-2.034-6.686-4.014-9.687-6.553
	c-4.214-3.564-9.042-6.227-13.755-9.036c-3.817-2.275-7.08-5.188-10.054-8.413c-1.513-1.64-1.748-3.888-1.766-6.081
	c-0.008-0.958,0.566-1.524,1.455-1.596c1.194-0.095,1.191-0.736,1.004-1.644c-0.21-1.016-0.135-2.128-0.513-3.066
	c-1.024-2.538-0.808-5.163-0.866-7.785c-0.029-1.33,0.675-2.119,1.765-2.571c1.256-0.521,1.917,0.434,2.487,1.296
	c0.956,1.444,1.835,2.938,2.751,4.418c0.734-0.349,0.502-0.876,0.544-1.286c0.146-1.435,1.146-2.17,2.349-2.378
	c1.163-0.201,2.404,0.062,3.063,1.293c0.786,1.467,1.535,2.953,2.274,4.444c1.57,3.166,3.648,5.986,5.828,8.749
	c1.295,1.642,3.227,2.296,4.927,3.256c2.914,1.646,5.98,3.019,9.129,4.578c0.167-0.901-0.25-1.535-0.629-2.194
	c-1.944-3.384-4.327-6.526-5.669-10.244c-0.054-0.148-0.115-0.324-0.229-0.417c-2.107-1.709-1.904-3.695-0.971-5.972
	c0.469-1.144,1.155-1.348,2.009-1.019c3.047,1.172,6.207,2.221,8.295,4.981c1.269,1.677,2.772,3.035,4.557,4.17
	c4.161,2.647,6.816,6.633,9.194,10.816c1.416,2.49,2.766,4.999,3.667,7.761C104.107,152.396,105.09,154.153,106.55,155.825z
	 M113.993,149.222c-1.012,1.532-1.9,3.03-2.614,4.646c-1.712,3.876-2.859,7.957-4.37,11.901c-1.95,5.092-5.283,9.071-10.164,11.621
	c-1.167,0.609-2.459,0.979-3.848,1.518c1.451,1.733,2.83,3.274,4.578,4.394c4.134,2.648,7.693,5.954,11.028,9.514
	c5.885,6.284,11.739,12.596,17.593,18.908c4.696,5.063,8.907,10.543,11.812,16.792c3.472,7.467,8.025,14.334,11.522,21.772
	c0.777,1.652,1.679,3.294,2.801,4.723c1.892,2.408,3.794,4.663,6.773,6.151c2.999,1.499,5.904,2.619,9.215,2.808
	c3.657,0.208,7.14-0.807,10.617-1.633c3.852-0.916,7.798-1.727,10.999-4.4c0.839-0.701,1.92-1.138,2.935-1.596
	c1.89-0.851,3.944-1.412,5.698-2.476c5.951-3.609,12.615-5.315,19.128-7.423c2.273-0.736,4.677-1.081,6.929-1.869
	c5.072-1.774,9.9-1.033,14.616,1.14c2.049,0.944,3.649,2.319,3.603,4.88c-0.006,0.383,0.197,0.767,0.29,1.154
	c1.075,4.504,2.573,8.881,4.01,13.276c0.768,2.349,1.456,4.718,2.403,7.014c0.85,2.058,1.589,4.202,2.037,6.378
	c1.225,5.955,2.977,11.768,4.728,17.569c1.53,5.069,1.828,10.083,1.098,15.301c-0.407,2.91-0.849,5.836-0.989,8.796
	c-0.183,3.894-0.436,7.8-0.958,11.66c-0.909,6.726-2.657,13.298-3.954,19.955c-0.537,2.754-1.647,5.309-2.521,7.949
	c-1.126,3.405-3.43,6.095-5.393,8.973c-1.311,1.921-3.128,3.418-5.481,4.072c-0.265,0.074-0.642,0.103-0.541,0.715
	c0.832,0.337,1.782,0.318,2.728,0.388c1.992,0.147,4.181-0.121,5.927,0.626c3.945,1.687,6.537-0.252,9.162-2.597
	c0.178-0.159,0.328-0.349,0.492-0.523c3.373-3.569,7.434-5.883,12.187-7.209c7.219-2.015,14.459-3.867,21.837-5.231
	c5.271-0.975,10.56-1.743,15.888-2.227c6.452-0.586,12.922-0.784,19.402-0.658c6.236,0.121,12.431,0.576,18.542,1.95
	c2.781,0.625,5.616,1.015,8.422,1.538c1.376,0.256,2.476-0.124,3.414-1.247c-1.441-1.223-3.188-1.194-4.786-1.544
	c-1.474-0.323-2.734-0.905-3.604-2.143c-0.65-0.927-1.137-1.849-0.074-2.942c0.38-0.391,0.792-0.928,0.932-1.615
	c0.759-3.745,1.484-7.502,2.442-11.198c0.899-3.472,0.868-6.952,0.521-10.443c-0.656-6.594-1.874-13.12-2.468-19.726
	c-0.222-2.474-0.455-4.924-0.135-7.407c0.194-1.51,0.084-3.035-0.149-4.543c-0.383-2.471-0.221-4.929,0.001-7.409
	c0.253-2.839,1.607-5.335,2.202-8.068c1.84-8.458,5.379-16.305,8.815-24.195c1.202-2.76,2.619-5.471,3.052-8.537
	c0.276-1.962,1.324-2.781,3.237-2.229c2.425,0.7,4.86,0.741,7.323,0.81c0.477,0.013,0.956,0.098,1.426,0.189
	c2.433,0.473,4.885,0.767,7.35,1.04c2.372,0.263,4.762,0.28,7.126,0.836c4.695,1.104,9.068,3.055,13.573,4.677
	c9.607,3.458,18.98,7.521,28.602,10.932c3.594,1.274,7.169,2.746,11.065,2.813c2.342,0.04,4.479-0.354,6.076-2.493
	c3.01-4.028,6.169-7.948,9.346-11.848c2.518-3.091,4.812-6.36,7.728-9.137c7.519-7.16,14.931-14.432,22.433-21.611
	c2.535-2.426,5.119-4.816,7.839-7.03c4.474-3.643,9.718-6.065,14.695-8.905c1.323-0.754,2.733-1.377,4.141-2.631
	c-1.464-0.046-2.46-0.7-3.626-0.491c-0.312,0.056-0.639-0.136-0.593-0.549c0.035-0.319,0.176-0.682,0.51-0.725
	c0.546-0.07,1.13-0.12,1.659-0.003c1.161,0.256,2.344,0.515,3.433,0.972c1.046,0.439,1.798,0.458,2.853-0.196
	c2.728-1.69,2.819-2.198-0.052-3.931c-1.22-0.736-2.592-1.231-3.921-1.77c-2.521-1.02-4.897-2.393-6.959-4.072
	c-2.188-1.78-3.412-4.428-3.964-7.224c-0.748-3.786-1-7.6,0.152-11.38c0.114-0.372,0.244-0.838,0.119-1.166
	c-0.327-0.858,0.064-2.143-0.955-2.543c-1.266-0.497-1.981,0.714-2.817,1.4c-0.404,0.331-0.483,0.786-0.35,1.303
	c0.129,0.495,0.01,0.973-0.371,1.32c-1.008,0.922-1.194,2.225-1.627,3.412c-2.166,5.942-0.557,11.092,3.29,15.792
	c0.611,0.747,1.591,1.222,1.994,2.487c-1.488-0.315-2.397-1.113-3.136-1.989c-2.492-2.961-3.645-6.484-3.911-10.295
	c-0.138-1.963,0.289-3.912,0.496-5.881c-0.309,0.23-0.55,0.466-0.649,0.751c-0.707,2.011-1.009,4.173-2.337,5.952
	c-0.208,0.278-0.165,0.776-0.164,1.172c0.018,4.423,1.352,8.269,4.903,11.143c0.446,0.361,1.234,0.537,0.884,1.562
	c-5.125-2.208-5.881-7.172-7.461-11.721c-0.582,0.659-1.012,1.235-1.528,1.717c-4.619,4.312-9.758,7.986-14.818,11.729
	c-6.751,4.994-13.275,10.225-19.271,16.105c-1.367,1.341-2.821,2.634-3.964,4.154c-2.898,3.859-6.169,7.306-10.091,10.139
	c-1.285,0.928-2.777,1.161-4.236,1.506c-0.553,0.13-1.162-0.175-1.209-0.862c-0.037-0.556,0.422-0.827,0.93-0.896
	c0.866-0.119,1.768-0.152,1.945-1.393c-3.923-0.836-7.659-2.264-11.519-3.274c-2.773-0.725-5.567-1.394-8.293-2.27
	c-5.095-1.638-9.974-3.85-14.94-5.828c-9.029-3.595-17.542-8.436-26.965-11.098c-1.861-0.526-3.695-0.977-5.619-1.083
	c-6.692-0.369-13.406-0.392-20.075-1.14c-2.468-0.277-4.979-0.116-7.406-0.494c-4.145-0.646-8.272-0.45-12.418-0.392
	c-0.835,0.012-1.295,0.34-1.706,1.028c-2.973,4.973-6.896,9.163-11.062,13.122c-3.461,3.289-7.713,5.635-11.006,9.152
	c-1.43,1.527-2.899,3.012-3.606,5.007c-2.203,6.218-3.168,12.675-3.405,19.237c-0.141,3.905-0.059,7.819-0.054,11.729
	c0,0.727,0.071,1.395-0.637,1.925c-0.827,0.62-1.197,0.577-1.565-0.413c-0.11-0.297-0.149-0.622-0.227-0.932
	c-1.025-4.108-1.479-8.32-2.251-12.474c-0.527-2.833-1.188-5.632-2.519-8.193c-3.09-5.952-5.86-12.061-8.29-18.293
	c-2.942-7.546-4.579-15.444-4.524-23.591c0.015-2.252-1.347-3.69-2.399-5.337c-0.657-1.029-1.937-0.467-2.894-0.802
	c-0.594-0.208-1.259-0.209-1.885-0.336c-3.805-0.773-7.606-0.786-11.414-0.005c-1.877,0.385-3.785,0.633-5.642,1.093
	c-3.782,0.938-7.596,1.694-11.295,3.036c-3.584,1.299-7.159,2.667-10.852,3.693c-5.91,1.642-11.627,3.807-17.074,6.671
	c-3.739,1.967-7.555,3.787-11.313,5.716c-1.84,0.944-3.65,1.954-5.438,2.993c-4.952,2.876-9.824,5.897-14.858,8.618
	c-1.778,0.96-3.408,2.032-4.905,3.333c-1.115,0.968-2.375,1.614-3.767,2.006c-0.961,0.271-1.479-0.352-1.23-1.332
	c0.303-1.193,1.424-1.475,2.282-1.949c0.862-0.478,1.728-0.827,2.044-1.923c-0.334-0.167-0.667-0.409-1.038-0.508
	c-2.584-0.687-4.874-1.837-6.854-3.703c-1.148-1.082-2.569-1.871-3.984-2.636c-1.609-0.87-3.302-1.716-4.57-3.043
	c-3.211-3.36-7.086-5.952-10.387-9.211c-2.505-2.474-4.98-4.955-7.113-7.761c-1.594-2.097-3.128-4.243-4.79-6.285
	c-5.194-6.384-9.491-13.412-14.418-19.989c-2.828-3.774-4.716-8.161-7.522-11.966c-2.059-2.79-3.477-5.91-4.573-9.19
	C115.113,151.258,114.834,150.163,113.993,149.222z M278.163,519.762c-0.434,0.755-0.4,1.393-0.421,2.029
	c-0.105,3.192-0.25,6.385-0.332,9.578c-0.197,7.747-0.597,15.489-0.567,23.242c0.019,4.713-0.005,9.427-0.009,14.141
	c-0.005,6.871-0.158,13.744,0.768,20.588c0.284,2.098,0.892,4.052,1.798,5.924c2.127,4.393,6.055,5.318,10.017,2.419
	c0.45-0.33,0.92-0.658,1.427-0.88c1.636-0.715,2.662-2.006,3.407-3.548c0.729-1.509,1.555-2.997,2.053-4.585
	c1.618-5.159,3.053-10.377,4.657-15.541c1.682-5.415,2.847-10.967,4.434-16.405c2.262-7.748,4.092-15.6,5.527-23.542
	c0.397-2.2,0.877-4.397,1.073-6.618c0.364-4.132,0.704-8.26,1.365-12.36c0.304-1.883,0.821-3.78,0.542-5.71
	c-0.368-2.538-0.333-5.094-0.501-7.64c-0.542-8.208-1.604-16.372-1.961-24.6c-0.124-2.864-0.158-5.717-0.188-8.58
	c-0.05-4.791-0.516-9.576-0.651-14.368c-0.25-8.79-0.386-17.583-0.577-26.374c-0.015-0.637,0.068-1.35-0.182-1.896
	c-1.211-2.646-1.485-5.531-2.229-8.293c-1.224-4.545-2.198-9.162-4.038-13.519c-0.318-0.753-0.257-1.395,0.063-2.059
	c0.347-0.718,0.772-1.398,1.111-2.119c0.169-0.361,0.229-0.809,0.745-0.769c0.666,0.053,0.651,0.601,0.658,1.068
	c0.056,4.164,2.176,7.806,2.984,11.779c0.116,0.572,0.243,1.228,0.925,1.574c0.462-0.339,0.421-0.833,0.51-1.292
	c0.577-2.973,0.672-6.02,1.604-8.945c1.261-3.949,2.408-7.938,3.077-12.046c0.295-1.804,0.89-3.554,0.972-5.399
	c0.018-0.399,0.128-0.841,0.624-0.886c0.478-0.042,0.714,0.345,0.783,0.739c0.234,1.325,0.78,2.603,0.47,4.009
	c-0.637,2.88-0.973,5.852-1.871,8.645c-2.242,6.966-2.767,14.226-4.022,21.36c-0.297,1.683,0.191,3.324-0.002,5.014
	c-1.106,9.654-0.462,19.324,0.407,28.931c0.597,6.599,0.396,13.236,1.335,19.812c0.312,2.188,0.037,4.458,0.358,6.684
	c0.651,4.509,0.356,9.091,1.029,13.604c0.353,2.362,0.804,4.752,0.765,7.122c-0.068,4.14,0.093,8.28,0.037,12.42
	c-0.072,5.359-1.291,10.448-2.429,15.561c-0.853,3.823-1.622,7.62-1.969,11.525c-0.276,3.107-0.084,6.218-0.299,9.314
	c-0.649,9.354-0.258,18.682,0.562,28.005c0.562,6.377,0.897,12.773,0.24,19.15c-0.375,3.637-1.083,7.255-1.886,10.827
	c-0.573,2.55,0.283,4.402,2.145,5.913c1.366,1.108,3.018,1.773,4.642,2.435c0.52,0.211,1.086,0.188,1.645-0.002
	c3.293-1.117,6.738-1.88,9.44-4.313c0.524-0.473,1.202-0.789,1.84-1.119c0.849-0.439,1.752-0.961,2.707-0.797
	c1.502,0.258,1.599-0.638,1.606-1.671c0.022-2.956,0.069-5.913,0.021-8.869c-0.056-3.296,0.189-6.569,1.177-9.706
	c2.348-7.462,3.161-15.247,4.938-22.828c0.415-1.771,0.404-3.642,0.597-5.465c0.51-4.841,1.532-9.615,1.849-14.483
	c0.271-4.144,0.391-8.312,1.274-12.388c0.987-4.558,0.828-9.215,1.327-13.813c0.061-0.556,0.149-1.169-0.265-1.908
	c-0.381,0.855-0.53,1.538-0.744,2.21c-0.703,2.204-1.557,4.36-2.897,6.276c-0.276,0.395-0.698,0.782-1.165,0.331
	c-0.385-0.371-0.328-0.872,0.113-1.25c0.816-0.698,1.229-1.65,1.686-2.588c1.839-3.778,2.602-7.855,3.349-11.938
	c0.708-3.869,0.651-7.805,0.706-11.704c0.038-2.758,0.872-5.554-0.086-8.309c-0.081-0.231-0.002-0.626,0.204-0.6
	c1.253,0.16,0.743-0.617,0.637-1.151c-0.141-0.703-0.339-1.395-0.479-2.097c-0.043-0.212,0.02-0.446,0.037-0.72
	c0.402,0.147,0.753,0.275,1.336,0.489c-0.247-2.646-0.385-5.176-0.24-7.7c0.479-8.363,0.343-16.756,1.351-25.095
	c0.555-4.597,0.445-9.245,0.73-13.862c0.396-6.394,0.229-12.781-0.003-19.161c-0.244-6.694-0.891-13.373-1.189-20.066
	c-0.177-3.969,0.193-7.954-0.201-11.929c-0.3-3.02-0.573-6.047-0.488-9.084c0.046-1.616-0.125-3.199-0.477-4.757
	c-0.249-1.1-0.42-2.196-0.406-3.319c0.036-2.977-0.446-5.889-1.101-8.777c-0.438-1.934-0.498-1.948-2.461-2.271
	c-1.181-0.194-2.348-0.466-3.516-0.727c-6.085-1.358-12.229-2.196-18.477-2.079c-3.513,0.066-6.991,0.703-10.487,0.841
	c-4.949,0.196-9.834,0.63-14.742,1.379c-8.755,1.337-17.353,3.393-26.009,5.174c-2.319,0.478-4.682,1.189-6.545,2.795
	c-1.264,1.09-2.412,2.331-3.512,3.591c-1.723,1.974-3.726,3.465-6.275,4.192c-0.605,0.173-1.16,0.53-1.731,0.816
	c-1.227,0.614-1.756,1.453-1.794,2.983c-0.155,6.162,0.903,12.278,0.575,18.438c-0.012,0.236,0.055,0.477,0.075,0.715
	c0.547,6.524,1.829,12.948,2.657,19.434c0.263,2.059,0.458,4.127,0.748,6.182c0.122,0.862,0.628,1.715,0.579,2.549
	c-0.195,3.294,0.471,6.491,1.016,9.685c1.494,8.748,3.876,17.3,5.965,25.915c0.544,2.242,1.135,4.494,2.381,6.5
	c1.419,2.284,2.076,4.797,2.138,7.479c0.007,0.313,0.138,0.622,0.195,0.937c0.97,5.338,1.959,10.674,2.896,16.018
	c0.386,2.201,0.781,4.402,1.504,6.515c2.667,7.787,4.585,11.338,9.733,17.701c3.194,3.949,7.508,5.895,12.482,6.536
	c-0.45,0.658-1.013,1.133-1.876,1.196c-2.346,0.174-4.688,0.117-6.753-1.121C282.492,523.065,280.221,521.724,278.163,519.762z
	 M333.479,611.224c-1.099-0.623-1.874-0.188-2.621,0.297c-2.076,1.349-4.089,2.802-6.221,4.054
	c-3.252,1.91-6.521,3.852-10.429,1.358c-1.135-0.725-1.557-0.259-1.861,1.414c-0.614,3.371-1.09,6.759-1.513,10.159
	c-0.75,6.026-2.578,11.852-3.452,17.856c-0.676,4.644-2.048,9.226-1.262,14.007c0.271,1.648,0.462,3.311,0.687,4.967
	c0.472,3.476,2.003,6.381,4.71,8.627c0.854,0.709,1.733,1.489,2.889,1.61c2.775,0.29,5.576,0.527,8.345,0.101
	c1.799-0.277,3.572-0.743,5.176-1.759c2.952-1.871,4.693-4.666,6.228-7.67c0.638-1.248,0.935-2.509,0.838-3.914
	c-0.431-6.231-1.459-12.357-3.015-18.407c-0.511-1.987-1.063-4.043-1.044-6.062c0.016-1.576,0.13-3.168,0.022-4.751
	c-0.227-3.355-0.303-6.702,0.282-10.033C331.927,619.154,331.863,615.095,333.479,611.224z M77.975,125.793
	c-0.204,0.483,0.038,0.733,0.158,1.02c0.897,2.131,1.639,4.344,2.721,6.376c1.069,2.007,2.125,3.972,2.71,6.195
	c0.612,2.323,2.23,4.076,3.992,5.559c2.308,1.942,3.656,4.606,5.604,6.805c0.371,0.418,0.375,0.841,0.018,1.287
	c-0.393,0.49-0.73,0.379-1.207,0.062c-1.008-0.67-1.872-1.396-2.257-2.622c-0.439-1.396-1.273-2.387-2.592-3.249
	c-1.711-1.12-3.249-2.439-5.15-3.348c-1.567-0.749-3.037-1.707-4.704-2.304c-7.228-2.589-7.263-2.578-11.602-8.856
	c-2.127-3.079-4.061-6.292-6.113-9.422c-0.272-0.414-0.455-1.12-1.234-0.863c-0.736,0.243-1.222,0.684-1.306,1.519
	c-0.238,2.37,0.054,4.683,0.54,7.005c1.264,6.044,3.928,11.007,10.213,13.377c-0.593,0.796-1.192,1.244-1.857,0.614
	c-1.456-1.381-3.335-2.147-4.816-3.467c-0.781-0.697-1.366-1.528-1.735-2.54c-0.847-2.32-1.792-4.604-2.655-6.919
	c-1.393-3.733-2.797-7.458-5.068-10.777c-0.284-0.415-0.426-1.072-1.295-0.858c-0.3,2.759-0.519,5.437,0.483,8.204
	c0.727,2.008,2.143,4.233,0.19,6.427c-0.074,0.083-0.02,0.313,0.022,0.462c0.473,1.687,0.868,3.401,2.088,4.769
	c1.819,2.04,4.053,3.542,6.355,4.955c0.345,0.211,0.789,0.253,0.555,0.807c-0.216,0.509-0.634,0.77-1.147,0.586
	c-0.358-0.127-0.662-0.438-0.958-0.703c-1.126-1.003-2.242-2.017-3.356-3.033c-2.035-1.856-3.77-3.905-4.29-6.73
	c-0.043-0.233-0.132-0.464-0.234-0.679c-0.176-0.369-0.417-0.717-0.877-0.684c-0.575,0.042-0.838,0.484-0.877,0.979
	c-0.123,1.555,0.148,3.091,1.102,4.311c1.773,2.267,3.759,4.4,6.109,6.048c2.8,1.964,5.811,3.628,8.736,5.412
	c2.851,1.739,5.857,3.205,8.466,5.355c3.075,2.534,6.291,4.908,9.854,6.735c4.824,2.474,8.278,6.357,11.332,10.704
	c0.416,0.592,0.248,1.709,1.348,1.742c0.859,0.025,1.472-0.55,2.134-0.993c0.726-0.486,1.56-0.799,2.173-1.468
	c2.604-2.84,4.918-5.876,6.406-9.466c0.922-2.225,1.807-4.469-0.56-6.427c-0.175-0.145-0.28-0.389-0.383-0.604
	c-1.763-3.657-4.092-7.042-5.252-10.991c-0.294-1.002-0.915-1.857-1.498-2.721c-1.562-2.312-3.573-4.291-4.932-6.764
	c-0.448-0.815-1.225-1.44-2.005-2.033c-2.662-2.023-5.602-3.698-7.765-6.358c-0.689-0.847-1.708-1.43-2.59-2.116
	C79.999,125.361,78.98,125.234,77.975,125.793z M275.746,596.283c0.104,3.032-0.598,5.439-1.176,7.881
	c-0.371,1.565-0.854,3.051-1.557,4.487c-0.454,0.929-0.953,1.861-1.225,2.85c-1.06,3.848-2.563,7.541-4.072,11.212
	c-2.16,5.257-3.515,10.581-2.702,16.288c0.42,2.949,1.222,5.751,3.322,8.033c2.198,2.388,4.817,4.152,7.732,5.53
	c2.39,1.129,4.456,0.902,6.363-0.935c1.259-1.212,2.424-2.533,3.544-3.878c3.183-3.82,5.656-8.104,8.082-12.426
	c1.284-2.288,1.928-4.696,2.122-7.277c0.43-5.746-0.098-11.488-0.065-17.234c0.023-4.071-0.244-8.137,0.459-12.18
	c0.131-0.75,0.175-1.521-0.173-2.577c-0.83,0.944-1.448,1.645-2.062,2.348c-1.345,1.543-3.023,2.939-4.937,3.209
	c-4.041,0.569-7.941-0.093-11.079-3.119C277.647,597.845,276.899,597.269,275.746,596.283z M298.668,237.186
	c0.647-0.208,0.738-0.603,0.806-0.998c0.517-3.021,1.651-5.828,3.051-8.526c1.498-2.885,2.795-5.89,4.956-8.392
	c2.816-3.261,5.594-6.556,8.397-9.828c0.942-1.098,1.843-2.248,2.385-3.578c1.585-3.887,3.949-7.259,6.542-10.52
	c1.707-2.146,1.376-4.343-0.744-6.067c-0.875-0.712-1.756-1.358-2.117-2.506c-0.197-0.628-0.769-1-1.232-1.44
	c-3.616-3.424-7.666-5.939-12.761-6.534c-5.584-0.652-10.965-0.638-15.772,2.958c-1.243,0.93-2.064,1.932-2.357,3.417
	c-0.449,2.269-0.948,4.529-1.36,6.804c-0.796,4.399-0.537,8.594,1.25,12.864c1.623,3.878,3.146,7.843,4.336,11.91
	c1.146,3.917,1.684,7.956,2.604,11.916C297.313,231.505,297.994,234.338,298.668,237.186z M513.197,170.263
	c0.261-2.118,1.244-3.641,2.549-4.892c1.895-1.818,2.673-4.104,3.101-6.558c0.452-2.591,0.795-5.202,1.179-7.805
	c0.081-0.55,0.198-1.106,0.187-1.657c-0.022-1.125-0.749-1.63-1.746-1.992c-1.051-0.381-1.435,0.283-1.903,0.94
	c-1.295,1.815-2.579,3.631-4.141,5.249c-1.158,1.201-2.159,2.568-2.766,4.159c-1.278,3.352-2.452,6.748-3.844,10.051
	c-0.778,1.847-1.158,3.599-0.441,5.522c0.227,0.607,0.179,1.295-0.052,1.891c-0.984,2.554-0.699,5.217-0.553,7.819
	c0.229,4.045,1.867,7.275,5.622,9.409c1.495,0.849,2.382,0.413,3.37-0.34c2.794-2.128,5.593-4.259,8.254-6.547
	c1.524-1.312,3.137-2.544,4.848-3.478c4.605-2.511,7.742-6.508,11.166-10.251c2.581-2.821,4.61-6.335,8.792-7.239
	c0.451-0.098,0.84-0.455,1.277-0.648c2.581-1.143,4.641-3.092,7.022-4.547c1.037-0.634,2.058-1.458,2.032-3.05
	c-1.179,0.027-2.053,0.539-2.938,1.065c-1.439,0.856-2.902,1.673-4.354,2.507c-0.37,0.212-0.776,0.346-1.023-0.105
	c-0.151-0.275-0.057-0.646,0.172-0.895c1.023-1.119,2.092-2.199,3.089-3.341c1.627-1.865,2.666-4.052,3.396-6.425
	c-2.473,2.15-5.085,4.078-7.299,6.47c-2.137,2.31-4.074,4.867-6.98,6.495c-0.233-0.816,0.159-1.132,0.446-1.505
	c2.438-3.172,5.104-6.159,7.944-8.959c2.487-2.453,4.249-5.373,6.075-8.275c0.253-0.402,0.444-0.853,0.594-1.305
	c0.097-0.293,0.104-0.645-0.16-0.896c-0.272-0.258-0.614-0.194-0.878-0.037c-1.571,0.938-3.284,1.625-4.691,2.857
	c-0.753,0.659-0.907,1.803-1.726,2.256c-2.003,1.107-2.908,3.133-4.125,4.831c-1.954,2.726-4.066,5.328-6.033,8.041
	c-0.322,0.444-0.757,0.819-1.183,1.173c-0.216,0.179-0.533,0.425-0.814,0.06c-0.215-0.278-0.257-0.695-0.002-0.87
	c2.379-1.627,3.717-4.148,5.343-6.379c1.826-2.506,3.868-4.896,5.227-7.714c1.07-2.219,1.581-4.694,3.058-6.733
	c0.35-0.482,0.192-0.946-0.23-1.251c-0.462-0.334-0.994-0.181-1.242,0.277c-0.886,1.633-2.469,2.71-3.342,4.361
	c-2.625,4.963-6.121,9.309-9.859,13.455c-1.056,1.171-2.256,2.448-3.657,3.019c-2.291,0.933-4.484,2.06-6.656,3.183
	c-3.164,1.636-6.409,3.193-8.933,5.901C515.512,168.478,514.746,169.686,513.197,170.263z M326.948,190.391
	c0,1.047,0.002,1.759-0.001,2.472c-0.004,1.541-0.399,2.848-1.386,4.166c-0.989,1.323-2.271,2.458-2.926,4.052
	c-0.656,1.594-1.547,3.082-2.367,4.595c-1.976,3.642-4.891,6.431-7.541,9.476c-1.935,2.221-4.135,4.27-5.738,6.71
	c-3.804,5.793-6.177,12.209-7.282,19.066c-0.125,0.775-0.311,1.667,0.694,2.433c0.116-3.017,0.369-5.754,1.401-8.421
	c2.565-6.631,7.24-11.374,13.108-15.073c1.922-1.211,3.611-2.633,5.063-4.355c1.493-1.771,3.056-3.494,4.421-5.36
	c1.552-2.121,3.266-4.165,4.306-6.609c1.528-3.595,3.061-7.186,4.767-10.701c0.266-0.546,0.742-1.077,0.417-1.844
	C331.706,190.681,329.446,191.145,326.948,190.391z M297.16,245.641c0.065-2.874-0.146-5.643-1.122-8.299
	c-0.829-2.257-1.269-4.61-1.77-6.955c-0.75-3.503-1.389-7.035-2.585-10.435c-2.298-6.532-4.815-13.02-5.782-19.917
	c-0.331-2.362-0.862-4.744-0.069-7.273c0.578-1.842,0.783-3.943,0.671-6.154c-0.868,0.354-1.292,0.842-1.528,1.419
	c-0.884,2.151-2.592,2.899-4.764,2.951c-0.391,0.009-0.792,0.099-1.165,0.22c-0.391,0.128-0.748,0.412-0.798,0.822
	c-0.058,0.473,0.364,0.643,0.748,0.776c0.227,0.078,0.46,0.14,0.68,0.234c3.017,1.284,3.817,2.776,3.36,5.982
	c-0.315,2.206-0.328,4.411-0.121,6.654c0.287,3.122,1.107,6.116,1.741,9.156c0.648,3.11,1.116,6.292,2.402,9.215
	c2.477,5.626,5.035,11.218,7.679,16.768C295.508,242.423,296.145,244.116,297.16,245.641z"/>
<path fill-rule="evenodd" clip-rule="evenodd" d="M526.735,273.32c0.011-0.241,0.117-0.329,0.28-0.243
	c0.118,0.062,0.246,0.183,0.281,0.304c0.029,0.096-0.075,0.232-0.12,0.35C527.021,273.586,526.865,273.441,526.735,273.32z"/>
<path fill-rule="evenodd" clip-rule="evenodd" d="M190.794,645.57c0.708-0.779,1.196-0.362,2.004-0.689
	C192.018,645.657,191.533,645.31,190.794,645.57z"/>
<path fill-rule="evenodd" clip-rule="evenodd" fill="#42C2F1" d="M113.993,149.222c0.842,0.941,1.121,2.037,1.469,3.079
	c1.096,3.28,2.514,6.4,4.573,9.19c2.807,3.805,4.695,8.191,7.522,11.966c4.927,6.577,9.224,13.605,14.418,19.989
	c1.662,2.042,3.196,4.188,4.79,6.285c2.132,2.806,4.607,5.287,7.113,7.761c3.301,3.259,7.176,5.851,10.387,9.211
	c1.268,1.327,2.96,2.173,4.57,3.043c1.415,0.766,2.836,1.555,3.984,2.636c1.98,1.866,4.27,3.017,6.854,3.703
	c0.371,0.099,0.703,0.34,1.038,0.508c-0.316,1.096-1.182,1.445-2.044,1.923c-0.858,0.474-1.979,0.755-2.282,1.949
	c-0.249,0.98,0.269,1.603,1.23,1.332c1.393-0.392,2.652-1.038,3.767-2.006c1.498-1.301,3.127-2.373,4.905-3.333
	c5.035-2.721,9.907-5.741,14.858-8.618c1.789-1.039,3.598-2.048,5.438-2.993c3.759-1.929,7.575-3.749,11.313-5.716
	c5.446-2.865,11.164-5.03,17.074-6.671c3.693-1.026,7.267-2.394,10.852-3.693c3.699-1.341,7.513-2.098,11.295-3.036
	c1.857-0.46,3.765-0.708,5.642-1.093c3.808-0.781,7.609-0.768,11.414,0.005c0.626,0.127,1.291,0.128,1.885,0.336
	c0.957,0.335,2.237-0.228,2.894,0.802c1.052,1.646,2.415,3.084,2.399,5.337c-0.055,8.147,1.582,16.045,4.524,23.591
	c2.43,6.232,5.199,12.341,8.29,18.293c1.33,2.561,1.992,5.359,2.519,8.193c0.773,4.154,1.226,8.366,2.251,12.474
	c0.077,0.31,0.116,0.634,0.227,0.932c0.368,0.99,0.738,1.033,1.565,0.413c0.708-0.531,0.638-1.198,0.637-1.925
	c-0.004-3.91-0.087-7.823,0.054-11.729c0.237-6.562,1.202-13.019,3.405-19.237c0.707-1.995,2.176-3.48,3.606-5.007
	c3.293-3.517,7.545-5.863,11.006-9.152c4.167-3.959,8.09-8.149,11.062-13.122c0.411-0.688,0.871-1.016,1.706-1.028
	c4.146-0.059,8.273-0.254,12.418,0.392c2.427,0.377,4.938,0.217,7.406,0.494c6.669,0.748,13.383,0.771,20.075,1.14
	c1.924,0.106,3.758,0.558,5.619,1.083c9.423,2.662,17.936,7.503,26.965,11.098c4.967,1.978,9.846,4.19,14.94,5.828
	c2.726,0.876,5.52,1.544,8.293,2.27c3.859,1.01,7.596,2.438,11.519,3.274c-0.178,1.241-1.079,1.274-1.945,1.393
	c-0.508,0.07-0.967,0.34-0.93,0.896c0.047,0.687,0.656,0.992,1.209,0.862c1.459-0.345,2.951-0.578,4.236-1.506
	c3.922-2.833,7.192-6.28,10.091-10.139c1.143-1.52,2.597-2.813,3.964-4.154c5.996-5.88,12.521-11.111,19.271-16.105
	c5.061-3.743,10.199-7.417,14.818-11.729c0.517-0.482,0.946-1.059,1.528-1.717c1.58,4.549,2.336,9.514,7.461,11.721
	c0.351-1.025-0.438-1.201-0.884-1.562c-3.552-2.875-4.886-6.72-4.903-11.143c-0.001-0.396-0.044-0.895,0.164-1.172
	c1.328-1.779,1.63-3.941,2.337-5.952c0.1-0.285,0.341-0.521,0.649-0.751c-0.207,1.97-0.634,3.918-0.496,5.881
	c0.267,3.811,1.419,7.334,3.911,10.295c0.738,0.876,1.647,1.674,3.136,1.989c-0.403-1.265-1.383-1.74-1.994-2.487
	c-3.847-4.699-5.456-9.849-3.29-15.792c0.433-1.188,0.619-2.49,1.627-3.412c0.381-0.348,0.5-0.825,0.371-1.32
	c-0.134-0.517-0.055-0.972,0.35-1.303c0.836-0.686,1.552-1.896,2.817-1.4c1.02,0.401,0.628,1.685,0.955,2.543
	c0.125,0.328-0.005,0.793-0.119,1.166c-1.152,3.78-0.9,7.594-0.152,11.38c0.552,2.796,1.776,5.444,3.964,7.224
	c2.062,1.679,4.438,3.052,6.959,4.072c1.329,0.539,2.701,1.034,3.921,1.77c2.871,1.733,2.779,2.241,0.052,3.931
	c-1.055,0.653-1.807,0.635-2.853,0.196c-1.089-0.458-2.271-0.716-3.433-0.972c-0.529-0.116-1.113-0.067-1.659,0.003
	c-0.334,0.043-0.475,0.406-0.51,0.725c-0.046,0.413,0.28,0.605,0.593,0.549c1.166-0.209,2.162,0.444,3.626,0.491
	c-1.407,1.254-2.817,1.877-4.141,2.631c-4.978,2.84-10.222,5.262-14.695,8.905c-2.72,2.214-5.304,4.604-7.839,7.03
	c-7.502,7.179-14.914,14.451-22.433,21.611c-2.916,2.776-5.21,6.045-7.728,9.137c-3.177,3.9-6.336,7.82-9.346,11.848
	c-1.597,2.139-3.734,2.533-6.076,2.493c-3.896-0.068-7.472-1.539-11.065-2.813c-9.621-3.412-18.994-7.474-28.602-10.932
	c-4.505-1.622-8.878-3.572-13.573-4.677c-2.364-0.557-4.754-0.573-7.126-0.836c-2.465-0.273-4.917-0.567-7.35-1.04
	c-0.47-0.091-0.949-0.176-1.426-0.189c-2.463-0.069-4.898-0.109-7.323-0.81c-1.913-0.552-2.961,0.267-3.237,2.229
	c-0.433,3.066-1.85,5.777-3.052,8.537c-3.437,7.891-6.976,15.738-8.815,24.195c-0.595,2.733-1.949,5.229-2.202,8.068
	c-0.222,2.48-0.384,4.938-0.001,7.409c0.233,1.508,0.344,3.033,0.149,4.543c-0.32,2.483-0.087,4.933,0.135,7.407
	c0.594,6.606,1.812,13.131,2.468,19.726c0.348,3.491,0.379,6.972-0.521,10.443c-0.958,3.696-1.684,7.454-2.442,11.198
	c-0.14,0.687-0.552,1.224-0.932,1.615c-1.062,1.093-0.576,2.015,0.074,2.942c0.869,1.238,2.13,1.82,3.604,2.143
	c1.598,0.351,3.345,0.322,4.786,1.544c-0.938,1.123-2.038,1.503-3.414,1.247c-2.806-0.523-5.641-0.913-8.422-1.538
	c-6.111-1.374-12.306-1.829-18.542-1.95c-6.479-0.126-12.95,0.072-19.402,0.658c-5.329,0.483-10.617,1.252-15.888,2.227
	c-7.378,1.364-14.619,3.216-21.837,5.231c-4.753,1.327-8.814,3.641-12.187,7.209c-0.165,0.174-0.314,0.364-0.492,0.523
	c-2.625,2.345-5.217,4.284-9.162,2.597c-1.747-0.747-3.936-0.479-5.927-0.626c-0.946-0.07-1.896-0.051-2.728-0.388
	c-0.101-0.612,0.276-0.641,0.541-0.715c2.353-0.654,4.17-2.15,5.481-4.072c1.963-2.878,4.266-5.568,5.393-8.973
	c0.874-2.64,1.984-5.194,2.521-7.949c1.297-6.657,3.044-13.229,3.954-19.955c0.521-3.86,0.774-7.766,0.958-11.66
	c0.14-2.96,0.582-5.886,0.989-8.796c0.73-5.219,0.432-10.232-1.098-15.301c-1.751-5.801-3.503-11.614-4.728-17.569
	c-0.448-2.176-1.187-4.32-2.037-6.378c-0.948-2.296-1.635-4.666-2.403-7.014c-1.437-4.395-2.935-8.771-4.01-13.276
	c-0.092-0.387-0.296-0.771-0.29-1.154c0.046-2.561-1.554-3.936-3.603-4.88c-4.716-2.173-9.543-2.914-14.616-1.14
	c-2.252,0.788-4.656,1.133-6.929,1.869c-6.513,2.108-13.177,3.813-19.128,7.423c-1.754,1.064-3.808,1.625-5.698,2.476
	c-1.015,0.458-2.096,0.895-2.935,1.596c-3.201,2.673-7.146,3.485-10.999,4.4c-3.477,0.826-6.96,1.841-10.617,1.633
	c-3.311-0.189-6.216-1.309-9.215-2.808c-2.979-1.489-4.881-3.743-6.773-6.151c-1.122-1.429-2.024-3.071-2.801-4.723
	c-3.497-7.438-8.05-14.305-11.522-21.772c-2.905-6.249-7.116-11.729-11.812-16.792c-5.854-6.312-11.708-12.625-17.593-18.908
	c-3.334-3.56-6.894-6.866-11.028-9.514c-1.748-1.12-3.126-2.661-4.578-4.394c1.389-0.54,2.681-0.909,3.848-1.518
	c4.881-2.55,8.214-6.529,10.164-11.621c1.51-3.945,2.658-8.025,4.37-11.901C112.092,152.252,112.98,150.753,113.993,149.222z
	 M261.93,354.44c1.083,0.985,1.762,0.475,2.397,0.009c0.706-0.519,1.312-1.181,2.046-1.651c5.463-3.504,11.133-6.444,17.634-7.684
	c8.786-1.676,17.549-2.271,26.424-0.867c3.306,0.522,6.625,0.985,9.973,1.259c2.08,0.17,4.233,0.152,6.223,1.118
	c-2.935,0.212-5.858,0.191-8.781,0.219c-2.658,0.025-5.215,0.582-7.716,1.486c-1.473,0.533-2.112,1.877-3.074,2.903
	c-0.316,0.337,0.014,0.771,0.309,1.03c0.329,0.289,0.552-0.018,0.784-0.24c2.364-2.267,5.254-3.095,8.459-3.368
	c4.783-0.407,9.567-0.322,14.354-0.377c0.794-0.009,1.594-0.061,2.378-0.179c0.389-0.059,0.746-0.338,0.81-0.785
	c0.064-0.454-0.223-0.694-0.601-0.908c-1.753-0.993-3.566-1.755-5.621-1.868c-2.149-0.117-4.305-0.262-6.375-0.936
	c-2.054-0.669-4.151-1.129-6.293-1.419c-4.022-0.544-8.067-1.22-12.116-0.849c-3.81,0.35-7.632,0.356-11.443,0.779
	c-5.652,0.628-11.197,1.338-16.423,3.87C270.528,348.283,266.168,351.098,261.93,354.44z"/>
<path fill-rule="evenodd" clip-rule="evenodd" fill="#3C97D3" d="M278.163,519.762c2.059,1.962,4.33,3.304,6.577,4.65
	c2.065,1.238,4.407,1.295,6.753,1.121c0.864-0.063,1.427-0.538,1.876-1.196c-4.974-0.642-9.289-2.587-12.482-6.536
	c-5.148-6.363-7.066-9.914-9.733-17.701c-0.724-2.112-1.118-4.313-1.504-6.515c-0.937-5.344-1.926-10.68-2.896-16.018
	c-0.057-0.314-0.188-0.623-0.195-0.937c-0.062-2.682-0.719-5.194-2.138-7.479c-1.246-2.006-1.837-4.258-2.381-6.5
	c-2.089-8.615-4.472-17.167-5.965-25.915c-0.545-3.193-1.211-6.391-1.016-9.685c0.049-0.834-0.458-1.687-0.579-2.549
	c-0.29-2.055-0.485-4.123-0.748-6.182c-0.828-6.485-2.11-12.909-2.657-19.434c-0.02-0.238-0.087-0.479-0.075-0.715
	c0.328-6.16-0.73-12.276-0.575-18.438c0.038-1.53,0.567-2.369,1.794-2.983c0.571-0.286,1.126-0.644,1.731-0.816
	c2.549-0.728,4.552-2.218,6.275-4.192c1.1-1.26,2.248-2.501,3.512-3.591c1.863-1.606,4.226-2.318,6.545-2.795
	c8.656-1.782,17.253-3.837,26.009-5.174c4.908-0.75,9.793-1.183,14.742-1.379c3.496-0.139,6.975-0.775,10.487-0.841
	c6.247-0.117,12.392,0.72,18.477,2.079c1.168,0.261,2.335,0.533,3.516,0.727c1.963,0.323,2.023,0.337,2.461,2.271
	c0.654,2.889,1.137,5.8,1.101,8.777c-0.014,1.123,0.157,2.219,0.406,3.319c0.352,1.558,0.522,3.141,0.477,4.757
	c-0.085,3.037,0.188,6.065,0.488,9.084c0.395,3.975,0.024,7.959,0.201,11.929c0.299,6.693,0.945,13.372,1.189,20.066
	c0.232,6.38,0.399,12.768,0.003,19.161c-0.285,4.617-0.176,9.266-0.73,13.862c-1.008,8.339-0.871,16.731-1.351,25.095
	c-0.145,2.524-0.007,5.054,0.24,7.7c-0.583-0.214-0.934-0.342-1.336-0.489c-0.018,0.273-0.08,0.508-0.037,0.72
	c0.141,0.702,0.339,1.394,0.479,2.097c0.106,0.534,0.616,1.312-0.637,1.151c-0.206-0.026-0.285,0.368-0.204,0.6
	c0.958,2.755,0.124,5.551,0.086,8.309c-0.055,3.899,0.002,7.835-0.706,11.704c-0.747,4.082-1.51,8.159-3.349,11.938
	c-0.457,0.938-0.869,1.89-1.686,2.588c-0.441,0.378-0.498,0.879-0.113,1.25c0.467,0.451,0.889,0.063,1.165-0.331
	c1.341-1.916,2.194-4.072,2.897-6.276c0.214-0.672,0.363-1.354,0.744-2.21c0.414,0.739,0.325,1.353,0.265,1.908
	c-0.499,4.599-0.34,9.256-1.327,13.813c-0.884,4.075-1.004,8.244-1.274,12.388c-0.316,4.868-1.339,9.643-1.849,14.483
	c-0.192,1.823-0.182,3.694-0.597,5.465c-1.776,7.581-2.59,15.366-4.938,22.828c-0.987,3.137-1.232,6.41-1.177,9.706
	c0.049,2.956,0.002,5.913-0.021,8.869c-0.008,1.033-0.104,1.929-1.606,1.671c-0.955-0.164-1.858,0.357-2.707,0.797
	c-0.638,0.33-1.315,0.646-1.84,1.119c-2.702,2.434-6.147,3.196-9.44,4.313c-0.559,0.189-1.125,0.213-1.645,0.002
	c-1.624-0.661-3.275-1.326-4.642-2.435c-1.861-1.511-2.718-3.363-2.145-5.913c0.803-3.572,1.511-7.19,1.886-10.827
	c0.657-6.377,0.321-12.773-0.24-19.15c-0.82-9.323-1.212-18.65-0.562-28.005c0.215-3.097,0.022-6.207,0.299-9.314
	c0.347-3.905,1.116-7.702,1.969-11.525c1.138-5.112,2.356-10.201,2.429-15.561c0.056-4.14-0.105-8.28-0.037-12.42
	c0.039-2.37-0.412-4.76-0.765-7.122c-0.673-4.514-0.378-9.096-1.029-13.604c-0.321-2.226-0.046-4.496-0.358-6.684
	c-0.939-6.575-0.738-13.213-1.335-19.812c-0.869-9.606-1.514-19.276-0.407-28.931c0.193-1.689-0.295-3.331,0.002-5.014
	c1.256-7.135,1.78-14.395,4.022-21.36c0.898-2.793,1.234-5.765,1.871-8.645c0.311-1.407-0.235-2.685-0.47-4.009
	c-0.069-0.394-0.306-0.781-0.783-0.739c-0.496,0.044-0.606,0.487-0.624,0.886c-0.082,1.845-0.677,3.595-0.972,5.399
	c-0.669,4.107-1.816,8.097-3.077,12.046c-0.933,2.926-1.027,5.973-1.604,8.945c-0.089,0.459-0.048,0.953-0.51,1.292
	c-0.682-0.347-0.809-1.002-0.925-1.574c-0.808-3.974-2.928-7.615-2.984-11.779c-0.006-0.468,0.008-1.016-0.658-1.068
	c-0.516-0.04-0.576,0.407-0.745,0.769c-0.339,0.721-0.765,1.401-1.111,2.119c-0.321,0.664-0.382,1.306-0.063,2.059
	c1.84,4.356,2.814,8.974,4.038,13.519c0.743,2.762,1.018,5.647,2.229,8.293c0.25,0.546,0.167,1.259,0.182,1.896
	c0.191,8.791,0.327,17.584,0.577,26.374c0.136,4.792,0.602,9.577,0.651,14.368c0.029,2.863,0.063,5.716,0.188,8.58
	c0.356,8.228,1.419,16.392,1.961,24.6c0.168,2.546,0.133,5.102,0.501,7.64c0.279,1.93-0.238,3.827-0.542,5.71
	c-0.661,4.101-1.001,8.229-1.365,12.36c-0.196,2.221-0.676,4.418-1.073,6.618c-1.435,7.942-3.265,15.794-5.527,23.542
	c-1.587,5.438-2.752,10.99-4.434,16.405c-1.604,5.164-3.039,10.382-4.657,15.541c-0.498,1.588-1.324,3.076-2.053,4.585
	c-0.745,1.542-1.771,2.833-3.407,3.548c-0.507,0.222-0.977,0.55-1.427,0.88c-3.962,2.899-7.89,1.974-10.017-2.419
	c-0.907-1.872-1.514-3.826-1.798-5.924c-0.926-6.844-0.773-13.717-0.768-20.588c0.003-4.714,0.027-9.428,0.009-14.141
	c-0.03-7.753,0.37-15.495,0.567-23.242c0.081-3.193,0.226-6.386,0.332-9.578C277.762,521.154,277.729,520.517,278.163,519.762z"/>
<path fill-rule="evenodd" clip-rule="evenodd" fill="#5D5E5E" d="M333.479,611.224c-1.615,3.871-1.552,7.931-2.24,11.854
	c-0.585,3.331-0.509,6.678-0.282,10.033c0.107,1.583-0.007,3.175-0.022,4.751c-0.02,2.019,0.533,4.074,1.044,6.062
	c1.556,6.05,2.584,12.176,3.015,18.407c0.097,1.405-0.2,2.666-0.838,3.914c-1.534,3.004-3.275,5.799-6.228,7.67
	c-1.604,1.016-3.377,1.481-5.176,1.759c-2.769,0.427-5.569,0.189-8.345-0.101c-1.155-0.121-2.034-0.901-2.889-1.61
	c-2.707-2.246-4.238-5.151-4.71-8.627c-0.225-1.656-0.416-3.318-0.687-4.967c-0.786-4.781,0.585-9.363,1.262-14.007
	c0.874-6.005,2.702-11.83,3.452-17.856c0.423-3.4,0.898-6.788,1.513-10.159c0.305-1.673,0.727-2.139,1.861-1.414
	c3.908,2.493,7.177,0.552,10.429-1.358c2.132-1.252,4.145-2.705,6.221-4.054C331.604,611.035,332.38,610.601,333.479,611.224z"/>
<path fill-rule="evenodd" clip-rule="evenodd" fill="#FEE5D2" d="M77.975,125.793c1.005-0.559,2.024-0.432,2.99,0.32
	c0.882,0.686,1.901,1.269,2.59,2.116c2.163,2.66,5.103,4.335,7.765,6.358c0.78,0.592,1.557,1.218,2.005,2.033
	c1.359,2.473,3.37,4.451,4.932,6.764c0.583,0.863,1.204,1.718,1.498,2.721c1.16,3.949,3.489,7.334,5.252,10.991
	c0.104,0.215,0.208,0.459,0.383,0.604c2.367,1.958,1.481,4.202,0.56,6.427c-1.488,3.589-3.802,6.625-6.406,9.466
	c-0.613,0.669-1.447,0.982-2.173,1.468c-0.662,0.443-1.275,1.019-2.134,0.993c-1.1-0.033-0.933-1.15-1.348-1.742
	c-3.053-4.346-6.507-8.23-11.332-10.704c-3.563-1.827-6.779-4.201-9.854-6.735c-2.609-2.15-5.616-3.617-8.466-5.355
	c-2.925-1.784-5.936-3.448-8.736-5.412c-2.35-1.648-4.335-3.781-6.109-6.048c-0.954-1.219-1.225-2.756-1.102-4.311
	c0.039-0.495,0.303-0.937,0.877-0.979c0.461-0.033,0.702,0.314,0.877,0.684c0.103,0.215,0.191,0.446,0.234,0.679
	c0.52,2.825,2.254,4.874,4.29,6.73c1.114,1.016,2.23,2.03,3.356,3.033c0.296,0.265,0.6,0.575,0.958,0.703
	c0.513,0.184,0.932-0.077,1.147-0.586c0.234-0.554-0.21-0.595-0.555-0.807c-2.302-1.412-4.536-2.915-6.355-4.955
	c-1.22-1.368-1.615-3.083-2.088-4.769c-0.042-0.149-0.096-0.379-0.022-0.462c1.953-2.193,0.536-4.418-0.19-6.427
	c-1.001-2.768-0.783-5.445-0.483-8.204c0.869-0.214,1.011,0.443,1.295,0.858c2.271,3.318,3.675,7.043,5.068,10.777
	c0.863,2.314,1.809,4.599,2.655,6.919c0.37,1.012,0.954,1.843,1.735,2.54c1.481,1.32,3.36,2.086,4.816,3.467
	c0.665,0.63,1.264,0.183,1.857-0.614c-6.286-2.37-8.95-7.333-10.213-13.377c-0.486-2.323-0.778-4.635-0.54-7.005
	c0.083-0.834,0.569-1.276,1.306-1.519c0.78-0.257,0.962,0.449,1.234,0.863c2.053,3.131,3.986,6.344,6.113,9.422
	c4.339,6.279,4.374,6.268,11.602,8.856c1.667,0.597,3.137,1.555,4.704,2.304c1.902,0.909,3.439,2.229,5.15,3.348
	c1.318,0.862,2.152,1.853,2.592,3.249c0.385,1.226,1.249,1.952,2.257,2.622c0.477,0.317,0.814,0.428,1.207-0.062
	c0.357-0.445,0.353-0.869-0.018-1.287c-1.947-2.199-3.295-4.863-5.604-6.805c-1.762-1.483-3.38-3.236-3.992-5.559
	c-0.586-2.224-1.642-4.188-2.71-6.195c-1.082-2.032-1.824-4.246-2.721-6.376C78.013,126.526,77.771,126.276,77.975,125.793z"/>
<path fill-rule="evenodd" clip-rule="evenodd" fill="#5D5E5E" d="M275.746,596.283c1.153,0.985,1.901,1.562,2.576,2.212
	c3.138,3.026,7.038,3.688,11.079,3.119c1.914-0.27,3.591-1.666,4.937-3.209c0.614-0.703,1.231-1.403,2.062-2.348
	c0.349,1.056,0.304,1.827,0.173,2.577c-0.703,4.043-0.436,8.108-0.459,12.18c-0.033,5.746,0.496,11.488,0.065,17.234
	c-0.193,2.581-0.837,4.989-2.122,7.277c-2.426,4.322-4.899,8.605-8.082,12.426c-1.12,1.345-2.285,2.666-3.544,3.878
	c-1.907,1.837-3.973,2.063-6.363,0.935c-2.915-1.378-5.534-3.143-7.732-5.53c-2.1-2.282-2.901-5.084-3.322-8.033
	c-0.812-5.707,0.542-11.031,2.702-16.288c1.509-3.671,3.013-7.364,4.072-11.212c0.272-0.988,0.771-1.921,1.225-2.85
	c0.702-1.437,1.186-2.922,1.557-4.487C275.148,601.723,275.851,599.315,275.746,596.283z"/>
<path fill-rule="evenodd" clip-rule="evenodd" fill="#FEE5D2" d="M298.668,237.186c-0.674-2.848-1.355-5.681-2.015-8.519
	c-0.921-3.96-1.458-7.999-2.604-11.916c-1.19-4.067-2.713-8.032-4.336-11.91c-1.787-4.27-2.047-8.465-1.25-12.864
	c0.412-2.275,0.911-4.535,1.36-6.804c0.293-1.485,1.115-2.487,2.357-3.417c4.807-3.597,10.188-3.611,15.772-2.958
	c5.095,0.595,9.145,3.11,12.761,6.534c0.464,0.439,1.035,0.812,1.232,1.44c0.361,1.148,1.242,1.794,2.117,2.506
	c2.12,1.725,2.451,3.921,0.744,6.067c-2.593,3.261-4.957,6.633-6.542,10.52c-0.542,1.33-1.442,2.479-2.385,3.578
	c-2.804,3.271-5.581,6.567-8.397,9.828c-2.161,2.502-3.458,5.506-4.956,8.392c-1.4,2.698-2.534,5.505-3.051,8.526
	C299.407,236.583,299.315,236.978,298.668,237.186z"/>
<path fill-rule="evenodd" clip-rule="evenodd" fill="#FEE5D2" d="M513.197,170.263c1.549-0.577,2.314-1.785,3.17-2.704
	c2.523-2.708,5.769-4.265,8.933-5.901c2.172-1.123,4.365-2.25,6.656-3.183c1.401-0.571,2.602-1.848,3.657-3.019
	c3.738-4.146,7.234-8.491,9.859-13.455c0.873-1.651,2.456-2.728,3.342-4.361c0.248-0.458,0.78-0.611,1.242-0.277
	c0.423,0.306,0.58,0.77,0.23,1.251c-1.477,2.039-1.987,4.514-3.058,6.733c-1.358,2.818-3.4,5.208-5.227,7.714
	c-1.626,2.231-2.964,4.752-5.343,6.379c-0.255,0.174-0.213,0.592,0.002,0.87c0.281,0.365,0.599,0.119,0.814-0.06
	c0.426-0.354,0.86-0.729,1.183-1.173c1.967-2.713,4.079-5.315,6.033-8.041c1.217-1.698,2.122-3.724,4.125-4.831
	c0.818-0.453,0.973-1.597,1.726-2.256c1.407-1.232,3.12-1.919,4.691-2.857c0.264-0.158,0.605-0.222,0.878,0.037
	c0.264,0.251,0.257,0.602,0.16,0.896c-0.149,0.452-0.341,0.903-0.594,1.305c-1.826,2.902-3.588,5.822-6.075,8.275
	c-2.841,2.801-5.506,5.788-7.944,8.959c-0.287,0.373-0.68,0.688-0.446,1.505c2.906-1.628,4.844-4.185,6.98-6.495
	c2.214-2.392,4.826-4.32,7.299-6.47c-0.73,2.374-1.77,4.56-3.396,6.425c-0.997,1.143-2.065,2.222-3.089,3.341
	c-0.229,0.249-0.323,0.619-0.172,0.895c0.247,0.451,0.653,0.318,1.023,0.105c1.452-0.834,2.915-1.651,4.354-2.507
	c0.885-0.526,1.759-1.038,2.938-1.065c0.025,1.593-0.995,2.417-2.032,3.05c-2.382,1.455-4.441,3.404-7.022,4.547
	c-0.438,0.194-0.826,0.551-1.277,0.648c-4.182,0.904-6.211,4.418-8.792,7.239c-3.424,3.744-6.561,7.74-11.166,10.251
	c-1.711,0.934-3.323,2.166-4.848,3.478c-2.661,2.288-5.46,4.419-8.254,6.547c-0.988,0.752-1.875,1.189-3.37,0.34
	c-3.755-2.134-5.394-5.364-5.622-9.409c-0.146-2.602-0.432-5.265,0.553-7.819c0.23-0.596,0.278-1.284,0.052-1.891
	c-0.717-1.923-0.337-3.675,0.441-5.522c1.392-3.304,2.565-6.699,3.844-10.051c0.606-1.591,1.607-2.958,2.766-4.159
	c1.562-1.618,2.846-3.434,4.141-5.249c0.469-0.657,0.853-1.321,1.903-0.94c0.997,0.362,1.724,0.866,1.746,1.992
	c0.012,0.551-0.105,1.107-0.187,1.657c-0.384,2.603-0.727,5.214-1.179,7.805c-0.428,2.454-1.206,4.74-3.101,6.558
	C514.441,166.622,513.458,168.145,513.197,170.263z"/>
<path fill-rule="evenodd" clip-rule="evenodd" fill="#42C2F1" d="M326.948,190.391c2.498,0.754,4.758,0.29,6.937,0.604
	c0.325,0.767-0.151,1.298-0.417,1.844c-1.706,3.515-3.238,7.106-4.767,10.701c-1.04,2.444-2.754,4.488-4.306,6.609
	c-1.365,1.866-2.928,3.589-4.421,5.36c-1.452,1.723-3.142,3.144-5.063,4.355c-5.868,3.699-10.542,8.442-13.108,15.073
	c-1.032,2.667-1.285,5.404-1.401,8.421c-1.005-0.766-0.819-1.657-0.694-2.433c1.105-6.857,3.478-13.273,7.282-19.066
	c1.603-2.44,3.803-4.489,5.738-6.71c2.65-3.044,5.565-5.834,7.541-9.476c0.82-1.513,1.711-3,2.367-4.595
	c0.655-1.594,1.937-2.729,2.926-4.052c0.986-1.318,1.382-2.625,1.386-4.166C326.95,192.15,326.948,191.438,326.948,190.391z"/>
<path fill-rule="evenodd" clip-rule="evenodd" fill="#42C2F1" d="M297.16,245.641c-1.015-1.524-1.651-3.218-2.423-4.836
	c-2.644-5.549-5.202-11.141-7.679-16.768c-1.286-2.923-1.754-6.104-2.402-9.215c-0.633-3.04-1.454-6.035-1.741-9.156
	c-0.207-2.244-0.194-4.448,0.121-6.654c0.457-3.206-0.344-4.698-3.36-5.982c-0.22-0.094-0.453-0.156-0.68-0.234
	c-0.384-0.133-0.806-0.303-0.748-0.776c0.05-0.41,0.407-0.694,0.798-0.822c0.373-0.122,0.774-0.211,1.165-0.22
	c2.172-0.051,3.88-0.8,4.764-2.951c0.237-0.577,0.661-1.064,1.528-1.419c0.112,2.21-0.093,4.312-0.671,6.154
	c-0.793,2.529-0.262,4.911,0.069,7.273c0.967,6.897,3.484,13.385,5.782,19.917c1.196,3.4,1.835,6.932,2.585,10.435
	c0.501,2.345,0.941,4.698,1.77,6.955C297.013,239.998,297.225,242.767,297.16,245.641z"/>
<path fill-rule="evenodd" clip-rule="evenodd" d="M261.93,354.44c4.238-3.342,8.598-6.157,13.346-8.457
	c5.226-2.532,10.771-3.242,16.423-3.87c3.811-0.423,7.633-0.43,11.443-0.779c4.048-0.371,8.093,0.305,12.116,0.849
	c2.142,0.29,4.239,0.75,6.293,1.419c2.07,0.674,4.226,0.819,6.375,0.936c2.055,0.112,3.868,0.875,5.621,1.868
	c0.378,0.214,0.665,0.454,0.601,0.908c-0.063,0.447-0.421,0.727-0.81,0.785c-0.784,0.118-1.584,0.17-2.378,0.179
	c-4.786,0.055-9.57-0.03-14.354,0.377c-3.205,0.272-6.095,1.101-8.459,3.368c-0.232,0.223-0.455,0.529-0.784,0.24
	c-0.295-0.259-0.625-0.693-0.309-1.03c0.962-1.026,1.602-2.37,3.074-2.903c2.501-0.904,5.058-1.461,7.716-1.486
	c2.923-0.028,5.847-0.006,8.781-0.219c-1.989-0.966-4.143-0.948-6.223-1.118c-3.348-0.274-6.667-0.736-9.973-1.259
	c-8.875-1.404-17.638-0.809-26.424,0.867c-6.501,1.24-12.17,4.18-17.634,7.684c-0.733,0.47-1.34,1.132-2.046,1.651
	C263.692,354.915,263.013,355.425,261.93,354.44z"/>
</svg>
