<?xml version="1.0" encoding="utf-8"?>
<!-- Generator: Adobe Illustrator 16.0.4, SVG Export Plug-In . SVG Version: 6.00 Build 0)  -->
<!DOCTYPE svg PUBLIC "-//W3C//DTD SVG 1.1//EN" "http://www.w3.org/Graphics/SVG/1.1/DTD/svg11.dtd">
<svg version="1.1" id="Layer_1" xmlns="http://www.w3.org/2000/svg" xmlns:xlink="http://www.w3.org/1999/xlink" x="0px" y="0px"
	 width="612px" height="792px" viewBox="0 0 612 792" enable-background="new 0 0 612 792" xml:space="preserve">
<path fill-rule="evenodd" clip-rule="evenodd" fill="#FFFFFF" d="M0.48,481.51c0-56.479,0-112.96,0-169.44
	c3.338,1.051,6.659,2.163,10.018,3.14c8.817,2.567,17.311,5.969,25.676,9.731c4.583,2.061,9.174,4.117,13.853,5.942
	c7.507,2.928,15.08,5.688,22.645,8.463c2.241,0.822,4.517,1.593,6.834,2.151c4.358,1.047,8.614,2.353,12.725,4.151
	c1.682,0.735,3.415,1.36,5.149,1.963c0.575,0.2,1.307,0.398,1.827,0.21c1.099-0.398,1.769,0.011,2.558,0.693
	c5.677,4.902,11.397,9.753,17.084,14.643c1.458,1.254,2.648,2.713,3.582,4.439c0.629,1.163,1.583,2.211,2.578,3.101
	c2.796,2.5,5.738,4.834,8.533,7.335c6.246,5.59,12.56,11.119,18.042,17.495c2.602,3.025,5.1,6.14,7.611,9.241
	c0.37,0.457,0.555,1.063,0.841,1.633c-0.437,0.231-0.716,0.382-0.996,0.529c-3.662,1.931-7.476,3.624-10.947,5.852
	c-4.155,2.666-8.091,5.694-11.99,8.734c-5.604,4.37-11.289,8.625-17.354,12.322c-5.996,3.655-12.054,7.219-18.203,10.606
	c-4.321,2.381-8.87,4.347-13.267,6.593c-7.093,3.624-14.077,7.465-21.236,10.949c-5.582,2.717-10.995,5.809-16.952,7.752
	c-4.155,1.355-8.197,3.06-12.286,4.616c-0.592,0.226-1.171,0.485-1.748,0.75c-2.096,0.965-4.163,1.999-6.288,2.895
	c-4.076,1.718-8.369,2.479-12.753,3C10.839,481.615,5.669,481.675,0.48,481.51z"/>
<path fill-rule="evenodd" clip-rule="evenodd" d="M0.48,481.51c5.189,0.165,10.359,0.105,15.536-0.51
	c4.385-0.521,8.677-1.282,12.753-3c2.125-0.896,4.191-1.93,6.288-2.895c0.576-0.265,1.156-0.524,1.748-0.75
	c4.089-1.557,8.131-3.261,12.286-4.616c5.957-1.943,11.37-5.035,16.952-7.752c7.159-3.484,14.143-7.325,21.236-10.949
	c4.397-2.246,8.946-4.212,13.267-6.593c6.149-3.388,12.207-6.951,18.203-10.606c6.066-3.697,11.751-7.952,17.354-12.322
	c3.899-3.04,7.835-6.068,11.99-8.734c3.471-2.228,7.285-3.921,10.947-5.852c0.28-0.147,0.559-0.298,0.996-0.529
	c-0.286-0.569-0.471-1.176-0.841-1.633c-2.511-3.102-5.009-6.216-7.611-9.241c-5.481-6.375-11.796-11.904-18.042-17.495
	c-2.794-2.501-5.737-4.836-8.533-7.335c-0.996-0.89-1.949-1.938-2.578-3.101c-0.934-1.726-2.125-3.185-3.582-4.439
	c-5.687-4.89-11.408-9.741-17.084-14.643c-0.789-0.682-1.459-1.091-2.558-0.693c-0.52,0.188-1.252-0.01-1.827-0.21
	c-1.734-0.604-3.467-1.228-5.149-1.963c-4.11-1.798-8.367-3.104-12.725-4.151c-2.317-0.558-4.593-1.329-6.834-2.151
	c-7.565-2.775-15.138-5.535-22.645-8.463c-4.679-1.825-9.271-3.881-13.853-5.942c-8.365-3.762-16.858-7.164-25.676-9.731
	c-3.359-0.978-6.68-2.089-10.018-3.14c0-31.52,0-63.04,0-94.56c0.756,0.565,1.593,1.049,2.254,1.709
	c4.321,4.314,9.324,7.758,14.242,11.32c5.435,3.936,10.8,7.966,16.215,11.929c8.058,5.896,16.132,11.771,24.201,17.653
	c8.978,6.544,18.3,12.58,27.921,18.108c7.464,4.289,14.991,8.624,23.574,10.416c3.432,0.716,6.919,1.191,10.396,1.665
	c3.321,0.452,6.676,0.664,9.991,1.154c4.396,0.65,8.771,0.345,13.123-0.174c4.508-0.538,8.965-1.515,13.475-2.035
	c3.64-0.419,7.33-0.656,10.987-0.56c2.012,0.053,4.023,0.889,5.997,1.497c10.262,3.162,19.083,8.755,26.988,15.94
	c1.941,1.764,4.147,3.242,6.271,4.797c4.698,3.439,9.409,6.86,14.137,10.258c2.875,2.065,6.149,3.329,9.437,4.551
	c1.568,0.583,3.139,1.161,4.695,1.776c3.423,1.354,6.935,1.621,10.567,1.089c1.327-0.194,2.396-0.686,3.443-1.49
	c3.295-2.531,6.656-4.977,9.973-7.48c3.497-2.639,7.526-4.183,11.589-5.639c5.663-2.029,11.523-3.352,17.47-4.083
	c3.303-0.406,6.753-0.456,10.037,0.022c6.555,0.955,13.041,2.39,19.557,3.614c4.05,0.76,7.757,2.13,11.027,4.827
	c3.256,2.685,6.851,4.957,10.26,7.459c2.501,1.835,4.901,3.809,7.426,5.609c1.595,1.137,1.896,0.922,3.062-0.608
	c0.935-1.225,2.041-2.328,3.138-3.419c3.617-3.601,7.219-7.221,10.913-10.742c4.859-4.63,9.671-9.324,14.756-13.697
	c3.258-2.802,6.762-5.465,10.535-7.479c4.106-2.19,8.381-4.127,13.086-5.112c4.741-0.993,9.449-1.646,14.246-1.273
	c4.521,0.351,9.045,0.858,13.521,1.581c5.977,0.964,11.898,2.264,17.865,3.292c2.348,0.404,4.75,0.538,7.134,0.665
	c5.03,0.268,10.057,0,15.058-0.498c4.997-0.497,10.012-0.983,14.948-1.866c5.051-0.903,9.81-2.904,14.323-5.312
	c4.782-2.552,9.421-5.378,14.081-8.153c2.459-1.464,4.897-2.982,7.217-4.654c1.203-0.868,2.062-2.199,3.191-3.188
	c3.669-3.213,7.354-6.41,11.101-9.534c13.893-11.586,27.131-23.882,39.92-36.667c0.729-0.729,1.255-1.664,1.875-2.502
	c0.15,0.15,0.3,0.301,0.45,0.452c0.077,0.021,0.162,0.03,0.229,0.067c0.061,0.035,0.141,0.097,0.147,0.155
	c0.058,0.471,0.142,0.944,0.142,1.417c0.007,33.027,0.006,66.055,0.006,99.212c-2.696,0.89-5.289,1.645-7.807,2.597
	c-7.168,2.713-14.336,5.429-21.446,8.287c-9.688,3.895-19.313,7.941-29.354,10.889c-2.434,0.714-4.793,1.683-7.191,2.517
	c-4.239,1.474-8.58,2.318-13.08,2.628c-4.405,0.303-8.705,1.311-12.943,2.668c-3.439,1.102-6.718,2.496-9.982,4.012
	c-2.721,1.264-5.068,2.976-7.373,4.846c-4.337,3.521-8.806,6.879-13.15,10.391c-5.157,4.169-10.084,8.586-14.292,13.757
	c-1.864,2.291-3.866,4.469-5.819,6.687c-0.315,0.357-0.685,0.678-1.065,0.965c-2.545,1.917-5.062,3.872-7.664,5.707
	c-1.551,1.093-3.238,1.991-5.125,3.136c1.1,1.505,2.071,3.046,3.248,4.409c4.199,4.863,9.13,8.942,14.251,12.771
	c2.159,1.614,4.625,2.812,6.907,4.269c2.42,1.543,4.728,3.269,7.191,4.735c3.832,2.282,7.771,4.387,11.635,6.617
	c4.137,2.389,8.223,4.868,12.366,7.245c2.005,1.149,4.083,2.174,6.146,3.218c3.193,1.617,6.346,3.334,9.624,4.762
	c2.622,1.143,5.379,1.999,8.121,2.836c4.183,1.276,8.429,2.343,12.6,3.651c4.102,1.287,8.126,2.818,12.215,4.146
	c7.114,2.311,14.236,4.601,21.385,6.801c7.396,2.276,14.821,4.462,22.251,6.629c2.063,0.603,4.188,0.995,6.284,1.49
	c0.611,0.144,1.218,0.308,1.921,0.485c0,1.972,0,3.851,0,5.99c-2.603-0.325-5.027-0.675-7.463-0.921
	c-5.562-0.562-11.12-1.215-16.696-1.572c-6.761-0.434-13.539-0.251-20.313-0.174c-6.293,0.072-12.588-0.024-18.883-0.012
	c-3.418,0.008-6.835,0.131-10.252,0.126c-5.742-0.008-11.484-0.091-17.228-0.11c-2.383-0.008-4.767,0.105-7.15,0.1
	c-4.13-0.011-8.263-0.187-12.389-0.082c-5.889,0.148-11.771,0.533-17.66,0.73c-4.202,0.141-8.408,0.126-12.613,0.204
	c-3.33,0.062-6.661,0.151-9.991,0.243c-2.454,0.066-4.907,0.207-7.361,0.222c-3.019,0.018-6.037-0.114-9.055-0.088
	c-5.566,0.048-11.132,0.148-16.696,0.257c-5.177,0.101-10.352,0.307-15.528,0.35c-10.379,0.086-20.759-0.001-31.137,0.157
	c-10.15,0.155-20.298,0.548-30.447,0.792c-5.034,0.121-10.072,0.097-15.107,0.215c-11.026,0.258-22.05,0.579-33.076,0.847
	c-6.232,0.151-12.465,0.284-18.699,0.356c-7.349,0.087-14.68,0.28-22,1.125c-3.375,0.39-6.835-0.006-10.253,0.085
	c-5.175,0.138-10.35,0.218-15.504,0.911c-8.534,1.146-17.123,1.492-25.734,1.543c-5.579,0.033-11.156,0.359-16.734,0.557
	c-0.16,0.006-0.32,0.058-0.477,0.046c-4.717-0.345-9.397,0.352-14.095,0.483c-2.945,0.083-5.909-0.357-8.847-0.211
	c-7.172,0.358-14.332,0.949-21.501,1.389c-2.938,0.18-5.892,0.122-8.827,0.33c-4.935,0.352-9.859,0.846-14.79,1.249
	c-2.938,0.239-5.882,0.416-8.822,0.631c-1.432,0.104-2.859,0.276-4.292,0.338c-2.134,0.091-4.285,0.292-6.403,0.126
	c-4.986-0.392-9.949-1.104-14.971-0.778c-1.907,0.124-3.821,0.16-5.721,0.346c-4.432,0.433-8.758-0.431-13.113-0.96
	c-6.5-0.788-12.996-1.609-19.502-2.334c-4.608-0.514-9.231-0.896-13.849-1.322c-0.954-0.088-1.914-0.109-2.871-0.16
	C0.48,485.67,0.48,483.59,0.48,481.51z M11.665,484.856c0.014,0.134,0.027,0.267,0.041,0.4c0.231,0.041,0.461,0.105,0.694,0.12
	c6.862,0.432,13.72,0.926,20.586,1.266c5.985,0.297,11.98,0.58,17.969,0.561c4.225-0.014,8.444-0.631,12.673-0.823
	c5.984-0.272,11.976-0.357,17.96-0.608c3.43-0.145,6.855-0.431,10.278-0.702c5.335-0.423,10.666-0.903,16.001-1.329
	c3.024-0.24,6.052-0.432,9.08-0.625c5.898-0.375,11.793-0.864,17.698-1.068c7.183-0.248,14.375-0.201,21.562-0.371
	c7.907-0.188,15.817-0.378,23.717-0.75c7.025-0.33,14.034-1.008,21.059-1.352c6.066-0.296,12.145-0.293,18.215-0.5
	c8.466-0.289,16.93-0.656,25.395-0.978c4.633-0.176,9.272-0.247,13.9-0.508c6.939-0.393,13.865-1.099,20.809-1.337
	c16.692-0.574,33.388-1.109,50.087-1.36c11.747-0.178,23.501,0.188,35.252,0.218c15.505,0.04,31.011,0.037,46.515-0.046
	c8.382-0.044,16.763-0.31,25.145-0.445c4.153-0.066,8.308-0.015,12.46-0.103c8.79-0.185,17.576-0.521,26.366-0.612
	c7.186-0.073,14.373,0.121,21.559,0.194c4.953,0.051,9.905,0.12,14.858,0.139c5.435,0.021,10.87,0.019,16.305-0.02
	c6.312-0.045,12.625-0.146,18.938-0.208c2.336-0.023,4.672-0.004,7.008-0.004c-0.586-0.568-1.264-0.915-1.979-1.146
	c-1.665-0.54-3.365-0.978-5.022-1.54c-6.782-2.302-13.929-3.383-20.569-6.161c-1.318-0.552-2.67-1.054-4.045-1.437
	c-5.292-1.47-10.618-2.819-15.896-4.335c-4.827-1.386-9.607-2.93-14.122-5.187c-3.999-1.998-8.007-3.979-12.024-5.94
	c-6.024-2.939-12.135-5.678-17.799-9.344c-4.411-2.854-9.208-5.109-13.677-7.882c-5.559-3.446-11.089-6.967-16.387-10.793
	c-5.779-4.174-10.944-9.058-14.774-15.185c-0.253-0.405-0.531-0.795-0.771-1.15c-3.039,1.201-5.7,0.896-8.063-0.723
	c-2.288-1.567-3.825-3.78-4.194-6.77c-1.271,0.185-2.283,0.354-3.3,0.476c-1.86,0.223-3.685,0.129-5.337-0.879
	c-4.104-2.504-6.619-6.749-5.523-11.982c0.141-0.669,0.18-1.359,0.266-2.04c-3.319,0.329-6.398,0.779-9.49,0.909
	c-5.047,0.212-9.842-0.591-13.694-4.447c-0.532,0.598-1.007,1.253-1.6,1.775c-2.269,1.998-4.338,4.379-6.926,5.819
	c-3.515,1.955-7.173,3.744-11.148,4.833c-1.882,0.515-3.49,0.571-5.295,0.045c-2.68-0.781-4.132-2.786-4.873-5.172
	c-1.85-5.951,0.189-11.312,3.019-16.458c0.292-0.532,0.879-0.913,1.359-1.331c4.57-3.969,9.166-7.91,13.706-11.914
	c0.828-0.73,1.552-1.639,2.127-2.584c1.979-3.252,3.871-6.558,5.854-9.94c-2.18-0.215-4.302,0.011-6.041-0.7
	c-2.583-1.055-5.171-2.17-7.687-3.452c-3.693-1.882-6.676-4.614-9.711-7.247c-3.813-3.309-7.719-6.446-12.173-8.799
	c-3.595-1.899-7.258-3.748-11.062-5.153c-4.399-1.625-8.933-2.978-13.507-4.014c-5.178-1.174-10.513-0.71-15.779-0.572
	c-2.35,0.062-4.754,0.448-7.016,1.099c-9.54,2.746-18.23,7.177-25.903,13.531c-0.845,0.699-1.762,1.312-2.646,1.964
	c0.859-1.343,1.753-2.667,2.986-3.475c4.335-2.841,8.787-5.504,13.194-8.235c0.379-0.235,0.758-0.473,1.136-0.709
	c-1.694,0.332-3.302,0.844-4.715,1.685c-3.431,2.043-6.854,4.121-10.113,6.422c-1.803,1.272-3.497,2.848-4.835,4.597
	c-2.025,2.647-3.697,5.565-5.589,8.476c1.345-0.705,2.766-1.22,3.914-2.095c2.9-2.21,5.543-4.776,8.536-6.841
	c4.41-3.042,9.232-5.369,14.4-6.875c3.137-0.914,6.271-1.917,9.476-2.505c6-1.104,12.007-1.269,18.004,0.39
	c5.592,1.547,11.383,2.335,16.696,4.908c4.815,2.333,9.67,4.573,14.049,7.679c6.313,4.478,12.588,9.009,18.871,13.529
	c1.044,0.751,1.627,1.786,1.918,3.561c-1.402-0.615-2.532-0.932-3.458-1.552c-2.649-1.775-5.243-3.636-7.808-5.531
	c-3.919-2.896-7.742-5.925-11.704-8.76c-5.096-3.646-10.714-6.371-16.604-8.423c-4.129-1.439-8.422-2.426-12.664-3.527
	c-3.337-0.866-6.728-1.278-10.204-1.135c-6.946,0.287-13.602,1.855-19.976,4.521c-3.442,1.44-6.884,3.019-10.021,5.015
	c-4.703,2.992-9.195,6.329-13.666,9.668c-2.614,1.953-5.176,4.035-7.459,6.356c-2.341,2.38-4.292,5.14-6.455,7.699
	c-1.416,1.676-2.856,3.303-1.688,5.729c0.062,0.13,0.024,0.315,0.012,0.473c-0.331,4.444-3.071,7.954-7.479,9.268
	c-3.208,0.956-6.486,1.678-9.73,2.514c-0.454,0.117-1.002,0.172-1.32,0.461c-1.417,1.286-3.072,2.451-4.082,4.02
	c-2.682,4.166-6.822,6.328-10.888,8.681c-1.474,0.854-3.007,1.415-4.667,1.67c-1.542,0.237-2.23,1.413-2.936,2.584
	c-1.604,2.662-3.196,5.33-4.818,7.98c-2.634,4.304-6.671,6.818-11.245,8.521c-3.044,1.133-6.219,1.91-9.29,2.979
	c-1.948,0.679-3.892,1.453-5.702,2.436c-7.398,4.015-14.125,9.076-20.659,14.302c-5.757,4.604-11.887,8.6-18.066,12.527
	c-5.103,3.244-10.513,6.005-15.797,8.961c-1.873,1.047-3.803,1.99-5.661,3.061c-4.758,2.743-9.415,5.673-14.257,8.257
	c-3.993,2.131-8.174,3.916-12.306,5.777c-3.85,1.734-7.756,3.343-11.618,5.051c-6.917,3.06-13.813,6.164-20.731,9.221
	c-1.382,0.611-2.78,1.287-4.242,1.599c-4.135,0.88-8.303,1.611-12.467,2.352C17.472,483.957,14.565,484.389,11.665,484.856z
	 M473.513,296.959c-1.749-0.1-3.256-0.263-4.761-0.249c-1.271,0.012-2.538,0.247-3.81,0.349c-5.188,0.417-10.365,0.353-15.537-0.286
	c-4.813-0.594-9.638-1.105-14.451-1.698c-6.65-0.819-13.298-1.655-19.94-2.53c-6.343-0.835-12.227,0.813-17.735,3.657
	c-3.669,1.894-7.012,4.423-10.485,6.691c-2.674,1.745-5.493,3.32-7.943,5.34c-3.629,2.992-7.023,6.274-10.455,9.499
	c-3.95,3.712-7.905,7.425-11.718,11.276c-2.204,2.227-4.133,4.727-6.181,7.099c4.387,2.597,8.995,3.709,13.802,4.217
	c1.275,0.135,2.207-0.064,3.202-1.015c1.489-1.422,3.175-2.674,4.907-3.798c5.49-3.563,10.94-7.164,15.483-11.954
	c0.229-0.243,0.667-0.29,1.162-0.49c0.046,0.488,0.181,0.826,0.086,1.077c-1.077,2.872-2.758,5.374-5.25,7.146
	c-2.729,1.941-5.846,3.376-8.42,5.488c-3.566,2.926-6.789,6.272-10.143,9.456c-0.342,0.325-0.638,0.734-0.846,1.158
	c-2.093,4.275-4.984,7.979-8.186,11.458c-3.078,3.343-6.033,6.771-9.749,9.511c-5.265,3.882-7.107,9.214-5.634,15.638
	c0.539,2.347,1.821,3.078,4.227,2.497c1.286-0.311,2.633-0.375,3.913-0.705c2.927-0.755,5.921-1.349,8.076-3.833
	c0.878-1.012,2.079-1.737,3.091-2.64c1.13-1.008,2.32-1.979,3.292-3.128c1.75-2.071,3.268-4.34,5.041-6.389
	c3.302-3.815,6.846-7.317,11.823-9.011c2.476-0.843,4.804-2.11,7.241-3.078c0.61-0.243,1.405-0.184,2.081-0.067
	c1.581,0.274,1.922,1.29,0.921,2.54c-1.197,1.496-2.882,2.338-4.606,2.879c-5.291,1.66-9.386,4.996-13.051,8.962
	c-0.877,0.949-1.521,2.111-2.438,3.407c3.583,1.592,6.844,2.739,10.518,3.002c4.644,0.332,8.756-0.54,12.647-3.149
	c3.508-2.352,7.238-4.371,10.88-6.521c1.422-0.839,2.874-1.455,4.406-0.078c0.396,1.886-1.021,2.669-2.275,3.48
	c-3.742,2.418-7.515,4.79-11.28,7.171c-2.236,1.414-3.454,3.688-3.141,6.061c0.458,3.462,2.021,6.629,5.695,7.943
	c0.802,0.287,1.944,0.292,2.697-0.064c5.296-2.507,10.198-5.577,14.145-10.037c1.463-1.652,3.248-3.019,4.839-4.473
	c0.743,0.27,1.298,0.392,1.771,0.658c1.169,0.656,1.351,1.57,0.402,2.514c-2.144,2.132-4.311,4.246-6.556,6.269
	c-2.129,1.917-4.469,3.607-6.533,5.587c-1.986,1.905-1.826,4.139,0.2,6.003c0.642,0.591,1.393,1.069,2.124,1.554
	c1.582,1.049,3.216,0.84,4.754-0.032c1.315-0.745,2.572-1.609,3.785-2.515c4.408-3.287,8.79-6.61,13.171-9.933
	c0.442-0.335,0.823-0.755,1.22-1.148c1.292-1.282,2.562-2.587,3.871-3.852c2.413-2.331,4.819-4.67,7.285-6.944
	c1.812-1.67,3.689-3.271,5.583-4.85c3.368-2.809,6.769-5.579,10.158-8.362c1.23-1.011,2.4-2.114,3.718-2.996
	c2.971-1.987,6.017-3.861,8.955-5.731c0.144-0.936,0.178-1.75,0.398-2.51c1.797-6.195,1.393-12.492,0.953-18.799
	c-0.225-3.229-1.294-6.217-2.247-9.272c-1.134-3.638-2.065-7.37-2.688-11.127c-0.715-4.314,0.849-8.346,2.284-12.341
	C472.716,299.686,473.066,298.394,473.513,296.959z M234.588,333.632c-3.175-1.665-6.238-3.021-9.035-4.796
	c-4.042-2.564-7.881-5.446-11.825-8.165c-4.67-3.22-9.319-6.474-14.059-9.589c-2.122-1.394-4.443-2.484-6.67-3.719
	c-1.603-0.889-3.218-1.757-4.786-2.705c-0.527-0.318-1.201-0.787-1.324-1.302c-0.265-1.11-1.021-1.515-1.893-1.95
	c-0.856-0.428-1.656-0.968-2.494-1.435c-3.201-1.786-6.368-3.636-9.625-5.315c-2.056-1.06-4.28-1.731-6.645-1.718
	c-3.996,0.022-7.997-0.063-11.986,0.117c-3.162,0.142-6.39,0.274-9.445,1.007c-7.16,1.718-13.69,4.693-18.633,10.503
	c-2.116,2.487-4.685,4.59-6.786,7.088c-2.614,3.106-4.954,6.444-7.421,9.674c-1.305,1.709-2.637,3.396-3.942,5.104
	c-2.845,3.723-4.469,8.092-6.452,12.269c-1.05,2.212-0.754,3.817,1.132,5.519c3.845,3.47,7.622,7.039,11.689,10.233
	c6.112,4.801,11.438,10.428,17.102,15.696c3.903,3.631,7.594,7.497,11.277,11.355c4.018,4.21,8.578,7.897,12.06,12.628
	c1.366,1.856,2.925,3.571,4.427,5.324c0.406,0.475,0.884,0.911,1.398,1.265c1.18,0.811,2.41,1.55,3.605,2.338
	c1.078,0.711,2.162,1.465,3.53,1.255c3.432-0.527,6.774-1.236,9.12-4.196c0.939-1.186,1.997-2.302,3.128-3.305
	c1.805-1.6,2.477-3.68,2.789-5.936c0.173-1.25,0.222-2.516,0.332-3.835c-0.485-0.19-0.913-0.396-1.362-0.527
	c-3.6-1.049-7.08-2.312-9.697-5.198c-0.21-0.232-0.592-0.332-0.751-0.583c-0.518-0.822-0.97-1.686-1.447-2.534
	c0.699-0.215,1.048-0.132,1.379-0.001c3.555,1.406,7.068,2.928,10.676,4.179c1.452,0.503,3.104,0.464,4.672,0.582
	c1.17,0.088,2.401,0.255,3.519,0.002c4.981-1.124,8.658-4.215,11.717-8.145c0.109-0.14,0.014-0.439,0.014-0.716
	c-2.51,0-4.978-0.069-7.44,0.014c-6.029,0.201-11.715-0.944-17.022-3.914c-2.576-1.442-5.323-2.58-7.877-4.056
	c-2.41-1.393-4.701-3.002-6.979-4.608c-0.941-0.663-1.671-1.591-2.038-3.253c1.301,0.224,2.295,0.306,3.237,0.572
	c5.906,1.668,10.756,5.491,16.229,8.072c4.505,2.124,8.989,3.716,13.969,3.548c2.862-0.097,5.71-0.537,8.572-0.694
	c6.126-0.337,11.868-2.316,17.692-3.975c3.11-0.886,4.723-2.964,5.271-6.087c-3.557-0.234-7.045-0.508-10.538-0.682
	c-4.015-0.199-7.964-0.5-11.443-2.892c-0.886-0.609-2.021-1.065-3.083-1.17c-4.551-0.449-8.496-2.184-11.715-5.393
	c-0.988-0.985-1.657-2.329-2.309-3.592c-0.212-0.41,0.093-1.087,0.206-2.01c1.661,1.237,3.063,2.058,4.186,3.164
	c2.061,2.032,4.258,3.352,7.305,3.543c5.9,0.373,10.815-1.396,14.815-5.739c1.297-1.409,2.596-2.816,3.924-4.195
	c1.074-1.115,2.336-1.949,3.892-2.224c1.955-0.346,3.906-0.762,5.877-0.957c2.516-0.248,4.927-0.553,6.54-2.854
	C233.436,334.306,233.985,334.074,234.588,333.632z M131.164,294.8c-2.632-0.51-5.234-1.136-7.873-1.493
	c-3.16-0.427-6.351-0.63-9.529-0.918c-6.083-0.55-11.955-2.062-17.475-4.592c-6.877-3.151-13.771-6.284-20.005-10.709
	c-5.911-4.196-12.091-8.011-18.083-12.096c-3.689-2.515-7.244-5.226-10.867-7.839c-3.617-2.609-7.278-5.158-10.854-7.823
	c-4.161-3.101-8.211-6.35-12.379-9.44c-3.712-2.752-7.532-5.357-11.28-8.062c-3.292-2.377-6.547-4.807-9.833-7.194
	c-0.214-0.156-0.555-0.138-1.08-0.255c0,1.619,0.008,3.047-0.001,4.477c-0.178,25.986-0.358,51.973-0.54,77.959
	c-0.015,2.238-0.033,2.286,2.212,2.967c2.584,0.785,5.236,1.356,7.788,2.228c5.206,1.778,10.46,3.466,15.52,5.604
	c9.559,4.038,19.348,7.406,29.18,10.677c4.087,1.36,8.283,2.494,12.203,4.241c8.32,3.709,16.975,6.479,25.508,9.59
	c1.003,0.366,2.084,0.521,2.868,0.711c0.719-2.337,1.216-4.422,2.003-6.391c0.854-2.137,2.123-4.11,2.951-6.255
	c1.259-3.261,3.371-5.934,5.464-8.639c0.97-1.253,1.966-2.487,2.905-3.763c1.087-1.476,2.027-3.07,3.204-4.467
	c2.156-2.56,4.375-5.074,6.685-7.496c3.559-3.73,6.476-8.144,11.185-10.674C131.092,295.119,131.096,295.001,131.164,294.8z
	 M576.005,225.555c-1.07,1-1.701,1.579-2.321,2.169c-7.698,7.325-15.275,14.784-23.126,21.942
	c-8.485,7.736-17.145,15.289-25.894,22.728c-3.88,3.298-8.019,6.35-12.311,9.091c-4.15,2.651-8.701,4.668-12.982,7.126
	c-5.845,3.356-12.229,5.312-18.56,7.413c-2.318,0.769-4.186,1.876-4.909,4.367c-0.088,0.302-0.275,0.575-0.412,0.863
	c-2.001,4.223-2.711,8.608-1.895,13.256c0.693,3.946,1.726,7.774,3.191,11.505c0.578,1.469,0.968,3.042,1.213,4.604
	c0.331,2.117,0.342,4.284,0.665,6.402c0.636,4.17,0.095,8.278-0.429,12.397c-0.107,0.845-0.127,1.701-0.178,2.424
	c2.702-0.446,5.205-0.86,7.709-1.271c3.925-0.645,7.832-1.447,11.779-1.887c4.214-0.469,8.365-1.151,12.4-2.438
	c2.113-0.674,4.153-1.579,6.258-2.285c3.983-1.334,8.049-2.442,11.973-3.926c8.792-3.327,17.514-6.838,26.272-10.251
	c5.195-2.024,10.405-4.012,15.614-6c1.988-0.758,3.992-1.472,5.94-2.188C576.005,289.639,576.005,257.912,576.005,225.555z
	 M244.153,337.077c-0.059-0.107-0.117-0.214-0.175-0.321c-0.793,0.272-1.609,0.491-2.371,0.831c-0.751,0.334-1.55,0.447-2.045,1.436
	c-0.259,0.517-1.702,0.362-2.545,0.682c-2.089,0.793-4.105,1.792-6.22,2.502c-1.564,0.524-3.263,1.1-4.856,0.989
	c-3.692-0.255-6.386,1.53-8.586,3.987c-3.043,3.398-6.169,6.536-10.988,7.876c6.455,2.204,12.791,2.598,19.196,2.352
	c0.396-0.015,0.865-0.383,1.148-0.715c1.552-1.824,3.114-3.646,4.567-5.549c3.401-4.451,7.06-8.656,11.277-12.361
	C243.14,338.274,243.624,337.649,244.153,337.077z"/>
<path fill-rule="evenodd" clip-rule="evenodd" fill="#FFFFFF" d="M11.665,484.856c2.9-0.468,5.807-0.899,8.699-1.413
	c4.164-0.74,8.332-1.472,12.467-2.352c1.462-0.312,2.859-0.987,4.242-1.599c6.918-3.057,13.814-6.161,20.731-9.221
	c3.862-1.708,7.768-3.316,11.618-5.051c4.132-1.861,8.313-3.646,12.306-5.777c4.842-2.584,9.499-5.514,14.257-8.257
	c1.858-1.07,3.789-2.014,5.661-3.061c5.285-2.956,10.695-5.717,15.797-8.961c6.179-3.928,12.309-7.923,18.066-12.527
	c6.533-5.226,13.26-10.287,20.659-14.302c1.81-0.982,3.753-1.757,5.702-2.436c3.071-1.068,6.245-1.846,9.29-2.979
	c4.573-1.703,8.611-4.218,11.245-8.521c1.622-2.65,3.214-5.318,4.818-7.98c0.706-1.171,1.394-2.347,2.936-2.584
	c1.66-0.255,3.193-0.816,4.667-1.67c4.065-2.353,8.206-4.515,10.888-8.681c1.01-1.569,2.664-2.733,4.082-4.02
	c0.318-0.289,0.866-0.344,1.32-0.461c3.244-0.836,6.522-1.558,9.73-2.514c4.409-1.314,7.149-4.824,7.479-9.268
	c0.012-0.158,0.05-0.343-0.012-0.473c-1.168-2.425,0.272-4.052,1.688-5.729c2.162-2.56,4.114-5.319,6.455-7.699
	c2.283-2.321,4.845-4.403,7.459-6.356c4.47-3.34,8.962-6.677,13.666-9.668c3.137-1.996,6.579-3.575,10.021-5.015
	c6.374-2.666,13.03-4.235,19.976-4.521c3.476-0.143,6.867,0.269,10.204,1.135c4.242,1.101,8.535,2.087,12.664,3.527
	c5.89,2.052,11.508,4.777,16.604,8.423c3.962,2.834,7.785,5.864,11.704,8.76c2.564,1.896,5.158,3.756,7.808,5.531
	c0.926,0.62,2.056,0.937,3.458,1.552c-0.291-1.775-0.874-2.81-1.918-3.561c-6.283-4.52-12.558-9.051-18.871-13.529
	c-4.379-3.106-9.233-5.346-14.049-7.679c-5.312-2.573-11.104-3.361-16.696-4.908c-5.997-1.659-12.003-1.494-18.004-0.39
	c-3.205,0.589-6.339,1.591-9.476,2.505c-5.168,1.506-9.99,3.833-14.4,6.875c-2.993,2.065-5.636,4.631-8.536,6.841
	c-1.147,0.875-2.569,1.39-3.914,2.095c1.893-2.911,3.564-5.829,5.589-8.476c1.338-1.749,3.032-3.324,4.835-4.597
	c3.259-2.301,6.683-4.378,10.113-6.422c1.413-0.841,3.021-1.354,4.715-1.685c-0.378,0.237-0.757,0.474-1.136,0.709
	c-4.407,2.731-8.859,5.395-13.194,8.235c-1.233,0.808-2.127,2.132-2.986,3.475c0.884-0.653,1.801-1.265,2.646-1.964
	c7.673-6.354,16.364-10.785,25.903-13.531c2.261-0.651,4.666-1.037,7.016-1.099c5.266-0.138,10.601-0.602,15.779,0.572
	c4.574,1.037,9.107,2.389,13.507,4.014c3.805,1.405,7.468,3.254,11.062,5.153c4.454,2.353,8.359,5.49,12.173,8.799
	c3.035,2.633,6.018,5.365,9.711,7.247c2.516,1.281,5.104,2.396,7.687,3.452c1.739,0.711,3.861,0.484,6.041,0.7
	c-1.982,3.382-3.874,6.688-5.854,9.94c-0.575,0.945-1.299,1.854-2.127,2.584c-4.54,4.004-9.136,7.945-13.706,11.914
	c-0.48,0.417-1.067,0.798-1.359,1.331c-2.829,5.146-4.868,10.507-3.019,16.458c0.741,2.386,2.193,4.391,4.873,5.172
	c1.805,0.526,3.413,0.47,5.295-0.045c3.976-1.088,7.634-2.877,11.148-4.833c2.588-1.44,4.657-3.822,6.926-5.819
	c0.593-0.521,1.067-1.177,1.6-1.775c3.853,3.856,8.647,4.659,13.694,4.447c3.092-0.13,6.171-0.58,9.49-0.909
	c-0.086,0.68-0.125,1.371-0.266,2.04c-1.096,5.233,1.419,9.478,5.523,11.982c1.652,1.008,3.477,1.102,5.337,0.879
	c1.017-0.122,2.028-0.291,3.3-0.476c0.369,2.989,1.906,5.202,4.194,6.77c2.363,1.618,5.024,1.924,8.063,0.723
	c0.239,0.355,0.518,0.745,0.771,1.15c3.83,6.127,8.995,11.011,14.774,15.185c5.298,3.826,10.828,7.347,16.387,10.793
	c4.469,2.772,9.266,5.027,13.677,7.882c5.664,3.666,11.774,6.404,17.799,9.344c4.018,1.961,8.025,3.942,12.024,5.94
	c4.515,2.257,9.295,3.801,14.122,5.187c5.278,1.516,10.604,2.865,15.896,4.335c1.375,0.383,2.727,0.885,4.045,1.437
	c6.641,2.778,13.787,3.859,20.569,6.161c1.657,0.562,3.357,1,5.022,1.54c0.715,0.231,1.393,0.578,1.979,1.146
	c-2.336,0-4.672-0.02-7.008,0.004c-6.312,0.062-12.625,0.163-18.938,0.208c-5.435,0.038-10.87,0.041-16.305,0.02
	c-4.953-0.019-9.905-0.088-14.858-0.139c-7.186-0.073-14.373-0.268-21.559-0.194c-8.79,0.091-17.576,0.428-26.366,0.612
	c-4.152,0.088-8.307,0.036-12.46,0.103c-8.382,0.136-16.763,0.401-25.145,0.445c-15.504,0.083-31.01,0.086-46.515,0.046
	c-11.751-0.029-23.505-0.396-35.252-0.218c-16.699,0.251-33.396,0.786-50.087,1.36c-6.943,0.238-13.869,0.944-20.809,1.337
	c-4.628,0.261-9.267,0.332-13.9,0.508c-8.465,0.321-16.929,0.688-25.395,0.978c-6.07,0.207-12.149,0.204-18.215,0.5
	c-7.025,0.344-14.034,1.021-21.059,1.352c-7.9,0.372-15.81,0.562-23.717,0.75c-7.187,0.17-14.379,0.123-21.562,0.371
	c-5.905,0.204-11.799,0.693-17.698,1.068c-3.027,0.193-6.056,0.385-9.08,0.625c-5.335,0.426-10.666,0.906-16.001,1.329
	c-3.423,0.271-6.849,0.558-10.278,0.702c-5.985,0.251-11.977,0.336-17.96,0.608c-4.229,0.192-8.448,0.81-12.673,0.823
	c-5.989,0.02-11.984-0.264-17.969-0.561c-6.866-0.34-13.725-0.834-20.586-1.266c-0.233-0.015-0.463-0.079-0.694-0.12
	C11.692,485.123,11.679,484.99,11.665,484.856z M221.014,391.603c-1.85-0.34-2.148,1.184-2.782,2.306
	c0.93-0.771,1.859-1.541,2.789-2.312c0.527-0.694,1.053-1.388,1.602-2.109C221.033,389.677,221.033,389.677,221.014,391.603z
	 M126.951,453.136c0.722-0.476,1.49-0.896,2.152-1.442c0.686-0.565,1.271-1.255,1.899-1.89c1.5-0.301,2.611-1.157,3.443-2.412
	l-0.091,0.078c1.952-1.466,3.903-2.932,5.854-4.397l-0.095,0.076c0.861-0.662,1.721-1.325,2.582-1.988
	c0.495-0.414,0.989-0.828,1.483-1.242c1.288-0.91,2.624-1.76,3.854-2.74c5.31-4.235,10.473-8.626,15.137-13.592
	c2.285-2.433,4.8-4.649,7.239-6.935c0.689-0.646,1.022-1.331,0.767-2.53c-1.626,1.239-3.145,2.294-4.543,3.487
	c-1.816,1.549-3.466,3.297-5.315,4.802c-3.711,3.021-7.512,5.932-11.272,8.893c-3.759,2.961-7.52,5.919-11.266,8.896
	c-1.176,0.934-2.305,1.927-3.456,2.893c-2.273,0.866-5.604,3.047-6.548,4.429c0.985-0.546,1.729-0.958,2.473-1.371
	c0.758-0.421,1.516-0.843,2.273-1.265c-0.559,0.646-1.018,1.432-1.694,1.913c-3.373,2.4-6.742,4.814-10.226,7.047
	c-4.882,3.127-9.828,6.161-15.32,8.163c-0.579,0.211-1.167,0.586-0.672,1.712c0.841-0.236,1.781-0.347,2.575-0.748
	c5.408-2.733,10.792-5.514,16.164-8.316c0.76-0.396,1.411-1.001,2.113-1.509C126.624,453.143,126.788,453.139,126.951,453.136z
	 M210.537,401.624c1.371-0.585,4.348-3.56,5.182-5.349c-1.153,0.983-2.258,2.023-3.293,3.129c-0.665,0.71-1.225,1.519-1.819,2.296
	c-1.011,1.062-2.312,1.869-2.916,3.285C208.59,403.826,210.5,403.51,210.537,401.624z M123.378,450.812
	c-0.233,0.019-0.495-0.026-0.693,0.065c-5.251,2.438-10.497,4.887-15.733,7.355c-0.153,0.071-0.195,0.377-0.354,0.711
	c1.425,0.662,2.501-0.152,3.539-0.687c3.61-1.859,7.19-3.776,10.751-5.728c0.875-0.479,1.632-1.171,2.444-1.766
	c1.242-0.666,2.483-1.333,3.724-1.999c-0.089-0.144-0.178-0.288-0.267-0.432C125.483,448.905,124.064,449.308,123.378,450.812z
	 M272.222,353.889c1.998-0.512,3.983-1.08,5.996-1.525c4.507-0.999,9.031-1.92,13.539-2.914c0.873-0.192,1.896-0.156,2.761-1.336
	c-3.489-0.476-6.688-1.033-9.91-1.327c-7.362-0.672-14.642-0.628-21.642,2.386c-2.964,1.276-6.119,2.11-9.188,3.145
	c-0.097-0.164-0.193-0.328-0.291-0.492c1.227-0.994,2.454-1.988,3.68-2.983c-3.382,0.507-5.14,3.162-7.364,5.348
	c0.677,0.146,1.367,0.248,1.943,0.038c4.854-1.766,9.666-3.65,14.538-5.363c1.791-0.629,3.69-1.045,5.575-1.296
	c5.092-0.678,10.184-0.464,15.251,0.371c1.045,0.172,2.098,0.296,3.147,0.442c-0.009,0.164-0.019,0.328-0.028,0.492
	c-3.562,0.83-7.151,1.558-10.675,2.525c-2.475,0.68-4.86,1.686-7.291,2.541c-0.659,0.093-1.318,0.186-1.977,0.278
	c0.056,0.177,0.112,0.354,0.167,0.532C271.044,354.462,271.633,354.176,272.222,353.889z M411.301,447.668
	c-0.074,0.104-0.148,0.207-0.223,0.311c-1.023-0.552-2.079-1.053-3.066-1.664c-7.257-4.499-14.555-8.935-21.728-13.563
	c-4.758-3.07-9.393-6.343-13.965-9.685c-3.605-2.636-7.103-5.433-10.521-8.309c-4.088-3.438-8.092-6.981-12.035-10.586
	c-2.91-2.66-4.935-5.992-6.397-9.463c-2.537-0.729-1.08,1.909-2.308,2.304c-0.61-0.461-1.249-0.944-1.889-1.426
	c-0.14,0.159-0.279,0.318-0.419,0.478c0.346,0.208,0.742,0.362,1.028,0.633c2.248,2.135,4.483,4.285,6.706,6.447
	c1.316,1.279,2.584,2.608,3.905,3.882c7.034,6.775,14.976,12.453,22.534,18.595c5.712,4.641,11.859,8.646,18.196,12.383
	c7.911,4.666,15.752,9.45,23.618,14.192c5.65,3.407,11.29,6.831,16.942,10.234c0.298,0.179,0.673,0.229,1.012,0.339
	c-0.282-0.599-0.707-0.907-1.114-1.237c-0.527-0.429-1.441-0.845-1.478-1.32c-0.079-1.047-0.751-1.293-1.424-1.697
	c-4.169-2.503-8.149-5.272-11.974-8.285c-6.342-4.996-12.02-10.712-17.813-16.301c-4.936-4.763-9.829-9.571-14.67-14.433
	c-3.094-3.106-6.077-6.325-9.062-9.539c-0.616-0.664-1.016-1.53-1.516-2.304c0.1-0.125,0.198-0.25,0.297-0.376
	c18.512,11.325,37.623,21.534,57.065,31.438c0.432-1.627-0.441-2.058-1.424-2.548c-4.352-2.171-8.699-4.351-13.001-6.617
	c-4.298-2.264-8.53-4.649-12.807-6.954c-4.698-2.532-9.479-4.92-14.105-7.575c-4.961-2.846-9.827-5.864-14.646-8.944
	c-1.732-1.107-3.234-2.584-4.788-3.951c-0.606-0.534-1.165-0.939-1.856-0.302c-0.706,0.65-0.341,1.274,0.185,1.869
	c0.529,0.598,1.033,1.22,1.521,1.853c3.755,4.872,7.58,9.679,12.134,13.856c2.292,2.103,4.512,4.284,6.746,6.447
	c7.288,7.052,14.568,14.11,21.848,21.172C411.002,447.207,411.139,447.451,411.301,447.668z M206.941,406.145
	c-0.176-0.154-0.352-0.31-0.528-0.464c-0.625,0.67-1.219,1.373-1.883,2.002c-1.499,1.422-3.076,2.764-4.54,4.22
	c-1.43,1.422-2.701,3.006-4.147,4.409c-1.477,1.433-3.13,2.681-4.62,4.101c-2.022,1.928-3.892,4.02-5.955,5.899
	c-3.718,3.388-7.48,6.73-11.32,9.978c-3.283,2.776-6.676,5.424-10.066,8.068c-2.014,1.572-4.123,3.021-6.177,4.54
	c-4.553,3.366-9.089,6.757-13.66,10.099c-0.745,0.545-1.637,0.888-2.461,1.323c0.14-0.711,0.482-1.046,0.852-1.348
	c5.376-4.383,10.792-8.719,16.125-13.152c6.203-5.156,12.289-10.455,18.511-15.589c6.602-5.448,12.92-11.172,18.382-17.791
	c1.576-1.909,2.938-4.094,4.829-5.619c2.583-2.085,4.584-4.637,6.804-7.022c6.094-6.551,12.454-12.84,19.121-18.807
	c2.314-2.071,4.785-3.975,7.27-5.843c0.66-0.496,1.633-0.576,2.639-0.904c0.07-0.242,0.208-0.719,0.406-1.4
	c-0.611,0-1.042-0.127-1.326,0.023c-1.053,0.559-2.16,1.088-3.062,1.848c-3.044,2.567-6.067,5.165-8.989,7.869
	c-4.025,3.725-7.933,7.576-11.922,11.338c-4.269,4.026-7.445,9.074-12.169,12.705c-1.788,1.375-3,3.482-4.549,5.188
	c-3.057,3.363-5.944,6.923-9.302,9.959c-5.5,4.974-11.322,9.592-17.005,14.363c-3.18,2.67-6.32,5.388-9.537,8.014
	c-8.154,6.655-16.344,13.267-24.5,19.92c-0.319,0.26-0.435,0.77-0.897,1.634c1.137-0.121,1.959,0.009,2.536-0.307
	c3.077-1.685,6.221-3.294,9.101-5.278c5.32-3.665,10.527-7.502,15.681-11.401c5.216-3.945,10.399-7.946,15.432-12.121
	c4.363-3.619,8.541-7.467,12.71-11.312c1.931-1.78,3.663-3.779,5.458-5.704c2.389-2.56,4.729-5.166,7.135-7.71
	C203.155,409.928,205.063,408.051,206.941,406.145z M273.495,340.638c0.344-0.044,0.715-0.021,1.028-0.144
	c1.335-0.528,2.676-1.052,3.975-1.663c5.975-2.811,12.212-3.036,18.553-1.793c1.631,0.32,3.166,1.136,4.761,1.73
	c0.499-1.071-0.281-1.507-1.035-1.73c-1.75-0.517-3.521-1-5.316-1.32c-3.483-0.621-7.041-0.515-10.475,0.032
	C280.856,336.407,277.036,338.184,273.495,340.638z M256.184,364.976c-2.619-0.381-8.646,2.687-10.566,4.998
	C249.001,368.373,252.336,366.796,256.184,364.976z M267.311,355.568c-3.476,0.705-9.088,3.81-10.356,6
	C260.625,359.442,264.185,357.38,267.311,355.568z M437.658,465.219c1.845,2.107,2.776,2.567,4.75,2.548
	C440.662,466.83,439.16,466.024,437.658,465.219z M330.805,385.367c-0.154,0.123-0.31,0.246-0.464,0.369
	c0.596,0.764,1.19,1.528,1.786,2.292c0.109-0.087,0.219-0.174,0.328-0.261C331.905,386.967,331.354,386.167,330.805,385.367z
	 M445.636,470.227c0.076-0.16,0.151-0.319,0.228-0.479c-0.661-0.379-1.321-0.758-1.982-1.137c-0.094,0.169-0.188,0.339-0.281,0.508
	C444.278,469.487,444.957,469.857,445.636,470.227z M448.458,471.039c-0.133,0.202-0.266,0.404-0.399,0.607
	c0.667,0.363,1.333,0.728,1.999,1.092c0.104-0.168,0.208-0.337,0.312-0.505C449.732,471.835,449.095,471.438,448.458,471.039z
	 M260.99,346.114c-0.891,0.385-1.372,0.592-2.057,0.888C260.051,347.72,260.365,347.122,260.99,346.114z M234.24,376.87
	c0.746,1.238,1.177,0.598,1.601-0.131C235.357,376.778,234.873,376.818,234.24,376.87z"/>
<path fill-rule="evenodd" clip-rule="evenodd" fill="#FEE5D2" d="M473.513,296.959c-0.446,1.435-0.797,2.727-1.249,3.982
	c-1.436,3.995-2.999,8.027-2.284,12.341c0.623,3.757,1.555,7.489,2.688,11.127c0.953,3.056,2.022,6.044,2.247,9.272
	c0.439,6.308,0.844,12.604-0.953,18.799c-0.221,0.76-0.255,1.574-0.398,2.51c-2.938,1.871-5.984,3.745-8.955,5.731
	c-1.317,0.881-2.487,1.985-3.718,2.996c-3.39,2.783-6.79,5.553-10.158,8.362c-1.894,1.579-3.771,3.18-5.583,4.85
	c-2.466,2.274-4.872,4.614-7.285,6.944c-1.31,1.264-2.579,2.569-3.871,3.852c-0.396,0.394-0.777,0.813-1.22,1.148
	c-4.381,3.323-8.763,6.646-13.171,9.933c-1.213,0.905-2.47,1.77-3.785,2.515c-1.538,0.872-3.172,1.081-4.754,0.032
	c-0.731-0.484-1.482-0.963-2.124-1.554c-2.026-1.864-2.187-4.098-0.2-6.003c2.064-1.98,4.404-3.669,6.533-5.587
	c2.245-2.023,4.412-4.137,6.556-6.269c0.948-0.944,0.767-1.857-0.402-2.514c-0.474-0.266-1.028-0.388-1.771-0.658
	c-1.591,1.454-3.376,2.82-4.839,4.473c-3.946,4.46-8.849,7.53-14.145,10.037c-0.753,0.356-1.896,0.351-2.697,0.064
	c-3.675-1.314-5.237-4.481-5.695-7.943c-0.313-2.373,0.904-4.647,3.141-6.061c3.766-2.382,7.538-4.753,11.28-7.171
	c1.254-0.811,2.672-1.594,2.275-3.48c-1.532-1.377-2.984-0.761-4.406,0.078c-3.642,2.149-7.372,4.168-10.88,6.521
	c-3.892,2.609-8.004,3.481-12.647,3.149c-3.674-0.263-6.935-1.41-10.518-3.002c0.916-1.296,1.561-2.458,2.438-3.407
	c3.665-3.966,7.76-7.302,13.051-8.962c1.725-0.541,3.409-1.384,4.606-2.879c1.001-1.25,0.66-2.266-0.921-2.54
	c-0.676-0.117-1.471-0.176-2.081,0.067c-2.438,0.968-4.766,2.235-7.241,3.078c-4.978,1.694-8.521,5.196-11.823,9.011
	c-1.773,2.049-3.291,4.318-5.041,6.389c-0.972,1.149-2.162,2.12-3.292,3.128c-1.012,0.903-2.213,1.628-3.091,2.64
	c-2.155,2.485-5.149,3.079-8.076,3.833c-1.28,0.33-2.627,0.395-3.913,0.705c-2.405,0.581-3.688-0.15-4.227-2.497
	c-1.474-6.423,0.369-11.756,5.634-15.638c3.716-2.74,6.671-6.167,9.749-9.511c3.201-3.479,6.093-7.182,8.186-11.458
	c0.208-0.424,0.504-0.833,0.846-1.158c3.354-3.184,6.576-6.53,10.143-9.456c2.574-2.112,5.691-3.546,8.42-5.488
	c2.492-1.773,4.173-4.274,5.25-7.146c0.095-0.251-0.04-0.589-0.086-1.077c-0.495,0.201-0.933,0.248-1.162,0.49
	c-4.543,4.79-9.993,8.39-15.483,11.954c-1.732,1.124-3.418,2.376-4.907,3.798c-0.995,0.95-1.927,1.149-3.202,1.015
	c-4.807-0.507-9.415-1.62-13.802-4.217c2.048-2.372,3.977-4.872,6.181-7.099c3.812-3.851,7.768-7.564,11.718-11.276
	c3.432-3.225,6.826-6.507,10.455-9.499c2.45-2.02,5.27-3.595,7.943-5.34c3.474-2.268,6.816-4.797,10.485-6.691
	c5.509-2.844,11.393-4.493,17.735-3.657c6.643,0.875,13.29,1.711,19.94,2.53c4.813,0.593,9.638,1.104,14.451,1.698
	c5.172,0.638,10.349,0.703,15.537,0.286c1.271-0.102,2.539-0.337,3.81-0.349C470.257,296.696,471.764,296.859,473.513,296.959z"/>
<path fill-rule="evenodd" clip-rule="evenodd" fill="#FEE5D2" d="M234.588,333.632c-0.603,0.442-1.152,0.673-1.442,1.087
	c-1.613,2.302-4.024,2.607-6.54,2.854c-1.972,0.194-3.922,0.611-5.877,0.957c-1.556,0.275-2.817,1.109-3.892,2.224
	c-1.328,1.379-2.627,2.787-3.924,4.195c-4,4.342-8.915,6.111-14.815,5.739c-3.047-0.192-5.244-1.511-7.305-3.543
	c-1.122-1.106-2.524-1.927-4.186-3.164c-0.113,0.923-0.418,1.6-0.206,2.01c0.652,1.263,1.321,2.606,2.309,3.592
	c3.219,3.209,7.164,4.943,11.715,5.393c1.062,0.104,2.197,0.561,3.083,1.17c3.479,2.392,7.429,2.693,11.443,2.892
	c3.493,0.174,6.98,0.448,10.538,0.682c-0.549,3.123-2.161,5.201-5.271,6.087c-5.824,1.659-11.565,3.638-17.692,3.975
	c-2.861,0.157-5.71,0.597-8.572,0.694c-4.979,0.168-9.464-1.424-13.969-3.548c-5.472-2.581-10.323-6.404-16.229-8.072
	c-0.942-0.266-1.937-0.348-3.237-0.572c0.367,1.662,1.097,2.59,2.038,3.253c2.279,1.606,4.569,3.215,6.979,4.608
	c2.555,1.476,5.302,2.614,7.877,4.056c5.307,2.97,10.994,4.115,17.022,3.914c2.462-0.083,4.93-0.014,7.44-0.014
	c0,0.277,0.095,0.576-0.014,0.716c-3.059,3.93-6.736,7.021-11.717,8.145c-1.118,0.252-2.349,0.086-3.519-0.002
	c-1.568-0.118-3.22-0.079-4.672-0.582c-3.608-1.25-7.122-2.772-10.676-4.179c-0.331-0.13-0.68-0.214-1.379,0.001
	c0.477,0.848,0.929,1.712,1.447,2.534c0.159,0.252,0.541,0.351,0.751,0.583c2.617,2.887,6.097,4.149,9.697,5.198
	c0.449,0.131,0.877,0.337,1.362,0.527c-0.11,1.319-0.159,2.585-0.332,3.835c-0.312,2.256-0.984,4.336-2.789,5.936
	c-1.132,1.003-2.189,2.119-3.128,3.305c-2.346,2.96-5.688,3.669-9.12,4.196c-1.368,0.21-2.452-0.544-3.53-1.255
	c-1.196-0.788-2.425-1.527-3.605-2.338c-0.514-0.354-0.992-0.79-1.398-1.265c-1.502-1.753-3.062-3.468-4.427-5.324
	c-3.482-4.731-8.042-8.418-12.06-12.628c-3.684-3.858-7.374-7.725-11.277-11.355c-5.664-5.268-10.99-10.895-17.102-15.696
	c-4.067-3.195-7.844-6.764-11.689-10.233c-1.886-1.702-2.182-3.307-1.132-5.519c1.982-4.176,3.607-8.545,6.452-12.269
	c1.305-1.708,2.638-3.396,3.942-5.104c2.467-3.23,4.807-6.568,7.421-9.674c2.102-2.498,4.67-4.602,6.786-7.088
	c4.943-5.81,11.473-8.785,18.633-10.503c3.056-0.733,6.284-0.865,9.445-1.007c3.989-0.18,7.99-0.095,11.986-0.117
	c2.365-0.013,4.589,0.658,6.645,1.718c3.256,1.679,6.424,3.529,9.625,5.315c0.838,0.467,1.637,1.007,2.494,1.435
	c0.872,0.436,1.628,0.84,1.893,1.95c0.124,0.515,0.797,0.983,1.324,1.302c1.567,0.948,3.183,1.815,4.786,2.705
	c2.227,1.235,4.548,2.325,6.67,3.719c4.74,3.115,9.389,6.369,14.059,9.589c3.944,2.719,7.783,5.601,11.825,8.165
	C228.35,330.611,231.413,331.968,234.588,333.632z"/>
<path fill-rule="evenodd" clip-rule="evenodd" fill="#4CC1EF" d="M131.164,294.8c-0.068,0.201-0.072,0.319-0.123,0.347
	c-4.708,2.53-7.626,6.944-11.185,10.674c-2.31,2.421-4.528,4.936-6.685,7.496c-1.177,1.397-2.117,2.991-3.204,4.467
	c-0.939,1.276-1.935,2.51-2.905,3.763c-2.094,2.706-4.205,5.378-5.464,8.639c-0.828,2.145-2.097,4.118-2.951,6.255
	c-0.787,1.969-1.285,4.053-2.003,6.391c-0.784-0.189-1.865-0.345-2.868-0.711c-8.533-3.112-17.188-5.881-25.508-9.59
	c-3.919-1.747-8.115-2.881-12.203-4.241c-9.832-3.271-19.621-6.639-29.18-10.677c-5.06-2.138-10.314-3.826-15.52-5.604
	c-2.552-0.872-5.204-1.443-7.788-2.228c-2.246-0.682-2.228-0.729-2.212-2.967c0.181-25.986,0.361-51.973,0.54-77.959
	c0.01-1.429,0.001-2.858,0.001-4.477c0.525,0.117,0.865,0.099,1.08,0.255c3.286,2.387,6.541,4.817,9.833,7.194
	c3.748,2.705,7.568,5.31,11.28,8.062c4.168,3.09,8.219,6.339,12.379,9.44c3.576,2.665,7.237,5.214,10.854,7.823
	c3.623,2.613,7.178,5.324,10.867,7.839c5.993,4.085,12.172,7.9,18.083,12.096c6.234,4.426,13.128,7.558,20.005,10.709
	c5.52,2.53,11.391,4.042,17.475,4.592c3.178,0.288,6.369,0.491,9.529,0.918C125.93,293.664,128.532,294.29,131.164,294.8z"/>
<path fill-rule="evenodd" clip-rule="evenodd" fill="#4CC1EF" d="M576.005,225.555c0,32.357,0,64.083,0,96.042
	c-1.948,0.716-3.952,1.429-5.94,2.188c-5.209,1.988-10.419,3.976-15.614,6c-8.759,3.413-17.48,6.925-26.272,10.251
	c-3.924,1.484-7.989,2.592-11.973,3.926c-2.104,0.706-4.145,1.611-6.258,2.285c-4.035,1.286-8.187,1.968-12.4,2.438
	c-3.947,0.439-7.854,1.242-11.779,1.887c-2.504,0.411-5.007,0.825-7.709,1.271c0.051-0.723,0.07-1.579,0.178-2.424
	c0.523-4.12,1.064-8.228,0.429-12.397c-0.323-2.119-0.334-4.286-0.665-6.402c-0.245-1.562-0.635-3.135-1.213-4.604
	c-1.466-3.731-2.498-7.559-3.191-11.505c-0.816-4.648-0.106-9.034,1.895-13.256c0.137-0.289,0.324-0.561,0.412-0.863
	c0.724-2.49,2.591-3.598,4.909-4.367c6.33-2.1,12.715-4.057,18.56-7.413c4.281-2.458,8.832-4.475,12.982-7.126
	c4.292-2.741,8.431-5.792,12.311-9.091c8.749-7.438,17.408-14.991,25.894-22.728c7.851-7.158,15.428-14.617,23.126-21.942
	C574.304,227.134,574.935,226.555,576.005,225.555z"/>
<path fill-rule="evenodd" clip-rule="evenodd" fill="#FFFFFF" d="M244.153,337.077c-0.53,0.572-1.014,1.197-1.597,1.709
	c-4.217,3.705-7.876,7.91-11.277,12.361c-1.454,1.903-3.015,3.725-4.567,5.549c-0.283,0.333-0.752,0.7-1.148,0.715
	c-6.405,0.246-12.741-0.148-19.196-2.352c4.819-1.341,7.945-4.478,10.988-7.876c2.2-2.457,4.894-4.242,8.586-3.987
	c1.593,0.11,3.292-0.465,4.856-0.989c2.115-0.709,4.131-1.708,6.22-2.502c0.843-0.32,2.287-0.165,2.545-0.682
	c0.495-0.988,1.294-1.102,2.045-1.436c0.762-0.339,1.578-0.559,2.371-0.831C244.037,336.863,244.095,336.97,244.153,337.077z"/>
<path fill-rule="evenodd" clip-rule="evenodd" d="M411.301,447.668c-0.162-0.217-0.299-0.461-0.49-0.647
	c-7.279-7.062-14.56-14.12-21.848-21.172c-2.234-2.163-4.454-4.345-6.746-6.447c-4.554-4.178-8.379-8.984-12.134-13.856
	c-0.488-0.633-0.992-1.255-1.521-1.853c-0.525-0.595-0.891-1.219-0.185-1.869c0.691-0.638,1.25-0.232,1.856,0.302
	c1.554,1.367,3.056,2.844,4.788,3.951c4.819,3.08,9.686,6.099,14.646,8.944c4.627,2.655,9.407,5.043,14.105,7.575
	c4.276,2.305,8.509,4.69,12.807,6.954c4.302,2.267,8.649,4.446,13.001,6.617c0.982,0.49,1.855,0.921,1.424,2.548
	c-19.442-9.903-38.554-20.112-57.065-31.438c-0.099,0.126-0.197,0.251-0.297,0.376c0.5,0.773,0.899,1.64,1.516,2.304
	c2.984,3.214,5.968,6.433,9.062,9.539c4.841,4.861,9.734,9.67,14.67,14.433c5.794,5.589,11.472,11.305,17.813,16.301
	c3.824,3.013,7.805,5.782,11.974,8.285c0.673,0.404,1.345,0.65,1.424,1.697c0.036,0.476,0.95,0.892,1.478,1.32
	c0.407,0.33,0.832,0.639,1.114,1.237c-0.339-0.11-0.714-0.16-1.012-0.339c-5.652-3.403-11.292-6.827-16.942-10.234
	c-7.866-4.742-15.707-9.526-23.618-14.192c-6.337-3.737-12.484-7.742-18.196-12.383c-7.559-6.142-15.5-11.819-22.534-18.595
	c-1.321-1.273-2.589-2.603-3.905-3.882c-2.223-2.162-4.458-4.312-6.706-6.447c-0.286-0.271-0.683-0.425-1.028-0.633
	c0.14-0.16,0.279-0.319,0.419-0.478c0.64,0.482,1.278,0.965,1.889,1.426c1.228-0.395-0.229-3.032,2.308-2.304
	c1.463,3.471,3.487,6.803,6.397,9.463c3.943,3.604,7.947,7.147,12.035,10.586c3.419,2.876,6.916,5.673,10.521,8.309
	c4.572,3.342,9.207,6.614,13.965,9.685c7.173,4.629,14.471,9.064,21.728,13.563c0.987,0.611,2.043,1.112,3.066,1.664
	C411.152,447.875,411.227,447.771,411.301,447.668z"/>
<path fill-rule="evenodd" clip-rule="evenodd" d="M206.941,406.145c-1.877,1.906-3.786,3.783-5.624,5.727
	c-2.406,2.544-4.746,5.15-7.135,7.71c-1.796,1.925-3.527,3.924-5.458,5.704c-4.169,3.845-8.347,7.692-12.71,11.312
	c-5.033,4.175-10.215,8.176-15.432,12.121c-5.154,3.899-10.361,7.736-15.681,11.401c-2.88,1.984-6.024,3.594-9.101,5.278
	c-0.577,0.315-1.399,0.186-2.536,0.307c0.462-0.864,0.578-1.374,0.897-1.634c8.156-6.653,16.346-13.265,24.5-19.92
	c3.216-2.626,6.357-5.344,9.537-8.014c5.684-4.771,11.505-9.39,17.005-14.363c3.358-3.036,6.246-6.596,9.302-9.959
	c1.549-1.705,2.761-3.812,4.549-5.188c4.724-3.631,7.901-8.679,12.169-12.705c3.99-3.763,7.897-7.614,11.922-11.338
	c2.922-2.705,5.945-5.302,8.989-7.869c0.901-0.76,2.009-1.289,3.062-1.848c0.283-0.15,0.715-0.023,1.326-0.023
	c-0.198,0.681-0.336,1.158-0.406,1.4c-1.006,0.329-1.979,0.408-2.639,0.904c-2.484,1.868-4.956,3.772-7.27,5.843
	c-6.667,5.967-13.027,12.256-19.121,18.807c-2.22,2.386-4.222,4.938-6.804,7.022c-1.891,1.525-3.253,3.71-4.829,5.619
	c-5.462,6.619-11.78,12.343-18.382,17.791c-6.222,5.134-12.308,10.433-18.511,15.589c-5.333,4.434-10.749,8.77-16.125,13.152
	c-0.37,0.302-0.712,0.637-0.852,1.348c0.824-0.436,1.717-0.778,2.461-1.323c4.571-3.342,9.107-6.732,13.66-10.099
	c2.055-1.519,4.164-2.968,6.177-4.54c3.39-2.645,6.784-5.292,10.066-8.068c3.84-3.247,7.602-6.59,11.32-9.978
	c2.063-1.88,3.933-3.972,5.955-5.899c1.49-1.42,3.143-2.668,4.62-4.101c1.447-1.403,2.718-2.987,4.147-4.409
	c1.464-1.456,3.041-2.798,4.54-4.22c0.664-0.629,1.257-1.332,1.883-2.002C206.589,405.835,206.765,405.99,206.941,406.145z"/>
<path fill-rule="evenodd" clip-rule="evenodd" d="M126.46,453.146c-0.702,0.508-1.353,1.112-2.113,1.509
	c-5.372,2.803-10.755,5.583-16.164,8.316c-0.794,0.401-1.734,0.512-2.575,0.748c-0.495-1.126,0.093-1.501,0.672-1.712
	c5.492-2.002,10.438-5.036,15.32-8.163c3.484-2.232,6.853-4.646,10.226-7.047c0.676-0.481,1.135-1.268,1.694-1.913
	c0.601-0.598,1.202-1.195,1.802-1.793c1.151-0.966,2.28-1.959,3.456-2.893c3.746-2.978,7.507-5.936,11.266-8.896
	c3.76-2.961,7.561-5.872,11.272-8.893c1.849-1.505,3.499-3.253,5.315-4.802c1.399-1.193,2.917-2.248,4.543-3.487
	c0.255,1.199-0.078,1.885-0.767,2.53c-2.439,2.285-4.954,4.502-7.239,6.935c-4.664,4.966-9.827,9.356-15.137,13.592
	c-1.23,0.98-2.566,1.83-3.853,2.738c1.844-1.633,3.632-3.332,5.541-4.882c3.235-2.628,6.473-5.239,8.979-8.658
	c-0.627,0.272-1.193,0.639-1.71,1.063c-1.414,1.161-2.801,2.354-4.209,3.522c-6.856,5.688-13.717,11.373-20.571,17.065
	c-0.115,0.096-0.172,0.262-0.256,0.395l0.087-0.075c-0.724,0.503-1.447,1.006-2.17,1.509c-0.714,0.563-1.428,1.127-2.142,1.69
	c-0.757,0.421-1.514,0.842-2.598,1.445C125.863,453.077,126.162,453.111,126.46,453.146z"/>
<path fill-rule="evenodd" clip-rule="evenodd" d="M272.27,353.945c2.425-0.86,4.811-1.867,7.286-2.546
	c3.524-0.968,7.113-1.695,10.675-2.525c0.009-0.164,0.019-0.328,0.028-0.492c-1.049-0.146-2.102-0.27-3.147-0.442
	c-5.067-0.835-10.159-1.048-15.251-0.371c-1.885,0.25-3.784,0.667-5.575,1.296c-4.873,1.713-9.684,3.597-14.538,5.363
	c-0.577,0.21-1.267,0.108-1.943-0.038c2.224-2.186,3.981-4.84,7.364-5.348c-1.227,0.995-2.453,1.989-3.68,2.983
	c0.097,0.164,0.194,0.328,0.291,0.492c3.069-1.035,6.224-1.869,9.188-3.145c7-3.014,14.28-3.058,21.642-2.386
	c3.223,0.294,6.421,0.851,9.91,1.327c-0.865,1.18-1.888,1.144-2.761,1.336c-4.508,0.994-9.032,1.916-13.539,2.914
	c-2.012,0.446-3.998,1.013-5.996,1.525L272.27,353.945z"/>
<path fill-rule="evenodd" clip-rule="evenodd" fill="#FFFFFF" d="M131.952,448.422c0.084-0.133,0.141-0.299,0.256-0.395
	c6.854-5.692,13.715-11.377,20.571-17.065c1.408-1.169,2.796-2.361,4.209-3.522c0.518-0.425,1.083-0.791,1.71-1.063
	c-2.506,3.419-5.744,6.03-8.979,8.658c-1.909,1.55-3.697,3.249-5.541,4.882c-0.496,0.416-0.99,0.83-1.485,1.244
	c-0.86,0.663-1.721,1.326-2.582,1.988l0.095-0.076c-1.359,0.877-2.75,1.707-4.062,2.647c-0.671,0.481-1.199,1.16-1.792,1.75
	l0.091-0.078C133.614,447.735,132.783,448.078,131.952,448.422z"/>
<path fill-rule="evenodd" clip-rule="evenodd" d="M273.495,340.638c3.541-2.454,7.362-4.23,11.491-4.889
	c3.434-0.547,6.992-0.653,10.475-0.032c1.794,0.32,3.566,0.803,5.316,1.32c0.754,0.223,1.534,0.66,1.035,1.73
	c-1.596-0.594-3.13-1.41-4.761-1.73c-6.341-1.243-12.578-1.018-18.553,1.793c-1.298,0.611-2.639,1.135-3.975,1.663
	C274.209,340.617,273.839,340.594,273.495,340.638z"/>
<path fill-rule="evenodd" clip-rule="evenodd" d="M123.333,450.765c-0.812,0.595-1.569,1.287-2.444,1.766
	c-3.561,1.951-7.142,3.868-10.751,5.728c-1.038,0.534-2.114,1.349-3.539,0.687c0.159-0.334,0.201-0.64,0.354-0.711
	c5.236-2.469,10.482-4.918,15.733-7.355c0.198-0.092,0.46-0.047,0.693-0.065L123.333,450.765z"/>
<path fill-rule="evenodd" clip-rule="evenodd" d="M256.184,364.976c-3.847,1.82-7.182,3.397-10.566,4.998
	C247.537,367.663,253.565,364.595,256.184,364.976z"/>
<path fill-rule="evenodd" clip-rule="evenodd" d="M267.311,355.568c-3.126,1.812-6.686,3.874-10.356,6
	C258.223,359.378,263.835,356.273,267.311,355.568z"/>
<path fill-rule="evenodd" clip-rule="evenodd" d="M135.322,443.092c-0.601,0.598-1.202,1.195-1.802,1.793
	c-0.758,0.422-1.516,0.844-2.273,1.265c-0.744,0.413-1.488,0.825-2.473,1.371C129.718,446.139,133.049,443.958,135.322,443.092z"/>
<path fill-rule="evenodd" clip-rule="evenodd" d="M210.594,401.687c0.607-0.764,1.167-1.572,1.832-2.282
	c1.035-1.106,2.14-2.146,3.293-3.129c-0.834,1.79-3.812,4.764-5.182,5.349L210.594,401.687z"/>
<path fill-rule="evenodd" clip-rule="evenodd" d="M134.354,447.47c0.593-0.59,1.121-1.269,1.792-1.75
	c1.312-0.94,2.704-1.771,4.062-2.647C138.257,444.538,136.306,446.004,134.354,447.47z"/>
<path fill-rule="evenodd" clip-rule="evenodd" d="M437.658,465.219c1.502,0.806,3.004,1.611,4.75,2.548
	C440.435,467.786,439.503,467.326,437.658,465.219z"/>
<path fill-rule="evenodd" clip-rule="evenodd" d="M127.726,451.546c0.714-0.563,1.428-1.127,2.142-1.69
	c0.397,0,0.794,0.001,1.192,0.002l-0.058-0.054c-0.628,0.635-1.213,1.324-1.899,1.89c-0.663,0.547-1.431,0.967-2.152,1.442
	C127.209,452.605,127.468,452.076,127.726,451.546z"/>
<path fill-rule="evenodd" clip-rule="evenodd" d="M210.537,401.624c-0.037,1.886-1.947,2.202-2.846,3.361
	c0.604-1.416,1.905-2.224,2.91-3.292C210.594,401.687,210.537,401.624,210.537,401.624z"/>
<path fill-rule="evenodd" clip-rule="evenodd" d="M123.378,450.812c0.686-1.505,2.105-1.907,3.412-2.479
	c0.089,0.144,0.178,0.288,0.267,0.432c-1.241,0.666-2.482,1.333-3.724,1.999L123.378,450.812z"/>
<path fill-rule="evenodd" clip-rule="evenodd" d="M131.952,448.422c0.832-0.344,1.663-0.687,2.494-1.03
	c-0.832,1.255-1.942,2.111-3.443,2.412l0.058,0.054c0.326-0.504,0.652-1.007,0.979-1.511L131.952,448.422z"/>
<path fill-rule="evenodd" clip-rule="evenodd" d="M330.805,385.367c0.55,0.8,1.101,1.6,1.65,2.4
	c-0.109,0.087-0.219,0.174-0.328,0.261c-0.596-0.764-1.19-1.528-1.786-2.292C330.495,385.612,330.65,385.49,330.805,385.367z"/>
<path fill-rule="evenodd" clip-rule="evenodd" d="M221.021,391.597c-0.93,0.77-1.859,1.541-2.789,2.311
	c0.634-1.122,0.933-2.646,2.782-2.306L221.021,391.597z"/>
<path fill-rule="evenodd" clip-rule="evenodd" d="M221.014,391.603c0.019-1.926,0.019-1.926,1.608-2.115
	c-0.548,0.721-1.075,1.415-1.602,2.109C221.021,391.597,221.014,391.603,221.014,391.603z"/>
<path fill-rule="evenodd" clip-rule="evenodd" d="M445.636,470.227c-0.679-0.369-1.357-0.739-2.036-1.108
	c0.094-0.169,0.188-0.339,0.281-0.508c0.661,0.379,1.321,0.758,1.982,1.137C445.787,469.907,445.712,470.066,445.636,470.227z"/>
<path fill-rule="evenodd" clip-rule="evenodd" d="M448.458,471.039c0.637,0.398,1.274,0.796,1.911,1.194
	c-0.104,0.168-0.207,0.337-0.312,0.505c-0.666-0.364-1.332-0.729-1.999-1.092C448.192,471.443,448.325,471.241,448.458,471.039z"/>
<path fill-rule="evenodd" clip-rule="evenodd" fill="#FFFFFF" d="M127.726,451.546c-0.258,0.53-0.517,1.06-0.775,1.59
	c-0.164,0.003-0.327,0.007-0.491,0.011c-0.298-0.035-0.597-0.069-1.332-0.155C126.212,452.388,126.969,451.967,127.726,451.546z"/>
<path fill-rule="evenodd" clip-rule="evenodd" d="M140.113,443.148c0.861-0.662,1.721-1.325,2.582-1.988
	C141.834,441.823,140.974,442.486,140.113,443.148z"/>
<path fill-rule="evenodd" clip-rule="evenodd" d="M260.99,346.114c-0.625,1.007-0.938,1.606-2.057,0.888
	C259.618,346.707,260.099,346.499,260.99,346.114z"/>
<path fill-rule="evenodd" clip-rule="evenodd" d="M234.24,376.87c0.633-0.052,1.117-0.091,1.601-0.131
	C235.417,377.468,234.986,378.108,234.24,376.87z"/>
<path fill-rule="evenodd" clip-rule="evenodd" d="M272.222,353.889c-0.589,0.287-1.178,0.574-1.767,0.861
	c-0.056-0.177-0.112-0.354-0.167-0.532c0.659-0.093,1.318-0.186,1.979-0.276C272.27,353.945,272.222,353.889,272.222,353.889z"/>
<path fill-rule="evenodd" clip-rule="evenodd" fill="#FFFFFF" d="M132.039,448.347c-0.327,0.504-0.652,1.007-0.979,1.511
	c-0.397-0.001-0.794-0.002-1.192-0.002C130.592,449.353,131.315,448.85,132.039,448.347z"/>
</svg>
