<?xml version="1.0" encoding="utf-8"?>
<!-- Generator: Adobe Illustrator 16.0.4, SVG Export Plug-In . SVG Version: 6.00 Build 0)  -->
<!DOCTYPE svg PUBLIC "-//W3C//DTD SVG 1.1//EN" "http://www.w3.org/Graphics/SVG/1.1/DTD/svg11.dtd">
<svg version="1.1" id="Layer_1" xmlns="http://www.w3.org/2000/svg" xmlns:xlink="http://www.w3.org/1999/xlink" x="0px" y="0px"
	 width="612px" height="792px" viewBox="0 0 612 792" enable-background="new 0 0 612 792" xml:space="preserve">
<path fill-rule="evenodd" clip-rule="evenodd" d="M132.379,24.537c0.162,0.377,0.342,1.086,0.483,1.079
	c1.087-0.06,2.259-0.048,3.223-0.471c1.066-0.468,1.964-1.345,2.892-2.098c0.584-0.474,0.921-1.232,1.979-0.702
	c0.313,0.157,1.096-0.62,2.142-1.264c-0.375,0.927-0.454,1.461-0.753,1.802c-1.158,1.319-2.308,2.665-3.604,3.842
	c-3.954,3.588-7.932,7.154-11.993,10.62c-1.57,1.341-2.242,2.811-2.439,4.901c-0.463,4.877,0.778,9.387,2.648,13.713
	c0.825,1.908,2.533,3.441,3.878,5.114c0.496,0.618,1.16,1.104,1.638,1.733c1.102,1.449,0.812,2.264-0.934,2.763
	c-0.377,0.108-0.785,0.107-1.337,0.176c1.328,3.052,4.616,3.883,6.906,6.115c-1.545,1.015-2.825,1.855-4.112,2.7
	c1.131,2.083,3.797,1.022,5.375,2.315c0.389,2.361,0.351,2.439-1.64,3.25c-0.812,0.331-1.628,0.651-2.603,1.04
	c1.258,1.584,3.025,2.201,4.741,2.888c0.591,0.237,1.239,0.341,1.812,0.611c1.197,0.566,1.343,1.436,0.216,2.127
	c-1.136,0.696-2.459,1.088-3.707,1.597c-0.365,0.148-0.754,0.24-1.449,0.456c2.622,2.13,5.9,1.917,8.666,3.513
	c-0.287,2.934-2.951,4.284-4.89,6.16c-0.449,0.435-1.044,0.72-1.578,1.079c0.095,0.43,0.177,0.801,0.3,1.362
	c-0.278,0.057-0.545,0.124-0.814,0.162c-0.305,0.043-0.613,0.059-0.923,0.086c0.224,1.95-0.086,2.399-1.762,2.619
	c-1.49,0.194-3.007,0.26-4.465,0.591c-1.466,0.333-2.873,0.925-4.339,1.414c-0.102,0.45-0.204,0.904-0.274,1.215
	c-2.306,0.584-4.554,1.044-6.73,1.731c-2.615,0.826-5.156,1.333-7.947,0.711c-1.836-0.41-3.823-0.325-5.727-0.204
	c-2.015,0.128-3.512-0.727-4.916-1.957c-0.479-0.418-0.928-0.87-1.473-1.384c-0.358,0.128-0.756,0.198-1.075,0.396
	c-2.287,1.418-4.802,1.881-7.36,1.268c-2.853-0.684-5.871-1.27-8.363-2.695c-2.346-1.341-4.189-3.634-6.083-5.667
	c-1.505-1.614-2.753-3.468-4.11-5.208c-0.931,1.956-1.805,3.799-2.684,5.639c-0.823,1.722-2.17,2.937-3.773,3.909
	c-1.98,1.201-3.943,2.382-5.462,4.23c-1.072,1.304-2.957,1.423-4.354,0.45c-0.863-0.602-1.513-1.511-2.378-2.109
	c-0.618-0.428-1.433-0.787-2.164-0.795c-1.984-0.023-3.97,0.156-6.054,0.26c-0.448-0.357-0.998-0.797-1.312-1.047
	c-2.704,0.842-5.193,1.673-7.717,2.383c-1.589,0.447-1.612,0.366-5.031-0.951c-0.399-1.283,0.037-1.983,1.322-2.562
	c2.869-1.29,5.334-3.893,4.522-7.899c-1.319,1.219-2.417,2.689-3.882,3.463c-1.488,0.785-3.332,1.167-5.032,1.204
	c-1.689,0.037-3.456-0.434-4.724-1.982c1.376-2.702,4.985-2.134,6.765-4.868c-1.562,0-2.812-0.164-4.003,0.032
	c-3.059,0.502-4.867-1.476-6.795-3.228c-0.494-0.448-0.818-1.082-1.381-1.849c2.607-0.393,5.081,0.735,7.193-0.99
	c1.532-1.25,2.669-2.718,3.461-4.695c-0.944-0.495-1.88-0.677-2.896-0.291c-1.47,0.558-2.805,0.228-4.103-0.547
	c-1.166-0.696-2.37-1.328-3.537-2.021c-0.898-0.533-1.729-1.146-1.915-2.396c1.703-1.27,3.561-1.512,5.666-1.021
	c-1.887-1.748-3.139-3.812-3.693-6.231c-0.113-0.492,0.354-1.117,0.655-1.967c0.984,0.559,1.742,0.937,2.445,1.399
	c2.748,1.804,4.923,1.606,7.373-0.526c1.62-1.41,3.285-2.804,5.085-3.963c3.158-2.034,5.536-4.803,7.791-7.713
	c0.829-1.071,1.517-2.251,2.35-3.318c3.662-4.692,6.014-10.132,8.828-15.312c2.123-3.909,3.8-8.137,7.405-11.055
	c0.679-0.549,1.377-1.093,2.131-1.524c2.349-1.346,4.744-2.612,7.094-3.955c2.228-1.273,4.656-1.636,7.157-1.636
	c0.608,0,1.213,0.292,1.823,0.433c1.626,0.374,3.242,0.814,4.885,1.088c3.364,0.562,6.075-0.799,8.424-3.073
	c1.033-1,2.035-2.031,3.078-3.02c0.322-0.306,0.732-0.52,1.183-0.832c1.796,2.666-0.054,5.18-0.053,7.861
	c2.894-1.107,5.16-2.743,7.029-4.974c1.268-1.514,2.59-2.981,3.88-4.461c1.519,1.12,1.519,1.12,0.418,7.779
	c2.229-2.353,5.305-3.147,6.782-5.867c0.523-0.965,1.394-1.176,2.201-0.979c0.989,0.24,0.795,1.259,0.726,2.039
	c-0.069,0.784-0.242,1.559-0.423,2.667c1.646-0.438,2.745-1.395,3.451-2.519c0.949-1.512,2.173-2.187,3.997-2.254
	c0.651,1.777-0.837,3.227-0.857,5.192c2.846-0.924,4.276-4.205,7.562-4.234c0.943,1.892-0.501,3.426-1.021,5.444
	c2.716-1.292,3.861-4.713,7.683-4.542c-1.537,3.057-2.232,6.082-4.629,8.234c-0.563,0.183-1.179,0.274-1.674,0.568
	c-0.74,0.439-1.394,1.024-2.088,1.542c-1.156,0.864-2.176,0.766-3.031-0.443c3.452,0.102,7.04-2.99,7.631-6.521
	c-1.18,0.729-2.343,1.587-3.623,2.2c-1.109,0.531-2.085,1.099-2.727,2.189c-0.324,0.551-0.785,1.041-1.681,0.508
	c0.475-0.674,0.936-1.33,1.578-2.241c-0.74,0.276-1.167,0.436-1.901,0.71c0.612-0.981,1.028-1.649,1.443-2.316
	c-0.097-0.087-0.192-0.175-0.29-0.263c-0.675,0.466-1.35,0.932-2.094,1.446c-0.301-0.355-0.572-0.677-0.914-1.081
	c-3.63,2.458-6.747,5.402-9.843,8.375c-0.727,0.698-1.548,1.298-2.324,1.942c0.29-0.565,0.58-1.131,0.869-1.695
	c0.035-0.1,0.09-0.182,0.163-0.246c-0.648-1.221,1.407-1.23,1.034-2.484c-0.939,0.476-1.823,0.923-2.707,1.371
	c0.64-0.559,1.222-1.206,1.931-1.656c1.341-0.852,2.798-1.524,4.127-2.394c1.999-1.307,3.511-3.034,4.064-5.527
	c-1.573,1.907-4.677,1.609-5.633,4.282c-1.206-1.063-1.049-2.262-0.358-3.697c-1.276,0.653-2.327,0.963-3.067,1.623
	c-1.039,0.925-1.954,2.039-2.723,3.204c-0.728,1.104-1.173,2.392-1.792,3.573c-0.276,0.528-0.676,0.992-1.271,1.848
	c1.17-0.32,1.908-0.521,2.646-0.724c-0.871,0.502-1.74,1.009-2.614,1.505c-0.684,0.389-1.501,0.638-2.038,1.172
	c-1.317,1.31-2.509,2.748-3.75,4.135c1.155-0.098,2.105-0.453,2.993-0.927c1.814-0.97,3.595-2.003,5.389-3.011
	c-0.185,0.408-0.37,0.816-0.776,1.711c1.526-0.914,2.562-1.533,3.596-2.152c-1.732,1.426-3.465,2.852-5.107,4.204
	c2.187-0.848,4.554-1.763,6.914-2.694c0.123-0.049,0.191-0.238,0.297-0.352c0.011,0.011-0.017-0.029-0.017-0.029
	c0.072,1.398-1.508,1.464-1.962,2.435c0.001,0,0.01-0.031,0.01-0.031c-0.936,0.823-1.872,1.646-2.907,2.557
	c1.682,0.5,3.097,0.029,4.486-0.575c2.033-0.885,4.057-1.791,6.084-2.688c-0.241,1.853-2.335,2.162-3.456,4.097
	c2.104-0.84,3.683-1.472,5.262-2.103l-0.05-0.055c-0.82,0.749-1.641,1.498-2.461,2.246c1.946-0.285,3.777-0.817,5.43-1.688
	c1.672-0.881,3.187-2.07,4.732-3.178c0.667-0.478,2.959-3.483,3.145-3.981c-0.451,0-0.873,0-1.784,0
	c1.77-0.634,3.065-1.099,4.361-1.563c-0.01-0.133-0.02-0.266-0.029-0.399c-1.196-0.258-2.393-0.516-3.69-0.796
	C130.86,25.865,131.619,25.201,132.379,24.537z M107.988,100.5c-0.283-0.433-0.8-0.864-0.801-1.298
	c-0.004-1.004-0.5-1.636-1.182-2.212c-0.094-0.079-0.283-0.046-0.525-0.077c-0.288,0.391-0.604,0.819-0.854,1.158
	c2.278,5.425,6.067,8.52,12.021,8.519c-0.653-0.536-1.379-0.96-2.143-1.299c-0.703-0.312-1.446-0.534-2.173-0.796
	c0.21-0.082,0.42-0.164,0.643-0.25c-0.375-1.169-1.585-1.615-1.961-2.899c-0.25-0.853-1.959-1.277-3.245-2.028
	C107.878,99.906,107.933,100.203,107.988,100.5z M101.521,25.826c-1.081,1.347-2.162,2.693-3.467,4.319
	c4.201-1.527,6.836-4.466,9.89-7.363c-0.776-0.255-1.201-0.395-1.594-0.523c-0.452,0.818-0.843,1.525-1.234,2.232
	c-0.149-0.073-0.299-0.146-0.448-0.218c0.607-1.745,1.214-3.49,1.801-5.176c-0.783-0.464-1.28-0.759-1.739-1.031
	c-1.185,0.739-1.313,1.666-1.112,2.926c0.442,2.778-0.168,3.953-2.172,4.912c1.337-1.358,1.569-2.975,1.144-5.442
	c-3.652,4.753-7.99,7.579-13.69,8.222c0.345,0.534,0.515,0.797,0.685,1.06c-1.664-1.27-3.728-1.045-5.765-1.321
	c0.349-0.667,0.595-1.137,0.835-1.595c4.918,1.803,9.258,0.891,13.04-2.686c-1.465,0.332-2.637,1.925-4.526,1.077
	c0.812-2.271,1.896-4.369,1.598-7.171c-1.249,1.203-2.17,2.18-3.188,3.042c-0.987,0.837-2.074,1.557-3.345,2.496
	c1.268,0.512,2.203,0.891,3.242,1.311c-0.165,0.376-0.318,0.724-0.434,0.985c-0.989-0.053-1.861-0.098-2.732-0.147
	c-3.087-0.174-6.204-0.139-9.255-0.569c-5.67-0.799-10.289,1.044-14.381,5.066c-0.798-0.846-1.652-0.529-2.307,0.277
	c-0.845,1.039-1.555,2.188-2.362,3.26c-0.225,0.298-0.59,0.491-1.044,0.854c0.583-3.763,3.971-5.11,5.635-7.781
	c-2.201,1.277-4.544,2.392-5.914,4.605c-1.718,2.775-3.277,5.65-4.847,8.515c-2.182,3.983-4.274,8.016-6.48,11.984
	c-0.771,1.387-1.952,2.562-2.631,3.983c-2.15,4.494-6.035,7.584-8.948,11.668c-0.419-0.382-0.69-0.629-1.078-0.982
	c-1.19,0.871-2.436,1.725-3.615,2.662c-1.056,0.839-1.96,1.887-3.071,2.634c-2.23,1.499-4.661,1.205-7.207,0.283
	c0.542,1.686,3.087,1.828,2.202,4.202c1.627-0.364,2.904-0.65,4.182-0.936c-0.709,0.708-1.508,1.22-2.381,1.447
	c-0.995,0.259-2.001,0.332-1.871,1.983c-0.332-0.477-0.43-0.718-0.608-0.854c-0.912-0.699-1.886-0.656-2.193,0.108
	c-0.383,0.953,0.327,1.327,1.012,1.566c1.275,0.446,2.558,0.955,3.88,1.164c3.711,0.588,4.062,0.347,5.602-3.116
	c0.556,0.643,0.716,1.207,0.244,1.932c-0.378,0.581-0.648,1.232-1.002,1.831c-1.32,2.237-2.166,4.776-4.509,6.337
	c-0.991,0.66-1.714,1.721-2.745,2.792c2.837,0.884,5.333,0.906,7.876,0.46c0.641-0.112,1.328,0.04,2.432,0.091
	c0.474-0.521,1.135-1.719,2.652-1.729c-1.161,1.71-2.65,3.147-3.733,4.844c-1.182,1.852-3.503,1.915-4.806,3.582
	c1.458-0.045,2.879-0.175,4.189-0.628c2.875-0.994,4.277-3.616,6.146-6.28c0.763,1.133,1.883,2.028,1.839,2.863
	c-0.194,3.675-0.802,7.304-4.006,9.788c-0.369,0.286-0.844,0.434-1.271,0.645c0.158,0.185,0.316,0.37,0.474,0.555
	c1.06,0.103,2.064,0.181,2.775-1.009c0.249-0.417,0.826-0.735,1.319-0.892c2.085-0.663,3.939-1.659,5.208-3.371
	c1.273,0.892,2.434,1.705,3.774,2.645c0.974-0.531,2.026-1.104,3.239-1.766c0,0.903,0,1.649,0,2.352
	c1.813,0.949,3.234,0.597,4.531-0.874c0.747-0.847,1.717-1.496,2.586-2.234c0.176,1.028,0.046,1.868-0.255,2.642
	c-0.351,0.904-1.146,0.087-1.644,0.304c-0.599,0.26-1.098,0.749-1.704,1.184c2.842,1.47,3.671,1.384,5.436-0.569
	c0.716-0.793,1.337-1.672,2.23-2.8c0.065,0.797,0.097,1.183,0.127,1.569c0.029,0.361,0.056,0.723,0.089,1.158
	c5.103-3.179,7.887-7.155,7.783-10.203c-1.711,1.392-3.832,3.117-5.875,4.779c1.676-3.519,4.133-6.871,4.424-11.087
	c-0.385,0.22-0.548,0.56-0.778,0.843c-2.009,2.475-4.005,4.96-6.079,7.38c-0.254,0.297-0.938,0.228-1.423,0.328
	c0.145-0.451,0.168-1.01,0.456-1.334c1.375-1.546,2.818-3.031,4.242-4.535c1.292-1.365,2.078-2.996,2.637-4.776
	c0.307-0.979,0.245-1.776-0.538-2.644c-1.386,1.876-2.78,3.531-3.907,5.351c-1.217,1.967-3.318,2.841-4.872,4.37
	c-0.482,0.475-1.034,0.878-1.554,1.314c4.075-4.52,7.085-8.91,8.705-13.126c0.467-1.216,0.8-2.413,0.124-3.669
	c-1.383-0.2-2.009,0.668-2.658,1.646c-1.18,1.778-2.453,3.496-3.703,5.26c-0.553-0.386-0.924-0.646-1.319-0.922
	c1.652-2.34,3.478-4.479,4.089-7.029c-1.115-1.977-2.108-3.735-3.13-5.547c-1.982,1.957-3.017,4.725-5.679,5.912
	c0.287-0.546,0.743-0.941,1.098-1.412c1.529-2.033,3.029-4.087,4.54-6.134c-0.379-2.033-0.756-4.065-1.138-6.098
	c-0.029-0.156-0.097-0.305-0.129-0.461c-0.338-1.621-0.279-3.171,0.8-4.545c0.828-1.054,1.692-2.083,2.448-3.186
	c0.339-0.494,0.633-1.141,0.633-1.718c0-1.186-0.121-2.39-0.357-3.553c-0.397-1.954-0.95-3.876-1.385-5.823
	c-0.349-1.562-0.689-3.082-1.897-4.29c-0.584-0.584-1.25-1.372-0.049-2.388c2.271,2.043,5.032,3.276,7.897,4.341
	c5.663,2.106,6.082,2.21,8.983,1.496c-0.975-0.419-1.81-0.778-2.646-1.137c1.492,0.093,2.834,0.531,4.156,1.025
	c1.42,0.531,2.637-0.019,3.891-0.585c2.927-1.323,2.936-1.305,3.112-2.108c2.463,0.358,4.558-0.545,6.77-1.936
	c-1.529-0.621-2.822-1.146-4.56-1.853c0.642-0.096,0.726-0.135,0.792-0.114c0.378,0.12,0.769,0.22,1.126,0.39
	c2.909,1.383,5.741,1.344,8.704-0.033c3.938-1.829,6.98-4.521,9.078-8.318c-0.331,0.021-0.585,0.147-0.777,0.334
	c-2.132,2.074-4.789,3.234-7.587,3.89c-2.19,0.513-4.609,1.011-6.387-1.21c1.153,0.316,2.292,0.804,3.462,0.895
	c0.984,0.076,2.004-0.311,3.008-0.493c0.021-1.429,1.498-1.477,2.196-2.274C99.626,27.302,100.622,26.605,101.521,25.826z
	 M125.113,99.016c-0.13,0.264-0.259,0.528-0.461,0.94c2.381,0.54,4.57,1.23,6.923,0.569c-0.191-1.313-1.05-0.919-1.668-0.93
	c-1.635-0.029-3.313,0.392-4.845-0.543c0.721-0.198,1.44-0.396,2.185-0.601c-0.822-0.412-1.571-0.787-2.32-1.162
	c2.103,0.733,4.227,0.668,6.344,0.522c1.025-0.071,2.036-0.388,3.061-0.438c3.198-0.158,5.428-1.922,7.585-4.336
	c-0.73-0.211-1.244-0.4-1.775-0.505c-2.936-0.584-5.573-1.9-8.16-3.326c-1.281-0.706-1.306-1.553-0.075-2.253
	c0.463-0.264,1.045-0.321,1.577-0.457c1.03-0.261,2.063-0.511,3.492-0.865c-1.107-0.866-1.832-1.475-2.601-2.024
	c-1.364-0.974-2.751-1.917-4.137-2.862c-0.845-0.576-1.317-1.191-0.247-2.153c1.841,0.637,3.75,1.056,5.483-0.071
	c-0.98-0.663-1.948-1.3-2.896-1.965c-0.914-0.642-1.738-1.458-2.729-1.934c-1.249-0.6-1.447-1.487-1.291-2.807
	c1.672,0,3.284,0,5.317,0c-2.284-1.891-4.248-3.469-6.154-5.114c-1.082-0.934-2.122-1.93-3.066-3
	c-0.285-0.323-0.185-0.986-0.262-1.493c0.489-0.067,1.003-0.263,1.462-0.175c1.051,0.202,2.075,0.542,3.11,0.826
	c0.1-0.157,0.199-0.314,0.299-0.471c-0.449-0.62-0.817-1.326-1.362-1.844c-1.622-1.541-2.484-3.477-3.202-5.536
	c-1.356-3.895-1.93-7.894-1.809-12.006c0.03-1.057,0.004-2.115,0.004-3.172c-0.214-0.03-0.428-0.06-0.643-0.09
	c-1.39,2.332-1.597,5.09-2.337,7.647c-0.765,2.642-1.365,5.331-2.045,8.028c3.856,0.499,4.601,1.297,3.983,4.898
	c-0.659,3.848-1.613,7.648-2.514,11.451c-0.351,1.48-1.426,2.246-2.954,2.372c-0.599,0.05-1.192,0.166-1.868,0.263
	c0.155,3.065,2.088,5.002,3.696,7.095c-0.131,0.107-0.262,0.214-0.394,0.321c-1.118-0.997-2.236-1.993-3.418-3.046
	c-0.515,1.873,0.74,3.011,1.452,4.278c0.696,1.237,1.663,2.32,2.512,3.471c-0.074,0.061-0.147,0.122-0.221,0.183
	c-0.645-0.507-1.289-1.014-1.978-1.556c-0.125,0.531-0.209,0.887-0.293,1.244c-0.936-1.533-0.154-3.553-2.223-4.766
	c-0.214,1.502-0.188,2.901-0.648,4.117c-0.485,1.281-0.12,2.149,0.639,3.025c0.992,1.146,2.049,2.237,3.023,3.396
	c0.345,0.411,0.53,0.955,1.029,1.886c-3.317-0.471-4.595-2.685-6.132-4.458c-1.445,0.572-1.833,0.984-1.388,1.698
	c0.816,1.309,1.659,2.65,2.74,3.729c1.05,1.048,2.411,1.783,3.647,2.666c-0.707-0.069-1.414-0.138-2.301-0.225
	c0.422,0.442,0.674,0.707,0.926,0.971c-3.369-0.445-5.156-2.88-6.956-5.434c-0.663,0.964-1.231,1.79-1.844,2.681
	c0.543,0.403,1.041,0.602,1.267,0.968c1.593,2.574,3.965,3.757,6.886,4.088c0.519,0.059,1.385,0.32,1.442,0.615
	c0.268,1.359,1.371,1.182,2.223,1.362c1.714,0.362,3.446,0.657,5.184,0.882c0.889,0.116,1.805,0.021,2.708,0.021
	c-0.245-0.528-0.528-0.584-0.783-0.701c-0.319-0.146-0.614-0.341-0.92-0.515c3.149,1.34,5.964-0.822,8.959-0.657
	c-0.204-0.25-0.434-0.478-0.605-0.439c-3.221,0.712-6.327-0.068-9.449-0.676c-2.503-0.488-4.862-1.292-6.814-3.02
	c1.657,0.444,3.294,0.997,4.977,1.295C122.652,99.114,123.904,98.982,125.113,99.016z M61.39,40.489
	c-0.125,0.146-0.25,0.292-0.375,0.438c0.093,0.457,0.187,0.913,0.28,1.37c0.523,2.576,1.224,5.13,1.532,7.732
	c0.609,5.144,1.003,10.311,2.233,15.365c1.068,4.39,1.918,8.841,3.186,13.171c1.626,5.554,3.18,11.2,6.914,15.837
	c2.025,2.514,4.036,5.041,6.521,7.166c1.203,1.029,2.689,0.881,3.96,1.5c2.269,1.106,4.725,1.365,7.195,1.425
	c1.371,0.033,2.627-0.301,3.685-1.381c3.002-3.069,6.499-5.667,8.775-9.419c0.701-1.155,1.469-2.274,2.271-3.363
	c2.255-3.06,3.82-6.443,4.558-10.155c0.273-1.382,0.515-3.066-0.036-4.229c-0.5-1.055-0.449-1.948-0.379-2.885
	c0.34-4.533,0.746-9.062,1.204-13.585c0.11-1.096,0.424-2.191,0.785-3.238c1.011-2.926,2.259-5.78,3.091-8.753
	c0.541-1.938,0.52-4.035,0.758-6.136c-1.558-0.203-2.868-0.179-4.044-0.565c-3.149-1.033-6.444-0.996-9.653-1.545
	c-3.6-0.617-7.129-0.486-10.624,0.527c-2.14,0.62-4.263,1.293-6.391,1.949c-1.821,0.561-3.606,1.325-5.467,1.651
	c-3.053,0.534-6.166,0.714-9.233,1.178c-2.862,0.434-5.334-0.222-7.581-2.042C63.59,41.719,62.45,41.153,61.39,40.489z
	 M120.923,58.345c-3.29-1.413-4.812-0.595-5.243,2.528c-0.164,1.183-0.406,2.356-0.638,3.529c-0.518,2.626-1.115,5.245-0.519,8.072
	c0.538-0.172,0.992-0.461,1.424-0.43c2.267,0.161,2.824-1.251,2.985-3.088c0.034-0.396,0.079-0.794,0.159-1.183
	c0.365-1.776,0.763-3.546,1.112-5.325C120.476,61.063,120.693,59.667,120.923,58.345z M61.768,56.349
	c-1.825,1.615-2.441,3.207-2.171,5.136c0.188,1.339,0.321,2.703,0.686,3.997c0.642,2.275,1.399,4.52,2.195,6.747
	c0.337,0.943,1.049,1.524,2.415,1.289C63.86,67.843,62.848,62.28,61.768,56.349z M102.223,101.048
	c-1.959,2.665-1.86,3.092,0.853,4.437c0.855,0.424,1.709,0.864,2.599,1.203c1.993,0.757,4.009,0.71,6.389,0.026
	C108.563,104.873,104.929,103.933,102.223,101.048z M118.876,104.506c-0.461-0.54-0.581-0.822-0.746-0.851
	c-1.405-0.247-2.733-0.569-3.805-1.664c-0.312-0.318-1.051-0.217-2.003-0.376C114.165,103.851,116.157,104.472,118.876,104.506z
	 M120.262,106.082c0.022-0.185,0.046-0.37,0.068-0.555c-0.689,0.047-1.38,0.094-2.069,0.142c0.017,0.209,0.032,0.418,0.049,0.628
	C118.96,106.225,119.61,106.154,120.262,106.082z M77.424,24.238c0.001-0.114,0.002-0.228,0.004-0.342c-0.922,0-1.844,0-2.767,0
	c0.003,0.114,0.007,0.229,0.01,0.342C75.589,24.238,76.507,24.238,77.424,24.238z M83.265,24.387c0.003,0.097,0.006,0.193,0.01,0.29
	c0.792,0,1.585,0,2.378,0c-0.004-0.097-0.008-0.193-0.012-0.29C84.849,24.387,84.057,24.387,83.265,24.387z M60.993,103.606
	c-0.108-0.135-0.215-0.27-0.323-0.405c-0.439,0.464-0.879,0.929-1.319,1.393c0.069,0.076,0.137,0.152,0.206,0.228
	C60.035,104.417,60.514,104.011,60.993,103.606z M134.092,28.729c-0.122-0.135-0.245-0.27-0.367-0.405
	c-0.356,0.334-0.712,0.668-1.068,1.003c0.096,0.106,0.19,0.213,0.286,0.32C133.325,29.341,133.709,29.035,134.092,28.729z"/>
<path fill-rule="evenodd" clip-rule="evenodd" fill="#FEE5D2" d="M61.39,40.489c1.06,0.664,2.2,1.23,3.164,2.012
	c2.247,1.82,4.718,2.475,7.581,2.042c3.067-0.464,6.18-0.644,9.233-1.178c1.861-0.326,3.646-1.09,5.467-1.651
	c2.128-0.656,4.251-1.329,6.391-1.949c3.495-1.013,7.024-1.144,10.624-0.527c3.209,0.549,6.504,0.512,9.653,1.545
	c1.176,0.386,2.486,0.362,4.044,0.565c-0.238,2.101-0.217,4.198-0.758,6.136c-0.832,2.973-2.08,5.828-3.091,8.753
	c-0.361,1.047-0.675,2.142-0.785,3.238c-0.458,4.523-0.864,9.052-1.204,13.585c-0.07,0.937-0.121,1.83,0.379,2.885
	c0.551,1.163,0.31,2.847,0.036,4.229c-0.737,3.712-2.303,7.096-4.558,10.155c-0.802,1.088-1.569,2.208-2.271,3.363
	c-2.276,3.752-5.773,6.351-8.775,9.419c-1.058,1.08-2.313,1.415-3.685,1.381c-2.471-0.06-4.927-0.319-7.195-1.425
	c-1.271-0.62-2.757-0.472-3.96-1.5c-2.485-2.125-4.497-4.652-6.521-7.166c-3.734-4.637-5.287-10.284-6.914-15.837
	c-1.268-4.33-2.118-8.782-3.186-13.171c-1.23-5.054-1.624-10.221-2.233-15.365c-0.308-2.602-1.008-5.156-1.532-7.732
	c-0.093-0.457-0.187-0.913-0.28-1.37C61.14,40.781,61.265,40.635,61.39,40.489z M108.576,59.77c-2.717-1.269-4.991-2.33-7.471-3.488
	c3.536-1.955,6.796-3.967,10.547-1.019c0.701,0.551,1.391,0.296,2.287-0.01c-1.127-1.4-2.145-2.604-3.713-2.831
	c-2.461-0.357-4.915-0.349-7.201,0.982c-0.884,0.514-1.901,0.863-2.903,1.087c-0.772,0.173-1.614,0.035-2.371,0.035
	c0.202-0.708,0.332-1.163,0.571-2.002c-1.546,0.768-2.601,1.496-3.148,2.672c-1.854,3.981-3.82,7.952-2.73,12.589
	c0.144,0.61,0.019,1.277,0.096,1.909c0.144,1.186,0.279,2.38,0.557,3.537c0.088,0.367,0.616,0.629,1.106,1.094
	c-0.268-3.302-0.395-6.235-0.774-9.135c-0.322-2.459,0.468-4.514,1.726-6.674c0.437,0.538,0.793,0.977,1.051,1.295
	c1.287-0.352,2.393-0.655,3.682-1.008c-0.194,1.001-0.328,1.688-0.465,2.389c-0.638-0.031-1.241-0.061-2.16-0.106
	c0.402,0.472,0.516,0.685,0.693,0.8c2.056,1.339,4.136,1.96,6.409,0.404C105.616,61.433,106.97,60.723,108.576,59.77z
	 M82.964,58.092c0.03-0.557,0.062-0.647,0.033-0.71c-0.064-0.142-0.126-0.335-0.246-0.396c-2.733-1.4-5.523-2.382-8.648-1.333
	c-1.114,0.374-2.275,0.604-3.411,0.916c-0.522,0.144-1.033,0.326-1.603,0.508c1.525,1.665,1.525,1.665,4.745,1.091
	c0.103,0.317,0.208,0.645,0.348,1.075c-0.94-0.156-1.653-0.275-2.688-0.447c2.443,2.998,8.002,3.345,10.222,0.745
	c-1.029-0.112-1.919-0.209-2.91-0.317c0.109-0.583,0.205-1.095,0.315-1.683C80.461,57.732,81.679,57.908,82.964,58.092z
	 M85.635,55.647c-0.664-1.175-1.607-1.931-2.875-2.349c-1.589-0.524-3.133-1.204-4.746-1.629c-2.295-0.605-4.625-1.378-6.958-1.44
	c-1.853-0.049-3.73,0.859-5.744,1.38c0.992,1.496,2.273,1.316,3.307,0.852c2.854-1.28,5.485-0.54,8.071,0.638
	c1.95,0.889,3.851,1.899,5.71,2.965C83.607,56.757,84.605,56.809,85.635,55.647z M92.84,77.191c-0.877,0.842-1.758,1.87-3.25,1.114
	c-0.107-0.054-0.344-0.001-0.438,0.088c-1.485,1.414-2.191,0.054-2.995-0.852c-0.366-0.413-0.629-0.916-0.967-1.356
	c-0.437-0.569-0.888-1.25-1.742-0.852c-0.876,0.407-0.966,1.164-0.66,1.986c0.952,0.693,2.445-0.239,3.138,1.178
	c0.425,0.867,1.013,1.6,2.173,1.576c1.013-0.021,2.296,0.491,2.979,0.04c1.051-0.695,1.999-0.668,3.075-0.611
	c0.881,0.046,1.086-0.432,0.939-1.025C94.337,78.046,93.707,77.687,92.84,77.191z M81.088,87.043
	c0.108,0.15,0.216,0.299,0.323,0.449c0.666-0.189,1.326-0.514,1.997-0.538c1.167-0.042,2.431-0.147,3.487,0.235
	c1.244,0.449,2.425,0.567,3.711,0.565c1.564-0.002,3.128,0.232,4.694,0.319c0.233,0.013,0.481-0.224,0.861-0.414
	c-1.13-1.109-2.278-1.296-3.609-1.261c-1.554,0.041-3.299,0.229-4.63-0.377c-2.125-0.966-3.991-0.422-5.945,0.109
	C81.625,86.228,81.381,86.729,81.088,87.043z M90.793,89.968c-1.93,0.041-3.78-1.287-5.712-0.331
	C86.948,90.514,88.806,91.473,90.793,89.968z"/>
<path fill-rule="evenodd" clip-rule="evenodd" fill="#FEE75E" d="M90.183,30.062c1.777,2.222,4.196,1.724,6.387,1.21
	c2.798-0.656,5.455-1.816,7.587-3.89c0.192-0.188,0.446-0.313,0.777-0.334c-2.098,3.798-5.141,6.489-9.078,8.318
	c-2.963,1.376-5.795,1.416-8.704,0.033c-0.357-0.169-0.748-0.27-1.126-0.39c-0.066-0.021-0.15,0.018-0.792,0.114
	c1.737,0.706,3.03,1.231,4.56,1.853c-2.212,1.391-4.307,2.294-6.77,1.936c-0.176,0.803-0.185,0.785-3.112,2.108
	c-1.254,0.566-2.47,1.116-3.891,0.585c-1.321-0.494-2.664-0.932-4.156-1.025c0.836,0.359,1.671,0.718,2.646,1.137
	c-2.902,0.715-3.32,0.61-8.983-1.496c-2.865-1.065-5.625-2.298-7.897-4.341c-1.201,1.016-0.535,1.804,0.049,2.388
	c1.208,1.208,1.548,2.728,1.897,4.29c0.435,1.947,0.988,3.869,1.385,5.823c0.236,1.163,0.357,2.367,0.357,3.553
	c0,0.577-0.294,1.224-0.633,1.718c-0.756,1.103-1.621,2.132-2.448,3.186c-1.079,1.374-1.138,2.924-0.8,4.545
	c0.032,0.156,0.1,0.305,0.129,0.461c0.382,2.032,0.759,4.065,1.138,6.098c-1.511,2.047-3.011,4.102-4.54,6.134
	c-0.355,0.471-0.812,0.866-1.098,1.412c2.662-1.187,3.697-3.955,5.679-5.912c1.022,1.812,2.015,3.57,3.13,5.547
	c-0.611,2.551-2.438,4.689-4.089,7.029c0.395,0.276,0.767,0.536,1.319,0.922c1.25-1.765,2.523-3.482,3.703-5.26
	c0.649-0.978,1.275-1.846,2.658-1.646c0.676,1.257,0.343,2.453-0.124,3.669c-1.62,4.217-4.63,8.607-8.705,13.126
	c0.52-0.436,1.072-0.84,1.554-1.314c1.554-1.529,3.655-2.403,4.872-4.37c1.126-1.82,2.521-3.475,3.907-5.351
	c0.783,0.868,0.845,1.665,0.538,2.644c-0.559,1.781-1.344,3.411-2.637,4.776c-1.423,1.503-2.867,2.988-4.242,4.535
	c-0.288,0.324-0.311,0.883-0.456,1.334c0.485-0.101,1.168-0.031,1.423-0.328c2.073-2.419,4.07-4.905,6.079-7.38
	c0.23-0.284,0.393-0.623,0.778-0.843c-0.291,4.216-2.748,7.568-4.424,11.087c2.043-1.662,4.164-3.387,5.875-4.779
	c0.104,3.047-2.681,7.024-7.783,10.203c-0.034-0.435-0.061-0.797-0.089-1.158c-0.03-0.386-0.062-0.771-0.127-1.569
	c-0.893,1.128-1.514,2.007-2.23,2.8c-1.765,1.954-2.593,2.04-5.436,0.569c0.605-0.435,1.105-0.924,1.704-1.184
	c0.498-0.216,1.293,0.6,1.644-0.304c0.301-0.774,0.431-1.614,0.255-2.642c-0.87,0.738-1.84,1.387-2.586,2.234
	c-1.296,1.471-2.717,1.823-4.531,0.874c0-0.703,0-1.449,0-2.352c-1.213,0.661-2.265,1.235-3.239,1.766
	c-1.341-0.94-2.501-1.753-3.774-2.645c-1.268,1.712-3.123,2.708-5.208,3.371c-0.493,0.157-1.07,0.475-1.319,0.892
	c-0.711,1.19-1.716,1.111-2.775,1.009c-0.158-0.185-0.316-0.37-0.474-0.555c0.426-0.211,0.902-0.359,1.271-0.645
	c3.204-2.484,3.812-6.113,4.006-9.788c0.044-0.834-1.076-1.729-1.839-2.863c-1.87,2.664-3.272,5.286-6.146,6.28
	c-1.31,0.453-2.731,0.583-4.189,0.628c1.303-1.667,3.624-1.729,4.806-3.582c1.083-1.697,2.572-3.134,3.733-4.844
	c-1.517,0.01-2.178,1.208-2.652,1.729c-1.104-0.051-1.792-0.203-2.432-0.091c-2.543,0.446-5.039,0.423-7.876-0.46
	c1.03-1.071,1.754-2.132,2.745-2.792c2.343-1.561,3.189-4.1,4.509-6.337c0.354-0.599,0.624-1.25,1.002-1.831
	c0.472-0.725,0.312-1.289-0.244-1.932c-1.54,3.462-1.891,3.704-5.602,3.116c-1.323-0.209-2.605-0.718-3.88-1.164
	c-0.685-0.239-1.395-0.614-1.012-1.566c0.307-0.764,1.281-0.807,2.193-0.108c0.178,0.136,0.276,0.378,0.608,0.854
	c-0.131-1.651,0.876-1.724,1.871-1.983c0.873-0.227,1.672-0.74,2.381-1.447c-1.277,0.286-2.555,0.572-4.182,0.936
	c0.885-2.374-1.66-2.516-2.202-4.202c2.546,0.922,4.977,1.216,7.207-0.283c1.111-0.748,2.016-1.795,3.071-2.634
	c1.18-0.937,2.425-1.792,3.615-2.662c0.388,0.354,0.659,0.6,1.078,0.982c2.913-4.084,6.798-7.174,8.948-11.668
	c0.68-1.421,1.86-2.596,2.631-3.983c2.207-3.969,4.298-8.001,6.48-11.984c1.569-2.864,3.128-5.74,4.847-8.515
	c1.37-2.213,3.713-3.328,5.914-4.605c-1.664,2.671-5.052,4.018-5.635,7.781c0.455-0.363,0.82-0.556,1.044-0.854
	c0.808-1.072,1.517-2.221,2.362-3.26c0.655-0.806,1.509-1.123,2.307-0.277c4.092-4.021,8.711-5.865,14.381-5.066
	c3.051,0.43,6.168,0.396,9.255,0.569c0.871,0.049,1.743,0.094,2.732,0.147c0.115-0.261,0.269-0.609,0.434-0.985
	c-1.039-0.42-1.975-0.798-3.242-1.311c1.271-0.939,2.357-1.659,3.345-2.496c1.018-0.863,1.938-1.84,3.188-3.042
	c0.299,2.802-0.786,4.9-1.598,7.171c1.89,0.848,3.062-0.745,4.526-1.077c-3.782,3.576-8.122,4.488-13.04,2.686
	c-0.24,0.458-0.486,0.927-0.835,1.595c2.037,0.276,4.101,0.051,5.765,1.321C89.783,29.85,89.982,29.956,90.183,30.062z
	 M40.243,84.207c0.893-0.392,1.786-0.784,2.678-1.175c0.844-0.577,1.688-1.153,2.531-1.73c-1.085,0.268-2.216,0.49-2.5,1.753
	c-0.883,0.406-1.766,0.812-2.643,1.223c-0.565,0.331-1.13,0.661-1.696,0.991c0.091,0.126,0.182,0.252,0.273,0.378
	C39.369,85.201,40.357,85.35,40.243,84.207z M43.246,62.745c0.715-0.49,1.43-0.98,2.146-1.47c-0.144-0.158-0.286-0.317-0.43-0.476
	c-0.557,0.665-1.115,1.33-1.673,1.994c-1.05,0.105-1.585,0.836-1.857,1.854C42.036,64.013,42.641,63.379,43.246,62.745z
	 M75.269,28.762c2.294,1.229,4.587,2.458,6.881,3.688c-0.906-0.932-1.872-1.845-2.987-2.508c-1.189-0.707-2.406-1.591-3.961-1.122
	c-2.864-1.4-5.536-0.289-8.162,0.738c-0.56,0.219-1.264,0.893-0.909,2.122c0.482-0.475,0.772-0.796,1.099-1.073
	c0.466-0.396,0.92-1.01,1.448-1.092C70.857,29.176,73.062,29.005,75.269,28.762z M50.275,56.326
	c3.456-2.822,4.997-6.931,7.02-10.728C54.335,48.744,53.279,53.193,50.275,56.326z M36.603,86.923
	c2.206,1.472,4.433,0.629,6.606,0.188c2.181-0.442,4.362-1.008,6.179-2.454C45.25,86.142,41.188,87.907,36.603,86.923z
	 M50.099,65.64c2.635-1.976,4.994-5.35,5.388-7.222c-0.146,0-0.377-0.06-0.424,0.008C53.397,60.824,51.749,63.233,50.099,65.64z
	 M47.361,79.682c0.112,0.113,0.224,0.225,0.335,0.338c1.515-1.143,3.03-2.285,4.545-3.428c-0.097-0.131-0.193-0.262-0.29-0.394
	C50.421,77.359,48.892,78.521,47.361,79.682z M72.77,35.845c-1.064-1.669-2.147-2.554-3.572-2.417
	C70.735,34.19,71.145,35.618,72.77,35.845z M62.858,34.648c-0.124,0.155-0.249,0.309-0.373,0.463
	c0.92,0.719,1.841,1.438,2.761,2.158c-0.486-0.929-1.148-1.644-1.834-2.336C63.273,34.793,63.045,34.741,62.858,34.648z
	 M46.85,59.462c0.09,0.105,0.18,0.21,0.271,0.315c0.494-0.468,0.987-0.935,1.48-1.402c-0.08-0.086-0.16-0.171-0.239-0.256
	C47.857,58.566,47.354,59.015,46.85,59.462z M45.408,93.913c-0.07-0.116-0.14-0.231-0.21-0.347
	c-0.525,0.321-1.051,0.642-1.576,0.963c0.063,0.101,0.126,0.201,0.189,0.302C44.343,94.524,44.875,94.219,45.408,93.913z
	 M51.73,89.088c0.063,0.098,0.127,0.197,0.191,0.295c0.399-0.27,0.798-0.54,1.198-0.81c-0.065-0.098-0.13-0.196-0.195-0.294
	C52.526,88.549,52.128,88.818,51.73,89.088z M40.772,74.687c-0.065-0.052-0.13-0.104-0.194-0.156
	c-0.237,0.282-0.475,0.564-0.711,0.846c0.067,0.056,0.134,0.112,0.201,0.168C40.302,75.258,40.537,74.972,40.772,74.687z
	 M68.752,38.72c-0.083,0.137-0.165,0.274-0.248,0.412c0.456,0.139,0.911,0.277,1.367,0.416c0.02-0.065,0.039-0.131,0.058-0.197
	C69.537,39.14,69.145,38.93,68.752,38.72z"/>
<path fill-rule="evenodd" clip-rule="evenodd" fill="#FEE75E" d="M116.553,97.676c-1.226-0.873-2.587-1.607-3.637-2.655
	c-1.081-1.079-1.924-2.42-2.74-3.729c-0.445-0.714-0.058-1.126,1.388-1.698c1.537,1.774,2.814,3.988,6.132,4.458
	c-0.499-0.931-0.685-1.475-1.029-1.886c-0.975-1.16-2.031-2.25-3.023-3.396c-0.759-0.876-1.124-1.745-0.639-3.025
	c0.461-1.216,0.435-2.615,0.648-4.117c2.068,1.212,1.287,3.233,2.223,4.766c0.084-0.357,0.168-0.713,0.293-1.244
	c0.688,0.542,1.333,1.049,1.978,1.556c0.073-0.061,0.146-0.122,0.221-0.183c-0.849-1.151-1.815-2.234-2.512-3.471
	c-0.712-1.267-1.967-2.405-1.452-4.278c1.182,1.053,2.3,2.049,3.418,3.046c0.132-0.107,0.263-0.214,0.394-0.321
	c-1.608-2.093-3.541-4.03-3.696-7.095c0.676-0.097,1.27-0.213,1.868-0.263c1.528-0.126,2.604-0.892,2.954-2.372
	c0.9-3.803,1.854-7.603,2.514-11.451c0.617-3.601-0.127-4.4-3.983-4.898c0.68-2.697,1.28-5.386,2.045-8.028
	c0.74-2.557,0.947-5.315,2.337-7.647c0.215,0.03,0.429,0.06,0.643,0.09c0,1.058,0.026,2.116-0.004,3.172
	c-0.121,4.112,0.452,8.111,1.809,12.006c0.718,2.059,1.58,3.995,3.202,5.536c0.545,0.519,0.913,1.224,1.362,1.844
	c-0.1,0.157-0.199,0.314-0.299,0.471c-1.035-0.284-2.06-0.624-3.11-0.826c-0.459-0.088-0.973,0.108-1.462,0.175
	c0.077,0.507-0.023,1.17,0.262,1.493c0.944,1.07,1.984,2.066,3.066,3c1.906,1.645,3.87,3.223,6.154,5.114c-2.033,0-3.646,0-5.317,0
	c-0.156,1.319,0.042,2.207,1.291,2.807c0.99,0.476,1.814,1.292,2.729,1.934c0.948,0.665,1.916,1.302,2.896,1.965
	c-1.733,1.127-3.643,0.708-5.483,0.071c-1.07,0.962-0.598,1.578,0.247,2.153c1.386,0.945,2.772,1.888,4.137,2.862
	c0.769,0.549,1.493,1.158,2.601,2.024c-1.429,0.354-2.462,0.604-3.492,0.865c-0.532,0.135-1.114,0.193-1.577,0.457
	c-1.23,0.7-1.206,1.547,0.075,2.253c2.587,1.426,5.225,2.741,8.16,3.326c0.531,0.105,1.045,0.294,1.775,0.505
	c-2.157,2.414-4.387,4.179-7.585,4.336c-1.024,0.05-2.035,0.367-3.061,0.438c-2.117,0.146-4.241,0.211-6.344-0.522
	c0.749,0.375,1.498,0.75,2.32,1.162c-0.744,0.205-1.464,0.402-2.185,0.601l0.066-0.049c-1.225-0.021-2.477,0.11-3.668-0.101
	c-1.683-0.298-3.319-0.851-4.977-1.295L116.553,97.676z M118.882,79.383c-0.959,0.979-0.444,1.495,0.298,1.98
	C119.094,80.792,119.008,80.221,118.882,79.383z M122.588,85.073c-0.06,0.049-0.119,0.099-0.178,0.147
	c0.25,0.204,0.501,0.408,0.752,0.611c0.036-0.045,0.072-0.091,0.107-0.136C123.042,85.488,122.815,85.28,122.588,85.073z"/>
<path fill-rule="evenodd" clip-rule="evenodd" fill="#FEE75E" d="M110.826,31.156c0.777-0.645,1.599-1.245,2.325-1.943
	c3.096-2.974,6.213-5.918,9.843-8.375c0.342,0.404,0.613,0.726,0.914,1.081c0.744-0.514,1.419-0.98,2.094-1.446
	c0.098,0.087,0.193,0.175,0.29,0.263c-0.415,0.667-0.831,1.335-1.443,2.316c0.734-0.274,1.161-0.434,1.901-0.71
	c-0.643,0.912-1.104,1.567-1.578,2.241c0.896,0.533,1.356,0.043,1.681-0.508c0.642-1.091,1.617-1.659,2.727-2.189
	c1.28-0.613,2.443-1.471,3.623-2.2c-0.591,3.531-4.179,6.623-7.63,6.521c-0.408,0.026-0.816,0.052-1.224,0.078
	c-1.698,1.299-3.403,2.589-5.084,3.91c-0.149,0.118-0.144,0.435-0.21,0.66c-1.501,0.864-3.002,1.729-4.503,2.593
	c-1.173,0.395-2.346,0.79-3.519,1.185c0.455-0.972,2.035-1.038,1.972-2.426c0.495-0.083,1.05-0.06,1.454-0.295
	c0.734-0.428,1.38-1.009,2.062-1.526c0.91-1.344,1.844-2.672,2.707-4.044c0.156-0.248,0.022-0.678,0.022-1.521
	c-1.123,1.897-1.966,3.278-2.749,4.69c-0.125,0.225,0.013,0.596,0.026,0.895c-0.485,0.12-1.016,0.154-1.436,0.389
	c-0.733,0.409-1.397,0.94-2.091,1.421c-0.094,0.124-0.162,0.313-0.285,0.362c-2.36,0.931-4.728,1.846-6.914,2.694
	c1.643-1.352,3.375-2.778,5.108-4.205C110.911,31.063,110.826,31.156,110.826,31.156z"/>
<path fill-rule="evenodd" clip-rule="evenodd" fill="#FEE75E" d="M124.349,26.283c0.407-0.026,0.815-0.052,1.224-0.078
	c0.854,1.208,1.874,1.307,3.03,0.443c0.694-0.519,1.348-1.103,2.088-1.542c0.495-0.294,1.11-0.386,1.674-0.568
	c0.002,0,0.012,0,0.013,0c-0.758,0.664-1.517,1.328-2.211,1.935c1.298,0.28,2.494,0.538,3.69,0.796
	c0.01,0.133,0.02,0.266,0.029,0.399c-1.296,0.464-2.592,0.929-4.361,1.563c0.911,0,1.333,0,1.784,0
	c-0.186,0.499-2.478,3.503-3.145,3.981c-1.546,1.108-3.061,2.297-4.732,3.178c-1.652,0.871-3.483,1.403-5.43,1.688
	c0.82-0.748,1.641-1.497,2.462-2.245c3.436-1.19,5.429-3.929,7.262-6.82c0.113-0.178-0.136-0.586-0.363-1.439
	c-1.27,3.395-3.4,5.351-5.74,7.136c-0.423,0.323-0.742,0.781-1.109,1.178c-1.579,0.631-3.158,1.262-5.262,2.103
	c1.121-1.936,3.215-2.245,3.456-4.097c0.99-0.776,1.98-1.552,2.972-2.328C123.34,30.639,124.373,28.595,124.349,26.283z"/>
<path fill-rule="evenodd" clip-rule="evenodd" fill="#FEE75E" d="M116.484,97.607c1.952,1.727,4.312,2.532,6.814,3.02
	c3.122,0.608,6.229,1.388,9.449,0.676c0.172-0.038,0.401,0.189,0.605,0.439c-2.995-0.165-5.81,1.997-8.959,0.657
	c0.306,0.174,0.601,0.369,0.92,0.515c0.255,0.117,0.538,0.172,0.783,0.701c-0.903,0-1.819,0.095-2.708-0.021
	c-1.737-0.225-3.47-0.52-5.184-0.882c-0.852-0.18-1.955-0.003-2.223-1.362c-0.058-0.294-0.924-0.556-1.442-0.615
	c-2.921-0.331-5.293-1.514-6.886-4.088c-0.226-0.366-0.724-0.565-1.267-0.968c0.612-0.891,1.181-1.717,1.844-2.681
	c1.8,2.554,3.587,4.989,6.956,5.434c-0.252-0.265-0.504-0.529-0.926-0.971c0.887,0.087,1.594,0.156,2.296,0.22
	C116.553,97.676,116.484,97.607,116.484,97.607z"/>
<path fill-rule="evenodd" clip-rule="evenodd" fill="#FEE5D2" d="M120.923,58.345c-0.229,1.323-0.447,2.719-0.719,4.104
	c-0.35,1.779-0.747,3.548-1.112,5.325c-0.08,0.389-0.125,0.787-0.159,1.183c-0.161,1.837-0.719,3.249-2.985,3.088
	c-0.432-0.031-0.886,0.258-1.424,0.43c-0.597-2.827,0.001-5.446,0.519-8.072c0.231-1.173,0.474-2.346,0.638-3.529
	C116.111,57.75,117.633,56.932,120.923,58.345z"/>
<path fill-rule="evenodd" clip-rule="evenodd" fill="#FEE75E" d="M108.11,28.632c-0.738,0.202-1.477,0.404-2.646,0.724
	c0.596-0.856,0.995-1.32,1.271-1.848c0.619-1.181,1.064-2.469,1.792-3.573c0.769-1.165,1.684-2.278,2.723-3.204
	c0.74-0.66,1.791-0.97,3.067-1.623c-0.69,1.435-0.848,2.634,0.358,3.697c0.956-2.673,4.06-2.375,5.633-4.282
	c-0.554,2.493-2.065,4.22-4.064,5.527c-1.329,0.869-2.786,1.542-4.127,2.394c-0.709,0.45-1.291,1.098-1.931,1.656
	C109.494,28.277,108.803,28.455,108.11,28.632z"/>
<path fill-rule="evenodd" clip-rule="evenodd" fill="#FEE5D2" d="M61.768,56.349c1.08,5.931,2.092,11.494,3.125,17.168
	c-1.366,0.235-2.078-0.346-2.415-1.289c-0.795-2.227-1.553-4.472-2.195-6.747c-0.365-1.294-0.499-2.657-0.686-3.997
	C59.327,59.555,59.943,57.963,61.768,56.349z"/>
<path fill-rule="evenodd" clip-rule="evenodd" fill="#FEE75E" d="M90.183,30.062c-0.2-0.106-0.399-0.212-0.6-0.318
	c-0.17-0.263-0.34-0.526-0.685-1.06c5.7-0.643,10.038-3.468,13.69-8.222c0.426,2.467,0.193,4.084-1.144,5.442
	c0.001,0,0.076-0.079,0.076-0.079c-0.899,0.779-1.896,1.476-2.673,2.363c-0.698,0.798-2.176,0.846-2.196,2.274
	c-1.004,0.182-2.023,0.568-3.008,0.493C92.475,30.866,91.336,30.378,90.183,30.062z"/>
<path fill-rule="evenodd" clip-rule="evenodd" fill="#FEE75E" d="M121.679,31.565c-0.991,0.776-1.981,1.552-2.972,2.328
	c-2.027,0.896-4.051,1.803-6.084,2.688c-1.39,0.604-2.805,1.075-4.486,0.575c1.035-0.911,1.972-1.734,2.907-2.556
	c0.282,0.143,0.66,0.478,0.829,0.394c0.921-0.458,1.791-1.021,2.679-1.547c1.501-0.864,3.002-1.729,4.503-2.593
	c1.341-0.638,2.416-1.828,4.399-2.234C122.705,29.862,122.191,30.713,121.679,31.565z"/>
<path fill-rule="evenodd" clip-rule="evenodd" fill="#FEE75E" d="M101.521,25.826c0,0-0.075,0.078-0.076,0.079
	c2.004-0.958,2.614-2.133,2.172-4.912c-0.201-1.26-0.072-2.187,1.112-2.926c0.459,0.272,0.956,0.567,1.739,1.031
	c-0.587,1.686-1.193,3.431-1.801,5.176c0.149,0.073,0.299,0.146,0.448,0.218c0.392-0.708,0.782-1.415,1.234-2.232
	c0.393,0.129,0.817,0.268,1.594,0.523c-3.054,2.896-5.688,5.836-9.89,7.363C99.359,28.52,100.44,27.173,101.521,25.826z"/>
<path fill-rule="evenodd" clip-rule="evenodd" fill="#FEE75E" d="M102.223,101.048c2.706,2.884,6.341,3.825,9.84,5.666
	c-2.38,0.684-4.396,0.731-6.389-0.026c-0.89-0.338-1.743-0.779-2.599-1.203C100.362,104.141,100.264,103.713,102.223,101.048z"/>
<path fill-rule="evenodd" clip-rule="evenodd" fill="#FEE75E" d="M108.11,28.632c0.692-0.177,1.384-0.354,2.076-0.532
	c0.884-0.448,1.768-0.895,2.707-1.371c0.373,1.254-1.683,1.264-1.031,2.479c-0.211-0.107-0.534-0.354-0.619-0.288
	c-0.478,0.367-0.897,0.809-1.337,1.225l0.096-0.082c-0.672,0.507-1.343,1.015-2.015,1.521l0.103-0.078
	c-1.794,1.007-3.574,2.041-5.389,3.011c-0.888,0.474-1.838,0.83-2.993,0.927c1.241-1.387,2.433-2.825,3.75-4.135
	c0.537-0.534,1.354-0.783,2.038-1.172C106.37,29.641,107.239,29.134,108.11,28.632z"/>
<path fill-rule="evenodd" clip-rule="evenodd" fill="#FEE75E" d="M112.332,104.494c0.727,0.262,1.47,0.483,2.173,0.796
	c0.764,0.339,1.489,0.764,2.143,1.299c-5.954,0-9.743-3.094-12.021-8.519c0.25-0.338,0.566-0.767,0.854-1.158
	c0.242,0.031,0.432-0.002,0.525,0.077c0.682,0.576,1.178,1.208,1.182,2.212c0.001,0.434,0.518,0.865,0.801,1.298
	C108.636,102.702,110.412,103.677,112.332,104.494z"/>
<path fill-rule="evenodd" clip-rule="evenodd" fill="#FEE75E" d="M112.332,104.494c-1.92-0.817-3.696-1.792-4.344-3.994
	c-0.056-0.297-0.11-0.594-0.22-1.183c1.286,0.75,2.995,1.175,3.245,2.028c0.376,1.284,1.586,1.73,1.961,2.899
	C112.752,104.331,112.542,104.413,112.332,104.494z"/>
<path fill-rule="evenodd" clip-rule="evenodd" fill="#FEE75E" d="M118.876,104.506c-2.719-0.034-4.711-0.655-6.554-2.892
	c0.952,0.16,1.691,0.059,2.003,0.376c1.071,1.095,2.399,1.417,3.805,1.664C118.295,103.684,118.415,103.967,118.876,104.506z"/>
<path fill-rule="evenodd" clip-rule="evenodd" fill="#FEE75E" d="M125.062,99.053c1.531,0.935,3.21,0.514,4.845,0.543
	c0.618,0.011,1.477-0.383,1.668,0.93c-2.353,0.661-4.542-0.03-6.923-0.569c0.202-0.412,0.331-0.676,0.469-0.947
	C125.129,99.003,125.062,99.053,125.062,99.053z"/>
<path fill-rule="evenodd" clip-rule="evenodd" fill="#FEE75E" d="M111.696,29.459c-0.289,0.564-0.579,1.13-0.869,1.695
	c-0.001,0.001,0.084-0.092,0.083-0.091c-1.035,0.62-2.07,1.239-3.597,2.153c0.406-0.895,0.592-1.303,0.776-1.711l-0.103,0.078
	c0.672-0.507,1.343-1.014,2.015-1.521l-0.096,0.082C110.503,29.917,111.1,29.688,111.696,29.459z"/>
<path fill-rule="evenodd" clip-rule="evenodd" d="M114.552,33.446c-0.888,0.527-1.758,1.089-2.679,1.547
	c-0.169,0.084-0.547-0.25-0.829-0.394c0-0.001-0.009,0.029-0.01,0.03C112.206,34.236,113.379,33.841,114.552,33.446z"/>
<path fill-rule="evenodd" clip-rule="evenodd" fill="#FEE75E" d="M120.262,106.082c-0.651,0.072-1.302,0.143-1.952,0.214
	c-0.017-0.209-0.032-0.418-0.049-0.628c0.689-0.047,1.38-0.094,2.069-0.142C120.308,105.712,120.284,105.897,120.262,106.082z"/>
<path fill-rule="evenodd" clip-rule="evenodd" fill="#FFFFFF" d="M77.424,24.238c-0.917,0-1.835,0-2.752,0
	c-0.003-0.114-0.007-0.228-0.01-0.342c0.922,0,1.844,0,2.767,0C77.427,24.01,77.426,24.125,77.424,24.238z"/>
<path fill-rule="evenodd" clip-rule="evenodd" fill="#FFFFFF" d="M83.265,24.387c0.792,0,1.584,0,2.376,0
	c0.004,0.097,0.008,0.193,0.012,0.29c-0.793,0-1.585,0-2.378,0C83.271,24.581,83.268,24.484,83.265,24.387z"/>
<path fill-rule="evenodd" clip-rule="evenodd" d="M111.696,29.459c-0.597,0.229-1.193,0.457-1.79,0.685
	c0.439-0.416,0.859-0.858,1.337-1.225c0.085-0.065,0.408,0.181,0.619,0.288C111.786,29.277,111.731,29.359,111.696,29.459z"/>
<path fill-rule="evenodd" clip-rule="evenodd" fill="#FFFFFF" d="M60.993,103.606c-0.479,0.405-0.958,0.811-1.437,1.216
	c-0.068-0.076-0.137-0.152-0.206-0.228c0.44-0.464,0.879-0.929,1.319-1.393C60.777,103.336,60.885,103.471,60.993,103.606z"/>
<path fill-rule="evenodd" clip-rule="evenodd" fill="#FEE75E" d="M134.092,28.729c-0.383,0.306-0.767,0.612-1.149,0.917
	c-0.096-0.106-0.19-0.213-0.286-0.32c0.356-0.334,0.712-0.668,1.068-1.003C133.847,28.459,133.97,28.594,134.092,28.729z"/>
<path fill-rule="evenodd" clip-rule="evenodd" d="M108.576,59.77c-1.606,0.953-2.96,1.663-4.213,2.521
	c-2.273,1.556-4.354,0.935-6.409-0.404c-0.178-0.115-0.291-0.328-0.693-0.8c0.919,0.045,1.522,0.075,2.16,0.106
	c0.137-0.701,0.271-1.387,0.465-2.389c-1.289,0.353-2.395,0.656-3.682,1.008c-0.258-0.318-0.614-0.758-1.051-1.295
	c-1.258,2.16-2.048,4.215-1.726,6.674c0.38,2.9,0.507,5.833,0.774,9.135c-0.49-0.465-1.019-0.727-1.106-1.094
	c-0.277-1.157-0.413-2.352-0.557-3.537c-0.077-0.631,0.048-1.299-0.096-1.909c-1.09-4.637,0.876-8.608,2.73-12.589
	c0.548-1.176,1.603-1.904,3.148-2.672c-0.239,0.839-0.369,1.294-0.571,2.002c0.757,0,1.599,0.139,2.371-0.035
	c1.002-0.225,2.02-0.573,2.903-1.087c2.286-1.331,4.74-1.339,7.201-0.982c1.568,0.227,2.586,1.431,3.713,2.831
	c-0.896,0.306-1.586,0.562-2.287,0.01c-3.751-2.948-7.011-0.936-10.547,1.019C103.585,57.439,105.859,58.501,108.576,59.77z
	 M103.823,59.581c0,0.555,0,0.997,0,1.641c0.641-0.26,1.148-0.466,2.077-0.842C104.939,60.01,104.441,59.818,103.823,59.581z"/>
<path fill-rule="evenodd" clip-rule="evenodd" d="M82.964,58.092c-1.285-0.185-2.503-0.36-3.844-0.552
	c-0.11,0.588-0.206,1.1-0.315,1.683c0.991,0.108,1.881,0.205,2.91,0.317c-2.22,2.601-7.778,2.253-10.222-0.745
	c1.035,0.172,1.748,0.291,2.688,0.447c-0.139-0.43-0.245-0.757-0.348-1.075c-3.219,0.573-3.219,0.573-4.745-1.091
	c0.569-0.182,1.081-0.365,1.603-0.508c1.135-0.312,2.297-0.542,3.411-0.916c3.125-1.049,5.916-0.067,8.648,1.333
	c0.12,0.061,0.182,0.254,0.246,0.396C83.026,57.445,82.995,57.535,82.964,58.092z"/>
<path fill-rule="evenodd" clip-rule="evenodd" d="M85.635,55.647c-1.029,1.162-2.027,1.11-3.234,0.418
	c-1.859-1.066-3.76-2.077-5.71-2.965c-2.586-1.178-5.218-1.918-8.071-0.638c-1.034,0.464-2.315,0.644-3.307-0.852
	c2.013-0.521,3.891-1.43,5.744-1.38c2.333,0.062,4.663,0.835,6.958,1.44c1.613,0.425,3.157,1.105,4.746,1.629
	C84.028,53.716,84.971,54.472,85.635,55.647z"/>
<path fill-rule="evenodd" clip-rule="evenodd" d="M92.84,77.191c0.867,0.496,1.497,0.854,2.251,1.285
	c0.146,0.593-0.059,1.071-0.939,1.025c-1.076-0.057-2.024-0.084-3.075,0.611c-0.683,0.452-1.966-0.06-2.979-0.04
	c-1.16,0.023-1.748-0.709-2.173-1.576c-0.692-1.417-2.186-0.485-3.138-1.178c-0.306-0.822-0.216-1.579,0.66-1.986
	c0.854-0.397,1.306,0.283,1.742,0.852c0.338,0.441,0.601,0.943,0.967,1.356c0.804,0.906,1.51,2.266,2.995,0.852
	c0.095-0.089,0.331-0.143,0.438-0.088C91.082,79.061,91.963,78.034,92.84,77.191z"/>
<path fill-rule="evenodd" clip-rule="evenodd" d="M81.088,87.043c0.293-0.314,0.537-0.815,0.89-0.911
	c1.954-0.532,3.82-1.076,5.945-0.109c1.331,0.605,3.076,0.417,4.63,0.377c1.331-0.035,2.479,0.152,3.609,1.261
	c-0.38,0.19-0.628,0.427-0.861,0.414c-1.566-0.087-3.13-0.322-4.694-0.319c-1.286,0.001-2.467-0.116-3.711-0.565
	c-1.057-0.382-2.32-0.276-3.487-0.235c-0.671,0.023-1.332,0.348-1.997,0.538C81.304,87.342,81.196,87.193,81.088,87.043z"/>
<path fill-rule="evenodd" clip-rule="evenodd" d="M90.793,89.968c-1.987,1.505-3.845,0.545-5.712-0.331
	C87.013,88.682,88.863,90.009,90.793,89.968z"/>
<path fill-rule="evenodd" clip-rule="evenodd" d="M50.275,56.326c3.003-3.132,4.06-7.582,7.02-10.728
	C55.272,49.395,53.731,53.504,50.275,56.326z"/>
<path fill-rule="evenodd" clip-rule="evenodd" d="M36.603,86.923c4.584,0.983,8.646-0.782,12.786-2.265
	c-1.817,1.446-3.998,2.011-6.179,2.454C41.036,87.553,38.809,88.396,36.603,86.923z"/>
<path fill-rule="evenodd" clip-rule="evenodd" d="M50.099,65.64c1.65-2.407,3.298-4.816,4.964-7.214
	c0.047-0.068,0.278-0.008,0.424-0.008C55.092,60.291,52.733,63.664,50.099,65.64z"/>
<path fill-rule="evenodd" clip-rule="evenodd" d="M75.257,28.773c-2.196,0.232-4.4,0.403-6.58,0.741
	c-0.527,0.082-0.982,0.696-1.448,1.092c-0.327,0.277-0.617,0.598-1.099,1.073c-0.354-1.229,0.35-1.902,0.909-2.122
	c2.626-1.027,5.298-2.138,8.162-0.738L75.257,28.773z"/>
<path fill-rule="evenodd" clip-rule="evenodd" d="M75.202,28.819c1.555-0.469,2.772,0.415,3.961,1.122
	c1.115,0.663,2.081,1.576,2.987,2.508c-2.294-1.229-4.587-2.458-6.887-3.682C75.257,28.773,75.202,28.819,75.202,28.819z"/>
<path fill-rule="evenodd" clip-rule="evenodd" d="M47.361,79.682c1.53-1.161,3.06-2.323,4.59-3.484
	c0.097,0.132,0.193,0.263,0.29,0.394c-1.515,1.143-3.03,2.286-4.545,3.428C47.585,79.907,47.473,79.794,47.361,79.682z"/>
<path fill-rule="evenodd" clip-rule="evenodd" d="M72.77,35.845c-1.625-0.227-2.035-1.655-3.572-2.417
	C70.623,33.291,71.705,34.175,72.77,35.845z"/>
<path fill-rule="evenodd" clip-rule="evenodd" d="M62.858,34.648c0.187,0.093,0.415,0.145,0.553,0.285
	c0.686,0.692,1.348,1.407,1.834,2.336c-0.92-0.719-1.84-1.438-2.761-2.158C62.61,34.957,62.734,34.803,62.858,34.648z"/>
<path fill-rule="evenodd" clip-rule="evenodd" d="M42.965,83.063c0.271-1.272,1.402-1.495,2.487-1.763
	c-0.844,0.577-1.688,1.154-2.539,1.724C42.906,83.019,42.965,83.063,42.965,83.063z"/>
<path fill-rule="evenodd" clip-rule="evenodd" d="M46.85,59.462c0.504-0.448,1.008-0.896,1.512-1.344
	c0.08,0.085,0.16,0.17,0.239,0.256c-0.494,0.467-0.987,0.935-1.48,1.402C47.03,59.672,46.939,59.567,46.85,59.462z"/>
<path fill-rule="evenodd" clip-rule="evenodd" d="M43.29,62.794c0.557-0.665,1.115-1.33,1.672-1.995
	c0.144,0.159,0.286,0.317,0.43,0.476c-0.715,0.49-1.43,0.98-2.146,1.47L43.29,62.794z"/>
<path fill-rule="evenodd" clip-rule="evenodd" d="M43.246,62.745c-0.605,0.634-1.21,1.269-1.815,1.902
	c0.272-1.018,0.807-1.749,1.858-1.853C43.29,62.794,43.246,62.745,43.246,62.745z"/>
<path fill-rule="evenodd" clip-rule="evenodd" d="M40.304,84.271c0.883-0.405,1.766-0.811,2.655-1.212
	c0.006,0.005-0.052-0.04-0.045-0.034c-0.885,0.398-1.778,0.79-2.671,1.182L40.304,84.271z"/>
<path fill-rule="evenodd" clip-rule="evenodd" d="M45.408,93.913c-0.532,0.306-1.065,0.612-1.598,0.918
	c-0.063-0.101-0.126-0.201-0.189-0.302c0.525-0.321,1.051-0.642,1.576-0.963C45.268,93.681,45.338,93.797,45.408,93.913z"/>
<path fill-rule="evenodd" clip-rule="evenodd" d="M51.73,89.088c0.398-0.27,0.796-0.54,1.193-0.809
	c0.065,0.098,0.13,0.196,0.195,0.294c-0.399,0.27-0.799,0.54-1.198,0.81C51.857,89.285,51.794,89.187,51.73,89.088z"/>
<path fill-rule="evenodd" clip-rule="evenodd" d="M40.243,84.207c0.114,1.144-0.874,0.995-1.356,1.439
	c-0.091-0.126-0.182-0.252-0.273-0.378c0.565-0.33,1.131-0.661,1.693-0.994C40.304,84.271,40.243,84.207,40.243,84.207z"/>
<path fill-rule="evenodd" clip-rule="evenodd" d="M40.772,74.687c-0.235,0.286-0.47,0.572-0.705,0.858
	c-0.067-0.056-0.134-0.112-0.201-0.168c0.237-0.282,0.474-0.564,0.711-0.846C40.642,74.583,40.707,74.634,40.772,74.687z"/>
<path fill-rule="evenodd" clip-rule="evenodd" d="M68.752,38.72c0.393,0.21,0.785,0.42,1.177,0.63
	c-0.02,0.066-0.039,0.132-0.058,0.197c-0.456-0.138-0.911-0.277-1.367-0.416C68.587,38.995,68.669,38.857,68.752,38.72z"/>
<path fill-rule="evenodd" clip-rule="evenodd" d="M118.882,79.383c0.126,0.837,0.212,1.409,0.298,1.98
	C118.438,80.878,117.923,80.363,118.882,79.383z"/>
<path fill-rule="evenodd" clip-rule="evenodd" d="M122.588,85.073c0.228,0.208,0.454,0.415,0.682,0.623
	c-0.035,0.045-0.071,0.091-0.107,0.136c-0.251-0.204-0.502-0.408-0.752-0.611C122.469,85.171,122.528,85.122,122.588,85.073z"/>
<path fill-rule="evenodd" clip-rule="evenodd" fill="#FEE75E" d="M121.679,31.565c0.513-0.852,1.026-1.703,1.775-2.946
	c-1.983,0.406-3.059,1.596-4.399,2.234c0.066-0.225,0.061-0.542,0.21-0.66c1.681-1.321,3.386-2.611,5.084-3.91
	C124.373,28.595,123.34,30.639,121.679,31.565z"/>
<path fill-rule="evenodd" clip-rule="evenodd" d="M116.531,30.407c-0.018-0.304-0.155-0.674-0.03-0.899
	c0.783-1.413,1.626-2.793,2.749-4.69c0,0.844,0.134,1.274-0.022,1.521c-0.863,1.373-1.797,2.701-2.707,4.044L116.531,30.407z"/>
<path fill-rule="evenodd" clip-rule="evenodd" d="M116.521,30.383c-0.682,0.517-1.327,1.098-2.062,1.526
	c-0.404,0.235-0.959,0.211-1.454,0.295c-0.009-0.01,0.019,0.03,0.008,0.019c0.682-0.491,1.346-1.022,2.079-1.432
	c0.42-0.234,0.95-0.269,1.436-0.389C116.531,30.407,116.521,30.383,116.521,30.383z"/>
<path fill-rule="evenodd" clip-rule="evenodd" fill="#FEE75E" d="M120.513,35.887c0.367-0.396,0.687-0.855,1.109-1.178
	c2.34-1.785,4.471-3.741,5.74-7.136c0.228,0.853,0.477,1.261,0.363,1.439c-1.833,2.891-3.826,5.63-7.262,6.82
	C120.463,35.833,120.513,35.887,120.513,35.887z"/>
<path fill-rule="evenodd" clip-rule="evenodd" fill="#FEE75E" d="M110.002,30.062c-0.672,0.507-1.343,1.015-2.015,1.521
	C108.659,31.077,109.33,30.57,110.002,30.062z"/>
<path fill-rule="evenodd" clip-rule="evenodd" fill="#FFFFFF" d="M103.823,59.581c0.618,0.238,1.116,0.429,2.077,0.799
	c-0.929,0.376-1.437,0.583-2.077,0.842C103.823,60.578,103.823,60.135,103.823,59.581z"/>
</svg>
