<?xml version="1.0" encoding="utf-8"?>
<!-- Generator: Adobe Illustrator 16.0.4, SVG Export Plug-In . SVG Version: 6.00 Build 0)  -->
<!DOCTYPE svg PUBLIC "-//W3C//DTD SVG 1.1//EN" "http://www.w3.org/Graphics/SVG/1.1/DTD/svg11.dtd">
<svg version="1.1" id="Layer_1" xmlns="http://www.w3.org/2000/svg" xmlns:xlink="http://www.w3.org/1999/xlink" x="0px" y="0px"
	 width="612px" height="792px" viewBox="0 0 612 792" enable-background="new 0 0 612 792" xml:space="preserve">
<path fill-rule="evenodd" clip-rule="evenodd" d="M456.145,300.551c1.069,0.222,1.798,0.28,2.456,0.528
	c1.231,0.463,1.925,1.409,1.968,2.744c0.044,1.289-0.806,2.517-2.147,2.838c-0.994,0.237-2.058,0.243-3.091,0.249
	c-27.596,0.167-55.19,0.308-82.785,0.476c-93.425,0.571-186.848,1.15-280.272,1.725c-0.719,0.004-1.447,0.045-2.157-0.039
	c-1.806-0.212-2.9-1.317-2.955-2.899c-0.053-1.523,0.82-2.606,2.503-3.053c0.455-0.121,0.935-0.144,1.697-0.256
	c-0.25-1.51-0.438-2.982-0.743-4.431c-1.778-8.462-2.9-17-2.974-25.657c-0.034-3.995-0.112-7.992,0.002-11.983
	c0.049-1.72,0.692-3.419,0.797-5.144c0.626-10.21,1.244-20.423,1.725-30.641c0.339-7.202,1.382-14.313,2.357-21.438
	c0.39-2.846,0.713-5.703,1.186-8.536c0.366-2.188,1.148-4.327,1.341-6.523c0.416-4.746,0.558-9.515,0.84-14.273
	c0.239-4.039,0.561-8.073,0.759-12.114c0.118-2.39,0.333-4.823,0.038-7.177c-0.762-6.061-0.368-12.122-0.387-18.185
	c-0.006-2.153-0.119-4.314-0.328-6.458c-0.7-7.151-1.678-14.295-1.399-21.492c0.128-3.319,0.782-6.632,1.375-9.917
	c1.063-5.891,2.296-11.753,3.386-17.64c0.683-3.685,1.233-7.394,1.849-11.091c0.065-0.393,0.12-0.798,0.263-1.166
	c1.391-3.564,1.331-7.312,1.467-11.044c0.119-3.273,0.365-6.542,2.331-9.358c0.492-0.705,1.035-1.388,1.641-1.994
	c0.789-0.788,1.694-1.458,2.495-2.233c2.479-2.401,5.362-2.903,8.59-1.917c0.529,0.162,1.072,0.276,1.492,0.384
	c0.819-1.676,1.459-3.389,2.438-4.878c1.002-1.523,2.344-2.822,3.524-4.231c1.254-1.496,3.062-2.142,4.795-2.543
	c1.909-0.442,3.964-0.394,5.947-0.326c1.384,0.047,2.197,1.176,2.893,2.288c0.5,0.799,1.013,1.589,1.653,2.592
	c0.473-0.613,0.737-1.075,1.11-1.418c1.158-1.065,2.2-2.479,3.577-3.034c2.342-0.942,4.877-1.51,7.383-1.905
	c2.955-0.466,5.484,0.716,7.252,3.068c1.624-2.793,4.057-4.701,6.538-6.558c1.556-1.164,3.225-2.007,5.23-2.122
	c1.751-0.101,3.352,0.218,4.662,1.405c1.163,1.055,2.711,1.621,3.502,3.166c1.477,2.883,1.397,5.812,0.61,8.813
	c-0.18,0.688-0.434,1.356-0.692,2.148c2.489,1.333,5.143,1.401,7.737,1.573c1.826,0.122,3.674-0.16,5.509-0.116
	c6.617,0.158,13.23,0.469,19.848,0.542c4.46,0.049,8.924-0.21,13.387-0.322c3.51-0.088,7.023-0.093,10.529-0.256
	c9.324-0.433,18.645-0.949,27.969-1.399c11.253-0.544,22.504-0.962,33.778-1.001c9.826-0.034,19.648-0.591,29.475-0.861
	c4.941-0.135,9.886-0.124,14.828-0.219c3.908-0.075,7.815-0.263,11.725-0.302c2.393-0.023,4.789,0.214,7.183,0.203
	c11.905-0.052,23.812-0.25,35.717-0.188c6.465,0.034,12.926,0.505,19.391,0.741c5.337,0.195,10.677,0.33,16.015,0.499
	c7.246,0.23,14.492,0.453,21.737,0.709c5.987,0.212,11.972,0.49,17.961,0.688c1.987,0.065,3.981-0.026,6.062-0.047
	c0.314-0.637,0.678-1.169,0.852-1.757c0.755-2.553,2.768-4.253,4.244-6.31c0.274-0.383,0.93-0.671,1.423-0.692
	c5.452-0.238,10.466,0.94,14.638,4.714c1.36,1.231,2.676,2.525,4.129,3.638c2.657,2.034,3.787,4.835,4.39,7.978
	c0.721,3.756,1.523,7.498,2.229,11.256c0.248,1.321,0.312,2.676,0.475,4.136c1.414-0.373,2.723-0.696,4.019-1.062
	c4.837-1.367,8.962,1.554,9.445,6.562c0.26,2.689-0.349,5.219-0.916,7.784c-0.549,2.471-1.062,4.95-1.593,7.426
	c0.156,0.094,0.311,0.189,0.467,0.284c0.898-0.746,1.791-1.499,2.697-2.237c2.828-2.307,5.485-4.852,8.856-6.41
	c0.578-0.268,1.138-0.599,1.741-0.787c5.31-1.655,5.68-0.662,7.307,4.122c0.646,1.903,0.441,4.085-0.353,6.104
	c-0.398,1.014-0.516,2.135-0.813,3.193c-0.475,1.684-0.975,3.361-1.496,5.03c-3.194,10.214-5.642,20.625-7.525,31.138
	c-0.951,5.314-3.889,9.32-6.854,13.443c-2.932,4.074-5.869,8.145-8.9,12.145c-2.363,3.117-3.173,6.757-3.805,10.464
	c-0.356,2.095-0.427,4.208-0.383,6.358c0.07,3.45-0.987,6.723-2.701,9.722c-0.501,0.876-1.462,1.479-2.035,2.327
	c-3.336,4.945-5.558,10.494-8.43,15.691c-2.854,5.167-4.409,10.865-6.803,16.222c-2.864,6.41-5.498,12.923-8.215,19.398
	c-2.561,6.101-5.188,12.176-7.622,18.327c-2.67,6.748-5.088,13.594-7.743,20.348c-1.573,4.006-3.456,7.89-5.083,11.875
	C461.605,286.757,458.927,293.581,456.145,300.551z M451.087,113.745c-1.545,0.2-2.965,0.343-4.37,0.572
	c-5.835,0.951-11.511,2.528-17.118,4.376c-4.476,1.474-8.977,2.944-12.998,5.433c-4.07,2.519-8.102,5.143-11.9,8.047
	c-4.281,3.273-8.945,6.087-12.245,10.593c-2.917,3.983-6.369,7.571-9.403,11.475c-2.494,3.208-4.753,6.6-7.059,9.95
	c-5.343,7.759-10.661,15.534-15.958,23.324c-0.807,1.185-1.537,2.441-2.135,3.741c-0.625,1.356-1.401,2.717-1.069,4.333
	c0.201,0.975-0.359,1.542-1.171,1.829c-2.179,0.772-4.339,1.65-6.578,2.191c-6.847,1.655-13.801,2.588-20.86,2.46
	c-6.146-0.113-12.299-0.172-18.429-0.562c-4.454-0.284-8.879-1.047-13.312-1.635c-4.449-0.59-8.797-1.5-12.847-3.597
	c-4.203-2.177-8.362-4.359-11.211-8.344c-0.462-0.646-0.958-1.333-1.595-1.78c-2.568-1.803-3.731-4.545-4.821-7.268
	c-1.184-2.955-1.977-6.063-3.115-9.037c-1.394-3.645-2.583-7.45-4.561-10.769c-2.807-4.713-6.291-9.021-9.414-13.551
	c-3.659-5.308-8.35-9.638-13.039-13.974c-1.99-1.841-3.965-3.709-6.065-5.421c-3.936-3.209-8.429-5.404-13.186-7.164
	c-6.424-2.377-12.693-5.154-19.37-6.846c-3.622-0.918-7.268-1.865-10.604-3.678c-0.609-0.332-1.372-0.465-2.076-0.518
	c-1.91-0.139-3.826-0.229-5.74-0.244c-0.588-0.005-1.263,0.161-1.756,0.473c-6.034,3.824-11.174,8.589-15.771,14.093
	c-5.047,6.043-6.823,13.364-9.102,20.54c-0.071,0.223-0.031,0.478-0.073,0.713c-0.493,2.739-0.866,5.507-1.512,8.21
	c-1.963,8.218-4.577,16.271-5.518,24.738c-1.036,9.309-1.884,18.625-1.289,27.979c0.517,8.124,1.21,16.253,2.271,24.322
	c1.404,10.682,3.161,21.32,4.921,31.952c1.278,7.717,3.233,15.278,6.292,22.505c0.832,1.965,1.906,3.834,2.949,5.703
	c0.539,0.966,1.33,1.792,1.874,2.756c1.609,2.852,3.248,5.695,4.685,8.635c0.845,1.728,1.895,2.374,3.879,2.345
	c13.116-0.191,26.234-0.25,39.352-0.33c56.07-0.346,112.141-0.696,168.211-0.978c2.17-0.011,3.53-0.621,4.607-2.521
	c2.797-4.932,5.8-9.746,8.632-14.658c6.664-11.555,13.475-23.032,19.841-34.75c4.34-7.988,8.045-16.32,11.999-24.516
	c1.733-3.593,3.384-7.226,5.059-10.847c2.443-5.283,4.764-10.628,7.342-15.845c3.041-6.15,6.444-12.121,9.426-18.298
	c3.189-6.61,6.065-13.372,9.089-20.062c0.752-1.667,1.589-3.298,2.313-4.977c1.328-3.072,2.646-6.149,3.875-9.261
	c0.571-1.447,0.555-2.982-0.049-4.451c-1-2.431-2.052-4.84-3.036-7.276c-1.105-2.732-2.341-5.428-3.195-8.239
	C452.997,121.837,452.152,117.944,451.087,113.745z M157.01,85.552c-0.042,2.704-0.094,2.773,1.872,4.271
	c2.091,1.594,4.134,3.195,5.82,5.254c2.471,3.019,5.548,5.288,9.278,6.507c2.111,0.689,4.288,1.248,6.477,1.608
	c2.344,0.387,4.753,0.765,7.106,0.635c7.49-0.411,14.963-1.116,22.45-1.596c4.691-0.301,9.396-0.827,14.088,0.123
	c2.03,0.411,4.074,0.863,6.131,1.001c4.108,0.277,7.96,1.36,11.773,2.872c5.467,2.168,10.976,4.029,15.765,7.754
	c4.031,3.135,7.239,6.933,10.609,10.641c0.261,0.288,0.389,0.694,0.597,1.033c0.828,1.35,1.659,2.697,2.497,4.04
	c0.334,0.537,0.709,1.048,1.03,1.593c3.465,5.886,4.694,12.486,6.031,19.046c0.27,1.323,0.473,2.678,0.522,4.025
	c0.174,4.788,0.434,9.586-0.748,14.308c-0.095,0.38-0.06,0.795-0.071,1.194c-0.125,4.555-0.437,9.052-2.165,13.378
	c-1.131,2.831-0.375,4.564,2.184,6.23c1.203,0.783,2.437,1.52,3.649,2.291c3.196,2.034,6.622,3.531,10.358,4.203
	c8.486,1.526,16.996,2.812,25.654,2.931c8.079,0.111,16.15,0.112,24.14-1.225c2.976-0.498,5.897-1.359,8.81-2.18
	c1.753-0.494,2.49-1.87,2.495-3.653c0.014-4.042,1.432-7.704,3.444-11.071c2.823-4.724,5.896-9.3,8.933-13.893
	c2.157-3.264,4.597-6.352,6.616-9.697c4.247-7.04,9.884-12.914,15.426-18.869c2.116-2.273,4.521-4.273,6.736-6.457
	c2.161-2.131,4.147-4.448,6.399-6.475c1.524-1.372,3.256-2.643,5.108-3.492c2.745-1.258,5.687-2.084,8.533-3.128
	c7.636-2.801,15.468-4.95,23.351-6.902c4.091-1.013,8.236-1.949,12.413-2.449c6.648-0.796,12.997-2.667,19.054-5.295
	c6.268-2.721,11.683-6.833,15.959-12.28c2.46-3.134,4.763-6.341,6.301-10.08c1.921-4.674,0.978-9.479,0.687-14.182
	c-0.354-5.722-1.279-11.421-2.195-17.092c-0.872-5.396-3.309-7.226-7.588-7.338c-0.719-0.019-1.438,0.026-2.157,0.015
	c-6.386-0.103-12.773-0.133-19.156-0.339c-7.1-0.229-14.192-0.665-21.291-0.931c-7.42-0.279-14.841-0.51-22.264-0.676
	c-9.663-0.216-19.327-0.382-28.992-0.5c-6.702-0.083-13.406-0.066-20.108-0.062c-10.865,0.007-21.731-0.014-32.597,0.084
	c-6.299,0.057-12.598,0.312-18.896,0.493c-11.497,0.331-22.993,0.668-34.489,1.015c-7.178,0.215-14.363,0.323-21.532,0.706
	c-13.482,0.721-26.965,1.393-40.467,1.427c-8.306,0.021-16.611-0.156-24.917-0.258c-3.75-0.046-7.502-0.076-11.25-0.219
	c-1.721-0.065-3.431-0.384-5.249-0.601c-0.86,3.797-1.521,7.401-2.509,10.912c-1.384,4.914-2.901,9.798-4.585,14.617
	c-0.753,2.153-1.698,4.426-3.17,6.104C165.392,78.93,161.658,82.785,157.01,85.552z M505.801,175.021
	c-2.971,1.186-5.81,1.502-8.699,1.685c-4.212,0.267-8.303,1.556-12.578,1.43c-2.155-0.063-4.265,0.11-6.309-0.922
	c-1.111-0.561-2.462-0.628-3.686-0.985c-1.83-0.535-3.673-1.05-5.457-1.715c-3.096-1.155-5.781-2.978-8.353-5.062
	c-1.782-1.445-3.433-2.809-3.552-5.608c-1.902,3.814-3.69,7.277-5.369,10.792c-2.094,4.379-4.021,8.838-6.158,13.196
	c-3.302,6.732-6.776,13.379-10.066,20.117c-2.306,4.721-4.412,9.539-6.63,14.303c-2.556,5.492-4.993,11.044-7.738,16.441
	c-4.402,8.652-8.921,17.249-13.573,25.77c-3.021,5.535-6.32,10.92-9.576,16.323c-3.247,5.387-6.614,10.699-9.883,16.072
	c-0.767,1.262-1.35,2.636-2.237,4.395c22.261-0.002,44.053-0.272,65.869-0.401c1.173-2.991,2.251-5.824,3.393-8.633
	c4.208-10.358,8.478-20.692,12.642-31.068c2.467-6.146,4.666-12.401,7.188-18.524c3.494-8.483,7.191-16.882,10.775-25.328
	c3.207-7.558,6.199-15.214,9.622-22.672c2.592-5.65,5.707-11.06,8.609-16.567C504.579,177.022,505.21,176.031,505.801,175.021z
	 M160.772,302.379c-0.638-1.154-1.146-2.118-1.695-3.06c-1.648-2.83-3.378-5.614-4.948-8.485c-1.533-2.807-3.443-5.496-3.436-8.908
	c-3.537-10.578-5.216-21.557-6.946-32.519c-0.709-4.496-1.283-9.016-1.794-13.539c-0.842-7.458-1.935-14.91-2.281-22.394
	c-0.46-9.964-0.473-19.926,0.696-29.912c1.1-9.397,2.787-18.602,5.548-27.63c0.593-1.94,1.112-3.903,1.665-5.856
	c-0.658,0.189-1.064,0.482-1.279,0.878c-1.701,3.13-4.967,4.504-7.687,6.256c-3.167,2.039-6.958,2.952-10.932,3.007
	c-5.124,0.072-9.851-0.883-13.983-3.983c-3.825-2.87-7.561-5.857-11.329-8.802c-0.698-0.545-1.361-1.132-2.041-1.701
	c-0.176,0.104-0.351,0.208-0.527,0.312c0.208,2.604,0.442,5.206,0.615,7.812c0.126,1.91,0.283,3.83,0.226,5.738
	c-0.084,2.79-0.399,5.573-0.524,8.362c-0.284,6.302-0.411,12.613-0.803,18.907c-0.203,3.256-0.853,6.485-1.273,9.729
	c-0.697,5.38-1.395,10.76-2.049,16.145c-0.404,3.329-0.847,6.659-1.066,10.003c-0.55,8.377-1.016,16.762-1.451,25.146
	c-0.311,5.986-0.518,11.977-0.769,17.966c-0.051,1.195,0.104,2.438-0.17,3.578c-0.723,3.006-0.449,6.041-0.269,9.03
	c0.287,4.779,0.868,9.546,1.494,14.297c0.445,3.38,1.167,6.723,1.801,10.282C117.318,302.818,138.81,302.602,160.772,302.379z
	 M503.54,124.074c-0.183-0.541-0.33-0.986-0.484-1.429c-1.354-3.87-2.977-7.601-5.877-10.601c-1.82-1.884-3.686-3.732-5.633-5.483
	c-0.604-0.543-1.517-0.924-2.33-1.02c-2.916-0.343-5.595-1.135-7.893-3.083c-0.448-0.38-1.409-0.6-1.924-0.387
	c-3.457,1.433-6.896,2.923-10.268,4.544c-4.91,2.361-9.761,4.849-14.762,7.345c-0.227,1.509-0.187,3.14,0.45,4.752
	c1.436,3.63,2.787,7.295,4.247,10.915c1.609,3.986,3.278,7.949,4.97,11.9c0.657,1.538,1.396,3.047,2.195,4.515
	c0.556,1.021,0.146,1.616-0.897,2.466c-0.729-1.46-1.388-2.78-2.007-4.019c-0.709,2.55-1.422,5.026-2.072,7.519
	c-0.136,0.516-0.122,1.103-0.041,1.637c0.332,2.208,0.791,4.399,1.063,6.614c0.475,3.839,2.639,6.225,6.181,7.489
	c1.652,0.589,3.36,1.039,4.977,1.711c3.174,1.319,6.598,1.907,9.862,1.586c6.659-0.654,13.284-1.805,19.867-3.053
	c4.138-0.784,6.363-3.68,6.909-7.858c0.727-5.566,2.817-10.624,6-15.2c3.095-4.449,6.238-8.875,9.576-13.142
	c2.403-3.071,3.535-6.595,4.367-10.249c1.874-8.234,3.541-16.517,6.102-24.581c0.402-1.266,0.684-2.571,1.142-4.321
	c-1.021,0.934-1.713,1.551-2.387,2.188c-2.192,2.074-4.389,4.147-6.567,6.237c-1.663,1.596-3.604,3.01-4.886,4.873
	c-2.197,3.193-5.283,4.988-8.604,6.595c-1.074,0.52-2.116,0.656-3.205,0.067c-1.254-0.677-2.523-1.328-3.803-2
	c-1.968,1.389-2.142,1.755-2.064,4.125c0.079,2.46,0.19,4.922,0.18,7.384C505.918,123.403,505.246,124.212,503.54,124.074z
	 M106.074,60.696c-0.203,0.441-0.393,0.703-0.443,0.988c-0.412,2.353-0.75,4.72-1.202,7.065c-0.842,4.382-1.718,8.759-2.633,13.126
	c-0.619,2.955-1.392,5.877-1.986,8.836c-1.038,5.162-1.996,10.34-2.973,15.515c-0.103,0.542-0.186,1.107-0.153,1.653
	c0.269,4.467,0.513,8.936,0.871,13.395c0.422,5.254,0.741,10.551,2.819,15.49c0.85,2.019,1.311,4.172,2.763,5.998
	c2.429,3.053,5.51,5.289,8.553,7.599c0.554,0.42,1.259,0.665,1.923,0.911c4.863,1.806,9.894,1.596,14.887,0.957
	c4.892-0.626,9.442-2.346,13.29-5.54c1.46-1.213,3.201-2.454,3.932-4.079c0.811-1.804,1.916-3.26,3.097-4.735
	c1.401-1.75,2.713-3.503,3.077-5.838c0.153-0.984,0.75-1.92,1.24-2.826c1.084-2.006,2.338-3.886,3.662-5.763
	c3.48-4.933,7.576-9.222,12.069-13.17c1.547-1.36,3.333-2.447,5.158-3.767c-0.599-0.281-1.019-0.488-1.446-0.676
	c-3.226-1.413-6.462-2.839-8.96-5.419c-1.979-2.043-4.416-3.187-7.136-3.455c-3.125-0.309-6.291-0.258-9.439-0.271
	c-1.404-0.006-2.89-0.034-4.193,0.393c-1.702,0.558-3.328,1.445-4.864,2.39c-2.704,1.665-5.315,3.48-8.001,5.256
	c-1.547-0.479-2.278-1.535-2.189-2.985c1.742-1.582,3.276-3.095,4.943-4.447c1.106-0.898,2.32-1.759,3.626-2.296
	c2.829-1.163,5.532-2.511,7.877-4.479c1.768-1.483,3.448-3.071,5.162-4.618c1.77-1.596,1.815-1.955,0.574-3.979
	c-0.451-0.735-0.88-1.484-1.41-2.38c-2.86,1.005-5.545,0.438-7.912-0.651c-1.188,1.889-2.152,3.53-3.228,5.093
	c-0.784,1.14-1.829,1.864-3.312,2.111c-1.541,0.257-3.015,0.91-4.648,1.431c-0.089,1.831-0.358,3.591-0.22,5.319
	c0.259,3.231-0.571,6.14-1.958,8.996c-0.817,1.683-2.062,3.211-3.725,3.447c-1.784,0.252-3.885-0.141-5.521-0.93
	c-1.386-0.668-2.681-2.129-3.342-3.552c-0.922-1.986-1.415-4.235-1.74-6.424c-0.666-4.49-1.205-9.006-1.598-13.529
	c-0.399-4.602-0.215-9.256-1.656-13.742C108.949,64.756,108.054,62.528,106.074,60.696z M271.876,182.19
	c0.213-0.472,0.366-0.73,0.45-1.009c1.249-4.136,2.304-8.309,2.24-12.675c-0.032-2.154,0.012-4.317-0.177-6.459
	c-0.414-4.685-0.879-9.368-1.46-14.033c-0.705-5.647-3.108-10.792-5.801-15.635c-2.017-3.627-4.819-7.099-8.029-9.707
	c-3.72-3.023-7.918-5.537-12.509-7.41c-6.881-2.807-13.917-4.568-21.308-4.738c-6.226-0.144-12.458,0.014-18.688,0.057
	c-0.434,0.003-0.867,0.162-1.844,0.356c4.457,1.652,8.401,3.103,12.336,4.577c4.686,1.755,9.44,3.353,13.37,6.661
	c1.204,1.013,2.712,1.663,3.921,2.671c1.953,1.627,3.735,3.457,5.657,5.122c4.967,4.302,9.272,9.209,13.093,14.525
	c3.187,4.435,6.168,9.016,9.228,13.541c0.22,0.325,0.365,0.71,0.497,1.084c0.983,2.762,1.971,5.523,2.918,8.297
	c0.334,0.978,0.495,2.018,0.852,2.986c0.987,2.681,2.064,5.328,3.046,8.011C270.162,179.756,270.826,180.962,271.876,182.19z
	 M483.708,99.877c1.753,0.286,3.193,0.349,4.518,0.772c2.648,0.846,4.673-0.161,6.549-1.841c2.609-2.336,5.244-4.647,7.788-7.053
	c0.796-0.753,1.583-1.687,1.946-2.692c1.131-3.137,2.131-6.326,3.045-9.535c1.633-5.735,1.854-11.672,1.772-17.554
	c-0.069-4.937-1.355-9.775-2.657-14.56c-1.076-3.959-3.164-7.111-6.746-9.224c-0.681-0.401-1.254-0.989-1.851-1.521
	c-3.111-2.769-6.691-4.125-10.905-4.219c-2.056-0.045-3.173,0.897-3.985,2.384c-0.712,1.304-1.085,2.792-1.633,4.266
	c2.095,0.56,4.039,0.978,5.906,1.62c1.021,0.352,2.289,0.858,2.785,1.689c1.606,2.691,3.698,5.239,3.363,8.743
	c-0.126,1.331,0.11,2.708,0.271,4.053c0.634,5.305,1.367,10.6,1.936,15.912c0.381,3.561,0.987,7.185-0.315,10.677
	c-0.967,2.592-1.966,5.213-3.335,7.601c-1.134,1.975-2.821,3.633-4.275,5.42C486.643,96.339,485.384,97.847,483.708,99.877z
	 M178.806,33.377c-0.075-0.018-0.151-0.037-0.226-0.055c-0.041-0.478-0.014-0.974-0.138-1.429c-0.167-0.609-0.446-1.189-0.687-1.777
	c-1.708-4.188-4.051-5.075-8.147-3.09c-0.214,0.104-0.448,0.168-0.667,0.265c-5.014,2.218-7.379,6.123-7.274,11.547
	c0.043,2.231,0.037,4.487,0.369,6.683c0.633,4.194,0.277,8.295-0.815,12.336c-0.832,3.076-1.944,6.076-2.793,9.148
	c-0.429,1.551-0.985,2.973-1.866,4.336c-0.983,1.521-1.718,3.205-2.536,4.83c-0.771,1.528-0.007,2.774,0.807,3.986
	c0.763,1.135,1.892,1.126,2.999,0.761c1.124-0.371,2.382-0.691,3.24-1.43c1.684-1.45,3.323-3.036,4.625-4.824
	c1.297-1.782,2.564-3.77,3.14-5.861c2.517-9.146,6.36-17.912,7.86-27.347c0.086-0.545,0.375-1.055,0.512-1.596
	C177.753,37.702,178.275,35.539,178.806,33.377z M105.22,55.301c4.431,2.437,6.876,5.922,7.697,10.481
	c0.814,4.529,2.083,8.966,1.904,13.688c-0.125,3.306,0.602,6.638,0.866,9.964c0.305,3.845,1.109,7.549,3.008,10.933
	c0.665,1.184,1.644,2.437,3.097,2.342c1.478-0.096,2.594-1.147,3.117-2.64c0.08-0.226,0.118-0.465,0.208-0.685
	c0.456-1.106,0.878-2.229,1.396-3.304c0.929-1.932,1.241-3.951,0.871-6.043c-0.316-1.788-0.789-3.546-1.131-5.33
	c-0.239-1.246-0.163-2.589-0.593-3.754c-1.419-3.834-1.125-7.857-1.465-11.802c-0.19-2.209,0.25-4.478,0.005-6.675
	c-0.334-3.003-0.978-5.98-1.627-8.938c-0.46-2.096-1.013-4.194-1.774-6.195c-0.839-2.207-2.805-3.3-4.715-2.765
	c-1.607,0.45-3.215,0.992-4.712,1.72c-1.263,0.614-2.617,1.348-3.485,2.398C106.352,50.552,105.749,52.904,105.22,55.301z
	 M121.843,44.225c0.77,1.214,1.67,2.124,1.97,3.201c0.987,3.534,1.803,7.119,2.597,10.703c1.095,4.946,0.89,10.005,1.049,15.017
	c0.099,3.079,0.632,5.978,1.737,9.058c1.814-0.185,3.609-0.435,5.414-0.531c1.602-0.085,2.816-0.81,3.45-2.176
	c0.624-1.345,0.965-2.829,1.343-4.274c0.137-0.524,0.016-1.114,0.027-1.673c0.058-2.858,0.132-5.664,0.812-8.519
	c1.156-4.853,0.573-9.85-0.053-14.737c-0.521-4.062-1.49-8.073-2.395-12.076c-0.978-4.327-5.533-6.008-9.221-3.831
	c-2.164,1.279-3.75,3.16-5.145,5.232C122.418,41.121,121.845,42.722,121.843,44.225z M142.251,77.147
	c1.149,0.171,2.284,0.227,3.349,0.526c1.684,0.471,2.858-0.277,3.705-1.512c1.667-2.433,3.27-4.916,4.754-7.463
	c0.915-1.571,1.595-3.284,2.323-4.958c1.458-3.356,1.625-6.968,2.042-10.534c0.723-6.178,0.085-12.24-1.289-18.274
	c-0.401-1.761-1.426-2.596-3.055-2.881c-3.965-0.695-7.213,0.418-9.615,3.779c-0.633,0.885-1.054,1.739-0.977,2.853
	c0.126,1.825,0.215,3.655,0.241,5.484c0.029,2.071-0.093,4.146-0.035,6.215c0.097,3.422,0.589,6.861,0.365,10.256
	C143.697,66.104,142.889,71.54,142.251,77.147z M495.951,103.444c1.118,1.602,2.183,3.379,4.334,3.802
	c2.8,0.55,5.401,0.062,7.533-2.004c1.49-1.444,2.917-2.954,4.434-4.369c3.627-3.386,5.8-7.591,6.87-12.363
	c1.1-4.903,2.097-9.832,3.015-14.772c0.334-1.789,0.209-3.661,0.479-5.466c0.424-2.826-3.402-5.63-6.488-5.028
	c-1.702,0.333-3.351,0.942-5.079,1.443c-0.046,0.746-0.14,1.377-0.112,2.003c0.168,3.946-0.421,7.84-1.36,11.615
	c-1.017,4.088-2.562,8.047-3.919,12.049c-0.22,0.645-0.598,1.263-1.015,1.809C501.777,95.915,498.883,99.646,495.951,103.444z
	 M511.104,107.403c0.851,0.345,1.502,0.582,2.131,0.87c2.109,0.966,3.137,0.859,4.731-0.637c1.684-1.579,3.299-3.231,4.993-4.797
	c1.636-1.512,3.174-3.21,5.035-4.382c5.605-3.531,9.229-8.677,12.418-14.279c1.488-2.615,0.953-5.031-0.182-7.51
	c-0.567-1.239-1.524-1.586-2.759-1.18c-1.209,0.397-2.439,0.774-3.578,1.328c-3.41,1.658-6.007,4.432-9.01,6.641
	c-2.926,2.152-4.151,4.892-4.325,8.286c-0.228,4.446-2.564,7.747-5.506,10.812C513.652,104.012,512.482,105.692,511.104,107.403z"/>
<path fill-rule="evenodd" clip-rule="evenodd" fill="#FFFFFF" d="M157.01,85.552c4.648-2.767,8.382-6.622,11.899-10.628
	c1.473-1.678,2.417-3.95,3.17-6.104c1.684-4.819,3.202-9.703,4.585-14.617c0.989-3.511,1.649-7.115,2.509-10.912
	c1.817,0.216,3.528,0.535,5.249,0.601c3.748,0.143,7.5,0.173,11.25,0.219c8.306,0.103,16.611,0.279,24.917,0.258
	c13.502-0.034,26.985-0.706,40.467-1.427c7.169-0.383,14.354-0.49,21.532-0.706c11.496-0.346,22.992-0.684,34.489-1.015
	c6.299-0.181,12.598-0.437,18.896-0.493c10.865-0.098,21.731-0.077,32.597-0.084c6.702-0.004,13.406-0.021,20.108,0.062
	c9.665,0.119,19.329,0.285,28.992,0.5c7.423,0.166,14.844,0.397,22.264,0.676c7.099,0.266,14.191,0.701,21.291,0.931
	c6.383,0.207,12.771,0.237,19.156,0.339c0.719,0.012,1.438-0.033,2.157-0.015c4.279,0.112,6.716,1.942,7.588,7.338
	c0.916,5.671,1.841,11.37,2.195,17.092c0.291,4.703,1.234,9.508-0.687,14.182c-1.538,3.738-3.841,6.946-6.301,10.08
	c-4.276,5.447-9.691,9.559-15.959,12.28c-6.057,2.628-12.405,4.499-19.054,5.295c-4.177,0.5-8.322,1.436-12.413,2.449
	c-7.883,1.952-15.715,4.101-23.351,6.902c-2.847,1.043-5.788,1.87-8.533,3.128c-1.853,0.85-3.584,2.121-5.108,3.492
	c-2.252,2.027-4.238,4.344-6.399,6.475c-2.215,2.184-4.62,4.184-6.736,6.457c-5.542,5.955-11.179,11.83-15.426,18.869
	c-2.02,3.345-4.459,6.433-6.616,9.697c-3.036,4.593-6.109,9.169-8.933,13.893c-2.013,3.367-3.431,7.029-3.444,11.071
	c-0.005,1.783-0.742,3.159-2.495,3.653c-2.912,0.82-5.834,1.682-8.81,2.18c-7.989,1.337-16.061,1.336-24.14,1.225
	c-8.658-0.119-17.168-1.405-25.654-2.931c-3.737-0.672-7.162-2.169-10.358-4.203c-1.212-0.771-2.446-1.507-3.649-2.291
	c-2.559-1.666-3.315-3.4-2.184-6.23c1.729-4.326,2.041-8.823,2.165-13.378c0.011-0.399-0.024-0.813,0.071-1.194
	c1.182-4.722,0.922-9.521,0.748-14.308c-0.049-1.347-0.252-2.702-0.522-4.025c-1.336-6.56-2.565-13.16-6.031-19.046
	c-0.321-0.545-0.695-1.057-1.03-1.593c-0.837-1.343-1.669-2.69-2.497-4.04c-0.208-0.339-0.335-0.746-0.597-1.033
	c-3.37-3.708-6.578-7.506-10.609-10.641c-4.79-3.725-10.298-5.586-15.765-7.754c-3.813-1.512-7.666-2.595-11.773-2.872
	c-2.058-0.138-4.101-0.59-6.131-1.001c-4.693-0.949-9.397-0.423-14.088-0.123c-7.487,0.48-14.96,1.185-22.45,1.596
	c-2.353,0.129-4.763-0.249-7.106-0.635c-2.189-0.36-4.366-0.918-6.477-1.608c-3.729-1.219-6.807-3.489-9.278-6.507
	c-1.686-2.059-3.729-3.66-5.82-5.254C156.916,88.325,156.968,88.256,157.01,85.552z M466.503,62.033
	c0.046-0.123,0.093-0.244,0.139-0.366c-0.435-0.289-0.845-0.629-1.309-0.858c-3.402-1.676-7.138-1.647-10.771-1.864
	c-8.611-0.513-17.233-1.024-25.855-1.109c-11.322-0.111-22.65-0.426-33.975,0.059c-4.469,0.191-8.949,0.091-13.419,0.25
	c-8.931,0.316-17.854,0.837-26.788,1.057c-10.3,0.254-20.604,0.3-30.907,0.391c-8.78,0.077-17.562-0.003-26.34,0.163
	c-6.126,0.116-12.245,0.614-18.371,0.784c-7.331,0.203-14.667,0.215-22,0.352c-3.029,0.057-6.056,0.275-9.084,0.321
	c-3.025,0.046-6.06-0.181-9.075-0.014c-3.341,0.184-6.658,0.756-9.997,1.019c-5.329,0.42-10.667,0.711-15.998,1.094
	c-0.62,0.045-1.218,0.344-1.836,0.479c-0.236,0.051-0.541,0.047-0.748-0.061c-1.716-0.892-3.473-0.391-5.294-0.355
	c0.009,0.843,0.016,1.524,0.023,2.265c1.042-0.011,2.029,0.138,2.941-0.058c3.372-0.725,6.774-0.937,10.21-1.119
	c5.007-0.265,9.989-1.003,14.996-1.297c5.879-0.345,11.773-0.467,17.662-0.615c4.921-0.124,9.845-0.094,14.766-0.223
	c5.667-0.148,11.329-0.447,16.996-0.591c8.303-0.211,16.608-0.331,24.913-0.511c6.7-0.146,13.4-0.495,20.099-0.441
	c9.51,0.075,19.008,0.235,28.513-0.347c6.932-0.424,13.883-0.535,20.828-0.685c9.977-0.215,19.955-0.389,29.934-0.489
	c11.336-0.114,22.671-0.343,33.998,0.577c6.359,0.516,12.756,0.552,19.128,0.929c1.729,0.103,3.433,0.661,5.149,1.004
	C465.52,61.869,466.013,61.946,466.503,62.033z M433.252,66.719c-1.178-1.265-2.273-1.703-3.462-1.775
	c-2.469-0.151-4.945-0.295-7.415-0.261c-5.181,0.073-10.358,0.286-15.538,0.399c-13.412,0.295-26.823,0.66-40.237,0.822
	c-10.854,0.132-21.71-0.028-32.565,0.019c-6.613,0.029-13.226,0.21-19.839,0.304c-2.155,0.031-4.312-0.019-6.468,0.007
	c-6.786,0.081-13.572,0.113-20.354,0.295c-4.461,0.121-8.914,0.513-13.374,0.698c-3.107,0.13-6.222,0.099-9.333,0.186
	c-0.428,0.012-0.848,0.29-1.271,0.445c0.032,0.177,0.064,0.354,0.096,0.532c1.498,0.067,2.999,0.235,4.493,0.182
	c5.509-0.195,11.013-0.588,16.522-0.679c11.501-0.19,23.006-0.231,34.509-0.342c7.029-0.068,14.058-0.154,21.087-0.227
	c10.058-0.104,20.116-0.192,30.174-0.31c8.218-0.096,16.438-0.2,24.654-0.351c7.587-0.139,15.171-0.389,22.758-0.504
	c4.224-0.064,8.451,0.025,12.676,0.095C431.18,66.268,431.993,66.508,433.252,66.719z M283.511,73.749
	c0.044,0.16,0.087,0.319,0.13,0.479c0.356,0.054,0.719,0.183,1.066,0.15c5.325-0.485,10.639-1.155,15.974-1.452
	c7.012-0.39,14.04-0.568,21.063-0.69c4.872-0.085,9.747,0.152,14.619,0.112c7.107-0.058,14.213-0.293,21.32-0.34
	c4.153-0.028,8.309,0.133,12.46,0.267c3.591,0.115,7.177,0.346,10.767,0.457c1.937,0.06,3.879-0.025,5.818-0.044
	c-0.173-0.502-0.422-0.628-0.68-0.732c-2.972-1.197-6.125-0.963-9.213-1.069c-5.268-0.181-10.542-0.171-15.813-0.237
	c-2.871-0.036-5.743-0.113-8.614-0.086c-8.781,0.086-17.561,0.225-26.34,0.318c-3.352,0.036-6.706-0.093-10.052,0.028
	c-5.023,0.183-10.045,0.452-15.058,0.812c-5.326,0.382-10.642,0.899-15.958,1.403C284.488,73.172,284.007,73.533,283.511,73.749z
	 M481.14,57.113c-1.593,0.37-1.603,1.48-1.703,2.456c-0.339,3.33-0.687,6.661-0.92,9.999c-0.233,3.363-1.37,6.152-4.264,8.137
	c-2.823,1.938-5.53,4.043-8.319,6.033c-2.662,1.9-5.463,3.623-8.018,5.655c-2.366,1.882-4.486,4.073-6.718,6.125
	c-0.577,0.53-1.506,1.124-0.689,1.914c0.865,0.837,1.361-0.297,1.891-0.789c2.219-2.062,4.254-4.36,6.648-6.188
	c5.008-3.821,10.189-7.416,15.321-11.073c2.452-1.748,4.733-3.616,5.247-6.818c0.264-1.652,0.401-3.325,0.574-4.991
	c0.303-2.931,0.595-5.864,0.881-8.797C481.119,58.28,481.113,57.781,481.14,57.113z M188.995,89.722
	c-8.428-0.304-14.774-3.805-18.73-11.763c-0.276,0.735-0.628,1.189-0.54,1.528c0.238,0.909,0.53,1.856,1.038,2.633
	c3.267,4.989,7.917,7.954,13.763,8.948C186.107,91.336,187.755,91.091,188.995,89.722z"/>
<path fill-rule="evenodd" clip-rule="evenodd" fill="#4CC1EF" d="M505.801,175.021c-0.591,1.011-1.222,2.001-1.767,3.037
	c-2.902,5.507-6.018,10.917-8.609,16.567c-3.423,7.458-6.415,15.114-9.622,22.672c-3.584,8.446-7.281,16.845-10.775,25.328
	c-2.521,6.123-4.721,12.377-7.188,18.524c-4.164,10.376-8.434,20.71-12.642,31.068c-1.142,2.809-2.22,5.642-3.393,8.633
	c-21.816,0.128-43.608,0.398-65.869,0.401c0.888-1.759,1.471-3.133,2.237-4.395c3.269-5.373,6.636-10.686,9.883-16.072
	c3.256-5.403,6.555-10.789,9.576-16.323c4.652-8.521,9.171-17.117,13.573-25.77c2.745-5.396,5.183-10.949,7.738-16.441
	c2.218-4.765,4.324-9.582,6.63-14.303c3.29-6.738,6.765-13.384,10.066-20.117c2.137-4.358,4.064-8.816,6.158-13.196
	c1.679-3.514,3.467-6.978,5.369-10.792c0.119,2.799,1.77,4.163,3.552,5.608c2.571,2.085,5.257,3.907,8.353,5.062
	c1.784,0.665,3.627,1.18,5.457,1.715c1.224,0.357,2.574,0.425,3.686,0.985c2.044,1.032,4.153,0.859,6.309,0.922
	c4.275,0.126,8.366-1.163,12.578-1.43C499.991,176.523,502.83,176.207,505.801,175.021z"/>
<path fill-rule="evenodd" clip-rule="evenodd" fill="#4CC1EF" d="M160.772,302.379c-21.962,0.222-43.454,0.439-65.206,0.659
	c-0.634-3.559-1.356-6.902-1.801-10.282c-0.625-4.75-1.207-9.518-1.494-14.297c-0.18-2.989-0.454-6.023,0.269-9.03
	c0.274-1.14,0.12-2.383,0.17-3.578c0.25-5.989,0.458-11.98,0.769-17.966c0.435-8.384,0.901-16.769,1.451-25.146
	c0.219-3.344,0.662-6.674,1.066-10.003c0.655-5.385,1.353-10.765,2.049-16.145c0.42-3.245,1.07-6.473,1.273-9.729
	c0.393-6.294,0.52-12.605,0.803-18.907c0.125-2.79,0.44-5.572,0.524-8.362c0.058-1.908-0.099-3.828-0.226-5.738
	c-0.173-2.605-0.407-5.208-0.615-7.812c0.176-0.104,0.351-0.208,0.527-0.312c0.679,0.568,1.343,1.156,2.041,1.701
	c3.768,2.945,7.504,5.933,11.329,8.802c4.132,3.1,8.859,4.055,13.983,3.983c3.974-0.056,7.765-0.969,10.932-3.007
	c2.72-1.751,5.986-3.126,7.687-6.256c0.215-0.396,0.621-0.688,1.279-0.878c-0.553,1.953-1.072,3.916-1.665,5.856
	c-2.761,9.029-4.448,18.233-5.548,27.63c-1.169,9.986-1.156,19.948-0.696,29.912c0.346,7.484,1.438,14.937,2.281,22.394
	c0.511,4.523,1.084,9.043,1.794,13.539c1.729,10.962,3.409,21.941,6.946,32.519c-0.008,3.412,1.902,6.101,3.436,8.908
	c1.569,2.872,3.3,5.656,4.948,8.485C159.625,300.261,160.134,301.226,160.772,302.379z"/>
<path fill-rule="evenodd" clip-rule="evenodd" fill="#FEE5D2" d="M503.54,124.074c1.706,0.139,2.378-0.67,2.384-1.961
	c0.011-2.462-0.101-4.924-0.18-7.384c-0.077-2.37,0.097-2.736,2.064-4.125c1.279,0.671,2.549,1.322,3.803,2
	c1.089,0.589,2.131,0.453,3.205-0.067c3.321-1.606,6.407-3.402,8.604-6.595c1.282-1.863,3.223-3.277,4.886-4.873
	c2.179-2.09,4.375-4.163,6.567-6.237c0.674-0.637,1.366-1.254,2.387-2.188c-0.458,1.75-0.739,3.055-1.142,4.321
	c-2.561,8.064-4.228,16.347-6.102,24.581c-0.832,3.654-1.964,7.178-4.367,10.249c-3.338,4.267-6.481,8.693-9.576,13.142
	c-3.183,4.576-5.273,9.634-6,15.2c-0.546,4.179-2.771,7.074-6.909,7.858c-6.583,1.248-13.208,2.398-19.867,3.053
	c-3.265,0.321-6.688-0.268-9.862-1.586c-1.616-0.672-3.324-1.123-4.977-1.711c-3.542-1.264-5.706-3.65-6.181-7.489
	c-0.272-2.215-0.731-4.406-1.063-6.614c-0.081-0.534-0.095-1.121,0.041-1.637c0.65-2.493,1.363-4.969,2.072-7.519
	c0.619,1.238,1.278,2.558,2.007,4.019c1.044-0.85,1.453-1.444,0.897-2.466c-0.8-1.468-1.538-2.978-2.195-4.515
	c-1.691-3.952-3.36-7.914-4.97-11.9c-1.46-3.62-2.812-7.285-4.247-10.915c-0.637-1.612-0.677-3.244-0.45-4.752
	c5.001-2.496,9.852-4.984,14.762-7.345c3.372-1.622,6.811-3.112,10.268-4.544c0.515-0.212,1.476,0.007,1.924,0.387
	c2.298,1.948,4.977,2.74,7.893,3.083c0.813,0.096,1.727,0.477,2.33,1.02c1.947,1.751,3.812,3.599,5.633,5.483
	c2.9,3,4.523,6.731,5.877,10.601C503.21,123.088,503.357,123.533,503.54,124.074z"/>
<path fill-rule="evenodd" clip-rule="evenodd" fill="#FEE5D2" d="M106.074,60.696c1.979,1.832,2.875,4.06,3.633,6.419
	c1.44,4.486,1.257,9.141,1.656,13.742c0.393,4.523,0.932,9.039,1.598,13.529c0.326,2.189,0.818,4.438,1.74,6.424
	c0.661,1.423,1.956,2.884,3.342,3.552c1.636,0.789,3.737,1.182,5.521,0.93c1.663-0.236,2.908-1.764,3.725-3.447
	c1.387-2.856,2.217-5.765,1.958-8.996c-0.138-1.729,0.131-3.489,0.22-5.319c1.633-0.521,3.107-1.174,4.648-1.431
	c1.483-0.247,2.528-0.971,3.312-2.111c1.076-1.563,2.04-3.205,3.228-5.093c2.367,1.089,5.052,1.656,7.912,0.651
	c0.53,0.896,0.958,1.645,1.41,2.38c1.241,2.024,1.196,2.382-0.574,3.979c-1.714,1.546-3.394,3.134-5.162,4.618
	c-2.346,1.968-5.048,3.317-7.877,4.479c-1.306,0.537-2.521,1.398-3.626,2.296c-1.667,1.352-3.201,2.865-4.943,4.447
	c-0.088,1.451,0.642,2.506,2.189,2.985c2.686-1.776,5.297-3.591,8.001-5.256c1.537-0.945,3.163-1.833,4.864-2.39
	c1.303-0.427,2.789-0.399,4.193-0.393c3.148,0.013,6.314-0.038,9.439,0.271c2.72,0.268,5.157,1.412,7.136,3.455
	c2.498,2.58,5.734,4.006,8.96,5.419c0.428,0.188,0.847,0.395,1.446,0.676c-1.825,1.319-3.611,2.407-5.158,3.767
	c-4.493,3.949-8.588,8.238-12.069,13.17c-1.324,1.877-2.578,3.756-3.662,5.763c-0.49,0.906-1.087,1.842-1.24,2.826
	c-0.364,2.335-1.676,4.088-3.077,5.838c-1.181,1.475-2.287,2.931-3.097,4.735c-0.731,1.625-2.472,2.866-3.932,4.079
	c-3.848,3.194-8.398,4.914-13.29,5.54c-4.994,0.64-10.024,0.85-14.887-0.957c-0.664-0.247-1.369-0.491-1.923-0.911
	c-3.043-2.31-6.124-4.546-8.553-7.599c-1.452-1.825-1.913-3.979-2.763-5.998c-2.079-4.939-2.397-10.236-2.819-15.49
	c-0.358-4.459-0.602-8.928-0.871-13.395c-0.033-0.546,0.051-1.111,0.153-1.653c0.978-5.174,1.936-10.353,2.973-15.515
	c0.595-2.958,1.367-5.881,1.986-8.836c0.916-4.368,1.791-8.744,2.633-13.126c0.451-2.345,0.79-4.712,1.202-7.065
	C105.682,61.398,105.872,61.137,106.074,60.696z"/>
<path fill-rule="evenodd" clip-rule="evenodd" fill="#F9F9F9" d="M271.876,182.19c-1.05-1.229-1.715-2.434-2.207-3.779
	c-0.982-2.683-2.06-5.33-3.046-8.011c-0.356-0.968-0.518-2.008-0.852-2.986c-0.948-2.774-1.936-5.535-2.918-8.297
	c-0.132-0.374-0.277-0.759-0.497-1.084c-3.06-4.525-6.042-9.106-9.228-13.541c-3.821-5.315-8.126-10.223-13.093-14.525
	c-1.922-1.665-3.704-3.495-5.657-5.122c-1.209-1.008-2.718-1.658-3.921-2.671c-3.929-3.308-8.684-4.905-13.37-6.661
	c-3.935-1.475-7.879-2.925-12.336-4.577c0.978-0.195,1.41-0.353,1.844-0.356c6.229-0.043,12.462-0.201,18.688-0.057
	c7.391,0.17,14.427,1.931,21.308,4.738c4.591,1.873,8.789,4.387,12.509,7.41c3.21,2.608,6.012,6.08,8.029,9.707
	c2.692,4.843,5.096,9.987,5.801,15.635c0.582,4.666,1.047,9.349,1.46,14.033c0.188,2.142,0.145,4.305,0.177,6.459
	c0.064,4.366-0.991,8.539-2.24,12.675C272.242,181.46,272.089,181.718,271.876,182.19z"/>
<path fill-rule="evenodd" clip-rule="evenodd" fill="#FEE5D2" d="M483.708,99.877c1.676-2.03,2.935-3.538,4.176-5.062
	c1.454-1.787,3.142-3.445,4.275-5.42c1.369-2.388,2.368-5.009,3.335-7.601c1.303-3.492,0.696-7.116,0.315-10.677
	c-0.568-5.312-1.302-10.606-1.936-15.912c-0.16-1.345-0.396-2.722-0.271-4.053c0.335-3.504-1.757-6.051-3.363-8.743
	c-0.496-0.831-1.765-1.338-2.785-1.689c-1.867-0.643-3.812-1.06-5.906-1.62c0.548-1.474,0.921-2.962,1.633-4.266
	c0.812-1.486,1.93-2.429,3.985-2.384c4.214,0.094,7.794,1.451,10.905,4.219c0.597,0.531,1.17,1.12,1.851,1.521
	c3.582,2.112,5.67,5.264,6.746,9.224c1.302,4.784,2.588,9.623,2.657,14.56c0.082,5.882-0.14,11.818-1.772,17.554
	c-0.914,3.209-1.914,6.398-3.045,9.535c-0.363,1.005-1.15,1.939-1.946,2.692c-2.544,2.406-5.179,4.717-7.788,7.053
	c-1.876,1.68-3.9,2.687-6.549,1.841C486.901,100.226,485.461,100.163,483.708,99.877z"/>
<path fill-rule="evenodd" clip-rule="evenodd" fill="#FEE5D2" d="M178.806,33.377c-0.531,2.161-1.053,4.325-1.598,6.482
	c-0.137,0.541-0.426,1.051-0.512,1.596c-1.5,9.436-5.343,18.201-7.86,27.347c-0.576,2.091-1.843,4.079-3.14,5.861
	c-1.302,1.789-2.94,3.375-4.625,4.824c-0.858,0.739-2.117,1.06-3.24,1.43c-1.107,0.365-2.236,0.375-2.999-0.761
	c-0.814-1.212-1.578-2.458-0.807-3.986c0.818-1.625,1.553-3.309,2.536-4.83c0.881-1.363,1.437-2.785,1.866-4.336
	c0.849-3.072,1.962-6.072,2.793-9.148c1.093-4.041,1.448-8.142,0.815-12.336c-0.332-2.196-0.326-4.452-0.369-6.683
	c-0.105-5.424,2.26-9.329,7.274-11.547c0.219-0.097,0.452-0.162,0.667-0.265c4.096-1.984,6.439-1.098,8.147,3.09
	c0.241,0.588,0.52,1.168,0.687,1.777c0.125,0.455,0.098,0.951,0.138,1.429C178.655,33.34,178.731,33.359,178.806,33.377z"/>
<path fill-rule="evenodd" clip-rule="evenodd" fill="#FEE5D2" d="M105.22,55.301c0.529-2.397,1.132-4.749,2.667-6.605
	c0.868-1.05,2.222-1.784,3.485-2.398c1.497-0.728,3.105-1.27,4.712-1.72c1.91-0.535,3.876,0.558,4.715,2.765
	c0.761,2.001,1.313,4.1,1.774,6.195c0.65,2.958,1.293,5.934,1.627,8.938c0.245,2.197-0.195,4.465-0.005,6.675
	c0.34,3.944,0.046,7.968,1.465,11.802c0.431,1.165,0.354,2.508,0.593,3.754c0.342,1.783,0.815,3.542,1.131,5.33
	c0.371,2.092,0.058,4.111-0.871,6.043c-0.518,1.076-0.94,2.198-1.396,3.304c-0.09,0.22-0.129,0.459-0.208,0.685
	c-0.523,1.493-1.64,2.544-3.117,2.64c-1.453,0.094-2.432-1.159-3.097-2.342c-1.899-3.383-2.703-7.088-3.008-10.933
	c-0.264-3.327-0.991-6.659-0.866-9.964c0.179-4.722-1.089-9.159-1.904-13.688C112.096,61.223,109.65,57.738,105.22,55.301z"/>
<path fill-rule="evenodd" clip-rule="evenodd" fill="#FEE5D2" d="M121.843,44.225c0.002-1.503,0.575-3.104,1.585-4.605
	c1.395-2.073,2.981-3.954,5.145-5.232c3.688-2.178,8.243-0.497,9.221,3.831c0.905,4.003,1.874,8.014,2.395,12.076
	c0.626,4.887,1.209,9.885,0.053,14.737c-0.68,2.854-0.754,5.661-0.812,8.519c-0.011,0.559,0.11,1.149-0.027,1.673
	c-0.378,1.446-0.72,2.93-1.343,4.274c-0.634,1.367-1.849,2.091-3.45,2.176c-1.804,0.096-3.6,0.346-5.414,0.531
	c-1.104-3.08-1.638-5.979-1.737-9.058c-0.159-5.011,0.046-10.071-1.049-15.017c-0.794-3.584-1.61-7.169-2.597-10.703
	C123.513,46.348,122.613,45.438,121.843,44.225z"/>
<path fill-rule="evenodd" clip-rule="evenodd" fill="#FEE5D2" d="M142.251,77.147c0.638-5.607,1.446-11.044,1.808-16.51
	c0.224-3.395-0.269-6.834-0.365-10.256c-0.059-2.069,0.063-4.144,0.035-6.215c-0.026-1.829-0.115-3.659-0.241-5.484
	c-0.077-1.114,0.344-1.968,0.977-2.853c2.402-3.361,5.65-4.474,9.615-3.779c1.629,0.286,2.654,1.12,3.055,2.881
	c1.374,6.034,2.011,12.097,1.289,18.274c-0.417,3.566-0.583,7.178-2.042,10.534c-0.728,1.674-1.408,3.387-2.323,4.958
	c-1.484,2.547-3.087,5.03-4.754,7.463c-0.846,1.235-2.021,1.983-3.705,1.512C144.535,77.375,143.4,77.319,142.251,77.147z"/>
<path fill-rule="evenodd" clip-rule="evenodd" fill="#FEE5D2" d="M495.951,103.444c2.932-3.798,5.826-7.529,8.69-11.282
	c0.417-0.546,0.795-1.164,1.015-1.809c1.357-4.001,2.902-7.96,3.919-12.049c0.939-3.775,1.528-7.669,1.36-11.615
	c-0.027-0.626,0.066-1.257,0.112-2.003c1.729-0.501,3.377-1.11,5.079-1.443c3.086-0.602,6.912,2.202,6.488,5.028
	c-0.27,1.805-0.145,3.677-0.479,5.466c-0.918,4.941-1.915,9.869-3.015,14.772c-1.07,4.772-3.243,8.977-6.87,12.363
	c-1.517,1.415-2.943,2.925-4.434,4.369c-2.132,2.066-4.733,2.554-7.533,2.004C498.134,106.823,497.069,105.045,495.951,103.444z"/>
<path fill-rule="evenodd" clip-rule="evenodd" fill="#FEE5D2" d="M511.104,107.403c1.379-1.711,2.549-3.391,3.949-4.85
	c2.941-3.065,5.278-6.366,5.506-10.812c0.174-3.394,1.399-6.133,4.325-8.286c3.003-2.208,5.6-4.983,9.01-6.641
	c1.139-0.554,2.369-0.931,3.578-1.328c1.234-0.406,2.191-0.059,2.759,1.18c1.135,2.479,1.67,4.896,0.182,7.51
	c-3.189,5.602-6.812,10.748-12.418,14.279c-1.861,1.172-3.399,2.87-5.035,4.382c-1.694,1.566-3.31,3.218-4.993,4.797
	c-1.595,1.496-2.622,1.603-4.731,0.637C512.605,107.984,511.954,107.748,511.104,107.403z"/>
<path fill-rule="evenodd" clip-rule="evenodd" d="M466.503,62.033c-0.49-0.087-0.983-0.164-1.472-0.262
	c-1.717-0.343-3.42-0.902-5.149-1.004c-6.372-0.377-12.769-0.413-19.128-0.929c-11.327-0.919-22.662-0.691-33.998-0.577
	c-9.979,0.1-19.957,0.273-29.934,0.489c-6.945,0.15-13.896,0.261-20.828,0.685c-9.505,0.582-19.003,0.422-28.513,0.347
	c-6.698-0.053-13.398,0.296-20.099,0.441c-8.304,0.18-16.609,0.3-24.913,0.511c-5.667,0.144-11.329,0.442-16.996,0.591
	c-4.92,0.129-9.845,0.1-14.766,0.223c-5.889,0.147-11.783,0.27-17.662,0.615c-5.007,0.294-9.989,1.033-14.996,1.297
	c-3.436,0.183-6.839,0.394-10.21,1.119c-0.912,0.196-1.899,0.047-2.941,0.058c-0.007-0.74-0.014-1.421-0.023-2.265
	c1.822-0.036,3.579-0.537,5.294,0.355c0.207,0.108,0.511,0.112,0.748,0.061c0.618-0.135,1.216-0.434,1.836-0.479
	c5.331-0.382,10.669-0.674,15.998-1.094c3.338-0.263,6.656-0.835,9.997-1.019c3.015-0.167,6.05,0.061,9.075,0.014
	c3.029-0.046,6.056-0.265,9.084-0.321c7.333-0.137,14.669-0.149,22-0.352c6.126-0.169,12.245-0.668,18.371-0.784
	c8.778-0.166,17.56-0.086,26.34-0.163c10.303-0.091,20.607-0.137,30.907-0.391c8.934-0.22,17.857-0.74,26.788-1.057
	c4.47-0.159,8.95-0.059,13.419-0.25c11.324-0.485,22.652-0.169,33.975-0.059c8.622,0.085,17.244,0.596,25.855,1.109
	c3.633,0.216,7.368,0.188,10.771,1.864c0.464,0.229,0.874,0.569,1.309,0.858C466.596,61.789,466.549,61.91,466.503,62.033z"/>
<path fill-rule="evenodd" clip-rule="evenodd" d="M433.252,66.719c-1.259-0.21-2.072-0.451-2.889-0.465
	c-4.225-0.07-8.452-0.16-12.676-0.095c-7.587,0.115-15.171,0.365-22.758,0.504c-8.217,0.151-16.437,0.255-24.654,0.351
	c-10.058,0.118-20.116,0.206-30.174,0.31c-7.029,0.073-14.058,0.159-21.087,0.227c-11.503,0.11-23.007,0.152-34.509,0.342
	c-5.51,0.091-11.014,0.483-16.522,0.679c-1.494,0.053-2.995-0.115-4.493-0.182c-0.032-0.178-0.063-0.355-0.096-0.532
	c0.424-0.155,0.844-0.433,1.271-0.445c3.111-0.087,6.225-0.056,9.333-0.186c4.46-0.186,8.913-0.578,13.374-0.698
	c6.783-0.182,13.569-0.214,20.354-0.295c2.155-0.025,4.312,0.024,6.468-0.007c6.613-0.094,13.226-0.275,19.839-0.304
	c10.855-0.046,21.712,0.114,32.565-0.019c13.414-0.163,26.825-0.527,40.237-0.822c5.18-0.114,10.357-0.327,15.538-0.399
	c2.47-0.034,4.946,0.11,7.415,0.261C430.979,65.016,432.074,65.454,433.252,66.719z"/>
<path fill-rule="evenodd" clip-rule="evenodd" d="M283.511,73.749c0.496-0.215,0.978-0.576,1.489-0.625
	c5.316-0.503,10.632-1.021,15.958-1.403c5.013-0.36,10.035-0.629,15.058-0.812c3.346-0.122,6.7,0.007,10.052-0.028
	c8.779-0.094,17.559-0.232,26.34-0.318c2.871-0.027,5.743,0.05,8.614,0.086c5.271,0.066,10.546,0.057,15.813,0.237
	c3.088,0.106,6.241-0.128,9.213,1.069c0.258,0.104,0.507,0.229,0.68,0.732c-1.939,0.02-3.882,0.104-5.818,0.044
	c-3.59-0.111-7.176-0.342-10.767-0.457c-4.151-0.134-8.307-0.294-12.46-0.267c-7.107,0.047-14.213,0.282-21.32,0.34
	c-4.872,0.04-9.747-0.197-14.619-0.112c-7.023,0.122-14.051,0.3-21.063,0.69c-5.335,0.297-10.649,0.967-15.974,1.452
	c-0.348,0.032-0.71-0.096-1.066-0.15C283.598,74.068,283.555,73.908,283.511,73.749z"/>
<path fill-rule="evenodd" clip-rule="evenodd" d="M481.14,57.113c-0.026,0.668-0.021,1.167-0.068,1.662
	c-0.286,2.933-0.578,5.866-0.881,8.797c-0.173,1.666-0.311,3.339-0.574,4.991c-0.514,3.202-2.795,5.07-5.247,6.818
	c-5.132,3.658-10.313,7.252-15.321,11.073c-2.395,1.828-4.43,4.125-6.648,6.188c-0.529,0.492-1.025,1.625-1.891,0.789
	c-0.816-0.79,0.112-1.383,0.689-1.914c2.231-2.052,4.352-4.242,6.718-6.125c2.555-2.033,5.355-3.755,8.018-5.655
	c2.789-1.99,5.496-4.096,8.319-6.033c2.894-1.985,4.03-4.773,4.264-8.137c0.233-3.338,0.581-6.669,0.92-9.999
	C479.537,58.593,479.547,57.482,481.14,57.113z"/>
<path fill-rule="evenodd" clip-rule="evenodd" d="M188.995,89.722c-1.24,1.369-2.888,1.614-4.468,1.346
	c-5.847-0.994-10.497-3.958-13.763-8.948c-0.508-0.777-0.8-1.725-1.038-2.633c-0.088-0.338,0.263-0.792,0.54-1.528
	C174.221,85.917,180.567,89.418,188.995,89.722z"/>
</svg>
