<?xml version="1.0" encoding="utf-8"?>
<!-- Generator: Adobe Illustrator 16.0.4, SVG Export Plug-In . SVG Version: 6.00 Build 0)  -->
<!DOCTYPE svg PUBLIC "-//W3C//DTD SVG 1.1//EN" "http://www.w3.org/Graphics/SVG/1.1/DTD/svg11.dtd">
<svg version="1.1" id="Layer_1" xmlns="http://www.w3.org/2000/svg" xmlns:xlink="http://www.w3.org/1999/xlink" x="0px" y="0px"
	 width="612px" height="792px" viewBox="0 0 612 792" enable-background="new 0 0 612 792" xml:space="preserve">
<path fill-rule="evenodd" clip-rule="evenodd" d="M167.687,640.277c0,2.622-0.251,5.027,0.056,7.359
	c0.519,3.949,1.422,7.847,2.101,11.777c0.447,2.586,0.948,5.179,1.132,7.789c0.265,3.765-3.022,8.504-6.555,10.019
	c-7.092,3.042-14.284,3.166-21.516,0.701c-3.369-1.148-6.382-3.137-8.673-5.809c-1.276-1.487-2.021-3.65-2.419-5.627
	c-0.857-4.254-0.728-8.612,0-12.869c0.466-2.724,1.527-5.347,2.351-8.006c0.66-2.132,1.364-4.251,2.106-6.557
	c-2.12,0.245-4.142,0.5-6.169,0.704c-1.751,0.178-1.781,0.138-2.274-1.592c-0.219-0.768-0.489-1.531-0.601-2.316
	c-0.219-1.551,0.096-2.848,1.271-4.12c3.394-3.675,5.362-8.015,5.504-13.116c0.163-5.82,0.454-11.636,0.625-17.455
	c0.155-5.26,0.144-10.525,0.353-15.782c0.23-5.822,0.57-11.643,0.971-17.455c0.399-5.809,0.835-11.618,1.446-17.407
	c0.368-3.484,1.098-6.931,1.674-10.392c0.379-2.283,0.931-4.551,1.109-6.848c0.121-1.562-0.129-3.192-0.458-4.74
	c-1.375-6.468-2.842-12.916-4.279-19.37c-0.052-0.233-0.128-0.463-0.218-0.686c-1.91-4.741-2.125-9.781-2.658-14.772
	c-0.219-2.052-0.535-4.116-1.065-6.105c-1.508-5.656-2.075-11.434-2.646-17.234c-0.812-8.249-1.891-16.471-2.819-24.708
	c-0.697-6.18-1.308-12.369-2.015-18.547c-0.49-4.282-1.064-8.555-1.631-12.827c-0.282-2.126-0.624-4.244-0.956-6.362
	c-0.057-0.362-0.198-0.71-0.429-1.505c-1.317,4.905-2.578,9.325-3.684,13.784c-1.4,5.647-2.709,11.32-3.995,16.996
	c-1.128,4.979-2.128,9.985-3.266,14.961c-0.778,3.407-1.676,6.788-2.558,10.17c-1.126,4.318-2.56,8.577-3.378,12.952
	c-1.362,7.279-4.18,14.243-4.657,21.707c-0.023,0.368-0.223,0.749-0.414,1.081c-2.478,4.304-4.261,8.904-5.796,13.606
	c-1.634,5.006-3.34,9.994-4.773,15.06c-0.71,2.512-1.14,5.168-1.226,7.773c-0.117,3.497,0.229,7.009,0.36,10.515
	c0.023,0.626,0.011,1.259-0.047,1.883c-0.409,4.365-1.004,8.72-1.214,13.094C86.07,566.015,85,571.877,83.595,577.7
	c-0.804,3.33-1.702,6.639-2.438,9.982c-0.679,3.087-0.508,6.219,0.174,9.275c0.849,3.805,1.443,7.703,3.333,11.198
	c0.48,0.889,1.061,1.723,1.605,2.575c0.512,0.802,0.698,1.606,0.04,2.419c-0.597,0.736-1.245,0.359-1.949,0.144
	c-1.261-0.387-2.558-0.658-3.958-1.008c-0.535,3.449,0.55,6.447,0.771,9.512c0.284,3.956,2.104,7.452,3.404,11.104
	c0.211,0.593,0.411,1.203,0.501,1.822c0.206,1.403,0.334,2.817,0.505,4.226c0.15,1.236-0.031,2.213-1.094,3.17
	c-4.664,4.196-9.591,7.827-15.856,9.34c-6.232,1.505-12.423,1.262-18.422-0.683c-2.723-0.882-5.208-2.646-7.315-4.823
	c-1.686-1.741-3.016-3.521-3.876-5.868c-1.551-4.232-0.69-8.152,0.722-12.111c1.739-4.875,4.522-9.306,5.995-14.31
	c0.508-1.727,1.57-3.304,2.471-4.897c1.515-2.682,2.369-5.482,2.537-8.607c0.273-5.1,0.661-10.17-0.093-15.271
	c-0.604-4.087-1.299-8.203-1.364-12.315c-0.116-7.257,0.074-14.527,0.405-21.779c0.283-6.207,0.716-12.427,1.512-18.586
	c0.56-4.331,1.78-8.584,2.816-12.845c1.119-4.604,3.367-8.696,5.639-12.835c1.95-3.554,2.409-7.694,3.046-11.734
	c0.73-4.628,0.201-9.218,0.229-13.82c0.021-3.424-0.357-6.849-0.374-10.274c-0.014-2.948,0.245-5.896,0.357-8.846
	c0.058-1.514-0.018-3.035,0.102-4.542c0.361-4.529,0.792-9.054,1.189-13.581c0.424-4.847,0.792-9.699,1.281-14.54
	c0.208-2.058,0.699-4.084,0.987-6.135c0.465-3.312,0.769-6.647,1.324-9.941c0.688-4.078,1.71-8.102,2.324-12.188
	c1.065-7.092,1.804-14.233,2.909-21.318c1.302-8.354,2.442-16.736,4.726-24.927c1.087-3.896,1.325-8.022,2.083-12.019
	c0.876-4.619,1.876-9.215,2.867-13.812c1.309-6.07,2.647-12.133,4.003-18.192c0.347-1.551,0.8-3.078,1.219-4.612
	c0.667-2.442,1.379-4.873,1.993-7.328c0.145-0.578,0.115-1.282-0.073-1.849c-1.644-4.943-2.351-10.07-3.152-15.188
	c-0.964-6.15-2.036-12.284-3.142-18.411c-0.991-5.491-2.101-10.96-3.136-16.444c-0.384-2.034-0.677-4.085-1.071-6.117
	c-0.135-0.694-0.383-1.387-0.699-2.02c-2.887-5.776-5.822-11.528-8.696-17.311c-1.454-2.924-2.924-5.85-4.168-8.865
	c-0.846-2.051-1.48-4.225-1.911-6.402c-0.663-3.346-1.649-6.636-1.523-10.138c0.067-1.884-0.486-3.788-0.74-5.685
	c-0.642-4.798-0.211-9.526,0.917-14.213c0.326-1.353,0.885-2.528,1.906-3.517c5.455-5.28,10.787-10.694,16.372-15.832
	c2.025-1.863,4.62-3.115,6.985-4.598c1.477-0.926,3.009-1.765,4.541-2.657c-1.166-2.616-2.036-5.23-3.442-7.514
	c-1.102-1.79-2.815-3.274-5.324-2.814c-0.157,0.029-0.32,0.075-0.475,0.058c-1.227-0.133-2.84,0.303-3.346-1.206
	c-0.405-1.207,0.838-1.905,1.667-2.642c0.406-0.361,0.709-0.836,1.114-1.325c-2.061-2.042-4.217-2.415-6.7-0.956
	c-0.886,0.521-2.002,0.686-2.817,1.281c-1.077,0.788-2.008,0.523-3.034,0.054c-1.549,1.347-3.072,2.721-4.648,4.031
	c-1.902,1.581-3.944,2.794-6.804,1.765c-0.673-0.838-0.378-1.652,0.538-2.636c2.447-2.63,3.096-5.62,1.13-9.409
	c-1.002,3.895-2.81,6.814-6.366,8.126c-1.633,0.603-3.386,0.756-5.227-0.095c0.291-2.982,3.623-3.836,4.466-6.822
	c-1.25,0.356-2.392,0.421-3.22,0.964c-3.659,2.399-6.602,0.291-9.986-1.138c2.218-1.214,4.388-1.932,5.891-3.355
	c1.614-1.529,2.163-3.84,1.831-6.583c-1.554,0.817-2.852,1.854-4.304,2.163c-1.499,0.318-3.171,0.065-4.726-0.192
	c-1.502-0.248-3.243-0.121-4.355-1.801c1.15-1.756,2.699-2.771,5.064-2.849c-2.651-1.716-5.875-2.593-6.048-6.706
	c1.062,0.16,1.816,0.238,2.555,0.392c3.562,0.746,5.517-0.333,7.154-3.591c1.141-2.27,2.5-4.446,3.923-6.555
	c1.877-2.781,2.686-5.95,3.614-9.085c0.271-0.915,0.377-1.88,0.665-2.789c1.896-5.998,2.037-12.257,2.8-18.424
	c0.546-4.412,0.316-9.101,2.947-12.927c2.423-3.523,5.183-6.861,8.13-9.961c1.868-1.965,4.444-2.874,7.358-2.907
	c5.208-0.059,8.932-2.53,10.868-7.499c0.57-1.462,1.279-2.869,1.976-4.415c2.77,1.947,2.016,4.949,2.961,7.389
	c4.202-3.235,4.797-8.39,6.813-12.751c1.925,0.643,2.349,1.633,2.826,6.595c0.296-0.146,0.681-0.205,0.761-0.393
	c1.078-2.528,3.451-4.363,3.817-7.304c0.076-0.613,0.932-1.13,1.437-1.701c1.923,1.002,1.53,2.873,2.237,4.417
	c1.309-0.996,2.04-2.386,2.281-3.815c0.296-1.749,1.311-2.589,2.902-3.306c0.945,1.468,0.456,3.215,0.898,4.867
	c1.106-0.168,1.456-0.98,1.789-1.896c0.695-1.91,1.996-3.356,3.651-4.636c1.844,1.433,0.762,3.48,1.346,5.345
	c1.891-2.095,1.722-5.604,5.161-6.822c0.084,3.554-0.062,6.757-1.041,10.15c1.558,0.068,2.718-0.479,3.596-1.547
	c0.655-0.796,1.14-1.732,1.709-2.6c0.513-0.782,0.447-2.069,1.966-1.992c0.304,0.015,0.655-0.914,1.373-1.321
	c0,0.414,0.125,0.88-0.021,1.234c-0.938,2.283-1.915,4.55-2.922,6.803c-0.323,0.725-0.899,1.352-1.145,2.094
	c-1.237,3.745-3.025,7.215-5.126,10.533c-1.06,1.671-1.039,3.263-0.507,5.208c1.344,4.901,4.281,8.731,7.753,12.158
	c1.424,1.405,3.514,2.142,5.322,3.145c0.693,0.384,1.486,0.594,2.164,1c1.571,0.94,1.591,1.759,0.119,2.906
	c-0.309,0.24-0.681,0.397-1.166,0.673c2.369,2.24,5.579,2.019,8.661,3.087c-1.075,1.495-2.004,2.786-2.909,4.044
	c1.861,1.509,3.94-0.391,5.919,0.223c1.228,1.979,1.216,2.153-0.31,3.603c-0.63,0.599-1.275,1.182-2.076,1.923
	c1.925,0.983,3.854,0.996,5.797,0.896c1.007-0.051,2.299-0.612,2.804,0.582c0.514,1.213-0.671,2.008-1.454,2.757
	c-0.79,0.756-1.688,1.4-2.832,2.332c3.416,0.934,6.424-0.39,9.45-0.031c0.596,3.678-1.816,6.242-3.362,9.293
	c0.176,0.24,0.44,0.601,0.796,1.084c-0.577,0.271-1.123,0.527-1.668,0.784c1.083,1.915,0.961,2.407-1.039,3.083
	c-3.69,1.248-6.624,3.347-8.71,6.731c-0.805,1.304-2.198,2.249-3.341,3.338c-0.632,0.603-1.3,1.167-2.095,1.876
	c0.477,0.197,0.816,0.349,1.165,0.479c1.036,0.387,1.076,1.125,0.569,1.909c-0.386,0.597-0.908,1.117-1.423,1.617
	c-2.196,2.134-3.14,4.805-3.094,7.777c0.025,1.591,1.076,2.873,2.423,3.596c1.812,0.971,3.665,1.828,5.795,2.154
	c5.566,0.852,11.144,1.057,16.741,0.712c2.144-0.132,4.268-0.561,6.399-0.861c2.834-0.4,5.224,0.45,7.62,2.046
	c5.343,3.557,8.161,8.786,10.493,14.48c2.95,7.204,4.705,14.752,6.468,22.283c1.398,5.972,2.279,12.062,3.484,18.082
	c0.498,2.492,1.153,4.961,1.891,7.394c1.764,5.819,2.747,11.798,3.921,17.747c1.048,5.306,2.587,10.514,3.825,15.785
	c1.8,7.653,2.826,15.394,2.226,23.275c-0.064,0.843-0.384,1.726-0.797,2.474c-1.581,2.864-2.91,5.963-4.979,8.434
	c-2.064,2.465-3.336,5.653-6.383,7.333c-0.91,0.502-1.417,1.704-2.17,2.53c-2.152,2.36-4.476,4.579-6.475,7.061
	c-3.294,4.09-6.381,8.347-9.564,12.527c-1.688,2.218-3.347,4.461-5.116,6.614c-1.024,1.247-1.223,2.526-0.783,4.017
	c1.783,6.048,3.614,12.083,5.295,18.159c1.082,3.914,2.012,7.875,2.865,11.846c1.041,4.84,1.944,9.711,2.881,14.574
	c0.747,3.877,0.601,7.786,0.341,11.694c-0.079,1.191-0.135,2.385-0.261,3.57c-0.294,2.772-0.593,5.545-0.946,8.309
	c-0.476,3.716-1.032,7.421-1.505,11.137c-0.393,3.088-0.745,6.181-1.062,9.277c-0.341,3.328-0.688,6.658-0.912,9.995
	c-0.524,7.808-0.967,15.621-1.465,23.431c-0.431,6.765-0.996,13.522-1.305,20.292c-0.199,4.382-0.003,8.78-0.059,13.17
	c-0.045,3.512-0.219,7.021-0.305,10.533c-0.093,3.826-0.102,7.656-0.235,11.482c-0.174,5.031-0.604,10.06-0.61,15.09
	c-0.006,5.181,0.354,10.362,0.572,15.542c0.22,5.21-0.047,10.365-1.312,15.459c-0.672,2.704-1.365,5.455-1.529,8.216
	c-0.124,2.089,0.375,4.282,0.946,6.331c1.538,5.521,2.279,11.125,1.866,16.821c-0.438,6.046-1.18,12.069-1.724,18.108
	c-0.545,6.033-0.998,12.075-1.515,18.11c-0.224,2.623-0.585,5.235-0.745,7.861c-0.321,5.256-0.479,10.522-0.837,15.775
	c-0.208,3.035-0.569,6.053,0.09,9.067c0.203,0.928,0.501,1.835,0.705,2.763c0.564,2.561,1.328,5.104,1.591,7.697
	c0.303,2.992-1.276,4.384-4.231,4.264C168.316,640.182,168.006,640.247,167.687,640.277z M106.201,37.356
	c-0.065-0.255-0.131-0.51-0.307-1.192c-1.086,1.19-1.919,2.104-2.752,3.018c0.572-0.846,1.111-1.718,1.727-2.533
	c0.958-1.27,2.041-2.449,2.938-3.757c1.66-2.423,2.067-4.037,1.855-7.007c-0.849,2.461-3.666,3.6-3.904,6.41
	c-1.572-0.553-1.539-1.82-1.553-3.311c-1.001,1.158-1.902,1.899-2.397,2.851c-0.605,1.166-1.251,2.528-1.187,3.77
	c0.077,1.475-0.122,2.819-0.452,4.205c-0.114,0.479-0.084,0.991-0.143,1.798c0.892-0.557,1.48-0.925,2.068-1.292
	c-0.562,0.669-1.068,1.395-1.695,1.997c-1.905,1.828-3.23,4.57-3.486,7.72c1.992-2.344,3.781-4.449,5.571-6.553
	c0.177,0.789,0.605,0.922,1.137,0.341c0.622-0.679,1.166-1.43,1.743-2.15c-1.231,2.041-2.463,4.083-3.514,5.825
	c1.559-1.375,3.405-3.005,5.663-4.998c-0.133,1.098-0.188,1.555-0.241,2.01l-0.012,0.007c-0.7,1.108-1.4,2.215-2.134,3.375
	c1.038,0.375,1.843-0.197,2.521-0.82c1.513-1.391,2.938-2.875,4.41-4.31c0.784-0.765,1.591-1.506,2.388-2.258
	c-0.777,1.682-1.556,3.363-2.333,5.044c0.103,0.082,0.206,0.164,0.309,0.246c1.054-0.969,2.108-1.938,3.162-2.907
	c0.077,0.061,0.153,0.122,0.23,0.183c-0.445,0.736-0.892,1.472-1.506,2.486c4.702-2.444,8.4-7.67,9.567-13.194
	c-0.45,0.053-0.904,0.107-1.452,0.172c1.11-0.994,2.085-1.867,3.346-2.995c-1.505,0-2.553,0-3.576,0
	c-0.088-0.419-0.157-0.749-0.277-1.322c-0.542,0.834-0.904,1.452-1.327,2.025c-0.465,0.629-0.986,1.217-1.488,1.83
	c-0.965-0.243-1.786-0.45-2.607-0.657c2.453,0.246,3.686-1.392,4.435-3.248c0.78-1.932,1.115-4.043,1.646-6.076
	c-0.981,0.877-1.525,1.945-2.262,2.857c-1.138,1.411-2.604,2.575-2.812,4.581c-0.029,0.271-0.701,0.474-1.398,0.912
	c0.36-1.215,0.575-1.939,0.892-3.006c-0.651,0.584-0.99,0.889-1.539,1.382c0.185-1.126,0.315-1.924,0.446-2.723
	c-0.115-0.041-0.23-0.082-0.346-0.123c-0.504,0.73-1.007,1.461-1.559,2.261c-0.352-0.439-0.58-0.724-0.957-1.194
	c-1.046,1.823-2.05,3.534-3.015,5.266c-1.112,2-2.191,4.018-3.284,6.028C106.559,38.007,106.38,37.681,106.201,37.356z
	 M89.992,40.806c-1.163,0.282-1.57,2.067-3.118,1.677c-0.319-5.382-0.319-5.382-1.35-6.818c-1.221,2.312-2.425,4.59-3.716,7.033
	c1.128,0,2.137,0,3.62,0c-0.451,0.666-0.625,1.25-0.958,1.364c-2.183,0.742-4.401,1.375-6.604,2.058
	c-0.55,0.17-1.083,0.395-1.624,0.595c1.264,0.321,2.457,0.239,3.635,0.337c3.113,0.262,5.563-1.28,7.829-3.026
	c0.994-0.766,1.504-2.159,2.232-3.269c0.389-0.532,0.778-1.065,1.167-1.597c-0.161-0.084-0.323-0.168-0.484-0.252
	C90.412,39.54,90.202,40.173,89.992,40.806z M130.069,84.741l-0.046-0.036c0.2,0.307,0.4,0.613,0.813,1.246
	c-0.984-0.264-1.648-0.41-2.29-0.623c-0.697-0.231-1.374-0.524-2.212-0.849c0.642,1.969,0.642,1.969,6.388,6.004
	c-0.826-0.247-1.652-0.493-2.56-0.764c0.117,0.547,0.189,0.888,0.332,1.552c-1.701-1.102-1.344-3.668-3.815-3.773
	c0.247,1.202,0.669,2.347,0.677,3.494c0.012,1.924,1.172,2.781,2.663,3.482c1.151,0.541,2.305,1.08,3.438,1.66
	c0.545,0.279,1.24,0.533,0.786,1.55c-2.585,0.528-4.585-1.09-6.696-2.132c-1.075,1.096-1.265,1.639-0.583,2.137
	c1.242,0.906,2.5,1.895,3.907,2.448c4.039,1.587,8.12,0.729,12.185-0.167c2.656,0.779,4.846-0.562,7.156-1.271
	c-0.151-1.019-0.515-1.231-1.212-0.96c-1.996,0.778-4.002,1.53-6.004,2.292c0.784-0.702,1.569-1.404,2.295-2.055
	c-0.752-0.073-1.665-0.161-2.578-0.25c2.018,0.018,3.827-0.62,5.549-1.451c1.573-0.759,3.078-1.668,4.569-2.583
	c2.227-1.365,3.328-3.53,4.238-6.094c-0.896,0.09-1.594,0.146-2.286,0.233c-1.365,0.171-2.73,0.515-4.092,0.498
	c-1.397-0.018-2.799-0.339-4.179-0.619c-0.486-0.098-1.181-0.376-1.305-0.735c-0.141-0.411,0.175-1.046,0.435-1.501
	c0.177-0.309,0.592-0.492,0.916-0.707c0.989-0.655,1.986-1.298,3.177-2.073c-0.718-0.293-1.195-0.555-1.707-0.684
	c-2.085-0.527-4.181-1.012-6.272-1.515c-0.937-0.226-1.706-0.566-1.125-1.888c1.832-0.131,3.732-0.294,4.955-2.077
	c-2.736-0.684-5.324-1.332-7.998-2c-0.24-0.574-0.5-1.19-0.788-1.877c1.826-0.34,3.432-0.701,4.873-1.896
	c-2.817-0.904-5.47-1.714-8.091-2.615c-1.2-0.412-2.378-0.932-3.481-1.553c-0.35-0.197-0.562-0.881-0.56-1.341
	c0.001-0.191,0.743-0.565,1.122-0.534c1.2,0.099,2.247-0.187,3.725-0.831c-1.146-0.669-1.849-1.192-2.634-1.514
	c-1.76-0.721-3.061-1.971-4.3-3.351c-2.973-3.312-5.144-7.084-6.64-11.263c-0.333-0.929-0.729-1.836-1.168-2.934
	c-0.388,0.506-0.771,0.779-0.744,1.004c0.612,5.186,1.27,10.367,1.94,15.721c0.659-0.169,1.027-0.265,1.396-0.358
	c1.985-0.502,3.014-0.001,3.763,1.874c0.176,0.442,0.286,0.918,0.365,1.389c0.583,3.459,1.095,6.932,1.744,10.378
	c0.42,2.229,0.135,3.968-2.307,4.783c-0.8,0.267-1.271,1-0.642,1.674C126.542,82.764,127.717,84.616,130.069,84.741z M92.969,45.961
	c0.366-0.512,0.68-1.073,1.106-1.529c2.443-2.612,3.849-5.816,5.213-9.045c0.042-0.1-0.065-0.263-0.112-0.426
	c-0.369,0-0.745,0-1.155,0c-0.198,0.832-0.382,1.598-0.565,2.364c-0.171-0.024-0.342-0.049-0.514-0.073c0-1.786,0-3.572,0-5.317
	c-0.873-0.151-1.461-0.253-2.047-0.354c-0.722,1.674-0.681,1.652,0.047,3.005c0.984,1.831,1.321,3.62,0.225,5.657
	c-0.959,1.783-1.48,3.802-2.194,5.717c-2.15,2.549-4.886,3.204-8.285,1.982c1.659-0.12,3.329-0.166,4.972-0.403
	c0.539-0.078,1.186-0.545,1.473-1.022c1.215-2.014,2.302-4.106,3.46-6.155c1.075-1.901,0.416-3.553-0.747-5.816
	c-1.81,5.694-4.483,10.093-9.584,12.526c0.208,0.389,0.354,0.663,0.501,0.938c-1.943-0.724-3.705,0.824-5.788,0.784
	c0.291-0.634,0.426-0.928,0.578-1.26c-8.333-0.904-13.999,2.624-17.452,10.104c-0.366-0.114-0.774-0.242-1.27-0.396
	c-0.523,1.165-0.996,2.258-1.504,3.336c-0.467,0.991,0.436,2.424-0.984,3.21c-0.693-3.602,1.856-6.215,2.568-9.337
	c-2.24,2.493-3.917,5.253-4.455,8.564c-0.281,1.731-0.486,3.482-0.594,5.233c-0.476,7.737-1.567,15.399-3.216,22.956
	c-0.845,3.874-2.34,7.606-3.566,11.395c-0.047,0.144-0.358,0.203-0.691,0.376c0-0.559,0-0.967,0-1.787
	c-1.521,2.583-3.066,4.73-4.11,7.099c-1.25,2.835-3.286,4.183-6.232,4.454c-0.312,0.029-0.622,0.09-0.932,0.137
	c0.655,0.6,1.403,0.679,1.953,1.051c0.602,0.407,1.02,1.085,1.648,1.792c1.062-0.734,2.172-1.502,3.282-2.27
	c0.093,0.114,0.187,0.228,0.28,0.342c-1.156,1.093-2.313,2.186-3.444,3.255c0.288,0.545,0.501,0.95,0.716,1.355
	c-0.465-0.08-0.742-0.25-0.936-0.488c-0.52-0.641-1.137-0.566-1.696-0.173c-0.282,0.198-0.62,0.857-0.549,0.928
	c0.405,0.407,0.938,1,1.401,0.979c1.738-0.081,3.524-0.168,5.185-0.635c3.296-0.928,3.223-1.587,2.872-3.966
	c-0.026-0.175,0.122-0.375,0.208-0.616c0.921,1.11,0.919,1.11,0.81,1.781c-0.075,0.461-0.173,0.922-0.206,1.386
	c-0.209,2.929-0.256,5.871-1.983,8.472c-0.585,0.882-0.833,1.988-1.26,3.05c3.799,0.108,6.611-1.334,11.522-5.879
	c0.134,1.662-0.667,2.844-1.194,4.121c-0.514,1.243-0.757,2.604-1.33,3.814c-0.567,1.199-2.095,1.757-2.572,3.195
	c0.303,0.046,0.387,0.083,0.457,0.064c0.229-0.059,0.465-0.112,0.677-0.213c3.394-1.618,5.131-4.421,5.753-8.031
	c0.098-0.565,0.278-1.117,0.498-1.977c1.131,0.784,2.402,1.181,2.677,1.938c1.263,3.481,1.931,7.059-0.043,10.571
	c-0.217,0.386-0.418,0.781-0.862,1.612c1.435-0.575,2.504-0.663,2.744-2.089c0.09-0.536,0.579-1.08,1.021-1.467
	c1.575-1.378,2.951-2.877,3.414-4.98c1.508,0.388,2.875,0.739,4.51,1.159c0.66-0.812,1.434-1.765,2.349-2.892
	c0.351,0.827,0.664,1.564,0.953,2.248c1.952,0.115,3.111-0.71,3.766-2.417c0.413-1.077,1.004-2.085,1.528-3.15
	c1.423,1.682,1.352,1.591-0.25,2.848c-0.647,0.507-0.909,1.507-1.434,2.438c3.477-0.287,3.599-0.235,4.119-1.303
	c0.676-1.387,1.149-2.872,1.795-4.535c0.498,0.843,0.89,1.509,1.564,2.651c1.214-3.116,2.357-5.732,3.242-8.433
	c0.558-1.702,0.514-3.503-0.527-5.212c-0.931,2.313-1.806,4.49-2.681,6.666c-0.173-0.031-0.347-0.062-0.521-0.093
	c0.14-3.686,1.24-7.417-0.03-11.128c-1.177,3.552-2.274,6.954-3.464,10.323c-0.128,0.364-0.892,0.84-1.191,0.742
	c-0.737-0.24-0.368-0.792-0.138-1.348c0.943-2.277,1.996-4.537,2.638-6.903c0.609-2.246,1.092-4.667-0.938-6.829
	c-0.866,3.011-1.722,5.83-2.469,8.678c-0.249,0.948-0.697,1.546-1.623,1.799l0.05,0.042c0.083-0.55,0.173-1.1,0.247-1.651
	c0.457-3.39,0.971-6.773,1.331-10.173c0.133-1.259-0.071-2.568-1.699-3.557c-2.168,3.048-1.749,7.022-3.393,10.178
	c-0.933-1.32-0.761-2.582-0.397-4.015c0.48-1.896,1.012-3.875,0.481-5.592c-1.737-1.395-3.25-2.61-5.043-4.05
	c-0.817,5.146-3.14,9.292-6.023,13.16c1.236-2.643,2.742-5.167,3.839-7.858c0.862-2.116,1.217-4.438,1.797-6.668
	c-1.022-1.616-2.042-3.233-3.071-4.845c-0.215-0.336-0.56-0.614-0.689-0.974c-0.398-1.116-1.057-2.277-0.993-3.385
	c0.089-1.547,0.765-3.056,1.137-4.594c0.14-0.578,0.336-1.268,0.148-1.773c-0.438-1.183-1.005-2.342-1.683-3.407
	c-1.067-1.676-2.281-3.259-3.41-4.898c-0.949-1.378-1.85-2.77-3.523-3.427c-0.745-0.292-1.411-0.789-0.865-1.925
	c2.041-0.218,3.794,1.293,5.933,0.975c2.032-0.302,4.146-0.073,6.224-0.035c2.073,0.038,3.903-0.606,5.554-2.03
	c-1.063,0-2.126,0-3.19,0c0.943-0.419,1.883-0.426,2.823-0.417c2.239,0.02,4.13-0.526,5.679-2.399
	c1.427-1.727,3.105-3.272,4.986-4.574c0.85-0.587,1.491-1.476,2.439-2.446c-2.536-0.348-4.719,0.348-6.707-0.753
	c2.43,0.335,4.842,0.308,7.229-0.195c0.678-0.143,1.427-0.352,1.947-0.773c2.177-1.765,4.257-3.655,5.623-6.157
	c1.206-2.209,2.073-4.546,2.288-7.096c-0.838,1.076-1.438,2.307-2.304,3.31C95.198,44.168,94.028,45.02,92.969,45.961z
	 M89.48,308.221c-0.325,1.398-0.643,2.79-0.973,4.179c-0.962,4.041-2.039,8.058-2.871,12.125
	c-1.489,7.269-2.813,14.571-4.246,21.853c-0.567,2.886-1.341,5.733-1.833,8.63c-0.428,2.513-0.508,5.083-0.886,7.606
	c-1.36,9.081-2.732,18.16-4.197,27.224c-0.979,6.063-2.089,12.105-3.205,18.146c-0.81,4.388-1.857,8.735-2.551,13.14
	c-0.553,3.51-0.698,7.083-1.094,10.62c-0.139,1.246-0.56,2.459-0.723,3.704c-0.29,2.213-0.3,4.475-0.749,6.65
	c-1.229,5.948-0.288,11.956-0.673,17.923c-0.046,0.71,0.059,1.441,0.174,2.148c0.894,5.477,0.456,10.968,0.231,16.459
	c-0.137,3.346-0.223,6.692-0.303,10.04c-0.065,2.711,0.202,5.47-0.217,8.123c-0.379,2.402-1.524,4.677-2.259,7.03
	c-0.425,1.362-0.625,2.797-1.08,4.146c-0.403,1.193,0.19,2.988-1.848,3.321c-0.188,0.031-0.32,0.523-0.443,0.815
	c-0.679,1.61-1.437,3.195-1.998,4.846c-0.95,2.791-1.762,5.629-2.653,8.44c-2.48,7.829-3.574,15.899-3.801,24.061
	c-0.257,9.253-0.219,18.515-0.23,27.771c-0.002,1.905,0.272,3.82,0.544,5.713c0.646,4.487,1.403,8.957,0.89,13.525
	c-0.275,2.454-0.474,4.92-0.604,7.386c-0.039,0.742,0.011,1.888,0.462,2.192c3.39,2.284,6.928,4.289,11.284,3.614
	c2.157-0.334,4.292-0.352,6.417,0.249c0.764,0.217,1.568,0.44,2.349,0.425c3.497-0.065,6.992-0.216,10.593-0.339
	c-0.755-3.078-1.389-6.041-2.217-8.948c-1.239-4.352-2.024-8.764-1.208-13.242c0.842-4.623,2.014-9.187,3.06-13.771
	c0.781-3.423,1.5-6.848,1.561-10.385c0.044-2.541,0.202-5.082,0.374-7.619c0.107-1.579,0.419-3.146,0.492-4.726
	c0.117-2.55,0.114-5.105,0.16-7.658c0.018-1.013-0.044-1.913-0.659-2.882c-0.552-0.869-0.824-2.19-0.638-3.207
	c0.729-3.986,1.675-7.934,2.576-11.887c0.103-0.451,0.473-0.835,0.643-1.279c0.822-2.148,1.67-4.289,2.407-6.467
	c0.534-1.578,0.841-3.233,1.369-4.814c1.238-3.702,2.609-7.361,3.813-11.073c1.277-3.94,2.332-7.953,3.649-11.879
	c2.364-7.052,3.749-14.336,5.09-21.612c1.055-5.721,2.126-11.418,3.808-16.991c0.714-2.364,1.404-4.737,2.058-7.119
	c1.351-4.918,2.677-9.843,4-14.768c2.582-9.606,5.354-19.169,6.777-29.046c0.176-1.224,0.748-2.199,1.977-3.135
	c0.51,0.686,1.154,1.226,1.363,1.9c0.443,1.436,0.855,2.932,0.928,4.42c0.141,2.859-0.12,5.74,0.066,8.594
	c0.396,6.046,0.755,12.108,1.533,18.112c0.984,7.586,2.377,15.12,3.582,22.678c0.564,3.545,1.269,7.077,1.608,10.644
	c0.347,3.649,0.41,7.334,0.447,11.004c0.073,7.234,1.594,14.238,3.179,21.238c0.912,4.033,1.881,8.055,2.706,12.105
	c1.448,7.116,2.88,14.237,4.16,21.385c0.403,2.255,0.894,4.772,0.291,6.867c-1,3.473-1.239,6.999-1.733,10.507
	c-0.343,2.433-0.294,4.919-0.509,7.373c-0.606,6.93-1.253,13.855-1.894,20.781c-0.28,3.025-0.403,6.081-0.934,9.063
	c-0.421,2.368-0.66,4.694-0.543,7.088c0.143,2.947,0.279,5.901,0.237,8.851c-0.1,7.035-0.318,14.069-0.453,21.104
	c-0.02,1.03,0.1,2.072,0.256,3.094c0.162,1.058,0.732,1.616,1.936,1.679c1.255,0.065,2.556,0.291,3.725,0.738
	c2.356,0.901,4.615,1.171,6.877-0.191c0.042-0.026,0.203,0.143,0.308,0.222c-1.65,2.208-3.828,2.277-6.207,1.532
	c-0.914-0.286-1.816-0.75-2.747-0.817c-1.635-0.119-3.288,0.006-4.935,0.028c-2.728,2.401-4.805,5.248-6.368,9.191
	c2.29,0.036,4.173,0.727,6.127,0.086c1.026-0.337,2.26-0.688,2.896-1.452c1.985-2.385,4.424-2.986,7.266-2.327
	c1.932,0.448,3.842,1.026,5.717,1.677c2.368,0.822,4.726,1.389,7.237,0.738c1.313-0.34,2.693-0.475,3.96-0.934
	c1.933-0.699,3.472,0.014,4.787,1.22c1.036,0.95,1.907,0.89,2.985,0.247c-0.301-3.138-0.598-6.212-0.891-9.286
	c-0.151-1.585-0.467-3.177-0.412-4.755c0.234-6.767,0.528-13.532,0.902-20.293c0.233-4.226,0.616-8.444,0.992-12.66
	c0.325-3.655,0.788-7.298,1.096-10.954c0.435-5.17,0.854-10.343,1.14-15.522c0.162-2.945,0.198-5.916,0.021-8.859
	c-0.273-4.528-0.72-9.05-1.22-13.561c-0.181-1.624-0.343-3.275-1.444-4.723c-0.721-0.945-0.634-2.228-0.104-3.397
	c0.36-0.793,0.649-1.623,0.909-2.455c1.3-4.159,1.508-8.467,1.489-12.768c-0.031-7.339-0.263-14.677-0.319-22.016
	c-0.016-1.986,0.422-3.974,0.435-5.962c0.065-9.498-0.01-18.998,0.097-28.496c0.074-6.612,0.35-13.224,0.558-19.834
	c0.104-3.348,0.393-6.694,0.364-10.039c-0.047-5.751,0.074-11.479,0.86-17.188c1.414-10.273,2.779-20.554,4.131-30.836
	c0.467-3.556,0.938-7.116,1.218-10.689c0.33-4.211,0.42-8.438,0.684-12.655c0.174-2.783,0.806-5.579,0.636-8.332
	c-0.275-4.452-0.697-8.951-1.675-13.291c-1.98-8.793-4.33-17.505-6.622-26.225c-0.803-3.052-1.885-6.031-2.963-9.437
	c-1.004,1.152-1.849,1.975-2.523,2.92c-2.964,4.148-5.957,8.279-8.791,12.516c-3.193,4.776-6.363,9.578-9.29,14.519
	c-2.467,4.165-5.103,8.294-5.889,13.254c-0.36,2.276-1.56,2.729-3.562,1.559c-0.814-0.477-1.552-1.084-2.532-1.78
	c-0.621,1.06-1.299,1.943-1.691,2.939c-1.094,2.776-1.492,5.68-1.167,8.657c0.353,3.228-0.231,6.191-2.335,8.759
	c-0.504,0.615-0.987,1.248-1.493,1.862c-1.678,2.034-3.425,4.016-5.025,6.108c-1.702,2.225-2.636,4.695-2.081,7.602
	c0.389,2.038,0.595,4.111,0.851,6.173c0.088,0.711,0.244,1.474,0.078,2.14c-0.285,1.139-0.635,2.324-1.258,3.298
	c-0.867,1.357-3.386,1.157-4.236-0.428c-1.161-2.163-2.036-4.481-2.992-6.751c-0.426-1.01-0.513-2.193-1.655-3.141
	c0,0.528-0.007,0.753,0.001,0.977c0.099,2.543,0.353,5.092,0.254,7.627c-0.094,2.408-1.783,3.214-4.051,2.303
	c-1.083-0.436-1.669-1.15-1.955-2.227c-0.213-0.8-0.48-1.586-0.724-2.378c-0.544,1.437-0.657,2.825-0.844,4.204
	c-0.296,2.201-2.075,2.979-3.953,1.8c-1.271-0.798-1.592-2.051-1.622-3.327c-0.944-0.112-1.718-0.204-2.775-0.329
	c-0.365-1.547-0.883-3.053-1.045-4.596c-0.226-2.138-0.017-4.323-0.288-6.451c-0.615-4.824-0.362-9.556,1.04-14.211
	c0.476-1.58,1.053-3.13,1.665-4.934c-0.752,0.068-1.37,0.069-1.964,0.188c-1.824,0.367-3.443-0.166-4.975-1.08
	c-0.825-0.492-1.397-1.283-1.042-2.204c0.565-1.46,1.047-3.155,2.112-4.183c3.984-3.839,8.416-6.956,13.901-8.545
	c3.386-0.98,6.135-3.358,8.554-5.949c0.879-0.941,1.214-1.981,0.833-3.468c-0.619-2.415-0.297-4.791,2.15-6.324
	c0.46-0.288,0.887-0.719,1.171-1.181c2.799-4.543,5.613-9.079,8.327-13.673c3.112-5.269,6.133-10.593,9.177-15.902
	c0.398-0.694,0.699-1.444,1.117-2.318c-1.126,0.142-1.911,0.231-2.693,0.342c-2.021,0.286-4.112,0.342-6.049,0.919
	c-5.796,1.726-11.533,3.646-17.287,5.512c-2.045,0.663-4.104,1.304-6.095,2.104c-3.468,1.394-6.784,3.204-10.674,3.253
	C94.271,307.875,92.054,308.077,89.48,308.221z M93.652,150.99c-1.907,0.941-3.628,1.757-5.317,2.632
	c-3.195,1.654-6.261,3.471-8.613,6.311c-0.805,0.971-1.906,1.695-2.868,2.537c-3.485,3.05-7.002,6.057-9.973,9.652
	c-1.966,2.38-3.092,5.028-3.127,8.098c-0.032,2.871-0.078,5.751,0.119,8.611c0.13,1.895,0.809,3.747,1.015,5.643
	c0.889,8.167,3.912,15.575,7.75,22.738c1.579,2.946,3.129,5.958,4.226,9.102c1.809,5.191,3.303,10.497,4.811,15.789
	c1.576,5.53,2.573,11.174,3.018,16.916c0.117,1.508,0.277,3.045,0.683,4.494c2.571,9.165,4.089,18.54,5.692,27.9
	c0.269,1.568,0.377,3.297,1.139,4.618c1.233,2.137,1.14,3.979-0.038,5.997c-0.35,0.599-0.552,1.339-0.622,2.035
	c-0.144,1.428,0.488,2.136,1.912,2.101c1.026-0.025,2.081-0.158,3.066-0.441c3.663-1.053,7.31-2.164,10.948-3.297
	c6.689-2.084,13.37-4.193,20.05-6.304c3.047-0.962,6.156-1.595,9.339-1.876c2.508-0.222,4.363-1.216,5.719-3.577
	c2.379-4.14,5.562-7.779,7.659-12.128c1.383-2.865,2.898-5.699,4.665-8.339c3.278-4.898,6.836-9.609,9.531-14.883
	c1.594-3.119,3.204-6.231,4.902-9.293c0.64-1.153,0.379-2.002-0.181-3.091c-1.859-3.613-3.744-7.23-5.301-10.978
	c-2.45-5.898-4.636-11.906-6.945-17.862c-3.496-9.015-6.62-18.153-9.129-27.496c-0.847-3.157-1.803-6.295-2.435-9.497
	c-0.679-3.434-1.068-6.926-1.52-10.402c-0.246-1.896-0.463-3.807-0.497-5.714c-0.024-1.304,0.198-2.651,1.591-3.917
	c0.079,0.883,0.192,1.399,0.16,1.905c-0.224,3.465,0.319,6.854,0.998,10.226c1.244,6.174,2.286,12.402,3.845,18.497
	c1.381,5.401,3.192,10.71,5.097,15.957c2.453,6.756,5.217,13.397,7.794,20.109c2.576,6.708,5.399,13.297,8.768,19.656
	c0.882,1.665,1.232,3.61,1.83,5.425c0.473,1.433,0.917,2.876,1.435,4.292c0.692,1.892,1.372,3.776,1.296,6.413
	c-2.408-3.171-3.042-6.616-4.853-9.661c-0.345,0.451-0.604,0.738-0.805,1.062c-3.371,5.422-6.778,10.824-10.08,16.289
	c-1.401,2.319-2.421,4.875-3.887,7.149c-3.79,5.881-7.681,11.7-11.628,17.477c-4.17,6.102-8.517,12.094-12.077,18.578
	c-4.255,7.747-8.972,15.2-13.821,22.607c1.132,1.919,2.798,2.781,4.987,2.724c2.26-0.059,4.46,0.289,6.569,1.115
	c3.438,1.346,6.725,2.873,8.785,6.225c0.446,0.727,1.409,1.136,2.444,1.929c1.064-4.416,2.549-8.243,4.789-11.757
	c3.209-5.035,6.296-10.147,9.535-15.161c2.287-3.54,4.703-6.997,7.128-10.444c2.377-3.379,4.781-6.743,7.277-10.033
	c2.456-3.238,5.081-6.347,7.562-9.566c1.997-2.59,3.782-5.348,5.858-7.869c2.124-2.579,4.601-4.868,6.724-7.446
	c3.455-4.195,6.85-8.447,10.078-12.817c2.775-3.757,4.827-7.888,5.051-12.707c0.093-1.99,0.212-3.979,0.368-5.965
	c0.202-2.565,0.057-5.083-0.674-7.569c-0.74-2.521-1.496-5.044-2.081-7.604c-0.425-1.859-0.538-3.786-0.867-5.67
	c-0.777-4.455-1.545-8.913-2.424-13.348c-0.742-3.746-1.54-7.486-2.486-11.185c-1.066-4.168-2.516-8.244-3.464-12.435
	c-2.466-10.888-4.034-21.989-7.839-32.555c-0.134-0.372-0.146-0.787-0.267-1.165c-1.901-5.913-4.362-11.422-9.243-15.661
	c-3.104-2.697-6.508-3.341-10.226-2.511c-4.58,1.023-9.081,2.406-13.617,3.629c-1.271,0.343-2.547,0.673-3.821,1.008
	c2.515-2.506,6.164-2.365,9.046-4.12c-0.161-0.067-0.234-0.123-0.309-0.125c-0.718-0.016-1.439,0.009-2.155-0.039
	c-5.445-0.363-11.083,0.493-16.048-2.813c-1.121-0.746-2.168-0.208-2.695,1.062c-0.731,1.762-1.271,3.607-2.062,5.339
	c-1.322,2.895-2.675,5.785-4.207,8.571c-1.535,2.793-3.593,5.327-4.906,8.208c-2.116,4.641-3.995,9.411-5.627,14.244
	c-1.653,4.896-4.226,9.506-4.778,14.761c-0.014,0.127-0.195,0.237-0.358,0.423c-1.198,0.359-2.096,0.116-2.465-1.316
	c-0.317-1.235-0.718-2.449-1.077-3.673c-0.907-3.096-2.147-6.025-4.367-8.436c-1.408-1.528-2.945-2.945-4.271-4.541
	c-2.186-2.633-4.305-5.327-6.337-8.08C95.448,154.213,94.614,152.577,93.652,150.99z M62.89,68.41
	c-0.071,0.186-0.143,0.373-0.214,0.559c0.44,0.647,0.907,1.278,1.316,1.944c1.417,2.308,2.837,4.614,4.211,6.946
	c2.345,3.981,4.528,8.064,7.018,11.951c2.479,3.87,5.114,7.66,7.932,11.29c3.603,4.639,7.141,9.41,12.416,12.386
	c2.349,1.325,4.755,2.551,7.145,3.803c1.96,1.027,4.039,0.321,6.066,0.379c2.693,0.078,5.233-0.555,7.59-1.794
	c0.787-0.414,1.618-1.113,1.987-1.892c1.911-4.028,4.134-7.938,4.97-12.406c0.702-3.754,1.837-7.428,1.735-11.319
	c-0.066-2.525-0.523-4.982-1.728-7.135c-0.673-1.203-1.537-2.287-1.921-3.654c-1.5-5.343-3.018-10.681-4.483-15.86
	c-1.464-0.087-2.94-0.228-4.419-0.249c-1.501-0.021-2.799,0.561-3.832,1.662c-0.994,1.06-1.963,2.144-3.092,3.381
	c1.666,0.166,2.922,0.337,4.183,0.402c1.212,0.062,2.429,0.013,4.265,0.013c-1.518,1.867-2.625,3.269-3.776,4.634
	c-1.458,1.729-3.92,2.061-6.352,0.725c0.841-0.198,1.478-0.347,2.067-0.486c-0.187-0.792-0.359-1.527-0.584-2.481
	c-1.098,0.821-2.087,1.562-3.073,2.3c-0.452-0.236-0.905-0.471-1.494-0.777c-1.036,5.949,2.926,10.082,4.664,14.995
	c-0.781-0.438-1.46-0.958-1.824-1.645c-1.048-1.972-1.904-4.045-2.953-6.016c-1.896-3.562-1.097-7.331-0.874-11.032
	c0.051-0.848,0.866-1.655,1.356-2.465c0.047-0.078,0.283-0.042,0.544-0.072c0,0.508,0,1.002,0,1.632
	c0.429-0.093,0.889-0.062,1.162-0.274c1.255-0.974,2.513-1.956,3.668-3.043c2.851-2.684,5.922-4.331,9.9-2.506
	c0.203,0.093,0.464,0.06,0.878,0.105c-0.013-4.783,0.24-9.529-2.263-13.843c-1.598,0.408-3.05,1.042-4.522,1.093
	c-2.201,0.076-4.244,0.666-6.303,1.27c-4.185,1.229-8.563,1.977-12.012,5.02c-1.667,1.472-3.475,2.786-5.216,4.174
	c-1.488,1.187-2.873,2.541-4.481,3.533c-2.708,1.671-5.567,3.094-8.34,4.659c-2.352,1.327-4.77,1.635-7.379,0.846
	C65.556,68.779,64.205,68.653,62.89,68.41z M78.071,613.005c-2.431,0.681-4.4,0.218-6.375-0.524c-2.492-0.938-5.027-1.226-7.73-0.76
	c-3.528,0.607-6.957,0.353-9.828-2.309c-1.144-1.061-1.919-0.878-3.033,0.441c-1.506,1.784-2.492,3.832-3.142,6.1
	c-0.589,2.056-1.339,4.096-2.28,6.015c-1.958,3.993-4.077,7.894-5.292,12.223c-0.67,2.388-0.44,4.521,0.675,6.683
	c1.944,3.769,5.231,5.588,9.141,6.69c3.887,1.096,7.838,1.222,11.82,1.127c6.657-0.158,12.739-1.821,17.642-6.673
	c1.538-1.521,2.584-3.188,2.567-5.414c-0.006-0.717,0.171-1.446,0.085-2.148c-0.218-1.788-0.43-3.59-0.846-5.338
	c-0.421-1.771-1.254-3.452-1.606-5.232C79.176,620.383,78.692,616.841,78.071,613.005z M107.415,350.349
	c0,0.82,0.1,1.157-0.016,1.382c-0.688,1.337-1.229,2.815-2.187,3.934c-2.493,2.914-3.651,6.513-5.179,9.883
	c-1.488,3.285-1.634,6.948-1.476,10.568c0.098,2.232,0.143,4.467,0.197,6.7c0.037,1.515-0.013,3.036,0.104,4.544
	c0.06,0.783,0.354,1.785,1.368,1.581c0.487-0.098,1.027-0.944,1.165-1.54c0.211-0.914,0.068-1.905,0.125-2.86
	c0.197-3.327-0.637-6.703,0.494-9.986c0.788-2.289,1.494-4.611,3.09-6.623c0.315,0.751,0.534,1.502,0.416,2.194
	c-0.132,0.768-0.538,1.499-0.884,2.218c-1.158,2.4-1.889,4.889-1.69,7.589c0.138,1.873-0.277,3.723,0.22,5.646
	c0.359,1.391-0.145,2.988-0.155,4.495c-0.013,1.645,0.636,2.643,1.562,2.523c1.507-0.193,1.211-1.441,1.311-2.424
	c0.377-3.731,0.525-7.501,1.174-11.184c0.521-2.954,1.641-5.803,2.493-8.698c0.24-0.817,0.74-1.337,1.847-1.583
	c0.082,0.607,0.289,1.133,0.182,1.583c-0.162,0.684-0.525,1.323-0.834,1.968c-2.561,5.343-2.719,10.843-1.156,16.482
	c0.358,1.294,1.009,2.3,2.069,3.069c1.066-0.524,1.361-1.43,1.405-2.4c0.077-1.67,0.224-3.361,0.054-5.014
	c-0.663-6.449,2.567-11.383,6.305-16.783c0.176,1.084,0.503,1.751,0.315,2.207c-0.506,1.229-1.063,2.513-1.919,3.497
	c-0.765,0.878-1.37,1.676-1.386,2.857c-0.026,2.146-0.371,4.34-0.04,6.427c0.498,3.147,1.656,6.126,3.913,8.505
	c2.237-1.023,2.801-1.924,2.483-4.089c-0.265-1.813-0.558-3.627-0.954-5.415c-0.945-4.264,0.526-7.867,3.047-11.138
	c1.607-2.087,3.418-4.017,5.104-6.045c1.681-2.021,2.663-4.271,2.622-7.001c-0.045-3.093-0.285-6.234,0.893-9.225
	c0.667-1.692,1.307-3.395,2.001-5.203c-2.761-3.728-6.498-5.222-11.189-4.701c-1.679,0.187-3.402-0.027-5.358-0.063
	c-0.232,0.301-0.662,0.875-1.111,1.432c-2.124,2.637-4.683,4.889-7.799,6.068c-4.65,1.759-9.047,3.903-13.006,6.873
	c-1.62,1.216-3.314,2.541-3.646,4.853c1.117,1.233,2.43,1.738,4.076,1.315c0.848-0.218,1.71-0.392,2.576-0.513
	c0.855-0.119,1.363-0.553,1.852-1.278c1.156-1.714,2.438-3.346,3.718-4.971C106.011,351.494,106.576,351.108,107.415,350.349z
	 M168.87,664.995c0.072-0.018,0.145-0.035,0.218-0.054c-0.486-2.492-0.951-4.989-1.466-7.477c-0.259-1.247-0.722-2.46-0.898-3.717
	c-0.665-4.724-1.236-9.461-1.871-14.189c-0.267-1.982-1.083-2.665-3.09-2.317c-1.231,0.214-2.438,0.719-3.582,1.254
	c-1.531,0.717-2.916,0.945-4.542,0.095c-1.742-0.91-3.641-1.545-5.509-2.189c-3.54-1.222-8.546-1.042-10.553,4.521
	c-0.676,1.874-1.483,3.729-1.889,5.665c-0.859,4.108-1.448,8.272-2.233,12.397c-1.247,6.552,2.547,12.761,7.87,15.881
	c0.545,0.319,1.146,0.63,1.756,0.734c2.273,0.389,4.554,0.867,6.847,0.967c1.801,0.078,3.664-0.182,5.429-0.592
	c4.416-1.028,8.179-3.48,11.971-5.832c1.098-0.682,1.674-1.661,1.554-3.013C168.818,666.423,168.87,665.707,168.87,664.995z
	 M92.354,114.352c-0.16,2.153-0.307,4.268-0.477,6.382c-0.159,1.979-0.592,3.931-0.081,5.944c0.451,1.776,0.655,3.613,1.027,5.412
	c0.887,4.287,2.535,8.1,5.708,11.346c3.62,3.703,7.031,7.656,10.145,11.793c2.096,2.785,4.601,5.54,4.757,9.389
	c0.009,0.199,0.215,0.39,0.579,1.013c0.31-1.357,0.51-2.342,0.759-3.314c1.033-4.024,2.237-7.941,4.483-11.543
	c3.061-4.906,5.253-10.267,6.201-15.981c0.716-4.318,1.008-8.689,2.421-12.893c0.844-2.511-0.421-4.552-2.926-5.372
	c-1.051-0.344-2.099-0.7-3.158-1.054c-0.278,0.228-0.579,0.388-0.76,0.636c-2.205,3.03-5.429,4.088-8.921,4.427
	c-2.287,0.221-4.731,0.58-6.88,0.018c-2.883-0.754-5.577-2.28-8.296-3.59C95.301,116.176,93.772,115.169,92.354,114.352z
	 M128.123,116.594c0.196,0.508,0.425,1.089,0.646,1.672c0.657,1.728,1.047,3.403,0.379,5.303c-0.622,1.769-0.939,3.666-1.21,5.533
	c-0.419,2.886-0.534,5.822-1.072,8.682c-0.317,1.683-1.256,3.241-1.821,4.887c-1.17,3.404-2.481,6.73-4.57,9.703
	c-0.546,0.777-1.014,1.627-1.403,2.496c-1.94,4.332-2.942,8.934-3.675,13.587c-0.235,1.496-0.037,3.061-0.037,4.594
	c0.563-0.285,0.772-0.604,0.906-0.951c2.412-6.254,4.762-12.532,7.246-18.757c0.881-2.208,1.864-4.435,3.185-6.395
	c2.415-3.584,4.87-7.112,6.007-11.352c0.449-1.68,0.968-3.365,1.173-5.082c0.36-3.005,0.51-6.036,0.731-9.058
	c0.143-1.938,0.981-3.516,2.426-4.782c0.771-0.677,1.574-1.318,2.395-2.001c-0.607-0.875-0.999-1.439-1.371-1.977
	C134.677,114.022,131.447,115.29,128.123,116.594z M83.191,135.757c0.104,0.204,0.207,0.408,0.311,0.613
	c0.705,0,1.413-0.043,2.114,0.007c2.764,0.199,4.067,1.456,4.685,4.177c0.474,2.085,1.158,4.073,2.436,5.894
	c2.476,3.525,4.87,7.123,7.049,10.836c1.224,2.088,2.615,3.962,4.243,5.735c2.836,3.088,6.406,5.58,8.048,9.667
	c0.016,0.038,0.254-0.014,0.452-0.03c0-0.627,0.045-1.265-0.008-1.894c-0.282-3.354-0.658-6.639-3.049-9.357
	c-1.94-2.206-3.696-4.579-5.469-6.926c-3.451-4.571-7.632-8.602-10.396-13.672c-1.188-2.178-2.727-4.194-2.883-6.923
	c-0.113-1.979-0.961-3.916-1.481-5.871c-0.648,0.558-1.074,1.175-1.086,1.8c-0.046,2.328-1.371,3.6-3.305,4.542
	C84.222,134.663,83.741,135.281,83.191,135.757z M127.233,76.27c-0.863-4.624-1.672-8.961-2.472-13.245
	c-3.545-0.075-4.635,1.222-3.931,4.335c0.281,1.243,0.464,2.507,0.74,3.75c0.562,2.528,0.869,5.149,2.497,7.413
	C125.173,77.737,126.194,77.009,127.233,76.27z M124.921,103.193c0.775,0.136,1.43,0.054,1.77,0.342
	c2.308,1.956,4.901,1.941,7.644,1.341c0.58-0.127,1.534-0.233,1.77,0.072c0.672,0.873,1.427,0.588,2.166,0.447
	c1.959-0.374,3.919-0.765,5.85-1.26c0.793-0.203,1.513-0.691,2.566-1.193c-1.918-0.354-3.582,0.491-5.369-0.602
	c6.204,0.031,6.401-0.03,8.162-2.408c-0.07-0.03-0.151-0.098-0.211-0.083c-0.23,0.056-0.453,0.144-0.681,0.21
	c-3.831,1.115-7.654,2.194-11.735,1.61c-1.168-0.167-2.388,0.026-3.583,0.079c-0.096,0.004-0.184,0.19-0.272,0.29
	c0.404,0.136,0.809,0.272,1.213,0.408c-0.053,0.17-0.105,0.34-0.157,0.51c-3.072,0.312-5.603-1.239-8.226-2.962
	C125.518,101.084,125.266,101.974,124.921,103.193z M69.009,82.921c-1.07,2.503-0.989,4.295,0.177,6.014
	c1.057,1.557,2.358,3,3.131,4.686c0.879,1.917,2.3,3.187,3.894,4.356c0.591,0.434,1.331,0.601,1.966-0.346
	C75.239,92.917,72.273,88.159,69.009,82.921z M138.555,109.241c-2.149,0-4.3,0-6.449,0c0.279-0.287,0.572-0.327,0.866-0.337
	c0.374-0.014,0.75-0.003,1.125-0.003c-0.522-0.64-1.162-0.912-1.73-1.289c-0.454-0.302-0.764-0.881-1.243-1.07
	c-0.646-0.254-1.391-0.325-2.095-0.336c-0.587-0.009-1.177,0.182-1.867,0.302c-0.205-1.238-1.089-1.864-2.524-2.091
	c-0.129,0.67-0.242,1.258-0.315,1.634C128.46,110.17,133.096,111.626,138.555,109.241z M123.148,110.114
	c-1.047,2.497-0.756,3.021,2.162,3.306c1.103,0.107,2.219,0.301,3.312,0.224c1.941-0.136,3.758-0.704,5.291-2.173
	C130.232,111.006,126.734,110.565,123.148,110.114z M133.222,106.424c2.302,1.424,3.509,1.46,6.907,0.145
	c-2.18-0.206-3.962-0.397-5.748-0.523C134.051,106.022,133.703,106.259,133.222,106.424z M109.892,72.005
	c0.488-0.45,0.898-0.828,1.511-1.391c-0.892,0-1.455,0-2.099,0C109.516,71.115,109.666,71.47,109.892,72.005z M117.012,25.955
	c0.049-0.032,0.099-0.064,0.147-0.096c0-0.905,0-1.809,0-2.714c-0.049,0-0.099,0-0.147,0
	C117.012,24.081,117.012,25.018,117.012,25.955z M72.54,47.157c-0.752-0.063-1.056-0.119-1.355-0.104
	c-0.226,0.012-0.464,0.082-0.665,0.188c-0.198,0.105-0.356,0.288-0.532,0.437c0.066,0.091,0.132,0.182,0.199,0.272
	C70.829,47.734,71.471,47.518,72.54,47.157z M79.51,44.996c-0.05-0.166-0.1-0.333-0.149-0.499c-0.683,0.216-1.366,0.433-2.048,0.648
	c0.046,0.157,0.092,0.314,0.138,0.472C78.137,45.411,78.824,45.203,79.51,44.996z M141.57,107.883
	c-0.076-0.169-0.152-0.337-0.229-0.506c-0.527,0.237-1.056,0.475-1.584,0.712c0.061,0.143,0.12,0.285,0.181,0.426
	C140.482,108.305,141.026,108.094,141.57,107.883z M152.653,98.787c-0.07-0.126-0.141-0.252-0.212-0.379
	c-0.415,0.18-0.83,0.36-1.245,0.541c0.043,0.109,0.085,0.217,0.128,0.326C151.767,99.111,152.209,98.949,152.653,98.787z"/>
<path fill-rule="evenodd" clip-rule="evenodd" fill="#4197D3" d="M89.48,308.221c2.574-0.144,4.791-0.346,7.011-0.375
	c3.89-0.049,7.206-1.859,10.674-3.253c1.991-0.801,4.05-1.441,6.095-2.104c5.754-1.866,11.491-3.786,17.287-5.512
	c1.937-0.577,4.027-0.633,6.049-0.919c0.782-0.111,1.567-0.2,2.693-0.342c-0.418,0.874-0.719,1.624-1.117,2.318
	c-3.044,5.31-6.064,10.633-9.177,15.902c-2.714,4.594-5.528,9.129-8.327,13.673c-0.284,0.462-0.711,0.893-1.171,1.181
	c-2.447,1.533-2.77,3.91-2.15,6.324c0.381,1.487,0.046,2.527-0.833,3.468c-2.419,2.59-5.168,4.968-8.554,5.949
	c-5.485,1.589-9.917,4.706-13.901,8.545c-1.065,1.027-1.547,2.723-2.112,4.183c-0.356,0.921,0.217,1.712,1.042,2.204
	c1.532,0.914,3.151,1.447,4.975,1.08c0.594-0.119,1.212-0.12,1.964-0.188c-0.612,1.804-1.189,3.354-1.665,4.934
	c-1.402,4.655-1.655,9.387-1.04,14.211c0.271,2.128,0.062,4.313,0.288,6.451c0.162,1.543,0.68,3.049,1.045,4.596
	c1.058,0.125,1.831,0.217,2.775,0.329c0.03,1.276,0.351,2.529,1.622,3.327c1.878,1.179,3.657,0.401,3.953-1.8
	c0.187-1.379,0.3-2.768,0.844-4.204c0.243,0.792,0.511,1.578,0.724,2.378c0.286,1.076,0.872,1.791,1.955,2.227
	c2.268,0.911,3.957,0.105,4.051-2.303c0.099-2.535-0.155-5.084-0.254-7.627c-0.008-0.224-0.001-0.448-0.001-0.977
	c1.143,0.947,1.229,2.131,1.655,3.141c0.956,2.27,1.831,4.588,2.992,6.751c0.851,1.585,3.369,1.785,4.236,0.428
	c0.623-0.974,0.973-2.159,1.258-3.298c0.166-0.666,0.01-1.429-0.078-2.14c-0.256-2.062-0.462-4.135-0.851-6.173
	c-0.555-2.906,0.379-5.377,2.081-7.602c1.601-2.093,3.348-4.074,5.025-6.108c0.506-0.614,0.989-1.247,1.493-1.862
	c2.104-2.567,2.688-5.531,2.335-8.759c-0.325-2.978,0.073-5.881,1.167-8.657c0.393-0.996,1.07-1.88,1.691-2.939
	c0.98,0.696,1.718,1.304,2.532,1.78c2.003,1.171,3.202,0.718,3.562-1.559c0.786-4.96,3.422-9.089,5.889-13.254
	c2.927-4.941,6.097-9.743,9.29-14.519c2.834-4.237,5.827-8.368,8.791-12.516c0.675-0.945,1.52-1.768,2.523-2.92
	c1.078,3.406,2.16,6.384,2.963,9.437c2.292,8.72,4.642,17.432,6.622,26.225c0.978,4.34,1.399,8.839,1.675,13.291
	c0.17,2.753-0.462,5.549-0.636,8.332c-0.264,4.217-0.354,8.444-0.684,12.655c-0.28,3.573-0.751,7.134-1.218,10.689
	c-1.352,10.282-2.717,20.562-4.131,30.836c-0.786,5.709-0.907,11.437-0.86,17.188c0.028,3.345-0.26,6.691-0.364,10.039
	c-0.208,6.61-0.483,13.222-0.558,19.834c-0.106,9.498-0.031,18.998-0.097,28.496c-0.013,1.988-0.45,3.976-0.435,5.962
	c0.057,7.339,0.288,14.677,0.319,22.016c0.019,4.301-0.189,8.608-1.489,12.768c-0.26,0.832-0.549,1.662-0.909,2.455
	c-0.53,1.17-0.617,2.452,0.104,3.397c1.102,1.447,1.264,3.099,1.444,4.723c0.5,4.511,0.946,9.032,1.22,13.561
	c0.178,2.943,0.142,5.914-0.021,8.859c-0.286,5.18-0.705,10.353-1.14,15.522c-0.308,3.656-0.771,7.299-1.096,10.954
	c-0.376,4.216-0.759,8.435-0.992,12.66c-0.374,6.761-0.668,13.526-0.902,20.293c-0.055,1.578,0.261,3.17,0.412,4.755
	c0.293,3.074,0.59,6.148,0.891,9.286c-1.078,0.643-1.949,0.703-2.985-0.247c-1.315-1.206-2.854-1.919-4.787-1.22
	c-1.267,0.459-2.646,0.594-3.96,0.934c-2.512,0.65-4.869,0.084-7.237-0.738c-1.875-0.65-3.785-1.229-5.717-1.677
	c-2.842-0.659-5.28-0.058-7.266,2.327c-0.636,0.764-1.869,1.115-2.896,1.452c-1.954,0.641-3.837-0.05-6.127-0.086
	c1.563-3.943,3.641-6.79,6.368-9.191c1.646-0.022,3.3-0.147,4.935-0.028c0.931,0.067,1.833,0.531,2.747,0.817
	c2.379,0.745,4.557,0.676,6.208-1.532c-0.105-0.079-0.267-0.248-0.309-0.222c-2.262,1.362-4.521,1.093-6.877,0.191
	c-1.169-0.447-2.47-0.673-3.725-0.738c-1.203-0.062-1.773-0.621-1.936-1.679c-0.156-1.021-0.275-2.063-0.256-3.094
	c0.135-7.035,0.354-14.069,0.453-21.104c0.042-2.949-0.095-5.903-0.237-8.851c-0.117-2.394,0.122-4.72,0.543-7.088
	c0.53-2.982,0.653-6.038,0.934-9.063c0.641-6.926,1.287-13.852,1.894-20.781c0.215-2.454,0.166-4.94,0.509-7.373
	c0.494-3.508,0.733-7.034,1.733-10.507c0.603-2.095,0.112-4.612-0.291-6.867c-1.28-7.147-2.712-14.269-4.16-21.385
	c-0.825-4.051-1.794-8.072-2.706-12.105c-1.585-7-3.105-14.004-3.179-21.238c-0.037-3.67-0.101-7.354-0.447-11.004
	c-0.34-3.566-1.044-7.099-1.608-10.644c-1.205-7.558-2.598-15.092-3.582-22.678c-0.778-6.004-1.137-12.066-1.533-18.112
	c-0.187-2.854,0.074-5.734-0.066-8.594c-0.072-1.488-0.484-2.984-0.928-4.42c-0.209-0.675-0.854-1.215-1.363-1.9
	c-1.229,0.936-1.801,1.911-1.977,3.135c-1.423,9.877-4.195,19.439-6.777,29.046c-1.323,4.925-2.649,9.85-4,14.768
	c-0.653,2.382-1.344,4.755-2.058,7.119c-1.682,5.573-2.753,11.271-3.808,16.991c-1.341,7.276-2.726,14.561-5.09,21.612
	c-1.317,3.926-2.372,7.938-3.649,11.879c-1.205,3.712-2.575,7.371-3.813,11.073c-0.528,1.581-0.835,3.236-1.369,4.814
	c-0.737,2.178-1.585,4.318-2.407,6.467c-0.17,0.444-0.54,0.828-0.643,1.279c-0.901,3.953-1.848,7.9-2.576,11.887
	c-0.186,1.017,0.086,2.338,0.638,3.207c0.615,0.969,0.677,1.869,0.659,2.882c-0.046,2.553-0.043,5.108-0.16,7.658
	c-0.073,1.579-0.384,3.146-0.492,4.726c-0.172,2.537-0.33,5.078-0.374,7.619c-0.062,3.537-0.78,6.962-1.561,10.385
	c-1.046,4.585-2.218,9.148-3.06,13.771c-0.815,4.479-0.03,8.891,1.208,13.242c0.828,2.907,1.462,5.87,2.217,8.948
	c-3.601,0.123-7.096,0.273-10.593,0.339c-0.781,0.016-1.585-0.208-2.349-0.425c-2.125-0.601-4.26-0.583-6.417-0.249
	c-4.355,0.675-7.894-1.33-11.284-3.614c-0.451-0.305-0.501-1.45-0.462-2.192c0.13-2.466,0.329-4.932,0.604-7.386
	c0.513-4.568-0.244-9.038-0.89-13.525c-0.272-1.893-0.546-3.808-0.544-5.713c0.012-9.257-0.027-18.519,0.23-27.771
	c0.227-8.161,1.32-16.231,3.801-24.061c0.891-2.812,1.703-5.649,2.653-8.44c0.562-1.65,1.319-3.235,1.998-4.846
	c0.123-0.292,0.255-0.784,0.443-0.815c2.038-0.333,1.445-2.128,1.848-3.321c0.455-1.35,0.654-2.784,1.08-4.146
	c0.735-2.354,1.88-4.628,2.259-7.03c0.419-2.653,0.151-5.412,0.217-8.123c0.08-3.348,0.166-6.694,0.303-10.04
	c0.225-5.491,0.663-10.982-0.231-16.459c-0.116-0.707-0.22-1.438-0.174-2.148c0.385-5.967-0.556-11.975,0.673-17.923
	c0.449-2.176,0.459-4.438,0.749-6.65c0.163-1.245,0.584-2.458,0.723-3.704c0.396-3.537,0.542-7.11,1.094-10.62
	c0.694-4.404,1.741-8.752,2.551-13.14c1.115-6.04,2.225-12.082,3.205-18.146c1.464-9.063,2.836-18.143,4.197-27.224
	c0.378-2.523,0.458-5.094,0.886-7.606c0.493-2.896,1.266-5.744,1.833-8.63c1.432-7.281,2.756-14.583,4.246-21.853
	c0.833-4.067,1.909-8.085,2.871-12.125C88.837,311.011,89.155,309.619,89.48,308.221z M160.257,626.978
	c2.466,0.389,4.766,0.752,7.102,1.12c0.336-1.058,0.37-1.12-0.288-1.485c-1.722-0.955-3.59-1.339-5.54-1.072
	C160.834,625.636,160.122,625.944,160.257,626.978z"/>
<path fill-rule="evenodd" clip-rule="evenodd" fill="#4CC1EF" d="M93.652,150.99c0.962,1.587,1.796,3.224,2.873,4.682
	c2.032,2.753,4.151,5.447,6.337,8.08c1.325,1.596,2.862,3.013,4.271,4.541c2.22,2.411,3.46,5.34,4.367,8.436
	c0.359,1.225,0.76,2.438,1.077,3.673c0.369,1.432,1.267,1.676,2.465,1.316c0.163-0.187,0.345-0.296,0.358-0.423
	c0.553-5.254,3.125-9.865,4.778-14.761c1.632-4.833,3.511-9.603,5.627-14.244c1.313-2.882,3.371-5.415,4.906-8.208
	c1.532-2.787,2.885-5.677,4.207-8.571c0.791-1.732,1.33-3.578,2.062-5.339c0.527-1.27,1.574-1.808,2.695-1.062
	c4.965,3.306,10.603,2.45,16.048,2.813c0.716,0.048,1.438,0.022,2.155,0.039c0.074,0.002,0.147,0.058,0.309,0.125
	c-2.882,1.755-6.531,1.614-9.046,4.12c1.274-0.335,2.55-0.665,3.821-1.008c4.536-1.224,9.037-2.606,13.617-3.629
	c3.718-0.83,7.121-0.186,10.226,2.511c4.881,4.239,7.342,9.749,9.243,15.661c0.121,0.378,0.133,0.793,0.267,1.165
	c3.805,10.566,5.373,21.667,7.839,32.555c0.948,4.191,2.397,8.267,3.464,12.435c0.946,3.698,1.744,7.438,2.486,11.185
	c0.879,4.435,1.646,8.894,2.424,13.348c0.329,1.884,0.442,3.811,0.867,5.67c0.585,2.56,1.341,5.083,2.081,7.604
	c0.73,2.485,0.876,5.004,0.674,7.569c-0.156,1.986-0.275,3.976-0.368,5.965c-0.224,4.819-2.275,8.95-5.051,12.707
	c-3.229,4.37-6.623,8.623-10.078,12.817c-2.123,2.579-4.6,4.868-6.724,7.446c-2.076,2.521-3.861,5.279-5.858,7.869
	c-2.481,3.219-5.106,6.328-7.562,9.566c-2.496,3.291-4.9,6.654-7.277,10.033c-2.425,3.447-4.841,6.905-7.128,10.444
	c-3.239,5.014-6.326,10.126-9.535,15.161c-2.24,3.515-3.725,7.342-4.789,11.757c-1.035-0.793-1.998-1.202-2.444-1.929
	c-2.061-3.352-5.348-4.878-8.785-6.225c-2.109-0.826-4.31-1.174-6.569-1.115c-2.189,0.057-3.855-0.804-4.987-2.724
	c4.85-7.407,9.566-14.86,13.821-22.607c3.561-6.484,7.907-12.477,12.077-18.578c3.947-5.777,7.838-11.596,11.628-17.477
	c1.466-2.273,2.485-4.83,3.887-7.149c3.302-5.465,6.709-10.866,10.08-16.289c0.201-0.323,0.46-0.61,0.805-1.062
	c1.811,3.045,2.444,6.49,4.853,9.661c0.076-2.637-0.604-4.521-1.296-6.413c-0.518-1.417-0.962-2.859-1.435-4.292
	c-0.598-1.815-0.948-3.76-1.83-5.425c-3.368-6.359-6.191-12.947-8.768-19.656c-2.577-6.711-5.341-13.353-7.794-20.109
	c-1.904-5.247-3.716-10.556-5.097-15.957c-1.559-6.095-2.601-12.322-3.845-18.497c-0.679-3.372-1.222-6.761-0.998-10.226
	c0.032-0.506-0.081-1.022-0.16-1.905c-1.393,1.265-1.615,2.613-1.591,3.917c0.034,1.908,0.251,3.819,0.497,5.714
	c0.451,3.476,0.841,6.968,1.52,10.402c0.632,3.201,1.588,6.34,2.435,9.497c2.509,9.342,5.633,18.48,9.129,27.496
	c2.31,5.957,4.495,11.964,6.945,17.862c1.557,3.748,3.441,7.364,5.301,10.978c0.56,1.088,0.82,1.938,0.181,3.091
	c-1.698,3.062-3.309,6.174-4.902,9.293c-2.695,5.273-6.253,9.984-9.531,14.883c-1.767,2.64-3.282,5.474-4.665,8.339
	c-2.098,4.35-5.28,7.988-7.659,12.128c-1.355,2.36-3.211,3.355-5.719,3.577c-3.183,0.281-6.292,0.914-9.339,1.876
	c-6.68,2.111-13.36,4.22-20.05,6.304c-3.639,1.133-7.285,2.244-10.948,3.297c-0.985,0.283-2.04,0.416-3.066,0.441
	c-1.423,0.035-2.055-0.672-1.912-2.101c0.07-0.696,0.272-1.436,0.622-2.035c1.178-2.017,1.271-3.86,0.038-5.997
	c-0.762-1.321-0.871-3.05-1.139-4.618c-1.603-9.36-3.121-18.735-5.692-27.9c-0.406-1.449-0.566-2.985-0.683-4.494
	c-0.445-5.742-1.442-11.386-3.018-16.916c-1.508-5.292-3.001-10.597-4.811-15.789c-1.096-3.145-2.647-6.156-4.226-9.102
	c-3.839-7.163-6.861-14.571-7.75-22.738c-0.206-1.896-0.885-3.748-1.015-5.643c-0.197-2.86-0.151-5.74-0.119-8.611
	c0.035-3.069,1.161-5.717,3.127-8.098c2.971-3.596,6.488-6.602,9.973-9.652c0.962-0.841,2.063-1.566,2.868-2.537
	c2.352-2.84,5.417-4.656,8.613-6.311C90.024,152.747,91.745,151.931,93.652,150.99z"/>
<path fill-rule="evenodd" clip-rule="evenodd" fill="#FEE5D2" d="M62.89,68.41c1.315,0.243,2.666,0.369,3.938,0.754
	c2.609,0.79,5.027,0.481,7.379-0.846c2.773-1.565,5.633-2.988,8.34-4.659c1.608-0.992,2.993-2.346,4.481-3.533
	c1.742-1.389,3.549-2.702,5.216-4.174c3.448-3.043,7.827-3.791,12.012-5.02c2.059-0.604,4.102-1.194,6.303-1.27
	c1.473-0.051,2.925-0.685,4.522-1.093c2.503,4.314,2.25,9.06,2.263,13.843c-0.414-0.045-0.675-0.012-0.878-0.105
	c-3.979-1.825-7.05-0.177-9.9,2.506c-1.155,1.087-2.413,2.069-3.668,3.043c-0.273,0.211-0.733,0.181-1.162,0.274
	c0-0.63,0-1.124,0-1.632c-0.261,0.03-0.497-0.006-0.544,0.072c-0.49,0.81-1.306,1.617-1.356,2.465
	c-0.223,3.702-1.022,7.47,0.874,11.032c1.049,1.971,1.905,4.044,2.953,6.016c0.364,0.687,1.043,1.207,1.824,1.645
	c-1.738-4.913-5.7-9.046-4.664-14.995c0.589,0.307,1.042,0.542,1.494,0.777c0.986-0.738,1.976-1.479,3.073-2.3
	c0.225,0.954,0.397,1.688,0.584,2.481c-0.59,0.139-1.227,0.288-2.067,0.486c2.432,1.336,4.894,1.004,6.352-0.725
	c1.151-1.365,2.259-2.767,3.776-4.634c-1.836,0-3.053,0.049-4.265-0.013c-1.261-0.065-2.517-0.237-4.183-0.402
	c1.129-1.237,2.098-2.321,3.092-3.381c1.033-1.102,2.331-1.683,3.832-1.662c1.479,0.021,2.955,0.161,4.419,0.249
	c1.466,5.18,2.983,10.518,4.483,15.86c0.384,1.367,1.248,2.451,1.921,3.654c1.204,2.153,1.661,4.61,1.728,7.135
	c0.102,3.891-1.033,7.564-1.735,11.319c-0.836,4.468-3.059,8.378-4.97,12.406c-0.369,0.778-1.2,1.478-1.987,1.892
	c-2.356,1.239-4.896,1.872-7.59,1.794c-2.027-0.058-4.106,0.648-6.066-0.379c-2.39-1.252-4.796-2.478-7.145-3.803
	c-5.275-2.976-8.813-7.747-12.416-12.386c-2.818-3.63-5.453-7.42-7.932-11.29c-2.49-3.887-4.672-7.97-7.018-11.951
	c-1.374-2.333-2.794-4.638-4.211-6.946c-0.409-0.666-0.876-1.297-1.316-1.944C62.747,68.783,62.819,68.596,62.89,68.41z
	 M79.677,80.828l-0.036-0.061c-0.077,0.453-0.154,0.906-0.227,1.337c3.667,1.193,7.396-0.052,9.501-3.151
	c-1.13-0.824-1.859,0.499-2.929,0.508c-0.163-0.504-0.338-1.043-0.553-1.706c0.886-0.203,1.569-0.394,2.265-0.51
	c0.663-0.111,1.435,0.017,1.632-0.918c-2.45-1.156-6.881-0.406-8.946,1.389c-1.007,0.875-2.144,1.6-3.208,2.411
	c-0.348,0.266-0.653,0.588-1.043,0.943C77.521,82.009,78.63,81.767,79.677,80.828z M90.921,73.608
	c-0.998-0.988-2.187-1.239-3.517-1.161c-1.587,0.093-3.182,0.074-4.767,0.19c-1.9,0.139-3.802,0.304-5.687,0.573
	c-2.687,0.384-4.055,2.736-6.256,4.1c1.356,0.896,2.365,0.452,3.177-0.352c2.372-2.346,5.284-2.733,8.391-2.454
	c1.971,0.178,3.943,0.383,5.899,0.681C89.555,75.396,90.478,75.008,90.921,73.608z M98.673,94.217
	c0.185,0.091,0.444,0.15,0.605,0.309c1.973,1.941,3.853,0.295,5.763-0.131c0.45-1.355,1.755-1.391,2.789-1.886
	c0.323-0.154,0.413-0.797,0.607-1.21c-1.146-0.148-1.993-0.258-2.854-0.37c-0.451,1.114-0.883,2.256-2.417,2.227
	c-0.19-0.003-0.473,0.185-0.566,0.361c-0.874,1.649-1.958,0.816-2.996,0.259c-0.489-0.262-0.895-0.721-1.404-0.893
	c-0.613-0.206-1.528-0.507-1.905-0.225c-0.835,0.627-0.636,1.506,0.24,2.266C97.233,94.693,97.938,94.46,98.673,94.217z
	 M112.458,99.606c-0.228-0.158-0.473-0.471-0.68-0.447c-0.998,0.115-2.005,0.245-2.971,0.51c-1.506,0.413-3.02,1.423-4.461,1.31
	c-2.463-0.195-4.027,1.057-5.655,2.416c-0.264,0.221-0.264,0.758-0.531,1.617c0.678-0.411,0.937-0.528,1.148-0.702
	c1.649-1.359,3.434-2.229,5.677-1.944c0.567,0.072,1.211-0.285,1.791-0.515c1.748-0.693,3.356-1.802,5.35-1.766
	C112.206,100.085,112.291,99.854,112.458,99.606z M108.602,103.541c-1.848,0.778-4.198,0.124-6.064,2.197
	C105.097,105.43,107.279,105.638,108.602,103.541z"/>
<path fill-rule="evenodd" clip-rule="evenodd" fill="#FEE65E" d="M84.688,47.944c3.397,1.22,6.133,0.565,8.283-1.984l-0.004,0.005
	c1.061-0.946,2.23-1.797,3.15-2.864c0.865-1.003,1.466-2.233,2.304-3.31c-0.215,2.55-1.082,4.886-2.288,7.096
	c-1.366,2.502-3.446,4.392-5.623,6.157c-0.52,0.421-1.269,0.631-1.947,0.773c-2.386,0.503-4.799,0.53-7.229,0.195
	c1.988,1.101,4.171,0.405,6.707,0.753c-0.949,0.97-1.59,1.858-2.439,2.446c-1.881,1.302-3.559,2.847-4.986,4.574
	c-1.549,1.874-3.439,2.419-5.679,2.399c-0.939-0.008-1.879-0.001-2.823,0.417c1.063,0,2.126,0,3.19,0
	c-1.651,1.424-3.481,2.068-5.554,2.03c-2.078-0.038-4.192-0.267-6.224,0.035c-2.139,0.318-3.893-1.193-5.933-0.975
	c-0.545,1.137,0.121,1.633,0.865,1.925c1.674,0.658,2.575,2.049,3.523,3.427c1.128,1.639,2.342,3.222,3.41,4.898
	c0.678,1.065,1.244,2.224,1.683,3.407c0.188,0.506-0.009,1.196-0.148,1.773c-0.372,1.538-1.048,3.047-1.137,4.594
	c-0.064,1.108,0.595,2.27,0.993,3.385c0.129,0.36,0.474,0.638,0.689,0.974c1.03,1.611,2.049,3.229,3.071,4.845
	c-0.58,2.23-0.935,4.552-1.797,6.668c-1.097,2.691-2.603,5.215-3.839,7.858c2.884-3.868,5.207-8.014,6.023-13.16
	c1.793,1.44,3.306,2.655,5.043,4.05c0.531,1.717-0.001,3.696-0.481,5.592c-0.363,1.433-0.536,2.694,0.397,4.015
	c1.644-3.156,1.224-7.13,3.393-10.178c1.628,0.988,1.833,2.297,1.699,3.557c-0.36,3.4-0.875,6.784-1.331,10.173
	c-0.074,0.551-0.165,1.101-0.247,1.651c-1.125,1.026-1.351,2.442-1.449,3.901c0.466-1.315,0.933-2.629,1.399-3.944
	c0.926-0.253,1.374-0.852,1.623-1.799c0.747-2.848,1.604-5.667,2.469-8.678c2.031,2.162,1.548,4.583,0.938,6.829
	c-0.642,2.367-1.694,4.626-2.638,6.903c-0.23,0.556-0.599,1.108,0.138,1.348c0.299,0.098,1.063-0.378,1.191-0.742
	c1.19-3.369,2.287-6.771,3.464-10.323c1.27,3.711,0.169,7.442,0.03,11.128c0.174,0.031,0.347,0.062,0.521,0.093
	c0.875-2.176,1.75-4.353,2.681-6.666c1.041,1.709,1.084,3.51,0.527,5.212c-0.885,2.701-2.028,5.317-3.242,8.433
	c-0.674-1.142-1.066-1.808-1.564-2.651c-0.646,1.663-1.12,3.148-1.795,4.535c-0.52,1.068-0.643,1.016-4.119,1.303
	c0.524-0.93,0.786-1.93,1.434-2.438c1.602-1.256,1.673-1.166,0.25-2.848c-0.524,1.065-1.115,2.073-1.528,3.15
	c-0.655,1.708-1.814,2.532-3.766,2.417c-0.29-0.683-0.602-1.42-0.953-2.248c-0.915,1.127-1.688,2.08-2.349,2.892
	c-1.635-0.42-3.002-0.771-4.51-1.159c-0.463,2.104-1.839,3.602-3.414,4.98c-0.442,0.387-0.931,0.931-1.021,1.467
	c-0.24,1.426-1.309,1.514-2.744,2.089c0.444-0.831,0.646-1.226,0.862-1.612c1.974-3.512,1.306-7.09,0.043-10.571
	c-0.275-0.757-1.545-1.154-2.677-1.938c-0.219,0.86-0.4,1.411-0.498,1.977c-0.622,3.609-2.359,6.413-5.753,8.031
	c-0.212,0.101-0.448,0.154-0.677,0.213c-0.07,0.018-0.153-0.019-0.457-0.064c0.477-1.438,2.005-1.996,2.572-3.195
	c0.572-1.209,0.815-2.571,1.33-3.814c0.528-1.277,1.328-2.459,1.194-4.121c-4.912,4.545-7.724,5.988-11.522,5.879
	c0.426-1.062,0.674-2.168,1.26-3.05c1.727-2.601,1.774-5.543,1.983-8.472c0.033-0.464,0.131-0.925,0.206-1.386
	c0.109-0.671,0.111-0.67-0.81-1.781c-0.086,0.241-0.234,0.441-0.208,0.616c0.351,2.379,0.425,3.039-2.872,3.966
	c-1.661,0.467-3.447,0.554-5.185,0.635c-0.463,0.021-0.997-0.572-1.401-0.979c-0.07-0.071,0.267-0.73,0.549-0.928
	c0.559-0.393,1.176-0.467,1.696,0.173c0.194,0.238,0.471,0.408,0.936,0.488c-0.214-0.405-0.428-0.81-0.716-1.355
	c1.131-1.069,2.288-2.162,3.444-3.255c-0.093-0.114-0.187-0.228-0.28-0.342c-1.11,0.768-2.221,1.536-3.282,2.27
	c-0.628-0.706-1.046-1.384-1.648-1.792c-0.549-0.373-1.297-0.452-1.953-1.051c0.311-0.047,0.62-0.108,0.932-0.137
	c2.946-0.271,4.982-1.619,6.232-4.454c1.044-2.369,2.589-4.516,4.11-7.099c0,0.82,0,1.228,0,1.787
	c0.333-0.174,0.644-0.232,0.691-0.376c1.226-3.789,2.721-7.521,3.566-11.395c1.649-7.557,2.741-15.219,3.216-22.956
	c0.108-1.75,0.313-3.502,0.594-5.233c0.538-3.311,2.214-6.071,4.455-8.564c-0.711,3.123-3.261,5.736-2.568,9.337
	c1.419-0.786,0.517-2.219,0.984-3.21c0.508-1.078,0.98-2.171,1.504-3.336c0.495,0.154,0.903,0.282,1.27,0.396
	c3.453-7.479,9.119-11.008,17.452-10.104c-0.152,0.332-0.287,0.625-0.578,1.26c2.083,0.04,3.844-1.508,5.788-0.784L84.688,47.944z
	 M70.336,119.969c0.413-0.578,0.827-1.156,1.24-1.734c-0.155-0.078-0.311-0.156-0.467-0.234c-0.234,0.676-0.469,1.353-0.71,2.024
	c-0.871,0.133-1.145,0.746-1.065,1.623C69.668,121.088,70.002,120.529,70.336,119.969z M59.737,116.617
	c-1.061,0.816-1.96,1.718-1.674,3.232c-0.495,0.239-1.375,0.104-1.08,1.227c2.207,0.145,3.82-1.029,5.378-2.345
	c-1.329,0.408-2.616,0.927-3.916,1.41c-0.084,0.031-0.276-0.224-0.434-0.373c0.559-1.066,1.118-2.132,1.677-3.198
	c0.414-0.377,0.829-0.754,1.244-1.132c-0.14-0.122-0.279-0.243-0.419-0.364C60.254,115.589,59.996,116.103,59.737,116.617z
	 M55.385,93.568c-1.521,1.255-1.841,3.164-2.818,4.715c0.165,0.086,0.33,0.172,0.495,0.258c0.759-1.672,1.517-3.344,2.277-5.016
	c1.296-0.992,1.543-2.545,2.337-3.806c-0.144-0.073-0.288-0.146-0.432-0.22C56.624,90.855,56.005,92.212,55.385,93.568z
	 M77.443,52.765c0.568,0.303,1.137,0.606,1.706,0.909c0.063-0.197,0.126-0.395,0.19-0.592c-0.65-0.084-1.299-0.169-1.949-0.254
	c-1.974-1.132-3.456-1.278-5.306-0.404C74.003,52.547,75.722,52.658,77.443,52.765z M65.455,55.129
	c1.688-0.799,3.377-1.598,5.065-2.397c-1.936-0.015-3.427,0.79-5.021,2.446c-1.722,0.288-1.775,1.569-1.904,2.805
	c0.154,0.083,0.308,0.166,0.462,0.249C64.522,57.197,64.988,56.163,65.455,55.129z M58.42,87.504
	c2.208-4.209,1.967-8.591,2.875-12.949c-0.405,0.259-0.737,0.355-0.764,0.504C59.828,79.09,59.155,83.125,58.42,87.504z
	 M61.615,96.193c1.73-2.603,2.849-7.404,2.024-9.283C62.939,90.121,62.308,93.017,61.615,96.193z M67.646,64.119
	c-1.825-0.552-3.65-1.104-5.476-1.656c-0.04,0.153-0.08,0.306-0.121,0.459C63.806,63.749,65.654,64.222,67.646,64.119z
	 M72.476,59.801c-1.282-0.542-2.548-1.1-3.841-1.588c-0.135-0.051-0.425,0.309-0.838,0.631
	C69.478,59.436,70.773,60.505,72.476,59.801z M64.153,117.176c0.131,0.126,0.262,0.253,0.393,0.379
	c1.209-1.122,2.417-2.244,3.626-3.366c-0.115-0.127-0.231-0.255-0.347-0.383C66.602,114.93,65.377,116.053,64.153,117.176z
	 M68.974,112.727c0.102,0.087,0.203,0.174,0.304,0.261c0.803-0.873,1.605-1.746,2.407-2.619c-0.106-0.091-0.213-0.182-0.32-0.273
	C70.567,110.973,69.771,111.85,68.974,112.727z M68.707,60.967c-1.412,1.045-1.412,1.045-1.412,2.378
	C67.781,62.527,68.178,61.857,68.707,60.967z M44.528,112.224c1.142-0.166,1.142-0.166,0.551-1.249
	C44.898,111.386,44.719,111.793,44.528,112.224z M75.903,122.396c-0.108-0.103-0.216-0.206-0.324-0.309
	c-0.263,0.361-0.525,0.722-0.788,1.083c0.083,0.057,0.167,0.114,0.25,0.17C75.329,123.025,75.616,122.711,75.903,122.396z
	 M50.515,115.538c0.19,0.014,0.38,0.028,0.57,0.043c-0.042-0.448-0.084-0.896-0.126-1.344c-0.104,0.003-0.206,0.007-0.309,0.011
	C50.605,114.677,50.561,115.107,50.515,115.538z M62.186,112.667c0.113,0.112,0.226,0.225,0.338,0.336
	c0.309-0.393,0.618-0.786,0.927-1.18c-0.086-0.074-0.173-0.148-0.259-0.222C62.856,111.956,62.521,112.312,62.186,112.667z
	 M60.186,99.309c0.098,0.04,0.196,0.08,0.293,0.12c0.205-0.481,0.409-0.961,0.614-1.442c-0.103-0.042-0.207-0.085-0.31-0.128
	C60.584,98.342,60.385,98.825,60.186,99.309z"/>
<path fill-rule="evenodd" clip-rule="evenodd" fill="#434244" d="M78.071,613.005c0.621,3.836,1.105,7.378,1.798,10.88
	c0.352,1.78,1.185,3.461,1.606,5.232c0.416,1.748,0.628,3.55,0.846,5.338c0.085,0.702-0.091,1.432-0.085,2.148
	c0.017,2.226-1.03,3.893-2.567,5.414c-4.903,4.852-10.985,6.515-17.642,6.673c-3.982,0.095-7.933-0.031-11.82-1.127
	c-3.91-1.103-7.197-2.922-9.141-6.69c-1.115-2.162-1.345-4.295-0.675-6.683c1.215-4.329,3.334-8.229,5.292-12.223
	c0.941-1.919,1.691-3.959,2.28-6.015c0.65-2.268,1.636-4.315,3.142-6.1c1.114-1.319,1.889-1.502,3.033-0.441
	c2.871,2.661,6.3,2.916,9.828,2.309c2.704-0.466,5.238-0.178,7.73,0.76C73.67,613.223,75.64,613.686,78.071,613.005z"/>
<path fill-rule="evenodd" clip-rule="evenodd" fill="#FEE5D2" d="M107.415,350.349c-0.839,0.76-1.403,1.146-1.807,1.657
	c-1.28,1.625-2.562,3.257-3.718,4.971c-0.488,0.726-0.996,1.159-1.852,1.278c-0.866,0.121-1.729,0.295-2.576,0.513
	c-1.646,0.423-2.959-0.082-4.076-1.315c0.332-2.312,2.026-3.637,3.646-4.853c3.959-2.97,8.355-5.114,13.006-6.873
	c3.116-1.179,5.675-3.431,7.799-6.068c0.449-0.557,0.879-1.131,1.111-1.432c1.956,0.036,3.68,0.25,5.358,0.063
	c4.691-0.521,8.429,0.974,11.189,4.701c-0.694,1.809-1.334,3.511-2.001,5.203c-1.178,2.99-0.938,6.132-0.893,9.225
	c0.041,2.73-0.941,4.979-2.622,7.001c-1.686,2.028-3.496,3.958-5.104,6.045c-2.521,3.271-3.992,6.874-3.047,11.138
	c0.396,1.788,0.689,3.602,0.954,5.415c0.317,2.165-0.246,3.065-2.483,4.089c-2.257-2.379-3.415-5.357-3.913-8.505
	c-0.331-2.087,0.014-4.28,0.04-6.427c0.016-1.182,0.621-1.979,1.386-2.857c0.855-0.984,1.413-2.269,1.919-3.497
	c0.188-0.456-0.14-1.123-0.315-2.207c-3.737,5.4-6.968,10.334-6.305,16.783c0.17,1.652,0.023,3.344-0.054,5.014
	c-0.044,0.971-0.339,1.876-1.405,2.4c-1.061-0.77-1.711-1.775-2.069-3.069c-1.562-5.64-1.404-11.14,1.156-16.482
	c0.309-0.645,0.672-1.284,0.834-1.968c0.107-0.45-0.1-0.976-0.182-1.583c-1.106,0.246-1.606,0.766-1.847,1.583
	c-0.853,2.896-1.973,5.744-2.493,8.698c-0.648,3.683-0.797,7.452-1.174,11.184c-0.1,0.982,0.196,2.23-1.311,2.424
	c-0.926,0.119-1.574-0.879-1.562-2.523c0.011-1.507,0.515-3.104,0.155-4.495c-0.497-1.924-0.082-3.773-0.22-5.646
	c-0.198-2.7,0.532-5.188,1.69-7.589c0.346-0.719,0.752-1.45,0.884-2.218c0.118-0.692-0.101-1.443-0.416-2.194
	c-1.596,2.012-2.302,4.334-3.09,6.623c-1.131,3.283-0.297,6.659-0.494,9.986c-0.057,0.955,0.086,1.946-0.125,2.86
	c-0.138,0.596-0.678,1.442-1.165,1.54c-1.015,0.204-1.309-0.798-1.368-1.581c-0.116-1.508-0.066-3.029-0.104-4.544
	c-0.055-2.233-0.1-4.468-0.197-6.7c-0.158-3.62-0.013-7.283,1.476-10.568c1.527-3.37,2.686-6.969,5.179-9.883
	c0.957-1.118,1.498-2.597,2.187-3.934C107.514,351.506,107.415,351.169,107.415,350.349z"/>
<path fill-rule="evenodd" clip-rule="evenodd" fill="#434244" d="M168.87,664.995c0,0.712-0.052,1.428,0.011,2.134
	c0.12,1.352-0.456,2.331-1.554,3.013c-3.792,2.352-7.555,4.804-11.971,5.832c-1.765,0.41-3.628,0.67-5.429,0.592
	c-2.293-0.1-4.573-0.578-6.847-0.967c-0.61-0.104-1.211-0.415-1.756-0.734c-5.323-3.12-9.117-9.329-7.87-15.881
	c0.785-4.125,1.374-8.289,2.233-12.397c0.405-1.936,1.213-3.791,1.889-5.665c2.007-5.562,7.013-5.742,10.553-4.521
	c1.868,0.645,3.767,1.279,5.509,2.189c1.626,0.851,3.011,0.622,4.542-0.095c1.144-0.535,2.351-1.04,3.582-1.254
	c2.007-0.348,2.823,0.335,3.09,2.317c0.635,4.729,1.206,9.466,1.871,14.189c0.177,1.257,0.64,2.47,0.898,3.717
	c0.515,2.487,0.979,4.984,1.466,7.477C169.014,664.96,168.942,664.978,168.87,664.995z"/>
<path fill-rule="evenodd" clip-rule="evenodd" fill="#FEE5D2" d="M92.354,114.352c1.417,0.817,2.947,1.824,4.582,2.612
	c2.719,1.31,5.413,2.835,8.296,3.59c2.148,0.562,4.593,0.204,6.88-0.018c3.492-0.338,6.716-1.396,8.921-4.427
	c0.181-0.248,0.481-0.408,0.76-0.636c1.06,0.354,2.107,0.709,3.158,1.054c2.505,0.82,3.77,2.861,2.926,5.372
	c-1.413,4.204-1.705,8.574-2.421,12.893c-0.948,5.714-3.141,11.075-6.201,15.981c-2.246,3.602-3.45,7.519-4.483,11.543
	c-0.249,0.972-0.449,1.957-0.759,3.314c-0.364-0.623-0.57-0.814-0.579-1.013c-0.156-3.849-2.661-6.604-4.757-9.389
	c-3.113-4.137-6.524-8.09-10.145-11.793c-3.173-3.246-4.821-7.06-5.708-11.346c-0.372-1.798-0.577-3.636-1.027-5.412
	c-0.511-2.013-0.078-3.966,0.081-5.944C92.047,118.62,92.195,116.505,92.354,114.352z"/>
<path fill-rule="evenodd" clip-rule="evenodd" fill="#FEE65E" d="M143.04,99.986c-4.049,0.881-8.13,1.739-12.169,0.152
	c-1.407-0.554-2.665-1.542-3.907-2.448c-0.682-0.498-0.492-1.042,0.583-2.137c2.111,1.042,4.111,2.66,6.696,2.132
	c0.454-1.017-0.241-1.271-0.786-1.55c-1.133-0.58-2.286-1.119-3.438-1.66c-1.491-0.701-2.651-1.558-2.663-3.482
	c-0.008-1.147-0.43-2.292-0.677-3.494c2.472,0.105,2.114,2.671,3.815,3.773c-0.143-0.665-0.215-1.005-0.332-1.552
	c0.907,0.271,1.733,0.517,2.56,0.764c-5.746-4.035-5.746-4.035-6.388-6.004c0.838,0.325,1.515,0.618,2.212,0.849
	c0.642,0.213,1.306,0.359,2.29,0.623c-0.413-0.633-0.613-0.939-0.808-1.242c0.507,0.181,1.008,0.356,1.743,0.615
	c-0.398-0.753-0.687-1.298-1.075-2.034c-0.284,0.656-0.456,1.053-0.628,1.45c-2.352-0.125-3.526-1.978-4.906-3.454
	c-0.63-0.674-0.158-1.407,0.642-1.674c2.441-0.815,2.727-2.554,2.307-4.783c-0.649-3.447-1.161-6.919-1.744-10.378
	c-0.079-0.471-0.189-0.947-0.365-1.389c-0.749-1.875-1.777-2.376-3.763-1.874c-0.369,0.093-0.737,0.189-1.396,0.358
	c-0.671-5.354-1.328-10.535-1.94-15.721c-0.026-0.225,0.356-0.498,0.744-1.004c0.439,1.098,0.835,2.004,1.168,2.934
	c1.496,4.179,3.667,7.951,6.64,11.263c1.239,1.38,2.54,2.63,4.3,3.351c0.785,0.322,1.487,0.845,2.634,1.514
	c-1.478,0.644-2.524,0.93-3.725,0.831c-0.379-0.031-1.121,0.342-1.122,0.534c-0.002,0.459,0.21,1.144,0.56,1.341
	c1.104,0.622,2.281,1.141,3.481,1.553c2.621,0.901,5.273,1.71,8.091,2.615c-1.441,1.195-3.047,1.557-4.873,1.896
	c0.288,0.687,0.548,1.304,0.788,1.877c2.674,0.668,5.262,1.316,7.998,2c-1.223,1.783-3.123,1.946-4.955,2.077
	c-0.581,1.322,0.188,1.663,1.125,1.888c2.092,0.503,4.188,0.988,6.272,1.515c0.512,0.129,0.989,0.391,1.707,0.684
	c-1.19,0.775-2.188,1.418-3.177,2.073c-0.324,0.215-0.739,0.397-0.916,0.707c-0.26,0.456-0.575,1.091-0.435,1.501
	c0.124,0.359,0.818,0.637,1.305,0.735c1.38,0.28,2.781,0.601,4.179,0.619c1.361,0.018,2.727-0.326,4.092-0.498
	c0.692-0.087,1.39-0.143,2.286-0.233c-0.91,2.564-2.012,4.729-4.238,6.094c-1.491,0.915-2.996,1.824-4.569,2.583
	c-1.722,0.831-3.531,1.469-5.549,1.451c0.913,0.088,1.826,0.177,2.578,0.25c-0.726,0.65-1.511,1.353-2.295,2.055L143.04,99.986z
	 M148.724,89.068c-0.032-0.059-0.064-0.117-0.096-0.176c-0.724,0.051-1.448,0.101-2.172,0.151c0.017,0.129,0.034,0.258,0.052,0.387
	C147.247,89.31,147.985,89.189,148.724,89.068z M136.768,87.523c-0.021,0.064-0.043,0.129-0.064,0.194
	c0.413,0.138,0.827,0.275,1.24,0.414c0.019-0.056,0.036-0.112,0.055-0.168C137.588,87.816,137.178,87.669,136.768,87.523z"/>
<path fill-rule="evenodd" clip-rule="evenodd" fill="#4CC1EF" d="M128.123,116.594c3.324-1.304,6.555-2.572,9.934-3.897
	c0.372,0.537,0.764,1.101,1.371,1.977c-0.82,0.684-1.623,1.325-2.395,2.001c-1.444,1.266-2.283,2.844-2.426,4.782
	c-0.222,3.021-0.371,6.052-0.731,9.058c-0.205,1.717-0.724,3.402-1.173,5.082c-1.137,4.24-3.592,7.767-6.007,11.352
	c-1.32,1.96-2.304,4.187-3.185,6.395c-2.484,6.225-4.834,12.503-7.246,18.757c-0.134,0.348-0.343,0.666-0.906,0.951
	c0-1.533-0.198-3.098,0.037-4.594c0.732-4.653,1.734-9.255,3.675-13.587c0.39-0.868,0.857-1.718,1.403-2.496
	c2.089-2.973,3.4-6.299,4.57-9.703c0.565-1.646,1.504-3.204,1.821-4.887c0.538-2.859,0.653-5.796,1.072-8.682
	c0.271-1.867,0.588-3.764,1.21-5.533c0.668-1.9,0.278-3.576-0.379-5.303C128.547,117.683,128.319,117.102,128.123,116.594z"/>
<path fill-rule="evenodd" clip-rule="evenodd" fill="#4CC1EF" d="M83.191,135.757c0.55-0.476,1.031-1.094,1.662-1.402
	c1.934-0.942,3.259-2.214,3.305-4.542c0.012-0.625,0.438-1.242,1.086-1.8c0.521,1.956,1.369,3.893,1.481,5.871
	c0.156,2.729,1.695,4.745,2.883,6.923c2.764,5.07,6.944,9.102,10.396,13.672c1.772,2.347,3.528,4.72,5.469,6.926
	c2.391,2.719,2.767,6.003,3.049,9.357c0.053,0.629,0.008,1.267,0.008,1.894c-0.198,0.016-0.437,0.067-0.452,0.03
	c-1.642-4.087-5.212-6.579-8.048-9.667c-1.628-1.772-3.02-3.646-4.243-5.735c-2.179-3.714-4.573-7.311-7.049-10.836
	c-1.277-1.821-1.962-3.809-2.436-5.894c-0.618-2.721-1.921-3.978-4.685-4.177c-0.702-0.05-1.41-0.007-2.114-0.007
	C83.398,136.166,83.294,135.961,83.191,135.757z"/>
<path fill-rule="evenodd" clip-rule="evenodd" fill="#FEE65E" d="M107.272,44.511c0.055-0.458,0.109-0.915,0.242-2.012
	c-2.258,1.993-4.104,3.622-5.663,4.998c1.051-1.743,2.282-3.784,3.514-5.825l-0.09,0.092c0.484-1.14,0.969-2.279,1.454-3.418
	l0.01-0.012c1.093-2.01,2.172-4.029,3.284-6.028c0.965-1.732,1.969-3.443,3.015-5.266c0.377,0.471,0.605,0.755,0.957,1.194
	c0.552-0.8,1.055-1.53,1.559-2.261c0.115,0.041,0.23,0.082,0.346,0.123c-0.131,0.798-0.262,1.596-0.446,2.723
	c0.549-0.493,0.888-0.798,1.539-1.382c-0.316,1.067-0.531,1.791-0.892,3.006c0.697-0.438,1.369-0.641,1.398-0.912
	c0.209-2.006,1.675-3.17,2.812-4.581c0.736-0.913,1.28-1.98,2.262-2.857c-0.53,2.033-0.865,4.144-1.646,6.076
	c-0.749,1.855-1.981,3.494-4.435,3.248c0.821,0.207,1.643,0.414,2.607,0.657c0.502-0.613,1.023-1.201,1.488-1.83
	c0.423-0.573,0.785-1.191,1.327-2.025c0.12,0.573,0.189,0.902,0.277,1.322c1.023,0,2.071,0,3.576,0
	c-1.261,1.128-2.235,2-3.346,2.995c0.548-0.064,1.002-0.119,1.452-0.172c-1.167,5.524-4.865,10.75-9.567,13.194
	c0.614-1.014,1.061-1.75,1.506-2.486c-0.077-0.061-0.153-0.122-0.23-0.183c-1.054,0.969-2.108,1.938-3.162,2.907
	c-0.103-0.082-0.206-0.164-0.309-0.246c0.777-1.682,1.556-3.363,2.332-5.043c-0.002,0.001-0.036,0.038-0.036,0.038
	c2.294-2.801,2.952-5.899,1.554-8.478c-0.744,1.598-1.399,3.004-2.056,4.411l0.08-0.098c-0.954,0.444-1.431,1.208-1.501,2.244
	c-0.467,0.457-0.935,0.913-1.402,1.37c-0.658,0.906-1.317,1.811-1.976,2.717l0.07-0.095
	C108.542,43.245,107.907,43.878,107.272,44.511z M109.77,37.464c2.113-0.532,0.875-2.592,1.667-3.739
	c0.068-0.1-0.311-0.507-0.457-0.734c-0.424,1.573-0.813,3.025-1.192,4.493c-0.15,0.756-0.301,1.513-0.451,2.269
	c0.145,0.005,0.289,0.009,0.434,0.014C109.77,38.999,109.77,38.232,109.77,37.464z M119.347,32.163
	c0.232,3.542-1.161,6.15-2.487,8.78C119.187,38.969,120.74,34.2,119.347,32.163z"/>
<path fill-rule="evenodd" clip-rule="evenodd" fill="#FEE5D2" d="M127.233,76.27c-1.039,0.74-2.06,1.467-3.165,2.254
	c-1.628-2.264-1.935-4.885-2.497-7.413c-0.276-1.244-0.459-2.508-0.74-3.75c-0.704-3.114,0.386-4.411,3.931-4.335
	C125.561,67.309,126.37,71.646,127.233,76.27z"/>
<path fill-rule="evenodd" clip-rule="evenodd" fill="#FEE65E" d="M124.921,103.193c0.345-1.219,0.597-2.109,0.905-3.199
	c2.623,1.723,5.153,3.274,8.226,2.962c0.052-0.17,0.104-0.34,0.157-0.51c-0.404-0.136-0.809-0.272-1.215-0.407
	c0.091-0.101,0.179-0.287,0.274-0.291c1.195-0.052,2.415-0.246,3.583-0.079c4.081,0.584,7.904-0.495,11.735-1.61
	c0.228-0.067,0.45-0.155,0.681-0.21c0.06-0.015,0.141,0.053,0.211,0.083c-1.761,2.378-1.958,2.438-8.162,2.408
	c1.787,1.093,3.451,0.248,5.369,0.602c-1.054,0.502-1.773,0.99-2.566,1.193c-1.931,0.495-3.891,0.887-5.85,1.26
	c-0.739,0.141-1.494,0.425-2.166-0.447c-0.235-0.305-1.189-0.199-1.77-0.072c-2.742,0.6-5.336,0.615-7.644-1.341
	C126.351,103.247,125.697,103.329,124.921,103.193z"/>
<path fill-rule="evenodd" clip-rule="evenodd" fill="#FEE65E" d="M102.095,40.316c-0.588,0.367-1.177,0.735-2.068,1.292
	c0.059-0.807,0.028-1.32,0.143-1.798c0.33-1.386,0.529-2.73,0.452-4.205c-0.064-1.242,0.581-2.604,1.187-3.77
	c0.495-0.952,1.396-1.692,2.397-2.851c0.014,1.491-0.02,2.757,1.553,3.311c0.238-2.81,3.056-3.949,3.904-6.41
	c0.212,2.97-0.195,4.584-1.855,7.007c-0.897,1.309-1.98,2.488-2.938,3.757c-0.615,0.814-1.154,1.687-1.725,2.53
	C102.796,39.557,102.446,39.937,102.095,40.316z"/>
<path fill-rule="evenodd" clip-rule="evenodd" fill="#FEE5D2" d="M69.009,82.921c3.264,5.237,6.229,9.996,9.168,14.71
	c-0.635,0.947-1.375,0.78-1.966,0.346c-1.593-1.17-3.014-2.44-3.894-4.356c-0.773-1.686-2.075-3.128-3.131-4.686
	C68.02,87.217,67.939,85.424,69.009,82.921z"/>
<path fill-rule="evenodd" clip-rule="evenodd" fill="#FEE65E" d="M84.762,48.009c-0.147-0.275-0.294-0.549-0.501-0.938
	c5.101-2.433,7.774-6.832,9.584-12.526c1.163,2.263,1.822,3.915,0.747,5.816c-1.159,2.049-2.245,4.141-3.46,6.155
	c-0.288,0.477-0.935,0.944-1.473,1.022c-1.643,0.238-3.312,0.283-4.971,0.404C84.688,47.944,84.762,48.009,84.762,48.009z"/>
<path fill-rule="evenodd" clip-rule="evenodd" fill="#FEE65E" d="M89.939,40.758c-0.73,1.108-1.24,2.501-2.234,3.268
	c-2.266,1.747-4.716,3.288-7.829,3.026c-1.178-0.099-2.372-0.016-3.635-0.337c0.541-0.2,1.074-0.424,1.624-0.595
	c2.203-0.683,4.421-1.316,6.604-2.058c0.334-0.113,0.508-0.698,0.958-1.364c-1.483,0-2.492,0-3.62,0
	c1.291-2.443,2.495-4.722,3.716-7.033c1.031,1.436,1.031,1.436,1.35,6.818c1.548,0.39,1.955-1.395,3.118-1.677L89.939,40.758z"/>
<path fill-rule="evenodd" clip-rule="evenodd" fill="#FEE65E" d="M138.555,109.241c-5.459,2.385-10.095,0.929-14.233-3.19
	c0.073-0.376,0.187-0.964,0.315-1.634c1.436,0.228,2.319,0.853,2.524,2.091c0.69-0.12,1.28-0.311,1.867-0.302
	c0.704,0.011,1.449,0.082,2.095,0.336c0.479,0.189,0.789,0.768,1.243,1.07c0.568,0.377,1.208,0.649,1.73,1.289
	c-0.375,0-0.751-0.01-1.125,0.003c-0.294,0.01-0.587,0.05-0.866,0.337C134.255,109.241,136.406,109.241,138.555,109.241z"/>
<path fill-rule="evenodd" clip-rule="evenodd" fill="#FEE65E" d="M114.409,40.542c0,0,0.034-0.037,0.036-0.038
	c-0.796,0.75-1.603,1.492-2.387,2.256c-1.472,1.435-2.897,2.919-4.41,4.31c-0.678,0.623-1.482,1.195-2.521,0.82
	c0.733-1.159,1.434-2.267,2.134-3.374c1.367,0.098,1.624-0.92,1.917-1.904l-0.07,0.095c0.658-0.906,1.317-1.811,1.976-2.717
	c0.468-0.457,0.936-0.913,1.402-1.37c0.501-0.748,1.001-1.496,1.501-2.244l-0.08,0.098c0.549-0.62,1.097-1.24,1.822-2.06
	c0.515,1.369,0.136,2.326-0.191,3.265C115.2,38.647,114.788,39.589,114.409,40.542z"/>
<path fill-rule="evenodd" clip-rule="evenodd" fill="#FEE65E" d="M92.971,45.96c0.714-1.915,1.235-3.934,2.194-5.717
	c1.097-2.037,0.76-3.826-0.225-5.657c-0.728-1.353-0.769-1.331-0.047-3.005c0.586,0.102,1.174,0.204,2.047,0.354
	c0,1.745,0,3.531,0,5.317c0.172,0.024,0.343,0.049,0.514,0.073c0.184-0.766,0.367-1.532,0.565-2.364c0.41,0,0.786,0,1.155,0
	c0.047,0.163,0.154,0.327,0.112,0.426c-1.364,3.229-2.77,6.433-5.213,9.045c-0.426,0.456-0.74,1.017-1.106,1.531
	C92.967,45.965,92.971,45.96,92.971,45.96z"/>
<path fill-rule="evenodd" clip-rule="evenodd" fill="#FEE65E" d="M123.148,110.114c3.586,0.452,7.084,0.892,10.766,1.356
	c-1.533,1.47-3.35,2.037-5.291,2.173c-1.094,0.077-2.21-0.116-3.312-0.224C122.392,113.135,122.101,112.61,123.148,110.114z"/>
<path fill-rule="evenodd" clip-rule="evenodd" fill="#FEE65E" d="M102.095,40.316c0.351-0.379,0.701-0.759,1.049-1.137
	c0.831-0.911,1.664-1.825,2.75-3.016c0.176,0.682,0.241,0.937,0.307,1.192c-0.471,0.826-0.941,1.652-1.412,2.479l0.074-0.099
	c-0.886,0.697-1.553,1.513-1.49,2.728c-0.296,0.338-0.592,0.677-0.888,1.016c-1.79,2.104-3.579,4.209-5.571,6.553
	c0.256-3.149,1.581-5.892,3.486-7.72C101.027,41.711,101.533,40.985,102.095,40.316z"/>
<path fill-rule="evenodd" clip-rule="evenodd" fill="#FEE65E" d="M142.996,100.032c2.002-0.762,4.008-1.514,6.004-2.292
	c0.697-0.271,1.061-0.059,1.212,0.96c-2.311,0.709-4.5,2.049-7.164,1.278C143.04,99.986,142.996,100.032,142.996,100.032z"/>
<path fill-rule="evenodd" clip-rule="evenodd" fill="#FEE65E" d="M133.222,106.424c0.48-0.165,0.829-0.401,1.159-0.378
	c1.786,0.126,3.568,0.317,5.748,0.523C136.731,107.884,135.524,107.848,133.222,106.424z"/>
<path fill-rule="evenodd" clip-rule="evenodd" fill="#FEE65E" d="M102.485,43.479c0.296-0.339,0.592-0.678,0.888-1.016
	c0.497-0.91,0.994-1.819,1.49-2.728l-0.074,0.099c0.344-0.203,0.687-0.405,1.03-0.608c-0.182,0.845-0.362,1.69-0.544,2.536
	l0.09-0.092c-0.577,0.72-1.121,1.471-1.743,2.15C103.09,44.402,102.662,44.268,102.485,43.479z"/>
<path fill-rule="evenodd" clip-rule="evenodd" fill="#FFFFFF" d="M109.892,72.005c-0.227-0.535-0.376-0.89-0.588-1.391
	c0.644,0,1.207,0,2.099,0C110.791,71.177,110.38,71.555,109.892,72.005z"/>
<path fill-rule="evenodd" clip-rule="evenodd" d="M105.819,39.227c-0.344,0.203-0.687,0.405-1.03,0.608
	c0.471-0.826,0.941-1.652,1.412-2.479c0.18,0.325,0.358,0.651,0.538,0.976l-0.01,0.012
	C106.425,38.638,106.122,38.932,105.819,39.227z"/>
<path fill-rule="evenodd" clip-rule="evenodd" fill="#FFFFFF" d="M117.012,25.955c0-0.937,0-1.874,0-2.81c0.049,0,0.099,0,0.147,0
	c0,0.905,0,1.809,0,2.714C117.111,25.891,117.061,25.922,117.012,25.955z"/>
<path fill-rule="evenodd" clip-rule="evenodd" fill="#FEE65E" d="M72.54,47.157c-1.069,0.361-1.711,0.577-2.353,0.793
	c-0.066-0.091-0.132-0.182-0.199-0.272c0.176-0.149,0.333-0.331,0.532-0.437c0.2-0.106,0.439-0.176,0.665-0.188
	C71.484,47.038,71.788,47.094,72.54,47.157z"/>
<path fill-rule="evenodd" clip-rule="evenodd" d="M109.178,42.612c-0.293,0.983-0.55,2.001-1.917,1.904c0,0,0.012-0.007,0.012-0.006
	C107.907,43.878,108.542,43.245,109.178,42.612z"/>
<path fill-rule="evenodd" clip-rule="evenodd" fill="#FEE65E" d="M89.992,40.806c0.21-0.633,0.42-1.266,0.629-1.899
	c0.161,0.084,0.323,0.168,0.484,0.252c-0.389,0.532-0.778,1.065-1.167,1.598C89.939,40.758,89.992,40.806,89.992,40.806z"/>
<path fill-rule="evenodd" clip-rule="evenodd" fill="#FEE65E" d="M79.51,44.996c-0.687,0.207-1.374,0.415-2.06,0.622
	c-0.046-0.157-0.092-0.314-0.138-0.472c0.683-0.216,1.365-0.432,2.048-0.648C79.411,44.664,79.46,44.83,79.51,44.996z"/>
<path fill-rule="evenodd" clip-rule="evenodd" fill="#FEE65E" d="M141.57,107.883c-0.544,0.211-1.088,0.421-1.632,0.632
	c-0.061-0.142-0.12-0.284-0.181-0.426c0.528-0.237,1.057-0.475,1.584-0.712C141.417,107.546,141.494,107.714,141.57,107.883z"/>
<path fill-rule="evenodd" clip-rule="evenodd" fill="#FEE65E" d="M152.653,98.787c-0.443,0.162-0.886,0.325-1.329,0.487
	c-0.043-0.108-0.085-0.217-0.128-0.326c0.415-0.18,0.83-0.36,1.245-0.541C152.512,98.534,152.583,98.66,152.653,98.787z"/>
<path fill-rule="evenodd" clip-rule="evenodd" d="M160.257,626.978c-0.136-1.033,0.577-1.342,1.273-1.438
	c1.95-0.267,3.818,0.117,5.54,1.072c0.658,0.365,0.624,0.428,0.288,1.485C165.023,627.729,162.723,627.366,160.257,626.978z"/>
<path fill-rule="evenodd" clip-rule="evenodd" d="M79.677,80.828c-1.047,0.939-2.156,1.181-3.543,0.241
	c0.39-0.355,0.695-0.677,1.043-0.943c1.064-0.811,2.202-1.536,3.208-2.411c2.065-1.795,6.496-2.545,8.946-1.389
	c-0.197,0.935-0.97,0.807-1.632,0.918c-0.696,0.117-1.379,0.307-2.265,0.51c0.214,0.663,0.39,1.202,0.553,1.706
	c1.07-0.01,1.799-1.332,2.929-0.508c-2.106,3.1-5.834,4.344-9.501,3.151c0.073-0.431,0.15-0.884,0.234-1.327
	c0.573,0.419,1.144,0.785,1.918,0.276C80.972,79.616,80.287,80.685,79.677,80.828z"/>
<path fill-rule="evenodd" clip-rule="evenodd" d="M90.921,73.608c-0.443,1.4-1.367,1.789-2.759,1.577
	c-1.956-0.297-3.928-0.503-5.899-0.681c-3.107-0.28-6.02,0.108-8.391,2.454c-0.812,0.804-1.821,1.248-3.177,0.352
	c2.201-1.363,3.57-3.716,6.256-4.1c1.885-0.269,3.787-0.435,5.687-0.573c1.585-0.116,3.18-0.097,4.767-0.19
	C88.734,72.369,89.924,72.62,90.921,73.608z"/>
<path fill-rule="evenodd" clip-rule="evenodd" d="M98.673,94.217c-0.735,0.243-1.44,0.476-2.139,0.707
	c-0.876-0.759-1.075-1.639-0.24-2.266c0.377-0.283,1.292,0.019,1.905,0.225c0.51,0.171,0.915,0.63,1.404,0.893
	c1.038,0.557,2.122,1.39,2.996-0.259c0.094-0.177,0.376-0.365,0.566-0.361c1.534,0.03,1.966-1.113,2.417-2.227
	c0.861,0.111,1.708,0.221,2.854,0.37c-0.194,0.414-0.284,1.056-0.607,1.21c-1.034,0.495-2.339,0.53-2.789,1.886
	c-1.91,0.427-3.79,2.073-5.763,0.131C99.118,94.367,98.858,94.308,98.673,94.217z"/>
<path fill-rule="evenodd" clip-rule="evenodd" d="M112.458,99.606c-0.167,0.249-0.252,0.479-0.332,0.478
	c-1.993-0.036-3.602,1.073-5.35,1.766c-0.58,0.23-1.224,0.587-1.791,0.515c-2.243-0.285-4.027,0.584-5.677,1.944
	c-0.212,0.174-0.471,0.292-1.148,0.702c0.268-0.859,0.268-1.396,0.531-1.617c1.628-1.359,3.192-2.61,5.655-2.416
	c1.441,0.114,2.955-0.896,4.461-1.31c0.966-0.265,1.973-0.395,2.971-0.51C111.985,99.135,112.23,99.448,112.458,99.606z"/>
<path fill-rule="evenodd" clip-rule="evenodd" d="M108.602,103.541c-1.323,2.097-3.505,1.889-6.064,2.197
	C104.404,103.665,106.754,104.319,108.602,103.541z"/>
<path fill-rule="evenodd" clip-rule="evenodd" d="M58.42,87.504c0.735-4.379,1.408-8.414,2.112-12.444
	c0.026-0.149,0.359-0.246,0.764-0.504C60.387,78.913,60.628,83.294,58.42,87.504z"/>
<path fill-rule="evenodd" clip-rule="evenodd" d="M61.615,96.193c0.693-3.176,1.324-6.072,2.024-9.283
	C64.464,88.789,63.345,93.59,61.615,96.193z"/>
<path fill-rule="evenodd" clip-rule="evenodd" d="M58.028,119.795c0.141,0.122,0.333,0.377,0.417,0.346
	c1.3-0.482,2.587-1.002,3.916-1.41c-1.559,1.315-3.172,2.49-5.378,2.345c-0.295-1.123,0.585-0.988,1.074-1.238
	C58.05,119.829,58.028,119.795,58.028,119.795z"/>
<path fill-rule="evenodd" clip-rule="evenodd" d="M67.646,64.119c-1.992,0.103-3.84-0.371-5.596-1.196
	c0.041-0.153,0.081-0.306,0.121-0.459C63.995,63.015,65.82,63.567,67.646,64.119z"/>
<path fill-rule="evenodd" clip-rule="evenodd" d="M72.476,59.801c-1.703,0.704-2.998-0.365-4.679-0.957
	c0.413-0.322,0.703-0.682,0.838-0.631C69.927,58.701,71.193,59.259,72.476,59.801z"/>
<path fill-rule="evenodd" clip-rule="evenodd" d="M65.499,55.179c1.594-1.657,3.085-2.462,5.021-2.447
	c-1.688,0.799-3.377,1.598-5.065,2.397L65.499,55.179z"/>
<path fill-rule="evenodd" clip-rule="evenodd" d="M77.441,52.768c-1.719-0.11-3.438-0.221-5.356-0.344
	c1.85-0.874,3.332-0.728,5.306,0.404L77.441,52.768z"/>
<path fill-rule="evenodd" clip-rule="evenodd" d="M64.153,117.176c1.224-1.123,2.448-2.246,3.672-3.37
	c0.116,0.128,0.231,0.255,0.347,0.383c-1.209,1.122-2.417,2.244-3.626,3.366C64.415,117.429,64.284,117.302,64.153,117.176z"/>
<path fill-rule="evenodd" clip-rule="evenodd" d="M55.337,93.525c-0.759,1.672-1.517,3.344-2.276,5.016
	c-0.165-0.086-0.33-0.172-0.495-0.258c0.978-1.551,1.298-3.459,2.818-4.715L55.337,93.525z"/>
<path fill-rule="evenodd" clip-rule="evenodd" d="M55.385,93.568c0.62-1.356,1.239-2.712,1.858-4.068
	c0.144,0.073,0.288,0.146,0.432,0.22c-0.794,1.261-1.041,2.814-2.337,3.806C55.337,93.525,55.385,93.568,55.385,93.568z"/>
<path fill-rule="evenodd" clip-rule="evenodd" d="M65.455,55.129c-0.466,1.034-0.932,2.068-1.398,3.103
	c-0.154-0.083-0.308-0.166-0.462-0.249c0.129-1.236,0.183-2.517,1.904-2.804C65.499,55.179,65.455,55.129,65.455,55.129z"/>
<path fill-rule="evenodd" clip-rule="evenodd" d="M79.353,115.104c-0.466,1.314-0.933,2.629-1.399,3.944
	c0.099-1.459,0.325-2.875,1.449-3.901C79.403,115.146,79.353,115.104,79.353,115.104z"/>
<path fill-rule="evenodd" clip-rule="evenodd" d="M68.974,112.727c0.797-0.877,1.594-1.754,2.391-2.631
	c0.106,0.091,0.213,0.182,0.32,0.273c-0.802,0.873-1.604,1.746-2.407,2.619C69.176,112.9,69.075,112.813,68.974,112.727z"/>
<path fill-rule="evenodd" clip-rule="evenodd" d="M59.688,116.571c-0.559,1.066-1.118,2.132-1.668,3.211
	c0.008,0.013,0.03,0.046,0.037,0.057c-0.28-1.504,0.619-2.405,1.68-3.222L59.688,116.571z"/>
<path fill-rule="evenodd" clip-rule="evenodd" d="M68.707,60.967c-0.529,0.89-0.926,1.56-1.412,2.378
	C67.295,62.013,67.295,62.013,68.707,60.967z"/>
<path fill-rule="evenodd" clip-rule="evenodd" d="M44.528,112.224c0.19-0.431,0.37-0.838,0.551-1.249
	C45.67,112.058,45.67,112.058,44.528,112.224z"/>
<path fill-rule="evenodd" clip-rule="evenodd" d="M77.39,52.828c0.649,0.084,1.299,0.169,1.949,0.254
	c-0.063,0.197-0.127,0.395-0.19,0.592c-0.569-0.303-1.137-0.606-1.707-0.908C77.441,52.768,77.39,52.828,77.39,52.828z"/>
<path fill-rule="evenodd" clip-rule="evenodd" d="M70.405,120.03c0.235-0.676,0.47-1.352,0.704-2.028
	c0.156,0.078,0.312,0.156,0.467,0.234c-0.413,0.578-0.827,1.156-1.24,1.734L70.405,120.03z"/>
<path fill-rule="evenodd" clip-rule="evenodd" d="M75.903,122.396c-0.287,0.315-0.574,0.629-0.861,0.944
	c-0.083-0.057-0.167-0.113-0.25-0.17c0.263-0.361,0.525-0.722,0.788-1.083C75.687,122.19,75.795,122.293,75.903,122.396z"/>
<path fill-rule="evenodd" clip-rule="evenodd" d="M70.336,119.969c-0.334,0.56-0.668,1.119-1.003,1.679
	c-0.079-0.877,0.195-1.49,1.068-1.62C70.405,120.03,70.336,119.969,70.336,119.969z"/>
<path fill-rule="evenodd" clip-rule="evenodd" d="M59.737,116.617c0.259-0.515,0.518-1.028,0.776-1.542
	c0.14,0.121,0.279,0.243,0.419,0.364c-0.415,0.377-0.83,0.754-1.244,1.132L59.737,116.617z"/>
<path fill-rule="evenodd" clip-rule="evenodd" d="M50.515,115.538c0.045-0.43,0.09-0.86,0.135-1.29
	c0.103-0.003,0.206-0.007,0.309-0.011c0.042,0.448,0.084,0.896,0.126,1.344C50.896,115.566,50.706,115.552,50.515,115.538z"/>
<path fill-rule="evenodd" clip-rule="evenodd" d="M62.186,112.667c0.335-0.355,0.671-0.71,1.006-1.065
	c0.086,0.074,0.173,0.148,0.259,0.222c-0.309,0.394-0.618,0.787-0.927,1.18C62.411,112.891,62.298,112.779,62.186,112.667z"/>
<path fill-rule="evenodd" clip-rule="evenodd" d="M60.186,99.309c0.199-0.484,0.398-0.967,0.597-1.451
	c0.103,0.043,0.207,0.086,0.31,0.128c-0.205,0.48-0.409,0.961-0.614,1.442C60.382,99.389,60.284,99.349,60.186,99.309z"/>
<path fill-rule="evenodd" clip-rule="evenodd" d="M148.724,89.068c-0.739,0.121-1.478,0.241-2.216,0.362
	c-0.018-0.129-0.035-0.258-0.052-0.387c0.724-0.05,1.448-0.101,2.172-0.151C148.66,88.951,148.692,89.01,148.724,89.068z"/>
<path fill-rule="evenodd" clip-rule="evenodd" d="M130.069,84.741c0.172-0.397,0.344-0.794,0.628-1.45
	c0.389,0.735,0.677,1.28,1.075,2.034c-0.735-0.259-1.236-0.435-1.743-0.615C130.023,84.706,130.069,84.741,130.069,84.741z"/>
<path fill-rule="evenodd" clip-rule="evenodd" d="M136.768,87.523c0.41,0.146,0.82,0.293,1.23,0.439
	c-0.019,0.056-0.036,0.112-0.055,0.168c-0.413-0.138-0.827-0.276-1.24-0.414C136.725,87.652,136.747,87.587,136.768,87.523z"/>
<path fill-rule="evenodd" clip-rule="evenodd" d="M114.409,40.542c0.379-0.953,0.791-1.895,1.129-2.862
	c0.327-0.938,0.706-1.896,0.191-3.265c-0.726,0.82-1.273,1.44-1.822,2.06c0.656-1.407,1.312-2.813,2.056-4.411
	C117.361,34.643,116.703,37.741,114.409,40.542z"/>
<path fill-rule="evenodd" clip-rule="evenodd" d="M119.347,32.163c1.393,2.037-0.16,6.806-2.487,8.78
	C118.186,38.313,119.58,35.705,119.347,32.163z"/>
<path fill-rule="evenodd" clip-rule="evenodd" d="M109.776,37.468c0.391-1.452,0.78-2.904,1.204-4.477
	c0.146,0.227,0.525,0.635,0.457,0.734c-0.792,1.147,0.446,3.207-1.667,3.739L109.776,37.468z"/>
<path fill-rule="evenodd" clip-rule="evenodd" d="M105.819,39.227c0.303-0.294,0.606-0.588,0.91-0.882
	c-0.485,1.139-0.97,2.279-1.454,3.418C105.457,40.917,105.637,40.072,105.819,39.227z"/>
<path fill-rule="evenodd" clip-rule="evenodd" d="M111.083,39.991c-0.658,0.906-1.317,1.811-1.976,2.717
	C109.766,41.802,110.425,40.896,111.083,39.991z"/>
<path fill-rule="evenodd" clip-rule="evenodd" d="M113.987,36.377c-0.5,0.748-1,1.496-1.501,2.244
	C112.556,37.585,113.033,36.822,113.987,36.377z"/>
<path fill-rule="evenodd" clip-rule="evenodd" d="M109.77,37.464c0,0.768,0,1.535,0,2.302c-0.145-0.004-0.289-0.009-0.434-0.014
	c0.15-0.756,0.301-1.513,0.445-2.277C109.776,37.468,109.77,37.464,109.77,37.464z"/>
<path fill-rule="evenodd" clip-rule="evenodd" fill="#FEE65E" d="M104.863,39.735c-0.496,0.909-0.993,1.818-1.49,2.728
	C103.31,41.248,103.977,40.432,104.863,39.735z"/>
<path fill-rule="evenodd" clip-rule="evenodd" fill="#FFFFFF" d="M79.677,80.828c0.61-0.144,1.295-1.212,1.889,0.226
	c-0.774,0.509-1.345,0.143-1.918-0.276C79.642,80.767,79.677,80.828,79.677,80.828z"/>
</svg>
