<?xml version="1.0" encoding="utf-8"?>
<!-- Generator: Adobe Illustrator 16.0.4, SVG Export Plug-In . SVG Version: 6.00 Build 0)  -->
<!DOCTYPE svg PUBLIC "-//W3C//DTD SVG 1.1//EN" "http://www.w3.org/Graphics/SVG/1.1/DTD/svg11.dtd">
<svg version="1.1" id="Layer_1" xmlns="http://www.w3.org/2000/svg" xmlns:xlink="http://www.w3.org/1999/xlink" x="0px" y="0px"
	 width="612px" height="792px" viewBox="0 0 612 792" enable-background="new 0 0 612 792" xml:space="preserve">
<path fill="none" d="M584.495,708.853c-192.16,0-384.32,0-576.48,0c0-240,0-480,0-720c192.16,0,384.319,0,576.479,0
	C584.494,228.852,584.494,468.853,584.495,708.853z M293.65,80.058l0.072,0.072c-0.193-0.723-0.006-1.408,0.124-2.124
	c0.396-2.197,0.767-4.397,0.701-6.653c-0.035-1.187-0.436-2.172-1.183-3.049c-0.305-0.358-0.605-0.835-1.157-0.686
	c-0.618,0.168-0.473,0.761-0.463,1.206c0.046,2.037-0.36,3.919-1.713,5.513c-0.529-0.262-0.209-1.401-1.244-1.116
	c-0.354,0.829,0.402,1.798-0.377,2.82c-0.919-2.873-0.327-5.95-2.277-8.816c-0.374,5.607-0.814,7.396-2.433,10.165
	c-0.398,0.682-1.414,1.324,0.176,1.915c0.456,0.169,0.064,0.885-0.25,1.207c-1.132,1.161-2.309,2.278-3.469,3.412
	c0-0.75,0.251-1.314,0.486-1.885c0.728-1.767,1.517-3.512,2.144-5.314c0.311-0.895,0.676-1.968-0.67-2.864
	c-0.242,4.421-2.409,7.755-4.976,11.019c-0.402-0.615-0.069-0.952,0.083-1.288c1.095-2.4,1.989-4.869,2.623-7.432
	c0.516-2.089,1.102-4.163,1.241-6.324c0.015-0.22-0.04-0.487-0.383-0.481c-0.825,0.231-0.194,1.179-0.81,1.595
	c-0.397-0.297-0.156-1.216-1.121-1.122c-0.143,2.632-1.705,4.69-3.04,6.832c-1.182,1.895-2.508,3.701-3.8,5.526
	c-0.366,0.517-0.797,0.964,0,1.639c2.516-3.053,4.333-6.485,6.704-10.063c0.026,1.38-0.546,2.082-0.885,2.861
	c-0.826,1.9-2.698,3.3-2.684,5.603c0.001,0.194-0.122,0.279-0.321,0.285c-1.061,0.031-1.246,0.939-1.49,1.646
	c-1.24,3.589-3.766,6.252-6.314,8.898c-0.597,0.62-1.093,1.595-2.304,0.937c-0.353-0.191-0.66,0.255-0.901,0.606
	c-1.145,1.663-2.9,1.909-5.275,2.207c1.538-1.496,2.704-2.58,3.803-3.726c0.423-0.441,1.198-1.001,0.897-1.564
	c-0.461-0.864,0.093-1.105,0.504-1.544c0.544-0.58,1.08-1.202,1.654-1.713c1.361-1.211,2.256-2.976,4.436-3.905
	c-0.736,3.163-2.333,5.39-4.248,7.449c1.699-0.74,1.858-0.882,2.706-2.162c1.292-1.951,2.203-4.118,2.846-6.314
	c0.888-3.034,1.197-6.18-0.551-9.128c-0.202-0.34-0.333-0.792-0.806-0.738c-0.512,0.059-0.527,0.547-0.524,0.933
	c0.022,2.481-1.875,3.399-3.501,4.611c-0.711-1.005-0.082-2.252-1.078-3.103c-0.637,0.821-1.263,1.64-1.302,2.696
	c-0.072,1.953-1.201,2.934-2.86,3.729c-2.07,0.992-4.281,1.761-5.952,3.504c-1.378,1.438-2.873,2.779-4.424,4.029
	c-0.631,0.509-1.015,1.038-1.013,1.772c0.004,2.315-0.134,4.628,0.101,6.948c0.195,1.93,1.208,3.601,1.593,5.416
	c0.831,3.92,1.661,7.869,1.707,11.925c-1.702-0.282-2.681,0.394-2.918,2.114c-0.199,1.445,0.009,2.864,0.583,4.225
	c1.246,2.95,2.308,5.95,2.533,9.188c0.032,0.457,0.161,1.022,0.46,1.327c1.443,1.47,2.486,3.366,4.416,4.316
	c0.396,0.195,0.804,0.378,0.718,0.799c-0.401,1.972,0.93,3.293,1.73,4.809c1.831,3.468,4.385,6.477,6.317,9.878
	c1.267,2.229,2.572,4.425,4.345,6.301c0.822,0.869,1.076,1.862,0.982,3.071c-0.22,2.826-1.922,4.916-3.624,6.84
	c-3.654,4.133-8.058,7.461-12.515,10.692c-0.382,0.277-0.957,0.395-1.072,0.898c-0.389,1.697-1.826,2.335-3.098,3.114
	c-1.218,0.747-2.604,1.252-3.731,2.107c-3.885,2.95-8.164,5.286-12.375,7.67c-4.307,2.438-7.938,5.556-11.258,9.103
	c-2.899,3.098-5.452,6.488-6.678,10.634c-1.335,4.513-2.672,9.047-3.277,13.723c-0.677,5.227-0.915,10.485-0.036,15.731
	c0.741,4.418,1.015,8.889,1.112,13.348c0.19,8.688-0.719,17.36-0.323,26.072c0.256,5.631-0.158,11.294-0.638,16.936
	c-0.229,2.697-0.661,5.359-2.2,7.486c-2.825,3.905-5.094,8.095-7.263,12.361c-1.48,2.911-3.382,5.568-4.657,8.621
	c-2.654,6.358-4.517,12.949-6.165,19.602c-1.226,4.944-2.305,9.934-1.746,15.125c0.168,1.56,0.048,3.245-0.367,4.756
	c-1.126,4.099-1.501,8.318-2.085,12.486c-0.488,3.481-1.363,6.693-3.334,9.593c-0.404,0.593-0.816,1.183-1.254,1.75
	c-0.535,0.692-0.738,1.403-0.272,2.208c2.946-0.6,4.103,0.191,3.638,3.576c-0.227,1.653-0.379,3.324-0.722,4.955
	c-0.852,4.053-1.855,8.05-3.347,11.947c-2.192,5.733-4.187,11.538-7.836,16.562c-1.619,2.228-1.692,4.361-0.075,6.584
	c0.421,0.579,0.632,1.378,1.16,1.799c1.561,1.245,1.316,2.695,0.798,4.29c-0.319,0.983-0.642,2.001-0.717,3.021
	c-0.122,1.652,0.975,2.492,2.583,2.111c1.041-0.246,1.87-0.881,2.61-1.618c0.848-0.844,1.754-1.441,2.943-1.865
	c1.222-0.435,2.69-0.572,3.625-1.684c1.954-2.321,4.024-4.573,4.395-7.801c0.062-0.541,0.38-1.049,0.54-1.584
	c0.256-0.859,0.71-1.412,1.705-1.249c1.057,0.173,1.801-0.383,2.577-1c1.025-0.817,1.686-1.881,2.393-2.947
	c1.887-2.844,2.65-6.13,3.719-9.289c0.66-1.952,1.165-3.95,1.489-6.009c0.61-3.863-0.548-7.46-1.505-11.064
	c-0.857-3.228-0.812-6.461-0.754-9.731c0.013-0.731,0.202-1.282,0.823-1.579c1.879-0.897,1.827-2.521,1.411-4.097
	c-0.508-1.929-0.46-3.818,0.038-5.68c0.93-3.477,2.393-6.771,4.11-9.908c1.49-2.723,2.847-5.519,4.492-8.167
	c1.887-3.037,3.339-6.348,5.276-9.35c2.598-4.025,4.865-8.25,7.519-12.298c0.09,0.216,0.192,0.348,0.195,0.482
	c0.203,8.855,0.005,17.711-0.056,26.566c-0.008,1.117,0.051,2.261-0.16,3.346c-1.221,6.288-1.059,12.696-1.684,19.036
	c-0.47,4.763,0.513,9.542,0.651,14.328c0.157,5.427,0.675,10.84,1.321,16.232c0.456,3.803,0.654,7.631,1.373,11.412
	c0.463,2.438,1.31,4.768,1.695,7.222c1.657,10.561,3.406,21.106,5.058,31.667c0.999,6.387,1.553,12.835,2.436,19.232
	c0.814,5.906-0.134,11.396-2.357,16.821c-0.663,1.619-1.798,3.025-2.083,4.816c-0.109,0.686-0.624,1.322,0.05,1.989
	c0.707,0.7,1.487,0.49,2.212,0.143c1.456-0.698,3.03-0.897,4.573-1.247c1.106-0.25,1.404,0.214,1.445,1.23
	c0.054,1.354,0.261,2.7,0.36,4.053c0.158,2.146,0.699,4.239,0.666,6.418c-0.056,3.67-0.561,7.161-3.094,10.046
	c-0.539,0.614-0.916,1.319-1.156,2.08c-1.248,3.948-2.587,7.852-3.337,11.961c-1.118,6.13,1.118,11.102,4.724,15.729
	c0.238,0.306,0.59,0.548,0.933,0.741c2.496,1.406,4.9,2.934,7.87,3.348c2.034,0.284,3.963-0.139,5.941-0.212
	c4.547-0.167,8.163-2.378,11.412-5.28c3.139-2.805,4.67-6.536,5.827-10.498c1.115-3.819,0.954-7.716,1.145-11.608
	c0.234-4.758-1.103-9.34-1.286-14.062c-0.221-5.676,0.194-11.144,2.588-16.357c0.826-1.799,1.489-2.193,3.381-1.459
	c1.625,0.63,3.372,1.047,4.796,2.124c1.243,0.939,2.491,0.355,3.572-0.121c1.215-0.535,0.823-1.868,0.562-2.794
	c-0.496-1.761-1.168-3.484-1.912-5.159c-2.051-4.621-3.594-9.434-4.465-14.374c-1.997-11.329-3.489-22.733-4.578-34.193
	c-0.558-5.873-1.335-11.718-0.945-17.636c0.016-0.238,0.028-0.487-0.022-0.718c-0.781-3.535-0.451-7.148-0.73-10.72
	c-0.342-4.375-0.568-8.768-0.616-13.155c-0.047-4.395-0.67-8.777-0.317-13.172c0.466-5.807,1.017-11.602,0.94-17.441
	c-0.033-2.537,0.434-5.055,1.028-7.762c2.032,4.026,3.741,7.887,5.806,11.575c4.326,7.724,8.07,15.781,13.215,23.037
	c0.565,0.797,1.018,1.715,0.995,2.665c-0.073,2.982,1.001,5.698,2.255,8.226c1.776,3.58,2.668,7.426,3.252,11.216
	c1.004,6.521,3.353,12.61,5.043,18.905c0.123,0.459,0.35,0.893,0.557,1.325c1.042,2.175,1.671,4.483,2.271,6.808
	c1.396,5.41,2.719,10.844,5.044,15.963c2.572,5.667,5.456,11.185,7.955,16.89c0.65,1.483,1.052,2.754,0.212,4.22
	c-0.374,0.654-0.299,1.402-0.277,2.116c0.096,3.15-0.959,5.923-2.591,8.568c-3.458,5.607-5.899,11.591-6.882,18.17
	c-0.831,5.572-1.051,11.161-0.434,16.722c0.615,5.543,1.882,11.011,2.567,16.548c0.647,5.224,1.439,10.435,1.586,15.727
	c0.117,4.23,0.489,8.458,0.625,12.695c0.083,2.555,0.283,5.113,0.606,7.647c0.205,1.611,0.288,3.182-0.063,4.762
	c-1.13,5.066-1.981,10.219-3.5,15.167c-1.156,3.767-2.981,7.364-6.826,9.401c-2.09,1.106-3.008,3.762-2.183,5.922
	c0.27,0.706,0.381,1.33,0.323,2.065c-0.143,1.826-0.413,3.675-0.26,5.483c0.359,4.267,1.712,8.103,5.485,10.67
	c1.323,0.901,2.669,1.752,4.097,2.478c3.6,1.826,5.971,4.686,7.221,8.521c0.964,2.958,1.861,5.949,3.056,8.814
	c1.128,2.706,2.492,5.332,3.961,7.874c1.428,2.472,2.575,5.138,4.65,7.21c1.875,1.871,3.977,3.421,6.202,4.85
	c3.31,2.127,6.84,3.843,10.535,5.065c5.546,1.834,11.048,1.32,16.161-1.604c2.701-1.544,4.8-4.31,2.396-7.895
	c-2.748-4.101-4.893-8.601-8.207-12.329c-0.582-0.654-1.126-1.356-1.588-2.098c-3.469-5.562-6.455-11.357-8.33-17.669
	c-0.681-2.29-1.329-4.592-1.288-7.024c0.016-0.893,0.316-1.41,1.262-1.24c2.218,0.397,3.627-0.787,4.852-2.386
	c0.534-0.698,1.043-1.424,1.646-2.057c0.744-0.781,0.849-1.534,0.549-2.599c-0.508-1.796-1.309-3.433-2.213-5.028
	c-2.346-4.142-3.372-8.609-3.195-13.325c0.277-7.435,1.514-14.755,3.237-21.97c1.559-6.521,2.845-13.09,4.106-19.666
	c1.036-5.402,1.925-10.833,2.977-16.232c0.888-4.556,1.174-9.181,1.264-13.778c0.099-5.024,0.25-10.048,0.371-15.071
	c0.052-2.152,0.221-4.303,0.397-6.448c0.275-3.341,1.019-6.615,1.501-9.922c0.771-5.286,1.672-10.556,2.079-15.902
	c0.189-2.49,0.347-4.897-0.081-7.364c-0.557-3.21-0.756-6.497-1.523-9.65c-0.776-3.186-1.414-6.369-1.777-9.622
	c-0.204-1.822-0.426-3.651-0.79-5.447c-1.479-7.272-2.592-14.604-3.67-21.942c-1.009-6.861-1.805-13.761-3.031-20.583
	c-1.383-7.692-2.991-15.353-4.776-22.962c-2.243-9.56-4.188-19.168-5.502-28.897c-1.025-7.586-1.643-15.216-2.068-22.857
	c-0.153-2.741-0.622-5.582,1.325-8.004c0.123-0.153,0.159-0.493,0.079-0.675c-0.931-2.105-0.527-4.424-1.069-6.583
	c-2.042-8.129-3.535-16.369-4.991-24.617c-0.36-2.042-0.834-4.089-0.926-6.148c-0.168-3.751-0.097-7.515-0.112-11.272
	c-0.021-5.302,0.721-10.521,1.976-15.649c1.462-5.97,3.322-11.847,4.648-17.844c1.206-5.461,2.948-10.768,4.234-16.201
	c0.152-0.646-0.022-1.468,0.629-1.949c0.499-0.132,0.793,0.166,1.065,0.443c1.795,1.83,3.899,3.281,5.895,4.87
	c3.299,2.628,6.71,5.102,9.647,8.194c1.603,1.687,3.402,3.351,5.911,3.928c1.033,0.238,2.009,1,2.86,1.707
	c1.839,1.527,3.545,3.214,5.37,4.759c2.979,2.522,5.599,5.439,8.758,7.769c3.331,2.457,6.844,4.669,9.981,7.386
	c1.609,1.393,3.436,2.749,4.201,4.706c1.491,3.808,4.084,6.832,6.438,10.034c0.752,1.022,1.223,2.303,2.319,3.028
	c1.697,1.123,2.94,2.702,4.276,4.17c2.312,2.541,5.256,4.406,7.413,7.11c0.891,1.117,1.808,2.218,2.771,3.286
	c3.735,4.136,7.179,8.477,9.806,13.467c0.912,1.735,1.882,3.622,3.663,4.887c1.739,1.235,2.631,3.167,3.316,5.166
	c0.258,0.752,0.511,1.518,0.88,2.218c2.807,5.323,2.288,10.967,1.607,16.615c-0.182,1.504-0.576,2.99-0.54,4.514
	c0.064,2.687,1.411,3.731,4,3.161c0.7-0.154,1.401-0.316,2.084-0.532c3.086-0.978,4.103-2.42,4.055-5.653
	c-0.014-0.909-0.323-1.844,0.029-2.767c4.041,1.255,7.277,5.096,7.892,8.415c0.288,1.554,0.854,3.069,1.413,4.558
	c1.002,2.674,1.406,2.869,4.213,2.73c1.021-0.051,1.881-0.377,2.571-1.092c0.522-0.541,1.144-0.617,1.828-0.824
	c2.005-0.607,4.336-1.028,5.123-3.406c0.395-1.193,1.08-1.578,2.203-1.693c2.009-0.207,3.066-1.426,3.529-3.351
	c0.261-1.081,0.732-2.124,0.781-3.244c0.051-1.153,0.387-2.215,0.898-3.205c1.507-2.915,0.435-5.095-1.574-6.783
	c-1.933-1.623-3.869-3.243-5.8-4.864c-3.719-3.123-7.595-6.074-11.55-8.894c-2.701-1.926-5.071-4.099-6.989-6.795
	c-0.48-0.675-0.962-1.276-0.583-2.168c0.312-0.729-0.023-1.06-0.687-1.476c-1.523-0.956-2.581-2.399-3.178-4.09
	c-0.952-2.697-2.34-5.227-2.81-8.119c-0.236-1.457-0.987-2.841-1.572-4.23c-2.76-6.555-6.806-12.434-9.921-18.803
	c-0.137-0.28-0.377-0.51-0.567-0.765c-1.426-1.916-2.818-3.859-4.286-5.743c-2.352-3.019-4.205-6.416-6.94-9.142
	c-1.917-1.911-3.649-4.05-5.915-5.552c-1.615-1.072-3.024-2.317-4.399-3.659c-3.048-2.976-5.346-6.552-8.022-9.823
	c-1.312-1.604-2.733-3.109-3.892-4.846c-3.194-4.791-6.812-9.279-10.818-13.387c-5.978-6.128-11.804-12.371-17.186-19.034
	c-4.829-5.98-9.334-12.155-12.964-18.961c-3.281-6.154-7.712-11.359-13.657-15.121c-2.84-1.797-5.954-3.203-9.271-3.632
	c-4.991-0.645-10.049-0.439-15.076-0.287c-5.426,0.165-10.64-0.808-15.72-2.602c-2.32-0.82-4.147-2.3-5.529-4.375
	c-2.23-3.347-3.777-7.03-5.449-10.658c-0.268-0.581-0.251-1.036,0.046-1.569c1.873-3.354,2.966-7.056,4.671-10.487
	c2.086-4.197,3.318-8.612,3.274-13.342c-0.013-1.33,0.359-2.552,1.498-3.373c1.857-1.337,2.467-3.28,2.583-5.406
	c0.148-2.707,0.178-5.419,0.249-8.13c0.031-1.179-0.128-2.278-1.496-2.665c-0.864-0.245-0.95-0.821-0.979-1.631
	c-0.097-2.718-0.009-5.415,0.282-8.121c0.213-1.982,0.503-3.957,0.568-5.963c0.126-3.825-1.304-7.371-1.806-11.079
	c-0.106-0.784-0.183-1.507-0.116-2.318c0.265-3.184,0.449-6.399-1.081-9.379c-0.311-0.603-0.402-1.556-1.235-1.62
	c-0.955-0.073-0.345,1.087-0.854,1.405c-0.252,0.157-0.634,0.118-0.79,0.446c-0.203,0.428-0.511,0.992,0.006,1.271
	c0.518,0.279,0.832,0.467,0.419,1.008c-0.163,0.215-0.33,0.625-0.704,0.456c-0.511-0.229-0.496-0.748-0.562-1.232
	c-0.29-2.119-1.643-3.63-2.857-5.342c-0.263,0.294-0.42,0.391-0.452,0.519c-0.229,0.929,0.171,1.888-0.201,2.837
	c-0.318,0.812-0.271,1.856-1.573,1.782c-0.024-0.001-0.104,0.294-0.092,0.446c0.122,1.581-0.303,3.099-0.468,4.645
	c-0.257,2.414-1.707,3.919-3.24,5.449c0.399-1.397,0.869-2.646,1.783-3.877c1.294-1.745,1.404-4.211,1.132-6.442
	c-0.201-1.647-0.658-3.298-1.71-4.681c-0.288-0.379-0.567-0.853-1.143-0.575c-0.431,0.208-0.367,0.668-0.292,1.05
	c0.269,1.376,0.059,2.653-0.712,3.895c-0.504-0.729,0.146-1.992-1.303-2.442C295.534,74.716,295.354,77.565,293.65,80.058z"/>
<path fill-rule="evenodd" clip-rule="evenodd" d="M293.65,80.058c1.704-2.492,1.884-5.342,1.762-8.413
	c1.449,0.45,0.799,1.713,1.303,2.442c0.771-1.242,0.981-2.519,0.712-3.895c-0.075-0.382-0.139-0.842,0.292-1.05
	c0.575-0.278,0.854,0.196,1.143,0.575c1.052,1.383,1.51,3.034,1.71,4.681c0.271,2.231,0.162,4.697-1.132,6.442
	c-0.914,1.232-1.384,2.48-1.783,3.877c1.533-1.53,2.983-3.035,3.24-5.449c0.165-1.546,0.589-3.064,0.468-4.645
	c-0.012-0.152,0.068-0.447,0.092-0.446c1.302,0.074,1.254-0.969,1.573-1.782c0.372-0.949-0.028-1.908,0.201-2.837
	c0.032-0.127,0.189-0.224,0.452-0.519c1.214,1.712,2.567,3.223,2.857,5.342c0.066,0.484,0.051,1.002,0.562,1.232
	c0.374,0.168,0.541-0.241,0.704-0.456c0.413-0.541,0.099-0.729-0.419-1.008c-0.517-0.279-0.209-0.843-0.006-1.271
	c0.156-0.328,0.538-0.29,0.79-0.446c0.51-0.318-0.101-1.478,0.854-1.405c0.833,0.064,0.925,1.017,1.235,1.62
	c1.53,2.979,1.346,6.195,1.081,9.379c-0.066,0.811,0.01,1.534,0.116,2.318c0.502,3.708,1.932,7.254,1.806,11.079
	c-0.065,2.006-0.355,3.98-0.568,5.963c-0.291,2.707-0.379,5.403-0.282,8.121c0.028,0.81,0.114,1.386,0.979,1.631
	c1.368,0.387,1.527,1.486,1.496,2.665c-0.071,2.71-0.101,5.423-0.249,8.13c-0.116,2.126-0.726,4.068-2.583,5.406
	c-1.139,0.82-1.511,2.042-1.498,3.373c0.044,4.729-1.188,9.145-3.274,13.342c-1.705,3.431-2.798,7.133-4.671,10.487
	c-0.297,0.533-0.313,0.988-0.046,1.569c1.671,3.627,3.218,7.311,5.449,10.658c1.382,2.074,3.209,3.555,5.529,4.375
	c5.08,1.794,10.294,2.767,15.72,2.602c5.027-0.152,10.085-0.358,15.076,0.287c3.317,0.429,6.432,1.834,9.271,3.632
	c5.945,3.762,10.376,8.967,13.657,15.121c3.63,6.807,8.135,12.981,12.964,18.961c5.382,6.664,11.208,12.906,17.186,19.034
	c4.007,4.107,7.624,8.596,10.818,13.387c1.158,1.737,2.579,3.243,3.892,4.846c2.677,3.271,4.975,6.847,8.022,9.823
	c1.375,1.342,2.784,2.587,4.399,3.659c2.266,1.502,3.998,3.641,5.915,5.552c2.735,2.726,4.589,6.123,6.94,9.142
	c1.468,1.884,2.86,3.827,4.286,5.743c0.19,0.255,0.431,0.485,0.567,0.765c3.115,6.37,7.161,12.249,9.921,18.803
	c0.585,1.389,1.336,2.773,1.572,4.23c0.47,2.892,1.857,5.422,2.81,8.119c0.597,1.691,1.654,3.134,3.178,4.09
	c0.663,0.417,0.998,0.747,0.687,1.476c-0.379,0.892,0.103,1.493,0.583,2.168c1.918,2.696,4.288,4.869,6.989,6.795
	c3.955,2.82,7.831,5.771,11.55,8.894c1.931,1.621,3.867,3.241,5.8,4.864c2.009,1.688,3.081,3.868,1.574,6.783
	c-0.512,0.99-0.848,2.052-0.898,3.205c-0.049,1.12-0.521,2.163-0.781,3.244c-0.463,1.925-1.521,3.144-3.529,3.351
	c-1.123,0.116-1.809,0.5-2.203,1.693c-0.787,2.378-3.118,2.799-5.123,3.406c-0.685,0.207-1.306,0.283-1.828,0.824
	c-0.69,0.715-1.551,1.042-2.571,1.092c-2.807,0.139-3.211-0.056-4.213-2.73c-0.559-1.489-1.125-3.004-1.413-4.558
	c-0.614-3.318-3.851-7.16-7.892-8.415c-0.353,0.923-0.043,1.858-0.029,2.767c0.048,3.233-0.969,4.675-4.055,5.653
	c-0.683,0.216-1.384,0.378-2.084,0.532c-2.589,0.57-3.936-0.474-4-3.161c-0.036-1.524,0.358-3.01,0.54-4.514
	c0.681-5.648,1.199-11.292-1.607-16.615c-0.369-0.7-0.622-1.466-0.88-2.218c-0.686-1.998-1.577-3.931-3.316-5.166
	c-1.781-1.265-2.751-3.152-3.663-4.887c-2.627-4.99-6.07-9.331-9.806-13.467c-0.964-1.067-1.881-2.169-2.771-3.286
	c-2.157-2.704-5.102-4.569-7.413-7.11c-1.336-1.468-2.579-3.047-4.276-4.17c-1.097-0.726-1.567-2.006-2.319-3.028
	c-2.354-3.202-4.946-6.226-6.438-10.034c-0.766-1.958-2.592-3.313-4.201-4.706c-3.138-2.717-6.65-4.929-9.981-7.386
	c-3.159-2.33-5.779-5.247-8.758-7.769c-1.825-1.545-3.531-3.231-5.37-4.759c-0.852-0.706-1.827-1.469-2.86-1.707
	c-2.509-0.577-4.309-2.241-5.911-3.928c-2.938-3.092-6.349-5.565-9.647-8.194c-1.995-1.589-4.1-3.04-5.895-4.87
	c-0.272-0.277-0.566-0.575-1.065-0.443c-0.651,0.481-0.477,1.303-0.629,1.949c-1.286,5.433-3.028,10.74-4.234,16.201
	c-1.326,5.997-3.187,11.874-4.648,17.844c-1.255,5.127-1.997,10.347-1.976,15.649c0.016,3.758-0.056,7.521,0.112,11.272
	c0.092,2.06,0.565,4.106,0.926,6.148c1.456,8.248,2.949,16.487,4.991,24.617c0.542,2.159,0.139,4.477,1.069,6.583
	c0.08,0.183,0.044,0.522-0.079,0.675c-1.947,2.423-1.479,5.264-1.325,8.004c0.426,7.642,1.043,15.271,2.068,22.857
	c1.314,9.729,3.259,19.337,5.502,28.897c1.785,7.609,3.394,15.27,4.776,22.962c1.227,6.822,2.022,13.722,3.031,20.583
	c1.078,7.338,2.191,14.67,3.67,21.942c0.364,1.796,0.586,3.625,0.79,5.447c0.363,3.253,1.001,6.437,1.777,9.622
	c0.768,3.153,0.967,6.44,1.523,9.65c0.428,2.467,0.271,4.874,0.081,7.364c-0.407,5.347-1.308,10.616-2.079,15.902
	c-0.482,3.307-1.226,6.581-1.501,9.922c-0.177,2.146-0.346,4.296-0.397,6.448c-0.121,5.023-0.272,10.047-0.371,15.071
	c-0.09,4.598-0.376,9.223-1.264,13.778c-1.052,5.399-1.94,10.83-2.977,16.232c-1.262,6.576-2.548,13.146-4.106,19.666
	c-1.724,7.215-2.96,14.535-3.237,21.97c-0.177,4.716,0.85,9.184,3.195,13.325c0.904,1.596,1.705,3.232,2.213,5.028
	c0.3,1.064,0.195,1.817-0.549,2.599c-0.604,0.633-1.112,1.358-1.646,2.057c-1.225,1.599-2.634,2.783-4.852,2.386
	c-0.945-0.17-1.246,0.348-1.262,1.24c-0.041,2.433,0.607,4.734,1.288,7.024c1.875,6.312,4.861,12.107,8.33,17.669
	c0.462,0.741,1.006,1.443,1.588,2.098c3.314,3.729,5.459,8.229,8.207,12.329c2.403,3.585,0.305,6.351-2.396,7.895
	c-5.113,2.925-10.615,3.438-16.161,1.604c-3.695-1.223-7.226-2.938-10.535-5.065c-2.226-1.429-4.327-2.979-6.202-4.85
	c-2.075-2.072-3.223-4.738-4.65-7.21c-1.469-2.542-2.833-5.168-3.961-7.874c-1.194-2.865-2.092-5.856-3.056-8.814
	c-1.25-3.836-3.621-6.695-7.221-8.521c-1.428-0.726-2.773-1.576-4.097-2.478c-3.773-2.567-5.126-6.403-5.485-10.67
	c-0.152-1.809,0.117-3.657,0.26-5.483c0.058-0.735-0.053-1.359-0.323-2.065c-0.825-2.16,0.093-4.815,2.183-5.922
	c3.845-2.037,5.67-5.635,6.826-9.401c1.519-4.948,2.37-10.101,3.5-15.167c0.352-1.58,0.269-3.15,0.063-4.762
	c-0.323-2.534-0.523-5.093-0.606-7.647c-0.136-4.237-0.508-8.465-0.625-12.695c-0.146-5.292-0.938-10.503-1.586-15.727
	c-0.686-5.537-1.952-11.005-2.567-16.548c-0.617-5.561-0.397-11.149,0.434-16.722c0.982-6.579,3.424-12.562,6.882-18.17
	c1.632-2.646,2.687-5.418,2.591-8.568c-0.021-0.714-0.097-1.462,0.277-2.116c0.84-1.466,0.438-2.736-0.212-4.22
	c-2.499-5.705-5.383-11.223-7.955-16.89c-2.325-5.119-3.648-10.553-5.044-15.963c-0.6-2.324-1.229-4.633-2.271-6.808
	c-0.207-0.433-0.434-0.866-0.557-1.325c-1.69-6.295-4.039-12.385-5.043-18.905c-0.584-3.79-1.476-7.636-3.252-11.216
	c-1.254-2.527-2.328-5.243-2.255-8.226c0.023-0.95-0.43-1.868-0.995-2.665c-5.146-7.256-8.889-15.313-13.215-23.037
	c-2.065-3.688-3.774-7.549-5.806-11.575c-0.594,2.707-1.061,5.225-1.028,7.762c0.077,5.84-0.474,11.635-0.94,17.441
	c-0.353,4.395,0.27,8.777,0.317,13.172c0.047,4.388,0.274,8.78,0.616,13.155c0.279,3.571-0.051,7.185,0.73,10.72
	c0.051,0.23,0.038,0.479,0.022,0.718c-0.39,5.918,0.388,11.763,0.945,17.636c1.088,11.46,2.581,22.864,4.578,34.193
	c0.872,4.94,2.414,9.753,4.465,14.374c0.744,1.675,1.416,3.398,1.912,5.159c0.261,0.926,0.653,2.259-0.562,2.794
	c-1.082,0.477-2.329,1.061-3.572,0.121c-1.424-1.077-3.17-1.494-4.796-2.124c-1.892-0.734-2.555-0.34-3.381,1.459
	c-2.394,5.214-2.809,10.682-2.588,16.357c0.183,4.722,1.52,9.304,1.286,14.062c-0.191,3.893-0.03,7.789-1.145,11.608
	c-1.156,3.962-2.688,7.693-5.827,10.498c-3.249,2.902-6.865,5.113-11.412,5.28c-1.978,0.073-3.907,0.496-5.941,0.212
	c-2.97-0.414-5.374-1.941-7.87-3.348c-0.343-0.193-0.695-0.436-0.933-0.741c-3.606-4.627-5.841-9.599-4.724-15.729
	c0.75-4.109,2.089-8.013,3.337-11.961c0.24-0.761,0.617-1.466,1.156-2.08c2.533-2.885,3.038-6.376,3.094-10.046
	c0.033-2.179-0.508-4.272-0.666-6.418c-0.1-1.353-0.306-2.699-0.36-4.053c-0.041-1.017-0.339-1.48-1.445-1.23
	c-1.543,0.35-3.118,0.549-4.573,1.247c-0.725,0.348-1.505,0.558-2.212-0.143c-0.673-0.667-0.159-1.304-0.05-1.989
	c0.285-1.791,1.419-3.197,2.083-4.816c2.224-5.426,3.171-10.915,2.357-16.821c-0.882-6.397-1.437-12.846-2.436-19.232
	c-1.651-10.561-3.4-21.106-5.058-31.667c-0.385-2.454-1.232-4.783-1.695-7.222c-0.718-3.781-0.917-7.609-1.373-11.412
	c-0.646-5.393-1.164-10.806-1.321-16.232c-0.139-4.786-1.121-9.565-0.651-14.328c0.625-6.34,0.463-12.748,1.684-19.036
	c0.21-1.085,0.152-2.229,0.16-3.346c0.061-8.855,0.258-17.711,0.056-26.566c-0.003-0.134-0.105-0.266-0.195-0.482
	c-2.654,4.048-4.921,8.273-7.519,12.298c-1.937,3.001-3.389,6.312-5.276,9.35c-1.645,2.649-3.001,5.445-4.492,8.167
	c-1.717,3.137-3.18,6.432-4.11,9.908c-0.498,1.862-0.546,3.751-0.038,5.68c0.416,1.576,0.468,3.2-1.411,4.097
	c-0.621,0.296-0.81,0.848-0.823,1.579c-0.057,3.271-0.103,6.504,0.754,9.731c0.958,3.604,2.116,7.201,1.505,11.064
	c-0.325,2.059-0.83,4.057-1.489,6.009c-1.069,3.159-1.833,6.445-3.719,9.289c-0.707,1.066-1.367,2.13-2.393,2.947
	c-0.776,0.617-1.52,1.173-2.577,1c-0.995-0.163-1.449,0.39-1.705,1.249c-0.159,0.535-0.477,1.043-0.54,1.584
	c-0.371,3.228-2.441,5.479-4.395,7.801c-0.935,1.111-2.403,1.249-3.625,1.684c-1.189,0.424-2.095,1.021-2.943,1.865
	c-0.741,0.737-1.57,1.372-2.61,1.618c-1.609,0.381-2.705-0.459-2.583-2.111c0.075-1.021,0.398-2.038,0.717-3.021
	c0.518-1.595,0.763-3.045-0.798-4.29c-0.528-0.421-0.739-1.22-1.16-1.799c-1.617-2.223-1.543-4.356,0.075-6.584
	c3.649-5.023,5.644-10.828,7.836-16.562c1.491-3.897,2.495-7.895,3.347-11.947c0.343-1.631,0.495-3.302,0.722-4.955
	c0.465-3.385-0.692-4.176-3.638-3.576c-0.466-0.804-0.263-1.516,0.272-2.208c0.438-0.567,0.851-1.157,1.254-1.75
	c1.971-2.9,2.846-6.111,3.334-9.593c0.584-4.168,0.959-8.388,2.085-12.486c0.415-1.511,0.535-3.196,0.367-4.756
	c-0.559-5.191,0.521-10.181,1.746-15.125c1.648-6.653,3.511-13.244,6.165-19.602c1.274-3.052,3.177-5.71,4.657-8.621
	c2.169-4.266,4.438-8.456,7.263-12.361c1.539-2.127,1.97-4.789,2.2-7.486c0.48-5.642,0.895-11.305,0.638-16.936
	c-0.396-8.711,0.513-17.383,0.323-26.072c-0.098-4.459-0.372-8.93-1.112-13.348c-0.879-5.246-0.642-10.504,0.036-15.731
	c0.605-4.675,1.942-9.21,3.277-13.723c1.227-4.146,3.779-7.537,6.678-10.634c3.32-3.547,6.951-6.665,11.258-9.103
	c4.21-2.384,8.489-4.72,12.375-7.67c1.127-0.855,2.513-1.36,3.731-2.107c1.271-0.779,2.708-1.417,3.098-3.114
	c0.115-0.503,0.689-0.621,1.072-0.898c4.458-3.23,8.861-6.559,12.515-10.692c1.702-1.924,3.404-4.014,3.624-6.84
	c0.094-1.209-0.161-2.202-0.982-3.071c-1.773-1.876-3.078-4.072-4.345-6.301c-1.933-3.402-4.486-6.411-6.317-9.878
	c-0.8-1.515-2.131-2.837-1.73-4.809c0.086-0.421-0.322-0.604-0.718-0.799c-1.93-0.95-2.973-2.846-4.416-4.316
	c-0.299-0.304-0.428-0.87-0.46-1.327c-0.226-3.237-1.287-6.238-2.533-9.188c-0.575-1.361-0.782-2.78-0.583-4.225
	c0.237-1.721,1.216-2.396,2.918-2.114c-0.046-4.056-0.876-8.004-1.707-11.925c-0.385-1.815-1.397-3.486-1.593-5.416
	c-0.235-2.319-0.097-4.632-0.101-6.948c-0.001-0.734,0.382-1.263,1.013-1.772c1.551-1.25,3.046-2.591,4.424-4.029
	c1.671-1.743,3.881-2.512,5.952-3.504c1.659-0.794,2.788-1.775,2.86-3.729c0.039-1.056,0.665-1.875,1.302-2.696
	c0.997,0.851,0.367,2.097,1.078,3.103c1.626-1.212,3.523-2.13,3.501-4.611c-0.003-0.386,0.012-0.874,0.524-0.933
	c0.473-0.054,0.604,0.398,0.806,0.738c1.749,2.948,1.439,6.094,0.551,9.128c-0.643,2.196-1.555,4.364-2.846,6.314
	c-0.848,1.28-1.007,1.422-2.706,2.162c1.915-2.059,3.512-4.286,4.248-7.449c-2.18,0.929-3.074,2.694-4.436,3.905
	c-0.574,0.511-1.11,1.133-1.654,1.713c-0.411,0.438-0.965,0.68-0.504,1.544c0.301,0.562-0.474,1.123-0.897,1.564
	c-1.1,1.146-2.265,2.23-3.803,3.726c2.375-0.298,4.13-0.543,5.275-2.207c0.242-0.351,0.549-0.797,0.901-0.606
	c1.21,0.658,1.707-0.317,2.304-0.937c2.548-2.646,5.074-5.309,6.314-8.898c0.244-0.707,0.43-1.615,1.49-1.646
	c0.199-0.006,0.322-0.09,0.321-0.285c-0.014-2.303,1.858-3.702,2.684-5.603c0.338-0.779,0.911-1.48,0.885-2.861
	c-2.371,3.578-4.188,7.01-6.704,10.063c-0.798-0.675-0.366-1.122,0-1.639c1.292-1.825,2.618-3.631,3.8-5.526
	c1.335-2.141,2.897-4.199,3.04-6.832c0.965-0.094,0.724,0.825,1.121,1.122c0.616-0.416-0.015-1.363,0.81-1.595
	c0.343-0.006,0.397,0.261,0.383,0.481c-0.139,2.161-0.725,4.235-1.241,6.324c-0.633,2.563-1.528,5.032-2.623,7.432
	c-0.153,0.335-0.486,0.672-0.083,1.288c2.566-3.263,4.733-6.597,4.976-11.019c1.346,0.896,0.981,1.969,0.67,2.864
	c-0.627,1.802-1.416,3.548-2.144,5.314c-0.235,0.571-0.486,1.135-0.486,1.885c1.16-1.134,2.337-2.251,3.469-3.412
	c0.314-0.322,0.706-1.037,0.25-1.207c-1.59-0.591-0.575-1.233-0.176-1.915c1.619-2.77,2.06-4.558,2.433-10.165
	c1.951,2.866,1.358,5.943,2.277,8.816c0.78-1.022,0.023-1.991,0.377-2.82c1.035-0.285,0.715,0.854,1.244,1.116
	c1.354-1.593,1.759-3.476,1.713-5.513c-0.01-0.444-0.155-1.038,0.463-1.206c0.552-0.149,0.852,0.328,1.157,0.686
	c0.747,0.876,1.148,1.862,1.183,3.049c0.066,2.255-0.304,4.456-0.701,6.653c-0.129,0.716-0.316,1.401-0.126,2.122
	c-0.273-0.236-1.079,0.477-0.921-0.517c0.156-0.986,0.467-1.97,0.051-2.973c0.011,2.528-1.388,4.741-1.555,7.243
	C292.274,82.699,293.169,81.506,293.65,80.058z M269.177,80.575c-0.628,0.048-1.038,0.54-1.279,0.961
	c-0.998,1.744-2.394,3.173-3.574,4.77c-0.313,0.424-0.746,0.8-0.698,1.451c1.13,0.102,1.421-0.856,1.929-1.496
	c0.439-0.554,0.688-1.462,1.237-1.689c1.888-0.782,2.127-2.368,2.337-4.038c1.826-0.723,1.954-1.307,0.623-2.941
	C269.412,78.568,268.904,79.494,269.177,80.575z M277.522,91.613c0.726,0.097,1.485,0.48,2.075-0.283
	c-1.1-0.914-1.1-0.914-2.066,0.32c-0.107-0.29-0.276-0.839-0.314-0.831c-1.167,0.271-2.503-0.729-3.566,0.541
	c-0.402,0.48-1.111,0.704-1.68,1.045c-0.102-0.14-0.203-0.279-0.305-0.418c1.237-0.796,2.354-1.724,3.427-2.699
	c2.136-1.94,2.146-1.929,2.425-3.637c-1.035,1.105-1.825,2.116-2.783,2.928c-1.15,0.974-1.207-0.057-1.3-0.868
	c2.733-1.884,3.215-4.975,4.29-7.751c-1.059,1.464-1.969,3.01-2.81,4.593c-0.549,1.032-1.39,1.943-1.432,3.205
	c-1.588,1.168-2.591,2.896-3.992,4.262c-0.968,0.944-1.284,2.619-3.035,3.778c4.305-0.619,8.008-1.143,10.667-4.262
	C277.247,91.392,277.417,91.453,277.522,91.613z M309.965,171.33c-0.512,0.891-0.953,1.607-1.592,2.251
	c-2.792,2.815-6.416,4.099-9.989,5.337c-3.139,1.088-6.452,1.674-9.692,2.47c-6.751,1.659-13.541,3.088-20.552,2.738
	c-3.021-0.15-6.078-0.308-8.812-1.832c-1.469-0.818-2.683-0.59-3.945,0.445c-1.102,0.904-2.246,1.842-3.525,2.429
	c-2.84,1.302-5.263,3.266-7.983,4.748c-0.31,0.168-0.665,0.414-0.67,0.829c0.207,0.266,0.467,0.21,0.68,0.125
	c3.109-1.241,6.214-2.493,9.318-3.749c0.294-0.119,0.559-0.361,0.858-0.409c0.688-0.107,1.354,0.087,1.481,0.839
	c0.104,0.611-0.51,0.672-0.979,0.781c-2.811,0.654-5.435,1.834-8.123,2.843c-2.839,1.064-5.602,2.292-8.378,3.5
	c-3.064,1.333-6.034,2.691-7.568,5.972c-0.218,0.466-0.571,1.483-1.253,1.127c-0.975-0.508-0.005-1.196,0.18-1.809
	c0.023-0.077-0.144-0.212-0.32-0.455c-1.137,1.122-2.267,2.224-3.381,3.34c-3.214,3.219-5.497,7.015-6.943,11.316
	c-1.246,3.703-2.112,7.5-2.775,11.347c-0.924,5.363-1.197,10.722-0.383,16.148c0.662,4.409,1.094,8.869,1.088,13.331
	c-0.006,5.441-0.238,10.884-0.398,16.325c-0.063,2.147-0.431,4.311-0.259,6.435c0.576,7.106,0.124,14.181-0.436,21.252
	c-0.252,3.197-0.23,6.57-3.148,8.856c-0.054,0.042-0.05,0.151-0.09,0.22c-1.599,2.755-3.239,5.487-4.786,8.272
	c-0.811,1.46-1.279,3.135-2.217,4.496c-2.331,3.385-3.906,7.107-5.404,10.895c-0.826,2.088-1.33,4.264-2.011,6.39
	c-2.119,6.618-3.822,13.324-4.247,20.296c-0.077,1.269,0.004,2.555-0.156,3.812c-0.704,5.536-1.414,11.073-2.232,16.593
	c-0.455,3.065-0.854,6.161-2.384,8.968c-0.461,0.846-1.454,1.5-1.293,2.549c1.496,0.861,3.048,0.914,4.528,1.02
	c4.046,0.288,7.908-0.253,11.293-2.848c0.798-0.612,1.053-1.09,0.754-1.943c-0.519-1.485-0.469-3.02-0.167-4.497
	c0.674-3.287,1.867-6.432,3.319-9.434c2.529-5.229,5.439-10.261,8.297-15.322c2.935-5.196,6.231-10.156,9.309-15.256
	c1.145-1.897,1.755-4.084,3.082-5.899c0.295-0.404,0.109-0.932,0.131-1.407c0.127-2.709,0.195-5.424,0.436-8.123
	c0.597-6.676,1.152-13.351,2.014-20.011c0.907-7.01,4.011-12.649,8.847-17.517c0.64-0.644,0.96-1.204,0.854-2.059
	c-0.197-1.594-0.045-3.187-0.013-4.784c0.085-4.304,0.281-8.61-0.106-12.917c-0.699-7.782-2.055-15.5-2.336-23.322
	c-0.136-3.764-0.984-7.428-1.473-11.143c-0.581-4.417-0.909-8.883-2.289-13.161c-0.562-1.744-1.17-3.473-1.747-5.211
	c-0.358-1.081-0.169-1.938,0.99-2.51c2.041,6.032,3.763,11.958,4.247,18.204c0.233,3.012,0.851,5.995,1.316,8.987
	c0.221,1.42,0.548,2.822,0.567,4.271c0.061,4.636,0.673,9.225,1.197,13.821c0.516,4.522,1.132,9.041,1.195,13.596
	c0.054,3.906-0.138,7.815-0.156,11.723c-0.016,3.608,1.687,5.029,5.105,4.102c3.539-0.959,7.096-0.817,10.684-0.656
	c1.237,0.056,2.313,0.471,3.423,0.948c3.715,1.598,6.221,4.691,9.142,7.271c2.812,2.483,4.556,5.666,6.206,8.992
	c2.203,4.438,2.063,9.439,3.762,13.996c0.806,2.16,1.37,3.118,3.771,3.042c3.324-0.104,6.715,0.572,9.956-0.744
	c0.277-0.113,0.634-0.036,0.953-0.042c6.031-0.118,11.434,2.174,16.568,4.867c6.34,3.324,12.08,7.758,18.714,10.572
	c3.61,1.531,7.508,1.228,11.284,0.975c2.007-0.135,2.645-1.757,2.291-3.929c-0.91-5.595-2.459-11.049-3.686-16.572
	c-2.04-9.181-2.992-18.428-2.662-27.813c0.047-1.355-0.127-2.699,0.05-4.067c0.667-5.149,1.458-10.27,2.821-15.291
	c1.254-4.615,2.449-9.246,3.674-13.869c1.305-4.923,2.641-9.837,3.908-14.77c0.647-2.518,1.343-5.042,1.716-7.607
	c0.538-3.707,1.56-7.323,1.75-11.104c0.204-4.047-0.494-7.951-1.171-11.887c-0.411-2.391-0.187-4.69,1.559-6.795
	c0.87,4.293,1.599,8.398,1.708,12.61c0.124,4.738-0.307,9.411-1.166,14.059c-0.099,0.535-0.488,1.146-0.074,1.617
	c1.839,2.095,3.231,4.561,5.399,6.383c5.309,4.463,10.769,8.758,15.508,13.862c0.594,0.639,1.317,1.16,2,1.713
	c4.471,3.62,9.131,7.032,13.374,10.9c5.266,4.8,11.267,8.635,16.654,13.259c0.729,0.626,0.932,1.234,1.208,2.081
	c0.5,1.532,0.784,3.133,1.648,4.589c1.605,2.704,3.67,5.046,5.7,7.374c2.283,2.616,4.544,5.395,7.93,6.776
	c1.585,0.647,2.617,2.017,3.95,2.982c3.377,2.444,5.866,5.604,7.846,9.213c2.175,3.967,3.943,8.163,6.659,11.827
	c2.414-1.013,4.826-2.03,7.243-3.038c2.078-0.866,4.161-1.593,6.488-0.967c0.668,0.179,1.433,0.029,2.15-0.012
	c1.127-0.064,1.229-0.311,0.67-1.274c-1.723-2.967-3.048-6.102-3.984-9.406c-0.785-2.769-1.679-5.513-2.999-8.071
	c-3.543-6.863-7.094-13.714-11.728-19.954c-3.034-4.086-5.555-8.549-9.171-12.205c-2.136-2.159-4.302-4.258-7.129-5.514
	c-1.43-0.635-2.531-1.586-3.221-3.041c-0.583-1.229-1.49-2.255-2.344-3.317c-3.046-3.793-6.146-7.551-9.021-11.473
	c-3.501-4.776-7.2-9.367-11.354-13.588c-2.072-2.106-4.21-4.152-6.193-6.338c-3.534-3.897-7.172-7.694-10.354-11.919
	c-3.744-4.971-7.785-9.714-10.838-15.179c-2.062-3.692-4.088-7.398-6.763-10.718c-3.153-3.915-6.914-7.065-11.298-9.487
	c-1.399-0.773-3.08-1.513-4.484-1.271c-1.557,0.269-2.931,0.135-4.389-0.117c-0.307-0.053-0.644-0.086-0.939-0.015
	c-2.889,0.701-5.883,0.492-8.785,1.011c-3.438,0.615-6.955,0.625-10.327,1.848c-3.055,1.108-6.3,1.69-9.454,2.53
	c-0.479,0.128-0.979,0.369-1.171-0.277c-0.204-0.688,0.433-0.7,0.861-0.847c4.142-1.416,8.283-2.856,12.637-3.471
	c5.203-0.735,10.42-1.375,15.959-2.099c-1.192-0.143-2.037-0.278-2.919-0.265c-3.753,0.054-7.508-0.024-11.259,0.069
	C320.229,175.206,315.083,173.711,309.965,171.33z M299.294,403.283c0.72,1.138,0.857,2.457,0.981,3.787
	c0.304,3.252,1.203,6.435,1.12,9.734c-0.007,0.306,0.129,0.623,0.235,0.923c1.222,3.464,2.114,7.021,3.088,10.559
	c1.714,6.228,4.045,12.272,5.685,18.528c0.08,0.307,0.197,0.605,0.316,0.899c1.048,2.577,1.978,5.188,2.763,7.866
	c0.532,1.815,1.131,3.632,1.946,5.384c1.242,2.668,2.274,5.446,3.216,8.239c1.193,3.544,2.062,7.194,3.126,10.775
	c1.113,3.743,1.608,7.806,4.425,10.879c0.412,2.432,1.099,4.926,0.164,7.311c-2.269,5.787-4.467,11.611-7.179,17.212
	c-2.866,5.921-4.029,12.197-4.359,18.713c-0.166,3.272,0.114,6.514,0.256,9.763c0.113,2.612,0.209,5.309,0.924,7.791
	c1.228,4.27,1.672,8.586,1.87,12.976c0.315,7.024,0.439,14.057,1.078,21.069c0.384,4.207,0.641,8.442,0.093,12.676
	c-0.573,4.432-1.264,8.841-2.449,13.151c-0.909,3.306-2.021,6.48-4.309,9.225c-1.141,1.368-2.354,2.767-3.238,4.411
	c-0.646,1.2-0.458,1.92,0.367,2.713c1.168,1.123,2.573,1.86,4.103,2.35c6.886,2.204,13.964,3.216,21.177,3.312
	c3.646,0.049,7.08,0.74,10.116,2.884c0.652,0.461,1.308,0.922,1.991,1.333c1.421,0.854,4.14,0.683,5.461-0.353
	c1.553-1.217,2.066-2.76,1.356-4.649c-0.531-1.413-0.891-2.874-1.539-4.263c-2.145-4.588-3-9.444-2.176-14.459
	c0.52-3.155,0.869-6.325,1.287-9.489c0.21-1.582,0.409-3.154,0.708-4.729c0.875-4.624,2.258-9.127,3.161-13.74
	c0.72-3.675,1.243-7.394,2.116-11.03c0.709-2.952,0.77-6.045,1.715-8.893c1.001-3.013,0.697-6.062,0.864-9.074
	c0.262-4.758,0.609-9.533,0.555-14.293c-0.061-5.157,1.131-10.137,1.568-15.217c0.389-4.512,1.235-8.982,1.854-13.475
	c0.675-4.898,1.15-9.831,2.042-14.688c0.523-2.847-0.252-5.665,0.317-8.474c0.096-0.473-0.296-1.049-0.48-1.571
	c-0.424-1.205-0.827-2.409-0.915-3.703c-0.147-2.147-0.266-4.301-0.53-6.435c-0.824-6.644-1.884-13.25-3.148-19.827
	c-0.979-5.088-1.785-10.211-2.539-15.338c-0.789-5.363-1.472-10.744-2.232-16.11c-0.839-5.917-2-11.796-3.38-17.62
	c-1.877-7.918-3.833-15.818-5.636-23.753c-0.616-2.713-0.694-5.537-1.366-8.254c-0.576-2.327-0.808-4.694-1.071-7.076
	c-0.344-3.101-0.312-6.211-0.622-9.308c-0.517-5.153-1.347-10.288-1.078-15.498c0.049-0.957,0.026-1.919-0.001-2.878
	c-0.062-2.127-0.071-2.131-2.142-2.038c-0.559,0.024-1.115,0.083-1.674,0.119c-3.749,0.24-7.295-0.525-10.669-2.151
	c-3.103-1.495-5.919-3.465-8.797-5.329c-3.548-2.298-6.822-5.076-10.698-6.796c-5.723-2.541-11.836-3.127-18.02-2.634
	c-2.542,0.203-5.043,0.639-7.604,0.187c-0.87-0.153-1.788-0.143-2.937-0.498c0.842,4.947,0.165,9.555,0.088,14.169
	c-0.024,1.432-0.023,2.874-0.198,4.291c-0.457,3.707-1.043,7.398-1.491,11.106c-0.133,1.102-0.567,2.329,0.758,3.208
	c0.512,0.34,0.385,1.176,0.477,1.807c0.138,0.947,0.287,1.894,0.467,2.833c0.088,0.463,0.227,1.117,0.8,1.002
	c1.205-0.241,1.077,0.6,1.2,1.267c0.376,2.034,0.973,3.915,2.268,5.645c0.752,1.005,1.685,2.113,1.995,3.299
	c0.427,1.639,2.235,2.518,2.128,4.35c-0.006,0.105,0.203,0.323,0.308,0.32c1.412-0.038,1.334,1.056,1.499,1.954
	c0.056,0.303,0.007,0.829,0.296,0.817c1.284-0.052,1.195,1.028,1.239,1.665c0.166,2.406,0.341,4.739,2.6,6.274
	c0.192,0.13,0.097,0.626,0.237,0.901c0.523,1.024,0.877,2.588,1.693,2.897c1.025,0.388,1.3,0.84,1.458,1.703
	c0.051,0.278,0.035,0.52,0.361,0.766c2.34,1.769,2.38,2.125,0.622,4.113c1.826,0.671,1.678,2.471,2.179,3.883
	c0.165,0.464-0.298,0.857-0.919,0.721C300.257,403.319,299.968,402.918,299.294,403.283z M239.38,503.141
	c0.529-0.355,0.889-0.535,1.171-0.797c2.86-2.662,6.368-4.188,9.9-5.671c0.368-0.155,0.738-0.312,1.119-0.43
	c0.307-0.094,0.691-0.153,0.881,0.147c0.242,0.381,0.011,0.767-0.238,1.071c-0.145,0.178-0.372,0.307-0.586,0.405
	c-1.155,0.528-2.278,1.177-3.485,1.533c-3.879,1.146-6.779,3.496-8.737,6.974c-0.899,1.598-2.292,2.957-2.75,5.028
	c1.654-0.071,2.771-0.824,3.88-1.575c1.322-0.896,2.587-1.885,3.952-2.708c2.135-1.287,4.433-2.329,6.952-2.348
	c4.068-0.029,8.151-0.044,12.187,0.654c3.155,0.545,6.325,0.782,9.525,0.496c2.584-0.23,5.036,0.191,7.415,1.296
	c1.245,0.577,2.606,1.04,4.035,0.927c0.056-1.304-0.361-2.26-0.734-3.232c-1.085-2.83-2.329-5.615-3.19-8.514
	c-2.03-6.826-3.078-13.853-3.895-20.915c-0.559-4.834-1.207-9.659-1.692-14.5c-0.494-4.919-1.347-9.808-1.259-14.781
	c0.038-2.155-0.021-4.317-0.14-6.47c-0.437-7.896-0.618-15.803-1.091-23.699c-0.535-8.936-0.611-17.872,0.279-26.818
	c0.489-4.917,0.394-9.891,0.998-14.816c0.173-1.406,0.483-2.938-0.055-4.278c-1.364-3.395-0.937-6.866-0.085-10.133
	c1.023-3.928,2.123-7.815,2.862-11.822c0.653-3.542,1.193-7.07,1.216-10.666c0.031-4.796,0.039-9.592,0.012-14.388
	c-0.016-2.868-0.051-5.727-0.629-8.571c-1.043-5.13-2.433-10.132-5.834-14.239c-2.647-3.197-5.752-5.965-9.112-8.425
	c-1.237-0.906-2.567-1.611-4.083-1.938c-7.061-1.522-13.589,0.097-19.823,3.384c-0.473,0.25-0.825,0.736-1.222,1.124
	c-1.289,1.259-1.767,2.982-2.624,4.49c-0.94,1.657-1.401,3.327-1.479,5.207c-0.097,2.306-0.104,4.67-0.634,6.894
	c-1.488,6.248-2.033,12.593-2.421,18.967c-0.208,3.422-0.501,6.846-0.504,10.269c-0.001,1.983,0.215,3.979,0.269,5.976
	c0.208,7.831-0.392,15.648-0.313,23.476c0.029,2.814,1.033,5.691-0.427,8.434c-0.544,5.938-1.841,11.775-1.238,17.85
	c0.779,7.859,1.262,15.748,2.499,23.556c0.725,4.577,1.01,9.206,1.631,13.785c1.222,9.001,2.912,17.938,4.169,26.935
	c0.872,6.237,2.119,12.417,2.815,18.676c0.626,5.626,1.354,11.243,1.453,16.923C240.359,498.289,239.849,500.592,239.38,503.141z
	 M266.721,97.452c-3.769,0.06-3.82,0-5.7,1.601c-1.508,1.284-4.093,1.46-4.76,3.253c-0.652,1.754-0.175,3.935-0.401,5.932
	c-0.314,2.78-0.218,5.503,0.67,8.268c2.155,6.701,3.47,13.581,3.453,20.665c-0.003,1.283,0.313,2.423,1.04,3.556
	c2.711,4.23,5.32,8.526,7.938,12.816c1.553,2.546,3.57,4.701,5.699,6.739c3.897,3.73,8.646,4.135,13.623,3.1
	c1.776-0.37,3.645-0.728,5.195-1.73c2.21-1.428,4.174-3.094,5.684-5.378c1.418-2.147,2.549-4.39,3.607-6.709
	c1.857-4.069,3.602-8.136,4.441-12.595c1.11-5.895,2.295-11.731,1.363-17.785c-0.275-1.785-0.473-3.704-0.355-5.422
	c0.2-2.947-0.014-5.932,0.428-8.829c0.553-3.636-0.338-6.968-1.335-10.34c-0.308-1.041-0.593-2.104-2.085-1.286
	c-0.499,0.273-0.897-0.157-1.3-0.398c-0.815-0.49-1.653-0.512-2.523-0.146c-2.166,0.91-4.315,0.708-6.556,0.146
	c-1.82-0.457-3.765-0.962-5.607-0.03c-1.741,0.881-3.566,0.809-5.383,0.589c-2.423-0.293-4.709-0.161-6.896,1.1
	c-1.655,0.955-3.416,1.728-5.146,2.547c-0.495,0.234-1.176,0.632-1.549,0.463C269.058,97.031,267.895,97.485,266.721,97.452z
	 M252.308,566.213c7.739,0.798,14.153-4.942,16.208-12.109c0.33-1.15,0.671-2.298,0.952-3.46c0.637-2.634,1.346-5.248,1.625-7.962
	c0.635-6.16,0.045-12.268-0.733-18.363c-0.338-2.644-0.33-5.239,0.311-7.836c0.552-2.238,0.852-4.528,1.709-6.704
	c0.519-1.315,0.174-1.719-1.222-1.649c-4.069,0.203-8.112-0.44-12.179-0.299c-1.033,0.036-2.085-0.028-3.107-0.184
	c-2.702-0.41-5.377-0.365-8.093-0.035c-1.341,0.162-1.775,0.813-1.967,1.927c-0.475,2.759-0.903,5.532-0.674,8.337
	c0.242,2.961,0.045,5.879-0.258,8.83c-0.315,3.074-1.146,5.928-2.449,8.693c-0.917,1.946-1.763,3.926-2.653,5.886
	c-0.467,1.026-0.295,2.227-0.896,3.214c-2.425,3.983-2.05,8.305-0.356,12.162C241.065,562.441,245.276,566.553,252.308,566.213z
	 M346.71,642.962c-0.572,1.129-0.043,1.853,0.097,2.616c0.434,2.358-0.206,4.425-1.721,6.234c-0.334,0.399-0.708,0.981-1.379,0.534
	c-0.493-0.328-0.804-0.829-0.675-1.433c0.098-0.457,0.377-0.873,0.534-1.321c1.174-3.344,1.32-6.687-0.096-10.001
	c-0.48-1.123-1.193-1.941-2.458-2.409c-2.986-1.104-6.045-1.352-9.177-1.249c-1.514,0.05-3.008-0.023-4.527-0.246
	c-5.546-0.812-10.913-2.336-16.292-3.834c-2.55-0.71-3.6,0.239-3.159,2.887c0.479,2.883,1.82,5.228,4.259,6.934
	c1.643,1.148,3.461,1.984,5.143,3.052c2.597,1.647,4.603,3.771,5.877,6.675c1.722,3.924,3.232,7.965,5.596,11.585
	c0.172,0.263,0.281,0.571,0.391,0.869c1.924,5.199,4.497,10.077,7.945,14.393c2.264,2.833,4.573,5.763,8.045,7.342
	c2.987,1.357,6.046,2.528,9.315,2.934c3.888,0.482,7.648-0.328,11.21-1.778c2.449-0.998,2.804-2.354,1.456-4.542
	c-2.168-3.521-4.056-7.229-6.735-10.421c-0.718-0.855-1.516-1.67-2.084-2.618c-3.896-6.508-7.688-13.06-9.637-20.502
	C348.165,646.856,347.848,644.944,346.71,642.962z M441.041,325.478c-0.041,0.499,0.148,0.751,0.398,0.959
	c1.691,1.406,2.938,3.143,3.783,5.161c0.834,1.987,1.569,4.017,2.444,5.984c0.694,1.562,0.996,3.191,1.159,4.865
	c0.39,3.979,0.278,7.926-0.595,11.848c-0.187,0.838-0.087,1.745-0.084,2.62c0.003,0.804,0.479,1.046,1.237,1.111
	c1.13,0.096,1.968-0.559,2.921-0.934c2.442-0.963,2.942-1.744,2.595-4.305c-0.084-0.625-0.267-1.255-0.518-1.833
	c-0.226-0.519-0.441-1.021-0.472-1.588c-0.062-1.136,0.228-1.384,1.349-1.074c5.708,1.576,9.462,5.08,10.741,10.982
	c0.325,1.502,0.994,2.837,1.688,4.189c0.402,0.783,0.936,1.01,1.71,0.984c1.777-0.058,2.747-1.029,2.824-2.87
	c0.068-1.648-0.62-3.115-1.19-4.598c-0.487-1.266-0.995-2.523-1.193-3.871c-0.198-1.336-0.364-2.679-0.488-4.024
	c-0.059-0.646-0.252-1.058-0.964-1.11c-0.312-0.023-0.66-0.071-0.918-0.228c-0.732-0.445-0.832-1.211-0.565-1.894
	c0.277-0.711,0.952-0.358,1.461-0.216c2.026,0.563,2.658,1.4,2.801,3.543c0.158,2.392,0.401,4.775,1.289,7.033
	c0.812,2.064,1.581,4.136,1.528,6.429c1.373,0.183,2.206-0.666,3.16-1.184c1.065-0.579,1.345-1.503,1.124-2.644
	c-0.588-3.046-1.188-6.089-1.736-9.142c-0.155-0.864-1.018-2.182,0.251-2.485c1.013-0.243,1.289,1.297,1.41,2.125
	c0.335,2.289,0.866,4.55,1.129,6.837c0.212,1.849,0.473,1.697,2.145,1.651c1.229-0.034,1.949-0.83,2.327-2.047
	c0.782-2.52,0.918-5.182,1.808-7.68c0.356-1.002-0.258-1.793-1.001-2.51c-3.851-3.712-7.93-7.138-12.216-10.343
	c-4.899-3.664-10.179-6.943-13.565-12.293c-0.208-0.33-0.538-0.58-0.793-0.883c-0.329-0.39-0.731-0.534-1.243-0.592
	C450.984,320.796,445.87,322.688,441.041,325.478z M185.637,441.628c2.19,0.306,3.403-0.17,4.169-1.935
	c1.422-3.276,2.839-6.562,3.642-10.072c0.203-0.889,0.326-1.771,0.016-2.596c-1.077-2.861-0.627-5.665,0.188-8.466
	c0.445-1.53,0.907-3.058,1.424-4.564c0.193-0.565,0.386-1.444,1.188-1.226c0.896,0.243,0.414,1.071,0.267,1.615
	c-0.354,1.31-0.719,2.628-1.237,3.878c-1.225,2.957-1.004,5.92-0.194,8.9c0.145,0.532,0.382,1.059,0.672,1.528
	c0.485,0.786,1.005,1.069,1.929,0.359c1.33-1.022,2.165-2.359,2.765-3.83c1.416-3.474,2.666-7.005,3.518-10.674
	c0.737-3.173,0.858-6.293-0.211-9.414c-0.991-2.891-1.43-5.859-1.559-8.926c-0.059-1.379,0.231-2.809-0.168-4.423
	c-3.923,1.584-7.885,1.925-11.824,1.257c-0.72,6.269-1.537,12.27-3.501,18.035c-1.362,3.999-2.929,7.927-4.325,11.915
	c-0.374,1.068-0.785,2.063-1.449,2.992c-1.158,1.621-2.36,3.222-3.208,5.043c-1.03,2.21-0.703,3.349,1.518,5.071
	c0.607-1.452,0.513-2.973,0.646-4.46c0.107-1.19,0.25-2.38,0.424-3.562c0.06-0.41,0.361-0.766,0.805-0.712
	c0.463,0.056,0.615,0.476,0.583,0.904c-0.092,1.19-0.193,2.382-0.321,3.569c-0.426,3.954-0.485,7.953-1.498,11.834
	c-0.13,0.502-0.188,1.065,0.324,1.582c1.708-0.982,2.963-2.161,3.589-4.034c0.816-2.444,1.106-4.964,1.393-7.494
	c0.181-1.587,0.287-3.185,0.864-4.7c0.152-0.4,0.362-0.791,0.809-0.73c0.581,0.079,0.794,0.629,0.662,1.095
	c-0.64,2.25-0.224,4.614-0.837,6.876C186.223,438.018,185.982,439.835,185.637,441.628z M258.557,179.662
	c1.148,1.187,2.413,1.918,3.963,2.219c3.304,0.639,6.638,0.67,9.979,0.571c3.276-0.097,6.443-0.867,9.652-1.459
	c6.041-1.115,11.945-2.722,17.738-4.667c3.426-1.15,6.608-3.015,8.491-6.519c-3.071-2.195-4.799-5.154-5.91-8.57
	c-0.344-1.057-0.101-2.759-1.497-2.943c-1.229-0.161-1.937,1.245-2.64,2.187c-1.132,1.517-2.527,2.761-4.275,3.357
	c-2.555,0.872-5.114,1.797-7.818,2.168c-3.665,0.503-7.143,0.159-10.265-2.065c-0.625-0.445-1.26-0.973-2.261-0.964
	c-0.146,1.877-0.608,3.717-1.88,5.029c-2.66,2.746-5.358,5.477-8.515,7.685C261.633,176.872,260.013,178.128,258.557,179.662z
	 M258.098,135.135c-1.371-5.263-2.599-10.027-3.857-14.784c-0.508-1.92-0.673-2.014-2.859-2.079
	c0.307,1.488,0.205,3.015,0.748,4.458c0.757,2.008,1.33,4.062,1.779,6.172C254.421,131.315,255.296,133.631,258.098,135.135z
	 M324.634,659.213c0.025,2.369,0.938,4.464,1.705,6.583c1.442,3.98,3.854,7.479,5.846,11.178c1.574,2.927,4.014,5.228,7.133,6.67
	c-5.192-5.477-8.926-11.819-11.671-18.809C326.875,662.869,325.65,661.082,324.634,659.213z M291.059,80.116
	c-1.081,1.096-1.601,2.432-2.215,3.714c-0.998,2.086-2.026,4.158-3.447,5.994c-0.438,0.565-0.895,1.483-1.864,0.513
	c-0.277-0.277-0.599,0.08-0.738,0.335c-0.193,0.355,0.041,0.642,0.383,0.672c1.183,0.106,2.583,0.594,3.512,0.141
	c1.964-0.959,4.015-2.17,5.232-3.981c1.459-2.171,2.68-4.596,2.936-7.66c-1.226,1.941-2.08,3.749-3.333,5.301
	c-1.236,1.53-2.09,3.409-4.011,4.351C289.242,86.537,290.426,83.415,291.059,80.116z M310.555,125.796
	c2.156-1.147,2.841-2.667,2.547-4.713c-0.089-0.616,0.002-1.268,0.077-1.895c0.179-1.502,0.423-2.997,0.588-4.5
	c0.077-0.701,0.202-1.508-0.627-1.891c-0.862-0.399-1.258,0.445-1.834,0.801c-0.451,0.279-0.625,0.708-0.637,1.211
	C310.584,118.38,310.214,121.951,310.555,125.796z M260.292,84.906c-2.596,1.274-5.065,2.403-7.357,3.882
	c-0.594,0.383-0.661,1.836-0.083,2.253c0.578,0.417,1.199,1.005,2.053,0.168c1.239-1.215,2.777-2.162,3.684-3.668
	C259.084,86.717,260.445,86.553,260.292,84.906z M321.661,653.118c0.479-0.786-0.004-1.247-0.256-1.688
	c-0.967-1.693-2.317-3.098-3.941-4.119c-3.151-1.982-6.545-3.59-9.229-6.287c0.628,2.587,2.692,3.736,4.7,4.828
	C316.316,647.692,319.591,649.614,321.661,653.118z M296.627,91.383c3.543,1.457,6.497-0.305,8.399-4.165
	C302.525,89.443,299.647,90.372,296.627,91.383z M290.346,90.515c4.425-1.073,6.54-4.557,6.838-8.909
	C295.418,85.031,293.388,87.936,290.346,90.515z M282.482,85.951c3.361-3.873,4.733-6.552,4.167-9.392
	c-0.664,1.583-1.344,3.095-1.933,4.641C284.14,82.715,282.943,83.954,282.482,85.951z M297.763,75.141
	c-2.002,2.135-2.13,4.579-2.274,7.526C296.505,79.963,298.128,77.96,297.763,75.141z M255.211,94.885
	c2.982-0.872,5.72-3.327,6.083-5.371C259.125,91.105,257.268,92.852,255.211,94.885z M289.559,80.338
	c1.209-1.787,2.171-3.677,2.446-5.853C290.666,76.218,289.188,77.893,289.559,80.338z M301.136,83.207
	c-1.442,1.497-3.242,2.776-3.69,5.011C298.729,86.594,300.904,85.653,301.136,83.207z M304.959,77.274
	c-1.07,1.863-2.302,3.143-2.094,5.13C305.115,80.628,305.338,80.127,304.959,77.274z M281.544,89.416
	c2.427-1.169,3.151-3.398,3.613-5.779C283.953,85.563,282.749,87.489,281.544,89.416z M308.777,84.062
	c-1.157,1.397-2.413,2.822-3.056,4.828C308.039,87.958,308.128,85.879,308.777,84.062z M298.71,72.192
	c-0.715,0.448-0.873,1.143-0.642,1.368c1.511,1.476,0.717,3.365,1.013,5.341C299.708,76.45,299.632,74.341,298.71,72.192z
	 M303.042,77.083c0.137,0.061,0.274,0.121,0.412,0.181c0.536-1.044,1.089-2.079,1.599-3.136c0.201-0.415,0.01-0.821-0.357-1.027
	c-0.539-0.303-0.688,0.207-0.783,0.545C303.593,74.783,303.328,75.936,303.042,77.083z M306.743,82.021
	c1.069-1.225,1.393-2.524,1.74-4.119C306.794,78.986,306.713,80.377,306.743,82.021z M265.197,80.665
	c-0.797,1.104-1.633,2.172-1.721,3.707C265.112,83.483,265.107,82.034,265.197,80.665z M259.444,94.372
	c1.137-0.606,2.04-1.456,2.676-2.583C260.87,92.276,260.196,93.364,259.444,94.372z M288.461,78.552
	c-0.96,0.972-0.432,2.272-0.803,3.391C288.331,80.92,288.461,79.758,288.461,78.552z M309.629,75.451
	c0.044,1.422-0.536,2.742-0.629,4.497C310.086,78.29,310.024,76.871,309.629,75.451z M277.98,88.518
	c0.669-0.604,1.655-0.982,1.658-2.534C278.859,86.983,277.904,87.382,277.98,88.518z M257.928,99.367
	c-0.83-0.128-1.503-0.411-2.015,0.27c-0.051,0.068,0.03,0.345,0.119,0.391C256.761,100.403,257.307,100.062,257.928,99.367z
	 M251.636,97.385c-0.214,0.686-0.38,1.362,0.09,2.121C251.866,98.706,251.91,98.038,251.636,97.385z M281.022,86.812
	c-0.055-0.078-0.089-0.155-0.148-0.196c-0.023-0.016-0.119,0.036-0.154,0.079c-0.404,0.503-0.962,0.935-0.939,1.789
	C280.574,88.068,280.793,87.432,281.022,86.812z M250.14,95.185c0.199-0.539,0.345-1.032,0.058-1.562
	C249.825,94.128,250.021,94.633,250.14,95.185z M312.451,95.526c0.084,0.021,0.169,0.042,0.253,0.063
	c-0.023-0.371-0.046-0.742-0.068-1.113c-0.029-0.001-0.059-0.003-0.088-0.004C312.516,94.824,312.483,95.175,312.451,95.526z
	 M301.801,87.213c-0.606-0.014-1.026,0.194-1.075,0.876C301.176,87.902,301.602,87.703,301.801,87.213z M254.213,99.42
	c0.002-0.709,0.227-1.177-0.255-1.746C253.742,98.243,253.71,98.711,254.213,99.42z"/>
<path fill-rule="evenodd" clip-rule="evenodd" fill="#DA1C5C" d="M309.965,171.33c5.118,2.382,10.265,3.876,15.821,3.737
	c3.751-0.094,7.506-0.015,11.259-0.069c0.882-0.013,1.727,0.123,2.919,0.265c-5.539,0.724-10.756,1.364-15.959,2.099
	c-4.354,0.615-8.495,2.055-12.637,3.471c-0.429,0.146-1.065,0.158-0.861,0.847c0.191,0.646,0.691,0.405,1.171,0.277
	c3.154-0.84,6.399-1.422,9.454-2.53c3.372-1.223,6.889-1.233,10.327-1.848c2.902-0.519,5.896-0.311,8.785-1.011
	c0.296-0.072,0.633-0.038,0.939,0.015c1.458,0.252,2.832,0.386,4.389,0.117c1.404-0.243,3.085,0.497,4.484,1.271
	c4.384,2.422,8.145,5.572,11.298,9.487c2.675,3.32,4.701,7.026,6.763,10.718c3.053,5.465,7.094,10.208,10.838,15.179
	c3.183,4.225,6.82,8.021,10.354,11.919c1.983,2.187,4.121,4.232,6.193,6.338c4.153,4.222,7.853,8.812,11.354,13.588
	c2.875,3.921,5.976,7.679,9.021,11.473c0.854,1.062,1.761,2.087,2.344,3.317c0.689,1.455,1.791,2.405,3.221,3.041
	c2.827,1.255,4.993,3.354,7.129,5.514c3.616,3.655,6.137,8.119,9.171,12.205c4.634,6.24,8.185,13.091,11.728,19.954
	c1.32,2.558,2.214,5.302,2.999,8.071c0.937,3.304,2.262,6.439,3.984,9.406c0.56,0.964,0.457,1.21-0.67,1.274
	c-0.718,0.041-1.482,0.191-2.15,0.012c-2.327-0.626-4.41,0.102-6.488,0.967c-2.417,1.007-4.829,2.024-7.244,3.037
	c-2.715-3.664-4.483-7.859-6.658-11.826c-1.979-3.609-4.469-6.769-7.846-9.213c-1.333-0.965-2.365-2.335-3.95-2.982
	c-3.386-1.382-5.646-4.161-7.93-6.776c-2.03-2.327-4.095-4.67-5.7-7.374c-0.864-1.456-1.148-3.057-1.648-4.589
	c-0.276-0.846-0.479-1.455-1.208-2.081c-5.388-4.624-11.389-8.458-16.654-13.259c-4.243-3.869-8.903-7.28-13.374-10.9
	c-0.683-0.553-1.406-1.074-2-1.713c-4.739-5.104-10.199-9.398-15.508-13.862c-2.168-1.823-3.561-4.289-5.399-6.383
	c-0.414-0.471-0.024-1.082,0.074-1.617c0.859-4.647,1.29-9.32,1.166-14.059c-0.109-4.211-0.838-8.317-1.708-12.61
	c-1.745,2.104-1.97,4.404-1.559,6.795c0.677,3.936,1.375,7.839,1.171,11.887c-0.19,3.781-1.212,7.397-1.75,11.104
	c-0.373,2.565-1.068,5.089-1.716,7.607c-1.268,4.932-2.604,9.847-3.908,14.77c-1.225,4.623-2.42,9.253-3.674,13.869
	c-1.363,5.021-2.154,10.142-2.821,15.291c-0.177,1.368-0.003,2.711-0.05,4.067c-0.33,9.386,0.622,18.632,2.662,27.813
	c1.227,5.523,2.775,10.977,3.686,16.572c0.354,2.172-0.284,3.794-2.291,3.929c-3.776,0.253-7.674,0.557-11.284-0.975
	c-6.634-2.813-12.374-7.248-18.714-10.572c-5.135-2.692-10.538-4.984-16.568-4.867c-0.319,0.006-0.676-0.071-0.953,0.042
	c-3.24,1.316-6.631,0.64-9.956,0.744c-2.401,0.075-2.965-0.883-3.771-3.042c-1.699-4.556-1.559-9.557-3.762-13.996
	c-1.65-3.326-3.394-6.508-6.206-8.992c-2.921-2.58-5.427-5.672-9.142-7.271c-1.109-0.477-2.186-0.892-3.423-0.948
	c-3.588-0.161-7.145-0.303-10.684,0.656c-3.418,0.927-5.122-0.494-5.105-4.102c0.018-3.908,0.21-7.817,0.156-11.723
	c-0.063-4.555-0.679-9.074-1.195-13.596c-0.524-4.596-1.136-9.185-1.197-13.821c-0.019-1.449-0.346-2.851-0.567-4.271
	c-0.465-2.992-1.083-5.975-1.316-8.987c-0.483-6.245-2.206-12.172-4.247-18.204c-1.159,0.572-1.348,1.43-0.99,2.51
	c0.576,1.739,1.184,3.468,1.747,5.211c1.38,4.278,1.708,8.744,2.289,13.161c0.488,3.715,1.337,7.379,1.473,11.143
	c0.281,7.823,1.637,15.54,2.336,23.322c0.387,4.307,0.191,8.613,0.106,12.917c-0.032,1.597-0.184,3.189,0.013,4.784
	c0.105,0.855-0.214,1.415-0.854,2.059c-4.836,4.868-7.94,10.507-8.847,17.517c-0.862,6.66-1.417,13.334-2.014,20.011
	c-0.241,2.699-0.309,5.414-0.436,8.123c-0.022,0.475,0.164,1.002-0.131,1.407c-1.327,1.815-1.937,4.002-3.082,5.899
	c-3.078,5.1-6.374,10.061-9.309,15.256c-2.858,5.061-5.768,10.093-8.297,15.322c-1.452,3.002-2.645,6.147-3.319,9.434
	c-0.303,1.478-0.352,3.012,0.167,4.497c0.298,0.853,0.044,1.331-0.754,1.943c-3.385,2.595-7.247,3.136-11.293,2.848
	c-1.479-0.105-3.032-0.159-4.528-1.02c-0.161-1.049,0.832-1.703,1.293-2.549c1.53-2.807,1.929-5.902,2.384-8.968
	c0.818-5.52,1.529-11.057,2.232-16.593c0.16-1.257,0.079-2.542,0.156-3.812c0.425-6.972,2.128-13.678,4.247-20.296
	c0.681-2.126,1.185-4.301,2.011-6.39c1.498-3.787,3.073-7.509,5.404-10.895c0.938-1.361,1.406-3.036,2.217-4.496
	c1.547-2.785,3.187-5.517,4.786-8.272c0.04-0.068,0.036-0.178,0.09-0.22c2.918-2.286,2.896-5.659,3.148-8.856
	c0.559-7.071,1.012-14.146,0.436-21.252c-0.172-2.124,0.195-4.288,0.259-6.435c0.161-5.441,0.392-10.883,0.398-16.325
	c0.005-4.462-0.426-8.922-1.088-13.331c-0.814-5.426-0.541-10.785,0.383-16.148c0.663-3.846,1.529-7.644,2.775-11.347
	c1.447-4.301,3.729-8.097,6.943-11.316c1.114-1.116,2.244-2.218,3.381-3.34c0.176,0.242,0.344,0.377,0.32,0.455
	c-0.185,0.612-1.154,1.301-0.18,1.809c0.682,0.355,1.035-0.662,1.253-1.127c1.535-3.281,4.504-4.639,7.568-5.972
	c2.776-1.208,5.539-2.435,8.378-3.5c2.688-1.008,5.312-2.188,8.123-2.843c0.469-0.109,1.082-0.17,0.979-0.781
	c-0.126-0.752-0.793-0.946-1.481-0.839c-0.3,0.047-0.564,0.29-0.858,0.409c-3.104,1.256-6.208,2.508-9.318,3.749
	c-0.212,0.085-0.473,0.141-0.68-0.125c0.005-0.415,0.36-0.661,0.67-0.829c2.72-1.481,5.143-3.446,7.983-4.748
	c1.279-0.587,2.423-1.524,3.525-2.429c1.262-1.035,2.476-1.264,3.945-0.445c2.733,1.523,5.791,1.681,8.812,1.832
	c7.012,0.35,13.801-1.08,20.552-2.738c3.24-0.796,6.553-1.381,9.692-2.47c3.573-1.239,7.198-2.522,9.989-5.337
	C309.012,172.937,309.453,172.221,309.965,171.33z M283.447,211.955c-1.009,0.902-1.173,1.702-0.991,2.75
	c0.368,2.12,0.623,4.261,0.859,6.401c0.21,1.902,0.31,3.815,0.499,5.72c0.535,5.393,1.241,10.765,1.728,16.165
	c0.338,3.75,0.045,7.5,0.333,11.241c0.49,6.364,1.02,12.727,1.384,19.099c0.25,4.379,0.02,8.771-0.014,13.156
	c-0.037,4.778,0.077,9.566,0.299,14.353c0.158,3.406,0.225,6.828,0.474,10.237c0.034,0.472,0.088,0.947,0.194,1.407
	c0.092,0.396,0.294,0.772,0.799,0.708c0.499-0.063,0.609-0.439,0.584-0.872c-0.077-1.344-0.203-2.687-0.234-4.031
	c-0.065-2.792,0.145-5.61-0.163-8.372c-0.79-7.092,0.046-14.182-0.148-21.272c-0.078-2.858-0.153-5.725-0.298-8.583
	c-0.353-6.932-1.176-13.834-1.265-20.784c-0.034-2.714-0.044-5.44-0.306-8.137c-0.64-6.592-1.532-13.159-2.041-19.767
	C284.902,218.287,284.532,215.207,283.447,211.955z M276.18,276.307c-0.163-1.154-0.108-2.392-0.524-3.444
	c-2.081-5.262-4.426-10.42-7.108-15.398c-2.643-4.905-5.559-9.666-8.422-14.449c-3.579-5.976-8.662-10.378-14.695-13.739
	c-0.688-0.383-1.476-0.59-2.229-0.848c-0.321-0.11-0.644-0.019-0.84,0.279c-0.239,0.364-0.21,0.768-0.025,1.14
	c0.197,0.396,0.638,0.428,0.993,0.596c1.511,0.714,3.034,1.388,4.488,2.235c3.175,1.851,5.272,4.842,7.926,7.241
	c1.319,1.192,2.292,2.66,3.185,4.178c1.737,2.954,3.435,5.931,5.183,8.878c2.114,3.565,4.121,7.189,5.814,10.969
	c1.662,3.708,3.38,7.395,4.785,11.215C274.91,275.704,275.034,276.474,276.18,276.307z M305.179,271.601
	c1.055-0.63,0.801-1.34,0.83-1.92c0.161-3.188,0.133-6.393,0.445-9.566c0.519-5.285,2.057-10.251,4.603-14.983
	c1.794-3.336,3.785-6.509,6.342-9.229c4.92-5.235,9.341-10.92,14.475-15.958c0.338-0.332,0.589-0.755,0.867-1.145
	c0.196-0.276,0.306-0.639,0.044-0.867c-0.215-0.188-0.603-0.324-0.871-0.27c-0.365,0.073-0.763,0.28-1.021,0.549
	c-1.268,1.316-2.562,2.615-3.72,4.025c-2.529,3.083-5.196,6.061-7.909,8.959c-3.802,4.061-7.169,8.319-9.554,13.37
	c-0.847,1.792-1.958,3.445-2.638,5.347C304.566,256.926,304.939,264.158,305.179,271.601z"/>
<path fill-rule="evenodd" clip-rule="evenodd" fill="#EE2A7B" d="M299.294,403.283c0.674-0.365,0.963,0.036,1.322,0.115
	c0.621,0.137,1.083-0.257,0.919-0.721c-0.501-1.412-0.354-3.212-2.179-3.883c1.759-1.988,1.718-2.345-0.622-4.113
	c-0.327-0.247-0.311-0.488-0.361-0.766c-0.158-0.862-0.433-1.314-1.458-1.703c-0.816-0.309-1.169-1.873-1.693-2.897
	c-0.14-0.274-0.045-0.771-0.237-0.901c-2.259-1.535-2.434-3.868-2.6-6.274c-0.044-0.637,0.045-1.717-1.239-1.665
	c-0.289,0.012-0.24-0.514-0.296-0.817c-0.165-0.898-0.087-1.992-1.499-1.954c-0.105,0.003-0.314-0.214-0.308-0.32
	c0.107-1.833-1.702-2.711-2.128-4.35c-0.31-1.186-1.243-2.293-1.995-3.299c-1.295-1.73-1.891-3.611-2.268-5.645
	c-0.124-0.667,0.004-1.508-1.2-1.267c-0.574,0.114-0.712-0.54-0.8-1.002c-0.18-0.94-0.329-1.886-0.467-2.833
	c-0.092-0.631,0.035-1.467-0.477-1.807c-1.326-0.88-0.891-2.107-0.758-3.208c0.448-3.708,1.035-7.399,1.491-11.106
	c0.175-1.417,0.174-2.859,0.198-4.291c0.077-4.614,0.754-9.222-0.088-14.169c1.149,0.355,2.066,0.344,2.937,0.498
	c2.562,0.452,5.062,0.016,7.604-0.187c6.184-0.493,12.297,0.094,18.02,2.634c3.876,1.72,7.15,4.498,10.698,6.796
	c2.878,1.864,5.694,3.834,8.797,5.329c3.374,1.626,6.92,2.392,10.669,2.151c0.559-0.036,1.115-0.094,1.674-0.119
	c2.07-0.093,2.08-0.089,2.142,2.038c0.027,0.959,0.05,1.921,0.001,2.878c-0.269,5.21,0.562,10.345,1.078,15.498
	c0.311,3.096,0.278,6.207,0.622,9.308c0.264,2.382,0.495,4.749,1.071,7.076c0.672,2.717,0.75,5.541,1.366,8.254
	c1.803,7.935,3.759,15.835,5.636,23.753c1.38,5.824,2.541,11.703,3.38,17.62c0.761,5.366,1.443,10.747,2.232,16.11
	c0.754,5.127,1.561,10.25,2.539,15.338c1.265,6.577,2.324,13.184,3.148,19.827c0.265,2.134,0.383,4.287,0.53,6.435
	c0.088,1.294,0.491,2.498,0.915,3.703c0.185,0.522,0.576,1.099,0.48,1.571c-0.569,2.809,0.206,5.627-0.317,8.474
	c-0.892,4.857-1.367,9.79-2.042,14.688c-0.619,4.492-1.466,8.963-1.854,13.475c-0.438,5.08-1.629,10.06-1.568,15.217
	c0.055,4.76-0.293,9.535-0.555,14.293c-0.167,3.013,0.137,6.062-0.864,9.074c-0.945,2.848-1.006,5.94-1.715,8.893
	c-0.873,3.637-1.396,7.355-2.116,11.03c-0.903,4.613-2.286,9.116-3.161,13.74c-0.299,1.574-0.498,3.146-0.708,4.729
	c-0.418,3.164-0.768,6.334-1.287,9.489c-0.824,5.015,0.031,9.871,2.176,14.459c0.648,1.389,1.008,2.85,1.539,4.263
	c0.71,1.89,0.196,3.433-1.356,4.649c-1.321,1.035-4.04,1.207-5.461,0.353c-0.684-0.411-1.339-0.872-1.991-1.333
	c-3.036-2.144-6.471-2.835-10.116-2.884c-7.213-0.097-14.291-1.108-21.177-3.312c-1.529-0.489-2.935-1.227-4.103-2.35
	c-0.825-0.793-1.013-1.513-0.367-2.713c0.885-1.645,2.098-3.043,3.238-4.411c2.287-2.744,3.399-5.919,4.309-9.225
	c1.186-4.311,1.876-8.72,2.449-13.151c0.548-4.233,0.291-8.469-0.093-12.676c-0.639-7.013-0.763-14.045-1.078-21.069
	c-0.198-4.39-0.643-8.706-1.87-12.976c-0.715-2.482-0.811-5.179-0.924-7.791c-0.142-3.249-0.422-6.49-0.256-9.763
	c0.33-6.516,1.493-12.792,4.359-18.713c2.712-5.601,4.91-11.425,7.179-17.212c0.935-2.385,0.248-4.879-0.164-7.311
	c-2.816-3.073-3.312-7.136-4.425-10.879c-1.064-3.581-1.933-7.231-3.126-10.775c-0.941-2.793-1.974-5.571-3.216-8.239
	c-0.815-1.752-1.414-3.568-1.946-5.384c-0.785-2.679-1.715-5.289-2.763-7.866c-0.119-0.294-0.236-0.593-0.316-0.899
	c-1.64-6.256-3.971-12.301-5.685-18.528c-0.974-3.538-1.866-7.095-3.088-10.559c-0.106-0.3-0.242-0.617-0.235-0.923
	c0.083-3.3-0.815-6.482-1.12-9.734C300.151,405.74,300.015,404.421,299.294,403.283z"/>
<path fill-rule="evenodd" clip-rule="evenodd" fill="#EE2A7B" d="M239.38,503.141c0.469-2.549,0.979-4.852,0.938-7.259
	c-0.099-5.68-0.827-11.297-1.453-16.923c-0.696-6.259-1.943-12.438-2.815-18.676c-1.258-8.997-2.947-17.934-4.169-26.935
	c-0.621-4.579-0.907-9.208-1.631-13.785c-1.236-7.809-1.719-15.697-2.499-23.556c-0.603-6.075,0.694-11.913,1.238-17.85
	c1.459-2.742,0.456-5.62,0.427-8.434c-0.079-7.828,0.521-15.646,0.313-23.476c-0.053-1.997-0.27-3.993-0.269-5.976
	c0.003-3.423,0.295-6.847,0.504-10.269c0.389-6.374,0.934-12.719,2.421-18.967c0.53-2.224,0.538-4.588,0.634-6.894
	c0.079-1.88,0.539-3.549,1.479-5.207c0.856-1.508,1.334-3.231,2.624-4.49c0.397-0.388,0.749-0.874,1.222-1.124
	c6.234-3.287,12.762-4.906,19.823-3.384c1.515,0.327,2.845,1.031,4.083,1.938c3.359,2.46,6.464,5.229,9.112,8.425
	c3.401,4.107,4.791,9.109,5.834,14.239c0.578,2.844,0.614,5.703,0.629,8.571c0.027,4.795,0.019,9.592-0.012,14.388
	c-0.023,3.596-0.562,7.124-1.216,10.666c-0.74,4.007-1.839,7.895-2.862,11.822c-0.851,3.267-1.278,6.738,0.085,10.133
	c0.538,1.34,0.228,2.873,0.055,4.278c-0.604,4.926-0.509,9.899-0.998,14.816c-0.89,8.946-0.814,17.883-0.279,26.818
	c0.473,7.896,0.654,15.803,1.091,23.699c0.119,2.152,0.178,4.314,0.14,6.47c-0.088,4.974,0.765,9.862,1.259,14.781
	c0.485,4.841,1.133,9.666,1.692,14.5c0.817,7.062,1.865,14.089,3.895,20.915c0.861,2.898,2.104,5.684,3.19,8.514
	c0.373,0.973,0.79,1.929,0.734,3.232c-1.429,0.113-2.79-0.35-4.035-0.927c-2.378-1.104-4.83-1.526-7.415-1.296
	c-3.2,0.286-6.37,0.049-9.525-0.496c-4.036-0.698-8.119-0.684-12.187-0.654c-2.519,0.019-4.817,1.061-6.952,2.348
	c-1.365,0.823-2.63,1.812-3.952,2.708c-1.109,0.751-2.226,1.504-3.88,1.575c0.458-2.071,1.852-3.431,2.75-5.028
	c1.958-3.478,4.858-5.828,8.737-6.974c1.208-0.356,2.33-1.005,3.485-1.533c0.214-0.099,0.441-0.228,0.586-0.405
	c0.25-0.305,0.48-0.69,0.238-1.071c-0.19-0.301-0.574-0.241-0.881-0.147c-0.381,0.117-0.751,0.274-1.119,0.43
	c-3.532,1.483-7.041,3.009-9.9,5.671C240.269,502.605,239.909,502.785,239.38,503.141z"/>
<path fill-rule="evenodd" clip-rule="evenodd" fill="none" d="M273.435,87.712c0.093,0.811,0.149,1.841,1.3,0.868
	c0.958-0.812,1.748-1.823,2.783-2.928c-0.279,1.708-0.29,1.696-2.425,3.637c-1.073,0.975-2.19,1.903-3.427,2.699
	c0.102,0.139,0.203,0.278,0.305,0.418c0.569-0.341,1.278-0.564,1.68-1.045c1.063-1.271,2.398-0.27,3.566-0.541
	c0.039-0.009,0.207,0.541,0.314,0.831l-0.006-0.021c-0.108-0.176-0.277-0.237-0.401-0.091c-2.659,3.119-6.362,3.643-10.667,4.262
	c1.751-1.159,2.067-2.834,3.035-3.778c1.401-1.367,2.404-3.094,3.992-4.262L273.435,87.712z"/>
<path fill-rule="evenodd" clip-rule="evenodd" fill="none" d="M291.059,80.116c-0.633,3.299-1.817,6.421-3.545,9.38
	c1.921-0.942,2.775-2.821,4.011-4.351c1.254-1.553,2.108-3.36,3.333-5.301c-0.256,3.064-1.477,5.489-2.936,7.66
	c-1.217,1.811-3.269,3.021-5.232,3.981c-0.929,0.453-2.329-0.034-3.512-0.141c-0.342-0.03-0.576-0.317-0.383-0.672
	c0.139-0.255,0.461-0.612,0.738-0.335c0.969,0.97,1.427,0.052,1.864-0.513c1.42-1.836,2.449-3.908,3.447-5.994
	C289.458,82.547,289.979,81.212,291.059,80.116z"/>
<g opacity="0.4">
	<path fill-rule="evenodd" clip-rule="evenodd" fill="#FDCC9A" d="M266.721,97.452c1.174,0.034,2.337-0.42,3.542,0.126
		c0.373,0.169,1.054-0.229,1.549-0.463c1.73-0.819,3.491-1.593,5.146-2.547c2.188-1.261,4.473-1.393,6.896-1.1
		c1.817,0.22,3.642,0.292,5.383-0.589c1.842-0.932,3.787-0.427,5.607,0.03c2.241,0.562,4.39,0.764,6.556-0.146
		c0.871-0.366,1.708-0.344,2.523,0.146c0.403,0.242,0.801,0.672,1.3,0.398c1.492-0.818,1.778,0.245,2.085,1.286
		c0.997,3.373,1.888,6.704,1.335,10.34c-0.441,2.897-0.228,5.882-0.428,8.829c-0.117,1.718,0.08,3.637,0.355,5.422
		c0.932,6.054-0.253,11.89-1.363,17.785c-0.84,4.459-2.584,8.526-4.441,12.595c-1.058,2.319-2.188,4.562-3.607,6.709
		c-1.51,2.285-3.474,3.951-5.684,5.378c-1.551,1.002-3.419,1.36-5.195,1.73c-4.977,1.035-9.725,0.63-13.623-3.1
		c-2.129-2.039-4.146-4.193-5.699-6.739c-2.617-4.29-5.226-8.586-7.938-12.816c-0.726-1.133-1.042-2.273-1.04-3.556
		c0.018-7.084-1.298-13.964-3.453-20.665c-0.889-2.765-0.985-5.488-0.67-8.268c0.226-1.997-0.251-4.177,0.401-5.932
		c0.667-1.793,3.252-1.969,4.76-3.253C262.901,97.451,262.952,97.511,266.721,97.452z M305.208,109.552
		c0.066-0.896-0.062-1.402-0.568-1.566c-1.787-0.577-3.497-1.417-5.493-0.375c-1.619,0.845-3.288,1.564-4.762,2.674
		c-1.446,1.089-2.794,2.291-4.577,2.933c-0.896,0.322-1.64,1.216-2.311,1.977c-0.722,0.819,0.919,0.958,0.641,1.74
		c-0.079,0.222-0.13,0.469-0.122,0.703c0.046,1.269,0.144,2.537,0.17,3.806c0.077,3.631,1.647,6.934,2.204,10.453
		c2.208-0.319,2.459-0.67,1.534-2.435c-1.93-3.685-2.111-7.569-1.588-11.657c1.956,0.464,3.76,1.636,5.656,0.936
		c1.69-0.624,3.677-0.872,4.922-2.518c-1.015-0.846-1.875,0.486-2.75-0.039c0.149-2.014,0.179-2.047,1.788-1.876
		c0.153,0.016,0.296,0.117,0.449,0.16c0.332,0.093,0.637,0.052,0.791-0.295c0.162-0.367-0.133-0.584-0.332-0.819
		c-0.379-0.447-0.914-0.616-1.444-0.801c-0.916-0.32-1.825-0.655-2.687-0.965C298.902,108.289,301.859,108.343,305.208,109.552z
		 M272.662,117.354c1.222,0.36,2.371,0.689,3.514,1.039c1.106,0.338,2.218,0.227,3.288-0.065c0.468-0.127,1.232-0.285,1.12-1.018
		c-0.079-0.513-0.448-1.061-1.004-1.188c-1.106-0.252-2.124-0.711-3.114-1.218c-3.495-1.788-7.181-2.999-11.011-3.811
		c-2.319-0.491-3.682,0.089-4.81,2.08c-0.205,0.361-0.367,0.733-0.039,1.096c0.387,0.427,0.709,0.083,1.022-0.133
		c3.043-2.096,3.479-2.096,6.744-0.041c0.433,0.272,1.105,0.103,1.389,0.761c-1.52-0.151-2.785,0.556-4.075,1.122
		c-1.803,0.791,0.279,0.88,0.276,1.366c-0.457,0.318-0.922,0.626-1.371,0.958c-1.097,0.81-1.106,1.184,0.091,1.806
		c1.562,0.812,3.267,1.351,4.983,1.59c1.826,0.254,3.638-0.235,5.287-1.109c0.401-0.213,0.886-0.616,0.636-1.136
		c-0.282-0.587-0.807-0.265-1.241-0.079c-0.549,0.236-1.029,0.802-1.801,0.333C272.583,118.962,272.621,118.188,272.662,117.354z
		 M283.89,148.055c1.249-1.172,2.418-0.869,3.626-0.353c1.957,0.836,3.996,1.009,5.595-0.519c1.423-1.361,2.882-2.012,5.046-1.452
		c-2.656-2.281-4.831-4.063-7.726-1.612c-0.967,0.818-1.721,0.26-2.567-0.27c-1.847-1.155-2.517-1.069-4.056,0.202
		c-0.953,0.787-1.292,1.992-2.098,2.889c-0.872,0.969-2.488,0.656-3.219,2.057c0.656,0.161,1.284,0.474,1.835,0.122
		c1.311-0.835,2.399-0.38,3.534,0.355c0.864,0.559,1.777,1.049,2.665,1.567c1.964,1.148,4.151,1.254,6.143,0.194
		c1.232-0.656,2.204-1.81,3.269-2.767c0.332-0.298,0.736-0.644,0.269-1.255c-1.307,0.278-2.077,1.367-3.019,2.157
		c-1.321,1.109-2.894,1.598-4.436,1.2C287.046,150.129,285.424,149.257,283.89,148.055z M291.108,136.548
		c-0.265-0.859-0.914-0.976-1.49-1.226c-1.544-0.669-3.248-0.51-4.834-0.962c-0.503-0.143-1.158-0.333-1.407,0.408
		c-0.192,0.573,0.366,0.791,0.681,1.114c0.931,0.958,2.29,0.505,3.34,1.008C288.677,137.502,289.833,137.314,291.108,136.548z
		 M275.871,105.671c1.807,0.934,2.188,1.116,3.913,0.847c2.664-0.415,5.308-0.927,8.012-1.059c0.96-0.047,1.698-0.62,2.121-1.517
		C285.416,105.253,280.906,105.849,275.871,105.671z M274.703,121.969c-1.877,1.214-4.067,1.123-6.147,1.49
		C271.629,124.103,273.048,123.763,274.703,121.969z M292.199,136.222c0.394-0.284,0.826-0.606,1.27-0.912
		c0.406-0.279,1.255-0.346,0.793-1.098c-0.371-0.604-0.974-0.246-1.461,0.033c-0.479,0.273-0.988,0.526-1.162,1.106
		C291.512,135.773,291.594,136.117,292.199,136.222z"/>
	<path fill-rule="evenodd" clip-rule="evenodd" fill="#FDCC9A" d="M441.041,325.478c4.829-2.79,9.943-4.681,15.741-4.026
		c0.512,0.058,0.914,0.202,1.243,0.592c0.255,0.303,0.585,0.553,0.793,0.883c3.387,5.35,8.666,8.629,13.565,12.293
		c4.286,3.206,8.365,6.631,12.216,10.343c0.743,0.717,1.357,1.508,1.001,2.51c-0.89,2.498-1.025,5.16-1.808,7.68
		c-0.378,1.217-1.098,2.014-2.327,2.047c-1.672,0.046-1.933,0.198-2.145-1.651c-0.263-2.288-0.794-4.548-1.129-6.837
		c-0.121-0.828-0.397-2.368-1.41-2.125c-1.269,0.304-0.406,1.621-0.251,2.485c0.548,3.053,1.148,6.096,1.736,9.142
		c0.221,1.141-0.059,2.064-1.124,2.644c-0.954,0.518-1.787,1.367-3.16,1.184c0.053-2.293-0.716-4.365-1.528-6.429
		c-0.888-2.258-1.131-4.641-1.289-7.033c-0.143-2.144-0.774-2.98-2.801-3.543c-0.509-0.142-1.184-0.496-1.461,0.216
		c-0.267,0.682-0.167,1.449,0.565,1.894c0.258,0.157,0.605,0.205,0.918,0.228c0.712,0.053,0.905,0.464,0.964,1.11
		c0.124,1.345,0.29,2.688,0.488,4.024c0.198,1.347,0.706,2.604,1.193,3.871c0.57,1.482,1.259,2.95,1.19,4.598
		c-0.077,1.841-1.047,2.812-2.824,2.87c-0.774,0.025-1.308-0.201-1.71-0.984c-0.694-1.352-1.363-2.688-1.688-4.189
		c-1.279-5.902-5.033-9.406-10.741-10.982c-1.121-0.31-1.41-0.062-1.349,1.074c0.03,0.568,0.246,1.07,0.472,1.588
		c0.251,0.578,0.434,1.208,0.518,1.833c0.348,2.562-0.152,3.342-2.595,4.305c-0.953,0.375-1.791,1.03-2.921,0.934
		c-0.759-0.064-1.234-0.307-1.237-1.111c-0.003-0.875-0.103-1.781,0.084-2.62c0.873-3.922,0.984-7.869,0.595-11.848
		c-0.163-1.674-0.465-3.303-1.159-4.865c-0.875-1.968-1.61-3.997-2.444-5.984c-0.846-2.018-2.092-3.755-3.783-5.161
		C441.189,326.229,441,325.976,441.041,325.478z"/>
	<path fill-rule="evenodd" clip-rule="evenodd" fill="#FDCC9A" d="M185.637,441.628c0.346-1.793,0.586-3.61,1.061-5.364
		c0.613-2.262,0.197-4.626,0.837-6.876c0.132-0.466-0.081-1.016-0.662-1.095c-0.446-0.061-0.657,0.33-0.809,0.73
		c-0.577,1.516-0.683,3.113-0.864,4.7c-0.287,2.53-0.577,5.05-1.393,7.494c-0.626,1.873-1.881,3.052-3.589,4.034
		c-0.512-0.517-0.454-1.08-0.324-1.582c1.013-3.881,1.072-7.88,1.498-11.834c0.128-1.188,0.229-2.379,0.321-3.569
		c0.033-0.429-0.119-0.849-0.583-0.904c-0.444-0.054-0.746,0.302-0.805,0.712c-0.173,1.183-0.316,2.372-0.424,3.562
		c-0.134,1.487-0.04,3.008-0.646,4.46c-2.221-1.723-2.548-2.861-1.518-5.071c0.849-1.821,2.051-3.422,3.208-5.043
		c0.664-0.929,1.075-1.924,1.449-2.992c1.396-3.988,2.963-7.916,4.325-11.915c1.964-5.765,2.781-11.766,3.501-18.035
		c3.939,0.668,7.901,0.327,11.824-1.257c0.399,1.614,0.109,3.044,0.168,4.423c0.129,3.067,0.568,6.036,1.559,8.926
		c1.07,3.121,0.949,6.241,0.211,9.414c-0.853,3.669-2.103,7.2-3.518,10.674c-0.6,1.471-1.435,2.808-2.765,3.83
		c-0.923,0.71-1.443,0.427-1.929-0.359c-0.29-0.47-0.528-0.996-0.672-1.528c-0.81-2.98-1.03-5.943,0.194-8.9
		c0.518-1.25,0.884-2.568,1.237-3.878c0.147-0.544,0.629-1.372-0.267-1.615c-0.803-0.219-0.995,0.66-1.188,1.226
		c-0.517,1.507-0.979,3.034-1.424,4.564c-0.815,2.801-1.265,5.604-0.188,8.466c0.31,0.824,0.187,1.707-0.016,2.596
		c-0.802,3.51-2.219,6.796-3.642,10.072C189.04,441.458,187.827,441.934,185.637,441.628z"/>
	<path fill-rule="evenodd" clip-rule="evenodd" fill="#FDCC9A" d="M258.557,179.662c1.456-1.534,3.076-2.791,4.762-3.971
		c3.157-2.208,5.855-4.939,8.515-7.685c1.271-1.312,1.733-3.152,1.88-5.029c1-0.008,1.636,0.52,2.261,0.964
		c3.122,2.224,6.6,2.568,10.265,2.065c2.704-0.371,5.263-1.296,7.818-2.168c1.748-0.596,3.144-1.841,4.275-3.357
		c0.703-0.942,1.411-2.348,2.64-2.187c1.396,0.184,1.153,1.886,1.497,2.943c1.111,3.416,2.839,6.375,5.91,8.57
		c-1.883,3.504-5.065,5.369-8.491,6.519c-5.793,1.945-11.697,3.552-17.738,4.667c-3.209,0.592-6.376,1.362-9.652,1.459
		c-3.341,0.099-6.674,0.068-9.979-0.571C260.97,181.581,259.705,180.849,258.557,179.662z"/>
	<path fill-rule="evenodd" clip-rule="evenodd" fill="#FDCC9A" d="M258.098,135.135c-2.802-1.504-3.677-3.819-4.189-6.232
		c-0.449-2.111-1.022-4.164-1.779-6.172c-0.543-1.443-0.441-2.97-0.748-4.458c2.186,0.064,2.352,0.159,2.859,2.079
		C255.499,125.107,256.727,129.872,258.098,135.135z"/>
	<path fill-rule="evenodd" clip-rule="evenodd" fill="#FDCC9A" d="M310.555,125.796c-0.341-3.846,0.029-7.417,0.114-10.987
		c0.012-0.503,0.186-0.932,0.637-1.211c0.576-0.356,0.972-1.2,1.834-0.801c0.829,0.383,0.704,1.19,0.627,1.891
		c-0.165,1.503-0.409,2.998-0.588,4.5c-0.075,0.627-0.166,1.279-0.077,1.895C313.396,123.129,312.711,124.649,310.555,125.796z"/>
</g>
<path fill-rule="evenodd" clip-rule="evenodd" fill="none" d="M260.292,84.906c0.153,1.647-1.208,1.812-1.704,2.636
	c-0.907,1.506-2.444,2.453-3.684,3.668c-0.854,0.837-1.476,0.25-2.053-0.168c-0.578-0.417-0.51-1.871,0.083-2.253
	C255.227,87.309,257.696,86.18,260.292,84.906z"/>
<g>
	<g>
		<path fill-rule="evenodd" clip-rule="evenodd" fill="#BE1E2D" d="M252.308,566.212c-7.032,0.341-11.243-3.771-13.783-9.552
			c-1.694-3.857-2.069-8.179,0.356-12.162c0.601-0.987,0.429-2.188,0.896-3.214c0.89-1.96,1.735-3.939,2.653-5.886
			c1.303-2.766,2.134-5.619,2.449-8.693c0.303-2.951,0.5-5.869,0.258-8.83c-0.229-2.805,0.2-5.578,0.674-8.337
			c0.191-1.113,0.625-1.765,1.967-1.927c2.716-0.33,5.392-0.375,8.093,0.035c1.022,0.155,2.074,0.22,3.107,0.184
			c4.066-0.142,8.109,0.502,12.179,0.299c1.396-0.069,1.741,0.334,1.222,1.649c-0.857,2.176-1.157,4.466-1.709,6.704
			c-0.641,2.597-0.648,5.192-0.311,7.836c0.778,6.096,1.368,12.203,0.733,18.363c-0.279,2.714-0.988,5.328-1.625,7.962
			c-0.281,1.162-0.623,2.31-0.952,3.46C266.461,561.271,260.046,567.011,252.308,566.212z M264.595,545.325
			c-0.653,1.145-1.585,1.78-2.2,2.823c-2.692,4.568-6.685,6.919-12.089,6.602c-0.638-0.038-1.28-0.143-1.912-0.098
			c-3.411,0.248-6.044-1.457-8.578-3.391c-0.503-0.384-0.917-1.064-1.603-0.527c-0.675,0.528-0.211,1.126,0.11,1.691
			c0.362,0.635,0.819,1.18,1.368,1.651c1.604,1.378,3.399,2.378,5.517,2.693c2.286,0.341,4.57,0.695,6.865,0.961
			c2.962,0.342,5.449-0.592,7.557-2.765c1.97-2.029,3.398-4.422,4.878-6.779C264.962,547.462,265.412,546.496,264.595,545.325z"/>
		<path fill-rule="evenodd" clip-rule="evenodd" fill="#BE1E2D" d="M346.71,642.962c1.138,1.982,1.455,3.895,1.928,5.699
			c1.949,7.442,5.74,13.994,9.637,20.502c0.568,0.948,1.366,1.763,2.084,2.618c2.68,3.192,4.567,6.899,6.735,10.421
			c1.348,2.188,0.993,3.544-1.456,4.542c-3.562,1.45-7.322,2.261-11.21,1.778c-3.27-0.405-6.328-1.576-9.315-2.934
			c-3.472-1.579-5.781-4.509-8.045-7.342c-3.448-4.315-6.021-9.193-7.945-14.393c-0.109-0.298-0.219-0.606-0.391-0.869
			c-2.363-3.62-3.874-7.661-5.596-11.585c-1.274-2.904-3.28-5.027-5.877-6.675c-1.682-1.067-3.5-1.903-5.143-3.052
			c-2.438-1.706-3.779-4.051-4.259-6.934c-0.44-2.647,0.609-3.597,3.159-2.887c5.379,1.498,10.746,3.021,16.292,3.834
			c1.52,0.223,3.014,0.296,4.527,0.246c3.132-0.103,6.19,0.145,9.177,1.249c1.265,0.468,1.978,1.286,2.458,2.409
			c1.416,3.314,1.27,6.657,0.096,10.001c-0.157,0.448-0.437,0.864-0.534,1.321c-0.129,0.604,0.182,1.104,0.675,1.433
			c0.671,0.447,1.045-0.135,1.379-0.534c1.515-1.81,2.154-3.876,1.721-6.234C346.667,644.814,346.138,644.091,346.71,642.962z"/>
	</g>
	<path fill-rule="evenodd" clip-rule="evenodd" fill="#BE1E2D" d="M324.634,659.213c1.017,1.869,2.241,3.656,3.013,5.622
		c2.745,6.989,6.479,13.332,11.671,18.809c-3.119-1.442-5.559-3.743-7.133-6.67c-1.991-3.699-4.403-7.197-5.846-11.178
		C325.571,663.677,324.659,661.582,324.634,659.213z"/>
	<path fill-rule="evenodd" clip-rule="evenodd" fill="#BE1E2D" d="M321.661,653.118c-2.07-3.504-5.345-5.426-8.726-7.266
		c-2.008-1.092-4.072-2.241-4.7-4.828c2.684,2.697,6.077,4.305,9.229,6.287c1.624,1.021,2.975,2.426,3.941,4.119
		C321.657,651.871,322.141,652.332,321.661,653.118z"/>
</g>
<path fill-rule="evenodd" clip-rule="evenodd" fill="none" d="M296.627,91.383c3.021-1.011,5.898-1.94,8.399-4.165
	C303.124,91.079,300.17,92.84,296.627,91.383z"/>
<path fill-rule="evenodd" clip-rule="evenodd" fill="none" d="M290.346,90.515c3.042-2.579,5.072-5.483,6.838-8.909
	C296.885,85.958,294.771,89.442,290.346,90.515z"/>
<path fill-rule="evenodd" clip-rule="evenodd" fill="none" d="M269.13,80.535c-0.211,1.669-0.45,3.255-2.338,4.037
	c-0.55,0.228-0.798,1.136-1.237,1.689c-0.508,0.64-0.798,1.598-1.929,1.496c-0.047-0.651,0.385-1.027,0.698-1.451
	c1.181-1.596,2.576-3.026,3.574-4.77c0.241-0.421,0.65-0.913,1.279-0.961L269.13,80.535z"/>
<path fill-rule="evenodd" clip-rule="evenodd" fill="none" d="M282.482,85.951c0.461-1.997,1.658-3.235,2.235-4.751
	c0.589-1.546,1.269-3.057,1.933-4.641C287.215,79.399,285.843,82.078,282.482,85.951z"/>
<path fill-rule="evenodd" clip-rule="evenodd" fill="none" d="M297.763,75.141c0.366,2.819-1.258,4.822-2.274,7.526
	C295.632,79.72,295.76,77.276,297.763,75.141z"/>
<path fill-rule="evenodd" clip-rule="evenodd" fill="none" d="M255.211,94.885c2.057-2.034,3.914-3.78,6.083-5.371
	C260.931,91.559,258.193,94.014,255.211,94.885z"/>
<path fill-rule="evenodd" clip-rule="evenodd" fill="none" d="M293.65,80.058c-0.481,1.448-1.376,2.641-2.354,3.823
	c0.167-2.502,1.565-4.715,1.555-7.243c0.416,1.003,0.105,1.987-0.051,2.973c-0.158,0.994,0.647,0.281,0.921,0.517
	C293.722,80.13,293.65,80.058,293.65,80.058z"/>
<path fill-rule="evenodd" clip-rule="evenodd" fill="none" d="M273.483,87.759c0.042-1.262,0.883-2.173,1.432-3.205
	c0.84-1.583,1.751-3.129,2.81-4.593c-1.074,2.776-1.557,5.868-4.29,7.751L273.483,87.759z"/>
<path fill-rule="evenodd" clip-rule="evenodd" fill="none" d="M289.559,80.338c-0.371-2.445,1.107-4.12,2.446-5.853
	C291.73,76.662,290.769,78.551,289.559,80.338z"/>
<path fill-rule="evenodd" clip-rule="evenodd" fill="none" d="M301.136,83.207c-0.232,2.446-2.407,3.388-3.69,5.011
	C297.894,85.982,299.694,84.703,301.136,83.207z"/>
<path fill-rule="evenodd" clip-rule="evenodd" fill="none" d="M304.959,77.274c0.379,2.853,0.156,3.354-2.094,5.13
	C302.657,80.417,303.889,79.137,304.959,77.274z"/>
<path fill-rule="evenodd" clip-rule="evenodd" fill="none" d="M281.544,89.416c1.205-1.926,2.409-3.853,3.613-5.779
	C284.695,86.018,283.971,88.247,281.544,89.416z"/>
<path fill-rule="evenodd" clip-rule="evenodd" fill="none" d="M308.777,84.062c-0.649,1.817-0.738,3.896-3.056,4.828
	C306.364,86.884,307.62,85.459,308.777,84.062z"/>
<path fill-rule="evenodd" clip-rule="evenodd" fill="none" d="M298.71,72.192c0.921,2.149,0.998,4.258,0.371,6.709
	c-0.296-1.976,0.498-3.865-1.013-5.341C297.838,73.335,297.995,72.64,298.71,72.192z"/>
<path fill-rule="evenodd" clip-rule="evenodd" fill="none" d="M303.042,77.083c0.286-1.147,0.551-2.3,0.871-3.437
	c0.095-0.338,0.244-0.848,0.783-0.545c0.367,0.206,0.558,0.613,0.357,1.027c-0.51,1.057-1.063,2.092-1.599,3.136
	C303.316,77.203,303.179,77.143,303.042,77.083z"/>
<path fill-rule="evenodd" clip-rule="evenodd" fill="none" d="M306.743,82.021c-0.03-1.644,0.051-3.035,1.74-4.119
	C308.136,79.497,307.812,80.796,306.743,82.021z"/>
<path fill-rule="evenodd" clip-rule="evenodd" fill="none" d="M269.177,80.575c-0.273-1.081,0.234-2.007,0.575-2.982
	c1.332,1.634,1.204,2.218-0.622,2.941C269.13,80.535,269.177,80.575,269.177,80.575z"/>
<path fill-rule="evenodd" clip-rule="evenodd" fill="none" d="M265.197,80.665c-0.09,1.369-0.085,2.818-1.721,3.707
	C263.564,82.837,264.4,81.769,265.197,80.665z"/>
<path fill-rule="evenodd" clip-rule="evenodd" fill="none" d="M259.444,94.372c0.752-1.007,1.426-2.096,2.676-2.583
	C261.483,92.916,260.581,93.765,259.444,94.372z"/>
<path fill-rule="evenodd" clip-rule="evenodd" fill="none" d="M288.461,78.552c0,1.206-0.13,2.368-0.803,3.391
	C288.029,80.824,287.5,79.523,288.461,78.552z"/>
<path fill-rule="evenodd" clip-rule="evenodd" fill="none" d="M309.629,75.451c0.396,1.42,0.457,2.839-0.629,4.497
	C309.093,78.193,309.673,76.873,309.629,75.451z"/>
<path fill-rule="evenodd" clip-rule="evenodd" fill="none" d="M277.531,91.65c0.966-1.234,0.966-1.234,2.066-0.32
	c-0.59,0.763-1.35,0.38-2.074,0.291C277.524,91.629,277.531,91.65,277.531,91.65z"/>
<path fill-rule="evenodd" clip-rule="evenodd" fill="none" d="M277.98,88.518c-0.077-1.135,0.879-1.535,1.658-2.534
	C279.635,87.535,278.649,87.914,277.98,88.518z"/>
<path fill-rule="evenodd" clip-rule="evenodd" fill="none" d="M257.928,99.367c-0.621,0.695-1.167,1.036-1.896,0.661
	c-0.088-0.046-0.17-0.323-0.119-0.391C256.425,98.957,257.098,99.239,257.928,99.367z"/>
<path fill-rule="evenodd" clip-rule="evenodd" fill="none" d="M251.636,97.385c0.274,0.653,0.229,1.321,0.09,2.121
	C251.256,98.747,251.422,98.071,251.636,97.385z"/>
<path fill-rule="evenodd" clip-rule="evenodd" fill="none" d="M281.022,86.812c-0.229,0.621-0.448,1.257-1.241,1.672
	c-0.023-0.854,0.535-1.285,0.939-1.789c0.035-0.043,0.13-0.095,0.154-0.079C280.933,86.657,280.968,86.733,281.022,86.812z"/>
<path fill-rule="evenodd" clip-rule="evenodd" fill="none" d="M250.14,95.185c-0.118-0.551-0.314-1.057,0.058-1.562
	C250.485,94.153,250.338,94.646,250.14,95.185z"/>
<path fill-rule="evenodd" clip-rule="evenodd" fill="none" d="M312.451,95.526c0.032-0.351,0.064-0.703,0.097-1.054
	c0.029,0.001,0.059,0.003,0.088,0.004c0.022,0.371,0.045,0.742,0.068,1.113C312.62,95.569,312.535,95.547,312.451,95.526z"/>
<path fill-rule="evenodd" clip-rule="evenodd" fill="none" d="M301.801,87.213c-0.199,0.49-0.625,0.689-1.075,0.876
	C300.775,87.407,301.194,87.199,301.801,87.213z"/>
<path fill-rule="evenodd" clip-rule="evenodd" fill="none" d="M254.213,99.42c-0.503-0.709-0.471-1.177-0.255-1.746
	C254.44,98.244,254.215,98.711,254.213,99.42z"/>
<path fill-rule="evenodd" clip-rule="evenodd" d="M283.447,211.955c1.085,3.252,1.455,6.332,1.693,9.419
	c0.509,6.608,1.401,13.174,2.041,19.767c0.262,2.697,0.271,5.423,0.306,8.137c0.089,6.95,0.913,13.852,1.265,20.784
	c0.145,2.858,0.22,5.725,0.298,8.583c0.194,7.091-0.642,14.181,0.148,21.272c0.308,2.762,0.098,5.58,0.163,8.372
	c0.031,1.345,0.157,2.688,0.234,4.031c0.025,0.433-0.086,0.809-0.584,0.872c-0.505,0.064-0.708-0.312-0.799-0.708
	c-0.106-0.459-0.16-0.935-0.194-1.407c-0.249-3.41-0.316-6.831-0.474-10.237c-0.222-4.787-0.336-9.575-0.299-14.353
	c0.034-4.386,0.265-8.777,0.014-13.156c-0.364-6.372-0.894-12.734-1.384-19.099c-0.288-3.742,0.005-7.492-0.333-11.241
	c-0.487-5.399-1.193-10.772-1.728-16.165c-0.189-1.905-0.289-3.818-0.499-5.72c-0.236-2.14-0.491-4.282-0.859-6.401
	C282.273,213.657,282.438,212.857,283.447,211.955z"/>
<path fill-rule="evenodd" clip-rule="evenodd" d="M276.18,276.307c-1.146,0.167-1.27-0.603-1.47-1.146
	c-1.404-3.82-3.123-7.507-4.785-11.215c-1.693-3.78-3.701-7.404-5.814-10.969c-1.748-2.947-3.445-5.924-5.183-8.878
	c-0.893-1.519-1.866-2.986-3.185-4.178c-2.654-2.398-4.75-5.39-7.926-7.241c-1.454-0.848-2.977-1.521-4.488-2.235
	c-0.354-0.167-0.796-0.199-0.993-0.596c-0.185-0.372-0.214-0.775,0.025-1.14c0.196-0.298,0.519-0.389,0.84-0.279
	c0.752,0.257,1.541,0.464,2.229,0.848c6.033,3.36,11.116,7.763,14.695,13.739c2.864,4.783,5.78,9.544,8.422,14.449
	c2.682,4.978,5.027,10.136,7.108,15.398C276.072,273.915,276.018,275.153,276.18,276.307z"/>
<path fill-rule="evenodd" clip-rule="evenodd" d="M305.179,271.601c-0.24-7.443-0.613-14.675,1.892-21.688
	c0.68-1.902,1.791-3.555,2.638-5.347c2.385-5.051,5.752-9.309,9.554-13.37c2.713-2.898,5.38-5.876,7.909-8.959
	c1.157-1.411,2.452-2.709,3.72-4.025c0.259-0.269,0.656-0.476,1.021-0.549c0.269-0.054,0.656,0.082,0.871,0.27
	c0.262,0.229,0.152,0.591-0.044,0.867c-0.278,0.39-0.529,0.813-0.867,1.145c-5.134,5.039-9.555,10.723-14.475,15.958
	c-2.557,2.72-4.548,5.893-6.342,9.229c-2.546,4.732-4.083,9.698-4.603,14.983c-0.312,3.173-0.284,6.377-0.445,9.566
	C305.98,270.261,306.234,270.97,305.179,271.601z"/>
<path fill-rule="evenodd" clip-rule="evenodd" d="M305.208,109.552c-3.35-1.208-6.306-1.263-8.479,2.034
	c0.862,0.311,1.771,0.646,2.687,0.965c0.53,0.185,1.065,0.354,1.444,0.801c0.199,0.235,0.494,0.452,0.332,0.819
	c-0.154,0.347-0.459,0.388-0.791,0.295c-0.153-0.043-0.296-0.144-0.449-0.16c-1.609-0.171-1.639-0.138-1.788,1.876
	c0.875,0.525,1.736-0.807,2.75,0.039c-1.245,1.646-3.232,1.895-4.922,2.518c-1.896,0.7-3.7-0.472-5.656-0.936
	c-0.522,4.088-0.342,7.973,1.588,11.657c0.925,1.765,0.674,2.115-1.534,2.435c-0.556-3.52-2.127-6.822-2.204-10.453
	c-0.026-1.269-0.124-2.537-0.17-3.806c-0.008-0.233,0.043-0.481,0.122-0.703c0.278-0.782-1.362-0.921-0.641-1.74
	c0.67-0.761,1.415-1.654,2.311-1.977c1.783-0.642,3.131-1.844,4.577-2.933c1.474-1.11,3.143-1.83,4.762-2.674
	c1.996-1.042,3.706-0.202,5.493,0.375C305.146,108.15,305.274,108.656,305.208,109.552z M294.529,117.316
	c-0.439-0.619-0.862-1.216-1.278-1.802c-0.766,0.299-1.452,0.477-1.656,1.283C292.494,117.305,293.367,117.837,294.529,117.316z
	 M295.623,114.264c-0.121,0.136-0.379,0.293-0.401,0.479c-0.044,0.366,0.296,0.579,0.589,0.596c0.306,0.018,0.651-0.202,0.585-0.569
	C296.341,114.46,296.05,114.264,295.623,114.264z"/>
<path fill-rule="evenodd" clip-rule="evenodd" d="M272.662,117.354c-0.041,0.835-0.078,1.608-0.114,2.354
	c0.772,0.469,1.252-0.097,1.801-0.333c0.435-0.186,0.959-0.508,1.241,0.079c0.25,0.521-0.235,0.923-0.636,1.136
	c-1.649,0.874-3.461,1.364-5.287,1.109c-1.716-0.239-3.42-0.778-4.983-1.59c-1.198-0.622-1.188-0.996-0.091-1.806
	c0.449-0.332,0.914-0.64,1.371-0.958c0.002-0.486-2.08-0.575-0.276-1.366c1.29-0.566,2.555-1.273,4.075-1.122
	c-0.284-0.658-0.956-0.489-1.389-0.761c-3.265-2.055-3.701-2.055-6.744,0.041c-0.313,0.216-0.636,0.56-1.022,0.133
	c-0.329-0.363-0.166-0.735,0.039-1.096c1.128-1.991,2.491-2.571,4.81-2.08c3.83,0.812,7.517,2.023,11.011,3.811
	c0.99,0.506,2.007,0.966,3.114,1.218c0.556,0.127,0.926,0.675,1.004,1.188c0.113,0.733-0.652,0.891-1.12,1.018
	c-1.07,0.292-2.182,0.403-3.288,0.065C275.033,118.042,273.883,117.713,272.662,117.354z M266.586,119.105
	c0.547,0.347,1,0.728,1.508,0.246c0.116-0.11,0.124-0.545,0.013-0.645C267.567,118.216,267.129,118.562,266.586,119.105z"/>
<path fill-rule="evenodd" clip-rule="evenodd" d="M283.89,148.055c1.534,1.203,3.157,2.075,4.861,2.515
	c1.542,0.398,3.115-0.091,4.436-1.2c0.942-0.791,1.712-1.879,3.019-2.157c0.467,0.611,0.063,0.957-0.269,1.255
	c-1.064,0.958-2.036,2.111-3.269,2.767c-1.992,1.06-4.179,0.954-6.143-0.194c-0.887-0.518-1.801-1.008-2.665-1.567
	c-1.135-0.735-2.223-1.19-3.534-0.355c-0.552,0.352-1.18,0.039-1.835-0.122c0.731-1.401,2.348-1.088,3.219-2.057
	c0.807-0.896,1.146-2.102,2.098-2.889c1.539-1.271,2.208-1.357,4.056-0.202c0.846,0.529,1.6,1.088,2.567,0.27
	c2.896-2.452,5.07-0.669,7.726,1.612c-2.164-0.56-3.623,0.091-5.046,1.452c-1.599,1.528-3.638,1.355-5.595,0.519
	C286.308,147.186,285.138,146.883,283.89,148.055z M283.871,145.699c2.303-0.186,4.142,0.752,6.183,0.673
	c0.794-0.031,1.873,0.297,2.278-0.275c0.715-1.008,1.764-1.072,2.881-1.372c-1.903-1.369-2.214-1.349-4.059,0.108
	c-1.633,1.291-1.868,1.299-3.478,0.13C285.975,143.728,285.975,143.728,283.871,145.699z"/>
<path fill-rule="evenodd" clip-rule="evenodd" d="M291.108,136.548c-1.275,0.766-2.431,0.954-3.71,0.343
	c-1.051-0.502-2.409-0.049-3.34-1.008c-0.314-0.323-0.873-0.542-0.681-1.114c0.249-0.741,0.903-0.551,1.407-0.408
	c1.587,0.452,3.29,0.293,4.834,0.962C290.194,135.572,290.843,135.689,291.108,136.548z"/>
<path fill-rule="evenodd" clip-rule="evenodd" d="M275.871,105.671c5.035,0.178,9.545-0.417,14.046-1.728
	c-0.423,0.896-1.161,1.47-2.121,1.517c-2.705,0.132-5.348,0.644-8.012,1.059C278.06,106.787,277.678,106.604,275.871,105.671z"/>
<path fill-rule="evenodd" clip-rule="evenodd" d="M274.703,121.969c-1.655,1.794-3.074,2.134-6.147,1.49
	C270.636,123.091,272.826,123.183,274.703,121.969z"/>
<path fill-rule="evenodd" clip-rule="evenodd" d="M292.199,136.222c-0.605-0.104-0.687-0.448-0.56-0.87
	c0.174-0.581,0.684-0.833,1.162-1.106c0.488-0.279,1.09-0.638,1.461-0.033c0.462,0.751-0.388,0.818-0.793,1.098
	C293.024,135.615,292.592,135.938,292.199,136.222z"/>
<path fill-rule="evenodd" clip-rule="evenodd" d="M264.595,545.325c0.816,1.171,0.367,2.137-0.088,2.862
	c-1.479,2.357-2.908,4.75-4.878,6.779c-2.108,2.173-4.595,3.106-7.557,2.765c-2.294-0.266-4.579-0.62-6.865-0.961
	c-2.117-0.315-3.913-1.315-5.517-2.693c-0.548-0.472-1.006-1.017-1.368-1.651c-0.321-0.565-0.785-1.163-0.11-1.691
	c0.686-0.537,1.1,0.144,1.603,0.527c2.534,1.934,5.167,3.639,8.578,3.391c0.632-0.045,1.274,0.06,1.912,0.098
	c5.404,0.317,9.396-2.033,12.089-6.602C263.01,547.105,263.942,546.47,264.595,545.325z"/>
<path fill-rule="evenodd" clip-rule="evenodd" fill="none" d="M294.529,117.316c-1.162,0.521-2.035-0.011-2.934-0.519
	c0.204-0.806,0.89-0.983,1.656-1.283C293.667,116.101,294.09,116.698,294.529,117.316z"/>
<path fill-rule="evenodd" clip-rule="evenodd" fill="none" d="M295.623,114.264c0.428,0,0.718,0.196,0.773,0.506
	c0.065,0.367-0.28,0.586-0.585,0.569c-0.293-0.017-0.633-0.229-0.589-0.596C295.244,114.558,295.501,114.4,295.623,114.264z"/>
<path fill-rule="evenodd" clip-rule="evenodd" fill="none" d="M266.586,119.105c0.542-0.542,0.981-0.889,1.521-0.399
	c0.111,0.1,0.103,0.535-0.013,0.645C267.586,119.833,267.133,119.452,266.586,119.105z"/>
<path fill-rule="evenodd" clip-rule="evenodd" fill="none" d="M283.871,145.699c2.104-1.971,2.104-1.971,3.806-0.735
	c1.61,1.169,1.845,1.16,3.478-0.13c1.844-1.458,2.155-1.478,4.059-0.108c-1.117,0.3-2.167,0.364-2.881,1.372
	c-0.406,0.572-1.484,0.245-2.278,0.275C288.013,146.451,286.173,145.513,283.871,145.699z"/>
</svg>
