<?xml version="1.0" encoding="utf-8"?>
<!-- Generator: Adobe Illustrator 19.2.0, SVG Export Plug-In . SVG Version: 6.00 Build 0)  -->
<svg version="1.1" id="Layer_1" xmlns="http://www.w3.org/2000/svg" xmlns:xlink="http://www.w3.org/1999/xlink" x="0px" y="0px"
	 viewBox="0 0 141.1 107.1" style="enable-background:new 0 0 141.1 107.1;" xml:space="preserve">
<style type="text/css">
	.st0{fill:#FFFFFF;}
	.st1{fill:#FEE5D2;}
	.st2{fill:#FEE75E;}
</style>
<rect x="79.1" y="51.2" transform="matrix(0.9928 0.1199 -0.1199 0.9928 6.9265 -9.4023)" class="st0" width="4.9" height="3.3"/>
<path d="M-160,4.2c0.2,0.4,0.3,1.1,0.5,1.1c1.1-0.1,2.3,0,3.2-0.5c1.1-0.5,2-1.3,2.9-2.1c0.6-0.5,0.9-1.2,2-0.7
	c0.3,0.2,1.1-0.6,2.1-1.3c-0.4,0.9-0.5,1.5-0.8,1.8c-1.2,1.3-2.3,2.7-3.6,3.8c-4,3.6-7.9,7.2-12,10.6c-1.6,1.3-2.2,2.8-2.4,4.9
	c-0.5,4.9,0.8,9.4,2.6,13.7c0.8,1.9,2.5,3.4,3.9,5.1c0.5,0.6,1.2,1.1,1.6,1.7c1.1,1.4,0.8,2.3-0.9,2.8c-0.4,0.1-0.8,0.1-1.3,0.2
	c1.3,3.1,4.6,3.9,6.9,6.1c-1.5,1-2.8,1.9-4.1,2.7c1.1,2.1,3.8,1,5.4,2.3c0.4,2.4,0.4,2.4-1.6,3.2c-0.8,0.3-1.6,0.7-2.6,1
	c1.3,1.6,3,2.2,4.7,2.9c0.6,0.2,1.2,0.3,1.8,0.6c1.2,0.6,1.3,1.4,0.2,2.1s-2.5,1.1-3.7,1.6c-0.4,0.1-0.8,0.2-1.4,0.5
	c2.6,2.1,5.9,1.9,8.7,3.5c-0.3,2.9-3,4.3-4.9,6.2c-0.4,0.4-1,0.7-1.6,1.1c0.1,0.4,0.2,0.8,0.3,1.4c-0.3,0.1-0.5,0.1-0.8,0.2
	c-0.3,0-0.6,0.1-0.9,0.1c0.2,1.9-0.1,2.4-1.8,2.6c-1.5,0.2-3,0.3-4.5,0.6c-1.5,0.3-2.9,0.9-4.3,1.4c-0.1,0.4-0.2,0.9-0.3,1.2
	c-2.3,0.6-4.6,1-6.7,1.7c-2.6,0.8-5.2,1.3-7.9,0.7c-1.8-0.4-3.8-0.3-5.7-0.2c-2,0.1-3.5-0.7-4.9-2c-0.5-0.4-0.9-0.9-1.5-1.4
	c-0.4,0.1-0.8,0.2-1.1,0.4c-2.3,1.4-4.8,1.9-7.4,1.3c-2.9-0.7-5.9-1.3-8.4-2.7c-2.3-1.3-4.2-3.6-6.1-5.7c-1.5-1.6-2.8-3.5-4.1-5.2
	c-0.9,2-1.8,3.8-2.7,5.6c-0.8,1.7-2.2,2.9-3.8,3.9c-2,1.2-3.9,2.4-5.5,4.2c-1.1,1.3-3,1.4-4.4,0.4c-0.9-0.6-1.5-1.5-2.4-2.1
	c-0.6-0.4-1.4-0.8-2.2-0.8c-2,0-4,0.2-6.1,0.3c-0.4-0.4-1-0.8-1.3-1c-2.7,0.8-5.2,1.7-7.7,2.4c-1.6,0.4-1.6,0.4-5-1
	c-0.4-1.3,0-2,1.3-2.6c2.9-1.3,5.3-3.9,4.5-7.9c-1.3,1.2-2.4,2.7-3.9,3.5s-3.3,1.2-5,1.2s-3.5-0.4-4.7-2c1.4-2.7,5-2.1,6.8-4.9
	c-1.6,0-2.8-0.2-4,0c-3.1,0.5-4.9-1.5-6.8-3.2c-0.5-0.4-0.8-1.1-1.4-1.8c2.6-0.4,5.1,0.7,7.2-1c1.5-1.2,2.7-2.7,3.5-4.7
	c-0.9-0.5-1.9-0.7-2.9-0.3c-1.5,0.6-2.8,0.2-4.1-0.5c-1.2-0.7-2.4-1.3-3.5-2c-0.9-0.5-1.7-1.1-1.9-2.4c1.7-1.3,3.6-1.5,5.7-1
	c-1.9-1.7-3.1-3.8-3.7-6.2c-0.1-0.5,0.4-1.1,0.7-2c1,0.6,1.7,0.9,2.4,1.4c2.7,1.8,4.9,1.6,7.4-0.5c1.6-1.4,3.3-2.8,5.1-4
	c3.2-2,5.5-4.8,7.8-7.7c0.8-1.1,1.5-2.3,2.4-3.3c3.7-4.7,6-10.1,8.8-15.3c2.1-3.9,3.8-8.1,7.4-11.1c0.7-0.5,1.4-1.1,2.1-1.5
	c2.3-1.3,4.7-2.6,7.1-4c2.2-1.3,4.7-1.6,7.2-1.6c0.6,0,1.2,0.3,1.8,0.4c1.6,0.4,3.2,0.8,4.9,1.1c3.4,0.6,6.1-0.8,8.4-3.1
	c1-1,2-2,3.1-3c0.3-0.3,0.7-0.5,1.2-0.8c1.8,2.7-0.1,5.2-0.1,7.9c2.9-1.1,5.2-2.7,7-5c1.3-1.5,2.6-3,3.9-4.5
	c1.5,1.1,1.5,1.1,0.4,7.8c2.2-2.4,5.3-3.1,6.8-5.9c0.5-1,1.4-1.2,2.2-1c1,0.2,0.8,1.3,0.7,2c-0.1,0.8-0.2,1.6-0.4,2.7
	c1.6-0.4,2.7-1.4,3.5-2.5c0.9-1.5,2.2-2.2,4-2.3c0.7,1.8-0.8,3.2-0.9,5.2c2.8-0.9,4.3-4.2,7.6-4.2c0.9,1.9-0.5,3.4-1,5.4
	c2.7-1.3,3.9-4.7,7.7-4.5C-156.9-1-157.6,2-160,4.2c-0.6,0.2-1.2,0.3-1.7,0.6c-0.7,0.4-1.4,1-2.1,1.5c-1.2,0.9-2.2,0.8-3-0.4
	c3.5,0.1,7-3,7.6-6.5c-1.2,0.7-2.3,1.6-3.6,2.2c-1.1,0.5-2.1,1.1-2.7,2.2c-0.3,0.6-0.8,1-1.7,0.5c0.5-0.7,0.9-1.3,1.6-2.2
	c-0.7,0.3-1.2,0.4-1.9,0.7c0.6-1,1-1.6,1.4-2.3c-0.1-0.1-0.2-0.2-0.3-0.3c-0.7,0.5-1.4,0.9-2.1,1.4c-0.3-0.4-0.6-0.7-0.9-1.1
	c-3.6,2.5-6.7,5.4-9.8,8.4c-0.7,0.7-1.5,1.3-2.3,1.9c0.3-0.6,0.6-1.1,0.9-1.7c0-0.1,0.1-0.2,0.2-0.2c-0.6-1.2,1.4-1.2,1-2.5
	c-0.9,0.5-1.8,0.9-2.7,1.4c0.6-0.6,1.2-1.2,1.9-1.7c1.3-0.9,2.8-1.5,4.1-2.4c2-1.3,3.5-3,4.1-5.5c-1.6,1.9-4.7,1.6-5.6,4.3
	c-1.2-1.1-1-2.3-0.4-3.7c-1.3,0.7-2.3,1-3.1,1.6c-1,0.9-2,2-2.7,3.2c-0.7,1.1-1.2,2.4-1.8,3.6c-0.3,0.5-0.7,1-1.3,1.8
	c1.2-0.3,1.9-0.5,2.6-0.7c-0.9,0.5-1.7,1-2.6,1.5c-0.7,0.4-1.5,0.6-2,1.2c-1.3,1.3-2.5,2.7-3.8,4.1c1.2-0.1,2.1-0.5,3-0.9
	c1.8-1,3.6-2,5.4-3c-0.2,0.4-0.4,0.8-0.8,1.7c1.5-0.9,2.6-1.5,3.6-2.2c-1.7,1.4-3.5,2.9-5.1,4.2c2.2-0.8,4.6-1.8,6.9-2.7
	c0.1,0,0.2-0.2,0.3-0.4l0,0c0.1,1.4-1.5,1.5-2,2.4l0,0c-0.9,0.8-1.9,1.6-2.9,2.6c1.7,0.5,3.1,0,4.5-0.6c2-0.9,4.1-1.8,6.1-2.7
	c-0.2,1.9-2.3,2.2-3.5,4.1c2.1-0.8,3.7-1.5,5.3-2.1l-0.1-0.1c-0.8,0.7-1.6,1.5-2.5,2.2c1.9-0.3,3.8-0.8,5.4-1.7
	c1.7-0.9,3.2-2.1,4.7-3.2c0.7-0.5,3-3.5,3.1-4c-0.5,0-0.9,0-1.8,0c1.8-0.6,3.1-1.1,4.4-1.6c0-0.1,0-0.3,0-0.4
	c-1.2-0.3-2.4-0.5-3.7-0.8C-161.5,5.5-160.8,4.9-160,4.2z M-184.4,80.2c-0.3-0.4-0.8-0.9-0.8-1.3c0-1-0.5-1.6-1.2-2.2
	c-0.1-0.1-0.3,0-0.5-0.1c-0.3,0.4-0.6,0.8-0.9,1.2c2.3,5.4,6.1,8.5,12,8.5c-0.7-0.5-1.4-1-2.1-1.3c-0.7-0.3-1.4-0.5-2.2-0.8
	c0.2-0.1,0.4-0.2,0.6-0.2c-0.4-1.2-1.6-1.6-2-2.9c-0.2-0.9-2-1.3-3.2-2C-184.5,79.6-184.5,79.9-184.4,80.2z M-190.9,5.5
	c-1.1,1.3-2.2,2.7-3.5,4.3c4.2-1.5,6.8-4.5,9.9-7.4c-0.8-0.3-1.2-0.4-1.6-0.5c-0.5,0.8-0.8,1.5-1.2,2.2c-0.1-0.1-0.3-0.1-0.4-0.2
	c0.6-1.7,1.2-3.5,1.8-5.2c-0.8-0.5-1.3-0.8-1.7-1c-1.2,0.7-1.3,1.7-1.1,2.9C-188.3,3.4-188.9,4.6-190.9,5.5c1.3-1.3,1.5-2.9,1.1-5.4
	c-3.7,4.8-8,7.6-13.7,8.2c0.3,0.5,0.5,0.8,0.7,1.1c-1.7-1.3-3.7-1-5.8-1.3c0.3-0.7,0.6-1.1,0.8-1.6c4.9,1.8,9.3,0.9,13-2.7
	c-1.5,0.3-2.6,1.9-4.5,1.1c0.8-2.3,1.9-4.4,1.6-7.2c-1.2,1.2-2.2,2.2-3.2,3s-2.1,1.6-3.3,2.5c1.3,0.5,2.2,0.9,3.2,1.3
	c-0.2,0.4-0.3,0.7-0.4,1c-1-0.1-1.9-0.1-2.7-0.1c-3.1-0.2-6.2-0.1-9.3-0.6c-5.7-0.8-10.3,1-14.4,5.1c-0.8-0.8-1.7-0.5-2.3,0.3
	c-0.8,1-1.6,2.2-2.4,3.3c-0.2,0.3-0.6,0.5-1,0.9c0.6-3.8,4-5.1,5.6-7.8c-2.2,1.3-4.5,2.4-5.9,4.6c-1.7,2.8-3.3,5.6-4.8,8.5
	c-2.2,4-4.3,8-6.5,12c-0.8,1.4-2,2.6-2.6,4c-2.1,4.5-6,7.6-8.9,11.7c-0.4-0.4-0.7-0.6-1.1-1c-1.2,0.9-2.4,1.7-3.6,2.7
	c-1.1,0.8-2,1.9-3.1,2.6c-2.2,1.5-4.7,1.2-7.2,0.3c0.5,1.7,3.1,1.8,2.2,4.2c1.6-0.4,2.9-0.7,4.2-0.9c-0.7,0.7-1.5,1.2-2.4,1.4
	c-1,0.3-2,0.3-1.9,2c-0.3-0.5-0.4-0.7-0.6-0.9c-0.9-0.7-1.9-0.7-2.2,0.1c-0.4,1,0.3,1.3,1,1.6c1.3,0.4,2.6,1,3.9,1.2
	c3.7,0.6,4.1,0.3,5.6-3.1c0.6,0.6,0.7,1.2,0.2,1.9c-0.4,0.6-0.6,1.2-1,1.8c-1.3,2.2-2.2,4.8-4.5,6.3c-1,0.7-1.7,1.7-2.7,2.8
	c2.8,0.9,5.3,0.9,7.9,0.5c0.6-0.1,1.3,0,2.4,0.1c0.5-0.5,1.1-1.7,2.7-1.7c-1.2,1.7-2.6,3.1-3.7,4.8c-1.2,1.9-3.5,1.9-4.8,3.6
	c1.5,0,2.9-0.2,4.2-0.6c2.9-1,4.3-3.6,6.1-6.3c0.8,1.1,1.9,2,1.8,2.9c-0.2,3.7-0.8,7.3-4,9.8c-0.4,0.3-0.8,0.4-1.3,0.6
	c0.2,0.2,0.3,0.4,0.5,0.6c1.1,0.1,2.1,0.2,2.8-1c0.2-0.4,0.8-0.7,1.3-0.9c2.1-0.7,3.9-1.7,5.2-3.4c1.3,0.9,2.4,1.7,3.8,2.6
	c1-0.5,2-1.1,3.2-1.8c0,0.9,0,1.6,0,2.4c1.8,0.9,3.2,0.6,4.5-0.9c0.7-0.8,1.7-1.5,2.6-2.2c0.2,1,0,1.9-0.3,2.6
	c-0.4,0.9-1.1,0.1-1.6,0.3c-0.6,0.3-1.1,0.7-1.7,1.2c2.8,1.5,3.7,1.4,5.4-0.6c0.7-0.8,1.3-1.7,2.2-2.8c0.1,0.8,0.1,1.2,0.1,1.6
	s0.1,0.7,0.1,1.2c5.1-3.2,7.9-7.2,7.8-10.2c-1.7,1.4-3.8,3.1-5.9,4.8c1.7-3.5,4.1-6.9,4.4-11.1c-0.4,0.2-0.5,0.6-0.8,0.8
	c-2,2.5-4,5-6.1,7.4c-0.3,0.3-0.9,0.2-1.4,0.3c0.1-0.5,0.2-1,0.5-1.3c1.4-1.5,2.8-3,4.2-4.5c1.3-1.4,2.1-3,2.6-4.8
	c0.3-1,0.2-1.8-0.5-2.6c-1.4,1.9-2.8,3.5-3.9,5.4c-1.2,2-3.3,2.8-4.9,4.4c-0.5,0.5-1,0.9-1.6,1.3c4.1-4.5,7.1-8.9,8.7-13.1
	c0.5-1.2,0.8-2.4,0.1-3.7c-1.4-0.2-2,0.7-2.7,1.6c-1.2,1.8-2.5,3.5-3.7,5.3c-0.6-0.4-0.9-0.6-1.3-0.9c1.7-2.3,3.5-4.5,4.1-7
	c-1.1-2-2.1-3.7-3.1-5.5c-2,2-3,4.7-5.7,5.9c0.3-0.5,0.7-0.9,1.1-1.4c1.5-2,3-4.1,4.5-6.1c-0.4-2-0.8-4.1-1.1-6.1
	c0-0.2-0.1-0.3-0.1-0.5c-0.3-1.6-0.3-3.2,0.8-4.5c0.8-1.1,1.7-2.1,2.4-3.2c0.3-0.5,0.6-1.1,0.6-1.7c0-1.2-0.1-2.4-0.4-3.6
	c-0.4-2-1-3.9-1.4-5.8c-0.3-1.6-0.7-3.1-1.9-4.3c-0.6-0.6-1.2-1.4,0-2.4c2.3,2,5,3.3,7.9,4.3c5.7,2.1,6.1,2.2,9,1.5
	c-1-0.4-1.8-0.8-2.6-1.1c1.5,0.1,2.8,0.5,4.2,1s2.6,0,3.9-0.6c2.9-1.3,2.9-1.3,3.1-2.1c2.5,0.4,4.6-0.5,6.8-1.9
	c-1.5-0.6-2.8-1.1-4.6-1.9c0.6-0.1,0.7-0.1,0.8-0.1c0.4,0.1,0.8,0.2,1.1,0.4c2.9,1.4,5.7,1.3,8.7,0c3.9-1.8,7-4.5,9.1-8.3
	c-0.3,0-0.6,0.1-0.8,0.3c-2.1,2.1-4.8,3.2-7.6,3.9c-2.2,0.5-4.6,1-6.4-1.2c1.2,0.3,2.3,0.8,3.5,0.9c1,0.1,2-0.3,3-0.5
	c0-1.4,1.5-1.5,2.2-2.3C-192.8,7-191.8,6.3-190.9,5.5z M-167.3,78.7c-0.1,0.3-0.3,0.5-0.5,0.9c2.4,0.5,4.6,1.2,6.9,0.6
	c-0.2-1.3-1.1-0.9-1.7-0.9C-164.1,79.2-165.8,79.6-167.3,78.7c0.7-0.2,1.4-0.4,2.1-0.6c-0.8-0.4-1.6-0.8-2.3-1.2
	c2.1,0.7,4.2,0.7,6.3,0.5c1-0.1,2-0.4,3.1-0.4c3.2-0.2,5.4-1.9,7.6-4.3c-0.7-0.2-1.2-0.4-1.8-0.5c-2.9-0.6-5.6-1.9-8.2-3.3
	c-1.3-0.7-1.3-1.6-0.1-2.3c0.5-0.3,1-0.3,1.6-0.5c1-0.3,2.1-0.5,3.5-0.9c-1.1-0.9-1.8-1.5-2.6-2c-1.4-1-2.8-1.9-4.1-2.9
	c-0.8-0.6-1.3-1.2-0.2-2.2c1.8,0.6,3.8,1.1,5.5-0.1c-1-0.7-1.9-1.3-2.9-2c-0.9-0.6-1.7-1.5-2.7-1.9c-1.2-0.6-1.4-1.5-1.3-2.8
	c1.7,0,3.3,0,5.3,0c-2.3-1.9-4.2-3.5-6.2-5.1c-1.1-0.9-2.1-1.9-3.1-3c-0.3-0.3-0.2-1-0.3-1.5c0.5-0.1,1-0.3,1.5-0.2
	c1.1,0.2,2.1,0.5,3.1,0.8c0.1-0.2,0.2-0.3,0.3-0.5c-0.4-0.6-0.8-1.3-1.4-1.8c-1.6-1.5-2.5-3.5-3.2-5.5c-1.4-3.9-1.9-7.9-1.8-12
	c0-1.1,0-2.1,0-3.2c-0.2,0-0.4-0.1-0.6-0.1c-1.4,2.3-1.6,5.1-2.3,7.6c-0.8,2.6-1.4,5.3-2,8c3.9,0.5,4.6,1.3,4,4.9
	c-0.7,3.8-1.6,7.6-2.5,11.5c-0.4,1.5-1.4,2.2-3,2.4c-0.6,0.1-1.2,0.2-1.9,0.3c0.2,3.1,2.1,5,3.7,7.1c-0.1,0.1-0.3,0.2-0.4,0.3
	c-1.1-1-2.2-2-3.4-3c-0.5,1.9,0.7,3,1.5,4.3c0.7,1.2,1.7,2.3,2.5,3.5c-0.1,0.1-0.1,0.1-0.2,0.2c-0.6-0.5-1.3-1-2-1.6
	c-0.1,0.5-0.2,0.9-0.3,1.2c-0.9-1.5-0.2-3.6-2.2-4.8c-0.2,1.5-0.2,2.9-0.6,4.1c-0.5,1.3-0.1,2.1,0.6,3c1,1.1,2,2.2,3,3.4
	c0.3,0.4,0.5,1,1,1.9c-3.3-0.5-4.6-2.7-6.1-4.5c-1.4,0.6-1.8,1-1.4,1.7c0.8,1.3,1.7,2.7,2.7,3.7c1.1,1,2.4,1.8,3.6,2.7
	c-0.7-0.1-1.4-0.1-2.3-0.2c0.4,0.4,0.7,0.7,0.9,1c-3.4-0.4-5.2-2.9-7-5.4c-0.7,1-1.2,1.8-1.8,2.7c0.5,0.4,1,0.6,1.3,1
	c1.6,2.6,4,3.8,6.9,4.1c0.5,0.1,1.4,0.3,1.4,0.6c0.3,1.4,1.4,1.2,2.2,1.4c1.7,0.4,3.4,0.7,5.2,0.9c0.9,0.1,1.8,0,2.7,0
	c-0.2-0.5-0.5-0.6-0.8-0.7s-0.6-0.3-0.9-0.5c3.1,1.3,6-0.8,9-0.7c-0.2-0.2-0.4-0.5-0.6-0.4c-3.2,0.7-6.3-0.1-9.4-0.7
	c-2.5-0.5-4.9-1.3-6.8-3c1.7,0.4,3.3,1,5,1.3C-169.7,78.8-168.5,78.6-167.3,78.7z M-231,20.1c-0.1,0.1-0.2,0.3-0.4,0.4
	c0.1,0.5,0.2,0.9,0.3,1.4c0.5,2.6,1.2,5.1,1.5,7.7c0.6,5.1,1,10.3,2.2,15.4c1.1,4.4,1.9,8.8,3.2,13.2c1.6,5.6,3.2,11.2,6.9,15.8
	c2,2.5,4,5,6.5,7.2c1.2,1,2.7,0.9,4,1.5c2.3,1.1,4.7,1.4,7.2,1.4c1.4,0,2.6-0.3,3.7-1.4c3-3.1,6.5-5.7,8.8-9.4
	c0.7-1.2,1.5-2.3,2.3-3.4c2.3-3.1,3.8-6.4,4.6-10.2c0.3-1.4,0.5-3.1,0-4.2c-0.5-1.1-0.4-1.9-0.4-2.9c0.3-4.5,0.7-9.1,1.2-13.6
	c0.1-1.1,0.4-2.2,0.8-3.2c1-2.9,2.3-5.8,3.1-8.8c0.5-1.9,0.5-4,0.8-6.1c-1.6-0.2-2.9-0.2-4-0.6c-3.1-1-6.4-1-9.7-1.5
	c-3.6-0.6-7.1-0.5-10.6,0.5c-2.1,0.6-4.3,1.3-6.4,1.9c-1.8,0.6-3.6,1.3-5.5,1.7c-3.1,0.5-6.2,0.7-9.2,1.2c-2.9,0.4-5.3-0.2-7.6-2
	C-228.8,21.4-229.9,20.8-231,20.1z M-171.5,38c-3.3-1.4-4.8-0.6-5.2,2.5c-0.2,1.2-0.4,2.4-0.6,3.5c-0.5,2.6-1.1,5.2-0.5,8.1
	c0.5-0.2,1-0.5,1.4-0.4c2.3,0.2,2.8-1.3,3-3.1c0-0.4,0.1-0.8,0.2-1.2c0.4-1.8,0.8-3.5,1.1-5.3C-171.9,40.7-171.7,39.3-171.5,38z
	 M-230.6,36c-1.8,1.6-2.4,3.2-2.2,5.1c0.2,1.3,0.3,2.7,0.7,4c0.6,2.3,1.4,4.5,2.2,6.7c0.3,0.9,1,1.5,2.4,1.3
	C-228.5,47.5-229.5,41.9-230.6,36z M-190.2,80.7c-2,2.7-1.9,3.1,0.9,4.4c0.9,0.4,1.7,0.9,2.6,1.2c2,0.8,4,0.7,6.4,0
	C-183.8,84.5-187.5,83.6-190.2,80.7z M-173.5,84.2c-0.5-0.5-0.6-0.8-0.7-0.9c-1.4-0.2-2.7-0.6-3.8-1.7c-0.3-0.3-1.1-0.2-2-0.4
	C-178.2,83.5-176.2,84.1-173.5,84.2z M-172.1,85.7c0-0.2,0-0.4,0.1-0.6c-0.7,0-1.4,0.1-2.1,0.1c0,0.2,0,0.4,0,0.6
	C-173.4,85.9-172.8,85.8-172.1,85.7z M-215,3.9c0-0.1,0-0.2,0-0.3c-0.9,0-1.8,0-2.8,0c0,0.1,0,0.2,0,0.3
	C-216.8,3.9-215.9,3.9-215,3.9z M-209.1,4c0,0.1,0,0.2,0,0.3c0.8,0,1.6,0,2.4,0c0-0.1,0-0.2,0-0.3C-207.5,4-208.3,4-209.1,4z
	 M-231.4,83.3c-0.1-0.1-0.2-0.3-0.3-0.4c-0.4,0.5-0.9,0.9-1.3,1.4c0.1,0.1,0.1,0.2,0.2,0.2C-232.4,84.1-231.9,83.7-231.4,83.3z
	 M-158.3,8.4c-0.1-0.1-0.2-0.3-0.4-0.4c-0.4,0.3-0.7,0.7-1.1,1c0.1,0.1,0.2,0.2,0.3,0.3C-159.1,9-158.7,8.7-158.3,8.4z"/>
<path class="st1" d="M-231,20.1c1.1,0.7,2.2,1.2,3.2,2c2.2,1.8,4.7,2.5,7.6,2c3.1-0.5,6.2-0.6,9.2-1.2c1.9-0.3,3.6-1.1,5.5-1.7
	c2.1-0.7,4.3-1.3,6.4-1.9c3.5-1,7-1.1,10.6-0.5c3.2,0.5,6.5,0.5,9.7,1.5c1.2,0.4,2.5,0.4,4,0.6c-0.2,2.1-0.2,4.2-0.8,6.1
	c-0.8,3-2.1,5.8-3.1,8.8c-0.4,1-0.7,2.1-0.8,3.2c-0.5,4.5-0.9,9.1-1.2,13.6c-0.1,0.9-0.1,1.8,0.4,2.9c0.6,1.2,0.3,2.8,0,4.2
	c-0.7,3.7-2.3,7.1-4.6,10.2c-0.8,1.1-1.6,2.2-2.3,3.4c-2.3,3.8-5.8,6.4-8.8,9.4c-1.1,1.1-2.3,1.4-3.7,1.4c-2.5-0.1-4.9-0.3-7.2-1.4
	c-1.3-0.6-2.8-0.5-4-1.5c-2.5-2.1-4.5-4.7-6.5-7.2c-3.7-4.6-5.3-10.3-6.9-15.8c-1.3-4.3-2.1-8.8-3.2-13.2
	c-1.2-5.1-1.6-10.2-2.2-15.4c-0.3-2.6-1-5.2-1.5-7.7c-0.1-0.5-0.2-0.9-0.3-1.4C-231.2,20.4-231.1,20.3-231,20.1z M-183.8,39.4
	c-2.7-1.3-5-2.3-7.5-3.5c3.5-2,6.8-4,10.5-1c0.7,0.6,1.4,0.3,2.3,0c-1.1-1.4-2.1-2.6-3.7-2.8c-2.5-0.4-4.9-0.3-7.2,1
	c-0.9,0.5-1.9,0.9-2.9,1.1c-0.8,0.2-1.6,0-2.4,0c0.2-0.7,0.3-1.2,0.6-2c-1.5,0.8-2.6,1.5-3.1,2.7c-1.9,4-3.8,8-2.7,12.6
	c0.1,0.6,0,1.3,0.1,1.9c0.1,1.2,0.3,2.4,0.6,3.5c0.1,0.4,0.6,0.6,1.1,1.1c-0.3-3.3-0.4-6.2-0.8-9.1c-0.3-2.5,0.5-4.5,1.7-6.7
	c0.4,0.5,0.8,1,1.1,1.3c1.3-0.4,2.4-0.7,3.7-1c-0.2,1-0.3,1.7-0.5,2.4c-0.6,0-1.2-0.1-2.2-0.1c0.4,0.5,0.5,0.7,0.7,0.8
	c2.1,1.3,4.1,2,6.4,0.4C-186.8,41.1-185.4,40.4-183.8,39.4z M-209.4,37.7c0-0.6,0.1-0.6,0-0.7c-0.1-0.1-0.1-0.3-0.2-0.4
	c-2.7-1.4-5.5-2.4-8.6-1.3c-1.1,0.4-2.3,0.6-3.4,0.9c-0.5,0.1-1,0.3-1.6,0.5c1.5,1.7,1.5,1.7,4.7,1.1c0.1,0.3,0.2,0.6,0.3,1.1
	c-0.9-0.2-1.7-0.3-2.7-0.4c2.4,3,8,3.3,10.2,0.7c-1-0.1-1.9-0.2-2.9-0.3c0.1-0.6,0.2-1.1,0.3-1.7C-211.9,37.4-210.7,37.6-209.4,37.7
	z M-206.8,35.3c-0.7-1.2-1.6-1.9-2.9-2.3c-1.6-0.5-3.1-1.2-4.7-1.6c-2.3-0.6-4.6-1.4-7-1.4c-1.9,0-3.7,0.9-5.7,1.4
	c1,1.5,2.3,1.3,3.3,0.9c2.9-1.3,5.5-0.5,8.1,0.6c1.9,0.9,3.9,1.9,5.7,3C-208.8,36.4-207.8,36.5-206.8,35.3z M-199.5,56.8
	c-0.9,0.8-1.8,1.9-3.2,1.1c-0.1-0.1-0.3,0-0.4,0.1c-1.5,1.4-2.2,0.1-3-0.9c-0.4-0.4-0.6-0.9-1-1.4c-0.4-0.6-0.9-1.2-1.7-0.9
	c-0.9,0.4-1,1.2-0.7,2c1,0.7,2.4-0.2,3.1,1.2c0.4,0.9,1,1.6,2.2,1.6c1,0,2.3,0.5,3,0c1.1-0.7,2-0.7,3.1-0.6c0.9,0,1.1-0.4,0.9-1
	C-198.1,57.7-198.7,57.3-199.5,56.8z M-211.3,66.7c0.1,0.2,0.2,0.3,0.3,0.4c0.7-0.2,1.3-0.5,2-0.5c1.2,0,2.4-0.1,3.5,0.2
	c1.2,0.4,2.4,0.6,3.7,0.6c1.6,0,3.1,0.2,4.7,0.3c0.2,0,0.5-0.2,0.9-0.4c-1.1-1.1-2.3-1.3-3.6-1.3c-1.6,0-3.3,0.2-4.6-0.4
	c-2.1-1-4-0.4-5.9,0.1C-210.8,65.9-211,66.4-211.3,66.7z M-201.6,69.6c-1.9,0-3.8-1.3-5.7-0.3C-205.4,70.2-203.6,71.1-201.6,69.6z"
	/>
<path class="st2" d="M-202.2,9.7c1.8,2.2,4.2,1.7,6.4,1.2c2.8-0.7,5.5-1.8,7.6-3.9c0.2-0.2,0.4-0.3,0.8-0.3
	c-2.1,3.8-5.1,6.5-9.1,8.3c-3,1.4-5.8,1.4-8.7,0c-0.4-0.2-0.7-0.3-1.1-0.4c-0.1,0-0.2,0-0.8,0.1c1.7,0.7,3,1.2,4.6,1.9
	c-2.2,1.4-4.3,2.3-6.8,1.9c-0.2,0.8-0.2,0.8-3.1,2.1c-1.3,0.6-2.5,1.1-3.9,0.6c-1.3-0.5-2.7-0.9-4.2-1c0.8,0.4,1.7,0.7,2.6,1.1
	c-2.9,0.7-3.3,0.6-9-1.5c-2.9-1.1-5.6-2.3-7.9-4.3c-1.2,1-0.5,1.8,0,2.4c1.2,1.2,1.5,2.7,1.9,4.3c0.4,1.9,1,3.9,1.4,5.8
	c0.2,1.2,0.4,2.4,0.4,3.6c0,0.6-0.3,1.2-0.6,1.7c-0.8,1.1-1.6,2.1-2.4,3.2c-1.1,1.4-1.1,2.9-0.8,4.5c0,0.2,0.1,0.3,0.1,0.5
	c0.4,2,0.8,4.1,1.1,6.1c-1.5,2-3,4.1-4.5,6.1c-0.4,0.5-0.8,0.9-1.1,1.4c2.7-1.2,3.7-4,5.7-5.9c1,1.8,2,3.6,3.1,5.5
	c-0.6,2.6-2.4,4.7-4.1,7c0.4,0.3,0.8,0.5,1.3,0.9c1.2-1.8,2.5-3.5,3.7-5.3c0.6-1,1.3-1.8,2.7-1.6c0.7,1.3,0.3,2.5-0.1,3.7
	c-1.6,4.2-4.6,8.6-8.7,13.1c0.5-0.4,1.1-0.8,1.6-1.3c1.6-1.5,3.7-2.4,4.9-4.4c1.1-1.8,2.5-3.5,3.9-5.4c0.8,0.9,0.8,1.7,0.5,2.6
	c-0.6,1.8-1.3,3.4-2.6,4.8c-1.4,1.5-2.9,3-4.2,4.5c-0.3,0.3-0.3,0.9-0.5,1.3c0.5-0.1,1.2,0,1.4-0.3c2.1-2.4,4.1-4.9,6.1-7.4
	c0.2-0.3,0.4-0.6,0.8-0.8c-0.3,4.2-2.7,7.6-4.4,11.1c2-1.7,4.2-3.4,5.9-4.8c0.1,3-2.7,7-7.8,10.2c0-0.4-0.1-0.8-0.1-1.2
	c0-0.4-0.1-0.8-0.1-1.6c-0.9,1.1-1.5,2-2.2,2.8c-1.8,2-2.6,2-5.4,0.6c0.6-0.4,1.1-0.9,1.7-1.2c0.5-0.2,1.3,0.6,1.6-0.3
	c0.3-0.8,0.4-1.6,0.3-2.6c-0.9,0.7-1.8,1.4-2.6,2.2c-1.3,1.5-2.7,1.8-4.5,0.9c0-0.7,0-1.4,0-2.4c-1.2,0.7-2.3,1.2-3.2,1.8
	c-1.3-0.9-2.5-1.8-3.8-2.6c-1.3,1.7-3.1,2.7-5.2,3.4c-0.5,0.2-1.1,0.5-1.3,0.9c-0.7,1.2-1.7,1.1-2.8,1c-0.2-0.2-0.3-0.4-0.5-0.6
	c0.4-0.2,0.9-0.4,1.3-0.6c3.2-2.5,3.8-6.1,4-9.8c0-0.8-1.1-1.7-1.8-2.9c-1.9,2.7-3.3,5.3-6.1,6.3c-1.3,0.5-2.7,0.6-4.2,0.6
	c1.3-1.7,3.6-1.7,4.8-3.6c1.1-1.7,2.6-3.1,3.7-4.8c-1.5,0-2.2,1.2-2.7,1.7c-1.1-0.1-1.8-0.2-2.4-0.1c-2.5,0.4-5,0.4-7.9-0.5
	c1-1.1,1.8-2.1,2.7-2.8c2.3-1.6,3.2-4.1,4.5-6.3c0.4-0.6,0.6-1.2,1-1.8c0.5-0.7,0.3-1.3-0.2-1.9c-1.5,3.5-1.9,3.7-5.6,3.1
	c-1.3-0.2-2.6-0.7-3.9-1.2c-0.7-0.2-1.4-0.6-1-1.6c0.3-0.8,1.3-0.8,2.2-0.1c0.2,0.1,0.3,0.4,0.6,0.9c-0.1-1.7,0.9-1.7,1.9-2
	c0.9-0.2,1.7-0.7,2.4-1.4c-1.3,0.3-2.6,0.6-4.2,0.9c0.9-2.4-1.7-2.5-2.2-4.2c2.5,0.9,5,1.2,7.2-0.3c1.1-0.7,2-1.8,3.1-2.6
	c1.2-0.9,2.4-1.8,3.6-2.7c0.4,0.4,0.7,0.6,1.1,1c2.9-4.1,6.8-7.2,8.9-11.7c0.7-1.4,1.9-2.6,2.6-4c2.2-4,4.3-8,6.5-12
	c1.6-2.9,3.1-5.7,4.8-8.5c1.4-2.2,3.7-3.3,5.9-4.6c-1.7,2.7-5.1,4-5.6,7.8c0.5-0.4,0.8-0.6,1-0.9c0.8-1.1,1.5-2.2,2.4-3.3
	c0.7-0.8,1.5-1.1,2.3-0.3c4.1-4,8.7-5.9,14.4-5.1c3.1,0.4,6.2,0.4,9.3,0.6c0.9,0,1.7,0.1,2.7,0.1c0.1-0.3,0.3-0.6,0.4-1
	c-1-0.4-2-0.8-3.2-1.3c1.3-0.9,2.4-1.7,3.3-2.5c1-0.9,1.9-1.8,3.2-3c0.3,2.8-0.8,4.9-1.6,7.2c1.9,0.8,3.1-0.7,4.5-1.1
	c-3.8,3.6-8.1,4.5-13,2.7c-0.2,0.5-0.5,0.9-0.8,1.6c2,0.3,4.1,0.1,5.8,1.3C-202.6,9.5-202.4,9.6-202.2,9.7z M-252.1,63.9
	c0.9-0.4,1.8-0.8,2.7-1.2c0.8-0.6,1.7-1.2,2.5-1.7c-1.1,0.3-2.2,0.5-2.5,1.8C-250.3,63.1-251.2,63.5-252.1,63.9
	c-0.5,0.4-1.1,0.7-1.6,1.1c0.1,0.1,0.2,0.3,0.3,0.4C-253,64.9-252,65-252.1,63.9z M-249.1,42.4c0.7-0.5,1.4-1,2.1-1.5
	c-0.1-0.2-0.3-0.3-0.4-0.5C-248,41.1-248.5,41.8-249.1,42.4c-1,0.2-1.5,0.9-1.8,1.9C-250.4,43.7-249.7,43-249.1,42.4z M-217.1,8.4
	c2.3,1.2,4.6,2.5,6.9,3.7c-0.9-0.9-1.9-1.8-3-2.5C-214.4,8.9-215.6,8-217.1,8.4c-2.9-1.3-5.6-0.2-8.2,0.8c-0.6,0.2-1.3,0.9-0.9,2.1
	c0.5-0.5,0.8-0.8,1.1-1.1c0.5-0.4,0.9-1,1.4-1.1C-221.5,8.8-219.3,8.7-217.1,8.4z M-242.1,36c3.5-2.8,5-6.9,7-10.7
	C-238.1,28.4-239.1,32.8-242.1,36z M-255.8,66.6c2.2,1.5,4.4,0.6,6.6,0.2c2.2-0.4,4.4-1,6.2-2.5C-247.1,65.8-251.2,67.6-255.8,66.6z
	 M-242.3,45.3c2.6-2,5-5.3,5.4-7.2c-0.1,0-0.4-0.1-0.4,0C-239,40.5-240.6,42.9-242.3,45.3z M-245,59.3c0.1,0.1,0.2,0.2,0.3,0.3
	c1.5-1.1,3-2.3,4.5-3.4c-0.1-0.1-0.2-0.3-0.3-0.4C-242,57-243.5,58.2-245,59.3z M-219.6,15.5c-1.1-1.7-2.1-2.6-3.6-2.4
	C-221.7,13.8-221.2,15.3-219.6,15.5z M-229.5,14.3c-0.1,0.2-0.2,0.3-0.4,0.5c0.9,0.7,1.8,1.4,2.8,2.2c-0.5-0.9-1.1-1.6-1.8-2.3
	C-229.1,14.4-229.3,14.4-229.5,14.3z M-245.5,39.1c0.1,0.1,0.2,0.2,0.3,0.3c0.5-0.5,1-0.9,1.5-1.4c-0.1-0.1-0.2-0.2-0.2-0.3
	C-244.5,38.2-245,38.7-245.5,39.1z M-247,73.6c-0.1-0.1-0.1-0.2-0.2-0.3c-0.5,0.3-1.1,0.6-1.6,1c0.1,0.1,0.1,0.2,0.2,0.3
	C-248,74.2-247.5,73.9-247,73.6z M-240.7,68.7c0.1,0.1,0.1,0.2,0.2,0.3c0.4-0.3,0.8-0.5,1.2-0.8c-0.1-0.1-0.1-0.2-0.2-0.3
	C-239.9,68.2-240.3,68.5-240.7,68.7z M-251.6,54.3c-0.1-0.1-0.1-0.1-0.2-0.2c-0.2,0.3-0.5,0.6-0.7,0.8c0.1,0.1,0.1,0.1,0.2,0.2
	C-252.1,54.9-251.9,54.6-251.6,54.3z M-223.6,18.4c-0.1,0.1-0.2,0.3-0.2,0.4c0.5,0.1,0.9,0.3,1.4,0.4c0-0.1,0-0.1,0.1-0.2
	C-222.9,18.8-223.2,18.6-223.6,18.4z"/>
<path class="st2" d="M-175.8,77.3c-1.2-0.9-2.6-1.6-3.6-2.7c-1.1-1.1-1.9-2.4-2.7-3.7c-0.4-0.7-0.1-1.1,1.4-1.7
	c1.5,1.8,2.8,4,6.1,4.5c-0.5-0.9-0.7-1.5-1-1.9c-1-1.2-2-2.2-3-3.4c-0.8-0.9-1.1-1.7-0.6-3c0.5-1.2,0.4-2.6,0.6-4.1
	c2.1,1.2,1.3,3.2,2.2,4.8c0.1-0.4,0.2-0.7,0.3-1.2c0.7,0.5,1.3,1,2,1.6c0.1-0.1,0.1-0.1,0.2-0.2c-0.8-1.2-1.8-2.2-2.5-3.5
	c-0.7-1.3-2-2.4-1.5-4.3c1.2,1.1,2.3,2,3.4,3c0.1-0.1,0.3-0.2,0.4-0.3c-1.6-2.1-3.5-4-3.7-7.1c0.7-0.1,1.3-0.2,1.9-0.3
	c1.5-0.1,2.6-0.9,3-2.4c0.9-3.8,1.9-7.6,2.5-11.5c0.6-3.6-0.1-4.4-4-4.9c0.7-2.7,1.3-5.4,2-8s0.9-5.3,2.3-7.6c0.2,0,0.4,0.1,0.6,0.1
	c0,1.1,0,2.1,0,3.2c-0.1,4.1,0.5,8.1,1.8,12c0.7,2.1,1.6,4,3.2,5.5c0.5,0.5,0.9,1.2,1.4,1.8c-0.1,0.2-0.2,0.3-0.3,0.5
	c-1-0.3-2.1-0.6-3.1-0.8c-0.5-0.1-1,0.1-1.5,0.2c0.1,0.5,0,1.2,0.3,1.5c0.9,1.1,2,2.1,3.1,3c1.9,1.6,3.9,3.2,6.2,5.1
	c-2,0-3.6,0-5.3,0c-0.2,1.3,0,2.2,1.3,2.8c1,0.5,1.8,1.3,2.7,1.9c0.9,0.7,1.9,1.3,2.9,2c-1.7,1.1-3.6,0.7-5.5,0.1
	c-1.1,1-0.6,1.6,0.2,2.2c1.4,0.9,2.8,1.9,4.1,2.9c0.8,0.5,1.5,1.2,2.6,2c-1.4,0.4-2.5,0.6-3.5,0.9c-0.5,0.1-1.1,0.2-1.6,0.5
	c-1.2,0.7-1.2,1.5,0.1,2.3c2.6,1.4,5.2,2.7,8.2,3.3c0.5,0.1,1,0.3,1.8,0.5c-2.2,2.4-4.4,4.2-7.6,4.3c-1,0.1-2,0.4-3.1,0.4
	c-2.1,0.1-4.2,0.2-6.3-0.5c0.7,0.4,1.5,0.8,2.3,1.2c-0.7,0.2-1.5,0.4-2.2,0.6h0.1c-1.2,0-2.5,0.1-3.7-0.1
	C-172.6,78.3-174.2,77.7-175.8,77.3L-175.8,77.3z M-173.5,59c-1,1-0.4,1.5,0.3,2C-173.3,60.4-173.4,59.9-173.5,59z M-169.8,64.7
	c-0.1,0-0.1,0.1-0.2,0.1c0.2,0.2,0.5,0.4,0.8,0.6l0.1-0.1C-169.3,65.1-169.6,64.9-169.8,64.7z"/>
<path class="st2" d="M-181.6,10.8c0.8-0.6,1.6-1.2,2.3-1.9c3.1-3,6.2-5.9,9.8-8.4c0.3,0.4,0.6,0.7,0.9,1.1c0.7-0.5,1.4-1,2.1-1.4
	c0.1,0.1,0.2,0.2,0.3,0.3c-0.4,0.7-0.8,1.3-1.4,2.3c0.7-0.3,1.2-0.4,1.9-0.7c-0.6,0.9-1.1,1.6-1.6,2.2c0.9,0.5,1.4,0,1.7-0.5
	c0.6-1.1,1.6-1.7,2.7-2.2c1.3-0.6,2.4-1.5,3.6-2.2c-0.6,3.5-4.2,6.6-7.6,6.5c-0.4,0-0.8,0.1-1.2,0.1c-1.7,1.3-3.4,2.6-5.1,3.9
	c-0.1,0.1-0.1,0.4-0.2,0.7c-1.5,0.9-3,1.7-4.5,2.6c-1.2,0.4-2.3,0.8-3.5,1.2c0.5-1,2-1,2-2.4c0.5-0.1,1.1-0.1,1.5-0.3
	c0.7-0.4,1.4-1,2.1-1.5c0.9-1.3,1.8-2.7,2.7-4c0.2-0.2,0-0.7,0-1.5c-1.1,1.9-2,3.3-2.7,4.7c-0.1,0.2,0,0.6,0,0.9
	c-0.5,0.1-1,0.2-1.4,0.4c-0.7,0.4-1.4,0.9-2.1,1.4c-0.1,0.1-0.2,0.3-0.3,0.4c-2.4,0.9-4.7,1.8-6.9,2.7
	C-184.9,13.6-183.2,12.1-181.6,10.8C-181.5,10.7-181.6,10.8-181.6,10.8z"/>
<path class="st2" d="M-168,5.9c0.4,0,0.8-0.1,1.2-0.1c0.9,1.2,1.9,1.3,3,0.4c0.7-0.5,1.3-1.1,2.1-1.5c0.5-0.3,1.1-0.4,1.7-0.6l0,0
	c-0.8,0.7-1.5,1.3-2.2,1.9c1.3,0.3,2.5,0.5,3.7,0.8c0,0.1,0,0.3,0,0.4c-1.3,0.5-2.6,0.9-4.4,1.6c0.9,0,1.3,0,1.8,0
	c-0.2,0.5-2.5,3.5-3.1,4c-1.5,1.1-3.1,2.3-4.7,3.2c-1.7,0.9-3.5,1.4-5.4,1.7c0.8-0.7,1.6-1.5,2.5-2.2c3.4-1.2,5.4-3.9,7.3-6.8
	c0.1-0.2-0.1-0.6-0.4-1.4c-1.3,3.4-3.4,5.4-5.7,7.1c-0.4,0.3-0.7,0.8-1.1,1.2c-1.6,0.6-3.2,1.3-5.3,2.1c1.1-1.9,3.2-2.2,3.5-4.1
	c1-0.8,2-1.6,3-2.3C-169,10.3-168,8.2-168,5.9z"/>
<path class="st2" d="M-175.9,77.3c2,1.7,4.3,2.5,6.8,3c3.1,0.6,6.2,1.4,9.4,0.7c0.2,0,0.4,0.2,0.6,0.4c-3-0.2-5.8,2-9,0.7
	c0.3,0.2,0.6,0.4,0.9,0.5c0.3,0.1,0.5,0.2,0.8,0.7c-0.9,0-1.8,0.1-2.7,0c-1.7-0.2-3.5-0.5-5.2-0.9c-0.9-0.2-2,0-2.2-1.4
	c-0.1-0.3-0.9-0.6-1.4-0.6c-2.9-0.3-5.3-1.5-6.9-4.1c-0.2-0.4-0.7-0.6-1.3-1c0.6-0.9,1.2-1.7,1.8-2.7c1.8,2.6,3.6,5,7,5.4
	c-0.3-0.3-0.5-0.5-0.9-1C-177.2,77.2-176.5,77.3-175.9,77.3C-175.8,77.3-175.9,77.3-175.9,77.3z"/>
<path class="st1" d="M-171.5,38c-0.2,1.3-0.4,2.7-0.7,4.1c-0.3,1.8-0.7,3.5-1.1,5.3c-0.1,0.4-0.1,0.8-0.2,1.2
	c-0.2,1.8-0.7,3.2-3,3.1c-0.4,0-0.9,0.3-1.4,0.4c-0.6-2.8,0-5.4,0.5-8.1c0.2-1.2,0.5-2.3,0.6-3.5C-176.3,37.4-174.8,36.6-171.5,38z"
	/>
<path class="st2" d="M-184.3,8.3c-0.7,0.2-1.5,0.4-2.6,0.7c0.6-0.9,1-1.3,1.3-1.8c0.6-1.2,1.1-2.5,1.8-3.6c0.8-1.2,1.7-2.3,2.7-3.2
	c0.7-0.7,1.8-1,3.1-1.6c-0.7,1.4-0.8,2.6,0.4,3.7c1-2.7,4.1-2.4,5.6-4.3c-0.6,2.5-2.1,4.2-4.1,5.5c-1.3,0.9-2.8,1.5-4.1,2.4
	c-0.7,0.5-1.3,1.1-1.9,1.7C-182.9,7.9-183.6,8.1-184.3,8.3z"/>
<path class="st1" d="M-230.6,36c1.1,5.9,2.1,11.5,3.1,17.2c-1.4,0.2-2.1-0.3-2.4-1.3c-0.8-2.2-1.6-4.5-2.2-6.7
	c-0.4-1.3-0.5-2.7-0.7-4C-233.1,39.2-232.4,37.6-230.6,36z"/>
<path class="st2" d="M-202.2,9.7c-0.2-0.1-0.4-0.2-0.6-0.3c-0.2-0.3-0.3-0.5-0.7-1.1c5.7-0.6,10-3.5,13.7-8.2
	c0.4,2.5,0.2,4.1-1.1,5.4l0.1-0.1c-0.9,0.8-1.9,1.5-2.7,2.4c-0.7,0.8-2.2,0.8-2.2,2.3c-1,0.2-2,0.6-3,0.5
	C-199.9,10.5-201.1,10-202.2,9.7z"/>
<path class="st2" d="M-170.7,11.2c-1,0.8-2,1.6-3,2.3c-2,0.9-4.1,1.8-6.1,2.7c-1.4,0.6-2.8,1.1-4.5,0.6c1-0.9,2-1.7,2.9-2.6
	c0.3,0.1,0.7,0.5,0.8,0.4c0.9-0.5,1.8-1,2.7-1.5c1.5-0.9,3-1.7,4.5-2.6c1.3-0.6,2.4-1.8,4.4-2.2C-169.7,9.5-170.2,10.4-170.7,11.2z"
	/>
<path class="st2" d="M-190.9,5.5C-190.9,5.5-190.9,5.6-190.9,5.5c1.9-0.9,2.5-2.1,2.1-4.8c-0.2-1.3-0.1-2.2,1.1-2.9
	c0.5,0.3,1,0.6,1.7,1c-0.6,1.7-1.2,3.4-1.8,5.2c0.1,0.1,0.3,0.1,0.4,0.2c0.4-0.7,0.8-1.4,1.2-2.2c0.4,0.1,0.8,0.3,1.6,0.5
	c-3.1,2.9-5.7,5.8-9.9,7.4C-193,8.2-191.9,6.8-190.9,5.5z"/>
<path class="st2" d="M-190.2,80.7c2.7,2.9,6.3,3.8,9.8,5.7c-2.4,0.7-4.4,0.7-6.4,0c-0.9-0.3-1.7-0.8-2.6-1.2
	C-192,83.8-192.1,83.4-190.2,80.7z"/>
<path class="st2" d="M-184.3,8.3c0.7-0.2,1.4-0.4,2.1-0.5c0.9-0.4,1.8-0.9,2.7-1.4c0.4,1.3-1.7,1.3-1,2.5c-0.2-0.1-0.5-0.4-0.6-0.3
	c-0.5,0.4-0.9,0.8-1.3,1.2l0.1-0.1c-0.7,0.5-1.3,1-2,1.5l0.1-0.1c-1.8,1-3.6,2-5.4,3c-0.9,0.5-1.8,0.8-3,0.9
	c1.2-1.4,2.4-2.8,3.8-4.1c0.5-0.5,1.4-0.8,2-1.2C-186,9.3-185.2,8.8-184.3,8.3z"/>
<path class="st2" d="M-180.1,84.1c0.7,0.3,1.5,0.5,2.2,0.8c0.8,0.3,1.5,0.8,2.1,1.3c-6,0-9.7-3.1-12-8.5c0.2-0.3,0.6-0.8,0.9-1.2
	c0.2,0,0.4,0,0.5,0.1c0.7,0.6,1.2,1.2,1.2,2.2c0,0.4,0.5,0.9,0.8,1.3C-183.8,82.4-182,83.3-180.1,84.1z"/>
<path class="st2" d="M-180.1,84.1c-1.9-0.8-3.7-1.8-4.3-4c-0.1-0.3-0.1-0.6-0.2-1.2c1.3,0.8,3,1.2,3.2,2c0.4,1.3,1.6,1.7,2,2.9
	C-179.6,84-179.8,84.1-180.1,84.1z"/>
<path class="st2" d="M-173.5,84.2c-2.7,0-4.7-0.7-6.6-2.9c1,0.2,1.7,0.1,2,0.4c1.1,1.1,2.4,1.4,3.8,1.7
	C-174.1,83.3-174,83.6-173.5,84.2z"/>
<path class="st2" d="M-167.3,78.7c1.5,0.9,3.2,0.5,4.8,0.5c0.6,0,1.5-0.4,1.7,0.9c-2.4,0.7-4.5,0-6.9-0.6
	C-167.5,79.2-167.4,78.9-167.3,78.7L-167.3,78.7z"/>
<path class="st2" d="M-180.7,9.1c-0.3,0.6-0.6,1.1-0.9,1.7l0.1-0.1c-1,0.6-2.1,1.2-3.6,2.2c0.4-0.9,0.6-1.3,0.8-1.7l-0.1,0.1
	c0.7-0.5,1.3-1,2-1.5l-0.1,0.1C-181.9,9.6-181.3,9.3-180.7,9.1z"/>
<path d="M-177.8,13.1c-0.9,0.5-1.8,1.1-2.7,1.5c-0.2,0.1-0.5-0.2-0.8-0.4l0,0C-180.2,13.9-179,13.5-177.8,13.1z"/>
<path class="st2" d="M-172.1,85.7c-0.7,0.1-1.3,0.1-2,0.2c0-0.2,0-0.4,0-0.6c0.7,0,1.4-0.1,2.1-0.1
	C-172.1,85.4-172.1,85.6-172.1,85.7z"/>
<path class="st0" d="M-215,3.9c-0.9,0-1.8,0-2.8,0c0-0.1,0-0.2,0-0.3c0.9,0,1.8,0,2.8,0C-215,3.7-215,3.8-215,3.9z"/>
<path class="st0" d="M-209.1,4c0.8,0,1.6,0,2.4,0c0,0.1,0,0.2,0,0.3c-0.8,0-1.6,0-2.4,0C-209.1,4.2-209.1,4.1-209.1,4z"/>
<path d="M-180.7,9.1c-0.6,0.2-1.2,0.5-1.8,0.7c0.4-0.4,0.9-0.9,1.3-1.2c0.1-0.1,0.4,0.2,0.6,0.3C-180.6,8.9-180.7,9-180.7,9.1z"/>
<path class="st0" d="M-231.4,83.3c-0.5,0.4-1,0.8-1.4,1.2c-0.1-0.1-0.1-0.2-0.2-0.2c0.4-0.5,0.9-0.9,1.3-1.4
	C-231.6,83-231.5,83.1-231.4,83.3z"/>
<path class="st2" d="M-158.3,8.4c-0.4,0.3-0.8,0.6-1.1,0.9c-0.1-0.1-0.2-0.2-0.3-0.3c0.4-0.3,0.7-0.7,1.1-1
	C-158.5,8.1-158.4,8.2-158.3,8.4z"/>
<path d="M-183.8,39.4c-1.6,1-3,1.7-4.2,2.5c-2.3,1.6-4.4,0.9-6.4-0.4c-0.2-0.1-0.3-0.3-0.7-0.8c0.9,0,1.5,0.1,2.2,0.1
	c0.1-0.7,0.3-1.4,0.5-2.4c-1.3,0.4-2.4,0.7-3.7,1c-0.3-0.3-0.6-0.8-1.1-1.3c-1.3,2.2-2,4.2-1.7,6.7c0.4,2.9,0.5,5.8,0.8,9.1
	c-0.5-0.5-1-0.7-1.1-1.1c-0.3-1.2-0.4-2.4-0.6-3.5c-0.1-0.6,0-1.3-0.1-1.9c-1.1-4.6,0.9-8.6,2.7-12.6c0.5-1.2,1.6-1.9,3.1-2.7
	c-0.2,0.8-0.4,1.3-0.6,2c0.8,0,1.6,0.1,2.4,0c1-0.2,2-0.6,2.9-1.1c2.3-1.3,4.7-1.3,7.2-1c1.6,0.2,2.6,1.4,3.7,2.8
	c-0.9,0.3-1.6,0.6-2.3,0c-3.8-2.9-7-0.9-10.5,1C-188.8,37.1-186.5,38.2-183.8,39.4z M-188.6,39.2c0,0.6,0,1,0,1.6
	c0.6-0.3,1.1-0.5,2.1-0.8C-187.5,39.7-187.9,39.5-188.6,39.2z"/>
<path d="M-209.4,37.7c-1.3-0.2-2.5-0.4-3.8-0.6c-0.1,0.6-0.2,1.1-0.3,1.7c1,0.1,1.9,0.2,2.9,0.3c-2.2,2.6-7.8,2.3-10.2-0.7
	c1,0.2,1.7,0.3,2.7,0.4c-0.1-0.4-0.2-0.8-0.3-1.1c-3.2,0.6-3.2,0.6-4.7-1.1c0.6-0.2,1.1-0.4,1.6-0.5c1.1-0.3,2.3-0.5,3.4-0.9
	c3.1-1,5.9-0.1,8.6,1.3c0.1,0.1,0.2,0.3,0.2,0.4C-209.4,37.1-209.4,37.2-209.4,37.7z"/>
<path d="M-206.8,35.3c-1,1.2-2,1.1-3.2,0.4c-1.9-1.1-3.8-2.1-5.7-3c-2.6-1.2-5.2-1.9-8.1-0.6c-1,0.5-2.3,0.6-3.3-0.9
	c2-0.5,3.9-1.4,5.7-1.4c2.3,0.1,4.7,0.8,7,1.4c1.6,0.4,3.2,1.1,4.7,1.6C-208.4,33.4-207.4,34.1-206.8,35.3z"/>
<path d="M-199.5,56.8c0.9,0.5,1.5,0.9,2.3,1.3c0.1,0.6-0.1,1.1-0.9,1c-1.1-0.1-2-0.1-3.1,0.6c-0.7,0.5-2-0.1-3,0
	c-1.2,0-1.7-0.7-2.2-1.6c-0.7-1.4-2.2-0.5-3.1-1.2c-0.3-0.8-0.2-1.6,0.7-2s1.3,0.3,1.7,0.9c0.3,0.4,0.6,0.9,1,1.4
	c0.8,0.9,1.5,2.3,3,0.9c0.1-0.1,0.3-0.1,0.4-0.1C-201.3,58.7-200.4,57.7-199.5,56.8z"/>
<path d="M-211.3,66.7c0.3-0.3,0.5-0.8,0.9-0.9c2-0.5,3.8-1.1,5.9-0.1c1.3,0.6,3.1,0.4,4.6,0.4c1.3,0,2.5,0.2,3.6,1.3
	c-0.4,0.2-0.6,0.4-0.9,0.4c-1.6-0.1-3.1-0.3-4.7-0.3c-1.3,0-2.5-0.1-3.7-0.6c-1.1-0.4-2.3-0.3-3.5-0.2c-0.7,0-1.3,0.3-2,0.5
	C-211.1,67-211.2,66.8-211.3,66.7z"/>
<path d="M-201.6,69.6c-2,1.5-3.8,0.5-5.7-0.3C-205.4,68.3-203.5,69.7-201.6,69.6z"/>
<path d="M-242.1,36c3-3.1,4.1-7.6,7-10.7C-237.1,29-238.7,33.2-242.1,36z"/>
<path d="M-255.8,66.6c4.6,1,8.6-0.8,12.8-2.3c-1.8,1.4-4,2-6.2,2.5C-251.4,67.2-253.6,68.1-255.8,66.6z"/>
<path d="M-242.3,45.3c1.7-2.4,3.3-4.8,5-7.2c0-0.1,0.3,0,0.4,0C-237.3,39.9-239.7,43.3-242.3,45.3z"/>
<path d="M-217.1,8.4c-2.2,0.2-4.4,0.4-6.6,0.7c-0.5,0.1-1,0.7-1.4,1.1c-0.3,0.3-0.6,0.6-1.1,1.1c-0.4-1.2,0.4-1.9,0.9-2.1
	C-222.7,8.2-220.1,7.1-217.1,8.4L-217.1,8.4z"/>
<path d="M-217.2,8.5c1.6-0.5,2.8,0.4,4,1.1c1.1,0.7,2.1,1.6,3,2.5C-212.5,10.9-214.8,9.6-217.2,8.5C-217.1,8.4-217.2,8.5-217.2,8.5z
	"/>
<path d="M-245,59.3c1.5-1.2,3.1-2.3,4.6-3.5c0.1,0.1,0.2,0.3,0.3,0.4c-1.5,1.1-3,2.3-4.5,3.4C-244.8,59.6-244.9,59.4-245,59.3z"/>
<path d="M-219.6,15.5c-1.6-0.2-2-1.7-3.6-2.4C-221.8,12.9-220.7,13.8-219.6,15.5z"/>
<path d="M-229.5,14.3c0.2,0.1,0.4,0.1,0.6,0.3c0.7,0.7,1.3,1.4,1.8,2.3c-0.9-0.7-1.8-1.4-2.8-2.2C-229.8,14.6-229.7,14.5-229.5,14.3
	z"/>
<path d="M-249.4,62.7c0.3-1.3,1.4-1.5,2.5-1.8C-247.8,61.5-248.6,62.1-249.4,62.7C-249.5,62.7-249.4,62.7-249.4,62.7z"/>
<path d="M-245.5,39.1c0.5-0.4,1-0.9,1.5-1.3c0.1,0.1,0.2,0.2,0.2,0.3c-0.5,0.5-1,0.9-1.5,1.4C-245.4,39.3-245.5,39.2-245.5,39.1z"/>
<path d="M-249.1,42.4c0.6-0.7,1.1-1.3,1.7-2c0.1,0.2,0.3,0.3,0.4,0.5C-247.7,41.4-248.4,41.9-249.1,42.4L-249.1,42.4z"/>
<path d="M-249.1,42.4c-0.6,0.6-1.2,1.3-1.8,1.9C-250.7,43.3-250.2,42.6-249.1,42.4L-249.1,42.4z"/>
<path d="M-252.1,63.9c0.9-0.4,1.8-0.8,2.7-1.2c0,0-0.1,0,0,0C-250.4,63.1-251.3,63.5-252.1,63.9L-252.1,63.9z"/>
<path d="M-247,73.6c-0.5,0.3-1.1,0.6-1.6,0.9c-0.1-0.1-0.1-0.2-0.2-0.3c0.5-0.3,1.1-0.6,1.6-1C-247.1,73.3-247.1,73.5-247,73.6z"/>
<path d="M-240.7,68.7c0.4-0.3,0.8-0.5,1.2-0.8c0.1,0.1,0.1,0.2,0.2,0.3c-0.4,0.3-0.8,0.5-1.2,0.8C-240.5,68.9-240.6,68.8-240.7,68.7
	z"/>
<path d="M-252.1,63.9c0.1,1.1-0.9,1-1.4,1.4c-0.1-0.1-0.2-0.3-0.3-0.4C-253.2,64.6-252.6,64.3-252.1,63.9L-252.1,63.9z"/>
<path d="M-251.6,54.3c-0.2,0.3-0.5,0.6-0.7,0.9c-0.1-0.1-0.1-0.1-0.2-0.2c0.2-0.3,0.5-0.6,0.7-0.8
	C-251.7,54.2-251.7,54.3-251.6,54.3z"/>
<path d="M-223.6,18.4c0.4,0.2,0.8,0.4,1.2,0.6c0,0.1,0,0.1-0.1,0.2c-0.5-0.1-0.9-0.3-1.4-0.4C-223.8,18.6-223.7,18.5-223.6,18.4z"/>
<path d="M-173.5,59c0.1,0.8,0.2,1.4,0.3,2C-174,60.5-174.5,60-173.5,59z"/>
<path d="M-169.8,64.7c0.2,0.2,0.5,0.4,0.7,0.6l-0.1,0.1c-0.3-0.2-0.5-0.4-0.8-0.6C-169.9,64.8-169.9,64.8-169.8,64.7z"/>
<path class="st2" d="M-170.7,11.2c0.5-0.9,1-1.7,1.8-2.9c-2,0.4-3.1,1.6-4.4,2.2c0.1-0.2,0.1-0.5,0.2-0.7c1.7-1.3,3.4-2.6,5.1-3.9
	C-168,8.2-169,10.3-170.7,11.2z"/>
<path d="M-175.9,10.1c0-0.3-0.2-0.7,0-0.9c0.8-1.4,1.6-2.8,2.7-4.7c0,0.8,0.1,1.3,0,1.5C-174,7.4-175,8.7-175.9,10.1L-175.9,10.1z"
	/>
<path d="M-175.9,10c-0.7,0.5-1.3,1.1-2.1,1.5c-0.4,0.2-1,0.2-1.5,0.3l0,0c0.7-0.5,1.3-1,2.1-1.4C-176.9,10.2-176.3,10.2-175.9,10
	C-175.9,10.1-175.9,10-175.9,10z"/>
<path class="st2" d="M-171.9,15.5c0.4-0.4,0.7-0.9,1.1-1.2c2.3-1.8,4.5-3.7,5.7-7.1c0.2,0.9,0.5,1.3,0.4,1.4
	C-166.5,11.6-168.5,14.3-171.9,15.5L-171.9,15.5z"/>
<path class="st2" d="M-182.4,9.7c-0.7,0.5-1.3,1-2,1.5C-183.7,10.7-183.1,10.2-182.4,9.7z"/>
<path class="st0" d="M-188.6,39.2c0.6,0.2,1.1,0.4,2.1,0.8c-0.9,0.4-1.4,0.6-2.1,0.8C-188.6,40.2-188.6,39.8-188.6,39.2z"/>
<path d="M92.5,5.1c1,1.8,2,3.6,2.9,5.2c0.6-1,1.3-2.2,2.2-3.6c1.3,1.7,2.2,3.5,2.3,5.4c0.1,1.9-0.2,3.7,0,5.6c0.2,2.2,0.4,4.4,1,6.5
	c1.4,5,1.2,10,0.2,15.1c-0.4,2.2-0.8,4.5-1.2,6.7c-0.2,1.1,0.2,1.7,1.4,1.9c2.1,0.4,2.4,0.8,2.2,2.8c-0.1,2.4-0.2,4.7-0.3,7.1
	c-0.1,2.2-0.7,4.2-2.5,5.6c-1.1,0.8-1.5,2-1.5,3.3c0.2,5.4-1.6,10.3-3.6,15.2c-1.7,4.1-3.8,8.1-6,11.9c-0.8,1.4-2.5,2.4-3.8,3.5
	c-4.3,3.7-9.4,5.2-15,4.9c-1.7-0.1-3.4-0.9-5-1.6c-1.5-0.6-2.8-1.6-4.1-2.5c-0.4-0.3-0.8-0.6-1.1-1c-4.2-6.4-8.4-12.8-12.5-19.3
	c-0.8-1.2-1.1-2.7-1.8-4.5c-1.8-0.8-3-2.8-4.6-4.6c-0.3-0.4-0.3-1.1-0.5-1.7c-0.7-2.5-1.4-5-2-7.6c-0.4-1.7-0.9-3.4-1-5.2
	c-0.1-1.9,0.8-2.5,3.1-2.5c-0.6-3.8-1.2-7.6-1.8-11.5c-0.3,0.2-0.5,0.4-1,0.9c-0.3-1.8-0.5-3.5-0.7-5.1c-0.4-2.8,0-5.5,0-8.3
	c0-0.9,0.6-1.2,1.3-1.8c2.1-1.7,4.5-2.5,6.8-3.6c3-1.4,4.6-3.8,5.5-6.9c0.2-0.8,0.4-1.5,0.8-2.8c0.9,1.1,1.5,1.8,2.1,2.5
	c2.7-0.9,3.4-3.2,3.8-5.9c1.8,0.8,0.8,3.5,2.9,3.9c3.9-1.6,5.2-5.5,7.3-8.7c1.9,0.8,1.3,2.1,1.1,3.3c-0.2,1.2-0.5,2.5-0.3,4
	c0.6-0.6,1.3-1.3,2.2-2.2c0.2,1.3,0.4,2.4,0.7,3.9c2.3-3.1,2.5-6.4,2.8-10.2C76,5,76,6.5,76.2,7.9c0.3,1.4,0.4,2.8,1,4.2
	c0-1,0-2,0-3.5c0.7,0.9,1.1,1.3,1.4,1.7c1.7-1.9,1.5-4.3,1.9-6.9C82.3,4.2,83,5.4,83,7c0,1.5,0,3,0.2,4.6c0.3-1.3,0.6-2.6,0.9-3.9
	c0.2,0,0.3,0,0.5,0c0.2,0.8,0.4,1.7,0.6,2.5c0.1,0,0.2,0,0.4,0C85.8,8.6,86,6.9,86.3,5c0.4,0.3,1,0.5,1.2,0.9
	c1.1,1.7,1.7,3.7,1.6,5.8c0,0.8-0.1,1.7-0.1,2.6c0.2-0.1,0.5-0.1,0.5-0.2c0.2-1,0.2-2,0.6-2.9c0.3-0.8,1.2-1.4,1.4-2.2
	c0.3-1.1,0.3-2.4,0.4-3.6C92.1,5.2,92.3,5.1,92.5,5.1z M69.2,26.6c1-0.6,2.1-1.2,3.1-1.7c-0.4,0.7-0.8,1.4-1.3,2.5
	c1.8,0,3.7,0.6,4.9-0.1c4.2-2.4,7-6,7.7-11.4c-1.3,2-2.4,3.7-3.6,5.3c-1.1,1.5-1.8,3.5-4.1,4.5c2.8-4.5,3.9-7.6,3.8-9.7
	c-0.7,0.9-1.5,1.8-2.3,2.7c-0.1-0.3-0.1-0.6-0.2-0.8c0-1.3,0-2.6,0-3.9c-0.2,0.3-0.4,0.6-0.5,0.8c-0.3,1.5-0.5,2.9-0.8,4.4
	c0,0.1-0.1,0.3-0.1,0.4c-1.2,1.8-2.3,3.6-3.5,5.5c0.4-1,0.7-2,1.1-3c0.3-0.8,0.7-1.7,0.9-2.5c0,0-0.4-0.2-0.6-0.3
	c1-2.4,2.2-4.7,2.1-7.1c-1.7,3.2-3.5,6.5-5.3,9.9c-0.6,0.5-1.3,1-1.8,1.6s-0.7,1.4-1.3,1.9c-0.8,0.6-1.7,1-2.6,1.3
	c-0.4,0.1-0.9-0.4-1.5-0.7c1.3-1.6,3.1-2.5,3.5-5c-0.9,1-1.6,1.6-2.2,2.3c-0.6,0.7-1.1,1.4-2.5,1.3c2.2-3.1,3.9-6.1,4.6-9.6
	c-0.4,0.4-0.6,0.9-0.9,1.4c-1.7,3-3.3,6.1-5.3,8.9c-1.1,1.4-2.3,3.1-4.3,3.6c0.2-0.3,0.3-0.6,0.5-0.8c2.4-2.3,4.3-4.9,5.4-8.1
	c0.2-0.5,0.7-0.8,1.1-1.2c0.2-0.2,0.6-0.4,0.6-0.6c0-1.8,1.3-3,2-4.5c0.6-1,1-2.1,1.5-3.2c-2.6,2.9-4.2,6.4-7.1,9.5
	c0-0.9-0.1-1.3-0.1-1.7c1.8-1.1,2.4-3,3.7-5c-1.5,0.8-2.4,1.3-3.5,1.8c-0.1,1.1-0.1,2.2-0.2,3.3c-0.5,1.3-1,2.6-1.6,3.8
	c-0.6,1.1-1.3,2.2-2,3.3h0.1c0.7-1.8,1.4-3.6,2.3-6c-3.4,2.1-5.2,5.1-7.5,7.4c-0.1,0.1-0.2,0.4-0.2,0.4c1.2,1.1-0.2,1.6-0.6,2.1
	c-1,1.1-2.2,2.1-3.3,3.1c2.4,0,4.5-0.3,6-2.9c0.2,0.6,0.4,0.9,0.5,1.3c0.5-0.4,0.9-0.7,1.3-1c0.4-0.3,0.8-0.6,1.2-1
	c-0.1,0.9-0.3,1.7-0.4,2.7c2.8,0,5.4-0.7,7.7-2c1.4-0.8,2.4-2.2,4.3-1.9c0.3,0.1,0.8-0.5,1.2-0.8C69,26.8,69.1,26.7,69.2,26.6z
	 M68.9,20.7c-1.1,1.4-2.1,2.9-3.2,4.3c0.2,0.1,0.3,0.2,0.5,0.4c0.9-1.2,1.9-2.3,2.7-3.5C69,21.6,68.8,21.1,68.9,20.7
	c0.8-1.1,1.6-2.3,2.6-3.4c0.8-0.8,1.3-1.6,1.6-2.9c-1.2,0.6-2.4,0.9-3,1.6c-0.8,1.1-1.3,2.5-1.8,3.8C68.2,20,68.7,20.4,68.9,20.7z
	 M94.1,23.3c-0.5,0.1-0.9,0.2-1.3,0.4c-1.8,0.9-3.5,1.8-5.3,2.7c-0.6,0.3-1.2,0.6-2.1,0.9c2.1,0.8,3.6,0.9,4.8,0
	c1.3-1,2.4-2.2,3.6-3.4c0.1,0.7,0.4,1.1,1.2,0.6c1.9-1.1,2.1-3.1,2.6-5.3C96.2,20.8,95.2,22.1,94.1,23.3z M44.3,35.3
	c0.1,2,0.3,3.8,0.3,5.6s0,3.6,0.4,5.5c0.8,3.9,0.9,7.9,1.7,11.8c1.1,5,1.7,10,1.7,15c0,1.8,0.5,3.2,1.4,4.7
	c2.6,3.9,5.1,7.8,7.5,11.7c1.7,2.8,3.9,5.1,6.2,7.3c1.1,1,2.6,1.8,4.1,2.4c2.6,1.1,5.3,1,8.2,0.6c4.6-0.7,8-3.3,11.5-6
	c0.3-0.2,0.5-0.7,0.7-1c2.7-6.3,6.2-12.2,7.6-19c1.2-5.9,2.3-11.8,1.5-17.8c-0.3-2.2-0.4-4.4-0.4-6.6c0.1-3.3,0.3-6.6,0.5-9.9
	c0.3-3.8-0.9-7.3-1.8-11.1c-1.7,1.4-3,0.7-4.1-0.4c-0.5,0.2-0.8,0.3-1.1,0.4c-2.4,1-4.8,1.5-7.2-0.3c-0.3-0.2-0.8-0.4-1.2-0.3
	c-1.4,0.2-2.9,0.3-4.2,1c-1.7,0.9-3.5,0.9-5.2,0.7c-3.2-0.5-6,0.2-8.7,1.7c-4.3,2.3-4.3,2.5-8.7,2.2c-2.7-0.1-4.7,0.5-6.7,2.2
	c-0.9,0.8-2,1.7-3.9,1.3c0.8-0.6,1.3-0.9,1.9-1.3c0.1,0,0-0.2,0-0.4C45.9,35.2,45.2,35.2,44.3,35.3z M46.5,70.7
	c-1.1-4.2-2.2-8.5-3.2-12.8c-0.4-2-1.6-3-3.6-4c0.3,1.7,0.4,3.1,0.7,4.5c0.5,2.2,1.2,4.4,1.8,6.6C43.1,67.4,44,69.6,46.5,70.7z
	 M102.5,49.3c-0.4-0.1-1.2-0.6-1.7-0.4c-0.8,0.3-1.6,0.8-1.6,2c-0.1,2.8-0.2,5.7-0.3,8.5c0,0.8,0.2,1.6,0.4,2.5
	c2.4-2.1,2.3-2.1,2.4-4.8C101.8,54.6,102.2,52.1,102.5,49.3z M52.2,23.9c2-2,4.6-3.4,5.5-6.3c0.1-0.4,0.2-1,0.5-1.1
	c1.9-0.8,0.7-1.9,0.5-2.9C57.3,17.6,53.9,20.2,52.2,23.9z M85.9,17.9c-2.1,2.8-4.3,5.7-6.3,8.4C82.5,26.2,85.3,23.1,85.9,17.9z
	 M70.5,12c-3.7,2.3-3.6,6.1-5.1,8.9C67.7,18.5,69.4,15.8,70.5,12z M42.7,27.7c1.7-1.2,3.3-2.4,4.3-4.4c-1.7,0.6-3.3,1.3-4.8,2.1
	C40.8,26.2,40.9,26.7,42.7,27.7z M43.8,30.6c0.2,0.2,0.4,0.3,0.5,0.5c2.7-1.7,5.3-3.5,6.5-6.8C48.5,26.4,46.2,28.5,43.8,30.6z
	 M93.8,12.5c-1.7,2.1-2.4,3.9-2.6,6.2C93.7,16.7,93.9,16.2,93.8,12.5z M83.5,19.1c2.2-3.1,3.1-5.6,2.7-8
	C84.1,13.3,84.2,16.1,83.5,19.1z M79.4,20.4c1.5-1.7,2.9-2.9,2-5.2c-0.2-0.5,0.1-1.1,0.2-1.7c0.1-0.9,0.2-1.8,0.2-2.8
	C81.1,13.9,80.3,17,79.4,20.4z M85.4,24c0.2,0.2,0.4,0.3,0.6,0.5c1.5-2,4-3.4,4.4-6.9C88.5,20,87,22,85.4,24z M81,10.4
	c-0.2-0.1-0.4-0.1-0.6-0.2c-1.1,1.9-2.8,3.6-1.9,6.2C79.3,14.5,80.1,12.4,81,10.4z M87.2,7.9c-0.6,0.8-0.8,1.4-0.3,2.2
	c0.4,0.6,0.6,1.3,0.7,2.1c0.1,0.7,0,1.5,0,2.2C88.1,12.3,88.4,10.2,87.2,7.9z M91.5,13.3c0.2,0.1,0.3,0.1,0.5,0.2
	c0.5-1.1,1.1-2.2,1.6-3.3c0.3-0.7-0.1-1.2-1-1.5C92.2,10.3,91.9,11.8,91.5,13.3z M97.2,13.8c-1.8,1.2-2,2-1.6,4.5
	C96.2,16.6,96.7,15.2,97.2,13.8z M87,17.6c-0.4,1.2-0.7,2.2-1,3.2c0.1,0.1,0.2,0.1,0.4,0.2c0.7-1,1.4-1.9,2.2-3
	C87.8,17.8,87.5,17.7,87,17.6z M42.9,38c0.3-2.8,0.3-2.8-0.6-4.2C42.5,35.4,42.7,36.7,42.9,38z M97.2,16.5c1-1.1,1.4-2.3,0.8-3.7
	C97.7,14,97.5,15.2,97.2,16.5z M98,35.7c0.3,0,0.6,0,0.8,0c-0.2-1-0.4-2-0.6-3c-0.2,0-0.3,0.1-0.5,0.1C97.8,33.8,97.9,34.7,98,35.7z
	 M53.7,17.6c-0.2-0.1-0.3-0.2-0.5-0.4c-0.5,1-1,1.9-1.7,3.3C53.4,19.8,53.6,18.7,53.7,17.6z M40.5,33.6c-0.2,0-0.3,0-0.5,0.1
	c0.1,1.1,0.2,2.1,0.3,3.2c0.1,0,0.1,0,0.2,0C40.5,35.7,40.5,34.6,40.5,33.6z M93.5,19.7c-0.2-0.1-0.3-0.2-0.5-0.3
	c-0.3,0.6-0.6,1.2-0.8,1.7c0.1,0.1,0.2,0.1,0.3,0.2C92.8,20.7,93.2,20.2,93.5,19.7z M91.5,20.7c-0.2-0.1-0.3-0.3-0.5-0.4
	c-0.3,0.4-0.6,0.7-0.8,1C90.6,21.1,91.1,20.9,91.5,20.7z M97.9,27.5c0.1,0,0.2,0,0.2-0.1c-0.1-0.5-0.2-0.9-0.4-1.4
	c-0.1,0-0.2,0.1-0.3,0.1C97.6,26.6,97.8,27.1,97.9,27.5z"/>
<path class="st1" d="M44.3,35.3c0.9-0.1,1.6-0.1,2.3-0.2c0,0.2,0.1,0.4,0,0.4c-0.5,0.4-1.1,0.8-1.9,1.3c1.8,0.5,3-0.5,3.9-1.3
	c2-1.8,4-2.4,6.7-2.2c4.4,0.2,4.5,0,8.7-2.2c2.8-1.5,5.6-2.2,8.7-1.7c1.7,0.3,3.5,0.2,5.2-0.7c1.2-0.7,2.7-0.7,4.2-1
	c0.4-0.1,0.9,0.1,1.2,0.3c2.3,1.9,4.7,1.3,7.2,0.3c0.3-0.1,0.6-0.3,1.1-0.4c1.1,1,2.4,1.8,4.1,0.4c0.9,3.8,2.1,7.3,1.8,11.1
	C97.3,42.7,97,46,97,49.3c0,2.2,0.1,4.4,0.4,6.6c0.8,6.1-0.3,11.9-1.5,17.8c-1.4,6.8-4.9,12.8-7.6,19c-0.2,0.4-0.4,0.8-0.7,1
	c-3.5,2.7-6.9,5.3-11.5,6c-2.8,0.4-5.5,0.5-8.2-0.6c-1.5-0.6-3-1.3-4.1-2.4c-2.4-2.2-4.5-4.5-6.2-7.3c-2.4-4-4.9-7.9-7.5-11.7
	c-1-1.5-1.4-2.9-1.4-4.7c0-5.1-0.6-10.1-1.7-15c-0.8-3.9-0.9-7.9-1.7-11.8c-0.4-1.9-0.5-3.6-0.4-5.5C44.6,39.1,44.4,37.3,44.3,35.3z
	 M80.4,72.3c-4.2-1.7-7.1-2.1-8.5-1.3c0.5,0.6,1,1.1,1.3,1.4c1.3,0.3,2.4,0.7,3.4,0.8C77.9,73.2,79.5,74,80.4,72.3
	c0.8-0.6,1.7-1.1,2.5-1.6C81.3,70.1,80.6,70.8,80.4,72.3z M86.5,82.4c0.4-0.3,0.7-0.6,1.1-0.9c-1-0.5-1.9-0.9-2.8-1.4
	c-2-1.1-3.9-1.5-5.8,0.2c-0.3,0.3-0.7,0.4-1,0.6c-0.8-0.4-1.4-0.8-2.1-1.2c-1.3-0.7-2.3-0.6-3.5,0.4c-0.6,0.5-1.1,1.1-1.4,1.8
	c-0.6,1.2-1.4,1.8-2.6,2.2c-0.5,0.1-0.9,0.4-1.3,0.7c0.7,0.4,1.5,0.6,2,0.3c1.9-0.9,3.4-0.7,4.7,1c0.2,0.2,0.4,0.3,0.6,0.5
	c2.4,2,5.7,2,8-0.1C83.8,85.1,85.2,83.7,86.5,82.4L86.5,82.4z M75.4,51.2c1.4,1.4,1.3,1.4,1.4,3.2c0.1,1.9,0.1,3.7,0.4,5.5
	c0.5,2.6,1.3,5.2,1.9,7.9c2.1-0.6,2.2-0.6,1.4-2.4c-0.2-0.5-0.5-0.9-0.7-1.4c-1.2-3.3-1.5-6.7-1-10.1c1.9,0.3,3.7,0.9,5.3,0.7
	c1.7-0.3,3.4-1.1,4.6-2.6c-0.7,0.2-1.5,0.3-2.4,0.5c0-0.9,0.1-1.5,0.1-2.3c1,0,1.9,0,2.8,0c-0.7-0.8-1.5-1.2-2.3-1.4
	c-0.9-0.2-2,0.2-2.9-0.4c3-3.5,3.7-3.7,9.8-3.3c-0.4-0.5-0.7-0.9-1-1.1c-2.3-1.1-4.6-1.1-6.7,0.3C82.6,46.6,79.1,48.9,75.4,51.2z
	 M60.9,51.7c-3.4,0.5-6.3,1-8.6,3.4c4.6,3.2,10.3,3.3,11.7,0.2c-1,0.3-1.9,0.5-3.2,0.8c0.4-1,0.7-1.7,0.9-2.3c2.5,0.1,5,1.8,7.6-0.3
	c-0.6-0.5-1-1.1-1.6-1.3c-1.8-0.8-3.5-1.6-5.3-2.3c-2.8-1-5.6-1.9-8.4-2.6c-2.5-0.6-3.9,0.3-4.9,2.9c0.1,0.1,0.3,0.2,0.4,0.2
	c0.4-0.2,0.8-0.5,1.2-0.8c1.1-0.9,2.3-1.5,3.7-0.8C56.5,49.5,58.5,50.6,60.9,51.7z M65.2,41.7c0,0.2-0.1,0.3-0.1,0.5
	c1,0.1,2.1,0.4,3.1,0.3c2.6-0.2,5.2-0.6,7.8-1.1c0.9-0.2,1.7-0.8,2.5-1.2C74,41.2,69.6,41.7,65.2,41.7z M61.4,59
	c-1.4,0.1-2.8,0.2-4.1,0.3C58.7,60.2,60,59.9,61.4,59z"/>
<path class="st0" d="M56,28.9c-0.4,0.3-0.8,0.6-1.2,1c-0.4,0.3-0.8,0.6-1.3,1c-0.1-0.4-0.3-0.7-0.5-1.3c-1.5,2.6-3.6,2.9-6,2.9
	c1.1-1,2.3-2,3.3-3.1c0.5-0.5,1.8-1,0.6-2.1c0,0,0.1-0.3,0.2-0.4c2.4-2.3,4.1-5.3,7.5-7.4c-0.9,2.3-1.6,4.2-2.3,6
	c-0.8,0.7-1.6,1.4-2.4,2c1.3-0.2,2.2-0.7,2.3-2.1c0.7-1.1,1.4-2.1,2-3.3c0.6-1.2,1.1-2.5,1.6-3.8h-0.1c0,0.4,0,0.8,0.1,1.7
	c2.9-3.1,4.5-6.6,7.1-9.5c-0.5,1.1-1,2.1-1.5,3.2c-0.8,1.4-2,2.7-2,4.5c0,0.2-0.4,0.4-0.6,0.6c-0.4,0.4-0.9,0.8-1.1,1.2
	c-1.1,3.2-3,5.8-5.4,8.1C56.3,28.3,56.2,28.7,56,28.9L56,28.9z"/>
<path class="st0" d="M68.9,26.9c-0.4,0.3-0.8,0.8-1.2,0.8c-1.9-0.4-3,1.1-4.3,1.9c-2.4,1.4-5,2-7.7,2c0.1-1,0.3-1.8,0.4-2.7L56,29
	c2-0.5,3.2-2.1,4.3-3.6c2-2.8,3.6-5.9,5.3-8.9c0.3-0.5,0.5-1,0.9-1.4c-0.7,3.5-2.4,6.5-4.6,9.6c1.4,0.1,1.9-0.6,2.5-1.3
	c0.6-0.7,1.3-1.4,2.2-2.3c-0.3,2.5-2.2,3.4-3.5,5c0.6,0.3,1.1,0.8,1.5,0.7c0.9-0.3,1.9-0.7,2.6-1.3c0.6-0.4,0.8-1.3,1.3-1.9
	s1.2-1.1,1.8-1.6c0.1,0.2,0.3,0.4,0.4,0.5c-0.4,0.5-0.7,1.1-1.1,1.4c-1,0.7-1.8,1.5-1.9,3C68.2,26.9,68.5,26.9,68.9,26.9z"/>
<path class="st0" d="M72.2,25c1.2-1.8,2.3-3.6,3.5-5.5c-0.5,1.3-0.8,2.5-1.4,3.7c-0.5,1.1-1.2,2.1-1.9,3.2c2.4-1.4,4.7-5.4,4.8-7.8
	c0.8-0.9,1.6-1.9,2.3-2.7c0.1,2.1-1,5.2-3.8,9.7c2.3-1,2.9-3,4.1-4.5c1.2-1.6,2.2-3.3,3.6-5.3c-0.6,5.4-3.4,9-7.7,11.4
	c-1.2,0.7-3,0.1-4.9,0.1C71.5,26.3,71.9,25.6,72.2,25C72.3,24.9,72.2,25,72.2,25z"/>
<path class="st1" d="M46.5,70.7c-2.6-1.1-3.5-3.3-4.1-5.7c-0.6-2.2-1.3-4.4-1.8-6.6c-0.3-1.4-0.5-2.8-0.7-4.5c1.9,1,3.1,2,3.6,4
	C44.3,62.3,45.5,66.5,46.5,70.7z"/>
<path class="st1" d="M102.5,49.3c-0.3,2.9-0.7,5.3-0.8,7.8c-0.1,2.7-0.1,2.7-2.4,4.8c-0.1-0.9-0.4-1.7-0.4-2.5
	c0.1-2.8,0.2-5.7,0.3-8.5c0-1.2,0.8-1.7,1.6-2C101.3,48.7,102.1,49.2,102.5,49.3z"/>
<path class="st0" d="M52.2,23.9c1.7-3.7,5.1-6.3,6.5-10.3c0.2,1,1.4,2.1-0.5,2.9c-0.3,0.1-0.3,0.7-0.5,1.1
	C56.8,20.5,54.2,22,52.2,23.9z"/>
<path class="st0" d="M85.9,17.9c-0.6,5.2-3.3,8.3-6.3,8.4C81.6,23.6,83.7,20.7,85.9,17.9z"/>
<path class="st0" d="M93.8,24c-1.2,1.1-2.3,2.4-3.6,3.4c-1.2,0.9-2.7,0.8-4.8,0c0.8-0.4,1.5-0.6,2.1-0.9c1.8-0.9,3.5-1.8,5.3-2.7
	c0.4-0.2,0.9-0.3,1.3-0.4C94,23.6,93.9,23.8,93.8,24z"/>
<path class="st0" d="M70.5,12c-1,3.8-2.8,6.5-5.1,8.9C66.9,18.1,66.8,14.3,70.5,12z"/>
<path d="M77.3,18.7c-0.1,2.4-2.4,6.4-4.8,7.8c0.6-1.1,1.4-2.1,1.9-3.2c0.6-1.2,0.9-2.5,1.4-3.7c0-0.1,0.1-0.3,0.1-0.4
	c0.4-0.4,0.9-0.9,1.3-1.3C77.1,18.1,77.2,18.4,77.3,18.7z"/>
<path class="st0" d="M70.8,22.5c-0.1-0.2-0.3-0.4-0.4-0.5c1.8-3.3,3.6-6.7,5.3-9.9c0.1,2.5-1.1,4.8-2.1,7.1
	c-0.1,0.2-0.2,0.4-0.3,0.6C72.4,20.7,71.6,21.6,70.8,22.5z"/>
<path class="st0" d="M42.7,27.7c-1.8-1-1.9-1.5-0.5-2.3c1.5-0.8,3.1-1.5,4.8-2.1C46,25.3,44.3,26.5,42.7,27.7z"/>
<path class="st0" d="M43.8,30.6c2.3-2.1,4.7-4.2,7-6.3c-1.2,3.3-3.8,5-6.5,6.8C44.2,31,44,30.8,43.8,30.6z"/>
<path class="st0" d="M68.9,20.7c-0.2-0.3-0.7-0.6-0.6-0.8c0.5-1.3,1-2.7,1.8-3.8c0.6-0.7,1.8-1,3-1.6c-0.3,1.3-0.8,2.1-1.6,2.9
	C70.5,18.3,69.7,19.6,68.9,20.7L68.9,20.7z"/>
<path d="M70.8,22.5c0.8-0.9,1.7-1.7,2.5-2.6c-1.4,2.3-2.7,4.5-4.1,6.8c-0.1,0.1-0.2,0.2-0.3,0.2c-0.3,0-0.6,0-1.1,0
	c0.1-1.5,0.9-2.3,1.9-3C70.1,23.5,70.4,22.9,70.8,22.5z"/>
<path class="st0" d="M69.2,26.6c1.4-2.3,2.7-4.5,4.1-6.8c0.1-0.2,0.2-0.4,0.3-0.6c0.2,0.1,0.6,0.3,0.6,0.3c-0.3,0.8-0.6,1.7-0.9,2.5
	c-0.4,1-0.7,2-1.1,3l0.1-0.1C71.2,25.5,70.2,26.1,69.2,26.6z"/>
<path class="st0" d="M79.4,20.4c0.9-3.5,1.6-6.5,2.4-9.7c-0.1,1-0.1,1.9-0.2,2.8c-0.1,0.6-0.4,1.2-0.2,1.7
	C82.3,17.5,80.9,18.7,79.4,20.4z"/>
<path class="st0" d="M93.8,24c0.1-0.2,0.2-0.4,0.3-0.7c1.1-1.2,2.1-2.5,3.5-4.1c-0.6,2.3-0.7,4.2-2.6,5.3
	C94.2,25.1,93.9,24.7,93.8,24z"/>
<path class="st0" d="M85.4,24c1.5-2,3.1-4,5-6.4c-0.4,3.5-2.8,4.9-4.4,6.9C85.8,24.3,85.6,24.2,85.4,24z"/>
<path class="st0" d="M87,17.6c0.5,0.1,0.9,0.2,1.6,0.4c-0.8,1.1-1.5,2.1-2.2,3c-0.1-0.1-0.2-0.1-0.4-0.2
	C86.3,19.8,86.6,18.8,87,17.6z"/>
<path class="st0" d="M68.8,20.7c0,0.4,0.2,0.8,0,1.1c-0.9,1.2-1.8,2.4-2.7,3.5c-0.2-0.1-0.3-0.2-0.5-0.4
	C66.7,23.5,67.8,22.1,68.8,20.7C68.9,20.7,68.8,20.7,68.8,20.7z"/>
<path class="st0" d="M42.9,38c-0.2-1.3-0.4-2.6-0.6-4.2C43.2,35.3,43.2,35.3,42.9,38z"/>
<path class="st0" d="M98,35.7c-0.1-1-0.2-1.9-0.3-2.9c0.2,0,0.3-0.1,0.5-0.1c0.2,1,0.4,2,0.6,3C98.6,35.7,98.3,35.7,98,35.7z"/>
<path class="st0" d="M53.7,17.6c-0.1,1.1-0.4,2.2-2.2,3c0.7-1.4,1.2-2.4,1.7-3.3C53.4,17.3,53.6,17.5,53.7,17.6z"/>
<path class="st0" d="M41.5,32.6c0,1.1,0,2.1,0,3.2c-0.1,0-0.1,0-0.2,0c-0.1-1.1-0.2-2.1-0.3-3.2C41.2,32.6,41.4,32.6,41.5,32.6z"/>
<path class="st0" d="M93.5,19.7c-0.3,0.5-0.7,1.1-1,1.6c-0.1-0.1-0.2-0.1-0.3-0.2c0.3-0.6,0.6-1.2,0.8-1.7
	C93.2,19.5,93.3,19.6,93.5,19.7z"/>
<path class="st0" d="M91.5,20.7c-0.4,0.2-0.9,0.4-1.3,0.6c0.2-0.3,0.5-0.7,0.8-1C91.2,20.4,91.4,20.5,91.5,20.7z"/>
<path class="st0" d="M97.9,27.5c-0.2-0.5-0.3-0.9-0.5-1.4c0.1,0,0.2-0.1,0.3-0.1c0.1,0.5,0.2,0.9,0.4,1.4
	C98.1,27.5,98,27.5,97.9,27.5z"/>
<path d="M75.4,51.2c3.7-2.4,7.2-4.7,10.7-6.9c2.2-1.4,4.5-1.4,6.7-0.3c0.4,0.2,0.6,0.7,1,1.1c-6.1-0.4-6.8-0.2-9.8,3.3
	c0.9,0.7,1.9,0.2,2.9,0.4c0.8,0.2,1.6,0.6,2.3,1.4c-0.9,0-1.7,0-2.8,0c0,0.8-0.1,1.4-0.1,2.3c0.9-0.2,1.6-0.4,2.4-0.5
	c-1.2,1.6-3,2.4-4.6,2.6c-1.6,0.3-3.4-0.4-5.3-0.7c-0.5,3.4-0.2,6.8,1,10.1c0.2,0.5,0.4,0.9,0.7,1.4c0.8,1.8,0.8,1.8-1.4,2.4
	c-0.7-2.6-1.4-5.2-1.9-7.9c-0.3-1.8-0.3-3.7-0.4-5.5C76.7,52.7,76.8,52.7,75.4,51.2z M81.7,51.2c-0.7,0.5-1.3,0.9-2.3,1.7
	c1.5,0.3,2.5,0.4,3.9,0.7C82.6,52.6,82.2,51.9,81.7,51.2z"/>
<path d="M60.9,51.7c-2.4-1.2-4.4-2.2-6.4-3.1c-1.4-0.7-2.6,0-3.7,0.8c-0.4,0.3-0.8,0.6-1.2,0.8c-0.1,0-0.3-0.1-0.4-0.2
	c1.1-2.6,2.4-3.5,4.9-2.9c2.9,0.7,5.7,1.7,8.4,2.6c1.8,0.6,3.6,1.4,5.3,2.3c0.6,0.3,1,0.8,1.6,1.3c-2.6,2.1-5,0.4-7.6,0.3
	c-0.2,0.6-0.5,1.3-0.9,2.3c1.2-0.3,2.2-0.5,3.2-0.8c-1.5,3.2-7.2,3.1-11.7-0.2C54.6,52.8,57.5,52.2,60.9,51.7z M54.9,55.3
	c0.9,0.2,1.4,0.4,2,0.5C56.6,54.3,56.6,54.3,54.9,55.3z"/>
<path d="M86.5,82.4c-1.4,1.3-2.7,2.7-4.1,4c-2.3,2.1-5.7,2.1-8,0.1c-0.2-0.2-0.4-0.3-0.6-0.5c-1.3-1.7-2.8-1.9-4.7-1
	c-0.5,0.3-1.3,0-2-0.3c0.4-0.2,0.9-0.5,1.3-0.7c1.2-0.3,2.1-1,2.6-2.2c0.3-0.7,0.9-1.3,1.4-1.8c1.1-1,2.2-1.1,3.5-0.4
	c0.7,0.4,1.3,0.7,2.1,1.2c0.3-0.2,0.7-0.3,1-0.6c1.9-1.7,3.8-1.4,5.8-0.2c0.8,0.5,1.7,0.9,2.8,1.4C87.2,81.8,86.9,82.1,86.5,82.4
	c-0.8-1.5-2.5-1.8-3.8-2.6c-0.2-0.1-0.6,0.1-0.9,0.3c-0.9,0.4-1.8,0.8-2.6,1.4c-0.7,0.5-1.4,0.5-2.1,0.1c-0.5-0.3-1-0.6-1.5-0.9
	c-1.4-0.7-1.8-0.5-2.7,1c1.2,0.2,2.4,0.6,3.6,0.7c1.8,0,3.8,1,5.5-0.8c0.6-0.6,1.6-0.6,2.7,0.2c-0.8,0.2-1.6,0.1-1.9,0.5
	c-1.8,2.7-4.2,2.5-6.9,1.5c-0.9-0.4-1.9-0.7-3,0.3c1.8,1.7,3.5,3.1,6.2,2.7c2-0.3,3.3-1.7,4.7-2.8C84.6,83.2,85.3,82.3,86.5,82.4z"
	/>
<path d="M80.4,72.2c-0.9,1.8-2.5,1-3.8,0.9c-1.1,0-2.1-0.5-3.4-0.8c-0.3-0.3-0.8-0.8-1.3-1.4C73.3,70.1,76.3,70.6,80.4,72.2
	L80.4,72.2z"/>
<path d="M65.2,41.7c4.4,0,8.8-0.5,13.3-1.4c-0.8,0.4-1.6,1-2.5,1.2c-2.6,0.5-5.2,0.8-7.8,1.1c-1,0.1-2.1-0.2-3.1-0.3
	C65.1,42,65.1,41.9,65.2,41.7z"/>
<path d="M61.4,59c-1.3,0.9-2.7,1.2-4.1,0.3C58.6,59.2,60,59.1,61.4,59z"/>
<path d="M80.4,72.3c0.1-1.5,0.9-2.1,2.5-1.6C82.1,71.2,81.2,71.7,80.4,72.3L80.4,72.3z"/>
<path d="M56.5,25.4c-0.1,1.4-1,1.9-2.3,2.1C54.9,26.8,55.7,26.1,56.5,25.4L56.5,25.4z"/>
<path class="st0" d="M81.7,51.2c0.5,0.7,0.9,1.3,1.6,2.4c-1.4-0.2-2.4-0.4-3.9-0.7C80.5,52.2,81.1,51.7,81.7,51.2z"/>
<path class="st0" d="M54.9,55.3c1.7-1,1.7-1,2,0.5C56.3,55.6,55.7,55.5,54.9,55.3z"/>
<path class="st1" d="M86.5,82.4c-1.3-0.1-1.9,0.8-2.8,1.5c-1.4,1.2-2.6,2.5-4.7,2.8c-2.7,0.4-4.4-1-6.2-2.7c1.1-0.9,2.1-0.6,3-0.3
	c2.6,1,5,1.2,6.9-1.5c0.2-0.3,1-0.3,1.9-0.5c-1-0.8-2.1-0.8-2.7-0.2c-1.7,1.8-3.6,0.8-5.5,0.8c-1.2,0-2.4-0.4-3.6-0.7
	c0.9-1.6,1.3-1.7,2.7-1c0.5,0.3,1,0.6,1.5,0.9c0.7,0.5,1.4,0.4,2.1-0.1c0.8-0.5,1.7-0.9,2.6-1.4c0.3-0.1,0.7-0.4,0.9-0.3
	C84.1,80.5,85.7,80.8,86.5,82.4L86.5,82.4z"/>
</svg>
