<?xml version="1.0" encoding="utf-8"?>
<!-- Generator: Adobe Illustrator 19.2.0, SVG Export Plug-In . SVG Version: 6.00 Build 0)  -->
<svg version="1.1" id="Layer_1" xmlns="http://www.w3.org/2000/svg" xmlns:xlink="http://www.w3.org/1999/xlink" x="0px" y="0px"
	 viewBox="0 0 390 607.5" style="enable-background:new 0 0 390 607.5;" xml:space="preserve">
<style type="text/css">
	.st0{fill:#D91F5D;}
	.st1{fill:#EE2E7C;}
	.st2{fill:#FEE5D2;}
	.st3{fill:#BE202E;}
	.st4{fill:#FFFFFF;}
	.st5{fill:#010101;}
</style>
<path d="M41.1,150.3c-1.4-0.6-2.6-1.1-3.6-1.7c-0.8-0.5-1.5-1.1-2.2-1.8c-1.7-1.8-3.2-3.7-4.9-5.6c-1.5-1.7-3-3.3-4.4-5
	c-0.9-1-1.8-2-2.7-3.1c-1.4-1.9-2.6-3.8-1.7-6.6c1.1,0.1,2.2,0.1,3.4,0.2c-1-1.3-1.9-2.5-2.7-3.7c-1.4-2-1.7-4.1-0.8-6.4
	c0.4-1.1,1.2-1.4,2.3-1.1c3.6,1,6.5,3.1,8.6,6.1c2.9,4.1,6.7,7.1,11.3,9.4c-0.7-0.9-1.5-1.9-2.2-2.8c-2-2.2-4-4.3-5.9-6.6
	c-1.6-2-3.3-4.1-4-6.7c-0.3-1.1-0.1-2,0.7-2.8c0.8-0.7,1.7-0.5,2.5-0.1c1.5,0.9,3,1.8,4.2,3.1c3.7,3.7,7.1,7.8,10.9,11.4
	c4.6,4.4,9.6,8.2,15.3,10.9c0.4,0.2,0.9,0.2,1.4,0.4c1-2.1,0.9-4.3,0.3-6.4c-0.5-1.5-1-3-1.5-4.6c-0.3-1.1-0.5-2.3-0.7-3.5
	c-0.4-2.2,0.9-3.4,2.5-4.6c1-0.8,1.9-0.1,2.5,0.5c0.8,0.8,1.4,1.7,1.9,2.7c1.4,2.9,2.8,5.9,4.2,8.9c0.9,1.8,1.9,3.5,4.4,3.4
	c0.4,0,1,0.8,1.3,1.4c1.1,2.6,2.2,5.3,3.2,8c1.7,4.3,4.5,7.5,8.2,10.2c6.9,5.1,13.6,10.6,20.4,15.9c5.4,4.2,10.9,8.1,17,11.1
	c1.8,0.9,3.4,2.1,5,3.2c3.4,2.3,6.7,4.6,10.1,6.9c0.6,0.4,1.3,0.5,2.2,0.9c2.6-2.8,5.1-5.6,7.6-8.4c1.7-1.9,3.6-3.6,5.2-5.6
	c1.2-1.4,2.1-3,3.2-4.4c4.4-5.4,8.9-10.7,13.3-16c2-2.4,4.1-4.9,6.2-7.2c3.2-3.5,6.4-7.1,9.9-10.4c3.9-3.7,8.6-6.6,13.1-9.5
	c0.3-0.2,0.6-0.2,0.9-0.4c3.9-3.1,8.6-3.9,13.3-4.8c5.7-1.1,11.4-2.3,17.1-3.4c3.8-0.7,7.7-1.4,11.6-2.1c2.6-3.6,3.3-7.9,4-12.1
	c0.3-2,0.9-4.1,0.5-5.9c-0.4-1.7-2.1-3.1-3.1-4.7c-2.7-4.2-5.4-8.4-8-12.7c-0.7-1.1-1-2.5-1.6-4.2c-2.2-1.6-4.7-3.4-5.1-7
	c-0.2-1.9-1-3.7-1.5-5.5c-0.4-1.5-1-3.1-1.1-4.6c-0.2-2,0.6-2.8,2.8-3.3c-0.4-2.4-0.7-4.8-1.1-7.3c0-0.3-0.1-0.7-0.3-0.9
	c-2.4-3.1-1.8-6.8-2-10.3c-0.1-0.8,0.2-1.6,0.1-2.4c-0.5-2.8,1.5-3.7,3.3-4.7c1.4-0.8,2.9-1.4,4.3-2c2.9-1.2,4.4-3.5,5.2-6.5
	c0.2-0.7,0.5-1.5,0.9-2.8c0.9,1.1,1.4,1.8,2,2.6c2.2-1.1,3.4-2.9,3.4-5.7c1.3,0.7,1.2,1.8,1.6,2.6c0.6,1.2,1.1,1.4,2.2,0.7
	c2.3-1.3,3.4-3.5,4.7-5.6c0.4-0.7,0.9-1.4,1.4-2.3c1.7,1.1,1,2.4,0.9,3.6c-0.1,1.2-0.5,2.3-0.8,3.5c0.2,0.1,0.4,0.3,0.6,0.4
	c0.6-0.8,1.3-1.5,2.1-2.5c0.2,1.1,0.3,2.1,0.5,3.1c1.8-1,2.5-3.1,2.7-8.5c1.1,1.1,1.4,2.1,1.9,8.3c1.2-0.9,0.2-2.2,0.6-3.5
	c0.4,0.5,0.8,0.9,1.1,1.3c2-1.7,1.4-4.2,1.9-6.6c3.7,2.4,2,5.7,2.4,8.7c0.3-1.5,0.7-3,1.1-5c0.5,1.2,0.8,1.8,1.2,2.7
	c0.3-1.1,0.5-1.8,0.6-2.6c0.1-0.6-0.2-1.3-0.3-2.1c2.6,1.4,3.3,3.9,2.8,9.6c0.1,0,0.3,0,0.3-0.1c0.3-1.2,0.4-2.4,0.8-3.5
	c0.3-0.9,1.1-1.7,1.4-2.6c0.3-1,0.3-2.1,0.9-3.3c0.9,1.6,1.8,3.2,2.7,4.8c0.6-0.9,1.3-1.9,2-3.2c1.6,1.7,2.2,3.6,2.3,5.7
	c0.1,1,0.2,2,0,2.9c-0.5,2.4,0,4.8,0.7,7.1c1.8,5.6,1.1,11.2,0.1,16.8c-0.3,1.5-0.6,3-0.8,4.5c-0.2,1.3-0.1,1.6,1.4,1.8
	c1.8,0.3,2.1,0.8,2,2.6c-0.1,2.3-0.3,4.6-0.4,6.9c0,2.1-0.7,3.9-2.4,5.2c-1.1,0.8-1.4,1.9-1.4,3.2c0.3,4-1.2,7.7-2.2,11.5
	c-0.2,0.9-0.7,1.8-1.3,2.5c-2.3,2.6-2.7,5.7-2.5,8.9c0.1,2.6,0.3,5.1,0.6,7.6c0.1,1.2,0.6,2.5,1,3.7c0.5,1.7,1.3,2.9,3.4,2.5
	c0.2,0,0.3,0,0.5,0c4.2,1.6,8.1-0.1,12.2-0.8c3.8-0.7,7.7-1.5,11.5-2.1c3.1-0.5,6.3-0.8,9.5-1.5c5.4-1.2,10.2,0.1,14.7,3.1
	c4.1,2.7,7.2,6.5,10.6,10c4.6,4.8,8.5,10.2,11.5,16.1c2.3,4.6,5.1,8.8,7.8,13.1c3,4.8,5.9,9.6,9,14.4c1.5,2.3,3.3,4.5,5,6.7
	c3.5,4.4,6,9.4,7.6,14.8c0.7,2.4,1.7,4.6,2.3,7c0.5,2.1,0.7,4.2,0.9,6.4c0.4,3.8-0.4,7.5-1.4,11.1c-0.5,1.6-1.9,3.1-3.2,4.4
	c-3.7,3.7-7.5,7.2-11.2,10.9c-4.1,4.1-8.3,8.2-12.3,12.4c-4.7,4.9-9.3,9.9-14,14.8c-4.3,4.5-8.8,8.8-13.1,13.3c-1.8,1.9-3.1,4.2-5,6
	c-1.9,1.7-2.9,4-4.5,5.9c-0.6,0.7-1,1.6-1.5,2.4c-0.8,1.3-1.5,2.7-2.5,3.7c-1.2,1.2-1.4,2.4-1,3.9c1.1,4.6,2.1,9.2,3.3,13.7
	c2.1,7.8,4.5,15.6,6.6,23.5c1,3.8,1.7,7.6,2.8,11.4c2.8,9.1,4,18.6,6.2,27.8c1.7,7.1,3.8,14,6,20.9c2.1,6.5,4.9,12.6,7.1,19
	c2,5.9,4.2,11.7,5.9,17.6c1.3,4.4,2.2,9,3.1,13.5c0.9,4.8,1.6,9.6,2.4,14.4c0.1,0.8,0.6,1.5-0.3,2.2c-0.1,0.1,0,0.6,0,0.9
	c0.7,6.6,1.5,13.2,2,19.8c0.9,12,1,24.1-0.3,36.1c-0.4,3.8-1.3,7.5-1.8,11.3c-1.1,8.8,0.2,17.3,3.2,25.6c0.9,2.3,1.7,4.6,2.7,6.9
	c0.4,1,1,2,1.7,2.9c1.2,1.6,1.1,1.9-0.6,2.8c-1.4,0.8-2.8,1.6-4.2,2.2c-1.1,0.5-1.4,1.3-1.3,2.3c0.1,1.2,0,2.4,0.4,3.6
	c1.1,3.6,2.2,7.2,3.5,10.7c1.2,3.4,2.7,6.6,3.8,10c0.7,2.3,1.3,4.7,1.4,7c0.1,1.7-0.8,3.3-1.3,5c-2.8,1.3-4.6,4.1-7.6,5
	c-3.2,0.9-6.3,2.1-9.5,3.1c-3.9,1.2-7.5-0.3-11.1-1.7c-2.6-1-4.6-2.6-6.3-4.9c-1.9-2.5-2.1-5.3-2-8.2c0.2-4,0.4-8,0.9-11.9
	c0.3-2.3,0.9-4.7,1.6-6.9c1.1-3.3,2.7-6.5,2.1-10.2c-1.6-0.9-3.3-0.8-5.1-0.8c-2.7,0-3.3-0.6-3.1-3.3c0.2-2.6,0.8-5.2,1-7.8
	c0.4-4.7,0.6-9.4,1.1-14.1c0.4-3.2,0.5-6.4,0.2-9.5c-0.3-2.5-0.8-4.9-1-7.3c-0.5-6.3-1-12.6-1.3-18.9c-0.4-7.2-0.9-14.4-1-21.5
	c-0.1-5.9-0.3-11.9,1-17.7c0.8-3.4,0.2-6.2-1.3-9.1c-3.6-7.2-7.2-14.4-11.5-21.3c-4.4-7.1-8.2-14.6-11.6-22.3
	c-3.3-7.3-6.7-14.5-10.3-21.6c-2.5-5-5.5-9.7-8.1-14.7c-2.1-4-3.9-8-5.8-12.1c-2.3-4.9-4.7-9.8-6.9-14.8c-1.4-3.1-2.4-6.2-3.7-9.8
	c-1.8,3.4-3.5,6.4-5.1,9.4c-1.3,2.4-2.5,4.8-3.9,7.1c-3.4,5.4-7,10.7-10.3,16.1c-1.9,3-3.3,6.4-5.1,9.5c-3,5.1-5.9,10.2-9.1,15.2
	c-4.8,7.6-9.8,15.1-14.7,22.7c-1.4,2.2-2.6,4.6-4.1,6.8c-2.4,3.6-2.9,7.7-3,11.9c0,2.4,0.2,4.8-0.2,7.2c-1.2,6.1-0.7,12.3-1.4,18.3
	c-0.2,1.7-0.6,3.5-0.8,5.2c-0.7,5.9-1.3,11.7-2.1,17.6c-0.6,4-1.5,8-2.4,12c-1.2,5.2-2.6,10.4-4,15.5c-1,3.8-1.5,7.7-1.7,11.6
	c-0.3,4.2-0.6,8.4,0,12.7c0.8,5.6,2,11.1,3.8,16.5c0.8,2.4,2.2,4.4,3.4,6.5c0.8,1.5,0.4,2.3-1.4,2.5c-1.6,0.2-3.3,0.5-5,0.7
	c-0.6,2.9,0.1,5.7,0.5,8.4c0.4,2.4,1,4.7,1.4,7c0.4,2.4,0.7,4.9,1.2,7.3c0.1,0.8-0.2,1.7,0.8,2.4c0.3,0.2,0.2,1.2,0,1.8
	c-0.4,1.9-0.3,3.7,0.8,5.5c1,1.8,0.8,2.2-1.1,3.1c-0.6,0.3-1.3,0.5-2,0.7c-2.6,0.6-5.3,1.1-7.9,1.8c-6,1.5-12.1,2.7-18.4,2.6
	c-3.5-0.1-6.8-0.9-10-2.2c-3.7-1.6-6.2-4.3-7.7-8.1c-0.3-0.9-0.8-1.8-1-2.7c-0.2-1-0.2-2-0.2-3c0.1-1.2,0.4-2.3,0.6-3.5
	c0.2-1.1,0.3-2.3,0.8-3.2c1.5-3.1,3.1-6.1,4.9-9c2.2-3.7,3.9-7.5,3.6-11.9c-2.3-0.8-4.6-1.5-6.8-2.3c-2.3-0.8-2.8-2.1-1.2-3.9
	c3-3.5,4.5-7.8,6.3-12c1.2-2.9,2.3-6,3.1-9c1-3.5,1.6-7.1,2.4-10.7c1.2-5.6,0.4-11.3,0.4-16.9c0-6.4-0.4-12.8,0.7-19.1
	c0.6-3.5,1.1-7.1,1.6-10.6c0.9-7,1.8-13.9,2.6-20.9c0.4-3.5,0.9-7,1-10.5c0.1-3.5,0-7-0.1-10.5c-0.1-3.7-0.6-7.5-0.4-11.2
	c0.3-4.4,1.6-8.7,3.8-12.7c2.9-5.3,5.1-10.8,6.7-16.5c1.7-6.1,3.6-12.1,5.2-18.1c1.2-4.5,2.2-9.2,3.4-13.7c1.4-5.2,3-10.4,4.6-15.6
	c1.8-5.4,3.7-10.7,5.7-16c0.9-2.5,2.2-4.9,3.3-7.4c1.7-3.8,3.3-7.6,5.1-11.3c1.2-2.7,2.5-5.3,4.1-7.8c1.3-2.1,2.2-4.4,2.9-6.8
	c0.9-3.1,1.9-6.2,2.9-9.3c0.3-0.8,0.1-1.5,0-2.3c-0.2-1.9-0.4-4,0-5.9c1-5.4,0.6-10.8,0.3-16.2c-0.2-4-0.3-8-0.3-12
	c-0.1-4.1,0-8.3-0.2-12.4c-0.1-3.3-0.5-6.5-0.5-9.8c-0.1-6.4-1.3-12.7-3.6-18.7c-2.2-5.7-4.5-11.4-6.8-17.1c-0.6-1.6-1.2-3.3-2-4.9
	c-0.4-0.8-1-1.5-1.4-2.4c-0.6-1.3-1-2.7-1.4-4c-0.3-1.1-0.4-2.2-0.6-3.7c-1.8,1.5-3.3,2.8-4.8,4c-4,3.2-8,6.3-12.1,9.4
	c-5.3,4-10.6,7.9-15.9,11.9c-1,0.8-2.1,1.5-3.1,2.2c-3,2.3-6,4.6-8.9,6.9c-1.8,1.4-3.6,2.9-5.3,4.5c-2.4,2.3-4.8,4.6-7.2,7
	c-1.7,1.7-3.8,2.3-6.1,2.4c-6.1,0.3-11.5-1.5-16.6-4.9c-5.3-3.5-10-7.6-14.8-11.7c-7.3-6.3-15-11.9-22.3-18c-3.5-2.9-6.9-6-10.5-8.7
	c-4.2-3.2-8.6-6-13.8-7.5c-3.1-0.9-6.1-2.4-9.2-3.4c-1.3-0.5-2.8-0.7-4.2-0.8c-0.9-0.1-1.6-0.4-1.8-1.2c-0.3-1.1-1.2-1.4-2.1-1.7
	c-4.1-1.4-8.2-2.3-12.6-2.5c-1.5-0.1-3.2-0.6-4.5-1.3c-3.6-2-7.7-2.6-11.5-3.9c-1.2-0.4-2.4-0.9-3.4-1.6c-0.7-0.5-1.3-1.6-1.2-2.4
	c0.1-0.7,1-1.7,1.8-1.9c3-0.9,6-1.7,9.2-0.9C36.7,151.3,38.8,151.3,41.1,150.3z M261.7,33.9c-0.6,0.8-1.3,1.6-1.9,2.4
	c-0.4-0.1-0.8-0.1-1.2-0.2c-0.6-0.1-1.2-0.2-2-0.4c1.2-1.5,2.8-2.3,3.1-4.3c-1.6,0.7-2.1,2.7-4.1,2.5c0.9-1.1,1.8-2.3,2.7-3.4
	c0.1,0.7,0.6,0.5,0.8,0.1c1.4-2.3,2.7-4.6,4.1-6.9c0.2-0.3,0.1-0.7,0.1-1c-1,0.6-1.7,1.3-2.3,2.1c-0.5,0.7-0.9,1.6-1.3,2.4
	c0.2-0.8,0.3-1.7,0.6-3c-0.5,0.7-0.6,0.9-0.8,1.1c-1.3,2.4-2.5,4.8-3.8,7.1c-0.8,1.5-1.8,2.9-3.2,4c-1.3,1.1-2.1,2.7-3.4,4.4
	c4.1-0.5,7.6-1,10.1-4.1c0.6,0.2,1.2,0.3,1.6,0.4C261.1,35.9,261.4,34.9,261.7,33.9c0.7-0.3,1.9,0,1.9-1.4c0.8-0.8,1.6-1.7,2.4-2.5
	c-1.1,1.9-2.2,3.8-3.4,6.1c2.7-1.6,4.2-4.2,4.5-7.2c-0.2,0.1-0.4,0.2-0.6,0.3c0.2-0.5,0.3-1.1,0.6-1.5c1.2-1.6,1-3.4,1.3-5.2
	c-1.6,3.1-3.2,6.2-4.8,9.3C262,31.7,262,32.9,261.7,33.9z M273.9,25.6c-0.3,0.2-0.6,0.3-0.8,0.5c-0.4,0.6-0.7,1.3-1,2
	c0.1-0.9,0.3-1.9,0.4-2.9c-0.4,0.2-0.6,0.3-0.9,0.5c0.5-1.6,1.1-3.2,1.6-4.8c-2.3,1.7-2.6,4.3-3.3,6.8c0,0.3,0.1,0.6,0.1,0.9
	c-0.2,0.1-0.5,0.2-0.7,0.3c0.2-1.4,0.3-2.7,0.5-4.1c-0.2,0-0.3-0.1-0.5-0.1c-0.5,2.2-1,4.4-1.5,6.6c-0.3,0.5-0.6,0.9-0.9,1.3
	c-1,0.7-1.4,1.6-1.5,2.7l0.1-0.1c-1,0-1.2,0.6-1.6,1.4c1.6,0.1,3.2,0.8,4.3,0.2c1.8-0.8,3.6-2.2,4.7-3.8c1.5-2,2.7-4.4,2.8-7.2
	c-0.4,0.3-0.8,0.6-1.2,0.9c0.4-0.6,0.5-1-0.5-0.9C274.1,26,274,25.7,273.9,25.6c0-1,0.1-1.9,0.1-2.8c-0.2,0-0.3,0-0.5,0
	C273.7,23.8,273.8,24.7,273.9,25.6z M251.1,33.9L251.1,33.9c0.4-1.4,0.8-2.8,1.2-4.5c-1,0.8-1.6,1.2-2.2,1.7
	c0.6-1.5,0.8-3.4,1.9-4.2c1.5-1.2,1-2,0.2-3.5c-0.9,4.3-4.4,6.7-5.9,10.5c0.7-0.5,1.3-1,2-1.5c-0.6,1-1.3,2-1.9,2.9
	c-0.3,0.4-1,1.1-0.9,1.3c0.8,1.3-0.4,1.7-1,2.3c-0.9,1-2,1.9-2.9,2.8c2-0.2,4-0.1,5.1-2c0.1-0.2,0.4-0.3,0.6-0.3
	c1.5,0.4,2.2-0.6,2.9-1.6c0.4-0.5,0.8-1,1.3-1.4c1.7-1.4,2.7-3.3,3.5-5.3c0.4-0.9,0.4-2.3,1.9-2.5c0.1,0,0.2-0.2,0.2-0.3
	c0-1.9,1.3-3.1,2.1-4.6c0.5-1,1-2.1,1.5-3.1c-2.5,2.8-4,6.2-6.5,8.9c-0.1-0.1-0.3-0.2-0.4-0.3c1-1.7,2.1-3.3,3.1-5
	c-0.1-0.1-0.2-0.2-0.3-0.2c-0.8,0.4-1.7,0.7-2.5,1.1C253.4,29.3,252.9,30.9,251.1,33.9z M219,160.3c-0.5,3-1.3,5.7-1.5,8.5
	c-0.2,3-0.2,6.1,0.5,9c0.7,3.2,2.2,6.1,3.5,9.1c2.6,6.1,5.3,12.1,7.9,18.2c0.5,1.2,1.1,2.5,1.5,3.8c0.6,1.8,1.3,3.6,1.4,5.5
	c0.4,4.8,0.5,9.6,0.8,14.4c0.5,7.7,1,15.3,1.5,23c0.3,4.8,0.7,9.6,0.1,14.3c-0.4,3.6-0.7,7.2-1,10.7c-0.2,1.7-0.1,2.9,1.5,4.1
	c1.7,1.3,3.3,3.1,4.4,5c0.8,1.4,1.8,2,3.1,2.1c1.4,0.2,2.9,0.2,4.3,0.2c4.9-0.2,9.9-0.5,14.8-0.8c3-0.2,6.1-0.4,9.1-0.6
	c4.6-0.3,9.2-0.8,13.6-2.5c2.8-1.1,5.6-2.2,8.6-3c1.4-0.4,2.3-1.2,3.2-2.2c1.7-2.1,3.5-4.2,5.4-6.1c2.2-2.3,4.6-4.4,7.1-6.4
	c1.6-1.3,3.5-2.1,4.2-4.3c0.2-0.5,0.9-0.9,1.3-1.4c1.9-2,3.4-4.2,3.1-7.2c0-0.3,0-0.6,0.1-0.9c0.1-4.1,1.5-8.1,1.5-12.3
	c0-4.8,0.4-9.5,0.6-14.3c0.1-3,0-5.9,0.4-8.9c0.9-6.8,1.8-13.6,3.1-20.3c0.9-4.9,2.4-9.6,3.7-14.4c0.3-1.2,1-2.3,1.5-3.5
	c0.8-2.3,1.4-4.7,2.4-7c1.6-3.8,3.4-7.5,5.2-11.4c-5.1-6.8-6.8-14.6-6.9-23c0.8,1.1,1.4,2.3,1.8,3.5c2.2,6.9,4.3,13.7,7.9,20
	c0.6,1,1.2,2.1,1.7,3.2c2.5,5.4,5.7,10.3,8.9,15.3c2.5,4,5,8,7.5,11.9c0.7,1.1,1.2,2.6,2.1,3.4c1.4,1.3,2.3,2.8,3.1,4.5
	c0.7,1.5,0.5,2.5-0.7,3.5c-0.9,0.7-1.8,1.3-2.7,2c-4.6,3.6-8.2,8.1-11.7,12.6c-4.4,5.6-8.4,11.4-11.7,17.7
	c-2.9,5.6-6.4,10.8-10.4,15.8c-2.9,3.7-5.9,7.3-9,10.8c-2.1,2.4-1.6,3.3,1.5,4.6c0.4,0.1,0.8,0.1,1.2,0.2c3.1,0.6,6.3,1.1,9.4,1.7
	c1.9,0.4,3.5,0.3,5-1.3c2.7-2.8,5.6-5.5,8.3-8.3c4.2-4.3,8.3-8.6,12.5-12.9c4.9-5.1,9.7-10.4,14.7-15.4c5.5-5.6,11.1-11,16.9-16.4
	c4.5-4.2,5.2-9.5,4.9-15.1c-0.1-2.9-1-5.8-1.3-8.8c-0.4-3.5-1.9-6.6-3.4-9.6c-2.7-5.5-6.1-10.5-9.7-15.4c-0.9-1.2-1.7-2.5-2.4-3.8
	c-2.3-3.9-4.4-7.9-7-11.7c-2.8-4.2-5.4-8.5-7.7-12.9c-2.4-4.5-4.9-9-8.2-12.9c-4.2-4.9-8.3-9.9-14-13.3c-3.2-1.9-6.5-3-10.4-2.3
	c-3.5,0.6-7.1,0.8-10.7,1.3c-4,0.5-8.1,0.9-12.1,1.7c-4.4,0.9-8.7,2.1-13.2,1.6c-0.4,0-0.8,0.1-1,0.2c-2.6,4.5-5.9,7.9-10.5,10
	c-1.1,0.5-2.3,0.8-3.3,1.3c-3.1,1.6-6.3,2.8-9.8,2.7c-1.2,0-2.4,0.2-3.6,0.5c-2.6,0.7-5.1,0.2-7.5-0.8c-2.5-1.1-4.4-2.7-5-5.9
	c-3.6,0.7-7,1.4-10.4,2.1c-5.6,1.2-11.2,2.4-16.9,3.5c-4.6,0.9-9.3,1.4-13.3,4.4c-4.1,3-8.5,5.4-12.4,8.6c-3.9,3.3-7.4,7-10.8,10.8
	c-5,5.7-9.8,11.5-14.7,17.3c-2.7,3.2-5.3,6.4-7.9,9.6c-0.6,0.7-1,1.4-1.6,2.1c-4.8,5.7-10.3,10.9-13.8,17.6
	c-0.2,0.3-0.8,0.4-1.5,0.8c0.1-0.6,0.1-0.9,0.2-1.1c1-2.2,1-2.5-1-3.9c-1.2-0.9-2.5-1.6-3.8-2.5c-4.8-3.4-9.7-6.7-14.9-9.5
	c-2.4-1.3-4.8-2.6-6.9-4.2c-6.6-4.9-13.1-10-19.6-15c-2.2-1.7-4.3-3.5-6.5-5.3c-2.4-1.9-4.9-3.8-7.2-5.9c-1.7-1.5-2.6-3.6-3.3-5.7
	c-0.5-1.4-0.9-2.9-2.2-4.2c-0.6,3-1.5,5.6-3.1,7.9c-2,3-4.2,6-6,9.2c-1.8,3.1-3.9,5.8-6.8,7.9c-0.3,0.2-0.6,0.5-0.9,0.8
	c0.4,0.4,0.7,0.7,1,0.9c2.9,1.2,5.7,2.4,8.7,3.4c3.9,1.2,7.7,2.7,11,5.1c3.3,2.4,6.5,4.9,9.7,7.4c2.1,1.7,4,3.6,6.2,5.3
	c4.8,3.8,9.6,7.6,14.5,11.4c1.3,1,2.6,1.9,3.8,2.9c5.5,4.5,10.8,9.2,16.4,13.6c4.8,3.7,10.3,5.6,16.5,5.2c1.9-0.1,3.5-0.9,4.9-2.1
	c7.4-6,14.1-12.9,22.2-18.2c0.7-0.4,1.4-0.8,2-1.3c5.1-3.8,10.1-7.8,15.3-11.4c6.1-4.3,12-9,17.6-14c0.4-0.3,0.7-0.9,0.9-1.4
	c0.6-2.6,1-5.2,1.5-7.7C216.5,163.5,217.4,161.7,219,160.3z M277.7,325c0.4,2.4,0.7,4.3-0.1,6c-0.8,1.9-0.5,3.5,0.1,5.3
	c2.1,5.7,4.5,11.2,7.3,16.7c3.1,6.2,5.9,12.6,9,18.8c2.3,4.6,5.1,8.9,7.4,13.4c3,6,5.8,12.1,8.7,18.1c0.7,1.4,1.5,2.8,2.1,4.3
	c2.9,7.1,6.5,13.9,10.4,20.5c3.4,5.8,7,11.5,9.7,17.6c1.1,2.5,2.5,4.8,3.8,7.3c0.5-1.6,0.5-1.6,1.8-1.8c-0.1,0.8-0.1,1.6-0.3,2.4
	c-1.6,7.7-2.4,15.5-2.2,23.3c0.1,7.3,0.7,14.7,1.1,22c0.5,9.5,0.9,19,2.5,28.4c0.4,2.3,0.1,4.8,0,7.1c-0.1,2.1-0.4,4.3-0.6,6.4
	c-0.4,4.4-0.9,8.9-1.3,13.3c-0.1,1.6-0.5,3.3,0.2,5.2c3.4-0.8,6.8-1.3,10-2.4c3.7-1.3,7.3-2.1,11.2-1.8c1.4,0.1,2.9-0.1,4.3-0.2
	c1.2,0,2.3,0,3.5,0c1.9,0,3.9,0,6,0c-1-1.9-2-3.6-2.6-5.3c-1.2-3.2-2.1-6.5-3.2-9.8c-2.2-6.5-2.7-13.3-2.1-20.1
	c0.7-7.3,2.5-14.5,2.4-21.9c0-1.8,0.4-3.6,0.3-5.5c0-5.3-0.2-10.7-0.3-16c0-1.5,0-3-0.2-4.5c-0.3-2.8-0.6-5.5-0.9-8.3
	c-0.6-5.2-1.2-10.5-2-15.7c-0.5-3.3-1.2-6.6-1.8-9.9c-0.1-0.6,0-1.3,0-1.9c0-0.8,0-1.7-0.1-2.5c-0.1-0.9-0.5-1.7-0.6-2.6
	c-0.2-5.2-1.8-10.1-3.5-14.9c-1.9-5.2-4.2-10.2-6.3-15.2c-1.4-3.3-2.9-6.6-4-10c-1.8-5.7-3.2-11.5-4.8-17.3
	c-0.9-3.2-1.8-6.3-2.5-9.5c-1.4-6.4-2.5-12.8-3.9-19.2c-0.7-3.3-1.9-6.6-2.8-9.9c-3-11-5.9-22-8.8-33c-1-3.9-1.8-7.9-2.8-11.9
	c-0.4-1.5-0.9-3-1.3-4.4c-0.5,0.1-0.7,0-0.8,0.1c-3.5,2.1-7.4,2.8-11.4,3.3c-3.5,0.5-6.9,1-10.4,1.3c-2.7,0.3-5.5,0.7-8.1,0.4
	c-4.7-0.6-9.4-1.8-14.1-2.7c-0.6-0.1-1.3-0.4-1.9-0.3c-6.1,1.1-12.2,0.9-18.3,1.6c-2.4,0.3-4.8,0.4-7.2,0.4
	c-2.9-0.1-5.7-0.4-8.6-0.7c-1.2-0.1-2.2-0.8-2.4-2.2c-0.2-2.1-1.7-2.9-3.4-3.4c-1,2.9-1.9,5.7-2.8,8.5c-1.2,3.8-2.5,7.6-4.5,11.1
	c-1.3,2.4-2.7,4.7-3.8,7.2c-3,6.8-5.7,13.7-8.7,20.4c-2.7,6-4.6,12.3-6.4,18.5c-2.1,7.1-3.8,14.3-5.7,21.5c-1.4,5.5-2.8,11-4.4,16.4
	c-1.2,4.1-2.6,8.2-3.9,12.3c-0.2,0.5-0.5,1.2-0.3,1.5c0.4,0.8,0,1.1-0.3,1.7c-1.9,3.3-3.9,6.6-5.5,10.1c-1.6,3.4-2.1,7.2-1.9,11
	c0.2,3.2,0.8,6.3,1.2,9.5c0.2,1.5,0.9,3.1-0.4,4.5c-0.1,0.1,0,0.5-0.1,0.7c-0.3,4.3-0.5,8.6-0.8,12.9c-0.5,6.6-1,13.2-1.7,19.8
	c-0.9,9.2-2.1,18.4-3.1,27.6c-0.2,1.6-0.1,3.2-0.1,4.8c0.1,3.7,0.5,7.3,0.4,11c-0.1,2.5-0.4,5.1-1.1,7.5c-0.7,2.4-0.2,5.1-2.2,7.1
	c0,0,0,0.2-0.1,0.2c-0.8,2.4-1.5,4.9-2.3,7.3c-0.8,2.4-1.7,4.8-2.7,7.1c-1,2.3-2.1,4.5-3.2,6.9c3.3-0.7,6.3-1.4,9.3-2
	c2.6-0.5,5.2-1.1,7.8-1.1c3.3,0,6.5,0.5,9.8,0.7c3.9,0.3,7.5,1.4,10.9,3.2c0.9,0.5,1.7,1,3,1.8c-0.9-3.1-1.6-5.6-2.3-8.2
	c-0.7-2.7-1.3-5.4-2-8.1c-0.7-3-0.6-6-0.6-9c0-7,0.6-13.9,2.4-20.6c1.4-5.4,3-10.7,4.2-16.2c1.1-5,1.9-10,2.6-15.1
	c0.7-4.7,1.2-9.5,1.8-14.2c0.2-1.9,0.5-3.8,0.6-5.7c0.3-4.8,0.5-9.6,0.8-14.3c0.1-2.4-0.2-4.7-1.4-6.9c-0.4-0.8-0.2-1.3,0.1-2
	c0.7-1.5,1.2-3.1,1.8-4.6c0.7-1.7,1.2-3.5,2-5.1c1.3-2.5,2.8-5,4.3-7.4c2.4-3.8,4.9-7.5,7.3-11.2c2.6-3.9,5.3-7.8,7.6-11.9
	c2.8-4.7,5.1-9.7,7.8-14.5c2.7-4.8,5.8-9.3,8.5-14c2.9-5.1,6.7-9.7,8.8-15.3c1.1-2.8,2.6-5.4,4-8.1c2.5-4.7,5.4-9.2,6.9-14.4
	C276.3,325.9,276.9,325.7,277.7,325z M238.8,44.4c0.8,4-0.4,7.8,1,11.5c0.2,0.4,0.1,0.9,0.2,1.4c0.3,2.7,0.4,5.4,1.1,8
	c1.3,5.1,1.6,10.4,1.8,15.6c0,0.9,0.4,1.8,0.8,2.6c0.9,1.5,1.9,2.9,2.9,4.4c3,4.5,5.3,9.4,9.3,13.3c3.4,3.3,7.2,4.7,11.9,4
	c4.2-0.6,7.7-2.3,10.8-5.1c0.7-0.7,1.4-1.5,1.9-2.4c1.1-2,1.9-4.2,2.9-6.3c3.3-6.6,4.9-13.6,5.5-20.9c0.2-2.8-0.3-5.6-0.3-8.3
	c0-4.6,0.1-9.2,0.4-13.9c0.2-3.7-1-7-1.6-10.6c-0.9,0.3-1.5,0.6-2.2,0.8c-0.6-0.5-1.2-0.9-1.8-1.3c-0.4,0.2-0.8,0.3-1.2,0.5
	c-2.2,1-4.4,1.3-6.6-0.3c-0.5-0.4-1.5-0.3-2.3-0.2c-2.7,0.3-5.2,2-8.1,1.3c-2.8-0.6-5.5,0-7.8,1.7c-2.7,1.9-5.7,2.3-8.8,2.1
	c-2.1-0.1-3.8,0.3-5.4,1.8c-0.9,0.9-2,1.8-3.9,1.4c0.6-0.4,0.9-0.7,1.3-0.9c0.3-0.2,0.6-0.4,0.9-0.6c-0.1-0.1-0.1-0.2-0.1-0.3
	C240.7,44.1,240,44.2,238.8,44.4z M359.5,201.3c-0.4-1.2-0.6-2.3-1.2-3.2c-1.8-3-3.8-5.9-5.7-8.8c-3.2-4.7-6.6-9.2-9.1-14.3
	c-1-2.1-2-4.2-3-6.2c-0.7-1.4-1.4-2.7-2.4-4.5c-1.6,2.6-3.1,4.6-4.3,6.9c-1.2,2.2-2.1,4.6-2.9,7c-1.6,4.5-3.2,9-4.6,13.6
	c-0.9,2.9-1,6-1.9,8.9c-1.7,5.6-1.9,11.3-2.6,17c-0.6,4.9-0.3,9.9-0.5,14.8c-0.2,4.9-0.6,9.9-0.9,14.8c-0.1,2.2-0.3,4.4-0.5,7
	c0.8-0.7,1.2-0.9,1.6-1.4c2.5-3.4,5.2-6.7,7.5-10.2c2.3-3.6,4.2-7.5,6.5-11.2c2.8-4.5,5.7-8.9,8.9-13.1c2.9-3.8,6.2-7.3,9.4-10.9
	C355.3,205.4,357.3,203.5,359.5,201.3z M25.5,154.4c1,0.5,1.9,1,2.9,1.4c3.5,1.2,7,2.1,10.4,3.5c2.6,1.1,5.2,1.8,8,2
	c3.9,0.3,7.7,1.4,11.2,2.9c2.1,0.9,3.6,0.6,5.4-0.4c2.1-1.2,3.8-2.9,5.1-4.9c2-3.1,4.1-6.1,6-9.2c1.1-1.8,2-3.6,2.7-5.6
	c1-2.5,1-5-0.8-7.3c-0.2-0.3-0.4-0.7-0.6-1c-1.6-3.8-3.3-7.6-4.9-11.4c-0.6-1.4-1-2.9-2.5-3.6c-1.8,0.7-2.4,1.9-2,3.6
	c0.5,1.9,0.9,3.9,1.7,5.7c1.8,4.4,0.7,8.5-1.2,12.5c-0.4,0.9-1.3,1.6-2,2.3c-0.2,0.2-1,0.1-1.2-0.1c-0.2-0.2-0.3-0.9-0.2-1.2
	c0.2-0.4,0.7-0.7,0.9-1.1c0.5-0.8,1-1.7,1.5-2.5c-1.1-0.8-2-1.3-2.8-1.9c-2.2-1.4-4.4-2.8-6.6-4.4c-2.3-1.6-4.6-3.1-6.6-5.1
	c-3.9-3.7-7.5-7.6-11.2-11.4c-0.9-0.9-1.8-1.8-2.8-2.5c-0.7-0.5-1.5-1.7-2.4-0.8c-0.9,0.8,0,1.8,0.5,2.6c1,1.6,2.1,3.2,3.3,4.7
	c1.5,1.8,3,3.5,4.7,5.1c2.8,2.7,4.4,6.5,7.5,9c0.7,0.5,0.7,1.2-0.3,1.7c-0.4-0.2-0.9-0.2-1.3-0.5c-1.8-1.2-3.7-2.5-5.5-3.8
	c-4.2-3-8.5-5.8-11.4-10.3c-1.6-2.5-4.3-3.8-7.2-5.2c-0.1,0.5,0,0.8-0.1,0.9c-1.6,1.4-1.2,2.8,0,4.3c0.5,0.6,0.9,1.3,1.4,1.9
	c3.6,4.4,7.8,8.2,12.4,11.4c1.2,0.8,2.3,1.8,3.6,2.7c-1.5,1.1-1.5,1.1-2.7,0.1c-3.5-2.8-7.1-5.7-10.7-8.4c-1.4-1-2.9-1.8-5.1-1.4
	c0.4,0.9,0.7,1.6,1.1,2.2c1.4,1.9,2.8,3.9,4.4,5.7c2.3,2.6,4.9,4.8,7,7.5c2.2,2.8,5,4.3,8.2,5.5c0.6,0.2,1.2,0.4,1.7,0.6
	c0.3,1.3,0.1,2.2-1.2,2.1c-3.3-0.2-6.4,0.8-9.7,0.2C31.2,152,28.3,152.6,25.5,154.4z M205.6,554c-4.6-2.6-9.3-2.3-13.7-3
	c-4.7-0.7-9.6-0.4-14.3,0.8c-0.8,0.2-1.3,0.5-1.2,1.4c0,0.6,0,1.3,0.1,1.9c0.4,5.3-0.6,10.2-3.6,14.8c-2.2,3.4-3.8,7.2-5.5,10.8
	c-0.5,1-0.4,2,0.1,3.1c1.1,2.4,3.1,3.7,5.4,4.3c3.2,0.8,6.5,1.4,9.8,2c2.1,0.4,4.2,0.9,6.3,1c4.2,0.2,8.4-0.2,12.5-1.6
	c1.7-0.6,3.5-1.1,5.1-2c1.9-1,3.2-2.6,3-4.8c-0.3-3-0.9-6-1.4-9c-0.4-2.3-0.9-4.7-1.2-7C206.4,562.5,206,558.1,205.6,554z
	 M366.2,557.1c-1.6,0.1-2.9,0.2-4.3,0.3c-1,0.1-2.1,0.3-3.1,0.2c-4.1-0.5-8,0.5-12,1.7c-1.5,0.5-2,1.1-2.1,2.6
	c-0.1,2.6-0.1,5.3-1.2,7.8c-2.5,5.4-3,11.2-3.1,17.1c0,1.7,0.5,3.2,1.6,4.4c1.1,1.1,2.3,2.2,3.7,3c4.5,2.8,9.6,2.8,14.6,2.7
	c3.4-0.1,6.7-1.3,9.5-3.5c0.7-0.6,1.4-0.6,2.1,0.5c-0.6,0.7-1.1,1.6-1.9,2c-3.4,1.7-7,3.2-10.9,3c-1.7-0.1-3.3-0.2-5-0.4
	c-4.9-0.6-9.5-2.1-12.9-6.1c-0.2-0.2-0.4-0.4-0.8-0.7c-0.5,3.5,0.6,6.2,3.1,8.3c3.5,2.9,7.7,4.4,12.1,4.3c5.8-0.2,11-2.4,15.8-5.6
	c3.3-2.2,4.6-5.3,3.1-9.2c-0.2-0.5-0.3-1.1-0.5-1.6c-1.2-3.2-2.4-6.4-3.7-9.6c-1.7-4.5-3.7-9-4.2-13.9
	C366,562,366.2,559.7,366.2,557.1z M255.3,103.6c-0.1,0.6-0.2,0.8-0.2,1.1c-0.6,4.8-1.3,9.6-3.6,14.1c-0.3,0.6-0.2,1.8,0.3,2.4
	c0.6,0.8,1.6,1.5,2.6,1.9c3.6,1.3,7.5,1.2,11.1,0.5c4.6-1,9.1-2.8,13.6-4.5c2.4-0.9,4.6-2.5,6.4-4.5c0.8-0.9,0.9-1.7,0.2-2.8
	c-1.6-2.4-2.4-5-2.5-7.9c0-1.8-0.4-3.7-0.5-5.3c-1.2,1-2.4,2-3.5,3.1c-2.3,2.4-5.1,4.1-8.3,4.9c-4.8,1.3-9.4,1.6-13.6-1.9
	C256.8,104.3,256.1,104.1,255.3,103.6z M329.3,271.4c-1-0.4-1.9-0.9-2.8-0.9c-2.7,0.1-5.1-0.9-7.7-1.6c-1.5-0.4-3.1-0.7-4.5-1.5
	c-1.3-0.7-2.4-0.8-3.6-0.3c-1.1,0.6-2.3,1.2-3.1,2.1c-3.2,3.3-6.3,6.7-9.4,10.2c-2.1,2.4-4.4,4.3-7.4,5.4c-1.9,0.7-3.6,1.6-5.4,2.4
	c-0.4,0.2-0.8,0.6-1.2,0.9c0,0.2,0.1,0.3,0.1,0.5c2.3,0.2,4.5,0.4,6.8,0.5c4.4,0.1,8.7-0.1,13.1-0.9c3.3-0.6,6.6-0.9,9.8-1.7
	c4-0.9,7.3-3,9.7-6.5c1.6-2.4,3.2-4.9,4.8-7.4C328.8,272.5,329,272.1,329.3,271.4z M167,588.7c1.3,3.5,2.8,6.4,5.8,8
	c3.4,1.8,6.9,2.7,10.8,2.8c5.1,0.1,10-0.8,14.9-1.8c3.7-0.7,7.4-1.7,11.1-2.7c0.6-0.1,1.1-0.5,1.7-0.8c-0.5-1.9-1-3.6-1.5-5.4
	c-2.2,1.2-4.6,2.6-6.9,3.8c-1.2,0.6-2.4,1.1-3.7,1.4c-0.8,0.2-1.7,0.3-2.6,0.3c-3.2,0.1-6.3,0.8-9.5,0.2c-2-0.4-3.9-0.6-5.9-1.1
	c-3.5-0.9-6.9-1.8-10.3-2.9C169.7,590.2,168.6,589.5,167,588.7z M241.1,78.3c-1.1-4.6-2.2-8.7-3.1-12.8c-0.4-1.8-1.6-2.7-3.5-3.7
	c0.5,2,0.8,3.5,1.2,5c0.5,1.8,1,3.7,1.4,5.5C237.7,74.6,238.5,76.7,241.1,78.3z M290.6,58.3c0.2,3.5-0.5,7.1,0,10.9
	c2.3-1.4,2.2-1.4,2.4-3.4c0.2-2.3,0.5-4.6,0.7-6.9c0-0.6,0-1.3-0.3-1.7c-0.6-0.7-1.3-0.3-1.9,0.3C291.2,57.8,291,57.9,290.6,58.3z
	 M277.8,36.6c2,1.1,3.8,0.9,5-0.3c0.3-0.3,0.5-0.8,0.9-1c0.8-0.3,1.5-0.8,2.4-1c2.2-0.5,2.4-2.8,2.9-4.9
	C285.6,32.5,282.4,35.6,277.8,36.6z M271.8,35.7c3.3,0.1,5.9-3.2,6.4-8.7C276.5,30.4,274.6,33.2,271.8,35.7z M235.5,36.3
	c0.8,0.4,1.3,0.6,1.9,0.9c1.4-1.3,3.2-2.2,4.3-4.5C239.3,33.8,237.2,34.3,235.5,36.3z M245,34c-2.2,2-4.3,3.9-6.5,5.9
	c0.1,0.1,0.3,0.3,0.4,0.4C241.5,38.8,243.8,37,245,34z M265.5,24.8c-0.8,0.4-1.9,0.6-2.3,1.3c-0.8,1.3-1.3,2.8-1.9,4.2
	C263,28.6,265.1,27.4,265.5,24.8z M282.9,28.3c2.8-1.8,3.1-2.8,2.1-5.4C284.2,24.9,283.6,26.6,282.9,28.3z M278.4,21.5
	c-2,2.1-2,4.6-2.2,7C277.3,26.4,278.9,24.3,278.4,21.5z M282.1,28.2c-1.3,2-3.6,3.3-4.1,5.8C279.6,32.2,281.9,31,282.1,28.2z
	 M279.1,18.1c-0.2,1.2-0.7,1.8,0.1,2.7c0.6,0.7,0.3,2.1,0.4,3.1c0,0.3-0.1,0.6-0.2,0.9c0,0.2,0.1,0.5,0.1,0.8
	C280.5,23.1,280.6,20.7,279.1,18.1z M286.3,29.3c1.1-1.5,2.1-3.2,2.1-5.5C286.4,25.4,287.4,27.8,286.3,29.3z M283.3,23.7
	c0.1,0.1,0.3,0.1,0.5,0.2c0.6-1.2,1.2-2.4,1.7-3.7c0.1-0.2-0.5-0.6-1-1.2C284,20.9,283.7,22.3,283.3,23.7z M288.2,28.3
	c1.8-3,2-3.9,1.6-6.5C289.3,23.7,288.8,25.8,288.2,28.3z M237.5,43.2c-0.1,0-0.2,0.1-0.3,0.1c0,2.1,0,4.3,0,6.4c0.1,0,0.2,0,0.3,0
	C237.5,47.5,237.5,45.4,237.5,43.2z M262.1,31.5c-0.2-0.1-0.3-0.3-0.5-0.4c-0.9,1.1-1.7,2.2-2.6,3.3c0.2,0.1,0.3,0.2,0.5,0.4
	C260.4,33.8,261.3,32.7,262.1,31.5z M248,27.6c-0.2-0.1-0.4-0.2-0.6-0.3c-0.6,0.9-1.3,1.8-0.9,3.2C247,29.5,247.5,28.6,248,27.6z
	 M279.2,27.6c-0.4,1.1-0.7,2.1-1.1,3.1c0.1,0.1,0.3,0.1,0.4,0.2c0.7-1,1.4-1.9,2.1-3C279.9,27.8,279.6,27.7,279.2,27.6z M289.9,42.1
	c-0.2,0-0.3,0.1-0.5,0.1c0.1,0.8,0.1,1.7,0.2,3C290.8,43.8,290,43,289.9,42.1z M233.2,40.3c0.1,0,0.2,0,0.3,0
	c0.3-1.1,0.6-2.1,0.9-3.2c-0.1,0-0.2-0.1-0.4-0.1C233.8,38.1,233.5,39.2,233.2,40.3z M242.1,39.7c0.1,0.1,0.2,0.2,0.3,0.3
	c0.8-0.8,1.6-1.6,2.4-2.4c-0.1-0.1-0.1-0.1-0.2-0.2C243.8,38.1,243,38.9,242.1,39.7z M280.9,33.6c1.8-0.5,1.8-0.5,2-1.6
	C282.2,32.5,281.5,33,280.9,33.6z M235.2,42.1c-0.1,0-0.2,0-0.2,0c0,0.8,0,1.6,0,2.4c0.1,0,0.2,0,0.2,0
	C235.2,43.8,235.2,43,235.2,42.1z M243.3,32.4c-0.1-0.1-0.2-0.2-0.3-0.3c-0.3,0.5-0.5,0.9-0.8,1.4c0.1,0.1,0.2,0.1,0.3,0.2
	C242.8,33.3,243.1,32.9,243.3,32.4z"/>
<path class="st0" d="M219,160.3c-1.7,1.4-2.5,3.2-3,5.3c-0.5,2.6-1,5.2-1.5,7.7c-0.1,0.5-0.5,1-0.9,1.4c-5.6,5-11.5,9.6-17.6,14
	c-5.2,3.7-10.2,7.6-15.3,11.4c-0.6,0.5-1.3,0.9-2,1.3c-8,5.3-14.7,12.2-22.2,18.2c-1.5,1.2-3,1.9-4.9,2.1
	c-6.2,0.4-11.7-1.5-16.5-5.2c-5.6-4.4-10.9-9.1-16.4-13.6c-1.2-1-2.5-1.9-3.8-2.9c-4.8-3.8-9.7-7.6-14.5-11.4
	c-2.1-1.7-4-3.6-6.2-5.3c-3.2-2.5-6.4-5-9.7-7.4c-3.3-2.4-7.1-3.9-11-5.1c-3-0.9-5.8-2.2-8.7-3.4c-0.3-0.1-0.6-0.5-1-0.9
	c0.4-0.3,0.7-0.6,0.9-0.8c2.9-2.1,5-4.8,6.8-7.9c1.8-3.2,4-6.2,6-9.2c1.6-2.4,2.5-5,3.1-7.9c1.3,1.2,1.7,2.7,2.2,4.2
	c0.7,2.1,1.6,4.2,3.3,5.7c2.3,2.1,4.8,3.9,7.2,5.9c2.2,1.8,4.3,3.6,6.5,5.3c6.5,5,13,10.1,19.6,15c2.2,1.6,4.5,3,6.9,4.2
	c5.2,2.7,10.1,6.1,14.9,9.5c1.2,0.9,2.6,1.6,3.8,2.5c2,1.4,2,1.7,1,3.9c-0.1,0.2-0.1,0.4-0.2,1.1c0.7-0.4,1.3-0.5,1.5-0.8
	c3.5-6.8,9.1-11.9,13.8-17.6c0.6-0.7,1.1-1.4,1.6-2.1c2.6-3.2,5.2-6.4,7.9-9.6c4.9-5.8,9.7-11.7,14.7-17.3
	c3.4-3.8,6.9-7.6,10.8-10.8c3.8-3.2,8.3-5.7,12.4-8.6c4-2.9,8.7-3.4,13.3-4.4c5.6-1.1,11.2-2.4,16.9-3.5c3.4-0.7,6.9-1.4,10.4-2.1
	c0.6,3.1,2.6,4.8,5,5.9c2.4,1,4.9,1.5,7.5,0.8c1.2-0.3,2.4-0.5,3.6-0.5c3.6,0.1,6.7-1.1,9.8-2.7c1.1-0.5,2.2-0.9,3.3-1.3
	c4.6-2.1,8-5.5,10.5-10c0.3,0,0.7-0.2,1-0.2c4.5,0.6,8.9-0.7,13.2-1.6c4-0.8,8-1.2,12.1-1.7c3.6-0.5,7.2-0.7,10.7-1.3
	c3.9-0.7,7.2,0.4,10.4,2.3c5.7,3.4,9.8,8.4,14,13.3c3.3,3.9,5.8,8.4,8.2,12.9c2.4,4.4,4.9,8.7,7.7,12.9c2.5,3.8,4.7,7.8,7,11.7
	c0.8,1.3,1.5,2.6,2.4,3.8c3.6,4.9,7,9.9,9.7,15.4c1.5,3.1,3,6.1,3.4,9.6c0.3,2.9,1.2,5.8,1.3,8.8c0.3,5.6-0.4,10.9-4.9,15.1
	c-5.7,5.3-11.3,10.8-16.9,16.4c-5,5-9.8,10.3-14.7,15.4c-4.1,4.3-8.3,8.7-12.5,12.9c-2.7,2.8-5.6,5.4-8.3,8.3
	c-1.5,1.6-3.1,1.7-5,1.3c-3.1-0.6-6.3-1.1-9.4-1.7c-0.4-0.1-0.8-0.1-1.2-0.2c-3.1-1.3-3.6-2.2-1.5-4.6c3.1-3.6,6-7.2,9-10.9
	c4-4.9,7.5-10.1,10.4-15.8c3.3-6.3,7.3-12.2,11.7-17.7c3.5-4.5,7.2-9,11.7-12.6c0.9-0.7,1.8-1.3,2.7-2c1.3-1.1,1.4-2,0.7-3.5
	c-0.8-1.7-1.7-3.2-3.1-4.5c-0.9-0.9-1.4-2.3-2.1-3.4c-2.5-4-5-8-7.5-11.9c-3.2-5-6.4-9.9-8.9-15.3c-0.5-1.1-1.1-2.1-1.7-3.2
	c-3.6-6.3-5.8-13.1-7.9-20c-0.4-1.3-1-2.4-1.8-3.5c0.1,8.4,1.9,16.3,6.9,23c-1.8,3.9-3.6,7.6-5.2,11.4c-1,2.3-1.5,4.7-2.4,7
	c-0.4,1.2-1.1,2.3-1.5,3.5c-1.3,4.8-2.8,9.6-3.7,14.4c-1.3,6.7-2.2,13.5-3.1,20.3c-0.4,2.9-0.2,5.9-0.4,8.9
	c-0.2,4.8-0.6,9.5-0.6,14.3c0,4.2-1.4,8.1-1.5,12.3c0,0.3-0.1,0.6-0.1,0.9c0.3,3-1.2,5.2-3.1,7.2c-0.4,0.5-1.1,0.8-1.3,1.4
	c-0.7,2.2-2.6,3-4.2,4.3c-2.5,2-4.8,4.2-7.1,6.4c-1.9,1.9-3.6,4-5.4,6.1c-0.9,1.1-1.8,1.8-3.2,2.2c-2.9,0.8-5.7,1.9-8.6,3
	c-4.4,1.7-8.9,2.2-13.6,2.5c-3,0.2-6,0.4-9.1,0.6c-4.9,0.3-9.9,0.6-14.8,0.8c-1.4,0.1-2.9,0-4.3-0.2c-1.3-0.2-2.3-0.7-3.1-2.1
	c-1.1-1.9-2.6-3.7-4.4-5c-1.6-1.2-1.7-2.5-1.5-4.1c0.4-3.6,0.6-7.2,1-10.7c0.6-4.8,0.2-9.6-0.1-14.3c-0.5-7.7-1.1-15.3-1.5-23
	c-0.3-4.8-0.4-9.6-0.8-14.4c-0.2-1.9-0.9-3.7-1.4-5.5c-0.4-1.3-0.9-2.5-1.5-3.8c-2.6-6.1-5.3-12.1-7.9-18.2c-1.3-3-2.8-6-3.5-9.1
	c-0.7-2.9-0.7-6-0.5-9C217.7,166,218.5,163.2,219,160.3z M269.1,146.3c-0.3,0.1-0.5,0.1-0.8,0.2c0.1,0.7,0.1,1.5,0.2,2.2
	c1,3.9,2.1,7.7,2.9,11.6c1.1,5.8,2,11.6,3,17.4c0.6,3.6,1.2,7.2,1.5,10.9c0.7,8.4,1.3,16.7,1.8,25.1c0.4,7.3,0.4,14.7-0.6,22
	c-0.4,3.3-0.2,6.7-0.1,10.1c0,0.9,0.3,1.7,1.8,1.5c0-0.7,0-1.4,0-2.1c0-3.4-0.1-6.9,0-10.3c0.1-1.9,0.5-3.8,0.5-5.7
	c0-7.5,0-15-0.3-22.5c-0.3-6.6-0.8-13.2-1.5-19.8c-0.5-4.6-1.3-9.2-2-13.7c-1.3-8.1-2.5-16.2-5.2-24.1
	C270,148.1,269.5,147.2,269.1,146.3z"/>
<path class="st1" d="M277.7,325c-0.8,0.6-1.4,0.9-1.5,1.3c-1.5,5.2-4.4,9.7-6.9,14.4c-1.4,2.7-3,5.3-4,8.1
	c-2.1,5.6-5.9,10.2-8.8,15.3c-2.7,4.8-5.8,9.3-8.5,14c-2.7,4.8-5.1,9.7-7.8,14.5c-2.4,4.1-5.1,7.9-7.6,11.9
	c-2.4,3.7-4.9,7.5-7.3,11.2c-1.5,2.4-3,4.9-4.3,7.4c-0.8,1.6-1.4,3.4-2,5.1c-0.6,1.5-1.1,3.1-1.8,4.6c-0.3,0.7-0.6,1.2-0.1,2
	c1.2,2.1,1.5,4.5,1.4,6.9c-0.2,4.8-0.5,9.6-0.8,14.3c-0.1,1.9-0.4,3.8-0.6,5.7c-0.6,4.8-1.1,9.5-1.8,14.2c-0.8,5-1.5,10.1-2.6,15.1
	c-1.2,5.4-2.8,10.8-4.2,16.2c-1.7,6.8-2.4,13.7-2.4,20.6c0,3-0.1,6.1,0.6,9c0.6,2.7,1.3,5.4,2,8.1c0.7,2.6,1.5,5.2,2.3,8.2
	c-1.3-0.8-2.2-1.4-3-1.8c-3.4-1.8-7-2.9-10.9-3.2c-3.3-0.2-6.5-0.7-9.8-0.7c-2.6,0-5.2,0.6-7.8,1.1c-3,0.6-6,1.3-9.3,2
	c1.1-2.4,2.2-4.6,3.2-6.9c1-2.3,1.9-4.7,2.7-7.1c0.8-2.4,1.5-4.9,2.3-7.3c0-0.1,0-0.2,0.1-0.2c2-2,1.4-4.7,2.2-7.1
	c0.8-2.4,1.1-5,1.1-7.5c0.1-3.7-0.3-7.3-0.4-11c-0.1-1.6-0.1-3.2,0.1-4.8c1-9.2,2.1-18.4,3.1-27.6c0.7-6.6,1.2-13.2,1.7-19.8
	c0.3-4.3,0.6-8.6,0.8-12.9c0-0.2-0.1-0.6,0.1-0.7c1.3-1.4,0.6-3,0.4-4.5c-0.4-3.2-1-6.3-1.2-9.5c-0.2-3.8,0.3-7.6,1.9-11
	c1.6-3.5,3.6-6.7,5.5-10.1c0.3-0.6,0.7-0.9,0.3-1.7c-0.2-0.4,0.1-1,0.3-1.5c1.3-4.1,2.8-8.1,3.9-12.3c1.6-5.4,2.9-10.9,4.4-16.4
	c1.9-7.2,3.6-14.4,5.7-21.5c1.9-6.3,3.8-12.5,6.4-18.5c3-6.8,5.8-13.6,8.7-20.4c1.1-2.5,2.5-4.8,3.8-7.2c1.9-3.5,3.3-7.3,4.5-11.1
	c0.9-2.8,1.8-5.6,2.8-8.5c1.8,0.5,3.2,1.3,3.4,3.4c0.2,1.5,1.2,2.1,2.4,2.2c2.8,0.3,5.7,0.7,8.6,0.7c2.4,0.1,4.8-0.1,7.2-0.4
	c6.1-0.7,12.3-0.5,18.3-1.6c0.6-0.1,1.2,0.1,1.9,0.3c4.7,0.9,9.3,2.1,14.1,2.7c2.6,0.3,5.4-0.1,8.1-0.4c3.5-0.3,7-0.8,10.4-1.3
	c3.9-0.6,7.9-1.2,11.4-3.3c0.1-0.1,0.3,0,0.8-0.1c0.4,1.4,1,2.9,1.3,4.4c1,3.9,1.8,7.9,2.8,11.9c2.9,11,5.9,22,8.8,33
	c0.9,3.3,2,6.6,2.8,9.9c1.4,6.4,2.5,12.8,3.9,19.2c0.7,3.2,1.6,6.3,2.5,9.5c1.6,5.8,3,11.6,4.8,17.3c1.1,3.4,2.6,6.6,4,10
	c2.1,5.1,4.4,10.1,6.3,15.2c1.7,4.8,3.3,9.7,3.5,14.9c0,0.9,0.4,1.7,0.6,2.6c0.1,0.8,0.1,1.7,0.1,2.5c0,0.6-0.1,1.3,0,1.9
	c0.6,3.3,1.3,6.6,1.8,9.9c0.7,5.2,1.3,10.4,2,15.7c0.3,2.8,0.7,5.5,0.9,8.3c0.1,1.5,0.2,3,0.2,4.5c0.1,5.3,0.2,10.7,0.3,16
	c0,1.8-0.4,3.6-0.3,5.5c0.2,7.4-1.7,14.6-2.4,21.9c-0.6,6.8-0.1,13.5,2.1,20.1c1.1,3.3,2,6.5,3.2,9.8c0.7,1.8,1.7,3.4,2.6,5.3
	c-2.2,0-4.1,0-6,0c-1.2,0-2.3,0-3.5,0c-1.4,0-2.9,0.3-4.3,0.2c-3.9-0.4-7.6,0.5-11.2,1.8c-3.2,1.1-6.6,1.6-10,2.4
	c-0.7-1.9-0.3-3.5-0.2-5.2c0.4-4.4,0.9-8.9,1.3-13.3c0.2-2.1,0.5-4.3,0.6-6.4c0.1-2.4,0.4-4.8,0-7.1c-1.6-9.4-2-18.9-2.5-28.4
	c-0.4-7.3-0.9-14.7-1.1-22c-0.2-7.8,0.7-15.6,2.2-23.3c0.2-0.8,0.2-1.5,0.3-2.4c-1.3,0.2-1.3,0.2-1.8,1.8c-1.3-2.5-2.7-4.9-3.8-7.3
	c-2.8-6.1-6.3-11.8-9.7-17.6c-3.9-6.6-7.5-13.4-10.4-20.5c-0.6-1.5-1.4-2.9-2.1-4.3c-2.9-6-5.7-12.1-8.7-18.1
	c-2.3-4.6-5.1-8.9-7.4-13.4c-3.1-6.2-5.9-12.6-9-18.8c-2.7-5.4-5.2-11-7.3-16.7c-0.7-1.8-0.9-3.5-0.1-5.3
	C278.3,329.3,278.1,327.4,277.7,325z"/>
<path class="st2" d="M238.8,44.4c1.2-0.2,2-0.3,2.7-0.4c0.1,0.1,0.1,0.2,0.1,0.3c-0.3,0.2-0.6,0.4-0.9,0.6c-0.4,0.2-0.7,0.5-1.3,0.9
	c1.8,0.4,2.9-0.6,3.9-1.4c1.6-1.5,3.3-2,5.4-1.8c3.1,0.2,6.1-0.2,8.8-2.1c2.3-1.6,5-2.2,7.8-1.7c2.9,0.6,5.4-1,8.1-1.3
	c0.8-0.1,1.7-0.2,2.3,0.2c2.2,1.5,4.3,1.3,6.6,0.3c0.4-0.2,0.7-0.3,1.2-0.5c0.6,0.4,1.1,0.8,1.8,1.3c0.7-0.3,1.3-0.5,2.2-0.8
	c0.7,3.6,1.8,7,1.6,10.6c-0.2,4.6-0.3,9.2-0.4,13.9c0,2.8,0.5,5.6,0.3,8.3c-0.6,7.2-2.2,14.3-5.5,20.9c-1,2.1-1.9,4.2-2.9,6.3
	c-0.5,0.9-1.1,1.7-1.9,2.4c-3.1,2.8-6.6,4.5-10.8,5.1c-4.7,0.7-8.5-0.7-11.9-4c-3.9-3.9-6.3-8.8-9.3-13.3c-1-1.5-2-2.9-2.9-4.4
	c-0.4-0.8-0.8-1.7-0.8-2.6c-0.2-5.3-0.6-10.5-1.8-15.6c-0.6-2.6-0.7-5.4-1.1-8c-0.1-0.5,0-1-0.2-1.4
	C238.4,52.2,239.6,48.3,238.8,44.4z M278.4,87.6L278.4,87.6c-2.9-2.4-3.9-2.4-7.6-0.3c-0.5-0.2-1.1-0.5-1.7-0.8
	c-2-1.1-3.1-1-4.3,0.8c-1.1,1.7-2.4,2.9-4.2,3.6c-0.1,0-0.1,0.3-0.2,0.7c1-0.2,1.8-0.3,2.6-0.6c1.3-0.5,2.3-0.4,3.2,0.7
	c0.3,0.4,0.7,0.7,1.1,1c2.1,1.8,5.4,1.8,7.4,0c1.7-1.5,3.4-3.2,5.2-5C279.3,87.6,278.8,87.6,278.4,87.6z M273.7,74.1
	c-2.5-3.9-2.8-8-2.4-12.7c3.6,2.1,6.6,1.1,9.4-1.3c-0.7,0.1-1.4,0.2-2.1,0.4c0-0.7,0-1.3,0-2.1c1,0,1.9,0,3.1,0
	c-1.8-2-3.8-1.3-6.3-1.3c1.9-1.4,3.3-2.6,4.9-3.6c1.7-1,3.5,0,5.8,0.3c-0.7-0.7-1-1.1-1.3-1.3c-2.1-1.1-4.3-1.1-6.3,0.2
	c-3.3,2.1-6.6,4.3-9.8,6.3c0.3,1.1,0.8,2.2,0.8,3.1c-0.1,4.5,1.3,8.6,2.4,13.1C272.6,74.9,273.1,74.5,273.7,74.1z M257.7,63.1
	c-1.1,0.2-2,0.4-3.3,0.7c0.5-1,0.8-1.6,1.1-2.2c2.4,0.2,4.7,1.7,7-0.4c-0.5-0.4-0.9-0.8-1.3-1c-3.9-1.5-7.9-3-11.8-4.4
	c-0.9-0.3-1.9-0.4-2.8-0.4c-1.8,0-2.5,0.8-3.2,3.2c0.8-0.6,1.4-1,1.9-1.3c1-0.6,2-1.1,3.1-0.5c1.9,0.9,3.8,1.8,6.1,2.9
	c-3.2,0.6-5.9,1-8,3.1C250.4,66,255.6,66.2,257.7,63.1z M272.5,78.8c-2.4-0.5-4.8-1.6-7.4-1.2c0,0.3,0,0.6,0,0.6
	c1.2,1.4,5.7,2.4,7.4,1.6c0.3-0.1,0.5-0.3,0.8-0.5c0.7-0.6,1.4-1.2,2.1-1.9C273.8,76.7,273.4,78.3,272.5,78.8z M271.1,49
	c-4.3,1-8.5,1.3-12.6,1.6c3.5,1.3,6.9-0.6,10.4-0.5C269.6,50.1,270.4,49.4,271.1,49z M250.7,67.3c2.4,0.4,4.3,0.1,6.1-1.2
	C254.9,66.4,253,66.8,250.7,67.3z"/>
<path class="st2" d="M25.5,154.4c2.9-1.9,5.7-2.4,8.5-1.9c3.3,0.7,6.5-0.4,9.7-0.2c1.3,0.1,1.5-0.9,1.2-2.1
	c-0.5-0.2-1.1-0.4-1.7-0.6c-3.2-1.2-6-2.8-8.2-5.5c-2.1-2.7-4.7-5-7-7.5c-1.6-1.8-3-3.7-4.4-5.7c-0.5-0.6-0.7-1.4-1.1-2.2
	c2.2-0.4,3.7,0.4,5.1,1.4c3.6,2.7,7.2,5.5,10.7,8.4c1.2,1,1.2,1.1,2.7-0.1c-1.2-0.9-2.4-1.9-3.6-2.7c-4.7-3.3-8.8-7-12.4-11.4
	c-0.5-0.6-0.9-1.3-1.4-1.9c-1.2-1.5-1.6-2.9,0-4.3c0.1-0.1,0.1-0.4,0.1-0.9c2.8,1.4,5.6,2.7,7.2,5.2c2.8,4.6,7.1,7.4,11.4,10.3
	c1.8,1.3,3.6,2.5,5.5,3.8c0.4,0.3,0.9,0.3,1.3,0.5c1-0.5,0.9-1.2,0.3-1.7c-3.1-2.5-4.7-6.3-7.5-9c-1.7-1.6-3.2-3.3-4.7-5.1
	c-1.2-1.5-2.3-3.1-3.3-4.7c-0.4-0.7-1.3-1.8-0.5-2.6c1-0.9,1.7,0.3,2.4,0.8c1,0.7,2,1.6,2.8,2.5c3.7,3.8,7.4,7.7,11.2,11.4
	c2,1.9,4.4,3.4,6.6,5.1c2.1,1.5,4.4,2.9,6.6,4.4c0.9,0.6,1.7,1.1,2.8,1.9c-0.5,0.8-1,1.7-1.5,2.5c-0.3,0.4-0.8,0.7-0.9,1.1
	c-0.1,0.4-0.1,1,0.2,1.2c0.2,0.2,1,0.3,1.2,0.1c0.8-0.7,1.6-1.4,2-2.3c1.8-4,3-8.1,1.2-12.5c-0.8-1.8-1.2-3.8-1.7-5.7
	c-0.4-1.7,0.2-3,2-3.6c1.5,0.8,1.9,2.3,2.5,3.6c1.6,3.8,3.3,7.6,4.9,11.4c0.2,0.4,0.3,0.7,0.6,1c1.8,2.3,1.7,4.8,0.8,7.3
	c-0.7,1.9-1.6,3.8-2.7,5.6c-1.9,3.1-4,6.1-6,9.2c-1.3,2-3,3.7-5.1,4.9c-1.7,1-3.3,1.3-5.4,0.4c-3.6-1.5-7.3-2.6-11.2-2.9
	c-2.8-0.2-5.4-0.9-8-2c-3.4-1.4-7-2.3-10.4-3.5C27.4,155.4,26.4,154.9,25.5,154.4z"/>
<path class="st3" d="M205.6,554c0.4,4.1,0.8,8.5,1.3,12.8c0.3,2.4,0.8,4.7,1.2,7c0.5,3,1.1,6,1.4,9c0.2,2.2-1.1,3.8-3,4.8
	c-1.6,0.8-3.4,1.4-5.1,2c-4,1.4-8.2,1.8-12.5,1.6c-2.1-0.1-4.2-0.6-6.3-1c-3.3-0.6-6.6-1.2-9.8-2c-2.4-0.6-4.3-1.9-5.4-4.3
	c-0.5-1.1-0.6-2.1-0.1-3.1c1.8-3.6,3.4-7.4,5.5-10.8c3-4.6,4-9.5,3.6-14.8c0-0.6,0-1.3-0.1-1.9c0-0.9,0.4-1.2,1.2-1.4
	c4.7-1.2,9.6-1.5,14.3-0.8C196.3,551.7,201,551.4,205.6,554z"/>
<path class="st3" d="M366.2,557.1c0,2.7-0.2,4.9,0,7.1c0.5,4.9,2.5,9.4,4.2,13.9c1.2,3.2,2.4,6.4,3.7,9.6c0.2,0.5,0.3,1.1,0.5,1.6
	c1.5,3.9,0.2,7-3.1,9.2c-4.7,3.2-10,5.4-15.8,5.6c-4.5,0.1-8.6-1.4-12.1-4.3c-2.5-2.1-3.6-4.7-3.1-8.3c0.4,0.3,0.6,0.5,0.8,0.7
	c3.4,4,7.9,5.4,12.9,6.1c1.6,0.2,3.3,0.4,5,0.4c4,0.2,7.5-1.3,10.9-3c0.8-0.4,1.3-1.3,1.9-2c-0.7-1.1-1.3-1.1-2.1-0.5
	c-2.8,2.2-6.1,3.4-9.5,3.5c-5,0.1-10.1,0.1-14.6-2.7c-1.3-0.8-2.6-1.9-3.7-3c-1.1-1.2-1.6-2.6-1.6-4.4c0.1-5.9,0.6-11.6,3.1-17.1
	c1.1-2.4,1.1-5.1,1.2-7.8c0.1-1.5,0.5-2.1,2.1-2.6c3.9-1.2,7.8-2.2,12-1.7c1,0.1,2.1-0.1,3.1-0.2
	C363.3,557.2,364.6,557.2,366.2,557.1z"/>
<path class="st2" d="M255.3,103.6c0.8,0.4,1.5,0.6,2,1.1c4.1,3.5,8.8,3.2,13.6,1.9c3.2-0.9,6-2.5,8.3-4.9c1.1-1.1,2.3-2,3.5-3.1
	c0.2,1.6,0.5,3.4,0.5,5.3c0.1,2.9,0.9,5.5,2.5,7.9c0.7,1.1,0.6,1.9-0.2,2.8c-1.8,2-4,3.6-6.4,4.5c-4.4,1.7-8.9,3.5-13.6,4.5
	c-3.6,0.8-7.5,0.9-11.1-0.5c-1-0.4-2-1.1-2.6-1.9c-0.4-0.6-0.6-1.8-0.3-2.4c2.3-4.4,3-9.2,3.6-14.1
	C255.1,104.5,255.1,104.3,255.3,103.6z"/>
<path class="st2" d="M329.3,271.4c-0.3,0.7-0.4,1.1-0.7,1.5c-1.6,2.5-3.2,4.9-4.8,7.4c-2.3,3.5-5.7,5.6-9.7,6.5
	c-3.2,0.7-6.6,1.1-9.8,1.7c-4.3,0.8-8.7,1-13.1,0.9c-2.3-0.1-4.5-0.3-6.8-0.5c0-0.2-0.1-0.3-0.1-0.5c0.4-0.3,0.7-0.7,1.2-0.9
	c1.8-0.9,3.6-1.7,5.4-2.4c3-1.1,5.4-3,7.4-5.4c3-3.5,6.2-6.9,9.4-10.2c0.9-0.9,2-1.6,3.1-2.1c1.2-0.6,2.3-0.5,3.6,0.3
	c1.3,0.8,2.9,1.1,4.5,1.5c2.5,0.6,5,1.7,7.7,1.6C327.4,270.5,328.2,271,329.3,271.4z"/>
<path class="st3" d="M167,588.7c1.6,0.8,2.7,1.5,3.9,1.9c3.4,1.1,6.9,2,10.3,2.9c1.9,0.5,3.9,0.7,5.9,1.1c3.2,0.6,6.3-0.1,9.5-0.2
	c0.9,0,1.8-0.1,2.6-0.3c1.3-0.4,2.5-0.8,3.7-1.4c2.4-1.2,4.7-2.5,6.9-3.8c0.5,1.8,1,3.6,1.5,5.4c-0.6,0.3-1.1,0.6-1.7,0.8
	c-3.7,0.9-7.4,1.9-11.1,2.7c-4.9,1-9.9,1.9-14.9,1.8c-3.9,0-7.4-1-10.8-2.8C169.8,595,168.3,592.2,167,588.7z"/>
<path class="st4" d="M251.1,33.9c1.8-3,2.3-4.5,3-8.9c0.8-0.4,1.7-0.7,2.5-1.1c0.1,0.1,0.2,0.2,0.3,0.2c-1,1.7-2.1,3.3-3.1,5
	c0.1,0.1,0.3,0.2,0.4,0.3c2.5-2.7,4-6.1,6.5-8.9c-0.5,1-0.9,2.1-1.5,3.1c-0.8,1.5-2.2,2.8-2.1,4.6c0,0.1-0.1,0.3-0.2,0.3
	c-1.5,0.1-1.5,1.5-1.9,2.5c-0.9,2-1.9,3.9-3.5,5.3c-0.5,0.4-0.9,0.9-1.3,1.4c-0.8,1-1.4,2-2.9,1.6c-0.2,0-0.5,0.1-0.6,0.3
	c-1.1,2-3.1,1.8-5.1,2c1-0.9,2.1-1.8,2.9-2.8c0.5-0.6,1.8-1.1,1-2.3c-0.1-0.2,0.6-0.8,0.9-1.3c0.6-1,1.3-2,1.9-2.9l-0.1,0.1
	c1.2,0.2,1.4-0.9,2-1.5l-0.1,0.1c0.6-0.5,1.2-1,2.2-1.7C251.9,31.1,251.5,32.5,251.1,33.9c-1.2,1-1.5,1.5-1.7,3
	C250,35.8,250.5,34.9,251.1,33.9z"/>
<path class="st4" d="M258.3,30.5c-0.9,1.1-1.8,2.3-2.7,3.4c2,0.2,2.5-1.8,4.1-2.5c-0.4,1.9-1.9,2.7-3.1,4.3c0.8,0.2,1.4,0.3,2,0.4
	c0.4,0.1,0.8,0.1,1.2,0.2c-0.2,0.2-0.4,0.4-0.6,0.5c-2.5,3.1-6,3.6-10.1,4.1c1.3-1.7,2.2-3.3,3.4-4.4c1.3-1.2,2.3-2.5,3.2-4
	c1.3-2.3,2.5-4.8,3.8-7.1c0.1-0.2,0.3-0.5,0.8-1.1c-0.3,1.4-0.4,2.2-0.6,3l0.1-0.1C259.2,28.3,258.7,29.4,258.3,30.5L258.3,30.5z"/>
<path class="st2" d="M241.1,78.3c-2.6-1.5-3.4-3.6-4-5.9c-0.5-1.8-1-3.7-1.4-5.5c-0.4-1.5-0.7-3-1.2-5c2,1,3.1,1.8,3.5,3.7
	C238.9,69.6,240,73.7,241.1,78.3z"/>
<path class="st4" d="M271.7,25.8c0.2-0.1,0.5-0.3,0.9-0.5c-0.1,1-0.3,1.9-0.4,2.9l0.1-0.1c-0.5,1.2-1,2.4-1.6,3.6
	c-0.5,1.1-1.2,2.2-1.8,3.2c0.2,0.1,0.4,0.2,0.6,0.3c1.7-2.5,3.4-5,5.1-7.4c0.2-0.2,0.1-0.6,0.1-0.9l0.1-0.1c0.4-0.3,0.7-0.6,1.2-0.9
	c-0.1,2.8-1.3,5.2-2.8,7.2c-1.1,1.6-2.9,2.9-4.7,3.8c-1.1,0.5-2.7-0.1-4.3-0.2c0.4-0.7,0.6-1.4,1.6-1.4c0,0.3,0,0.6,0.1,1.2
	c2.3-2.5,3.8-5,4.5-7.9C270.7,27.6,271.2,26.6,271.7,25.8L271.7,25.8z"/>
<path class="st2" d="M290.6,58.3c0.4-0.3,0.7-0.5,0.9-0.7c0.6-0.5,1.3-1,1.9-0.3c0.3,0.4,0.4,1.1,0.3,1.7c-0.2,2.3-0.6,4.6-0.7,6.9
	c-0.1,2-0.1,2-2.4,3.4C290.1,65.4,290.8,61.8,290.6,58.3z"/>
<path class="st4" d="M277.8,36.6c4.6-1,7.7-4.1,11.2-7.2c-0.5,2.1-0.7,4.3-2.9,4.9c-0.9,0.2-1.6,0.7-2.4,1c-0.4,0.2-0.6,0.7-0.9,1
	C281.6,37.5,279.8,37.7,277.8,36.6z"/>
<path class="st4" d="M271.8,35.7c2.8-2.5,4.7-5.3,6.4-8.7C277.7,32.5,275.1,35.7,271.8,35.7z"/>
<path class="st4" d="M235.5,36.3c1.7-2,3.9-2.5,6.2-3.6c-1.2,2.3-2.9,3.2-4.3,4.5C236.7,37,236.3,36.7,235.5,36.3z"/>
<path d="M270.1,28.6c-0.6,3-2.2,5.5-4.5,7.9c-0.1-0.6-0.1-0.9-0.1-1.2l-0.1,0.1c0.8-0.7,1.6-1.5,1.5-2.7c0.3-0.5,0.6-0.9,0.9-1.3
	c0.5-0.8,1-1.6,1.5-2.4C269.6,28.8,269.8,28.7,270.1,28.6L270.1,28.6z"/>
<path class="st4" d="M245,34c-1.2,3-3.5,4.9-6.1,6.3c-0.1-0.1-0.3-0.3-0.4-0.4C240.7,37.9,242.8,35.9,245,34z"/>
<path class="st4" d="M282.9,28.2c0.7-1.7,1.3-3.4,2.1-5.4C286.1,25.5,285.7,26.4,282.9,28.2z"/>
<path class="st4" d="M266,30c0.1-0.3,0.3-0.6,0.4-0.9c0.2-0.1,0.4-0.2,0.6-0.3c-0.3,3-1.8,5.6-4.5,7.2C263.8,33.8,264.9,31.9,266,30
	z"/>
<path class="st4" d="M278.5,21.5c0.4,2.8-1.1,4.9-2.2,7C276.5,26.1,276.4,23.5,278.5,21.5z"/>
<path class="st4" d="M282.1,28.2c-0.2,2.8-2.5,4-4.1,5.8C278.5,31.5,280.8,30.2,282.1,28.2z"/>
<path class="st4" d="M279.1,18.1c1.5,2.6,1.4,5,0.5,7.6c-0.1-0.4-0.1-0.6-0.1-0.8c0-0.3,0.2-0.6,0.2-0.9c-0.1-1.1,0.2-2.5-0.4-3.1
	C278.5,19.8,279,19.2,279.1,18.1z"/>
<path class="st4" d="M286.3,29.3c1.2-1.6,0.1-3.9,2.1-5.5C288.4,26.2,287.4,27.8,286.3,29.3z"/>
<path class="st4" d="M300.9,44.6c0.3-1.4,0.7-2.8,1.1-4.7c0.5,0.6,1.1,1,1,1.2c-0.5,1.2-1.1,2.4-1.7,3.7
	C301.2,44.7,301.1,44.7,300.9,44.6z"/>
<path class="st4" d="M288.2,28.3c0.6-2.5,1.1-4.6,1.6-6.5C290.2,24.3,290,25.2,288.2,28.3z"/>
<path class="st4" d="M237.5,43.2c0,2.2,0,4.3,0,6.5c-0.1,0-0.2,0-0.3,0c0-2.1,0-4.3,0-6.4C237.3,43.3,237.4,43.2,237.5,43.2z"/>
<path class="st4" d="M262.1,31.5c-0.9,1.1-1.8,2.2-2.6,3.3c-0.2-0.1-0.3-0.2-0.5-0.4c0.9-1.1,1.7-2.2,2.6-3.3
	C261.8,31.3,262,31.4,262.1,31.5z"/>
<path class="st4" d="M279.2,27.6c0.5,0.1,0.8,0.2,1.4,0.3c-0.8,1.1-1.5,2.1-2.1,3c-0.1-0.1-0.3-0.1-0.4-0.2
	C278.4,29.7,278.8,28.7,279.2,27.6z"/>
<path class="st4" d="M259.1,36.8c0.2-0.2,0.4-0.4,0.6-0.5c0.6-0.8,1.3-1.6,1.9-2.4l0-0.1c-0.2,1-0.5,2-0.8,3.4
	C260.4,37.1,259.8,37,259.1,36.8z"/>
<path class="st4" d="M233.2,40.3c0.3-1.1,0.6-2.2,0.8-3.3c0.1,0,0.2,0.1,0.4,0.1c-0.3,1.1-0.6,2.1-0.9,3.2
	C233.4,40.3,233.3,40.3,233.2,40.3z"/>
<path class="st4" d="M242.1,39.7c0.8-0.8,1.7-1.5,2.5-2.3c0.1,0.1,0.1,0.1,0.2,0.2c-0.8,0.8-1.6,1.6-2.4,2.4
	C242.3,39.9,242.2,39.8,242.1,39.7z"/>
<path class="st4" d="M298.4,54.5c0.6-0.5,1.3-1,2-1.6C300.3,54,300.3,54,298.4,54.5z"/>
<path class="st4" d="M235.2,42.1c0,0.8,0,1.6,0,2.4c-0.1,0-0.2,0-0.2,0c0-0.8,0-1.6,0-2.4C235,42.2,235.1,42.1,235.2,42.1z"/>
<path class="st4" d="M266.9,32.6c0.1,1.2-0.7,2-1.5,2.7C265.6,34.3,266,33.3,266.9,32.6z"/>
<g>
	<path class="st4" d="M248.1,32.6c-0.7,0.5-1.3,1-2,1.5c1.6-3.7,5-6.2,5.9-10.5c0.8,1.5,1.3,2.3-0.2,3.5c-1.1,0.9-1.3,2.8-1.9,4.2
		l0.1-0.1C249.1,31.3,248.3,31.6,248.1,32.6L248.1,32.6z"/>
	<path class="st4" d="M259.5,27.4c0.4-0.8,0.8-1.6,1.3-2.4c0.6-0.8,1.3-1.5,2.3-2.1c0,0.3,0,0.7-0.1,1c-1.3,2.3-2.7,4.6-4.1,6.9
		c-0.2,0.4-0.6,0.6-0.8-0.1l-0.1,0.1c0.5-1.2,1-2.3,1.5-3.5L259.5,27.4z"/>
	<path class="st4" d="M265.9,30.2c-0.8,0.8-1.6,1.7-2.4,2.5c0-0.3,0-0.6,0-0.8c1.6-3.1,3.2-6.1,4.8-9.3c-0.3,1.8-0.1,3.6-1.3,5.2
		c-0.3,0.4-0.4,1-0.6,1.5C266.2,29.6,266,29.9,265.9,30.2z"/>
	<path class="st4" d="M265.4,25c-0.4,2.6-2.6,3.8-4.2,5.4c0.6-1.4,1-2.9,1.9-4.2C263.5,25.6,264.6,25.4,265.4,25z"/>
	<path class="st4" d="M269.8,27.9c0.7-2.4,1-5,3.3-6.8c-0.5,1.6-1.1,3.2-1.6,4.8l0.1-0.1C271,26.5,270.4,27.2,269.8,27.9z"/>
	<path class="st4" d="M274.6,27L274.6,27c-0.9,1.2-1.7,2.3-2.8,3.8c0.2-1.2,0.3-1.9,0.3-2.5l-0.1,0.1c0.3-0.7,0.6-1.4,1-2
		c0.1-0.2,0.5-0.3,0.8-0.5l0,0c0.1,0.1,0.2,0.4,0.3,0.4C275.1,26.1,274.9,26.5,274.6,27z"/>
	<path class="st4" d="M269.2,29.1c-0.5,0.8-1,1.6-1.5,2.4c0.5-2.2,1-4.4,1.5-6.6c0.2,0,0.3,0.1,0.5,0.1
		C269.5,26.3,269.4,27.7,269.2,29.1z"/>
	<path class="st4" d="M247.9,27.8c-0.5,1-1,1.9-1.5,2.9c-0.4-1.4,0.3-2.3,0.9-3.2C247.5,27.6,247.7,27.7,247.9,27.8z"/>
	<path class="st4" d="M243.2,32.7c-0.3,0.4-0.5,0.9-0.8,1.3c-0.1-0.1-0.2-0.1-0.3-0.2c0.3-0.5,0.5-0.9,0.8-1.4
		C243,32.5,243.1,32.6,243.2,32.7z"/>
</g>
<path d="M269.1,146.3c0.4,0.9,0.9,1.8,1.2,2.8c2.7,7.8,3.9,15.9,5.2,24.1c0.7,4.6,1.6,9.1,2,13.7c0.7,6.6,1.2,13.2,1.5,19.8
	c0.3,7.5,0.3,15,0.3,22.5c0,1.9-0.5,3.8-0.5,5.7c-0.1,3.4,0,6.9,0,10.3c0,0.7,0,1.4,0,2.1c-1.5,0.3-1.8-0.6-1.8-1.5
	c0-3.4-0.3-6.8,0.1-10.1c1-7.3,1-14.7,0.6-22c-0.5-8.4-1.1-16.7-1.8-25.1c-0.3-3.7-0.9-7.3-1.5-10.9c-0.9-5.8-1.8-11.6-3-17.4
	c-0.8-3.9-1.9-7.7-2.9-11.6c-0.2-0.7-0.2-1.5-0.2-2.2C268.6,146.4,268.9,146.4,269.1,146.3z"/>
<path d="M273.7,74.1c-0.6,0.4-1.2,0.8-1.9,1.3c-1.2-4.5-2.5-8.7-2.4-13.1c0-1-0.5-2-0.8-3.1c3.2-2,6.5-4.2,9.8-6.3
	c2.1-1.3,4.2-1.3,6.3-0.2c0.4,0.2,0.6,0.6,1.3,1.3c-2.3-0.4-4.1-1.4-5.8-0.3c-1.6,1-3,2.2-4.9,3.6c2.5,0,4.5-0.7,6.3,1.3
	c-1.2,0-2.1,0-3.1,0c0,0.7,0,1.4,0,2.1c0.7-0.1,1.4-0.2,2.1-0.4c-2.8,2.4-5.7,3.4-9.4,1.3C271,66.1,271.2,70.2,273.7,74.1z
	 M272.1,60.6c1.1,0.5,2,1.2,3.5,0.8c-0.5-0.7-0.9-1.3-1.3-1.9C273.5,59.8,272.8,60.1,272.1,60.6z"/>
<path d="M257.7,63.1c-2.1,3.1-7.3,2.9-11.3-0.3c2.1-2.1,4.9-2.5,8-3.1c-2.3-1.1-4.2-2-6.1-2.9c-1.1-0.5-2.2-0.1-3.1,0.5
	c-0.5,0.4-1.1,0.7-1.9,1.3c0.7-2.4,1.4-3.2,3.2-3.2c0.9,0,1.9,0.1,2.8,0.4c4,1.4,7.9,2.9,11.8,4.4c0.5,0.2,0.8,0.6,1.3,1
	c-2.4,2.1-4.7,0.6-7,0.4c-0.3,0.6-0.6,1.2-1.1,2.2C255.7,63.6,256.6,63.4,257.7,63.1z M250.5,62.1c-0.7,0.3-1.1,0.5-2,1
	c1.1,0.3,1.7,0.4,2.5,0.6C250.8,63,250.7,62.7,250.5,62.1z"/>
<path d="M278.4,87.6c0.4,0,0.9,0.1,1.5,0.1c-1.9,1.8-3.5,3.4-5.2,5c-2,1.8-5.3,1.8-7.4,0c-0.4-0.3-0.8-0.6-1.1-1
	c-0.9-1.1-1.9-1.2-3.2-0.7c-0.8,0.3-1.6,0.4-2.6,0.6c0.1-0.5,0.1-0.7,0.2-0.7c1.9-0.7,3.1-1.9,4.2-3.6c1.2-1.8,2.3-1.9,4.3-0.8
	c0.6,0.3,1.1,0.5,1.7,0.8C274.5,85.1,275.5,85.2,278.4,87.6c-0.4,0.1-0.9,0.1-1.4,0.1c-0.6-0.6-1.2-1.1-1.7-1.6
	c-1.6,0.7-3.2,0.9-4.1,2.5c0.8,0.8,1.7,0.6,2.2,0.1c1.1-1.2,2.4-0.9,3.7-1c-0.1,0.2-0.2,0.6-0.4,0.6c-0.9,0.1-1.9,0-2.1,1.3
	c0,0.2-0.5,0.3-0.8,0.5c-1.7,0.7-3.3,0.8-5.1,0.1c-0.9-0.4-1.9-1-2.7,0.2c2.8,3.4,6.4,3.4,8.6,1.2c1.1-1,2.4-1.8,3.5-2.8
	C278.4,88.4,278.3,87.9,278.4,87.6z M270.7,88.9c-3.1-2.7-3.6-2.8-5-0.9C267.3,88.3,268.8,88.6,270.7,88.9z"/>
<path d="M272.5,78.8c0.9-0.5,1.3-2.1,2.9-1.4c-0.8,0.7-1.5,1.3-2.1,1.9c-0.2,0.2-0.5,0.4-0.8,0.5c-1.7,0.7-6.2-0.3-7.4-1.6
	c-0.1-0.1,0-0.3,0-0.6C267.7,77.2,270,78.3,272.5,78.8z"/>
<path d="M271.1,49c-0.7,0.4-1.5,1.1-2.2,1.1c-3.5-0.1-6.9,1.8-10.4,0.5C262.7,50.3,266.8,50,271.1,49z"/>
<path d="M250.7,67.3c2.3-0.5,4.1-0.8,6.1-1.2C255,67.4,253.2,67.7,250.7,67.3z"/>
<path d="M251.1,33.9c-0.6,1-1.1,2-1.7,3C249.6,35.3,249.9,34.9,251.1,33.9C251.1,33.9,251.1,33.9,251.1,33.9z"/>
<path d="M254.6,37.2c0.2-1.1,1.1-1.4,2-1.5C256.1,36.4,255.8,37.5,254.6,37.2z"/>
<path d="M272.2,28.1c-0.1,0.7-0.2,1.4-0.3,2.5c1.1-1.5,1.9-2.6,2.7-3.7c0,0.3,0.1,0.7-0.1,0.9c-1.7,2.5-3.4,5-5.1,7.4
	c-0.2-0.1-0.4-0.2-0.6-0.3c0.6-1.1,1.2-2.1,1.8-3.2C271.2,30.5,271.7,29.3,272.2,28.1z"/>
<path class="st4" d="M272.1,60.6c0.8-0.4,1.5-0.8,2.2-1.2c0.4,0.6,0.8,1.2,1.3,1.9C274.1,61.8,273.1,61.1,272.1,60.6z"/>
<path class="st4" d="M250.5,62.1c0.2,0.6,0.3,0.9,0.6,1.6c-0.8-0.2-1.4-0.4-2.5-0.6C249.4,62.6,249.8,62.4,250.5,62.1z"/>
<path class="st2" d="M278.4,87.6c-0.1,0.4,0,0.9-0.2,1c-1.1,1-2.5,1.7-3.5,2.8c-2.2,2.2-5.8,2.2-8.6-1.2c0.9-1.1,1.9-0.5,2.7-0.2
	c1.7,0.8,3.4,0.6,5.1-0.1c0.3-0.1,0.8-0.3,0.8-0.5c0.2-1.3,1.2-1.1,2.1-1.3c0.1,0,0.2-0.4,0.4-0.6l0,0
	C277.5,87.7,278,87.6,278.4,87.6C278.4,87.6,278.4,87.6,278.4,87.6z"/>
<path class="st2" d="M277,87.6c-1.3,0-2.6-0.2-3.7,1c-0.4,0.5-1.4,0.7-2.2-0.1c0.9-1.5,2.5-1.8,4.1-2.5
	C275.8,86.6,276.4,87.1,277,87.6L277,87.6z"/>
<path class="st2" d="M270.7,88.9c-1.9-0.3-3.4-0.6-5-0.9C267.1,86.1,267.6,86.2,270.7,88.9z"/>
<path class="st5" d="M261.1,204.6c-0.3-0.6-0.7-1.1-1-1.7c-2.5-5.6-4.8-11.3-7.5-16.8c-1.7-3.5-3.9-6.8-5.9-10.1
	c-0.4-0.8-1-1.5-1.4-2.2c-1.3-2.4-2.8-4.7-4.8-6.5c-2.4-2.2-4.3-5-7.3-6.5c-1.5-0.8-3-1.5-4.5-2.2c-1-0.4-1.1-1-0.6-2.2
	c1.1,0.4,2.3,0.8,3.3,1.3c3.2,1.5,5.8,4,8.4,6.3c2.4,2.1,4.3,4.5,5.9,7.2c2.8,4.8,5.8,9.5,8.4,14.5c2.6,5,4.8,10.2,7.1,15.4
	c0.5,1,0.4,2.3,0.5,3.5C261.5,204.4,261.3,204.5,261.1,204.6z"/>
<path class="st5" d="M290.7,199.4c-0.1-5.5-0.5-11,0.5-16.4c0.8-4.1,2.5-7.8,4.5-11.5c2.4-4.4,5.3-8.3,8.8-11.9
	c2.8-2.9,5.4-6.1,8.1-9.1c1.3-1.4,2.5-2.9,3.9-4.2c0.4-0.4,1.2-0.4,1.8-0.6c0.1,0.2,0.3,0.3,0.4,0.5c-0.5,0.7-0.9,1.4-1.4,2
	c-4.9,5.4-10,10.6-14.6,16.1c-7,8.2-11,17.7-10.8,28.7c0,1.9-0.1,3.8-0.3,5.7c0,0.3-0.2,0.5-0.3,0.8
	C291.1,199.5,290.9,199.5,290.7,199.4z"/>
</svg>
