<?xml version="1.0" encoding="utf-8"?>
<!-- Generator: Adobe Illustrator 19.2.0, SVG Export Plug-In . SVG Version: 6.00 Build 0)  -->
<svg version="1.1" id="Layer_1" xmlns="http://www.w3.org/2000/svg" xmlns:xlink="http://www.w3.org/1999/xlink" x="0px" y="0px"
	 viewBox="0 0 270 629.5" style="enable-background:new 0 0 270 629.5;" xml:space="preserve">
<style type="text/css">
	.st0{fill:#FFFFFF;}
	.st1{fill:#D9205E;}
	.st2{fill:#EE317C;}
	.st3{fill:#BE232F;}
	.st4{fill:#FEE5D2;}
</style>
<g>
	<path class="st0" d="M33.8,569.5c2.8-0.8,5-2.5,7.9-2.6c3.1-0.1,6,0.3,8.7,2.1c1.9,1.2,3.8,2.2,5.9,3.4c-1.3,2.3-0.8,4.6-0.5,7
		c0.2,1.7,0.2,3.4,0.5,5c0.4,2.2,0.9,4.3,1.5,6.5c0.3,1.1,0.8,2.3,1.3,3.4c1.8,4.5,1.4,8.5-2,12.2c-2.2,2.3-4.5,4.5-7.3,6.1
		c-4.3,2.4-8.7,2.1-13.2,0.8c-2.9-0.8-5.6-2.2-7.8-4.4c-4.8-4.7-5.4-10.4-4.1-16.6c0.2-0.8,0.8-1.6,1.2-2.3
		c2.1-3.6,4.2-7.1,6.3-10.7c1.1-2,1.8-4.1,1.6-6.4C33.6,571.8,33.8,570.7,33.8,569.5z"/>
	<path class="st0" d="M252.5,316c-1.3,0.6-1.6,1.5-1.6,2.7c-0.2,3-0.5,6-0.8,9c-0.3,2.6-1.3,4.9-2.9,7c-1.2,1.6-2.4,3.2-3.6,4.8
		c-1.3,1.6-3.2,2.3-5.6,2.4c0.5-1.6,0.8-3,1.3-4.4c0.4-1.3,0.9-2.6,1.5-3.8c2.6-6,2.9-12.3,2.5-18.8c-0.1-2.1,0.2-4.3,0.3-6.4
		c0-1.3,0.5-2.7-1.3-3.8c-0.4,0.6-0.9,1.1-1.1,1.7c-1.4,4.8-4.7,8.1-8.5,11c-1.6,1.3-3.6,2-6,0.7c0.4-1,0.7-2.2,1.3-3
		c2.3-3.3,3.6-6.9,4.6-10.7c0.4-1.4,1-2.2,2.4-2.1c1.7,0,3.5,0,5.2,0.3c3.1,0.5,6.2,1.3,9.4,2c1.7,0.3,3.5,0.5,5.2,0.8
		c0.6,0.1,1.2,0.3,1.9,0.5c0.3,6.6,1.6,12.9,2.9,19.2c0.4,2.2,0,4.2-0.9,6.3c-2.2,5.2-4.9,10.2-6.3,15.7c-0.3,1.2-0.9,2.4-1.7,3.4
		c-0.3,0.5-1.3,0.9-1.8,0.7c-0.5-0.1-1-1.1-1-1.6c0.1-4.6,0.2-9.3,1.7-13.7c1.5-4.6,2.5-9.3,2.5-14.2
		C251.9,319.5,252.3,317.7,252.5,316z"/>
	<path class="st0" d="M256.6,339.7c0.2,4.3,0.4,8.6,0.7,13c-2.3-1.1-3.8-3.8-3.4-6.1C254.4,343.7,255.4,341.2,256.6,339.7z"/>
	<path d="M129.5,354.7c-0.3,1.9-0.6,3.7-1,5.6c-0.6,3.4-1,6.8-1.7,10.1c-1,4.4-2,8.7-3.3,13c-1.6,5-3.4,9.9-5.2,14.9
		c-0.8,2.2-1.8,4.5-2.8,6.6c-1.8,3.9-3.8,7.7-5.7,11.6c-1.7,3.6-3.4,7.2-5,10.8c-0.2,0.4-0.3,0.7-0.6,1.1c-3.3,4.8-5.5,10-7.6,15.4
		c-1.6,4.2-2.6,8.5-3.3,12.9c-1.1,6.4-1.9,13-3.4,19.3c-1.9,8.3-4,16.6-6.8,24.7c-2.6,7.7-6.2,15-9.4,22.5c-2.9,6.7-6.2,13.3-9,20.1
		c-2.4,5.8-2.7,11.9-1.7,18.1c0.3,2,0.4,4.1,0.6,6.2c0.1,0.7,0.1,1.4,0.3,2.1c0.5,2.7-1.1,4.5-3.8,4.2c-0.6-0.1-1.2-0.3-2.1-0.5
		c-1.1,2.6-0.9,5.2-0.3,7.8c0.8,3.7,1.8,7.3,2.9,10.9c1.9,5.8,1.1,11.6-0.6,17.2c-1.1,3.5-3.9,6-7,7.9c-1.7,1.1-3.6,1.8-5.3,2.7
		c-2.8,1.5-5.8,1.5-8.8,1.1c-4.9-0.7-9.3-2.3-12.5-6.2c-1.5-1.7-2.4-3.7-3.1-6c-1.6-4.9-1-9.8-0.7-14.7c0.1-2.2,1.2-3.9,2.3-5.7
		c1.3-2,2.5-4.1,3.7-6.2c2.2-3.9,3.2-8.1,3.3-12.6c-1.5-1-2.9-1.9-4.3-2.9c-0.6-0.4-1.2-1-1.4-1.6c-0.2-0.6-0.2-1.5,0.2-1.9
		c4.2-4.7,7.6-9.9,10.2-15.7c2.9-6.5,5.3-13.2,6.7-20.1c0.4-1.8,0.3-3.6,0.3-5.5c0-5.6,1.4-10.9,2-16.4c1-7.7,2.9-15.2,3.4-23
		c0.2-3.5,1.4-7,2.5-10.4c1.5-4.3,2.3-8.6,3.1-13c0.7-3.4,1.6-6.8,2.4-10.2c1.1-4.8,2.2-9.6,3.4-14.4c0.4-1.8,1.3-3.4,1.8-5.2
		c0.3-1,0.5-2,0.5-3c0.2-4.1,0.2-8.1,0.6-12.2c0.8-8.6,2.8-17,4.4-25.5c0.7-3.6,2.2-7.1,3.3-10.7c1.3-4.2,2.7-8.4,3-12.8
		c0.4-5.7,0.6-11.3-0.5-17c-0.8-3.7-1-7.6-1.6-11.4c-0.5-3.5-1.2-6.9-1.5-10.4c-0.6-6.7,0-13.4,1.2-20c1.5-8.2,4.6-15.7,8.6-23
		c1.1-2,2.1-4.1,3.2-6.2c0.2-0.3,0.3-0.8,0.3-1.1c0.4-4.9,0.7-9.7,1.1-14.5c0.3-3.7,0-7.3-0.4-11c-0.6-4.7-0.8-9.5-1.4-14.3
		c-0.5-4-1.2-7.9-2.1-11.8c-1.4-5.9-2.9-11.8-4.6-17.6c-1.6-5.3-3.4-10.6-6.5-15.4c-1.3-2.1-2.3-4.4-3.6-6.5
		c-0.5-0.9-1.1-1.7-1.8-2.8c-1,1.5-1.8,2.9-2.6,4.2c-2.1,3.5-4.2,7-6.3,10.4c-2.5,4-5,8-7.7,11.8c-1.7,2.5-3.7,4.8-5.8,7
		c-2.1,2.1-3,4.6-2.9,7.3c0.2,3.9,0.8,7.7,1.3,11.6c0.3,2.2,0.7,4.4,1.1,6.6c0.1,0.5,0,1,0.2,1.4c1.4,2.9,1,6.1,1.4,9.1
		c0.5,4.4,1,8.8,1.5,13.2c0.6,5.2,1.1,10.5,1.7,15.7c0.3,2.4,1.2,4.5,2.8,6.2c2.3,2.5,4.7,5,7,7.5c0.2,0.2,0.2,0.4,0.4,0.7
		c-1,2.2-3,3.2-5.3,4.2c0.2,0.9,0.3,1.9,0.7,2.9c2.1,5,3.2,10.2,3.9,15.5c0.4,3.4,0,6.8-0.9,10c-0.6,2.3-2,4.4-4.7,4.8
		c-2.1-1.1-2.2-3.2-2.2-5c0-3.7-1.1-7.2-1.7-10.8c-0.4-2.1-1.1-4-2.1-5.8c-0.2-0.3-0.5-0.6-1.1-1.2c0,0.8,0,1.2,0,1.5
		c0.5,3.9-0.8,7.4-2.2,10.9c-1.7,4.2-2.2,8.4-1,12.9c0.6,2.3,1.2,4.6,1.4,7c0.1,1.2-0.4,2.4-0.7,3.6c-2.8,0.5-3.9-1.2-5.1-2.9
		c-1.1,3.2-0.9,6.1,0.7,9.1c1.1,2,1.7,4.3,2.2,6.5s-0.1,3.5-2.2,4.4c-0.6-0.5-1.2-1.1-2-1.9c-0.6,1.4-1.9,1.8-3.1,1.3
		c-0.8-0.3-1.6-1.3-2-2.1c-1.2-2.2-2.4-4.5-3.4-6.8c-2.1-4.5-2.3-9.3-1.6-14.1c0.7-4.6,1.6-9.1,2.5-13.6c0.1-0.3,0.2-0.6,0.2-0.9
		c-0.1-4.1,0.9-8.1,1.4-12.1c0.1-0.5,0-0.9,0-1.4c-0.8-0.4-1.5-0.6-2-1c-1.6-1.2-2.1-3.5-1-5.1c2.8-4,2.8-8.3,1.9-12.8
		c-0.7-3.8-1.5-7.6-2.5-11.4c-1.6-6.5-3.4-12.9-5.1-19.4c-0.4-1.6-0.8-3.3-1.1-4.9c-0.8-4.2-2.4-8.2-3.7-12.3
		c-2.7-8.7-4.6-17.6-3.8-26.8c0.4-4.3,2-8.2,3.9-11.9c3.3-6.4,6.6-12.9,9.9-19.3c1.9-3.7,3.4-7.5,5-11.3c1.2-2.9,2.9-5.6,4.5-8.4
		c2.4-4.3,4.9-8.5,7.2-12.9c2.5-4.8,5.5-9.3,8.3-13.9c2.4-3.9,5.7-6.8,9.6-9.2c4.2-2.6,8.5-5.1,13.4-6.3c1.3-0.3,2.7-0.4,4-0.6
		c3.9-0.4,7.9-0.5,11.6-1.4c4.6-1.1,8-4.1,10.1-8.5c0.7-1.4,1.2-2.8,1.7-4.2c0.4-1.1,0.6-2.3,0-3.5c-0.2-0.4-0.2-0.9-0.3-1.4
		c-0.2-0.7-0.3-1.4,0.5-1.6c0.4-0.1,0.9,0.3,1.4,0.5c0.1,0,0.1,0.1,0.2,0.2c1,0.6,1.9,2.2,3,1.6c1.2-0.7,2.3-2.1,2.7-3.5
		c0.9-2.9,0.5-6,0.1-9.1c-0.5-0.1-0.8-0.2-1.2-0.2c-2-0.2-1.9-0.2-1.7-2.3c0.1-0.6-0.1-1.2-0.3-1.8c-0.4-0.9-0.9-1.8-1.5-3
		c-1.7,0-1.9-1.3-1.9-2.9c0-1.7,0.5-3.6-1.2-4.9c-0.1-0.1-0.1-0.4-0.2-0.7c-0.4-2.3-0.8-4.5-1.3-6.9c-1-0.2-1.9-0.5-2.8-0.6
		c-1.7-0.1-2.3-1.2-2.7-2.6c-0.2-0.9-0.3-1.9-0.4-2.8c-0.2-2.2-0.4-4.5-0.7-6.7c-0.2-1.1-0.7-2.2-1.2-3.3c-0.4-0.9-0.9-1.7-1.3-2.5
		c-0.7-1.3-1-2.5,0.1-3.8c1.1-1.3,2.2-0.9,3.4-0.4c0.4,0.2,0.8,0.2,1.1,0.3c1.2-1.5,0.9-1.4,0.3-3.4c-0.3-1-1.1-1.4-1.9-2.7
		c0.5-0.2,1.2-0.4,1.4-0.8c0.5-0.9,1.3-1.9,1.2-2.8c-0.3-2.2,1-4,1.1-6.2c-0.5-0.4-1.1-0.8-1.6-1.2c0.1-0.3,0.1-0.7,0.3-0.7
		c1.9-1,2.3-2.9,3-4.7c0.6-1.3,1.1-2.6,1.8-3.8c2-3.1,4.3-6.1,6.3-9.3c1.8-2.9,4.6-4.2,7.5-5.1c4.6-1.4,9.3-1.2,14-1
		c3.2,0.1,6.4,0.2,9.5,0.8c2,0.4,4.1,1.3,5.5,2.6c2.4,2.2,4.5,5,6.6,7.6c0.9,1,1.4,2.4,2.2,3.4c1,1.2,2.3,2.2,3.4,3.3
		c0.7,0.7,1.5,1.5,2.1,2.3c0.3,0.4,0.5,1.2,0.3,1.5c-1.1,1.5,0,2.4,0.7,3.3c0.8,1,1.7,1.9,2.5,2.9c0.6,0.7,0.7,1.6-0.3,2
		c-0.7,0.3-1.1,0.7-1,1.4c0.2,1-0.4,2.2,0.5,3.2c1.1,1.1,1.1,1.2-0.1,2.6c1.7,3.2,1.7,3.2-1,4c0.6,0.9,1.1,1.8,1.8,2.4
		c1.1,1.1,1.5,2.3,0.9,3.7c-1.9,4.5-2.5,9.2-3.5,13.9c-0.5,2.5-1.3,3.2-4,4.2c-0.4,0.7-0.8,1.5-1.1,2.2c-0.5-0.3-1-0.5-1.6-0.8
		c-0.7,1.4-1.1,3-1,4.7c0.1,0.9,0,1.7-1.4,1.7c-0.6,0-1.1,1-1.9,1.8c1,0.5,1.6,0.8,2.2,1.2c0.4,0.4,0.7,0.9,1,1.4
		c-0.5,0.3-1,0.7-1.5,0.8c-1,0.2-2,0.2-3.3,0.3c0.6,1.3,1.1,2.4,1.8,3.7c-1.4,0-2.4,0-3.8,0c0.2,0.9,0.3,1.5,0.5,2.1
		c0.7,1.8,0.7,2-1.2,2.2c-0.3,0-0.6,0.1-0.9,0.1c-0.7,4.9,1.2,9.4,5.5,12.9c1.8-0.4,2.6-2.8,5-2.7c0,1.2,0.2,2.4,0.1,3.5
		c-0.2,3.2,0.8,6.3,2.5,8.8c1.1,1.7,3.2,2.9,5.1,3.8c4.8,2.2,9.9,3.5,15.1,4.5c4.6,0.9,9.3,1.3,13.9,2c2.5,0.4,5,1.1,7.5,1.6
		c0.4,0.1,0.8,0.2,1.1,0.5c7.2,6.2,13.9,12.9,19.3,20.7c3.5,5.1,6.6,10.5,9.9,15.8c1.4,2.3,2.8,4.6,4.1,7c1,1.8,1.6,3.8,2.5,5.7
		c0.6,1.4,1.4,2.7,2,4.1c1.2,2.9,2.3,5.9,3.6,8.9c2.2,5.1,5.5,9.5,8.8,13.9c1.4,1.9,2.8,3.7,4.1,5.6c0.5,0.8,0.9,1.7,1,2.6
		c0.4,4.7,0.9,9.4,1.1,14.1c0.2,4.8,0.1,9.6,0.2,14.3c0.1,3.9,0.4,7.8,0.3,11.7c-0.1,4.7-0.6,9.4-0.6,14.1c0,4.5,0.3,9.1,0.6,13.6
		c0.2,2.9,0.5,5.8,1.3,8.7c1.4,4.8,3.4,9.3,5.3,13.8c0.1,0.3,0.3,0.6,0.4,0.9c0.7,1.7,0.4,2.3-1.4,2.7c-0.2,0.1-0.5,0.1-1,0.1
		c0,0.8-0.2,1.7-0.1,2.5c0.8,5,1.6,9.9,2.5,14.9c0.4,2.5,0.4,4.9-0.5,7.5c-1.8,5-2.9,10.3-1.9,15.7c0.3,1.8,0.5,3.6,0.6,5.5
		c0,0.7-0.1,1.5-0.4,2c-0.4,0.7-1.2,1.1-2,0.3c-1.3-1.4-2.7-2.9-4-4.3c-0.7,0.7-1.5,1.7-2.5,2.4c-1.7,1-3.9-0.5-3.8-2.5
		c0.2-3.2,0.5-6.3,0.8-9.5c0.1-0.9,0.3-1.9,0.5-3.3c-1.8,2-3.1,3.7-4.8,5.1c-1.7,1.4-3.8,1.8-6,1.6c-0.9-1.5-0.3-2.9,0.1-4.2
		c1-2.9,2.2-5.6,3.2-8.5c0.5-1.4,1-2.9,1.2-4.3c0.4-3.4,0.6-6.8,0.8-10.2c0.1-0.7-0.1-1.4-0.1-2.1c0-1.9,0-3.8,0-5.9
		c-0.3,0.2-0.6,0.4-0.7,0.6c-1.9,4.5-5.2,7.6-9.1,10.2c-1.5,1-3.3,1.2-5.1,0.8c-1.9-0.4-2.4-1.4-1.7-3.1c0.8-1.9,1.9-3.7,2.9-5.5
		c1.5-2.7,2.6-5.5,3.1-8.7c-1.1,0-2.1,0-3.4,0c0.2-0.7,0.3-1.3,0.5-1.8c0.6-1,1.3-2,2.1-2.9c2.6-3,3.2-6.6,3.4-10.3
		c0.2-3.8,0.2-7.6-0.2-11.4c-0.2-2.7-1.1-5.4-1.7-8.1c-1.1-5-2.3-9.9-3.3-14.9c-0.7-3.5-1.3-7.1-1.6-10.6c-0.4-4.5-0.4-9.1-0.5-13.6
		c0-1.3,0.1-2.6,0.4-3.8c0.4-1.7-0.3-2.9-1.3-4.1c-2.7-3.1-5.2-6.4-8-9.5c-3-3.2-6.1-6.3-9.4-9.2c-4.4-3.9-8.2-8.2-11.9-12.8
		c-4-4.9-6.8-10.6-9.8-16.1c-0.3-0.6-0.7-1.3-1-1.9c-0.1-0.1-0.2-0.2-0.5-0.4c-0.9,1.1-1.4,2.4-1.7,3.8c-1.2,5.4-3.5,10.4-5.4,15.6
		c-0.5,1.4-0.9,2.9-1.3,4.3c-0.7,2.5-1,5.2-1.9,7.6c-1.4,4.1-1.5,8.5-2.3,12.7c-0.5,2.8-1.1,5.7-1.4,8.5c-0.5,4.4-0.9,8.7-1.4,13.1
		c-0.3,2.7-0.8,5.4-1.2,8.1c-1,6.7-1.1,13.5-0.8,20.3c0.1,3,0.9,6,1.6,8.9c0.9,4.1,2,8.2,2.9,12.3c0.7,3.4,1.1,6.9,2,10.3
		c1.3,4.9,3,9.7,4.5,14.6c0.6,2.1,1,4.2,1.7,6.2c1.6,5,3.3,10,5,15c1.2,3.5,2.2,7,3.5,10.4c1.6,4.5,3.5,8.9,5.1,13.4
		c0.9,2.3,1.6,4.6,2.5,7c2.2,6.3,4.4,12.6,6.7,18.9c1.5,4.2,3.1,8.4,4.7,12.5c0.4,1,0.8,1.9,1.2,2.9c0.5,1.2,1.2,2.4,1.5,3.7
		c1.1,4.9,3.3,9.5,5,14.2c2.1,5.9,4.5,11.8,6.2,17.8c1,3.6,1.1,7.4,1.6,11.1c0.4,3.6,0.6,7.1,0.9,10.7c0.1,2,0.1,4,0.1,6
		c-0.1,5.9-0.1,11.8-0.5,17.7c-0.4,6.6-1.2,13.2-1.8,19.8c-0.2,2.7-0.4,5.4-0.5,8.1c-0.1,3.8-0.2,7.7-0.2,11.5c0,3.3,0.2,6.7,0.2,10
		c0.1,3.6,0.2,7.2,0.3,10.8c0,0.3-0.1,0.7,0,1c1,3.4-0.1,6.8,0,10.2c0.2,5,0.2,10.1,2.5,14.7c0.8,1.7,1.7,3.4,2.7,5.4
		c-2.2,2-4.8-0.4-6.9-0.1c-3,2.9-3.4,6.6-4.1,10.2c-1.4,6.7,0.1,12.8,4.1,18.4c1.3,1.9,2.7,3.8,3.6,5.9c1.3,3.2,1.2,6.6-1.2,9.4
		c-1.7,2.1-3.7,3.9-5.7,5.8c-2.6,2.5-5.8,3.7-9.3,4c-1.4,0.1-2.8-0.4-4.2-0.9c-3.7-1.4-7.5-2.6-10.8-5c-3.8-2.7-5.6-6.6-5.9-11
		c-0.2-2.7,0.3-5.5,0.8-8.2c0.2-1,0.8-2.1,1.5-3c1.2-1.5,1.7-3.3,1.8-5.1c0.4-4.5,0.6-9,0.9-13.7c-0.9-0.3-1.6-0.5-2.3-0.8
		c-0.9-0.4-1.9-0.8-2.8-1.4c-2-1.4-2.3-2.7-1.2-5c0.8-1.7,1.6-3.3,2.4-4.9c1.4-2.6,2-5.4,2.3-8.3c0.5-4.7,0.7-9.4,1.2-14.1
		c0.4-4.4,0.3-8.8-0.1-13.1c-0.4-3.3-0.8-6.6-1.6-9.9c-0.8-3.5-1.2-7.1-1.6-10.6c-1.2-9.5-0.5-19-0.5-28.5c0-5.7,0.3-11.3,0.2-17
		c-0.1-5.5-1-11-2.3-16.3c-0.8-3.3-1.5-6.7-2.6-9.9c-0.4-1.2-1.6-2.2-2.5-3.2c-4.2-4.7-8.7-9.2-12.7-14c-2.4-2.9-4.3-6.3-6.4-9.5
		c-5.4-8.6-10.8-17.1-16.1-25.8c-2.3-3.7-4.2-7.7-6.2-11.6c-3.1-6-6.2-12-9.3-18C130,354.6,129.8,354.7,129.5,354.7z M106.3,79
		c-1,1.4-1.2,1.8,0.5,3.2C106.6,81.2,106.5,80.1,106.3,79c-0.2-1.5-0.5-3.1-0.6-4.6c-0.2-2.5-0.2-5-0.3-7.5c-0.2,0-0.3,0-0.5,0
		c0,3.2-0.1,6.4,0,9.5C105,77.4,104.8,78.7,106.3,79z M150.4,104.5c-1.9,1.8-3.6,3.1-5,4.6c-4.1,4.5-9.4,6.9-15.2,8
		c-2.8,0.6-5.8,1.2-8.5,0.9c-4.4-0.5-8.6-2.1-12.1-4.8c-1.9-1.4-3.4-3.4-5-5.1c-0.7-0.7-1.3-1.5-2.1-2.3c-0.6,2.3-1,4.4-1.7,6.3
		c-2.5,6.2-7.6,9.8-13.8,11.5c-2.9,0.8-6,1-9,1.1c-3,0-5.9,0.7-8.6,1.8c-5.3,2.2-9.9,5.4-14.6,8.6c-0.5,0.3-1,0.8-1.3,1.4
		c-1.9,2.6-4,5-5.5,7.8c-3.9,6.7-7.5,13.5-11.3,20.2c-0.9,1.6-1.8,3.2-2.7,4.8c-1.2,2.2-2.3,4.3-3.4,6.5c-1.3,2.7-2.4,5.5-3.8,8.2
		c-1.7,3.1-3.1,6.4-5,9.4c-1.9,2.9-3,6.3-4.5,9.5c-2.1,4.3-4.5,8.5-4.7,13.4c-0.2,4.1-0.2,8.3,0,12.4c0.1,2,0.8,4,1.4,6
		c0.8,3.2,1.6,6.3,2.5,9.4c0.6,2.2,1.5,4.4,2.1,6.6c1,3.4,1.8,6.9,2.7,10.4c1,3.9,2.5,7.7,2.8,11.8c0,0.6,0.4,1.2,0.6,1.8
		c0.9,3.1,1.9,6.2,2.7,9.4c0.8,3.3,1.4,6.6,1.8,9.9c0.3,3.1,0.9,6.4-0.8,9.4c-0.2,0.4,0,0.9,0,1.7c0.8-0.3,1.4-0.4,1.8-0.7
		c1.7-1.1,3.5-2.3,5.1-3.5c4.7-3.6,9.9-6,16-6.3c0.8,0,1.6-0.5,2.5-0.8c-1.4-1.5-2.5-2.8-3.7-4.1c-3.3-3.4-5.1-7.4-5.3-12.2
		c-0.1-2.1-0.3-4.3-0.6-6.4c-0.5-5.1-1.1-10.3-1.7-15.4c-0.3-2.5-0.3-4.9-0.7-7.4c-1-6.2-2.2-12.4-3.3-18.6
		c-0.4-2.4-0.7-4.8-1.1-7.1c-0.6,0.7-1.2,1.4-1.8,2.1c-0.2-0.1-0.3-0.2-0.5-0.3c1-1.9,1.8-4,3-5.8c1.4-2,3-3.9,4.7-5.7
		c5.2-5.9,9.1-12.7,13.3-19.2c1.5-2.4,2.5-5.1,3.7-7.7c1-2.2,2-4.3,3-6.5c0.7-1.4,1-2.8,0.4-4.4c-0.3-0.9-0.2-1.7,1-2.1
		c1.2,1.2,1.8,2.5,1.6,4.2c-0.2,1.5,0.4,2.8,1.3,4c1,1.4,1.8,3,2.6,4.6c1.4,2.8,2.7,5.6,4.1,8.4c2.3,4.5,4.3,9.1,5.5,14
		c1.8,7.6,3.7,15.2,5.4,22.8c0.9,4,1.8,7.9,1.8,12c0.1,4.6,0.3,9.3,0.4,13.9c0,1.4-0.1,2.9-0.2,4.3c-0.4,4.7-0.8,9.4-1.2,14.2
		c0.7,0.4,1.7,0.9,2.5,1.5c3.3,2.6,7.1,4.1,11.1,4.9c8.3,1.7,16.5,3.3,24.8,4.9c1,0.2,2,0,3.1,0c-0.1-2.3-0.4-4.2-0.4-6.2
		c0-5.4,0-10.9,0.2-16.3c0.1-3.4,0.8-6.8,0.9-10.2c0.2-7.9,0.1-15.8,0.1-23.7c0-5-0.3-9.9-0.5-14.9c-0.2-4.9-0.3-9.9-0.5-14.8
		c-0.4-6.2-0.8-12.4-1.3-18.6c-0.4-5.2-1-10.3-1.4-15.5c-0.3-3.9-0.4-7.8-0.6-11.7c0-0.7-0.2-1.6,0.8-2c0.2,0.2,0.4,0.4,0.5,0.6
		c0.1,0.4,0.1,0.8,0.1,1.2c0.2,4.1,0.3,8.3,0.6,12.4c0.7,8.9,1.7,17.8,2.3,26.7c0.7,9.9,1.2,19.8,1.5,29.7
		c0.2,6.4-0.2,12.8,0.1,19.2c0.2,5,0.3,9.9-0.3,14.8c-0.7,6-1.3,11.9-1,17.9c0.1,3.8,0.5,7.6,0.7,11.3c3.4-0.2,6.6-0.4,9.8-0.6
		c1.9-0.1,3.8-0.2,5.7-0.6c3.8-0.8,7.5-2.1,11.5-2.3c0.5,0,1.1-0.3,1.6-0.5c3.6-1.1,6.1-3.7,8.7-6.2c1.1-1.1,1.5-2.3,1.4-3.8
		c-0.3-4.5-0.6-9.1-0.6-13.6c0-4.9,0.4-9.7,0.8-14.6c0.4-4.1,1-8.2,1.5-12.4c0.3-2.3,0.4-4.6,0.7-6.9c0.7-5.2,1.5-10.4,2.4-15.6
		c0.9-4.9,2-9.8,3.2-14.7c0.6-2.4,1.3-4.8,2.3-7c1.8-3.9,3.4-7.9,4.2-12.2c0.2-1,0.4-2,0.8-3c0.7-1.8,0.7-3.5,0.2-5.4
		c-0.6-2.1-0.9-4.4-1.3-6.6c-0.2-0.8,0-1.4,1-1.5c0.9,2,1.9,3.9,2.8,5.8c2.8,6.3,5.8,12.5,9.6,18.2c1.8,2.7,3.8,5.3,6,7.7
		c3.1,3.4,6.4,6.5,9.6,9.7c3.3,3.4,6.7,6.8,10,10.3c1.7,1.8,3.1,3.9,4.7,5.7c1.4,1.7,2.9,3.3,4.7,5.2c-0.2,1.1-0.7,2.5-0.8,3.9
		c-0.2,2.3-0.3,4.6-0.2,6.9c0.2,4.5,0.3,8.9,0.9,13.4c0.8,5.5,2,10.9,3.2,16.4c1.6,7.3,3.6,14.5,3.1,22.1c-0.2,3.4-0.8,6.6-1.6,9.9
		c-0.5,2.1-1.9,3.8-4,5.5c3.2,0,5.8,0,8.4,0c1.1,0,2.2-0.1,3.3,0.1c4.4,0.7,8.8,1.6,13.2,2.3c1.3,0.2,2.6,0.4,4.1,0.6
		c-1.4-3.7-2.9-7.1-4-10.5c-0.9-2.8-2-5.6-2.2-8.5c-0.5-7.1-1.6-14.3-0.9-21.5c0.7-6.6,0.7-13.2,0.3-19.8
		c-0.3-5.2-0.2-10.5-0.2-15.8c0-5.5-0.7-11-1.7-16.4c-0.1-0.7-0.5-1.4-0.8-1.9c-0.8-1.3-1.8-2.4-2.7-3.7c-2.3-3.2-4.6-6.3-6.7-9.6
		c-1.4-2.2-2.8-4.4-3.5-7c-0.6-2.4-1.7-4.6-2.7-6.9c-0.9-2.1-1.9-4.2-3-6.3c-1.5-3-3-6-4.7-8.9c-2.4-4.2-5.1-8.3-7.5-12.5
		c-2.8-4.8-6-9.2-9.8-13.3c-3.8-4.1-7.9-8.1-11.9-12c-0.3-0.3-0.7-0.3-1.1-0.4c-1.9-0.5-3.7-1-5.6-1.3c-4.8-0.8-9.6-1.5-14.4-2.4
		c-2.3-0.4-4.5-0.9-6.7-1.6c-3.3-0.9-6.6-1.9-9.8-3.1c-2.4-0.9-4.9-2.2-6.6-4.2c-2-2.4-2.7-5.3-2.9-8.4
		C150.4,106.2,150.4,105.6,150.4,104.5z M85.3,278c-0.7,1-1.4,2-2.1,3c-2.6,4.4-4.8,9-6.7,13.8c-2.6,6.8-4.3,13.9-4.6,21.2
		c-0.1,2.5,0.1,5.1,0.3,7.6c0.2,2.4,0.5,4.8,0.8,7.1c0.1,0.7,0.5,1.5,0.2,2.1c-0.6,1.3-0.1,2.5,0.1,3.8c0.4,2.8,1.2,5.6,1.6,8.4
		c0.5,3.3,1.1,6.6,1.2,10c0,5.8-0.4,11.6-1.6,17.4c-0.2,0.9-0.2,1.7-0.4,2.6c-0.3,1.6-0.4,3.3-0.9,4.8c-1.4,4.5-3.6,8.7-4.1,13.4
		c-0.3,2.3-1.1,4.5-1.4,6.8c-0.4,2.7-0.4,5.4-0.7,8.1c-0.6,5.5-1.3,11.1-2.1,16.6c-0.4,3.4-0.9,6.8-2.3,9.9
		c-0.8,1.8-1.4,3.6-1.8,5.4c-1.6,6.5-3.1,13-4.5,19.6c-1.5,6.9-2.8,13.9-4.2,20.9c-1.6,8-3.1,16-4.6,24c-1,5.5-2.1,11-2.1,16.6
		c0,3.4-0.7,6.7-1.6,9.9c-1.5,5.8-3.4,11.5-6,16.9c-2.4,4.9-4.6,10-8.5,14c-1.7,1.7-1.4,3.1,0.7,4.5c1,0.7,2,0.7,3.1,0.3
		c2.2-0.8,4.5-1.5,6.9-1.9c5.2-0.8,9.9,0.9,14.5,3.2c1.6,0.8,3.2,1.5,4.8,2.1c2.3,0.8,2.9,0.3,2.8-2.1c0-0.6-0.1-1.1-0.1-1.7
		c-0.2-2.5-0.5-5.1-0.7-7.6c-0.4-4.9,0-9.8,1.6-14.4c2.3-7,5.8-13.5,8.8-20.1c2.3-5,4.8-9.9,6.9-15c2.8-6.9,5.2-14,6.9-21.4
		c1.1-4.7,2.2-9.3,3.3-14c1-4.2,1.2-8.5,2.1-12.7c1.1-5.4,1.6-10.9,3.7-16c1.9-4.9,3.7-9.8,6.5-14.3c0.9-1.5,1.9-3,2.6-4.5
		c1.9-3.7,3.6-7.4,5.5-11.1c2.1-4.4,4.5-8.6,6.4-13.1c4-9.7,7.4-19.7,9.7-30c1.1-5.1,1.8-10.3,2.8-15.5c0.6-2.9,0.8-5.7-0.9-8.3
		c-0.1-0.1-0.1-0.3-0.2-0.5c-0.4-1.4-0.1-2.6,1.2-3.7c0.5,0.6,1,1,1.3,1.5c1.5,2.8,2.9,5.5,4.3,8.3c3.1,6.4,6.2,12.9,9.4,19.4
		c2.5,5.2,5.9,10,8.3,15.3c2.4,5.2,5.9,9.8,9.3,14.5c4.1,5.5,7.8,11.3,11.7,16.9c2.3,3.3,4.7,6.6,7.2,9.8c1.9,2.3,4.1,4.5,6.2,6.6
		c1.2,1.1,2.6,2,4,3c0.3,0.2,0.6,0.5,1,0.8c-2.2,1.9-3.2-1-5.1-1c0.8,3.1,1.6,6,2.2,9c0.7,3.6,1.7,7.2,1.8,10.8
		c0.2,9,0,18.1-0.1,27.1c0,3.4-0.2,6.7-0.2,10.1c0,5.8,0.9,11.6,2,17.3c0.7,3.4,1.5,6.8,2.3,10.2c0,0.2,0.2,0.5,0.1,0.7
		c-0.8,1.3-0.2,2.6-0.2,3.9c0,1.7,0.3,3.5,0.2,5.2c-0.3,6.6-0.7,13.2-1.2,19.9c-0.3,3.9-0.9,7.8-2.5,11.4c-0.6,1.5-1.5,2.8-2.1,4.3
		c-1.1,2.6,0.1,4.3,3,4c2.3-0.3,4.7-0.8,7-1.3c0.9-0.2,1.8-0.5,2.7-0.9c6.2-3,12.7-4.8,19.7-3.3c1.4,0.3,2.8,0.5,4.4,0.8
		c-0.2-0.8-0.3-1.4-0.5-1.9c-2-4.4-2.8-9.1-3-14c-0.2-6.3-0.2-12.6-0.2-18.9c-0.1-8.2-0.2-16.4-0.2-24.7c0-3.2-0.1-6.4,0.2-9.6
		c0.8-6.5,1.7-13,1.8-19.5c0.2-7.1,0.5-14.2,0.4-21.3c-0.1-5.2-0.6-10.4-1-15.5c-0.3-3.3-0.8-6.7-1.5-9.9c-1.1-5.2-2.9-10.1-4.9-15
		c-1.2-2.9-1.9-5.9-3.1-8.8c-1.9-5-4-9.9-6-14.9c-1.8-4.5-3.4-9.1-5-13.7c-1.2-3.3-2.4-6.6-3.6-9.9c-2.2-6.2-4.5-12.4-6.7-18.6
		c-0.9-2.5-2.1-5-3-7.5c-1.2-3.5-2.2-7.2-3.4-10.7c-3.3-9.8-6.7-19.6-9.8-29.5c-2.5-7.7-4.6-15.6-7-23.4c-0.4-1.3-0.8-2.7-1.3-4.2
		c-0.5,0.4-0.9,0.6-1.1,0.9c-3.1,4.9-7.9,6.7-13.4,7.2c-0.4,0-0.8,0.1-1.2,0.2c-3.3,1.1-6.7,1.9-10.2,2.4c-6,0.8-12.1,1.3-18.1,1.2
		c-4.9-0.1-9.8-0.8-14.7-1.4c-5.2-0.7-10-2.6-14.6-4.9C91.1,280.9,88.3,279.5,85.3,278z M33.7,569.5c-0.1,1.4-0.1,2.7-0.2,3.9
		c-0.1,1.2,0,2.5-0.5,3.5c-1.8,3.7-3.6,7.5-6,10.9c-2.2,3.2-3.2,6.4-3.1,10.3c0.1,4.4,1.8,7.8,4.8,10.8c1.9,1.9,4.1,3.1,6.7,4
		c5.3,1.9,10.4,2,15.4-1.1c3.4-2.1,6-4.8,8.1-8c1.7-2.6,1.5-5.6,0.5-8.5c-0.8-2.2-1.9-4.4-2.4-6.7c-0.6-2.7-0.6-5.5-1-8.3
		c-0.4-2.7-1.1-5.3,0.3-7.8c-2.7-1.5-5.1-3.1-7.6-4.4c-2-1.1-4.3-1.1-6.5-1.1C39,566.8,36.7,568.6,33.7,569.5z M198.8,617.1
		c2,1.9,4.1,2.4,6.1,2.6c4.1,0.4,8,0,10.9-3.5c2-2.3,4-4.5,5.9-6.9c1.9-2.2,1.8-2.9,0.4-5.3c-1.6-2.7-3.3-5.5-4.8-8.3
		c-1.8-3.2-2.6-6.8-2.6-10.3c0-4.6,1.4-9.1,2.8-13.5c0.2-0.7,0.4-1.5,0.7-2.4c-0.8-0.2-1.3-0.5-1.8-0.5c-2.4,0.2-5,0.3-7.3,0.9
		c-5.1,1.5-10,3.7-14.8,6c-0.3,0.1-0.5,0.3-0.5,0.4c-0.4,4.8-0.7,9.3-1.1,13.8c-0.2,1.8-0.7,3.5-1.9,5.1c-1.9,2.6-2.4,5.5-1.2,8.6
		c0.5,1.3,0.9,2.6,1.5,3.8c2.3,4.5,5.7,7.7,10.8,8.4c2.7,0.4,5.4,0.3,8.1,0.4c0.8,0,1.6,0.1,2.4,0.1c0,0.2,0,0.4,0,0.6
		C208.1,618.6,203.7,617.8,198.8,617.1z M43,303.8c0.4,1,0.8,1.7,1.1,2.4c0.5,1.3,0.8,2.6,1.3,3.8c2.1,5.2,3.6,10.5,3.9,16.1
		c0.1,1.4,0.1,2.9,1.3,3.9c1.8-0.3,2.6-1.5,3.1-3.1c1-3.2,1.2-6.5,0.9-9.7c-0.8-7-3.3-13.6-5.9-20.2c-2.4,0-4.7,0.5-6.7,1.7
		c-3.4,2-6.5,4.5-9.7,7c-2.2,1.8-2.8,3.8-3,6.2c-0.3,3.2-0.8,6.5-1.2,9.7c-0.3,2.4-0.5,4.8-0.8,7.1c-0.4,2.3-0.9,4.5-1.4,6.8
		c-1.6,7.9-0.3,15.2,4.1,22c0.6,0.9,1,2,2.4,2.2c0.7-0.7,1.2-1.2,0.6-2.4c-1.6-3.3-3.1-6.6-4.7-9.9c-0.3-0.7-0.6-1.5-0.8-2.3
		c-0.1-0.4,0.2-0.8,0.6-1.8c1,2.2,1.7,3.9,2.5,5.5c1.5,3.1,3.1,6.1,4.7,9.1c0.3,0.5,0.8,1,1.3,1.4c0.4-2.8,0-5.1-1.3-7.3
		c-2.1-3.4-2.2-7.1-1.2-10.8c0.3-1.2,0.1-2.1-0.4-3.1c-0.8-1.9-1.4-3.9-1.9-5.9c-0.2-0.7-0.2-1.5,1.1-2c0.1,1,0.1,1.8,0.3,2.5
		c0.4,1.5,0.7,3.1,1.3,4.5c0.6,1.4,1.5,2.8,2.3,4.1c0.6,1,1.3,2,3.1,1.6c0.1-1.1,0.2-2.1,0.1-3.2c-0.1-1.1-0.5-2.2-0.8-3.2
		c-1.8-5.5-1.7-11,0.5-16.4c1.3-3.1,1.9-6.2,1.6-9.6c-0.1-1.3-0.1-2.6-0.1-3.8C41.2,305.8,41.6,304.9,43,303.8z M257.1,304.5
		c-0.7-0.2-1.4-0.4-2.1-0.5c-1.7-0.3-3.5-0.5-5.2-0.8c-3-0.6-6.1-1.3-9.1-1.9c-2-0.4-3.9-0.9-5.9-0.2c-0.6,0.2-1.2,0.7-1.5,1.3
		c-0.3,0.5-0.4,1.2-0.6,1.8c-0.8,3.3-2.1,6.3-3.9,9.2c-0.7,1-1.1,2.2-1.6,3.4c2.4,1.5,4.4,0.7,6-0.6c3.8-2.9,7.1-6.2,8.5-10.9
		c0.2-0.6,0.7-1.1,1-1.6c1.8,0.7,1.4,2.1,1.4,3.2c0,2.9,0,5.9-0.1,8.8c-0.2,5.8-0.2,11.7-2.8,17.1c-0.6,1.1-1,2.4-1.4,3.6
		c-0.5,1.4-0.8,2.8-1.3,4.5c2.6-0.2,4.5-0.8,5.9-2.8c1-1.4,2-2.7,3.1-4c1.7-2.3,2.9-4.7,3.2-7.6c0.3-2.9,0.6-5.9,0.8-8.8
		c0.1-1.2,0.1-2.3,1.6-3c-0.2,2.1-0.6,4-0.6,5.8c0,4.8-1,9.5-2.5,14c-1.5,4.5-1.6,9.1-1.7,13.7c0,0.6,0.5,1.5,1,1.7
		c0.5,0.2,1.5-0.2,1.8-0.6c0.7-1,1.4-2.2,1.7-3.4c1.3-5.5,4.1-10.5,6.3-15.7c0.9-2.2,1.3-4.4,0.8-6.8
		C258.7,317.1,257.3,310.9,257.1,304.5z M139.9,92.5c-9.8,6.9-19.6,7.1-30.1,1.8c0.2,5-0.4,9.6-3.2,13.5c2.1,2.6,4.3,4.7,7.2,5.9
		c4,1.8,8.1,3.6,12.6,2.7c3.1-0.7,6.2-1.4,9.3-2.3c4.4-1.2,7.3-4.4,10.3-7.4c-1.9-2-4-3.6-5.1-6.1C139.7,98,140.2,95.3,139.9,92.5z
		 M59,607c-0.4,0.2-0.6,0.2-0.7,0.3c-0.5,0.5-1,1.1-1.4,1.6c-2.9,3.2-6.3,5.7-10.5,6.8c-4.2,1-8.4,0.4-12.4-1
		c-1.6-0.6-3.1-1.6-4.5-2.6c-1.5-1-2.8-2.1-4.4-3.3c0.6,2.6,1.7,4.4,3.4,5.9c3.2,2.9,7.1,3.9,11.1,4.4c3.3,0.4,6.3,0.1,9.1-2
		c0.6-0.4,1.2-0.7,1.9-1c2.4-0.9,4.2-2.6,6-4.3C57.8,610.5,58.7,609.1,59,607z M95.9,49.9c-0.9-0.5-1.7-1-2.5-1.4
		c-1-0.4-2.1-1.4-3-0.4C89.5,49,90.5,50,91,50.9c1.6,2.6,2.6,5.4,2.6,8.6c0,2,0.3,4,0.7,5.9c0.4,1.7,1.7,2.3,3.2,1.9
		c1-0.3,1.3-0.8,1-2.8C97.6,59.6,96.7,54.7,95.9,49.9z M136.2,8.4c-0.2-0.1-0.5-0.2-0.8-0.3c-6.9-0.5-13.9-0.3-20.8,0.3
		c-0.8,0.1-1.6,0.2-2.3,0.5c-0.3,0.1-0.5,0.6-1,1.4c1.5-0.3,2.2,0.8,3.5,0.5c1.4-0.4,2.7-2.1,4.5-0.8c0,0,0.1-0.1,0.2-0.1
		c1.2-0.2,2.3-0.6,3.5-0.6c0.3,0,1,0.8,1,1.3c0.1,0.8-0.1,1.7-0.2,2.4c1,0.3,1.9,0.6,2.9,0.9c0.7-1.7,2.4-1.3,4-0.8
		c0.2-0.9,0.3-1.6,0.4-2.5c1.1,0.2,2,0.4,2.8,0.5C134.7,10.2,135.4,9.3,136.2,8.4z M153.6,68.6c2-0.3,2.5-0.9,2.8-2.5
		c0.4-2.3,0.8-4.6,1.4-6.8c0.5-2.1,1.3-4.1,1.9-6.2c0.2-0.9,0.9-2-0.2-2.8c-1.9,0.9-2.8,1.6-3.1,2.5c-0.8,2.5-1.7,5-2.3,7.5
		C153.3,63,153.1,65.8,153.6,68.6z M130.4,58.9c0.4,1.3,0.7,2.5,1.1,3.7c0.7-0.6,1.3-0.9,1.8-1.4c0-0.9,0-1.9,0-2.8
		c0.1-1.6,0.4-1.8,1.9-1.4c0.6,0.2,1.2,0.3,2,0.4c0-2.1-0.1-3.9,0-5.7c0.1-1.4-0.5-2.4-1.9-3.1c0,1.9,0,3.7-1.2,5.2
		c-1.9-0.6-2.1-2.6-3.4-3.6c-0.6,1.2-0.6,1.2-0.3,1.9c0.5,1.3,1.1,2.6,1.6,4C132.4,58,132.4,58,130.4,58.9z M115.9,41.5
		c0.2,0,0.4,0,0.6,0c0-1-0.1-2,0-3.1c0.2-2.7-0.8-5.6,1.5-7.9c0.1-0.1,0.1-0.5,0.1-0.7c0-1.7,0-3.3,0-4.9c-1.2-0.2-2-0.3-3-0.4
		c0,2-0.5,4.1,0.1,5.8c0.7,1.9,0.3,3.5,0,5.3C114.8,37.6,115.3,39.6,115.9,41.5z M130.7,35c0.8-4.4-0.3-7.6-3-8.8
		c-1,1.3,0.8,4.3-2.8,4c0.6,1.5-1.4,3.1,0.5,4.4c1.1-0.9,2.2-1.8,3.5-2.9C129.5,32.9,130,33.8,130.7,35z M257.2,338.6
		c-1.2,1.6-2.3,4.1-2.8,6.9c-0.4,2.3,1.2,5.1,3.4,6C257.6,347.3,257.4,343,257.2,338.6z M126.5,61.8c0.4-4.6-1.8-8.1-3.5-11.9
		c-0.4,1.3-0.9,2.4-1.2,3.5c-0.1,0.3-0.1,0.6-0.1,0.9C122.7,57.1,123.7,59.8,126.5,61.8z M138.1,25.6c0.1-0.1,0.2-0.2,0.3-0.3
		c-0.2-0.4-0.5-0.7-0.5-1.1c-0.1-0.4-0.1-1.1,0.2-1.2c0.3-0.2,0.9-0.1,1.3,0c0.6,0.2,1,0.6,1.9,1.3c-0.3-1.4-0.6-2.4-0.7-3.4
		c-0.1-0.6-0.2-1.3,0.1-1.8c0.2-0.4,0.9-0.6,1.5-1c-1.4-0.6-2.3-1.7-3.7-1.5c-0.6,2,1.1,5.1-2.9,5.1c0.1,1,0.2,1.9,0.2,2.8
		C136.6,24.8,137.3,25.2,138.1,25.6z M101.6,50.6c0.3-1.8,0.6-3.6,0.9-5.4c0.1-0.7,0.2-1.6-0.2-2c-0.8-0.9-0.6-1.9-0.5-2.9
		c0.2-2.4,0.3-4.8,0.4-7.2c-1.7,2-2.3,4.1-1.9,6.6c0.1,0.7,0.1,1.4,0.1,2.1C100.5,44.6,100.3,47.7,101.6,50.6z M131.1,41.7
		c0.6-2.2-0.3-3.5-1.5-4.8c-0.7,0.1-1.3,0.3-1.9,0.4c-0.3,0.7-0.5,1.5-0.8,2.3c-0.7,0-1.3-0.1-2-0.1c-0.1,1.3-0.1,2.4-0.2,3.5
		c1.1,0.5,2,1,3.1,1.5c0-1.2-0.1-2.4,0-3.5c0.1-1,0.8-1.3,1.7-0.7C130,40.7,130.4,41.1,131.1,41.7z M129.7,43.7c0,1,0,1.8,0,2.6
		c-0.1,1.6-0.7,1.9-2.2,1.3c-0.3-0.1-0.5-0.3-0.8-0.4c-0.9,3.3-0.9,3.3,1.2,4.3c-0.5-1.8,0.9-2.5,1.9-3.3c1.3-1,2.1,1,3.5,1.1
		c0-1,0-1.9,0-2.9c0.1-1,0.2-1.9,0.4-3.3c-0.8,0.8-1.2,1.3-1.7,1.8C131.3,44.5,130.6,44.1,129.7,43.7z M118.7,36.5
		c-0.4,3.3-0.7,6.2-1.1,9.2c1.5-0.4,2,0.4,2.2,1.7c0.1,0.8,0.4,1.5,0.6,2.3C122.5,45,120.4,41,118.7,36.5z M138.5,45.7
		c-0.2,3.2,0.5,5.5,1.9,6.7c0.1-0.7,0.1-1.5,0.5-2.1c0.3-0.5,1.1-0.7,1.8-1.2c-0.8-1.9,1-4.6-2-6.1
		C140.7,44.7,140.2,45.7,138.5,45.7z M110.5,71.6c1.5-2.7,0.6-5.3-0.5-8c-0.4,0.7-0.8,1.3-1.6,2.4c-0.6-0.8-1.1-1.4-1.6-2
		c0.2,1.9,0.5,3.7,0.7,5.5C109.6,69,109.6,69,110.5,71.6z M121.7,59.5c-0.2,0-0.3,0.1-0.5,0.1c-0.3,3-0.4,6.1,1.6,8.7
		c0.3,0.3,0.2,0.9,0.4,1.3c0.2,0.5,0.4,0.9,0.7,1.7c0.2-1.7,0.8-3.1,0.5-4.3C123.8,64.5,122.6,62.1,121.7,59.5z M121.5,31.2
		c-1.8,3-1.2,6.8,1.3,9.9c0.2-2.6,0.3-4.9,0.5-7.4C122.8,33,122.3,32.2,121.5,31.2z M116.8,14.9c0.1,2.3,0.2,4.6,0.3,6.8
		c0.2,0.1,0.4,0.1,0.6,0.2c-0.3-1.6,0.4-2.6,1.6-3.4c0.5-0.3,0.9-1.1,1.1-1.8c0.4-1.3,0.6-2.7,0.9-4.1
		C119.8,13.3,119,15.6,116.8,14.9z M130.5,17.4c0.2,0.6,0.2,0.8,0.3,1.1c0.1,0.4,0.3,0.8,0.3,1.1c0.4,1.8-0.1,2.3-1.9,1.8
		c-1.6-0.4-1.6-0.4-2.3,1.3c1.1,0.8,2.2,1.7,3.4,2.6c0.3-1.2,0.2-2.4,0.8-3c0.5-0.5,1.7-0.3,2.6-0.4c-0.2-0.7-0.6-1.4-0.6-2.1
		C133.1,18.3,132,17.9,130.5,17.4z M138.8,61.4c2.5-1.7,1.6,1.8,3.2,2.1c-0.2-1.8-0.5-3.5-0.7-5.2c-0.1-0.6,0-1.4,0.3-1.7
		c0.4-0.2,1.1,0.1,2,0.2c-0.4-1.1-0.8-2-1.3-3.3c-1.2,2.8-1.2,2.8-3,3.2C139.1,58.3,139,59.7,138.8,61.4z M113.2,24.6
		c-2.3,2.8-3.5,5.5-1.9,8.7c0.9,0,1.6-0.1,1.7-1.1C113.2,29.8,113.6,27.4,113.2,24.6z M128.8,72.9c0.1,0,0.1,0,0.2,0
		c0-1.8,0-3.7,0-5.5c0-1.7-0.1-3.5-0.1-5.2c-0.9,1-1.7,1.9-2.7,3C126.9,67.5,127.9,70.2,128.8,72.9z M120.5,82.7
		c0.4,0.1,0.8,0.2,1.1,0.3c0.4,0.2,0.7,0.4,1.2,0.7c0-1.4-0.1-2.6,0-3.8c0-0.6,0.2-1.3,0.6-1.6c0.2-0.2,1,0.3,1.6,0.5
		c0.7-1.5-1-1.5-1.5-2.2C119.9,78.6,120.2,79.3,120.5,82.7z M141,79.5c2.7-2.2,4.5-12.7,2.8-16.8c0,1,0,1.4,0,1.9
		c0,2.1,0.4,4.3-0.9,6.2c-0.4,0.5-0.4,1.3-0.5,2c-0.1,1.6,0.4,3.1-1.1,4.4C140.9,77.6,141.1,78.5,141,79.5z M138.9,74.4
		c0.5-1,0.8-1.6,1.2-2.2c0.7-1.2,0.4-2.4-0.6-3.5c-0.6-0.6-1-1.4-1.4-2.1c-0.4-0.7-0.6-1.5-0.9-2.2c-0.2,0.1-0.3,0.1-0.5,0.2
		C137.4,67.6,138.1,70.9,138.9,74.4z M114.3,57.2c-0.1,1.4-0.3,2.2-0.3,3.1c-0.1,1.4-1.5,0.8-2.3,1.4c0.2,0.9,0.5,1.7,0.7,2.7
		c0.2-0.5,0.4-0.7,0.5-0.9c0.1-0.2,0.2-0.5,0.3-0.7c0.7-1.1,1.1-1.1,2-0.2c0.4,0.4,0.8,0.6,1.2,0.9c0.3-0.5,0.7-0.9,1-1.5
		c0.1-0.3,0-0.7,0-1.1C115.6,60.5,115.6,60.5,114.3,57.2z M130.9,77.3c0.2,0,0.3,0,0.5,0.1c0.9-2.7,1.8-5.4,1.4-8.5
		c-0.6-0.2-1.1-0.4-1.9-0.7C130.9,71.3,130.9,74.3,130.9,77.3z M101.1,69.5c-0.1-1.9-0.2-3.8-0.4-5.7c-0.2-1.9-0.4-3.8-0.6-5.8
		c-0.7,0.4-1.3,1-1.3,1.4C99.5,62.8,99.4,66.3,101.1,69.5z M151.2,25.7c-0.8,0.2-1.2,0.3-1.7,0.3c-0.4,0-0.7-0.1-1.6-0.2
		c3.2,2.2,2.7,5.6,4.2,8.3C153,31.1,151.7,28.5,151.2,25.7z M138.7,38.2c-0.6-0.4-1.3-0.9-2.2-1.5c0,2.3,0,4.2,0,6.1
		c0.8,0,1.4,0,2.2,0C138.7,41.2,138.7,39.8,138.7,38.2z M121.5,70c-0.8-1.3-1.7-2.6-2.6-4.1c-1.6,2.2-0.4,3.9,0.1,5.5
		C119.7,71,120.4,70.6,121.5,70z M138.2,31.1c1.1,0.3,1.9,0.5,2.8,0.6c0.3,0,0.7-0.1,0.8-0.3c0.1-0.3,0.2-0.9,0-1.1
		c-1.3-1-2.7-2-4.1-3c-0.1,0.1-0.3,0.2-0.4,0.3C137.5,28.8,137.9,29.9,138.2,31.1z M113.5,88.4c0.5-1.8,0.3-3.3-0.4-4.2
		c-1.1-1.5-0.9-3-1-4.5c-0.1-1.3,0-2.6,0-3.9C110.7,80,111.7,84,113.5,88.4z M126,91.4c2.3-2,0.8-3.9,0.4-5.8
		c-0.1-0.2-0.8-0.3-1.3-0.4C124.2,87.7,126.3,89.2,126,91.4z M127.9,16.4c-0.8,0.3-1.5,0.6-2.4,0.9c0,1-1.3,1.9-0.5,3
		c1.4-0.5,2.6-0.8,3.9-1.3C128.6,18.2,128.3,17.3,127.9,16.4z M134.6,39.4c0-1.7-0.2-2.8,0-3.8c0.3-1.6-0.4-2.5-1.7-3.3
		C132.9,34.7,132.8,36.9,134.6,39.4z M153.7,43.5c-0.2,0.1-0.3,0.3-0.5,0.4c0,2.5,0,5,0,7.6c0.8-2.3,1.2-4.7,1.4-7.1
		C154.6,44.1,154,43.8,153.7,43.5z M133.6,16.8c-0.2-2-0.2-2,1.5-2.2c1.4-0.2,2.9-0.3,4.3-0.5c-0.2-0.2-0.4-0.5-0.7-0.7
		c-0.4-0.3-0.9-0.6-1.4-0.9c-1.3,1.3-1.3,1.3-4.5,0.6C133.4,14.3,131.4,15.8,133.6,16.8z M105.5,21.3c0.2-1.5,0.3-3,0.7-4.3
		c0.4-1.4,1.1-2.7,1.6-4.1C105,15,103.9,17.7,105.5,21.3z M134.7,77c-0.2,1-0.4,2.1-0.5,3.1c0.9,0.4,1.8,0.8,2.7,1.2
		C137.3,78.9,136.5,77.3,134.7,77z M106.7,77c0.2,1.2,0.3,2.1,0.5,3c0.3,0.9,0.8,1.7,1.1,2.6c0.3,0.8,0.6,1.5,0.9,2.3
		c0.1,0,0.2-0.1,0.3-0.1c-0.3-2.3-0.7-4.7-1.1-7.1C108.1,77.5,107.6,77.3,106.7,77z M118.9,52.1c-0.2,1.1-0.2,2.2-0.7,3.2
		c-0.7,1.6,0.1,2.6,0.9,3.8C119,56.7,120.4,54.4,118.9,52.1z M132.3,28.3c1.2-0.1,2-0.2,3-0.3c-0.7-1.3-0.5-3.3-2.8-3.4
		C132.5,25.9,132.4,27,132.3,28.3z M120.7,25c-0.3,1.4-0.6,2.6-0.8,3.8c0.8-0.2,1.4-0.6,1.9-0.5c0.5,0.1,0.8,0.7,1.4,1.2
		c0-1,0-1.8,0-2.2C122.3,26.4,121.6,25.8,120.7,25z M143.5,42.5c0.5,0.9,1,1.6,1.5,2.4c0.3-2.9,0.4-5.7-0.2-8.5
		C144.2,38.5,145.8,40.9,143.5,42.5z M102.8,65.6c1.2-2.8,1.2-5.4,0-9.1C102.8,59.4,102.8,62.5,102.8,65.6z M112.5,54.6
		c1.5-2.2,1.3-3.9-0.1-5.6C111.6,50.9,111.9,52.5,112.5,54.6z M110.5,78.2c-1,1.4-0.8,4.2,0.4,5.8C110.7,82.1,110.6,80.1,110.5,78.2
		z M125.6,22.8c-0.5,0.1-1.1,0-1.1,0.2c-0.3,0.9-0.6,1.9-0.9,3c0.7,0.1,1.2,0.1,1.8,0.2C125.5,25,125.6,24,125.6,22.8z M111.9,45.4
		c0.8,0.4,1.4,0.8,1.8,1c-0.1-1.9-0.2-3.7-0.4-6C112.9,42.3,112.4,43.8,111.9,45.4z M114.2,67.3c-0.2,2.4-0.3,4.8-0.5,7.1
		C114.5,72.1,115,69.7,114.2,67.3z M143.2,22.5c-0.1,2.3-0.1,2.3,3.1,3.7C145.9,24.4,144.3,23.7,143.2,22.5z M100.4,26.3
		c-0.9,1.7-1,3.3-0.5,5.2C101.5,29.8,101.3,28.1,100.4,26.3z M144.4,48.4c0.3,1.6-0.6,3.1,1.1,4.4C145.6,51.1,146.9,49.6,144.4,48.4
		z M115,20.6c0-1.2,0-2.2,0-3.2c-0.1,0-0.3-0.1-0.4-0.1c-0.7,1.1-1.4,2.1-2.2,3.4C113.4,20.6,114.2,20.6,115,20.6z M133.7,86.6
		c1.1-1.1,1.5-2.2,1.4-3.6C133.2,83.3,133,83.8,133.7,86.6z M109.7,38.4c0.2,1.7,0.4,3,0.6,4.3c0.8-1.2,1.5-2.3,0.9-3.6
		C111,38.9,110.5,38.8,109.7,38.4z M148.5,36.3c0.4-0.6,0.8-1.2,1-1.5c-1.5-0.8-2.8-1.4-4.1-2.1c-0.1,0.1-0.1,0.2-0.2,0.2
		C146.3,34.1,147.4,35.1,148.5,36.3z M128.8,84.9c0.8-0.8,1.3-1.4,1.9-2c-0.4-0.6-0.8-1.3-1.5-2.5C129,82.2,128.9,83.4,128.8,84.9z
		 M118,78.1c0.5-2.4,0.3-3.2-1.1-5.2C117.3,74.9,117.6,76.5,118,78.1z M123.9,15.6c-0.2,0-0.3-0.1-0.5-0.1c-0.6,1-1.4,1.9-1.6,3.5
		c0.7-0.3,1.3-0.4,1.4-0.6C123.5,17.5,123.6,16.6,123.9,15.6z M126.9,53.9c0.5,1.6,0.8,2.7,1.2,4C129.2,56.2,129.2,56.2,126.9,53.9z
		 M107.6,42.4c-1.2,1.7-1.2,1.7,0.5,2.8C107.9,44.2,107.8,43.3,107.6,42.4z M147.3,62.6c0.2-0.1,0.4-0.2,0.6-0.2
		c-0.3-1.3-0.7-2.6-1-3.9c-0.2,0.1-0.4,0.1-0.6,0.2C146.5,60,146.9,61.3,147.3,62.6z M138.3,89.3c2.3,0.3,2.6-0.1,2-1.7
		C139.7,88.2,139.2,88.6,138.3,89.3z M117.3,88.1c0.4,0.8,0.8,1.4,1.1,2c0.3-0.2,0.8-0.3,0.8-0.6C119.3,88.5,118.6,88.2,117.3,88.1z
		 M113.4,89.3c0.6,2.2,0.6,2.2,2.3,1.5C115,90.4,114.3,89.9,113.4,89.3z M119.6,95.7c0.1-0.2,0.2-0.4,0.3-0.6
		c-1.3,0.3-2.1-1.4-3.9-0.2C117.4,95.1,118.5,95.4,119.6,95.7z M104.4,34.4c-0.1,0-0.1,0-0.2,0.1c-0.1,0.6-0.2,1.3-0.2,1.9
		c0,0.5,0,1.1,0,1.6c0.1,0,0.3,0,0.4,0C104.4,36.8,104.4,35.6,104.4,34.4z M150.2,52.6c1.2-1.9,1.1-2.1-0.8-2.3
		C149.7,51,149.9,51.6,150.2,52.6z M147.2,40.9c0.7-0.9,1.5-1.8-0.2-2.8C147.1,39.2,147.1,40.1,147.2,40.9z M136.3,90.1
		c-0.1,1.1-0.2,1.8-0.4,2.9c0.8-0.6,1.3-0.9,1.8-1.3C137.2,91.2,136.9,90.8,136.3,90.1z M104.2,45.8c-0.1,0.8-0.1,1.5-0.2,2.3
		C104.7,47.4,105.5,46.8,104.2,45.8z M122.6,89.7c0.3,0.9,0.4,1.5,0.6,2.1c0.1,0,0.3,0,0.4,0c0.2-0.6,0.4-1.1,0.6-1.7
		C123.7,89.9,123.4,89.9,122.6,89.7z M140.6,81.5c-1.6-0.1-1.6,0.6-1.4,1.4c0,0.1,0.2,0.1,0.5,0.3C139.9,82.7,140.2,82.2,140.6,81.5
		z M156.2,31.9c-0.2,0-0.4,0-0.7,0c0.1,0.6,0.1,1.2,0.2,1.8c0.2,0,0.4,0,0.5,0C156.3,33.1,156.2,32.5,156.2,31.9z M98.1,45.5
		c0.1,0,0.3,0,0.4,0c0-0.6,0-1.1,0-1.7c-0.1,0-0.2,0-0.3,0C98.2,44.4,98.2,45,98.1,45.5z M142.2,12.1c-0.9-1.2-0.9-1.2-2.2-1.2
		C141,11.4,141.6,11.7,142.2,12.1z M135.7,71.2c0.2,0,0.4-0.1,0.6-0.1c-0.2-0.6-0.3-1.3-0.5-1.9c-0.1,0-0.2,0-0.3,0.1
		C135.5,69.9,135.6,70.6,135.7,71.2z M141.7,34.3c-0.2,0.1-0.4,0.2-0.6,0.4c0.4,0.5,0.7,1.1,1.1,1.6c0.1-0.1,0.3-0.2,0.4-0.2
		C142.3,35.5,142,34.9,141.7,34.3z M147,70.8c-0.2,1.7-0.2,1.7,0.9,1.7C147.7,72,147.5,71.6,147,70.8z M110.5,89.9
		c0.3-1.7,0.3-1.7-0.7-2.5C110,88.2,110.2,88.9,110.5,89.9z M133.9,91.6c-0.1,0-0.3,0-0.4,0c-0.1,0.2-0.2,0.4-0.2,0.6
		c-0.1,0.6,0.6,0.9,0.8,0.4C134.2,92.5,134,92,133.9,91.6z M110.2,19.9c-0.2-0.1-0.3-0.2-0.5-0.3c-0.2,0.4-0.4,0.8-0.6,1.2
		c0.1,0.1,0.2,0.1,0.3,0.2C109.7,20.6,109.9,20.3,110.2,19.9z"/>
	<path class="st1" d="M150.4,104.5c0,1.1,0,1.7,0,2.3c0.1,3.1,0.9,6,2.9,8.4c1.7,2,4.1,3.3,6.6,4.2c3.2,1.2,6.5,2.2,9.8,3.1
		c2.2,0.6,4.5,1.2,6.7,1.6c4.8,0.9,9.6,1.5,14.4,2.4c1.9,0.3,3.7,0.9,5.6,1.3c0.4,0.1,0.8,0.2,1.1,0.4c4,4,8.1,7.9,11.9,12
		c3.7,4,7,8.5,9.8,13.3c2.4,4.2,5.1,8.3,7.5,12.5c1.7,2.9,3.2,5.9,4.7,8.9c1,2.1,2,4.1,3,6.3c1,2.3,2.1,4.5,2.7,6.9
		c0.7,2.6,2.1,4.8,3.5,7c2.1,3.3,4.5,6.4,6.7,9.6c0.9,1.2,1.8,2.4,2.7,3.7c0.4,0.6,0.7,1.3,0.8,1.9c1.1,5.4,1.7,10.9,1.7,16.4
		c0,5.3-0.1,10.5,0.2,15.8c0.4,6.6,0.3,13.2-0.3,19.8c-0.7,7.2,0.3,14.3,0.9,21.5c0.2,2.9,1.3,5.7,2.2,8.5c1.2,3.5,2.6,6.8,4,10.5
		c-1.5-0.2-2.8-0.3-4.1-0.6c-4.4-0.8-8.8-1.6-13.2-2.3c-1.1-0.2-2.2-0.1-3.3-0.1c-2.6,0-5.2,0-8.4,0c2.1-1.8,3.5-3.4,4-5.5
		c0.8-3.2,1.4-6.5,1.6-9.9c0.4-7.6-1.6-14.8-3.1-22.1c-1.2-5.4-2.4-10.9-3.2-16.4c-0.6-4.4-0.7-8.9-0.9-13.4c-0.1-2.3,0-4.6,0.2-6.9
		c0.1-1.4,0.6-2.8,0.8-3.9c-1.7-1.9-3.2-3.5-4.7-5.2c-1.6-1.9-3-3.9-4.7-5.7c-3.3-3.5-6.6-6.9-10-10.3c-3.2-3.2-6.5-6.3-9.6-9.7
		c-2.2-2.4-4.2-5-6-7.7c-3.8-5.7-6.8-11.9-9.6-18.2c-0.9-1.9-1.8-3.9-2.8-5.8c-1,0.1-1.2,0.7-1,1.5c0.4,2.2,0.7,4.4,1.3,6.6
		c0.5,1.9,0.5,3.6-0.2,5.4c-0.4,0.9-0.6,2-0.8,3c-0.9,4.3-2.5,8.2-4.2,12.2c-1,2.2-1.7,4.6-2.3,7c-1.2,4.9-2.3,9.8-3.2,14.7
		c-0.9,5.2-1.7,10.4-2.4,15.6c-0.3,2.3-0.4,4.6-0.7,6.9c-0.5,4.1-1.2,8.2-1.5,12.4c-0.4,4.8-0.8,9.7-0.8,14.6
		c0,4.5,0.3,9.1,0.6,13.6c0.1,1.6-0.3,2.7-1.4,3.8c-2.6,2.5-5.1,5.1-8.7,6.2c-0.5,0.2-1.1,0.5-1.6,0.5c-3.9,0.2-7.7,1.5-11.5,2.3
		c-1.9,0.4-3.8,0.5-5.7,0.6c-3.2,0.2-6.4,0.4-9.8,0.6c-0.3-3.7-0.6-7.5-0.7-11.3c-0.2-6,0.3-11.9,1-17.9c0.6-4.9,0.4-9.9,0.3-14.8
		c-0.2-6.4,0.2-12.8-0.1-19.2c-0.3-9.9-0.8-19.8-1.5-29.7c-0.6-8.9-1.6-17.8-2.3-26.7c-0.3-4.1-0.4-8.3-0.6-12.4
		c0-0.4,0-0.8-0.1-1.2c-0.1-0.2-0.3-0.4-0.5-0.6c-1,0.4-0.8,1.3-0.8,2c0.2,3.9,0.3,7.8,0.6,11.7c0.4,5.2,0.9,10.3,1.4,15.5
		c0.5,6.2,1,12.4,1.3,18.6c0.3,4.9,0.4,9.9,0.5,14.8c0.2,5,0.4,9.9,0.5,14.9c0.1,7.9,0.1,15.8-0.1,23.7c-0.1,3.4-0.8,6.8-0.9,10.2
		c-0.2,5.4-0.2,10.8-0.2,16.3c0,2,0.2,4,0.4,6.2c-1.2,0-2.2,0.2-3.1,0c-8.3-1.6-16.6-3.1-24.8-4.9c-4-0.8-7.8-2.3-11.1-4.9
		c-0.8-0.6-1.7-1.1-2.5-1.5c0.4-4.8,0.8-9.5,1.2-14.2c0.1-1.4,0.2-2.9,0.2-4.3c-0.1-4.6-0.3-9.3-0.4-13.9c-0.1-4.1-0.9-8.1-1.8-12
		c-1.8-7.6-3.6-15.2-5.4-22.8c-1.2-4.9-3.2-9.5-5.5-14c-1.4-2.8-2.7-5.6-4.1-8.4c-0.8-1.6-1.6-3.2-2.6-4.6c-0.9-1.2-1.4-2.5-1.3-4
		c0.2-1.7-0.4-3.1-1.6-4.2c-1.2,0.3-1.3,1.2-1,2.1c0.6,1.6,0.3,3-0.4,4.4c-1,2.2-2,4.3-3,6.5c-1.2,2.6-2.2,5.3-3.7,7.7
		c-4.3,6.5-8.1,13.3-13.3,19.2c-1.6,1.9-3.3,3.7-4.7,5.7c-1.2,1.8-2,3.9-3,5.8c0.2,0.1,0.3,0.2,0.5,0.3c0.6-0.7,1.1-1.3,1.8-2.1
		c0.4,2.4,0.7,4.8,1.1,7.1c1.1,6.2,2.2,12.4,3.3,18.6c0.4,2.4,0.5,4.9,0.7,7.4c0.6,5.1,1.1,10.3,1.7,15.4c0.2,2.1,0.5,4.3,0.6,6.4
		c0.1,4.8,2,8.8,5.3,12.2c1.2,1.3,2.4,2.6,3.7,4.1c-0.9,0.3-1.7,0.7-2.5,0.8c-6,0.3-11.2,2.7-16,6.3c-1.7,1.3-3.4,2.4-5.1,3.5
		c-0.4,0.3-1,0.4-1.8,0.7c0-0.7-0.2-1.3,0-1.7c1.7-3,1.1-6.3,0.8-9.4c-0.3-3.3-1-6.6-1.8-9.9c-0.7-3.2-1.8-6.3-2.7-9.4
		c-0.2-0.6-0.5-1.2-0.6-1.8c-0.3-4.1-1.8-7.9-2.8-11.8c-0.9-3.5-1.7-6.9-2.7-10.4c-0.6-2.2-1.5-4.4-2.1-6.6
		c-0.9-3.1-1.7-6.3-2.5-9.4c-0.5-2-1.3-4-1.4-6c-0.2-4.1-0.2-8.3,0-12.4c0.2-4.9,2.6-9.1,4.7-13.4c1.5-3.1,2.6-6.5,4.5-9.5
		c1.9-3,3.4-6.3,5-9.4c1.4-2.7,2.5-5.5,3.8-8.2c1.1-2.2,2.2-4.4,3.4-6.5c0.9-1.6,1.8-3.2,2.7-4.8c3.7-6.8,7.4-13.6,11.3-20.2
		c1.6-2.7,3.7-5.2,5.5-7.8c0.4-0.5,0.8-1,1.3-1.4c4.7-3.1,9.4-6.4,14.6-8.6c2.7-1.1,5.6-1.8,8.6-1.8c3,0,6.1-0.3,9-1.1
		c6.2-1.8,11.2-5.3,13.8-11.5c0.8-1.9,1.1-4,1.7-6.3c0.7,0.8,1.4,1.6,2.1,2.3c1.6,1.7,3.1,3.7,5,5.1c3.6,2.7,7.7,4.3,12.1,4.8
		c2.8,0.3,5.7-0.3,8.5-0.9c5.8-1.2,11.1-3.5,15.2-8C146.8,107.6,148.5,106.3,150.4,104.5z M172.3,156c-2.6,0.6-4.3,2.3-5.9,4.2
		c-2.5,2.9-4.7,6-6.8,9.3c-2.9,4.5-5.6,9.1-7.6,14.1c-1.7,4-3.3,8.1-5,12.2c-2.8,6.7-5.1,13.6-6.2,20.8c-0.1,0.5-0.2,1-0.2,1.4
		c0,0.2,0.3,0.7,0.5,0.7c0.3,0,0.8-0.1,1-0.4c0.2-0.3,0.2-0.7,0.2-1.1c0.3-1.9,0.4-3.8,0.8-5.7c1.7-8.6,5.9-16.3,8.9-24.5
		c1.3-3.6,3.2-6.9,4.9-10.3c2.8-5.5,6.1-10.6,10.4-15.1C169.1,159.7,170.7,157.8,172.3,156z M73,171.1c-0.7,1.2-0.1,1.6,0.8,1.9
		c2.7,1.2,4.8,3.1,6.7,5.3c2,2.5,4,5,5.9,7.5c5.1,7,10,14,15.1,20.9c3.1,4.1,5.8,8.4,7.7,13.1c0.3,0.7,0.5,1.6,1.6,1.4
		c0.1-0.2,0.2-0.3,0.2-0.4c-0.1-0.5-0.1-0.9-0.3-1.4c-1.9-4.7-4.4-9-7.5-13c-4.4-5.8-8.8-11.8-13.1-17.7c-3.3-4.4-6.2-9.1-10.3-12.9
		C77.7,174,75.6,172.4,73,171.1z"/>
	<path class="st2" d="M85.3,278c3,1.5,5.8,2.8,8.5,4.2c4.6,2.4,9.4,4.3,14.6,4.9c4.9,0.6,9.8,1.3,14.7,1.4
		c6.1,0.1,12.1-0.4,18.1-1.2c3.5-0.5,6.9-1.3,10.2-2.4c0.4-0.1,0.8-0.2,1.2-0.2c5.5-0.5,10.2-2.4,13.4-7.2c0.2-0.3,0.6-0.5,1.1-0.9
		c0.5,1.5,0.9,2.9,1.3,4.2c2.3,7.8,4.5,15.6,7,23.4c3.2,9.9,6.6,19.6,9.8,29.5c1.2,3.5,2.1,7.2,3.4,10.7c0.9,2.6,2,5,3,7.5
		c2.3,6.2,4.5,12.4,6.7,18.6c1.2,3.3,2.4,6.6,3.6,9.9c1.7,4.6,3.3,9.1,5,13.7c1.9,5,4,9.9,6,14.9c1.1,2.9,1.9,5.9,3.1,8.8
		c2,4.9,3.8,9.8,4.9,15c0.7,3.3,1.2,6.6,1.5,9.9c0.5,5.2,1,10.4,1,15.5c0.1,7.1-0.2,14.2-0.4,21.3c-0.2,6.6-1,13-1.8,19.5
		c-0.4,3.2-0.2,6.4-0.2,9.6c0,8.2,0.1,16.4,0.2,24.7c0.1,6.3,0,12.6,0.2,18.9c0.1,4.8,1,9.5,3,14c0.2,0.5,0.3,1.1,0.5,1.9
		c-1.6-0.3-3-0.5-4.4-0.8c-7-1.5-13.4,0.3-19.7,3.3c-0.8,0.4-1.8,0.7-2.7,0.9c-2.3,0.5-4.6,1-7,1.3c-2.9,0.3-4-1.3-3-4
		c0.6-1.5,1.5-2.8,2.1-4.3c1.5-3.6,2.2-7.5,2.5-11.4c0.5-6.6,0.9-13.2,1.2-19.9c0.1-1.7-0.2-3.5-0.2-5.2c0-1.3-0.7-2.7,0.2-3.9
		c0.1-0.1,0-0.4-0.1-0.7c-0.8-3.4-1.6-6.8-2.3-10.2c-1.1-5.7-2-11.5-2-17.3c0-3.4,0.2-6.7,0.2-10.1c0.1-9,0.3-18.1,0.1-27.1
		c-0.1-3.6-1.1-7.2-1.8-10.8c-0.6-3-1.4-5.9-2.2-9c1.9,0.1,2.9,2.9,5.1,1c-0.4-0.3-0.7-0.5-1-0.8c-1.3-1-2.8-1.9-4-3
		c-2.2-2.1-4.3-4.2-6.2-6.6c-2.5-3.2-4.9-6.5-7.2-9.8c-3.9-5.6-7.7-11.4-11.7-16.9c-3.4-4.6-6.9-9.3-9.3-14.5
		c-2.5-5.3-5.8-10.1-8.3-15.3c-3.1-6.5-6.2-12.9-9.4-19.4c-1.4-2.8-2.8-5.6-4.3-8.3c-0.3-0.5-0.8-1-1.3-1.5
		c-1.3,1.1-1.6,2.3-1.2,3.7c0,0.2,0.1,0.3,0.2,0.4c1.6,2.6,1.4,5.4,0.9,8.3c-1,5.2-1.7,10.4-2.8,15.5c-2.3,10.3-5.7,20.3-9.7,30
		c-1.9,4.5-4.2,8.7-6.4,13.1c-1.8,3.7-3.6,7.5-5.5,11.1c-0.8,1.6-1.7,3-2.6,4.5c-2.8,4.5-4.6,9.4-6.5,14.3c-2,5.2-2.6,10.7-3.7,16
		c-0.8,4.2-1,8.5-2.1,12.7c-1.2,4.6-2.2,9.3-3.3,14c-1.7,7.3-4.1,14.4-6.9,21.4c-2.1,5.1-4.6,10-6.9,15c-3.1,6.7-6.6,13.1-8.8,20.1
		c-1.5,4.7-1.9,9.5-1.6,14.4c0.2,2.5,0.5,5.1,0.7,7.6c0.1,0.6,0.1,1.1,0.1,1.7c0.1,2.4-0.5,2.9-2.8,2.1c-1.6-0.6-3.2-1.3-4.8-2.1
		c-4.6-2.3-9.3-4-14.5-3.2c-2.3,0.4-4.6,1.1-6.9,1.9c-1.2,0.4-2.1,0.4-3.1-0.3c-2-1.3-2.4-2.7-0.7-4.5c4-4,6.1-9.1,8.5-14
		c2.6-5.4,4.5-11.1,6-16.9c0.8-3.2,1.6-6.5,1.6-9.9c0-5.6,1.1-11.1,2.1-16.6c1.5-8,3-16,4.6-24c1.4-7,2.7-13.9,4.2-20.9
		c1.4-6.5,2.9-13.1,4.5-19.6c0.4-1.9,1.1-3.7,1.8-5.4c1.4-3.2,1.8-6.6,2.3-9.9c0.7-5.5,1.4-11.1,2.1-16.6c0.3-2.7,0.3-5.4,0.7-8.1
		c0.3-2.3,1.1-4.5,1.4-6.8c0.5-4.8,2.7-9,4.1-13.4c0.5-1.6,0.7-3.2,0.9-4.8c0.2-0.9,0.2-1.8,0.4-2.6c1.2-5.7,1.6-11.6,1.6-17.4
		c0-3.3-0.6-6.7-1.2-10c-0.4-2.8-1.1-5.6-1.6-8.4c-0.2-1.2-0.6-2.4-0.1-3.8c0.2-0.6-0.1-1.4-0.2-2.1c-0.3-2.4-0.6-4.7-0.8-7.1
		c-0.2-2.5-0.4-5.1-0.3-7.6c0.4-7.3,2-14.4,4.6-21.2c1.8-4.8,4.1-9.4,6.7-13.8C83.9,280,84.6,279.1,85.3,278z"/>
	<path class="st3" d="M33.7,569.5c3-0.9,5.3-2.7,8.2-2.6c2.3,0,4.5,0.1,6.5,1.1c2.5,1.3,5,2.9,7.6,4.4c-1.4,2.5-0.7,5.2-0.3,7.8
		c0.4,2.8,0.4,5.6,1,8.3c0.5,2.3,1.6,4.5,2.4,6.7c1.1,2.9,1.2,5.9-0.5,8.5c-2.1,3.2-4.7,6-8.1,8c-5,3.1-10.1,2.9-15.4,1.1
		c-2.5-0.9-4.8-2.1-6.7-4c-2.9-3-4.7-6.5-4.8-10.8c0-3.8,0.9-7.1,3.1-10.3c2.3-3.4,4.1-7.2,6-10.9c0.5-1,0.4-2.3,0.5-3.5
		C33.6,572.1,33.6,570.9,33.7,569.5z"/>
	<path class="st3" d="M198.8,617.1c4.9,0.7,9.3,1.5,13.7,0.2c0-0.2,0-0.4,0-0.6c-0.8,0-1.6-0.1-2.4-0.1c-2.7-0.1-5.4-0.1-8.1-0.4
		c-5.2-0.7-8.6-3.9-10.8-8.4c-0.6-1.2-1-2.5-1.5-3.8c-1.2-3.1-0.8-6,1.2-8.6c1.2-1.5,1.7-3.2,1.9-5.1c0.4-4.5,0.7-9,1.1-13.8
		c0,0,0.3-0.2,0.5-0.4c4.8-2.3,9.7-4.5,14.8-6c2.3-0.7,4.9-0.7,7.3-0.9c0.5,0,1,0.3,1.8,0.5c-0.3,0.9-0.5,1.6-0.7,2.4
		c-1.4,4.4-2.8,8.9-2.8,13.5c0,3.6,0.8,7.1,2.6,10.3c1.6,2.8,3.2,5.5,4.8,8.3c1.5,2.4,1.5,3.1-0.4,5.3c-1.9,2.3-4,4.6-5.9,6.9
		c-2.9,3.4-6.9,3.9-10.9,3.5C202.9,619.5,200.8,619.1,198.8,617.1z"/>
	<path class="st4" d="M43,303.8c-1.3,1.1-1.8,2-1.8,3.2c0,1.3-0.1,2.6,0.1,3.8c0.4,3.4-0.3,6.5-1.6,9.6c-2.2,5.4-2.3,10.8-0.5,16.4
		c0.3,1.1,0.7,2.1,0.8,3.2c0.1,1.1-0.1,2.1-0.1,3.2c-1.8,0.4-2.5-0.6-3.1-1.6c-0.8-1.3-1.7-2.7-2.3-4.1c-0.6-1.4-1-3-1.3-4.5
		c-0.2-0.7-0.2-1.5-0.3-2.5c-1.2,0.5-1.3,1.3-1.1,2c0.6,2,1.1,4,1.9,5.9c0.5,1.1,0.7,2,0.4,3.1c-1,3.7-0.9,7.4,1.2,10.8
		c1.3,2.2,1.7,4.6,1.3,7.3c-0.4-0.5-1-0.9-1.3-1.4c-1.6-3-3.2-6.1-4.7-9.1c-0.8-1.6-1.5-3.3-2.5-5.5c-0.3,0.9-0.6,1.4-0.6,1.8
		c0.1,0.8,0.4,1.5,0.8,2.3c1.5,3.3,3,6.7,4.7,9.9c0.6,1.2,0.1,1.7-0.6,2.4c-1.4-0.2-1.8-1.3-2.4-2.2c-4.4-6.8-5.7-14.1-4.1-22
		c0.5-2.3,1-4.5,1.4-6.8c0.4-2.4,0.5-4.7,0.8-7.1c0.4-3.2,0.9-6.5,1.2-9.7c0.2-2.5,0.8-4.5,3-6.2c3.1-2.5,6.2-5,9.7-7
		c2-1.2,4.3-1.7,6.7-1.7c2.6,6.6,5.1,13.2,5.9,20.2c0.4,3.3,0.1,6.5-0.9,9.7c-0.5,1.5-1.3,2.7-3.1,3.1c-1.2-1.1-1.3-2.5-1.3-3.9
		c-0.2-5.6-1.8-11-3.9-16.1c-0.5-1.3-0.9-2.6-1.3-3.8C43.8,305.5,43.4,304.8,43,303.8z"/>
	<path class="st4" d="M257.1,304.5c0.2,6.5,1.6,12.6,2.8,18.8c0.5,2.4,0.1,4.5-0.8,6.8c-2.2,5.2-4.9,10.2-6.3,15.7
		c-0.3,1.2-0.9,2.4-1.7,3.4c-0.3,0.5-1.3,0.8-1.8,0.6c-0.5-0.2-1-1.1-1-1.7c0.1-4.6,0.2-9.3,1.7-13.7c1.5-4.6,2.5-9.2,2.5-14
		c0-1.9,0.4-3.7,0.6-5.8c-1.5,0.7-1.6,1.8-1.6,3c-0.2,2.9-0.5,5.9-0.8,8.8c-0.3,2.9-1.5,5.4-3.2,7.6c-1,1.3-2.1,2.6-3.1,4
		c-1.4,1.9-3.3,2.6-5.9,2.8c0.5-1.6,0.9-3.1,1.3-4.5c0.4-1.2,0.9-2.4,1.4-3.6c2.6-5.4,2.6-11.3,2.8-17.1c0.1-2.9,0.1-5.9,0.1-8.8
		c0-1.1,0.4-2.5-1.4-3.2c-0.3,0.5-0.8,1-1,1.6c-1.4,4.8-4.7,8.1-8.5,10.9c-1.6,1.2-3.6,2.1-6,0.6c0.5-1.2,0.9-2.4,1.6-3.4
		c1.9-2.8,3.2-5.9,3.9-9.2c0.1-0.6,0.2-1.3,0.6-1.8c0.4-0.5,0.9-1.1,1.5-1.3c2-0.7,4-0.3,5.9,0.2c3,0.6,6.1,1.3,9.1,1.9
		c1.7,0.3,3.5,0.5,5.2,0.8C255.7,304.1,256.4,304.3,257.1,304.5z"/>
	<path class="st4" d="M139.9,92.5c0.4,2.8-0.1,5.5,1,8.1c1.1,2.6,3.2,4.1,5.1,6.1c-3.1,3-5.9,6.2-10.3,7.4c-3.1,0.8-6.2,1.6-9.3,2.3
		c-4.6,1-8.6-0.9-12.6-2.7c-2.9-1.3-5-3.3-7.2-5.9c2.8-3.9,3.4-8.5,3.2-13.5C120.3,99.6,130.1,99.4,139.9,92.5z"/>
	<path class="st3" d="M59,607c-0.4,2.1-1.2,3.6-2.5,4.8c-1.8,1.7-3.6,3.3-6,4.3c-0.7,0.3-1.3,0.6-1.9,1c-2.7,2.1-5.8,2.5-9.1,2
		c-4.1-0.5-8-1.5-11.1-4.4c-1.7-1.5-2.8-3.2-3.4-5.9c1.6,1.2,2.9,2.3,4.4,3.3c1.5,1,2.9,2,4.5,2.6c4,1.4,8.2,2,12.4,1
		c4.2-1,7.6-3.6,10.5-6.8c0.5-0.5,1-1.1,1.4-1.6C58.4,607.2,58.6,607.1,59,607z"/>
	<path class="st4" d="M95.9,49.9c0.9,4.9,1.7,9.7,2.5,14.6c0.3,1.9,0.1,2.5-1,2.8c-1.5,0.4-2.9-0.2-3.2-1.9
		c-0.4-1.9-0.7-3.9-0.7-5.9c0-3.2-1-5.9-2.6-8.6c-0.5-0.8-1.4-1.9-0.6-2.8c1-1,2.1,0,3,0.4C94.2,48.8,94.9,49.3,95.9,49.9z"/>
	<path class="st0" d="M136.2,8.4c-0.8,0.9-1.5,1.8-2.3,2.7c-0.8-0.1-1.7-0.3-2.8-0.5c-0.2,0.9-0.3,1.6-0.4,2.5
		c-1.6-0.5-3.3-0.9-4,0.8c-1.1-0.3-2-0.6-2.9-0.9c0.1-0.7,0.3-1.6,0.2-2.4c-0.1-0.5-0.7-1.3-1-1.3c-1.2,0-2.3,0.4-3.5,0.6
		c-0.1,0-0.2,0.1-0.2,0.1c-1.7-1.4-3,0.4-4.5,0.8c-1.3,0.4-1.9-0.8-3.5-0.5c0.5-0.8,0.7-1.3,1-1.4c0.7-0.3,1.5-0.4,2.3-0.5
		c6.9-0.6,13.8-0.8,20.8-0.3C135.7,8.2,136,8.3,136.2,8.4z"/>
	<path class="st4" d="M153.6,68.6c-0.5-2.8-0.3-5.5,0.3-8.2c0.6-2.5,1.5-5,2.3-7.5c0.3-0.9,1.2-1.6,3.1-2.5c1.2,0.8,0.5,1.8,0.2,2.8
		c-0.6,2.1-1.3,4.1-1.9,6.2c-0.6,2.2-0.9,4.5-1.4,6.8C156.1,67.7,155.6,68.2,153.6,68.6z"/>
	<path class="st0" d="M130.4,58.9c2-0.9,2-1,1.5-2.7c-0.4-1.4-1-2.7-1.6-4c-0.3-0.8-0.3-0.8,0.3-1.9c1.4,0.9,1.6,3,3.4,3.6
		c1.3-1.5,1.2-3.3,1.2-5.2c1.5,0.7,2,1.7,1.9,3.1c-0.1,1.8,0,3.6,0,5.7c-0.8-0.2-1.4-0.3-2-0.4c-1.5-0.4-1.8-0.2-1.9,1.4
		c-0.1,1,0,1.9,0,2.8c-0.6,0.4-1.1,0.8-1.8,1.4C131.1,61.4,130.8,60.3,130.4,58.9z"/>
	<path class="st0" d="M115.9,41.5c-0.6-1.9-1.1-3.9-0.7-6c0.3-1.8,0.7-3.4,0-5.3c-0.6-1.7-0.1-3.8-0.1-5.8c1,0.1,1.8,0.3,3,0.4
		c0,1.6,0,3.3,0,4.9c0,0.2,0.1,0.6-0.1,0.7c-2.3,2.3-1.3,5.2-1.5,7.9c-0.1,1,0,2,0,3.1C116.3,41.5,116.1,41.5,115.9,41.5z"/>
	<path class="st0" d="M130.7,35c-0.7-1.1-1.3-2.1-1.9-3.2c-1.3,1-2.3,1.9-3.5,2.9c-1.8-1.3,0.1-2.9-0.5-4.4c3.6,0.3,1.8-2.7,2.8-4
		C130.4,27.4,131.5,30.6,130.7,35z"/>
	<path class="st4" d="M257.2,338.6c0.2,4.4,0.5,8.7,0.7,13c-2.3-1-3.8-3.7-3.4-6C254.9,342.7,255.9,340.2,257.2,338.6z"/>
	<path class="st0" d="M126.5,61.8c-2.8-2-3.8-4.8-4.8-7.5c-0.1-0.3,0-0.6,0.1-0.9c0.4-1.1,0.8-2.2,1.2-3.5
		C124.6,53.7,126.9,57.2,126.5,61.8z"/>
	<path class="st0" d="M138.1,25.6c-0.8-0.4-1.5-0.7-2.3-1.1c-0.1-0.9-0.1-1.8-0.2-2.8c4,0,2.3-3.1,2.9-5.1c1.5-0.2,2.4,0.9,3.7,1.5
		c-0.7,0.4-1.3,0.6-1.5,1c-0.2,0.5-0.2,1.2-0.1,1.8c0.1,1,0.4,2,0.7,3.4c-0.9-0.6-1.4-1-1.9-1.3c-0.4-0.2-1-0.2-1.3,0
		c-0.2,0.2-0.2,0.8-0.2,1.2c0.1,0.4,0.3,0.7,0.5,1.1C138.3,25.4,138.2,25.5,138.1,25.6z"/>
	<path class="st0" d="M101.6,50.6c-1.3-2.9-1.1-5.9-1.2-8.9c0-0.7,0-1.4-0.1-2.1c-0.5-2.5,0.1-4.6,1.9-6.6c-0.1,2.4-0.3,4.8-0.4,7.2
		c-0.1,1-0.3,2,0.5,2.9c0.4,0.4,0.3,1.4,0.2,2C102.2,47,101.9,48.8,101.6,50.6z"/>
	<path class="st0" d="M131.1,41.7c-0.7-0.6-1.1-1.1-1.6-1.4c-0.8-0.6-1.6-0.3-1.7,0.7c-0.1,1.1,0,2.3,0,3.5c-1.1-0.5-2-1-3.1-1.5
		c0.1-1,0.1-2.2,0.2-3.5c0.7,0,1.3,0.1,2,0.1c0.3-0.8,0.6-1.5,0.8-2.3c0.6-0.1,1.2-0.3,1.9-0.4C130.7,38.2,131.7,39.5,131.1,41.7z"
		/>
	<path class="st0" d="M129.7,43.7c0.8,0.4,1.5,0.8,2.3,1.2c0.5-0.5,1-1,1.7-1.8c-0.2,1.4-0.3,2.3-0.4,3.3c-0.1,0.9,0,1.9,0,2.9
		c-1.4-0.1-2.2-2.1-3.5-1.1c-1,0.7-2.4,1.5-1.9,3.3c-2.1-1-2.1-1-1.2-4.3c0.3,0.2,0.5,0.3,0.8,0.4c1.5,0.6,2.1,0.3,2.2-1.3
		C129.8,45.5,129.7,44.7,129.7,43.7z"/>
	<path class="st0" d="M118.7,36.5c1.7,4.5,3.8,8.5,1.8,13.2c-0.2-0.8-0.5-1.5-0.6-2.3c-0.2-1.3-0.7-2.1-2.2-1.7
		C118,42.7,118.3,39.9,118.7,36.5z"/>
	<path class="st0" d="M138.5,45.7c1.7,0,2.2-1.1,2.2-2.7c3,1.5,1.2,4.2,2,6.1c-0.7,0.5-1.5,0.7-1.8,1.2c-0.4,0.6-0.3,1.4-0.5,2.1
		C139,51.2,138.3,48.9,138.5,45.7z"/>
	<path class="st0" d="M110.5,71.6c-0.9-2.6-0.9-2.6-2.9-2.1c-0.2-1.8-0.5-3.6-0.7-5.5c0.5,0.7,1,1.2,1.6,2c0.8-1.2,1.1-1.8,1.6-2.4
		C111.1,66.2,112.1,68.8,110.5,71.6z"/>
	<path class="st0" d="M121.7,59.5c0.9,2.5,2,5,2.7,7.6c0.3,1.2-0.3,2.6-0.5,4.3c-0.3-0.8-0.5-1.2-0.7-1.7c-0.1-0.4-0.1-1-0.4-1.3
		c-2-2.7-1.9-5.7-1.6-8.7C121.4,59.6,121.5,59.6,121.7,59.5z"/>
	<path class="st0" d="M121.5,31.2c0.7,1,1.3,1.8,1.8,2.5c-0.2,2.5-0.3,4.8-0.5,7.4C120.3,38,119.8,34.2,121.5,31.2z"/>
	<path class="st0" d="M116.8,14.9c2.2,0.7,2.9-1.6,4.5-2.2c-0.3,1.4-0.5,2.7-0.9,4.1c-0.2,0.7-0.5,1.5-1.1,1.8
		c-1.2,0.8-1.9,1.7-1.6,3.4c-0.2-0.1-0.4-0.1-0.6-0.2C117.1,19.4,117,17.2,116.8,14.9z"/>
	<path class="st0" d="M130.5,17.4c1.6,0.5,2.6,0.9,2.6,2.6c0,0.7,0.4,1.4,0.6,2.1c-0.9,0.1-2.1-0.1-2.6,0.4c-0.6,0.6-0.5,1.7-0.8,3
		c-1.2-0.9-2.3-1.7-3.4-2.6c0.7-1.8,0.7-1.8,2.3-1.3c1.8,0.5,2.4,0,1.9-1.8c-0.1-0.4-0.2-0.8-0.3-1.1
		C130.7,18.3,130.6,18,130.5,17.4z"/>
	<path class="st0" d="M138.8,61.4c0.2-1.6,0.4-3.1,0.5-4.6c1.8-0.5,1.8-0.5,3-3.2c0.5,1.2,0.9,2.2,1.3,3.3c-0.9-0.1-1.6-0.5-2-0.2
		c-0.3,0.2-0.4,1.1-0.3,1.7c0.2,1.7,0.4,3.4,0.7,5.2C140.4,63.2,141.3,59.7,138.8,61.4z"/>
	<path class="st0" d="M113.2,24.6c0.4,2.8,0,5.2-0.2,7.6c-0.1,1-0.9,1.2-1.7,1.1C109.7,30.1,110.9,27.4,113.2,24.6z"/>
	<path class="st0" d="M128.8,72.9c-0.9-2.7-1.8-5.4-2.7-7.7c1-1.1,1.8-2,2.7-3c0,1.7,0.1,3.4,0.1,5.2c0,1.8,0,3.7,0,5.5
		C128.9,72.9,128.8,72.9,128.8,72.9z"/>
	<path class="st0" d="M120.5,82.7c-0.3-3.3-0.6-4,3.1-6.2c0.5,0.7,2.1,0.7,1.5,2.2c-0.6-0.2-1.3-0.7-1.6-0.5
		c-0.4,0.3-0.6,1.1-0.6,1.6c-0.1,1.2,0,2.4,0,3.8c-0.5-0.3-0.8-0.5-1.2-0.7C121.3,82.8,120.9,82.8,120.5,82.7z"/>
	<path class="st0" d="M141,79.5c0.1-1,0-1.9,0.4-2.2c1.4-1.3,1-2.9,1.1-4.4c0-0.7,0.1-1.5,0.5-2c1.3-2,1-4.1,0.9-6.2
		c0-0.5,0-0.9,0-1.9C145.4,66.8,143.7,77.3,141,79.5z"/>
	<path class="st0" d="M138.9,74.4c-0.7-3.5-1.4-6.7-2.1-9.9c0.2-0.1,0.3-0.1,0.5-0.2c0.3,0.8,0.5,1.5,0.9,2.2
		c0.4,0.8,0.8,1.6,1.4,2.1c1,1,1.3,2.3,0.6,3.5C139.7,72.7,139.4,73.4,138.9,74.4z"/>
	<path class="st0" d="M114.3,57.2c1.4,3.4,1.4,3.4,3,3.9c0,0.3,0.1,0.8,0,1.1c-0.2,0.5-0.6,1-1,1.5c-0.4-0.3-0.9-0.5-1.2-0.9
		c-0.9-0.9-1.3-0.9-2,0.2c-0.1,0.2-0.2,0.4-0.3,0.7c-0.1,0.2-0.2,0.4-0.5,0.9c-0.3-1-0.5-1.8-0.7-2.7c0.8-0.6,2.2,0,2.3-1.4
		C114,59.4,114.1,58.5,114.3,57.2z"/>
	<path class="st0" d="M130.9,77.3c0-3,0-6,0-9.1c0.7,0.3,1.3,0.5,1.9,0.7c0.4,3.1-0.5,5.8-1.4,8.5C131.3,77.3,131.1,77.3,130.9,77.3
		z"/>
	<path class="st0" d="M101.1,69.5c-1.7-3.1-1.6-6.7-2.2-10.1c-0.1-0.4,0.5-0.9,1.3-1.4c0.2,1.9,0.4,3.8,0.6,5.8
		C100.9,65.6,101,67.6,101.1,69.5z"/>
	<path class="st0" d="M151.2,25.7c0.6,2.8,1.8,5.4,1,8.4c-1.6-2.7-1.1-6.1-4.2-8.3c0.8,0.1,1.2,0.2,1.6,0.2
		C149.9,26,150.4,25.9,151.2,25.7z"/>
	<path class="st0" d="M138.7,38.2c0,1.6,0,3,0,4.5c-0.8,0-1.4,0-2.2,0c0-1.9,0-3.8,0-6.1C137.4,37.3,138.1,37.7,138.7,38.2z"/>
	<path class="st0" d="M121.5,70c-1.1,0.6-1.7,1-2.5,1.5c-0.5-1.6-1.7-3.3-0.1-5.5C119.8,67.4,120.6,68.7,121.5,70z"/>
	<path class="st0" d="M138.2,31.1c-0.4-1.2-0.7-2.3-1-3.4c0.1-0.1,0.3-0.2,0.4-0.3c1.4,1,2.8,2,4.1,3c0.2,0.1,0.1,0.7,0,1.1
		c-0.1,0.2-0.5,0.3-0.8,0.3C140.1,31.6,139.3,31.3,138.2,31.1z"/>
	<path class="st0" d="M113.5,88.4c-1.8-4.3-2.8-8.3-1.4-12.6c0,1.3,0,2.6,0,3.9c0.1,1.6-0.1,3.1,1,4.5
		C113.8,85.1,114.1,86.6,113.5,88.4z"/>
	<path class="st0" d="M126,91.4c0.3-2.2-1.8-3.8-0.9-6.2c0.5,0.1,1.2,0.2,1.3,0.4C126.8,87.5,128.3,89.4,126,91.4z"/>
	<path class="st0" d="M127.9,16.4c0.4,0.9,0.7,1.8,1,2.5c-1.3,0.4-2.5,0.8-3.9,1.3c-0.8-1,0.5-2,0.5-3
		C126.4,17,127.1,16.7,127.9,16.4z"/>
	<path class="st0" d="M134.6,39.4c-1.8-2.4-1.7-4.7-1.7-7.2c1.4,0.9,2,1.7,1.7,3.3C134.4,36.6,134.6,37.7,134.6,39.4z"/>
	<path class="st0" d="M153.7,43.5c0.3,0.3,1,0.6,0.9,0.9c-0.3,2.4-0.7,4.8-1.4,7.1c0-2.5,0-5,0-7.6
		C153.4,43.8,153.5,43.7,153.7,43.5z"/>
	<path class="st0" d="M133.6,16.8c-2.2-0.9-0.2-2.4-0.8-3.6c3.2,0.7,3.2,0.7,4.5-0.6c0.4,0.3,0.9,0.5,1.4,0.9
		c0.3,0.2,0.6,0.5,0.7,0.7c-1.5,0.2-2.9,0.3-4.3,0.5C133.5,14.8,133.5,14.8,133.6,16.8z"/>
	<path class="st0" d="M105.5,21.3c-1.6-3.6-0.5-6.3,2.4-8.4c-0.6,1.4-1.2,2.7-1.6,4.1C105.8,18.4,105.7,19.8,105.5,21.3z"/>
	<path class="st0" d="M134.7,77c1.8,0.2,2.6,1.9,2.1,4.3c-0.9-0.4-1.8-0.8-2.7-1.2C134.3,79.1,134.5,78.1,134.7,77z"/>
	<path class="st0" d="M106.7,77c0.9,0.3,1.3,0.5,1.8,0.6c0.4,2.4,0.7,4.8,1.1,7.1c-0.1,0-0.2,0.1-0.3,0.1c-0.3-0.8-0.6-1.6-0.9-2.3
		c-0.4-0.9-0.9-1.7-1.1-2.6C107,79.1,106.9,78.2,106.7,77z"/>
	<path class="st0" d="M118.9,52.1c1.5,2.3,0.1,4.7,0.2,7c-0.8-1.2-1.6-2.3-0.9-3.8C118.6,54.3,118.7,53.1,118.9,52.1z"/>
	<path class="st0" d="M106.4,79c-1.6-0.3-1.3-1.6-1.3-2.6c-0.1-3.2,0-6.4,0-9.5c0.2,0,0.3,0,0.5,0c0.1,2.5,0.1,5,0.3,7.5
		C105.8,75.9,106.1,77.5,106.4,79L106.4,79z"/>
	<path class="st0" d="M132.3,28.3c0.1-1.3,0.2-2.4,0.2-3.6c2.3,0.1,2,2.1,2.8,3.4C134.3,28.1,133.5,28.2,132.3,28.3z"/>
	<path class="st0" d="M120.7,25c0.9,0.8,1.6,1.4,2.5,2.2c0,0.4,0,1.2,0,2.2c-0.5-0.5-0.9-1.1-1.4-1.2c-0.5-0.1-1.1,0.3-1.9,0.5
		C120.1,27.5,120.4,26.3,120.7,25z"/>
	<path class="st0" d="M143.5,42.5c2.3-1.6,0.7-4,1.3-6.1c0.6,2.8,0.4,5.6,0.2,8.5C144.5,44.1,144,43.4,143.5,42.5z"/>
	<path class="st0" d="M102.8,65.6c0-3.1,0-6.2,0-9.1C104,60.1,104,62.8,102.8,65.6z"/>
	<path class="st0" d="M112.5,54.6c-0.6-2.1-1-3.8-0.1-5.6C113.9,50.8,114,52.5,112.5,54.6z"/>
	<path class="st0" d="M110.5,78.2c0.1,1.9,0.3,3.9,0.4,5.8C109.7,82.3,109.4,79.6,110.5,78.2z"/>
	<path class="st0" d="M125.6,22.8c-0.1,1.2-0.1,2.2-0.2,3.3c-0.6-0.1-1.1-0.1-1.8-0.2c0.3-1.1,0.5-2.1,0.9-3
		C124.6,22.9,125.2,22.9,125.6,22.8z"/>
	<path class="st0" d="M111.9,45.4c0.5-1.6,0.9-3.1,1.5-4.9c0.1,2.2,0.2,4.1,0.4,6C113.3,46.2,112.7,45.9,111.9,45.4z"/>
	<path class="st0" d="M114.2,67.3c0.9,2.4,0.4,4.8-0.5,7.1C113.8,72.1,114,69.7,114.2,67.3z"/>
	<path class="st0" d="M143.2,22.5c1.1,1.2,2.7,1.9,3.1,3.7C143.2,24.8,143.2,24.8,143.2,22.5z"/>
	<path class="st0" d="M100.4,26.3c0.9,1.8,1.1,3.5-0.5,5.2C99.4,29.6,99.5,28,100.4,26.3z"/>
	<path class="st0" d="M144.4,48.4c2.5,1.2,1.2,2.7,1.1,4.4C143.8,51.5,144.6,50,144.4,48.4z"/>
	<path class="st0" d="M115,20.6c-0.8,0-1.6,0-2.6,0c0.8-1.2,1.5-2.3,2.2-3.4c0.1,0,0.3,0.1,0.4,0.1C115,18.4,115,19.4,115,20.6z"/>
	<path class="st0" d="M133.7,86.6c-0.7-2.8-0.5-3.3,1.4-3.6C135.2,84.4,134.8,85.5,133.7,86.6z"/>
	<path class="st0" d="M109.7,38.4c0.7,0.4,1.3,0.4,1.5,0.7c0.6,1.3,0,2.4-0.9,3.6C110.1,41.5,110,40.1,109.7,38.4z"/>
	<path class="st0" d="M148.5,36.3c-1.2-1.2-2.2-2.3-3.3-3.3c0.1-0.1,0.1-0.2,0.2-0.2c1.3,0.7,2.6,1.3,4,2.1
		C149.3,35.2,149,35.7,148.5,36.3z"/>
	<path class="st0" d="M128.8,84.9c0.1-1.5,0.2-2.7,0.4-4.5c0.7,1.2,1.2,1.9,1.5,2.5C130.1,83.5,129.6,84.1,128.8,84.9z"/>
	<path class="st0" d="M118,78.1c-0.3-1.6-0.7-3.2-1.1-5.2C118.3,74.9,118.5,75.6,118,78.1z"/>
	<path class="st0" d="M123.9,15.6c-0.2,0.9-0.4,1.9-0.7,2.7c-0.1,0.3-0.7,0.3-1.4,0.6c0.2-1.6,1-2.5,1.6-3.5
		C123.5,15.6,123.7,15.6,123.9,15.6z"/>
	<path class="st0" d="M126.9,53.9c2.2,2.4,2.2,2.4,1.2,4C127.8,56.6,127.4,55.5,126.9,53.9z"/>
	<path class="st0" d="M107.6,42.4c0.1,0.9,0.3,1.8,0.5,2.8C106.5,44.1,106.5,44.1,107.6,42.4z"/>
	<path class="st0" d="M147.3,62.6c-0.4-1.3-0.7-2.6-1.1-3.9c0.2-0.1,0.4-0.1,0.6-0.2c0.3,1.3,0.7,2.6,1,3.9
		C147.6,62.5,147.4,62.5,147.3,62.6z"/>
	<path class="st0" d="M138.3,89.3c0.9-0.7,1.4-1.2,2-1.7C140.9,89.3,140.6,89.6,138.3,89.3z"/>
	<path class="st0" d="M117.3,88.1c1.3,0.1,2,0.3,1.9,1.4c0,0.2-0.5,0.4-0.8,0.6C118.1,89.5,117.7,88.9,117.3,88.1z"/>
	<path class="st0" d="M113.4,89.3c1,0.6,1.6,1,2.3,1.5C113.9,91.5,113.9,91.5,113.4,89.3z"/>
	<path class="st0" d="M119.6,95.7c-1.1-0.3-2.2-0.5-3.6-0.9c1.8-1.1,2.6,0.5,3.9,0.2C119.7,95.2,119.7,95.4,119.6,95.7z"/>
	<path class="st0" d="M104.4,34.4c0,1.2,0,2.3,0,3.5c-0.1,0-0.3,0-0.4,0c0-0.5,0-1.1,0-1.6c0-0.6,0.1-1.3,0.2-1.9
		C104.2,34.5,104.3,34.5,104.4,34.4z"/>
	<path class="st0" d="M150.2,52.6c-0.4-1-0.6-1.6-0.8-2.3C151.4,50.6,151.4,50.7,150.2,52.6z"/>
	<path class="st0" d="M147.2,40.9c-0.1-0.8-0.1-1.7-0.2-2.8C148.7,39.1,147.9,40,147.2,40.9z"/>
	<path class="st0" d="M136.3,90.1c0.6,0.7,1,1.1,1.4,1.6c-0.5,0.4-1,0.7-1.8,1.3C136,91.9,136.1,91.2,136.3,90.1z"/>
	<path class="st0" d="M104.2,45.8c1.3,1,0.5,1.6-0.2,2.3C104.1,47.3,104.2,46.6,104.2,45.8z"/>
	<path class="st0" d="M122.6,89.7c0.8,0.2,1.1,0.2,1.6,0.3c-0.2,0.6-0.4,1.1-0.6,1.7c-0.1,0-0.3,0-0.4,0
		C123,91.2,122.8,90.6,122.6,89.7z"/>
	<path class="st0" d="M106.3,79c0.2,1.1,0.3,2.1,0.5,3.2C105.1,80.9,105.3,80.4,106.3,79C106.4,79,106.3,79,106.3,79z"/>
	<path class="st0" d="M140.6,81.5c-0.4,0.7-0.6,1.2-0.9,1.7c-0.3-0.2-0.5-0.2-0.5-0.3C139,82.1,139,81.4,140.6,81.5z"/>
	<path class="st0" d="M156.2,31.9c0,0.6,0.1,1.1,0.1,1.7c-0.2,0-0.4,0-0.5,0c-0.1-0.6-0.1-1.2-0.2-1.8
		C155.7,31.9,156,31.9,156.2,31.9z"/>
	<path class="st0" d="M98.1,45.5c0.1-0.6,0.1-1.1,0.2-1.7c0.1,0,0.2,0,0.3,0c0,0.6,0,1.1,0,1.7C98.4,45.6,98.3,45.6,98.1,45.5z"/>
	<path class="st0" d="M142.2,12.1c-0.6-0.4-1.3-0.7-2.2-1.2C141.4,10.9,141.4,10.9,142.2,12.1z"/>
	<path class="st0" d="M135.7,71.2c-0.1-0.7-0.2-1.3-0.3-2c0.1,0,0.2,0,0.3-0.1c0.2,0.6,0.3,1.3,0.5,1.9
		C136,71.2,135.9,71.2,135.7,71.2z"/>
	<path class="st0" d="M141.7,34.3c0.3,0.6,0.6,1.2,0.9,1.8c-0.1,0.1-0.3,0.2-0.4,0.2c-0.4-0.5-0.7-1.1-1.1-1.6
		C141.3,34.5,141.5,34.4,141.7,34.3z"/>
	<path class="st0" d="M147,70.8c0.5,0.9,0.7,1.2,0.9,1.7C146.8,72.4,146.8,72.4,147,70.8z"/>
	<path class="st0" d="M110.5,89.9c-0.3-1-0.5-1.6-0.7-2.5C110.8,88.2,110.8,88.2,110.5,89.9z"/>
	<path class="st0" d="M133.9,91.6c0.1,0.4,0.2,0.8,0.1,1.1c-0.2,0.5-0.8,0.1-0.8-0.4c0-0.2,0.1-0.4,0.2-0.6
		C133.6,91.7,133.8,91.7,133.9,91.6z"/>
	<path class="st0" d="M110.2,19.9c-0.3,0.4-0.5,0.7-0.8,1.1c-0.1-0.1-0.2-0.1-0.3-0.2c0.2-0.4,0.4-0.8,0.6-1.2
		C109.9,19.7,110,19.8,110.2,19.9z"/>
	<path d="M172.3,156c-1.6,1.8-3.1,3.7-4.8,5.5c-4.3,4.5-7.6,9.6-10.4,15.1c-1.7,3.4-3.6,6.8-4.9,10.3c-3,8.1-7.3,15.8-8.9,24.5
		c-0.4,1.9-0.5,3.8-0.8,5.7c-0.1,0.4,0,0.8-0.2,1.1c-0.2,0.2-0.7,0.4-1,0.4c-0.2,0-0.5-0.4-0.5-0.7c0-0.5,0.1-0.9,0.2-1.4
		c1.1-7.2,3.4-14.1,6.2-20.8c1.7-4,3.3-8.1,5-12.2c2.1-4.9,4.7-9.6,7.6-14.1c2.1-3.2,4.3-6.3,6.8-9.3
		C168,158.3,169.7,156.6,172.3,156z"/>
	<path d="M73,171.1c2.5,1.3,4.7,3,6.7,4.9c4.1,3.8,7,8.5,10.3,12.9c4.4,5.9,8.7,11.8,13.1,17.7c3.1,4,5.6,8.3,7.5,13
		c0.2,0.4,0.2,0.9,0.3,1.4c0,0.1-0.1,0.3-0.2,0.4c-1.1,0.2-1.3-0.7-1.6-1.4c-1.9-4.8-4.6-9-7.7-13.1c-5.2-6.9-10.1-14-15.1-20.9
		c-1.9-2.6-3.9-5.1-5.9-7.5c-1.8-2.3-4-4.1-6.7-5.3C73,172.7,72.4,172.3,73,171.1z"/>
</g>
</svg>
