<?xml version="1.0" encoding="utf-8"?>
<!-- Generator: Adobe Illustrator 16.0.4, SVG Export Plug-In . SVG Version: 6.00 Build 0)  -->
<!DOCTYPE svg PUBLIC "-//W3C//DTD SVG 1.1//EN" "http://www.w3.org/Graphics/SVG/1.1/DTD/svg11.dtd">
<svg version="1.1" id="Layer_1" xmlns="http://www.w3.org/2000/svg" xmlns:xlink="http://www.w3.org/1999/xlink" x="0px" y="0px"
	 width="328.483px" height="634.565px" viewBox="61.103 20.513 328.483 634.565"
	 enable-background="new 61.103 20.513 328.483 634.565" xml:space="preserve">
<path d="M188.207,33.393c1.704-2.492,1.884-5.342,1.763-8.387c1.494,0.401,0.749,1.713,1.603,2.703
	c0.243-1.959,0.447-3.61,0.675-5.443c2.313,1.08,2.1,3.458,3.04,5.262c0.611-0.108,1.254-0.222,2.014-0.356
	c0.208-1.52,0.418-3.059,0.685-5.01c1.837,2.208,3.223,4.204,3.329,7.336c0.668-0.651,1.047-0.858,1.113-1.138
	c0.052-0.22-0.36-0.513-0.431-0.805c-0.099-0.411-0.208-1.176-0.08-1.229c0.933-0.387,1.068-1.342,1.522-2.338
	c1.688,1.897,2.394,3.891,2.494,6.045c0.093,1.98-0.118,3.973-0.148,5.961c-0.008,0.537,0.177,1.074,0.24,1.615
	c0.445,3.796,2.037,7.416,1.761,11.32c-0.129,1.832-0.354,3.657-0.467,5.489c-0.196,3.175-0.339,6.354-0.507,9.596
	c2.585,0.545,2.768,2.211,2.57,4.254c-0.208,2.138-0.184,4.301-0.202,6.455c-0.021,2.425-0.631,4.538-2.699,6.062
	c-1.042,0.769-1.379,1.951-1.367,3.192c0.047,4.898-1.33,9.417-3.431,13.791c-1.622,3.376-3.083,6.83-4.569,10.27
	c-0.163,0.378-0.158,0.95,0.007,1.329c1.628,3.735,3.265,7.468,5.539,10.876c1.333,1.998,3.134,3.414,5.369,4.21
	c5.076,1.809,10.29,2.729,15.715,2.643c5.105-0.082,10.268-0.275,15.304,0.368c3.12,0.398,6.262,1.913,9.024,3.549
	c6.049,3.58,10.426,8.89,13.713,15.043c3.672,6.873,8.225,13.111,13.106,19.152c5.384,6.663,11.298,12.826,17.17,19.047
	c3.928,4.161,7.231,8.906,10.849,13.362c4.121,5.076,7.804,10.513,12.423,15.173c1.111,1.122,2.504,1.959,3.713,2.989
	c1.392,1.183,2.729,2.43,4.078,3.66c3.578,3.259,6.078,7.378,8.928,11.218c1.377,1.854,2.759,3.705,4.142,5.555
	c0.188,0.255,0.444,0.473,0.592,0.75c3.389,6.404,6.797,12.799,10.127,19.235c0.65,1.258,1.01,2.67,1.48,4.02
	c0.969,2.775,1.858,5.58,2.901,8.327c0.695,1.83,1.951,3.267,3.857,4.248c-0.688,1.505-0.021,2.659,0.916,3.851
	c1.793,2.28,3.873,4.2,6.211,5.914c4.045,2.967,8.026,6.024,11.979,9.113c1.925,1.502,3.722,3.167,5.584,4.748
	c2.455,2.082,2.845,3.942,1.57,6.984c-0.395,0.942-0.568,1.98-0.812,2.981c-0.228,0.928-0.425,1.864-0.613,2.8
	c-0.484,2.385-1.826,3.829-4.344,4.015c-0.312,0.023-0.619,0.097-1.06,0.168c-0.576,3.356-3.26,4.128-6.012,4.846
	c-0.494,0.129-0.994,0.402-1.379,0.737c-0.82,0.713-1.703,1.098-2.812,1.128c-2.758,0.076-3.03-0.02-4.01-2.665
	c-0.635-1.714-1.1-3.491-1.631-5.243c-1.193-3.95-3.949-6.333-7.783-7.955c0,1.512,0.016,2.775-0.004,4.037
	c-0.027,1.756-0.791,3.147-2.42,3.804c-1.615,0.651-3.303,1.197-5.008,1.523c-1.338,0.256-2.631-1.245-2.64-3.094
	c-0.008-1.584,0.316-3.171,0.502-4.755c0.679-5.734,1.226-11.449-1.682-16.833c-0.375-0.693-0.562-1.487-0.84-2.233
	c-0.703-1.895-1.531-3.797-3.215-4.958c-1.812-1.247-2.752-3.145-3.683-4.874c-1.897-3.533-4.168-6.769-6.653-9.864
	c-2.246-2.793-4.625-5.484-7.047-8.127c-1.179-1.286-2.619-2.326-3.886-3.537c-2.416-2.313-4.848-4.616-7.162-7.029
	c-1.151-1.201-2.085-2.617-3.065-3.974c-1.169-1.619-2.294-3.27-3.41-4.925c-0.444-0.661-0.994-1.326-1.187-2.069
	c-0.769-2.975-2.979-4.795-5.198-6.55c-3.119-2.468-6.44-4.682-9.534-7.18c-3.034-2.449-5.901-5.105-8.82-7.694
	c-1.73-1.534-3.373-3.169-5.146-4.651c-0.91-0.76-1.942-1.546-3.051-1.863c-2.929-0.838-4.811-2.998-6.951-4.9
	c-2.796-2.485-5.726-4.82-8.605-7.21c-2.021-1.679-4.053-3.347-6.088-5.009c-0.232-0.189-0.521-0.31-1.059-0.623
	c-0.698,2.757-1.339,5.346-2.01,7.929c-2.626,10.118-5.391,20.203-7.849,30.361c-1.74,7.194-1.613,14.575-1.511,21.94
	c0.072,5.157,1.24,10.121,2.19,15.125c1.162,6.111,2.523,12.183,3.748,18.282c0.453,2.255,0.772,4.538,1.126,6.812
	c0.045,0.291,0.036,0.692-0.129,0.897c-1.949,2.445-1.419,5.294-1.206,8.018c0.588,7.548,1.132,15.107,2.041,22.62
	c1.189,9.823,3.249,19.499,5.516,29.135c1.771,7.53,3.354,15.114,4.717,22.729c1.235,6.901,1.998,13.886,3.087,20.815
	c1.138,7.247,2.428,14.469,3.625,21.706c0.339,2.047,0.531,4.117,0.893,6.16c0.527,2.973,1.201,5.922,1.713,8.897
	c0.552,3.211,0.937,6.451,1.49,9.66c0.439,2.545,0.437,5.029,0.043,7.604c-0.818,5.358-1.131,10.805-2.092,16.133
	c-0.967,5.354-1.731,10.703-1.868,16.137c-0.126,5.023-0.006,10.059-0.31,15.07c-0.278,4.6-0.407,9.221-1.32,13.776
	c-1.081,5.394-1.898,10.838-2.969,16.232c-1.288,6.49-2.716,12.953-4.094,19.426c-1.645,7.726-3.162,15.474-3.216,23.412
	c-0.029,4.4,1.217,8.477,3.329,12.336c0.836,1.525,1.367,3.217,2.061,4.822c0.353,0.813,0.315,1.51-0.329,2.19
	c-0.547,0.578-1.015,1.234-1.482,1.882c-1.503,2.077-3.322,3.471-6.114,2.698c-0.924,2.418-0.185,4.629,0.418,6.689
	c2.478,8.479,6.299,16.279,11.78,23.305c2.731,3.5,4.936,7.433,7.185,11.281c1.46,2.498,0.602,5.178-2.031,6.703
	c-6.028,3.496-12.262,3.975-18.784,1.27c-3.707-1.539-7.24-3.348-10.536-5.604c-2.706-1.854-5.172-3.961-6.728-6.976
	c-2.043-3.955-4.353-7.782-6.23-11.812c-1.272-2.732-2.036-5.705-2.965-8.59c-1.264-3.927-3.704-6.804-7.37-8.701
	c-1.413-0.732-2.778-1.582-4.08-2.498c-3.772-2.652-5.209-6.506-5.331-10.932c-0.05-1.828,0.178-3.662,0.215-5.492
	c0.01-0.527-0.16-1.074-0.326-1.586c-0.735-2.261,0.054-4.84,2.075-5.99c4.293-2.441,6.197-6.473,7.336-10.951
	c1.122-4.408,2.106-8.856,2.959-13.326c0.321-1.686,0.185-3.477,0.109-5.215c-0.107-2.475-0.395-4.94-0.526-7.416
	c-0.258-4.869-0.348-9.75-0.722-14.608c-0.367-4.773-0.894-9.541-1.547-14.285c-0.75-5.449-1.946-10.847-2.526-16.312
	c-0.598-5.641-0.392-11.307,0.539-16.953c0.932-5.659,2.753-10.938,5.73-15.83c0.702-1.153,1.403-2.315,1.983-3.532
	c0.895-1.875,1.609-3.785,1.641-5.947c0.022-1.482,0.533-2.951,0.738-4.438c0.078-0.567,0.066-1.241-0.168-1.743
	c-2.495-5.354-5.066-10.67-7.569-16.019c-2.688-5.742-4.35-11.824-5.893-17.944c-0.234-0.931-0.442-1.869-0.751-2.773
	c-1.468-4.291-3.113-8.527-4.409-12.868c-1.045-3.504-1.618-7.146-2.519-10.696c-0.997-3.927-1.557-7.959-3.327-11.696
	c-1.251-2.642-2.317-5.399-2.397-8.443c-0.026-0.972-0.498-2.053-1.07-2.871c-5.146-7.354-9.078-15.396-13.237-23.301
	c-3.046-5.79-5.841-11.715-8.598-17.649c-0.794-1.709-1.327-3.63-1.538-5.503c-0.858-7.616-0.286-15.167,1.376-22.649
	c0.728-3.275,1.336-6.579,1.921-9.884c0.352-1.988,0.706-3.938,2.148-5.492c1.046-1.126,1.313-2.546,1.197-3.99
	c-0.563-7.011-1.898-13.853-6.443-19.471c-2.955-3.652-6.378-6.97-10.522-9.31c-1.41-0.797-3.159-1.123-4.797-1.365
	c-4.606-0.681-9.043-0.062-13.257,2.038c-0.712,5.204-1.086,10.339-2.191,15.313c-1.069,4.81-2.51,9.617-4.466,14.132
	c-3.684,8.503-7.825,16.809-11.849,25.162c-0.791,1.642-1.966,3.093-2.873,4.685c-3.431,6.016-6.931,11.996-10.19,18.104
	c-1.791,3.356-3.244,6.904-4.671,10.437c-0.848,2.098-0.911,4.324-0.324,6.586c0.41,1.581,0.42,3.158-1.409,4.127
	c-0.425,0.225-0.748,1.008-0.777,1.552c-0.171,3.266-0.157,6.501,0.703,9.728c0.96,3.604,2.224,7.222,1.457,11.058
	c-0.404,2.022-0.798,4.066-1.458,6.012c-0.995,2.932-2.194,5.795-3.362,8.665c-0.266,0.652-0.732,1.23-1.152,1.811
	c-1.26,1.739-2.647,3.274-5.335,2.625c-0.468,1.377-1.061,2.61-1.292,3.907c-0.54,3.041-2.643,5.07-4.563,7.157
	c-0.736,0.8-2.085,1.199-3.225,1.419c-1.291,0.25-2.104,1.002-2.962,1.834c-1.181,1.145-2.496,1.99-4.261,1.623
	c-0.896-0.883-1.121-1.896-0.763-3.076c0.255-0.838,0.438-1.699,0.688-2.54c0.404-1.362,0.468-2.53-0.767-3.658
	c-0.853-0.778-1.386-1.942-1.95-2.994c-0.708-1.32-0.896-2.75-0.133-4.108c0.934-1.664,1.969-3.271,2.971-4.896
	c0.416-0.674,0.988-1.281,1.273-2.003c1.989-5.043,4.083-10.054,5.824-15.184c1.432-4.217,2.369-8.599,2.671-13.07
	c0.072-1.06-0.174-2.142-0.286-3.347c-1.322,0-2.337,0-3.673,0c0.214-0.778,0.32-1.526,0.628-2.179
	c0.301-0.639,0.82-1.173,1.224-1.767c1.972-2.899,2.914-6.096,3.312-9.598c0.475-4.184,1.457-8.308,2.131-12.472
	c0.254-1.569,0.505-3.205,0.339-4.766c-0.553-5.19,0.519-10.181,1.747-15.125c1.652-6.651,3.336-13.319,6.243-19.568
	c1.375-2.956,3.061-5.764,4.569-8.659c2.212-4.244,4.453-8.448,7.275-12.354c1.538-2.128,2.089-4.773,2.171-7.491
	c0.172-5.647,0.876-11.306,0.65-16.931c-0.349-8.711,0.544-17.384,0.329-26.07c-0.11-4.456-0.555-8.922-1.146-13.343
	c-0.705-5.27-0.73-10.535,0.117-15.729c0.755-4.63,2.003-9.194,3.255-13.726c1.15-4.165,3.762-7.54,6.663-10.638
	c3.32-3.546,6.909-6.729,11.27-9.083c4.26-2.301,8.229-5.138,12.349-7.704c1.212-0.755,2.526-1.345,3.744-2.092
	c1.272-0.779,2.684-1.424,3.122-3.108c0.095-0.367,0.675-0.622,1.053-0.896c4.449-3.241,8.855-6.565,12.509-10.698
	c1.702-1.925,3.404-4.014,3.624-6.84c0.094-1.209-0.258-2.131-0.962-3.086c-1.514-2.052-2.953-4.162-4.349-6.296
	c-2.271-3.472-4.541-6.947-6.691-10.493c-0.799-1.317-1.963-2.623-1.396-4.114c-1.712-1.698-3.306-3.211-4.807-4.812
	c-0.404-0.431-0.704-1.112-0.75-1.701c-0.256-3.234-1.407-6.197-2.496-9.205c-0.474-1.31-0.658-2.81-0.596-4.206
	c0.078-1.724,1.175-2.398,3.14-2.073c-0.644-4.057-1.195-8.033-1.936-11.973c-0.345-1.839-1.297-3.578-1.54-5.419
	c-0.302-2.281-0.227-4.624-0.151-6.936c0.019-0.591,0.552-1.263,1.021-1.724c1.421-1.399,2.822-2.857,4.427-4.023
	c1.854-1.348,3.854-2.534,5.907-3.556c1.643-0.817,2.707-1.787,2.895-3.727c0.091-0.937,0.722-1.821,1.553-2.663
	c0.209,0.976,0.418,1.951,0.67,3.125c2.187-1.354,3.897-2.83,3.737-5.802c1.934,0.855,1.799,2.774,2.417,4.003
	c0.607,1.209-0.098,3.078-0.229,4.685c2.196-1.316,6.475-8.388,7.391-12.285c0.278,0.221,0.526,0.363,0.694,0.57
	c0.138,0.169,0.182,0.416,0.371,0.887c0.223-0.76,0.377-1.29,0.567-1.938c0.336,0.196,0.63,0.264,0.682,0.415
	c0.202,0.588,0.395,1.195,0.466,1.809c0.12,1.042-0.34,2.237,1.06,2.864c0.247,0.11,0.297,0.865,0.278,1.315
	c-0.03,0.688-0.199,1.369-0.094,2.113c2.853-2.721,2.98-6.336,3.202-10.521c1.98,2.917,1.387,5.994,2.543,8.624
	c0-0.856,0-1.712,0-3.168c0.706,0.849,1.047,1.258,1.388,1.667c1.78-1.84,1.627-4.292,1.841-6.636
	c1.773,0.553,2.669,1.568,2.617,3.452c-0.064,2.303-0.409,4.598-0.622,6.897c-0.065,0.705-0.098,1.412-0.147,2.116
	c-0.305-0.001-0.607-0.001-0.876-0.001c0.075-1.188,0.147-2.331,0.22-3.473c-0.042,0.012-0.083,0.024-0.125,0.037
	c-0.612,2.373-1.225,4.745-1.837,7.117c0.152,0.062,0.304,0.125,0.456,0.187C186.811,36.018,187.509,34.706,188.207,33.393z
	 M163.734,33.911c-0.436,0.314-0.972,0.551-1.291,0.958c-1.226,1.561-2.39,3.171-3.56,4.775c-0.305,0.419-0.55,0.882-0.822,1.325
	c0.124,0.108,0.248,0.217,0.371,0.325c0.562-0.564,1.162-1.096,1.675-1.701c0.456-0.538,0.691-1.458,1.241-1.686
	c1.888-0.782,2.127-2.368,2.337-4.038c0.477-0.179,0.953-0.357,1.62-0.608c-0.225-0.822-0.441-1.616-0.658-2.41
	c-0.177,0.023-0.354,0.046-0.531,0.069C163.989,31.917,163.861,32.914,163.734,33.911z M168.04,41.094
	c-1.359,1.391-2.819,2.7-4.045,4.201c-0.913,1.117-1.523,2.48-2.27,3.738c3.594-0.517,7.297-1.04,9.963-4.154
	c0.041-0.049,0.259,0.053,0.392,0.07c0.701,0,1.403,0,2.451,0c-0.719-0.594-1.102-0.91-1.48-1.223
	c-0.217,0.237-0.336,0.345-0.428,0.473c-0.186,0.256-0.356,0.523-0.534,0.786c-0.107-0.29-0.276-0.839-0.314-0.831
	c-1.167,0.271-2.503-0.729-3.566,0.541c-0.402,0.48-1.111,0.704-1.68,1.045c0.899-1.245,2.025-2.164,3.114-3.125
	c2.163-1.911,2.154-1.92,2.382-3.314c-1.402,0.766-1.888,2.737-3.816,3.015c-0.085-0.502-0.151-0.885-0.216-1.268
	c2.733-1.884,3.215-4.975,4.29-7.751c-1.059,1.464-1.976,3.007-2.808,4.594C168.932,38.925,168.513,40.024,168.04,41.094z
	 M99.106,341.029c-1.357-3.076-0.609-6.147,0.443-9.07c1.099-3.049,2.449-6.039,3.992-8.89c3.483-6.435,7.139-12.776,10.758-19.136
	c0.862-1.516,1.993-2.889,2.76-4.446c4.2-8.536,8.512-17.025,12.396-25.705c1.878-4.2,3.15-8.722,4.238-13.209
	c0.881-3.632,1.202-7.42,1.536-11.16c0.241-2.698,0.419-5.479,0.018-8.131c-0.289-1.917-0.375-3.764-0.358-5.677
	c0.039-4.308,0.16-8.635-0.17-12.922c-0.6-7.789-1.468-15.558-2.296-23.328c-0.396-3.725-0.94-7.435-1.445-11.147
	c-0.601-4.416-0.92-8.882-2.294-13.162c-0.536-1.668-1.088-3.333-1.683-4.98c-0.395-1.095-0.283-1.984,0.916-2.853
	c0.875,2.788,1.734,5.404,2.511,8.044c0.424,1.441,0.826,2.907,1.036,4.39c0.514,3.622,0.884,7.263,1.365,10.889
	c0.367,2.767,0.918,5.513,1.203,8.286c0.456,4.442,0.748,8.901,1.128,13.351c0.578,6.759,1.236,13.512,1.729,20.277
	c0.209,2.867,0.077,5.757,0.129,8.636c0.011,0.593,0.153,1.184,0.193,1.474c3.598-0.53,6.962-1.228,10.358-1.477
	c4.812-0.353,9.159,1.015,12.724,4.435c0.98,0.94,1.914,1.938,2.958,2.801c5.078,4.195,8.036,9.636,9.415,15.987
	c0.559,2.572,0.952,5.18,1.414,7.773c0.423,2.375,1.745,3.532,4.197,3.572c2.239,0.036,4.479,0.029,6.718-0.007
	c0.627-0.01,1.294-0.082,1.871-0.309c1.941-0.764,3.965-0.776,5.895-0.325c5.842,1.366,11.405,3.395,16.546,6.646
	c4.773,3.019,9.806,5.628,14.749,8.373c0.816,0.454,1.738,0.865,2.649,0.971c2.455,0.285,4.93,0.413,7.4,0.557
	c0.548,0.032,1.123-0.061,1.657-0.203c2.039-0.542,2.844-1.809,2.39-3.916c-1.244-5.766-2.515-11.527-3.817-17.28
	c-2.039-9.009-2.871-18.125-2.538-27.353c0.047-1.274-0.114-2.577,0.097-3.82c0.883-5.188,1.729-10.389,2.862-15.525
	c1.029-4.667,2.393-9.26,3.645-13.876c1.146-4.225,2.475-8.406,3.481-12.663c1.203-5.089,2.206-10.228,3.188-15.365
	c0.769-4.021,1.003-8.084,0.336-12.157c-0.284-1.732-0.657-3.452-0.891-5.19c-0.312-2.32-0.168-4.568,1.568-6.554
	c2.28,9.348,2.333,18.61,0.297,27.776c0.777,1.079,1.421,2.087,2.181,2.998c1.073,1.286,2.135,2.61,3.376,3.721
	c2.853,2.553,5.859,4.932,8.71,7.487c2.67,2.394,5.108,5.054,7.844,7.364c5.858,4.946,11.811,9.785,17.787,14.588
	c4.472,3.593,9.052,7.05,13.555,10.604c0.4,0.316,0.797,0.876,0.847,1.358c0.248,2.4,1.214,4.5,2.597,6.404
	c1.17,1.611,2.501,3.103,3.737,4.666c2.783,3.517,5.695,6.878,9.984,8.66c0.217,0.09,0.441,0.188,0.621,0.334
	c4.805,3.905,9.021,8.247,11.604,14.046c1.437,3.225,3.394,6.218,5.045,9.19c3.195-1.299,6.064-2.477,8.941-3.632
	c1.428-0.574,2.859-0.809,4.438-0.497c1.185,0.233,2.449,0.046,3.802,0.046c-0.146-0.566-0.177-0.799-0.267-1.003
	c-1.354-3.042-2.807-6.044-4.051-9.13c-1.072-2.657-1.625-5.551-2.906-8.088c-2.912-5.761-6.129-11.369-9.233-17.032
	c-0.229-0.417-0.564-0.773-0.849-1.161c-1.588-2.183-3.227-4.331-4.752-6.558c-2.078-3.033-4.217-6.023-6.869-8.575
	c-1.997-1.923-4.022-3.839-6.686-4.927c-1.336-0.547-2.33-1.571-3.049-2.907c-0.639-1.184-1.498-2.256-2.332-3.322
	c-2.996-3.833-6.142-7.557-9.01-11.483c-3.541-4.849-7.304-9.488-11.516-13.767c-2.184-2.218-4.347-4.458-6.482-6.722
	c-3.449-3.657-6.856-7.336-9.887-11.376c-3.492-4.657-7.326-9.049-10.23-14.145c-2.328-4.085-4.526-8.257-7.533-11.933
	c-3.13-3.827-6.805-6.978-11.156-9.283c-1.371-0.727-3.033-1.47-4.474-1.325c-1.161,0.117-2.319,0.1-3.474,0.129
	c-0.613,0.016-1.248-0.325-1.847-0.26c-4.672,0.506-9.34,1.054-14.004,1.631c-1.103,0.136-2.2,0.375-3.274,0.662
	c-3.846,1.031-7.676,2.117-11.524,3.136c-0.325,0.086-0.74-0.172-1.113-0.27c9.323-4.535,19.357-5.214,29.286-6.467
	c-3.021-0.132-6.033-0.081-9.043-0.145c-4.3-0.092-8.648,0.328-12.851-0.993c-2.628-0.826-5.24-1.703-7.882-2.564
	c-0.812,1.575-2.069,2.919-3.696,3.808c-2.984,1.632-5.988,3.202-9.378,3.948c-4.502,0.991-8.934,2.305-13.442,3.262
	c-4.918,1.045-9.882,1.9-14.957,1.571c-3.185-0.206-6.39-0.354-9.274-1.94c-1.309-0.72-2.424-0.474-3.548,0.361
	c-1.212,0.9-2.41,1.832-3.695,2.617c-2.64,1.614-5.332,3.142-8.006,4.698c-0.342,0.199-0.71,0.352-1.066,0.527
	c0.127,0.166,0.254,0.331,0.382,0.497c0.294-0.034,0.614-0.004,0.878-0.11c3.107-1.247,6.225-2.473,9.299-3.797
	c1.067-0.46,1.755-0.387,2.358,0.86c-0.627,0.229-1.118,0.417-1.615,0.589c-1.881,0.652-3.787,1.242-5.642,1.961
	c-3.709,1.439-7.449,2.822-11.066,4.47c-2.773,1.263-5.576,2.646-6.896,5.756c-0.218,0.514-0.75,0.894-1.137,1.335
	c-0.157-0.069-0.312-0.138-0.469-0.207c0.147-0.706,0.294-1.412,0.54-2.591c-1.529,1.508-2.722,2.658-3.886,3.835
	c-3.141,3.176-5.478,6.886-6.75,11.15c-1.112,3.727-2.023,7.527-2.778,11.344c-1.056,5.338-1.19,10.711-0.439,16.145
	c0.609,4.412,1,8.88,1.083,13.332c0.1,5.438-0.212,10.884-0.373,16.325c-0.063,2.147-0.431,4.312-0.258,6.437
	c0.579,7.108,0.124,14.183-0.438,21.254c-0.253,3.193-0.208,6.577-3.143,8.858c-0.054,0.042-0.05,0.151-0.089,0.22
	c-1.599,2.755-3.238,5.489-4.785,8.273c-0.811,1.461-1.279,3.136-2.217,4.497c-2.333,3.384-3.992,7.076-5.373,10.908
	c-0.756,2.099-1.369,4.25-2.047,6.376c-2.11,6.621-3.823,13.326-4.246,20.299c-0.077,1.27,0.004,2.555-0.156,3.812
	c-0.704,5.537-1.415,11.074-2.233,16.595c-0.455,3.066-0.815,6.183-2.407,8.956c-0.486,0.846-0.942,1.709-1.474,2.676
	C88.175,345.393,93.781,345.325,99.106,341.029z M202.672,579.896c1.064,0.901,1.864,1.784,2.842,2.37
	c3.699,2.218,7.92,2.918,12.056,3.58c4.158,0.666,8.42,0.668,12.628,1.047c1.893,0.171,3.879,0.259,5.619,0.916
	c1.901,0.722,3.578,2.044,5.334,3.132c2.131,1.321,5.167,0.756,6.642-1.252c0.594-0.81,0.93-1.607,0.538-2.66
	c-0.607-1.633-0.957-3.371-1.65-4.961c-2.094-4.795-2.979-9.736-2.223-14.945c0.482-3.314,0.907-6.639,1.377-9.957
	c0.189-1.34,0.371-2.686,0.663-4.006c1.015-4.588,2.132-9.154,3.104-13.752c0.774-3.662,1.392-7.357,2.084-11.037
	c0.558-2.969,0.833-6.033,1.764-8.881c0.985-3.019,0.62-6.062,0.873-9.076c0.398-4.748,0.646-9.531,0.548-14.291
	c-0.107-5.16,1.126-10.137,1.562-15.219c0.386-4.51,1.235-8.98,1.854-13.474c0.675-4.897,1.398-9.793,1.945-14.704
	c0.312-2.8,0.316-5.632,0.446-8.449c0.011-0.232-0.021-0.5-0.129-0.701c-1.575-2.928-1.279-6.213-1.741-9.344
	c-0.649-4.412-0.97-8.871-1.661-13.275c-0.891-5.672-2.095-11.293-3.01-16.961c-1.422-8.813-2.632-17.662-4.093-26.468
	c-0.899-5.424-2.012-10.816-3.184-16.189c-1.885-8.644-4.479-17.119-5.802-25.905c-0.759-5.041-1.776-10.038-2.101-15.141
	c-0.223-3.498-0.586-6.986-0.816-10.483c-0.21-3.18-0.356-6.366-0.475-9.551c-0.063-1.734-0.011-3.473-0.011-5.069
	c-0.429-0.202-0.569-0.326-0.708-0.324c-0.874,0.012-1.751,0.02-2.621,0.089c-4.783,0.383-9.189-0.837-13.279-3.226
	c-2.341-1.367-4.577-2.916-6.867-4.371c-3.565-2.265-6.965-4.878-10.748-6.695c-5.565-2.674-11.67-3.092-17.77-2.613
	c-2.542,0.2-5.046,0.669-7.602,0.179c-0.833-0.159-1.7-0.146-2.455-0.205c-0.113,3.688-0.3,7.336-0.32,10.986
	c-0.026,5.029-0.747,9.976-1.361,14.951c-0.278,2.255-1.557,4.782,0.549,6.96c0.273,0.283,0.189,0.917,0.26,1.391
	c0.119,0.789,0.219,1.582,0.344,2.37c0.165,1.04,0.508,1.892,1.937,1.427c0.366,2.666,0.898,5.108,2.593,7.15
	c0.769,0.927,1.606,1.981,1.869,3.104c0.386,1.657,2.228,2.521,2.12,4.354c-0.006,0.106,0.203,0.324,0.307,0.322
	c1.411-0.04,1.32,1.055,1.513,1.949c0.063,0.292,0.203,0.824,0.281,0.818c1.282-0.077,1.198,1.026,1.243,1.667
	c0.168,2.404,0.336,4.74,2.599,6.273c0.192,0.13,0.098,0.626,0.238,0.9c0.523,1.025,0.874,2.589,1.69,2.9
	c1.02,0.39,1.292,0.838,1.469,1.698c0.054,0.264,0.179,0.577,0.377,0.736c2.312,1.855,2.368,2.153,0.559,4.188
	c2.018,0.877,1.889,2.707,2.248,4.688c-0.874-0.193-1.439-0.318-2.066-0.457c0.252,1.157,0.567,2.21,0.7,3.284
	c0.421,3.399,0.772,6.807,1.158,10.211c0.036,0.315,0.101,0.632,0.189,0.938c1.059,3.677,2.084,7.364,3.199,11.024
	c1.789,5.875,3.636,11.731,5.46,17.596c0.166,0.531,0.333,1.062,0.514,1.59c0.902,2.627,1.787,5.262,2.721,7.877
	c0.642,1.797,1.349,3.57,2.036,5.352c1.061,2.753,2.259,5.46,3.161,8.263c1.146,3.559,1.911,7.242,3.104,10.781
	c1.249,3.709,1.638,7.797,4.454,10.87c0.417,2.433,1.11,4.933,0.167,7.312c-2.292,5.777-4.617,11.551-7.205,17.199
	c-2.739,5.977-4.138,12.203-4.277,18.727c-0.069,3.252,0.007,6.514,0.191,9.762c0.148,2.611,0.216,5.31,0.93,7.791
	c1.229,4.271,1.665,8.586,1.874,12.976c0.336,7.022,0.798,14.041,1.09,21.065c0.165,3.982,0.305,7.984,0.082,11.957
	c-0.264,4.699-1.208,9.328-2.451,13.871c-0.904,3.31-1.948,6.533-4.34,9.201C205.341,575.684,204.238,577.65,202.672,579.896z
	 M201.45,46.721c-1.407-0.258-2.269-0.463-3.144-0.562c-0.763-0.087-1.625-0.283-2.295-0.034c-2.206,0.82-4.331,0.683-6.57,0.127
	c-1.825-0.453-3.768-0.975-5.608-0.051c-1.744,0.876-3.57,0.849-5.381,0.601c-2.522-0.345-4.871-0.091-7.122,1.173
	c-1.598,0.897-3.264,1.678-4.929,2.448c-0.547,0.253-1.184,0.43-1.781,0.435c-2.059,0.014-4.119-0.113-6.177-0.073
	c-0.59,0.011-1.234,0.309-1.746,0.641c-1.989,1.291-3.935,2.648-5.878,3.968c-0.171,2.317-0.364,4.703-0.518,7.09
	c-0.165,2.562,0.011,5.048,0.84,7.548c2.223,6.697,3.409,13.594,3.402,20.673c-0.001,1.209,0.347,2.264,1.02,3.318
	c2.701,4.237,5.179,8.621,7.984,12.785c1.635,2.427,3.594,4.679,5.652,6.769c5.206,5.285,13.72,4.114,19.204,1.168
	c3.633-1.952,5.74-5.443,7.656-8.963c0.835-1.535,1.444-3.193,2.185-4.781c1.833-3.929,3.156-8.013,3.818-12.307
	c0.182-1.182,0.508-2.342,0.67-3.525c0.281-2.046,0.705-4.104,0.682-6.153c-0.07-6.426-0.817-12.84-0.301-19.277
	c0.051-0.636-0.032-1.292,0.085-1.914C203.961,53.779,202.508,50.138,201.45,46.721z M203.934,584.771
	c-1.554,0.7-1.868,1.846-1.53,3.377c0.566,2.567,1.534,4.887,3.775,6.436c1.309,0.906,2.668,1.75,4.062,2.518
	c3.283,1.804,5.929,4.125,7.474,7.685c1.706,3.932,3.245,7.961,5.603,11.584c0.171,0.262,0.267,0.576,0.378,0.875
	c1.943,5.188,4.514,10.072,7.957,14.391c2.665,3.345,5.559,6.488,9.804,8.113c4.571,1.75,9.154,2.846,14.009,1.771
	c1.846-0.407,3.7-1.014,5.379-1.868c1.779-0.906,2.033-1.863,1.094-3.523c-1.642-2.906-3.22-5.896-5.245-8.527
	c-5.15-6.69-9.453-13.815-12.241-21.807c-0.787-2.254-1.38-4.576-2.138-6.84c-0.273-0.814-0.176-1.877-1.704-2.678
	c1.458,3.916,1.126,7.106-1.875,9.719c-1.225-0.756-1.326-1.533-0.813-2.699c1.473-3.354,1.547-6.783,0.169-10.203
	c-0.489-1.213-1.223-2.09-2.578-2.6c-2.834-1.068-5.756-1.217-8.71-1.287c-1.431-0.033-2.898,0.15-4.286-0.109
	c-3.92-0.731-7.815-1.602-11.702-2.496C208.488,586.064,206.197,585.379,203.934,584.771z M368.891,315.974
	c-0.014-0.001,0.238,0.096,0.439,0.032c0.453-0.145,0.896-0.341,1.316-0.565c2.27-1.208,2.415-1.589,1.903-4.171
	c-0.617-3.122-1.186-6.253-1.776-9.38c-0.13-0.68-0.052-1.252,0.944-1.581c1.929,3.325,1.285,7.284,2.619,10.715
	c3.035,0.239,3.639-0.178,4.322-3.055c0.498-2.091,0.944-4.194,1.459-6.282c0.281-1.147-0.107-1.973-0.935-2.764
	c-3.862-3.699-7.928-7.139-12.213-10.348c-4.896-3.667-10.199-6.921-13.567-12.291c-0.207-0.329-0.484-0.659-0.812-0.858
	c-0.445-0.274-0.953-0.544-1.461-0.607c-5.727-0.716-10.746,1.294-15.731,4.078c0.297,0.407,0.469,0.774,0.75,1.007
	c2.1,1.744,3.303,4.062,4.266,6.542c0.521,1.339,0.981,2.705,1.584,4.006c1.697,3.676,1.672,7.585,1.525,11.482
	c-0.072,1.97-0.576,3.921-0.785,5.891c-0.115,1.08-0.021,2.182-0.021,3.219c1.822,0.301,1.822,0.301,4.342-0.656
	c2.146-0.815,2.539-1.297,2.423-3.511c-0.05-0.932-0.339-1.873-0.646-2.765c-0.316-0.918-0.625-1.78,0.016-2.754
	c0.576,0.153,1.107,0.265,1.619,0.433c5.336,1.745,8.824,5.183,10.125,10.77c0.355,1.523,1.121,2.96,1.791,4.394
	c0.166,0.354,0.664,0.696,1.062,0.771c1.793,0.337,3.19-0.71,3.299-2.537c0.049-0.851-0.076-1.783-0.389-2.572
	c-1.412-3.563-2.318-7.239-2.562-10.997c-2.555-0.722-2.555-0.722-2.084-2.771c3.277,0.489,3.682,1.034,4.041,4.106
	c0.266,2.282,0.805,4.541,1.346,6.781C367.598,311.792,368.262,313.809,368.891,315.974z M84.789,346.288
	c-0.735,6.362-1.549,12.364-3.515,18.129c-1.364,3.998-2.873,7.947-4.363,11.901c-0.388,1.031-0.882,2.036-1.443,2.985
	c-1.013,1.715-2.218,3.322-3.151,5.077c-1.14,2.146-0.719,3.348,1.518,5.064c0.113-0.406,0.261-0.767,0.308-1.14
	c0.118-0.951,0.188-1.907,0.282-2.86c0.126-1.271,0.199-2.551,0.422-3.805c0.07-0.393,0.548-0.713,0.839-1.066
	c0.183,0.075,0.365,0.149,0.548,0.224c-0.29,5.893-0.849,11.765-1.891,17.689c0.46-0.066,0.714-0.05,0.914-0.146
	c0.283-0.135,0.529-0.348,0.784-0.537c2.26-1.671,2.755-4.208,3.188-6.724c0.405-2.356,0.604-4.748,0.964-7.113
	c0.136-0.896,0.177-1.92,1.23-2.425c0.217,0.188,0.558,0.356,0.543,0.486c-0.476,4.327-0.985,8.649-1.49,12.978
	c1.978,0.27,3.226-0.305,3.983-2.201c1.148-2.873,2.188-5.789,3.234-8.701c0.552-1.536,0.635-3.064,0.092-4.684
	c-0.346-1.029-0.548-2.258-0.33-3.296c0.654-3.109,1.519-6.177,2.379-9.239c0.108-0.386,0.68-0.643,1.378-1.262
	c0.053,2.554-0.753,4.386-1.448,6.206c-1.174,3.074-0.911,6.108,0.059,9.124c0.243,0.756,0.894,1.38,1.342,2.042
	c2.117-1.038,3.196-2.643,3.847-4.448c1.27-3.522,2.445-7.086,3.484-10.684c0.875-3.03,0.938-6.108-0.11-9.17
	c-1.013-2.96-1.657-5.998-1.552-9.161c0.046-1.39,0.008-2.782,0.008-4.493C92.697,346.602,88.803,347.161,84.789,346.288z
	 M168.698,116.25c-0.841,1.881-1.21,3.866-2.378,5.087c-2.689,2.81-5.749,5.27-8.695,7.829c-1.476,1.283-3.032,2.473-4.614,3.755
	c1.296,1.272,2.553,2.009,4.11,2.299c4.588,0.857,9.238,0.965,13.795,0.273c7.388-1.12,14.632-3.019,21.782-5.195
	c4.081-1.242,7.815-3.147,10.302-7.142c-4.277-2.696-5.557-7.276-6.993-11.707c-1.71,0.279-2.264,1.538-3.175,2.373
	c-1.279,1.172-2.524,2.597-4.065,3.218c-2.636,1.064-5.456,1.77-8.261,2.296c-3.558,0.667-6.974,0.076-10.012-2.088
	C169.92,116.841,169.257,116.558,168.698,116.25z M164.226,37.848c-0.447,0.071-0.655,0.04-0.744,0.128
	c-1.907,1.903-3.805,3.816-5.691,5.74c-0.145,0.148-0.33,0.456-0.271,0.573c0.673,1.307-0.492,1.878-1.101,2.562
	c-0.933,1.046-2.047,1.932-3.178,2.971c0.416,0.191,0.504,0.271,0.559,0.251c1.263-0.438,2.889-0.548,3.688-1.418
	c0.985-1.074,2.133-1.087,3.24-1.5c0.068-0.025,0.117-0.107,0.17-0.167c1.641-1.839,3.358-3.616,4.899-5.535
	c1.477-1.841,1.533-4.609,3.799-5.97c0.086-1.913,1.454-3.207,2.281-4.765c0.532-1.002,0.964-2.058,1.44-3.089
	c-1.984,2.381-3.56,4.96-5.171,7.518c-0.418,0.664-0.848,1.662-1.443,1.807c-1.454,0.355-1.696,1.414-2.18,2.508
	c-0.643,1.45-1.466,2.824-2.272,4.195c-0.475,0.809-1.189,1.361-2.646,1.783C162.012,43.045,163.638,40.828,164.226,37.848z
	 M152.615,88.513c-0.529-2.121-0.938-3.8-1.367-5.474c-0.852-3.313-1.676-6.633-2.59-9.929c-0.382-1.378-0.856-1.552-2.922-1.362
	c0.499,1.869,1.003,3.69,1.468,5.521c0.43,1.692,0.761,3.411,1.239,5.088C149.099,84.66,149.899,86.905,152.615,88.513z
	 M219.205,612.547c-0.149,0.062-0.298,0.121-0.446,0.185c0.688,2.081,1.182,4.258,2.108,6.229c1.822,3.873,3.739,7.721,5.896,11.416
	c1.67,2.861,4.006,5.207,7.127,6.594c-5.18-5.416-8.877-11.715-11.631-18.639C221.458,616.314,220.235,614.469,219.205,612.547z
	 M185.884,33.473c-0.17-0.076-0.341-0.152-0.511-0.228c-0.667,1.334-1.291,2.692-2.011,3.997c-1.114,2.018-2.259,4.022-3.467,5.985
	c-0.411,0.667-1.008,1.332-1.894,0.418c-0.05-0.052-0.542,0.325-1.14,0.695c1.801,0.555,3.338,0.882,4.672,0.333
	c4.121-1.698,7.248-6.361,7.728-11.097c-1.074,1.646-2.106,3.343-3.25,4.962c-2.72,3.85-2.741,3.835-4.364,4.288
	C184.009,39.906,184.834,36.647,185.884,33.473z M205.18,79.197c1.663-1.134,2.534-2.19,2.544-3.939
	c0.014-2.136,0.312-4.27,0.479-6.406c0.05-0.633,0.178-1.282,0.092-1.899c-0.122-0.867-0.835-1.152-1.598-0.698
	c-1.018,0.607-1.601,1.449-1.604,2.718c-0.004,2.552-0.127,5.103-0.154,7.654C204.932,77.394,205.078,78.162,205.18,79.197z
	 M155.132,38.914c-0.176-0.208-0.353-0.416-0.529-0.624c-2.595,1.38-5.19,2.759-7.628,4.056c0.035,1.583,0.426,2.487,2.099,2.684
	C151,43.085,153.066,41,155.132,38.914z M216.347,606.248c-0.732-2.912-2.806-4.73-5.194-6.152
	c-2.918-1.735-5.884-3.375-8.489-6.049c0.193,1.482,0.842,2.355,1.762,3c1.497,1.051,2.974,2.164,4.59,2.998
	C211.948,601.559,214.367,603.615,216.347,606.248z M171.499,37.923c0.151,0.096,0.302,0.193,0.454,0.29
	c1.47-2.487,2.939-4.974,4.386-7.422c-0.672-0.713-1.113-1.18-1.624-1.723C173.629,32.058,172.564,34.991,171.499,37.923z
	 M191.798,34.803c-1.765,3.573-3.913,6.42-6.75,8.972C189.283,42.867,191.393,39.359,191.798,34.803z M199.759,40.749
	c-1.643,0.883-2.988,1.667-4.387,2.34c-1.295,0.624-2.647,1.13-4.354,1.848C195.556,45.822,196.934,44.597,199.759,40.749z
	 M177.156,38.823c0.139,0.086,0.279,0.172,0.418,0.258c1.771-2.828,4.145-5.392,3.799-9.305
	C179.926,32.88,178.542,35.852,177.156,38.823z M195.466,30.332c-0.194,0.481-0.409,0.955-0.578,1.444
	c-0.307,0.886-0.322,2.229-0.928,2.586c-1.571,0.925-1.202,2.518-1.827,3.732C194.646,36.188,195.52,33.498,195.466,30.332z
	 M178.682,32.636c-2.839,0.535-3.256,1.034-4.038,4.85C175.933,35.66,177.989,34.823,178.682,32.636z M192.333,28.588
	c-1.964,2.537-2.318,3.739-2.064,6.83C191.044,33.248,192.743,31.242,192.333,28.588z M149.977,47.903
	c3.035-0.752,5.634-3.144,5.812-5.157C153.755,44.551,151.866,46.227,149.977,47.903z M186.895,28.065
	c-0.159-0.107-0.318-0.214-0.478-0.322c-1.221,1.79-2.66,3.488-2.059,6.054C185.204,31.887,186.049,29.976,186.895,28.065z
	 M191.964,41.563c3.239-2.868,3.239-2.868,3.768-5.002C193.332,38.521,192.531,39.583,191.964,41.563z M199.499,31.047
	c-1.965,2.479-2.071,2.737-1.875,4.577C199.747,33.821,199.945,33.337,199.499,31.047z M179.735,36.948
	c-1.215,1.949-2.43,3.898-3.645,5.847C178.541,41.586,179.194,39.301,179.735,36.948z M193.29,25.609
	c-0.201,0.028-0.401,0.057-0.602,0.085c0.06,0.547,0.066,1.107,0.19,1.639c0.19,0.813,0.499,1.599,0.684,2.413
	c0.085,0.376-0.005,0.792-0.011,1.189c-0.004,0.296-0.001,0.593-0.001,0.889C194.269,29.69,194.192,27.614,193.29,25.609z
	 M203.107,37.261c-0.979,1.575-1.957,3.15-3.196,5.146C202.372,40.932,202.372,40.932,203.107,37.261z M197.572,30.461
	c0.192,0.034,0.385,0.067,0.577,0.101c0.075-1.464,2.052-2.502,1.147-4.186c-0.206-0.05-0.413-0.1-0.619-0.15
	C198.309,27.638,197.94,29.05,197.572,30.461z M201.667,35.273c0.465-1.245,0.93-2.49,1.549-4.149
	C201.334,32.305,201.283,33.707,201.667,35.273z M159.507,33.857c-0.558,1.194-1.115,2.389-1.672,3.583
	C159.651,36.814,159.762,35.419,159.507,33.857z M154.23,47.466c1.262-0.577,1.367-0.677,2.153-2.628
	C155.596,45.799,154.809,46.76,154.23,47.466z M183.305,31.867c-0.191-0.039-0.382-0.077-0.574-0.116
	c-0.201,1.124-0.402,2.247-0.603,3.37c0.122,0.028,0.243,0.056,0.364,0.084C182.763,34.092,183.034,32.979,183.305,31.867z
	 M203.615,32.83c0.182,0.028,0.363,0.056,0.545,0.083c0.108-1.383,0.216-2.767,0.323-4.15c-0.104-0.008-0.207-0.017-0.311-0.025
	C203.987,30.102,203.801,31.466,203.615,32.83z M174.38,40.031c-1.583,0.748-1.583,0.748-1.779,2.069
	C173.277,41.313,173.829,40.672,174.38,40.031z M150.459,52.705c0.017,0.239,0.033,0.478,0.05,0.717
	c0.716,0.294,1.336,0.03,2.026-0.717C151.749,52.705,151.104,52.705,150.459,52.705z M174.243,41.515
	c0.136,0.113,0.271,0.227,0.407,0.34c0.329-0.614,0.658-1.229,0.986-1.843c-0.101-0.054-0.201-0.107-0.302-0.161
	C174.971,40.406,174.607,40.96,174.243,41.515z M146.333,50.769c-0.074-0.021-0.148-0.041-0.222-0.061c0,0.684,0,1.368,0,2.051
	c0.074-0.001,0.148-0.003,0.222-0.005C146.333,52.092,146.333,51.431,146.333,50.769z M196.44,40.617
	c-0.082-0.104-0.164-0.207-0.245-0.311c-0.363,0.305-0.726,0.61-1.089,0.915c0.063,0.081,0.127,0.161,0.191,0.241
	C195.678,41.18,196.059,40.898,196.44,40.617z M144.64,48.366c0.051,0,0.101,0,0.151,0c0-0.45,0-0.899,0-1.349
	c-0.05,0.001-0.101,0.003-0.151,0.005C144.64,47.47,144.64,47.918,144.64,48.366z M207.008,48.862
	c0.084,0.021,0.168,0.042,0.252,0.063c-0.022-0.371-0.045-0.742-0.068-1.113c-0.03-0.001-0.059-0.003-0.088-0.004
	C207.072,48.159,207.04,48.511,207.008,48.862z"/>
<path fill="#DA1C5C" d="M99.106,341.029c-5.326,4.296-10.932,4.364-17.107,2.771c0.532-0.967,0.988-1.83,1.474-2.676
	c1.592-2.773,1.953-5.89,2.407-8.956c0.818-5.521,1.53-11.058,2.233-16.595c0.16-1.257,0.079-2.542,0.156-3.812
	c0.422-6.973,2.135-13.678,4.246-20.299c0.678-2.127,1.291-4.278,2.047-6.376c1.38-3.832,3.039-7.523,5.373-10.908
	c0.938-1.361,1.406-3.036,2.217-4.497c1.546-2.785,3.186-5.518,4.785-8.273c0.04-0.068,0.036-0.178,0.089-0.22
	c2.934-2.281,2.889-5.666,3.143-8.858c0.562-7.071,1.018-14.146,0.438-21.254c-0.173-2.124,0.195-4.288,0.258-6.436
	c0.161-5.441,0.473-10.888,0.373-16.325c-0.082-4.451-0.474-8.919-1.083-13.332c-0.75-5.434-0.616-10.807,0.439-16.145
	c0.755-3.816,1.667-7.617,2.778-11.344c1.272-4.264,3.609-7.975,6.75-11.15c1.165-1.178,2.357-2.328,3.886-3.835
	c-0.246,1.179-0.393,1.885-0.54,2.591c0.156,0.069,0.312,0.138,0.469,0.207c0.387-0.441,0.918-0.822,1.137-1.335
	c1.321-3.109,4.123-4.493,6.896-5.756c3.617-1.648,7.357-3.031,11.066-4.47c1.855-0.719,3.761-1.309,5.642-1.961
	c0.497-0.172,0.988-0.36,1.615-0.589c-0.603-1.248-1.291-1.32-2.358-0.86c-3.074,1.325-6.191,2.551-9.299,3.797
	c-0.265,0.106-0.584,0.077-0.878,0.11c-0.127-0.166-0.254-0.332-0.382-0.497c0.356-0.175,0.724-0.328,1.066-0.527
	c2.675-1.556,5.367-3.083,8.006-4.698c1.285-0.785,2.483-1.717,3.695-2.617c1.124-0.835,2.239-1.081,3.548-0.361
	c2.885,1.586,6.089,1.734,9.274,1.94c5.075,0.329,10.039-0.526,14.957-1.571c4.508-0.957,8.94-2.271,13.442-3.262
	c3.39-0.746,6.395-2.316,9.378-3.948c1.626-0.889,2.884-2.233,3.696-3.808c2.642,0.861,5.254,1.738,7.882,2.564
	c4.202,1.321,8.551,0.901,12.851,0.993c3.01,0.064,6.021,0.012,9.043,0.145c-9.929,1.253-19.963,1.933-29.286,6.467
	c0.374,0.098,0.789,0.355,1.113,0.27c3.849-1.019,7.679-2.104,11.524-3.136c1.074-0.288,2.172-0.526,3.274-0.662
	c4.664-0.577,9.332-1.125,14.004-1.631c0.599-0.065,1.233,0.276,1.847,0.26c1.154-0.03,2.312-0.013,3.474-0.129
	c1.44-0.145,3.103,0.599,4.474,1.325c4.352,2.305,8.026,5.456,11.156,9.283c3.007,3.676,5.205,7.848,7.533,11.933
	c2.904,5.096,6.738,9.488,10.23,14.145c3.03,4.04,6.438,7.72,9.887,11.376c2.136,2.265,4.299,4.504,6.482,6.722
	c4.212,4.278,7.975,8.918,11.516,13.767c2.868,3.927,6.014,7.65,9.01,11.483c0.834,1.066,1.692,2.139,2.332,3.322
	c0.719,1.336,1.713,2.36,3.049,2.907c2.662,1.088,4.688,3.004,6.687,4.927c2.651,2.552,4.79,5.542,6.868,8.575
	c1.525,2.227,3.164,4.375,4.752,6.558c0.283,0.388,0.619,0.744,0.849,1.161c3.104,5.663,6.321,11.271,9.233,17.032
	c1.281,2.537,1.834,5.432,2.906,8.088c1.244,3.086,2.695,6.088,4.051,9.13c0.091,0.204,0.119,0.437,0.267,1.003
	c-1.353,0-2.617,0.188-3.801-0.046c-1.578-0.312-3.011-0.077-4.438,0.497c-2.877,1.156-5.746,2.333-8.941,3.632
	c-1.651-2.973-3.608-5.966-5.045-9.19c-2.582-5.799-6.799-10.141-11.604-14.046c-0.181-0.146-0.404-0.245-0.621-0.334
	c-4.289-1.781-7.201-5.143-9.984-8.66c-1.236-1.562-2.567-3.055-3.737-4.666c-1.383-1.904-2.349-4.004-2.597-6.404
	c-0.05-0.482-0.446-1.042-0.847-1.358c-4.503-3.554-9.083-7.011-13.555-10.604c-5.977-4.803-11.929-9.642-17.787-14.588
	c-2.735-2.311-5.174-4.971-7.844-7.364c-2.851-2.555-5.857-4.934-8.71-7.487c-1.241-1.111-2.303-2.435-3.376-3.721
	c-0.76-0.91-1.403-1.919-2.181-2.998c2.036-9.166,1.983-18.429-0.297-27.776c-1.736,1.986-1.88,4.234-1.568,6.554
	c0.233,1.739,0.606,3.458,0.891,5.19c0.667,4.072,0.433,8.136-0.336,12.157c-0.981,5.138-1.984,10.276-3.188,15.365
	c-1.007,4.257-2.335,8.438-3.481,12.663c-1.252,4.616-2.615,9.21-3.645,13.876c-1.133,5.136-1.979,10.337-2.862,15.525
	c-0.211,1.243-0.05,2.546-0.097,3.82c-0.333,9.228,0.499,18.344,2.538,27.353c1.303,5.753,2.573,11.514,3.817,17.28
	c0.454,2.106-0.351,3.373-2.39,3.916c-0.534,0.142-1.109,0.235-1.657,0.203c-2.471-0.145-4.945-0.272-7.4-0.557
	c-0.911-0.105-1.833-0.517-2.649-0.971c-4.943-2.745-9.976-5.354-14.749-8.373c-5.141-3.251-10.704-5.28-16.546-6.646
	c-1.929-0.451-3.954-0.439-5.895,0.325c-0.577,0.227-1.243,0.299-1.871,0.309c-2.239,0.036-4.479,0.043-6.718,0.007
	c-2.452-0.04-3.773-1.197-4.197-3.572c-0.462-2.593-0.855-5.201-1.414-7.773c-1.379-6.351-4.337-11.792-9.415-15.987
	c-1.045-0.863-1.978-1.861-2.958-2.801c-3.565-3.42-7.911-4.788-12.724-4.435c-3.396,0.249-6.76,0.947-10.358,1.477
	c-0.04-0.29-0.183-0.88-0.193-1.474c-0.053-2.879,0.08-5.77-0.129-8.636c-0.494-6.765-1.151-13.518-1.729-20.277
	c-0.38-4.45-0.673-8.909-1.128-13.351c-0.285-2.773-0.836-5.52-1.203-8.286c-0.481-3.626-0.851-7.268-1.365-10.889
	c-0.21-1.483-0.612-2.949-1.036-4.39c-0.777-2.64-1.636-5.256-2.511-8.044c-1.198,0.868-1.311,1.758-0.916,2.853
	c0.594,1.648,1.147,3.312,1.683,4.98c1.375,4.28,1.693,8.747,2.294,13.162c0.505,3.712,1.049,7.422,1.445,11.147
	c0.828,7.77,1.696,15.539,2.296,23.328c0.33,4.287,0.208,8.614,0.17,12.922c-0.017,1.913,0.069,3.76,0.358,5.677
	c0.401,2.652,0.223,5.433-0.018,8.131c-0.334,3.74-0.655,7.528-1.536,11.16c-1.088,4.487-2.36,9.009-4.238,13.209
	c-3.883,8.68-8.196,17.168-12.396,25.705c-0.767,1.557-1.898,2.931-2.76,4.446c-3.619,6.36-7.275,12.702-10.758,19.136
	c-1.543,2.851-2.894,5.841-3.992,8.89C98.497,334.881,97.749,337.953,99.106,341.029z M178.284,165.021
	c-1.28,1.168-1.427,1.963-1.276,3.013c0.433,2.999,0.75,6.015,1.079,9.027c0.529,4.834,1.061,9.669,1.535,14.509
	c0.295,3.011,0.546,6.029,0.713,9.05c0.33,5.972,0.604,11.947,0.87,17.922c0.271,6.056,0.564,12.112,0.73,18.171
	c0.1,3.667-0.045,7.34-0.039,11.01c0.005,2.939,0.018,5.881,0.131,8.817c0.11,2.863,0.316,5.725,0.564,8.58
	c0.053,0.61,0.07,1.55,1.432,1.335c0.049-0.631,0.155-1.306,0.14-1.978c-0.027-1.189-0.157-2.375-0.192-3.564
	c-0.075-2.553-0.133-5.106-0.17-7.66c-0.106-7.088-0.191-14.177-0.298-21.265c-0.043-2.862-0.043-5.729-0.198-8.586
	c-0.375-6.93-0.849-13.855-1.243-20.784c-0.154-2.71-0.074-5.438-0.323-8.137c-0.607-6.596-1.303-13.184-2.046-19.766
	C179.349,171.649,178.812,168.604,178.284,165.021z M170.07,229.848c0.221-0.075,0.442-0.149,0.664-0.224
	c-0.167-1.165-0.088-2.438-0.544-3.474c-2.281-5.173-4.516-10.382-7.127-15.39c-2.574-4.938-5.561-9.663-8.403-14.458
	c-1.595-2.692-3.477-5.156-5.873-7.213c-2.666-2.289-5.206-4.744-8.42-6.281c-1.031-0.494-2.142-0.822-3.284-1.251
	c-0.486,1.202-0.367,1.759,0.624,2.179c1.537,0.651,3.019,1.433,4.506,2.196c2.989,1.535,4.873,4.323,7.295,6.501
	c2.044,1.837,3.559,4.083,4.822,6.514c0.401,0.771,0.924,1.479,1.368,2.229c1.989,3.364,4.199,6.622,5.9,10.126
	c2.676,5.515,5.002,11.201,7.494,16.807C169.359,228.715,169.741,229.27,170.07,229.848z M199.71,224.725
	c0.161,0.014,0.322,0.027,0.483,0.041c0.114-0.257,0.312-0.509,0.328-0.771c0.112-1.914,0.293-3.832,0.256-5.744
	c-0.217-11.007,3.859-20.44,10.817-28.669c4.684-5.541,9.767-10.744,14.648-16.118c0.548-0.603,0.952-1.335,1.423-2.007
	c-0.134-0.17-0.268-0.34-0.401-0.51c-0.604,0.192-1.375,0.213-1.784,0.608c-1.37,1.322-2.634,2.757-3.896,4.187
	c-2.688,3.047-5.224,6.242-8.056,9.149c-3.485,3.579-6.367,7.511-8.77,11.898c-2.011,3.673-3.734,7.418-4.519,11.511
	C199.201,213.732,199.576,219.24,199.71,224.725z"/>
<path fill="#EE2A7B" d="M202.672,579.896c1.565-2.246,2.668-4.214,4.137-5.851c2.392-2.668,3.436-5.893,4.34-9.201
	c1.243-4.543,2.188-9.172,2.451-13.871c0.223-3.973,0.083-7.975-0.082-11.956c-0.292-7.025-0.754-14.044-1.09-21.066
	c-0.209-4.389-0.646-8.705-1.874-12.975c-0.714-2.482-0.781-5.181-0.93-7.791c-0.185-3.248-0.261-6.511-0.191-9.763
	c0.14-6.522,1.538-12.75,4.277-18.727c2.588-5.648,4.913-11.422,7.205-17.199c0.943-2.379,0.25-4.879-0.167-7.311
	c-2.816-3.074-3.205-7.162-4.454-10.871c-1.192-3.539-1.958-7.224-3.104-10.781c-0.902-2.803-2.101-5.51-3.161-8.262
	c-0.687-1.781-1.394-3.556-2.036-5.353c-0.935-2.615-1.819-5.25-2.721-7.877c-0.181-0.527-0.348-1.059-0.514-1.59
	c-1.824-5.865-3.672-11.721-5.46-17.596c-1.114-3.66-2.14-7.348-3.199-11.024c-0.088-0.306-0.153-0.622-0.189-0.938
	c-0.386-3.404-0.737-6.812-1.158-10.211c-0.133-1.074-0.448-2.127-0.7-3.284c0.626,0.139,1.192,0.264,2.066,0.457
	c-0.359-1.981-0.229-3.812-2.248-4.688c1.809-2.035,1.753-2.333-0.559-4.188c-0.198-0.159-0.323-0.473-0.377-0.736
	c-0.177-0.86-0.449-1.309-1.469-1.698c-0.816-0.312-1.167-1.875-1.69-2.9c-0.14-0.274-0.046-0.771-0.238-0.9
	c-2.262-1.533-2.43-3.87-2.599-6.273c-0.045-0.64,0.039-1.743-1.243-1.667c-0.079,0.005-0.218-0.526-0.281-0.818
	c-0.192-0.895-0.102-1.989-1.513-1.949c-0.104,0.002-0.313-0.216-0.307-0.322c0.108-1.833-1.734-2.697-2.12-4.354
	c-0.262-1.123-1.1-2.177-1.869-3.104c-1.694-2.042-2.227-4.485-2.593-7.15c-1.429,0.464-1.772-0.388-1.937-1.427
	c-0.125-0.788-0.226-1.581-0.344-2.37c-0.071-0.474,0.013-1.108-0.26-1.391c-2.105-2.179-0.827-4.706-0.549-6.96
	c0.615-4.975,1.335-9.921,1.361-14.951c0.02-3.649,0.207-7.297,0.32-10.986c0.755,0.059,1.622,0.046,2.455,0.205
	c2.556,0.49,5.06,0.021,7.602-0.179c6.1-0.479,12.205-0.061,17.77,2.613c3.782,1.816,7.182,4.43,10.748,6.695
	c2.29,1.455,4.526,3.003,6.867,4.371c4.09,2.388,8.496,3.609,13.279,3.226c0.87-0.069,1.747-0.077,2.621-0.089
	c0.139-0.002,0.279,0.122,0.708,0.324c0,1.597-0.053,3.335,0.011,5.069c0.118,3.185,0.265,6.371,0.475,9.551
	c0.23,3.497,0.594,6.986,0.816,10.483c0.324,5.104,1.342,10.1,2.101,15.141c1.323,8.786,3.917,17.262,5.802,25.905
	c1.172,5.373,2.284,10.766,3.184,16.189c1.461,8.807,2.671,17.655,4.093,26.468c0.915,5.668,2.119,11.289,3.01,16.961
	c0.691,4.404,1.012,8.863,1.661,13.275c0.462,3.131,0.166,6.416,1.741,9.344c0.107,0.201,0.14,0.469,0.129,0.701
	c-0.13,2.818-0.135,5.649-0.446,8.449c-0.547,4.912-1.271,9.807-1.945,14.705c-0.618,4.491-1.468,8.963-1.854,13.473
	c-0.436,5.082-1.669,10.059-1.562,15.219c0.099,4.76-0.149,9.543-0.548,14.291c-0.253,3.017,0.112,6.06-0.873,9.076
	c-0.931,2.848-1.206,5.912-1.764,8.881c-0.692,3.68-1.31,7.375-2.084,11.037c-0.973,4.598-2.09,9.164-3.104,13.752
	c-0.292,1.32-0.474,2.666-0.663,4.006c-0.47,3.318-0.895,6.644-1.377,9.957c-0.757,5.209,0.129,10.15,2.223,14.945
	c0.693,1.59,1.043,3.328,1.65,4.961c0.392,1.053,0.056,1.852-0.538,2.66c-1.475,2.008-4.511,2.573-6.642,1.252
	c-1.756-1.088-3.433-2.41-5.334-3.131c-1.74-0.658-3.727-0.746-5.619-0.916c-4.208-0.38-8.47-0.382-12.628-1.048
	c-4.136-0.661-8.357-1.362-12.056-3.579C204.536,581.682,203.736,580.799,202.672,579.896z"/>
<path fill="#FEE5D2" d="M201.45,46.721c1.059,3.417,2.511,7.058,1.749,11.104c-0.117,0.621-0.034,1.277-0.085,1.914
	c-0.516,6.437,0.231,12.851,0.301,19.277c0.022,2.049-0.401,4.107-0.682,6.153c-0.163,1.184-0.488,2.344-0.67,3.525
	c-0.662,4.294-1.984,8.377-3.818,12.307c-0.741,1.588-1.349,3.246-2.185,4.781c-1.916,3.52-4.023,7.011-7.656,8.963
	c-5.484,2.946-13.998,4.117-19.204-1.168c-2.058-2.089-4.017-4.342-5.652-6.769c-2.805-4.165-5.284-8.548-7.984-12.785
	c-0.672-1.055-1.021-2.109-1.02-3.318c0.007-7.079-1.179-13.976-3.402-20.673c-0.83-2.5-1.005-4.986-0.84-7.548
	c0.154-2.388,0.347-4.773,0.518-7.09c1.943-1.32,3.889-2.677,5.878-3.968c0.512-0.332,1.156-0.629,1.746-0.641
	c2.058-0.04,4.118,0.087,6.177,0.073c0.597-0.004,1.234-0.182,1.781-0.435c1.665-0.77,3.331-1.55,4.929-2.448
	c2.251-1.264,4.6-1.519,7.122-1.173c1.811,0.248,3.638,0.275,5.381-0.601c1.84-0.924,3.783-0.402,5.608,0.051
	c2.239,0.556,4.364,0.692,6.57-0.127c0.67-0.25,1.532-0.053,2.295,0.034C199.181,46.258,200.043,46.463,201.45,46.721z
	 M199.753,62.916c0.05-0.183,0.1-0.365,0.15-0.548c-0.19-0.326-0.308-0.842-0.582-0.945c-1.76-0.66-3.503-1.631-5.453-0.499
	c-1.642,0.953-3.357,1.782-4.972,2.776c-1.216,0.749-2.215,1.975-3.509,2.438c-1.529,0.548-2.419,1.655-3.37,2.438
	c0.208,0.973,0.436,1.718,0.513,2.479c0.128,1.263,0.034,2.559,0.258,3.8c0.629,3.495,1.373,6.969,2.143,10.806
	c0.951-0.58,1.62-0.989,2.37-1.447c-2.625-4.2-3.08-8.496-2.428-12.722c2.042,0.214,3.982,0.819,5.747,0.487
	c1.669-0.314,3.618-0.817,4.83-2.286c-0.07-0.163-0.14-0.326-0.209-0.489c-0.811,0.155-1.622,0.311-2.443,0.468
	c-0.023-2.153,0.045-2.219,1.787-2.01c0.391,0.047,0.792,0.007,1.528,0.007c-1.287-2.09-3.346-1.95-4.841-2.759
	C193.419,61.798,196.363,61.534,199.753,62.916z M157.942,72.572c2.633,1.654,5.154,2.829,8.011,2.377
	c1.535-0.243,3.606-0.005,4.458-2.632c-1.265,0.399-2.18,0.688-3.191,1.008c0-0.947,0-1.759,0-2.618
	c2.738,0.621,5.335,2.282,8.312-0.016c-0.759-0.546-1.314-1.019-1.937-1.372c-0.549-0.311-1.172-0.49-1.764-0.723
	c-2.955-1.162-5.893-2.367-8.873-3.459c-1.189-0.436-2.457-0.713-3.712-0.898c-2.323-0.344-4.384,1.604-3.85,3.541
	c4.317-2.522,4.317-2.522,8.834,0.422c-1.774-0.026-3.299,0.646-4.855,1.705c0.523,0.278,0.86,0.456,1.243,0.659
	C159.795,71.183,158.999,71.78,157.942,72.572z M178.293,101.488c1.933-1.104,1.937-1.116,3.82-0.422
	c2.25,0.83,4.283,0.848,6.125-1.056c1.107-1.144,2.581-1.62,4.419-0.766c-2.563-3.041-4.54-3.549-7.489-1.849
	c-1.128,0.65-1.851,0.38-2.797-0.233c-1.809-1.172-3.374-1.013-4.492,0.805c-1.101,1.791-2.404,3.102-4.382,3.767
	c-0.172,0.059-0.278,0.316-0.547,0.64c0.712,0.062,1.381,0.336,1.738,0.112c1.608-1.009,2.887-0.246,4.195,0.568
	c0.74,0.46,1.44,0.997,2.216,1.383c2.025,1.009,4.176,1.213,6.166,0.109c1.225-0.679,2.21-1.807,3.25-2.79
	c0.261-0.247,0.317-0.713,0.467-1.078c-1.407,0.538-2.464,1.34-3.481,2.191c-1.408,1.178-3.085,1.45-4.708,0.934
	C181.321,103.334,179.999,102.39,178.293,101.488z M185.746,89.817c-1.987-1.7-6.24-2.528-7.859-1.642
	C179.451,90.308,182.99,91.093,185.746,89.817z M170.836,59.073c0.007,0.21,0.015,0.42,0.022,0.63
	c1.281,0.042,2.576,0.218,3.842,0.098c2.52-0.239,5.026-0.626,7.533-0.982c1.213-0.172,1.332-0.306,1.88-1.392
	C179.931,58.584,175.438,59.153,170.836,59.073z M169.557,75.47c-2.315,0.494-4.376,0.934-6.437,1.374
	C165.397,77.281,167.567,77.292,169.557,75.47z M189.305,87.798c-2.143-0.66-3.111,0.074-2.777,1.875
	C187.396,89.088,188.215,88.534,189.305,87.798z"/>
<path fill="#BE1E2D" d="M203.934,584.771c2.264,0.606,4.554,1.293,6.879,1.827c3.887,0.896,7.782,1.765,11.702,2.496
	c1.388,0.261,2.855,0.076,4.286,0.109c2.954,0.07,5.876,0.219,8.71,1.287c1.355,0.51,2.089,1.387,2.578,2.6
	c1.378,3.42,1.304,6.851-0.169,10.203c-0.513,1.166-0.411,1.943,0.813,2.699c3.001-2.611,3.333-5.804,1.875-9.72
	c1.528,0.802,1.431,1.863,1.704,2.679c0.758,2.264,1.351,4.586,2.138,6.84c2.788,7.99,7.091,15.115,12.241,21.807
	c2.025,2.631,3.604,5.621,5.245,8.527c0.939,1.66,0.686,2.617-1.094,3.522c-1.679,0.855-3.533,1.462-5.379,1.869
	c-4.854,1.074-9.438-0.021-14.009-1.771c-4.245-1.625-7.139-4.771-9.804-8.113c-3.443-4.317-6.014-9.201-7.957-14.391
	c-0.111-0.299-0.207-0.613-0.378-0.875c-2.357-3.623-3.896-7.652-5.603-11.584c-1.545-3.56-4.19-5.881-7.474-7.685
	c-1.394-0.768-2.753-1.61-4.062-2.518c-2.241-1.549-3.209-3.867-3.775-6.436C202.066,586.617,202.38,585.473,203.934,584.771z"/>
<path fill="#FEE5D2" d="M368.891,315.974c-0.629-2.165-1.293-4.182-1.791-6.239c-0.541-2.24-1.08-4.499-1.346-6.781
	c-0.359-3.072-0.764-3.617-4.041-4.106c-0.471,2.049-0.471,2.049,2.084,2.771c0.242,3.758,1.148,7.434,2.562,10.997
	c0.312,0.789,0.438,1.721,0.389,2.572c-0.107,1.826-1.506,2.874-3.299,2.537c-0.396-0.074-0.896-0.417-1.062-0.771
	c-0.67-1.433-1.436-2.87-1.791-4.394c-1.301-5.587-4.789-9.025-10.125-10.77c-0.512-0.168-1.043-0.28-1.619-0.433
	c-0.641,0.974-0.331,1.836-0.016,2.754c0.31,0.893,0.598,1.833,0.646,2.765c0.116,2.213-0.275,2.695-2.422,3.511
	c-2.521,0.957-2.521,0.957-4.343,0.656c0-1.037-0.094-2.139,0.021-3.219c0.209-1.97,0.713-3.921,0.785-5.891
	c0.146-3.896,0.172-7.806-1.525-11.482c-0.602-1.301-1.062-2.667-1.584-4.006c-0.963-2.479-2.166-4.798-4.266-6.542
	c-0.281-0.233-0.453-0.6-0.75-1.007c4.985-2.784,10.006-4.793,15.731-4.078c0.508,0.063,1.017,0.333,1.461,0.607
	c0.326,0.199,0.604,0.529,0.812,0.858c3.369,5.369,8.672,8.624,13.567,12.291c4.285,3.208,8.351,6.649,12.213,10.348
	c0.826,0.792,1.216,1.617,0.935,2.764c-0.514,2.087-0.961,4.19-1.459,6.282c-0.685,2.876-1.287,3.293-4.322,3.055
	c-1.334-3.431-0.69-7.39-2.619-10.715c-0.996,0.329-1.073,0.901-0.944,1.581c0.592,3.127,1.159,6.258,1.776,9.38
	c0.513,2.583,0.365,2.964-1.903,4.171c-0.421,0.224-0.863,0.42-1.316,0.565C369.129,316.07,368.877,315.972,368.891,315.974z"/>
<path fill="#FEE5D2" d="M84.789,346.288c4.014,0.873,7.908,0.314,12.054-1.248c0,1.711,0.039,3.104-0.008,4.493
	c-0.104,3.163,0.54,6.201,1.552,9.161c1.048,3.062,0.984,6.14,0.11,9.17c-1.039,3.598-2.214,7.161-3.484,10.684
	c-0.65,1.806-1.729,3.41-3.847,4.448c-0.448-0.662-1.1-1.286-1.342-2.042c-0.969-3.016-1.232-6.05-0.059-9.124
	c0.695-1.82,1.501-3.652,1.448-6.206c-0.699,0.619-1.27,0.876-1.378,1.262c-0.86,3.062-1.725,6.13-2.379,9.239
	c-0.218,1.038-0.016,2.267,0.33,3.296c0.543,1.619,0.46,3.147-0.092,4.684c-1.046,2.912-2.086,5.828-3.234,8.701
	c-0.757,1.896-2.005,2.471-3.983,2.201c0.505-4.328,1.014-8.65,1.49-12.978c0.014-0.13-0.326-0.299-0.543-0.486
	c-1.054,0.505-1.094,1.528-1.23,2.425c-0.36,2.365-0.56,4.757-0.964,7.113c-0.432,2.517-0.928,5.053-3.188,6.724
	c-0.255,0.189-0.501,0.402-0.784,0.537c-0.199,0.097-0.453,0.078-0.914,0.146c1.042-5.924,1.602-11.796,1.891-17.689
	c-0.183-0.074-0.365-0.148-0.548-0.224c-0.292,0.354-0.77,0.674-0.839,1.066c-0.223,1.254-0.296,2.534-0.422,3.805
	c-0.095,0.953-0.164,1.909-0.282,2.86c-0.046,0.373-0.195,0.733-0.308,1.14c-2.236-1.717-2.658-2.918-1.518-5.064
	c0.933-1.755,2.138-3.362,3.151-5.077c0.561-0.949,1.055-1.954,1.443-2.985c1.49-3.954,2.999-7.903,4.363-11.901
	C83.24,358.652,84.054,352.65,84.789,346.288z"/>
<path fill="#FEE5D2" d="M168.698,116.25c0.56,0.307,1.223,0.591,1.796,1c3.038,2.165,6.454,2.755,10.012,2.088
	c2.805-0.526,5.625-1.232,8.261-2.296c1.541-0.622,2.786-2.046,4.065-3.218c0.911-0.835,1.464-2.094,3.175-2.373
	c1.436,4.431,2.716,9.011,6.993,11.707c-2.486,3.995-6.221,5.899-10.302,7.142c-7.15,2.176-14.395,4.075-21.782,5.195
	c-4.557,0.691-9.207,0.584-13.795-0.273c-1.557-0.291-2.814-1.027-4.11-2.299c1.582-1.282,3.138-2.473,4.614-3.755
	c2.946-2.56,6.005-5.019,8.695-7.829C167.488,120.117,167.857,118.132,168.698,116.25z"/>
<path fill="#FFFFFF" d="M164.226,37.848c-0.588,2.979-2.213,5.197-4.619,7.594c1.458-0.422,2.171-0.975,2.646-1.783
	c0.806-1.372,1.629-2.746,2.272-4.195c0.484-1.094,0.726-2.152,2.18-2.508c0.595-0.146,1.024-1.143,1.443-1.807
	c1.611-2.557,3.187-5.136,5.171-7.518c-0.477,1.031-0.908,2.086-1.44,3.089c-0.827,1.558-2.195,2.852-2.281,4.765
	c-2.267,1.36-2.323,4.129-3.799,5.97c-1.541,1.919-3.259,3.696-4.899,5.535c-0.053,0.06-0.102,0.141-0.17,0.167
	c-1.107,0.413-2.255,0.426-3.24,1.5c-0.799,0.87-2.425,0.981-3.688,1.418c-0.055,0.019-0.143-0.06-0.559-0.251
	c1.131-1.04,2.245-1.925,3.178-2.971c0.609-0.683,1.774-1.254,1.101-2.562c-0.06-0.117,0.125-0.425,0.271-0.573
	c1.887-1.924,3.784-3.837,5.691-5.74C163.571,37.888,163.779,37.919,164.226,37.848z"/>
<path fill="#FEE5D2" d="M152.615,88.513c-2.715-1.608-3.516-3.853-4.172-6.156c-0.479-1.677-0.809-3.396-1.239-5.088
	c-0.465-1.831-0.969-3.652-1.468-5.521c2.066-0.19,2.54-0.016,2.922,1.362c0.914,3.295,1.739,6.616,2.59,9.929
	C151.677,84.713,152.086,86.392,152.615,88.513z"/>
<path fill="#BE1E2D" d="M219.205,612.547c1.03,1.922,2.254,3.769,3.055,5.783c2.754,6.924,6.451,13.223,11.631,18.639
	c-3.121-1.387-5.457-3.731-7.127-6.594c-2.157-3.695-4.074-7.543-5.896-11.416c-0.927-1.971-1.42-4.146-2.108-6.229
	C218.907,612.668,219.055,612.607,219.205,612.547z"/>
<path fill="#FFFFFF" d="M172.081,44.964c-0.135-0.032-0.353-0.134-0.394-0.085c-2.666,3.114-6.369,3.637-9.963,4.154
	c0.747-1.257,1.357-2.621,2.27-3.738c1.226-1.5,2.686-2.81,4.045-4.201l-0.048-0.047c0.065,0.383,0.13,0.766,0.216,1.268
	c1.928-0.277,2.414-2.249,3.816-3.015c-0.228,1.394-0.219,1.404-2.382,3.314c-1.089,0.962-2.215,1.88-3.114,3.125
	c0.569-0.341,1.278-0.564,1.68-1.045c1.063-1.271,2.398-0.27,3.566-0.541c0.039-0.009,0.207,0.541,0.314,0.831L172.081,44.964z"/>
<path fill="#FFFFFF" d="M185.884,33.473c-1.05,3.174-1.875,6.433-4.237,9.354c1.624-0.453,1.645-0.438,4.364-4.288
	c1.144-1.619,2.176-3.315,3.25-4.962c-0.479,4.736-3.607,9.399-7.728,11.097c-1.334,0.55-2.872,0.223-4.672-0.333
	c0.599-0.371,1.09-0.747,1.14-0.695c0.886,0.913,1.483,0.249,1.894-0.418c1.208-1.963,2.353-3.967,3.467-5.985
	c0.72-1.305,1.344-2.663,2.011-3.997C185.543,33.321,185.713,33.397,185.884,33.473z"/>
<path fill="#FEE5D2" d="M205.18,79.197c-0.102-1.035-0.248-1.803-0.24-2.569c0.027-2.552,0.15-5.103,0.154-7.654
	c0.002-1.27,0.585-2.111,1.604-2.718c0.762-0.454,1.476-0.169,1.598,0.698c0.086,0.617-0.042,1.266-0.092,1.899
	c-0.168,2.136-0.466,4.27-0.479,6.406C207.713,77.006,206.843,78.062,205.18,79.197z"/>
<path fill="#FFFFFF" d="M155.132,38.914C153.066,41,151,43.085,149.074,45.03c-1.673-0.197-2.064-1.103-2.099-2.684
	c2.438-1.296,5.033-2.676,7.628-4.056C154.779,38.498,154.956,38.706,155.132,38.914z"/>
<path fill="#BE1E2D" d="M216.347,606.248c-1.98-2.633-4.399-4.689-7.332-6.203c-1.616-0.834-3.093-1.947-4.59-2.998
	c-0.92-0.645-1.569-1.518-1.762-3c2.604,2.674,5.57,4.312,8.489,6.049C213.542,601.518,215.615,603.336,216.347,606.248z"/>
<path fill="#FFFFFF" d="M171.499,37.923c1.065-2.933,2.13-5.866,3.216-8.855c0.511,0.542,0.952,1.009,1.624,1.723
	c-1.447,2.448-2.917,4.935-4.386,7.422C171.801,38.116,171.65,38.02,171.499,37.923z"/>
<path fill="#FFFFFF" d="M191.798,34.803c-0.405,4.556-2.515,8.064-6.75,8.972C187.886,41.223,190.033,38.376,191.798,34.803z"/>
<path fill="#FFFFFF" d="M199.759,40.749c-2.825,3.849-4.204,5.073-8.741,4.188c1.707-0.718,3.059-1.224,4.354-1.848
	C196.771,42.416,198.116,41.632,199.759,40.749z"/>
<path fill="#FFFFFF" d="M163.687,33.87c-0.211,1.669-0.45,3.255-2.338,4.037c-0.55,0.228-0.785,1.148-1.241,1.686
	c-0.513,0.605-1.113,1.137-1.675,1.701c-0.124-0.108-0.248-0.217-0.371-0.325c0.272-0.443,0.517-0.906,0.822-1.325
	c1.17-1.604,2.333-3.214,3.56-4.775c0.319-0.406,0.855-0.643,1.291-0.958L163.687,33.87z"/>
<path fill="#FFFFFF" d="M177.156,38.823c1.386-2.972,2.771-5.943,4.217-9.046c0.346,3.913-2.028,6.477-3.799,9.305
	C177.435,38.996,177.295,38.909,177.156,38.823z"/>
<path fill="#FFFFFF" d="M195.466,30.332c0.054,3.166-0.821,5.856-3.333,7.763c0.625-1.215,0.256-2.807,1.827-3.732
	c0.606-0.356,0.622-1.7,0.928-2.586C195.058,31.287,195.272,30.812,195.466,30.332z"/>
<path fill="#FFFFFF" d="M178.682,32.636c-0.693,2.188-2.749,3.023-4.038,4.85C175.426,33.67,175.843,33.171,178.682,32.636z"/>
<path fill="#FFFFFF" d="M192.333,28.588c0.41,2.654-1.289,4.66-2.064,6.83C190.015,32.327,190.369,31.125,192.333,28.588z"/>
<path fill="#FFFFFF" d="M149.977,47.903c1.889-1.676,3.778-3.352,5.812-5.157C155.611,44.76,153.012,47.151,149.977,47.903z"/>
<path fill="#FFFFFF" d="M168.04,41.094c0.474-1.07,0.892-2.169,1.434-3.204c0.832-1.587,1.749-3.13,2.808-4.594
	c-1.075,2.776-1.557,5.868-4.29,7.751L168.04,41.094z"/>
<path fill="#FFFFFF" d="M188.207,33.393c-0.698,1.312-1.396,2.625-2.093,3.937c-0.152-0.062-0.304-0.125-0.456-0.187
	c0.612-2.373,1.225-4.745,1.837-7.117c0.042-0.012,0.083-0.024,0.125-0.037c-0.072,1.142-0.145,2.284-0.22,3.473
	c0.27,0,0.572,0,0.876,0.001C188.279,33.465,188.207,33.393,188.207,33.393z"/>
<path fill="#FFFFFF" d="M186.895,28.065c-0.846,1.911-1.691,3.822-2.536,5.732c-0.601-2.566,0.837-4.265,2.059-6.054
	C186.577,27.851,186.736,27.958,186.895,28.065z"/>
<path fill="#FFFFFF" d="M191.964,41.563c0.567-1.98,1.367-3.042,3.768-5.002C195.204,38.695,195.204,38.695,191.964,41.563z"/>
<path fill="#FFFFFF" d="M199.499,31.047c0.446,2.291,0.248,2.774-1.875,4.577C197.428,33.784,197.534,33.526,199.499,31.047z"/>
<path fill="#FFFFFF" d="M179.735,36.948c-0.541,2.353-1.195,4.639-3.645,5.847C177.305,40.846,178.521,38.897,179.735,36.948z"/>
<path fill="#FFFFFF" d="M193.29,25.609c0.902,2.005,0.979,4.081,0.26,6.215c0-0.296-0.003-0.593,0.001-0.889
	c0.006-0.398,0.097-0.813,0.011-1.189c-0.185-0.814-0.494-1.6-0.684-2.413c-0.125-0.532-0.131-1.092-0.19-1.639
	C192.889,25.666,193.089,25.637,193.29,25.609z"/>
<path fill="#FFFFFF" d="M203.107,37.261c-0.735,3.671-0.735,3.671-3.196,5.146C201.15,40.412,202.128,38.836,203.107,37.261z"/>
<path fill="#FFFFFF" d="M197.572,30.461c0.369-1.412,0.737-2.823,1.105-4.235c0.207,0.05,0.413,0.1,0.619,0.15
	c0.905,1.683-1.072,2.722-1.147,4.186C197.957,30.528,197.764,30.495,197.572,30.461z"/>
<path fill="#FFFFFF" d="M201.667,35.273c-0.384-1.566-0.333-2.969,1.549-4.149C202.597,32.783,202.132,34.028,201.667,35.273z"/>
<path fill="#FFFFFF" d="M163.734,33.911c0.127-0.997,0.255-1.994,0.383-2.99c0.177-0.023,0.354-0.046,0.531-0.069
	c0.217,0.793,0.434,1.587,0.658,2.41c-0.667,0.251-1.144,0.43-1.62,0.609C163.687,33.87,163.734,33.911,163.734,33.911z"/>
<path fill="#FFFFFF" d="M159.507,33.857c0.255,1.562,0.144,2.957-1.672,3.583C158.392,36.246,158.95,35.052,159.507,33.857z"/>
<path fill="#FFFFFF" d="M154.23,47.466c0.578-0.706,1.366-1.667,2.153-2.628C155.597,46.79,155.492,46.889,154.23,47.466z"/>
<path fill="#FFFFFF" d="M183.305,31.867c-0.271,1.113-0.542,2.225-0.813,3.338c-0.121-0.028-0.242-0.056-0.364-0.084
	c0.201-1.124,0.402-2.247,0.603-3.37C182.923,31.79,183.114,31.828,183.305,31.867z"/>
<path fill="#FFFFFF" d="M203.615,32.83c0.186-1.364,0.372-2.728,0.558-4.092c0.104,0.008,0.207,0.017,0.311,0.025
	c-0.107,1.383-0.215,2.767-0.323,4.15C203.979,32.885,203.797,32.857,203.615,32.83z"/>
<path fill="#FFFFFF" d="M172.087,44.985c0.177-0.263,0.348-0.53,0.534-0.786c0.092-0.128,0.211-0.236,0.428-0.473
	c0.378,0.312,0.761,0.628,1.48,1.223c-1.048,0-1.75,0-2.45,0.008C172.081,44.964,172.087,44.985,172.087,44.985z"/>
<path fill="#FFFFFF" d="M174.38,40.031c-0.551,0.641-1.103,1.282-1.779,2.069C172.797,40.779,172.797,40.779,174.38,40.031z"/>
<path fill="#FFFFFF" d="M150.459,52.705c0.645,0,1.289,0,2.076,0c-0.689,0.747-1.31,1.011-2.026,0.717
	C150.493,53.182,150.476,52.943,150.459,52.705z"/>
<path fill="#FFFFFF" d="M174.243,41.515c0.364-0.555,0.728-1.109,1.091-1.663c0.101,0.053,0.202,0.107,0.302,0.161
	c-0.328,0.614-0.657,1.229-0.986,1.843C174.515,41.742,174.379,41.628,174.243,41.515z"/>
<path fill="#FFFFFF" d="M146.333,50.769c0,0.662,0,1.323,0,1.985c-0.074,0.001-0.148,0.003-0.222,0.005c0-0.684,0-1.367,0-2.051
	C146.185,50.729,146.259,50.749,146.333,50.769z"/>
<path fill="#FFFFFF" d="M196.44,40.617c-0.381,0.282-0.762,0.563-1.144,0.845c-0.063-0.081-0.127-0.161-0.191-0.241
	c0.363-0.305,0.726-0.609,1.089-0.915C196.277,40.41,196.358,40.513,196.44,40.617z"/>
<path fill="#FFFFFF" d="M144.64,48.366c0-0.447,0-0.896,0-1.343c0.051-0.002,0.101-0.004,0.151-0.005c0,0.45,0,0.899,0,1.349
	C144.741,48.366,144.691,48.366,144.64,48.366z"/>
<path fill="#FFFFFF" d="M207.008,48.862c0.032-0.351,0.064-0.703,0.096-1.054c0.029,0.001,0.059,0.003,0.088,0.004
	c0.022,0.371,0.045,0.742,0.068,1.113C207.176,48.904,207.092,48.883,207.008,48.862z"/>
<path d="M178.284,165.021c0.528,3.583,1.065,6.628,1.411,9.695c0.743,6.582,1.439,13.17,2.046,19.766
	c0.249,2.699,0.168,5.427,0.323,8.137c0.394,6.929,0.868,13.854,1.243,20.784c0.155,2.857,0.155,5.724,0.198,8.586
	c0.107,7.088,0.192,14.177,0.298,21.265c0.038,2.554,0.095,5.107,0.17,7.66c0.035,1.189,0.165,2.375,0.192,3.564
	c0.015,0.672-0.091,1.347-0.14,1.978c-1.362,0.215-1.378-0.725-1.432-1.335c-0.249-2.855-0.454-5.717-0.564-8.58
	c-0.113-2.937-0.125-5.878-0.131-8.817c-0.007-3.67,0.139-7.343,0.039-11.01c-0.166-6.059-0.46-12.115-0.73-18.171
	c-0.266-5.975-0.541-11.951-0.87-17.922c-0.167-3.021-0.417-6.039-0.713-9.05c-0.475-4.84-1.006-9.674-1.535-14.509
	c-0.33-3.012-0.646-6.029-1.079-9.027C176.856,166.984,177.003,166.189,178.284,165.021z"/>
<path d="M170.07,229.848c-0.329-0.578-0.711-1.133-0.979-1.737c-2.491-5.606-4.817-11.292-7.494-16.807
	c-1.701-3.504-3.912-6.762-5.9-10.126c-0.444-0.751-0.966-1.458-1.368-2.229c-1.263-2.431-2.778-4.677-4.822-6.514
	c-2.422-2.178-4.306-4.966-7.295-6.501c-1.487-0.763-2.969-1.545-4.506-2.196c-0.991-0.419-1.11-0.977-0.624-2.179
	c1.142,0.429,2.252,0.757,3.284,1.251c3.214,1.538,5.754,3.993,8.42,6.281c2.396,2.057,4.278,4.521,5.873,7.213
	c2.842,4.796,5.829,9.521,8.403,14.458c2.611,5.008,4.847,10.217,7.127,15.39c0.457,1.037,0.377,2.31,0.544,3.474
	C170.512,229.698,170.291,229.773,170.07,229.848z"/>
<path d="M199.71,224.725c-0.134-5.485-0.51-10.992,0.531-16.427c0.784-4.092,2.508-7.837,4.519-11.511
	c2.402-4.387,5.284-8.319,8.77-11.898c2.832-2.907,5.367-6.102,8.056-9.149c1.262-1.43,2.525-2.865,3.896-4.188
	c0.409-0.395,1.18-0.416,1.784-0.608c0.134,0.17,0.268,0.34,0.401,0.51c-0.471,0.672-0.875,1.405-1.423,2.007
	c-4.882,5.374-9.965,10.577-14.648,16.118c-6.958,8.229-11.034,17.662-10.817,28.669c0.038,1.913-0.144,3.831-0.256,5.744
	c-0.016,0.263-0.214,0.515-0.328,0.771C200.033,224.751,199.872,224.738,199.71,224.725z"/>
<path d="M199.753,62.916c-3.39-1.381-6.333-1.118-8.481,1.994c1.495,0.809,3.555,0.669,4.841,2.759c-0.736,0-1.137,0.04-1.528-0.007
	c-1.742-0.209-1.81-0.144-1.787,2.01c0.821-0.158,1.632-0.313,2.443-0.468c0.07,0.163,0.14,0.326,0.209,0.489
	c-1.212,1.469-3.161,1.972-4.83,2.286c-1.764,0.332-3.705-0.273-5.747-0.487c-0.652,4.227-0.198,8.522,2.428,12.722
	c-0.75,0.458-1.419,0.867-2.37,1.447c-0.77-3.837-1.514-7.311-2.143-10.806c-0.224-1.241-0.129-2.537-0.258-3.8
	c-0.078-0.761-0.306-1.506-0.513-2.479c0.95-0.782,1.84-1.89,3.37-2.438c1.293-0.463,2.293-1.689,3.509-2.438
	c1.615-0.994,3.33-1.823,4.972-2.776c1.95-1.132,3.693-0.161,5.453,0.499c0.273,0.103,0.392,0.619,0.582,0.945
	C199.853,62.55,199.803,62.733,199.753,62.916z M187.815,68.736c-0.605,0.396-1.199,0.785-2.226,1.457
	c1.471,0.332,2.408,0.543,3.689,0.833C188.675,70.081,188.306,69.504,187.815,68.736z"/>
<path d="M157.942,72.572c1.056-0.792,1.853-1.39,2.675-2.007c-0.383-0.203-0.72-0.381-1.243-0.659
	c1.556-1.059,3.082-1.731,4.855-1.705c-4.518-2.944-4.518-2.944-8.834-0.422c-0.534-1.936,1.527-3.885,3.85-3.541
	c1.256,0.186,2.523,0.463,3.712,0.897c2.98,1.092,5.918,2.298,8.873,3.459c0.592,0.233,1.215,0.412,1.764,0.723
	c0.623,0.353,1.177,0.825,1.937,1.372c-2.977,2.298-5.574,0.637-8.312,0.016c0,0.858,0,1.67,0,2.618
	c1.011-0.32,1.926-0.608,3.191-1.008c-0.852,2.627-2.923,2.389-4.458,2.632C163.096,75.401,160.576,74.226,157.942,72.572z
	 M162.619,72.95c0.192-0.844,0.157-1.375-0.84-1.016c-0.229,0.083-0.399,0.328-0.779,0.657
	C161.693,72.744,162.124,72.84,162.619,72.95z"/>
<path d="M178.293,101.488c1.705,0.902,3.027,1.846,4.501,2.315c1.623,0.516,3.3,0.244,4.708-0.934
	c1.018-0.851,2.075-1.653,3.481-2.191c-0.15,0.365-0.206,0.831-0.467,1.078c-1.04,0.983-2.025,2.11-3.25,2.79
	c-1.99,1.104-4.141,0.899-6.166-0.109c-0.776-0.386-1.477-0.923-2.216-1.383c-1.308-0.813-2.586-1.577-4.195-0.568
	c-0.357,0.224-1.026-0.05-1.738-0.112c0.269-0.324,0.375-0.581,0.547-0.64c1.978-0.665,3.281-1.976,4.382-3.767
	c1.118-1.817,2.683-1.977,4.492-0.805c0.946,0.613,1.669,0.883,2.797,0.233c2.949-1.7,4.925-1.192,7.489,1.849
	c-1.838-0.854-3.312-0.378-4.419,0.766c-1.843,1.904-3.875,1.886-6.125,1.056C180.23,100.372,180.227,100.384,178.293,101.488z
	 M189.533,97.874c-1.678-1.18-1.981-1.158-3.834,0.309c-1.639,1.298-1.831,1.304-3.48,0.103c-1.838-1.338-1.944-1.316-3.334,0.625
	c1.257,0.244,2.552,0.71,3.837,0.687c1.457-0.026,2.99,0.698,4.404-0.303C187.854,98.779,188.664,98.381,189.533,97.874z"/>
<path d="M185.746,89.817c-2.756,1.276-6.295,0.49-7.859-1.642C179.506,87.29,183.758,88.117,185.746,89.817z"/>
<path d="M170.836,59.073c4.602,0.08,9.095-0.488,13.277-1.646c-0.548,1.086-0.667,1.22-1.88,1.392
	c-2.507,0.355-5.014,0.743-7.533,0.982c-1.266,0.12-2.561-0.056-3.842-0.098C170.851,59.493,170.843,59.283,170.836,59.073z"/>
<path d="M169.557,75.47c-1.989,1.822-4.16,1.812-6.437,1.374C165.181,76.404,167.242,75.964,169.557,75.47z"/>
<path d="M189.305,87.798c-1.09,0.736-1.91,1.29-2.777,1.875C186.194,87.872,187.163,87.138,189.305,87.798z"/>
<path fill="#FFFFFF" d="M187.815,68.736c0.491,0.768,0.86,1.345,1.464,2.29c-1.282-0.29-2.218-0.501-3.689-0.833
	C186.616,69.521,187.209,69.132,187.815,68.736z"/>
<path fill="#FFFFFF" d="M162.619,72.95c-0.495-0.11-0.926-0.206-1.619-0.359c0.38-0.329,0.55-0.574,0.779-0.657
	C162.776,71.574,162.811,72.106,162.619,72.95z"/>
<path fill="#FEE5D2" d="M189.533,97.874c-0.869,0.507-1.679,0.905-2.406,1.42c-1.415,1.001-2.947,0.277-4.404,0.303
	c-1.285,0.023-2.58-0.443-3.837-0.687c1.39-1.941,1.496-1.963,3.334-0.625c1.649,1.201,1.841,1.195,3.48-0.103
	C187.552,96.716,187.855,96.694,189.533,97.874z"/>
</svg>
