<?xml version="1.0" encoding="utf-8"?>
<!-- Generator: Adobe Illustrator 19.2.0, SVG Export Plug-In . SVG Version: 6.00 Build 0)  -->
<svg version="1.1" id="Layer_1" xmlns="http://www.w3.org/2000/svg" xmlns:xlink="http://www.w3.org/1999/xlink" x="0px" y="0px"
	 viewBox="0 0 576 330" style="enable-background:new 0 0 576 330;" xml:space="preserve">
<style type="text/css">
	.st0{fill:#FFFFFF;}
	.st1{fill:#D9205E;}
	.st2{fill:#FEE5D2;}
	.st3{fill:#F9F9F9;}
</style>
<g>
	<path d="M460.7,311.8c1.3,0.2,2.2,0.3,2.9,0.6c1.5,0.5,2.3,1.6,2.4,3.1c0.1,1.4-0.9,2.8-2.5,3.2c-1.2,0.3-2.5,0.3-3.7,0.3
		c-33,0.5-66,0.9-99,1.4c-111.8,1.6-223.5,3.2-335.2,4.8c-0.9,0-1.7,0.1-2.6,0c-2.2-0.2-3.5-1.4-3.6-3.2c-0.1-1.7,1-2.9,3-3.4
		c0.5-0.1,1.1-0.2,2-0.3c-0.3-1.7-0.6-3.3-0.9-5c-2.2-9.5-3.7-19-3.9-28.7c-0.1-4.5-0.2-8.9-0.1-13.4c0-1.9,0.8-3.8,0.9-5.8
		c0.6-11.4,1.3-22.9,1.7-34.3c0.3-8.1,1.5-16,2.6-24c0.4-3.2,0.8-6.4,1.3-9.6c0.4-2.5,1.3-4.9,1.5-7.3c0.4-5.3,0.6-10.7,0.8-16
		c0.2-4.5,0.6-9,0.8-13.6c0.1-2.7,0.3-5.4,0-8c-1-6.8-0.6-13.6-0.7-20.4c0-2.4-0.2-4.8-0.5-7.2c-0.9-8-2.2-16-1.9-24
		c0.1-3.7,0.9-7.4,1.5-11.1c1.2-6.6,2.6-13.2,3.8-19.8c0.8-4.1,1.4-8.3,2.1-12.4c0.1-0.4,0.1-0.9,0.3-1.3c1.6-4,1.5-8.2,1.6-12.4
		c0.1-3.7,0.4-7.3,2.7-10.5c0.6-0.8,1.2-1.6,1.9-2.2c0.9-0.9,2-1.6,3-2.5c2.9-2.7,6.4-3.3,10.3-2.2c0.6,0.2,1.3,0.3,1.8,0.4
		c1-1.9,1.7-3.8,2.9-5.5c1.2-1.7,2.8-3.2,4.2-4.8c1.5-1.7,3.6-2.4,5.7-2.9c2.3-0.5,4.7-0.5,7.1-0.4c1.7,0,2.6,1.3,3.5,2.5
		c0.6,0.9,1.2,1.8,2,2.9c0.6-0.7,0.9-1.2,1.3-1.6c1.4-1.2,2.6-2.8,4.2-3.4c2.8-1.1,5.8-1.7,8.8-2.2c3.5-0.6,6.6,0.7,8.7,3.4
		c1.9-3.1,4.8-5.3,7.7-7.4C113,6,115,5,117.4,4.9c2.1-0.1,4,0.2,5.6,1.5c1.4,1.2,3.3,1.8,4.2,3.5c1.8,3.2,1.7,6.5,0.8,9.9
		c-0.2,0.8-0.5,1.5-0.8,2.4c3,1.5,6.2,1.5,9.3,1.7c2.2,0.1,4.4-0.2,6.6-0.2c7.9,0.1,15.8,0.4,23.7,0.4c5.3,0,10.7-0.3,16-0.5
		c4.2-0.1,8.4-0.2,12.6-0.4c11.1-0.6,22.3-1.3,33.4-1.9c13.5-0.7,26.9-1.3,40.4-1.5c11.8-0.1,23.5-0.9,35.2-1.3
		c5.9-0.2,11.8-0.2,17.7-0.4c4.7-0.1,9.3-0.4,14-0.5c2.9-0.1,5.7,0.2,8.6,0.2c14.2-0.2,28.5-0.5,42.7-0.6c7.7,0,15.5,0.4,23.2,0.6
		c6.4,0.2,12.8,0.3,19.2,0.4c8.7,0.2,17.3,0.4,26,0.6c7.2,0.2,14.3,0.4,21.5,0.6c2.4,0.1,4.8-0.1,7.3-0.1c0.4-0.7,0.8-1.3,1-2
		c0.9-2.9,3.3-4.8,5-7.1c0.3-0.4,1.1-0.8,1.7-0.8c6.5-0.3,12.5,0.9,17.6,5.1c1.6,1.4,3.2,2.8,5,4c3.2,2.2,4.6,5.4,5.3,8.9
		c0.9,4.2,1.9,8.4,2.8,12.6c0.3,1.5,0.4,3,0.6,4.6c1.7-0.4,3.2-0.8,4.8-1.2c5.8-1.6,10.7,1.6,11.4,7.3c0.3,3-0.4,5.8-1,8.7
		c-0.6,2.8-1.2,5.6-1.8,8.3c0.2,0.1,0.4,0.2,0.6,0.3c1.1-0.8,2.1-1.7,3.2-2.5c3.4-2.6,6.5-5.5,10.5-7.3c0.7-0.3,1.4-0.7,2.1-0.9
		c6.3-1.9,6.8-0.8,8.8,4.5c0.8,2.1,0.6,4.6-0.4,6.8c-0.5,1.1-0.6,2.4-0.9,3.6c-0.5,1.9-1.1,3.8-1.7,5.6c-3.7,11.5-6.5,23.1-8.6,34.9
		c-1.1,6-4.5,10.5-8,15.1c-3.5,4.6-6.9,9.2-10.5,13.7c-2.8,3.5-3.7,7.6-4.4,11.8c-0.4,2.3-0.5,4.7-0.4,7.1c0.1,3.9-1.1,7.5-3.1,10.9
		c-0.6,1-1.7,1.7-2.4,2.6c-3.9,5.6-6.5,11.8-9.9,17.7c-3.4,5.8-5.1,12.2-7.9,18.2c-3.4,7.2-6.4,14.5-9.6,21.8
		c-3,6.9-6.1,13.7-8.9,20.6c-3.1,7.6-5.9,15.3-9,22.9c-1.8,4.5-4,8.9-5.9,13.3C467.1,296.3,464,304,460.7,311.8z M452.5,102.8
		c-1.8,0.2-3.5,0.4-5.2,0.7c-7,1.1-13.7,2.9-20.4,5.1c-5.3,1.7-10.7,3.4-15.5,6.2c-4.8,2.9-9.6,5.8-14.1,9.1
		c-5.1,3.7-10.6,6.9-14.5,12c-3.4,4.5-7.5,8.5-11.1,12.9c-2.9,3.6-5.6,7.4-8.3,11.2c-6.3,8.7-12.6,17.5-18.8,26.3
		c-1,1.3-1.8,2.7-2.5,4.2c-0.7,1.5-1.6,3.1-1.2,4.9c0.3,1.1-0.4,1.7-1.4,2.1c-2.6,0.9-5.2,1.9-7.8,2.5c-8.2,1.9-16.5,3-24.9,3
		c-7.4-0.1-14.7-0.1-22.1-0.4c-5.3-0.3-10.6-1.1-15.9-1.7c-5.3-0.6-10.5-1.6-15.4-3.9c-5.1-2.4-10.1-4.8-13.5-9.2
		c-0.6-0.7-1.2-1.5-1.9-2c-3.1-2-4.5-5.1-5.9-8.1c-1.4-3.3-2.4-6.8-3.8-10.1c-1.7-4.1-3.2-8.3-5.6-12c-3.4-5.2-7.6-10-11.4-15.1
		c-4.4-5.9-10.1-10.7-15.8-15.5c-2.4-2-4.8-4.1-7.3-6c-4.7-3.6-10.1-6-15.9-7.9c-7.7-2.6-15.2-5.6-23.2-7.5c-4.3-1-8.7-2-12.7-4
		c-0.7-0.4-1.6-0.5-2.5-0.6c-2.3-0.1-4.6-0.2-6.9-0.2c-0.7,0-1.5,0.2-2.1,0.5c-7.2,4.3-13.3,9.7-18.7,15.9c-6,6.8-8,15-10.7,23.1
		c-0.1,0.3,0,0.5-0.1,0.8c-0.6,3.1-1,6.2-1.7,9.2c-2.3,9.2-5.3,18.3-6.3,27.8c-1.1,10.4-2,20.9-1.2,31.3c0.7,9.1,1.6,18.2,3,27.2
		c1.8,11.9,4,23.8,6.3,35.7c1.6,8.6,4,17.1,7.8,25.1c1,2.2,2.3,4.3,3.6,6.4c0.7,1.1,1.6,2,2.3,3.1c2,3.2,4,6.3,5.7,9.6
		c1,1.9,2.3,2.6,4.7,2.6c15.7-0.3,31.4-0.5,47.1-0.8c67.1-1,134.1-1.9,201.2-2.8c2.6,0,4.2-0.7,5.5-2.9c3.3-5.5,6.8-11,10.2-16.5
		c7.8-13,15.9-25.9,23.3-39.1c5.1-9,9.4-18.4,14.1-27.6c2-4,4-8.1,5.9-12.2c2.9-5.9,5.6-11.9,8.6-17.8c3.6-6.9,7.6-13.6,11.1-20.6
		c3.7-7.4,7.1-15,10.6-22.6c0.9-1.9,1.9-3.7,2.7-5.6c1.6-3.5,3.1-6.9,4.5-10.4c0.7-1.6,0.6-3.3-0.1-5c-1.2-2.7-2.5-5.4-3.7-8.1
		c-1.4-3-2.9-6.1-3.9-9.2C454.9,111.8,453.9,107.4,452.5,102.8z M100.4,74.2c0,3-0.1,3.1,2.3,4.8c2.5,1.8,5,3.5,7,5.8
		c3,3.4,6.7,5.9,11.2,7.2c2.5,0.7,5.1,1.4,7.8,1.7c2.8,0.4,5.7,0.8,8.5,0.6c9-0.5,17.9-1.4,26.8-2c5.6-0.4,11.2-1,16.9,0
		c2.4,0.4,4.9,0.9,7.3,1.1c4.9,0.3,9.5,1.4,14.1,3.1c6.6,2.4,13.2,4.4,18.9,8.5c4.9,3.5,8.7,7.7,12.8,11.8c0.3,0.3,0.5,0.8,0.7,1.2
		c1,1.5,2,3,3,4.5c0.4,0.6,0.9,1.2,1.3,1.8c4.2,6.6,5.8,13.9,7.4,21.3c0.3,1.5,0.6,3,0.7,4.5c0.3,5.4,0.6,10.7-0.7,16
		c-0.1,0.4-0.1,0.9-0.1,1.3c-0.1,5.1-0.4,10.1-2.4,15c-1.3,3.2-0.4,5.1,2.7,7c1.4,0.9,2.9,1.7,4.4,2.5c3.8,2.2,8,3.9,12.4,4.6
		c10.2,1.6,20.4,3,30.7,3c9.7,0,19.3,0,28.9-1.6c3.6-0.6,7-1.6,10.5-2.5c2.1-0.6,3-2.1,2.9-4.1c0-4.5,1.6-8.6,4-12.4
		c3.3-5.3,6.9-10.5,10.5-15.6c2.5-3.7,5.4-7.2,7.8-10.9c5-7.9,11.7-14.6,18.2-21.3c2.5-2.6,5.4-4.8,8-7.3c2.6-2.4,4.9-5,7.6-7.3
		c1.8-1.6,3.9-3,6.1-4c3.3-1.4,6.8-2.4,10.2-3.6c9.1-3.2,18.4-5.7,27.9-8c4.9-1.2,9.8-2.3,14.8-2.9c7.9-1,15.5-3.1,22.7-6.1
		c7.5-3.1,13.9-7.8,18.9-13.9c2.9-3.5,5.6-7.1,7.4-11.3c2.2-5.3,1.1-10.6,0.7-15.9c-0.5-6.4-1.7-12.8-2.8-19.1c-1.1-6-4-8.1-9.2-8.1
		c-0.9,0-1.7,0-2.6,0c-7.6-0.1-15.3,0-22.9-0.2c-8.5-0.2-17-0.6-25.5-0.8c-8.9-0.2-17.8-0.4-26.6-0.5c-11.6-0.1-23.1-0.2-34.7-0.3
		c-8,0-16,0.1-24.1,0.1c-13,0.1-26,0.2-39,0.4c-7.5,0.1-15.1,0.5-22.6,0.7c-13.7,0.5-27.5,1-41.2,1.5c-8.6,0.3-17.2,0.5-25.7,1
		c-16.1,0.9-32.2,1.8-48.4,2c-9.9,0.1-19.9,0-29.8,0c-4.5,0-9,0-13.5-0.1c-2.1-0.1-4.1-0.4-6.3-0.6c-1,4.3-1.7,8.3-2.9,12.2
		c-1.6,5.5-3.4,11-5.3,16.4c-0.9,2.4-2,5-3.7,6.9C110.4,66.7,106,71,100.4,74.2z M518.7,170.8c-3.5,1.4-6.9,1.7-10.4,2
		c-5,0.3-9.9,1.8-15,1.7c-2.6,0-5.1,0.2-7.6-1c-1.3-0.6-3-0.7-4.4-1.1c-2.2-0.6-4.4-1.1-6.5-1.9c-3.7-1.3-7-3.3-10.1-5.6
		c-2.1-1.6-4.1-3.1-4.3-6.2c-2.2,4.3-4.3,8.2-6.3,12.1c-2.5,4.9-4.7,9.9-7.2,14.8c-3.9,7.6-8,15-11.8,22.6
		c-2.7,5.3-5.2,10.7-7.8,16.1c-3,6.2-5.8,12.4-9.1,18.5c-5.2,9.7-10.5,19.4-15.9,29c-3.5,6.2-7.4,12.3-11.3,18.4
		c-3.8,6.1-7.8,12-11.6,18.1c-0.9,1.4-1.6,3-2.6,4.9c26.6-0.2,52.7-0.8,78.8-1.1c1.4-3.4,2.6-6.5,4-9.7c4.9-11.6,9.9-23.3,14.8-34.9
		c2.9-6.9,5.4-13.9,8.4-20.8c4.1-9.5,8.4-19,12.6-28.5c3.7-8.5,7.2-17.1,11.2-25.5c3-6.4,6.7-12.4,10.1-18.6
		C517.3,173,518,171.9,518.7,170.8z M107.4,316.9c-0.8-1.3-1.4-2.4-2.1-3.4c-2-3.2-4.1-6.3-6-9.4c-1.9-3.1-4.2-6.1-4.2-9.9
		c-4.4-11.8-6.5-24.1-8.7-36.3c-0.9-5-1.6-10.1-2.3-15.1c-1.1-8.3-2.5-16.7-3-25c-0.7-11.2-0.8-22.3,0.5-33.5
		c1.2-10.5,3.1-20.9,6.3-31c0.7-2.2,1.3-4.4,1.9-6.6c-0.8,0.2-1.3,0.6-1.5,1c-2,3.5-5.9,5.1-9.1,7.1c-3.8,2.3-8.3,3.4-13,3.5
		c-6.1,0.1-11.8-0.9-16.8-4.3c-4.6-3.2-9.1-6.5-13.7-9.7c-0.8-0.6-1.6-1.3-2.5-1.9c-0.2,0.1-0.4,0.2-0.6,0.4
		c0.3,2.9,0.6,5.8,0.8,8.7c0.2,2.1,0.4,4.3,0.3,6.4c-0.1,3.1-0.4,6.2-0.5,9.4c-0.3,7.1-0.3,14.1-0.7,21.2c-0.2,3.6-0.9,7.3-1.4,10.9
		c-0.8,6-1.5,12.1-2.3,18.1c-0.4,3.7-0.9,7.5-1.2,11.2c-0.6,9.4-1,18.8-1.4,28.2c-0.3,6.7-0.5,13.4-0.7,20.1c0,1.3,0.2,2.7-0.2,4
		c-0.8,3.4-0.5,6.8-0.2,10.1c0.4,5.3,1.1,10.7,2,16c0.6,3.8,1.5,7.5,2.3,11.5C55.5,317.8,81.2,317.4,107.4,316.9z M515.4,113.8
		c-0.2-0.6-0.4-1.1-0.6-1.6c-1.7-4.3-3.6-8.5-7.2-11.8c-2.2-2.1-4.5-4.1-6.8-6.1c-0.7-0.6-1.8-1-2.8-1.1c-3.5-0.4-6.7-1.2-9.5-3.4
		c-0.5-0.4-1.7-0.7-2.3-0.4c-4.1,1.6-8.2,3.3-12.2,5.2c-5.8,2.7-11.6,5.5-17.6,8.4c-0.3,1.7-0.2,3.5,0.6,5.3c1.8,4,3.4,8.1,5.2,12.2
		c2,4.4,4,8.9,6.1,13.3c0.8,1.7,1.7,3.4,2.7,5c0.7,1.1,0.2,1.8-1,2.8c-0.9-1.6-1.7-3.1-2.4-4.5c-0.8,2.9-1.6,5.6-2.4,8.4
		c-0.2,0.6-0.1,1.2,0,1.8c0.4,2.5,1,4.9,1.3,7.4c0.6,4.3,3.2,6.9,7.5,8.3c2,0.6,4,1.1,6,1.9c3.8,1.4,7.9,2.1,11.8,1.7
		c8-0.8,15.9-2.2,23.7-3.6c4.9-0.9,7.6-4.2,8.2-8.9c0.8-6.2,3.2-11.9,7-17.1c3.6-5,7.4-10,11.3-14.8c2.8-3.5,4.1-7.4,5.1-11.5
		c2.1-9.2,4-18.5,7-27.6c0.5-1.4,0.8-2.9,1.3-4.8c-1.2,1.1-2,1.8-2.8,2.5c-2.6,2.3-5.2,4.7-7.8,7c-2,1.8-4.3,3.4-5.8,5.5
		c-2.6,3.6-6.3,5.6-10.2,7.5c-1.3,0.6-2.5,0.8-3.8,0.1c-1.5-0.7-3-1.5-4.6-2.2c-2.3,1.6-2.5,2-2.4,4.6c0.1,2.8,0.3,5.5,0.3,8.3
		C518.2,113,517.4,113.9,515.4,113.8z M39.2,46.9c-0.2,0.5-0.5,0.8-0.5,1.1c-0.5,2.6-0.8,5.3-1.4,7.9c-1,4.9-2,9.8-3,14.7
		c-0.7,3.3-1.6,6.6-2.3,9.9c-1.2,5.8-2.3,11.6-3.4,17.4c-0.1,0.6-0.2,1.2-0.2,1.9c0.4,5,0.7,10,1.2,15c0.6,5.9,1,11.8,3.6,17.3
		c1,2.3,1.6,4.7,3.4,6.7c2.9,3.4,6.7,5.9,10.3,8.4c0.7,0.5,1.5,0.7,2.3,1c5.8,2,11.9,1.7,17.8,0.9c5.8-0.8,11.3-2.7,15.8-6.3
		c1.7-1.4,3.8-2.8,4.7-4.6c0.9-2,2.3-3.7,3.6-5.3c1.7-2,3.2-4,3.6-6.6c0.2-1.1,0.9-2.2,1.5-3.2c1.3-2.3,2.8-4.4,4.3-6.5
		c4.1-5.6,9-10.4,14.3-14.9c1.8-1.5,4-2.8,6.1-4.3c-0.7-0.3-1.2-0.5-1.7-0.7c-3.9-1.5-7.8-3.1-10.8-6c-2.4-2.3-5.3-3.5-8.6-3.8
		c-3.7-0.3-7.5-0.2-11.3-0.2c-1.7,0-3.5,0-5,0.5c-2,0.6-4,1.7-5.8,2.7c-3.2,1.9-6.3,4-9.5,6c-1.9-0.5-2.7-1.7-2.7-3.3
		c2.1-1.8,3.9-3.5,5.9-5c1.3-1,2.8-2,4.3-2.6c3.4-1.3,6.6-2.9,9.4-5.1c2.1-1.7,4.1-3.5,6.1-5.2c2.1-1.8,2.1-2.2,0.6-4.5
		c-0.5-0.8-1.1-1.7-1.7-2.7c-3.4,1.2-6.6,0.5-9.5-0.6c-1.4,2.1-2.5,4-3.8,5.7c-0.9,1.3-2.2,2.1-3.9,2.4c-1.8,0.3-3.6,1-5.5,1.6
		c-0.1,2.1-0.4,4-0.2,6c0.3,3.6-0.6,6.9-2.2,10.1c-1,1.9-2.4,3.6-4.4,3.9c-2.1,0.3-4.6-0.1-6.6-1c-1.7-0.7-3.2-2.4-4-3.9
		c-1.1-2.2-1.7-4.7-2.2-7.2c-0.8-5-1.5-10.1-2.1-15.1C45.2,64.3,45.4,59,43.6,54C42.7,51.4,41.6,48.9,39.2,46.9z M238.9,181.2
		c0.2-0.5,0.4-0.8,0.5-1.1c1.4-4.6,2.7-9.3,2.5-14.2c-0.1-2.4,0-4.8-0.3-7.2c-0.5-5.2-1.2-10.5-1.9-15.7c-0.9-6.3-3.8-12.1-7.1-17.4
		c-2.5-4-5.8-7.9-9.7-10.8c-4.5-3.3-9.5-6.1-15-8.2c-8.3-3.1-16.7-5-25.5-5.1c-7.5-0.1-14.9,0.1-22.4,0.3c-0.5,0-1,0.2-2.2,0.4
		c5.4,1.8,10.1,3.4,14.8,5c5.6,1.9,11.3,3.7,16.1,7.3c1.5,1.1,3.3,1.8,4.7,3c2.4,1.8,4.5,3.8,6.8,5.7c6,4.8,11.2,10.2,15.8,16.1
		c3.9,4.9,7.5,10,11.2,15.1c0.3,0.4,0.4,0.8,0.6,1.2c1.2,3.1,2.4,6.2,3.6,9.3c0.4,1.1,0.6,2.3,1.1,3.3c1.2,3,2.5,5.9,3.7,8.9
		C236.9,178.5,237.7,179.8,238.9,181.2z M491.4,86.9c2.1,0.3,3.8,0.4,5.4,0.8c3.2,0.9,5.6-0.2,7.8-2.1c3.1-2.6,6.2-5.3,9.2-8
		c0.9-0.9,1.9-1.9,2.3-3c1.3-3.5,2.5-7.1,3.5-10.7c1.9-6.4,2.1-13.1,1.9-19.7c-0.1-5.5-1.7-10.9-3.3-16.3c-1.3-4.4-3.9-7.9-8.2-10.3
		c-0.8-0.4-1.5-1.1-2.2-1.7c-3.8-3.1-8.1-4.6-13.1-4.6c-2.5,0-3.8,1-4.7,2.7c-0.8,1.5-1.3,3.1-1.9,4.8c2.5,0.6,4.8,1.1,7.1,1.8
		c1.2,0.4,2.7,0.9,3.4,1.9c2,3,4.5,5.8,4.1,9.8c-0.1,1.5,0.2,3,0.4,4.5c0.8,5.9,1.8,11.9,2.5,17.8c0.5,4,1.3,8-0.3,12
		c-1.1,2.9-2.3,5.9-3.9,8.5c-1.3,2.2-3.3,4.1-5.1,6.1C494.9,82.9,493.4,84.6,491.4,86.9z M125.9,15.6c-0.1,0-0.2,0-0.3-0.1
		c-0.1-0.5,0-1.1-0.2-1.6c-0.2-0.7-0.5-1.3-0.8-2c-2.1-4.7-4.9-5.6-9.8-3.4c-0.3,0.1-0.5,0.2-0.8,0.3c-6,2.5-8.8,6.9-8.6,13
		c0.1,2.5,0.1,5,0.5,7.5c0.8,4.7,0.4,9.3-0.8,13.8c-1,3.5-2.3,6.8-3.2,10.3c-0.5,1.7-1.1,3.3-2.2,4.9c-1.2,1.7-2,3.6-3,5.4
		c-0.9,1.7,0,3.1,1,4.5c0.9,1.3,2.3,1.2,3.6,0.8c1.3-0.4,2.8-0.8,3.9-1.6c2-1.6,3.9-3.4,5.5-5.4c1.5-2,3-4.2,3.7-6.6
		c2.9-10.3,7.4-20.1,9.1-30.7c0.1-0.6,0.4-1.2,0.6-1.8C124.7,20.4,125.3,18,125.9,15.6z M38.1,40.9c5.3,2.7,8.3,6.6,9.3,11.7
		c1,5.1,2.6,10,2.4,15.3c-0.1,3.7,0.8,7.4,1.2,11.1c0.4,4.3,1.4,8.4,3.7,12.2c0.8,1.3,2,2.7,3.7,2.6c1.8-0.1,3.1-1.3,3.7-3
		c0.1-0.3,0.1-0.5,0.2-0.8c0.5-1.2,1-2.5,1.6-3.7c1.1-2.2,1.4-4.4,1-6.8c-0.4-2-1-4-1.4-6c-0.3-1.4-0.2-2.9-0.8-4.2
		c-1.7-4.3-1.4-8.8-1.9-13.2c-0.3-2.5,0.2-5-0.1-7.5c-0.4-3.4-1.2-6.7-2-10c-0.6-2.3-1.3-4.7-2.2-6.9c-1-2.5-3.4-3.7-5.7-3
		c-1.9,0.5-3.8,1.1-5.6,2c-1.5,0.7-3.1,1.5-4.1,2.7C39.4,35.5,38.7,38.2,38.1,40.9z M57.9,28.3c0.9,1.4,2,2.4,2.4,3.6
		c1.2,3.9,2.2,8,3.2,12c1.4,5.5,1.2,11.2,1.4,16.8c0.2,3.4,0.8,6.7,2.2,10.1c2.2-0.2,4.3-0.5,6.5-0.7c1.9-0.1,3.4-0.9,4.1-2.5
		c0.7-1.5,1.1-3.2,1.6-4.8c0.2-0.6,0-1.2,0-1.9c0-3.2,0.1-6.3,0.9-9.5c1.3-5.4,0.6-11-0.2-16.5c-0.7-4.5-1.9-9-3-13.5
		c-1.2-4.8-6.7-6.7-11.1-4.2c-2.6,1.5-4.5,3.6-6.1,5.9C58.5,24.8,57.9,26.6,57.9,28.3z M82.7,64.9c1.4,0.2,2.7,0.2,4,0.6
		c2,0.5,3.4-0.3,4.4-1.7c2-2.7,3.9-5.5,5.6-8.4c1.1-1.8,1.9-3.7,2.7-5.6c1.7-3.8,1.9-7.8,2.3-11.8c0.8-6.9,0-13.7-1.8-20.4
		c-0.5-2-1.7-2.9-3.7-3.2c-4.8-0.7-8.6,0.5-11.5,4.3c-0.7,1-1.2,2-1.1,3.2c0.2,2,0.3,4.1,0.4,6.1c0.1,2.3-0.1,4.6,0,7
		c0.2,3.8,0.8,7.7,0.6,11.5C84.3,52.6,83.4,58.6,82.7,64.9z M506.1,90.8c1.4,1.8,2.7,3.8,5.2,4.2c3.4,0.6,6.5,0,9-2.3
		c1.8-1.6,3.5-3.3,5.3-4.9c4.3-3.8,6.8-8.6,8.1-13.9c1.3-5.5,2.4-11,3.4-16.6c0.4-2,0.2-4.1,0.5-6.1c0.5-3.2-4.1-6.3-7.8-5.6
		c-2,0.4-4,1.1-6.1,1.7c0,0.8-0.1,1.5-0.1,2.2c0.2,4.4-0.4,8.8-1.5,13c-1.2,4.6-3,9-4.5,13.5c-0.3,0.7-0.7,1.4-1.2,2
		C513,82.3,509.5,86.5,506.1,90.8z M524.3,95c1,0.4,1.8,0.6,2.6,1c2.5,1.1,3.8,0.9,5.7-0.8c2-1.8,3.9-3.6,5.9-5.4
		c1.9-1.7,3.8-3.6,6-5c6.7-4,10.9-9.8,14.7-16.1c1.8-2.9,1.1-5.6-0.3-8.4c-0.7-1.4-1.8-1.8-3.3-1.3c-1.4,0.5-2.9,0.9-4.3,1.5
		c-4.1,1.9-7.1,5-10.7,7.5c-3.5,2.4-4.9,5.5-5.1,9.3c-0.2,5-3,8.7-6.5,12.2C527.3,91.2,525.9,93.1,524.3,95z"/>
	<path class="st0" d="M100.4,74.2c5.5-3.1,9.9-7.5,14.1-12c1.7-1.9,2.8-4.4,3.7-6.9c2-5.4,3.7-10.9,5.3-16.4c1.1-3.9,1.9-8,2.9-12.2
		c2.2,0.2,4.2,0.6,6.3,0.6c4.5,0.1,9,0.1,13.5,0.1c9.9,0,19.9,0.1,29.8,0c16.2-0.2,32.3-1.1,48.4-2c8.6-0.5,17.2-0.7,25.7-1
		c13.7-0.5,27.5-1,41.2-1.5c7.5-0.3,15.1-0.6,22.6-0.7c13-0.2,26-0.3,39-0.4c8-0.1,16-0.2,24.1-0.1c11.6,0,23.1,0.1,34.7,0.3
		c8.9,0.1,17.8,0.3,26.6,0.5c8.5,0.2,17,0.6,25.5,0.8c7.6,0.2,15.3,0.1,22.9,0.2c0.9,0,1.7-0.1,2.6,0c5.1,0.1,8.1,2.1,9.2,8.1
		c1.2,6.3,2.3,12.7,2.8,19.1c0.4,5.3,1.6,10.6-0.7,15.9c-1.8,4.2-4.5,7.8-7.4,11.3c-5.1,6.1-11.5,10.8-18.9,13.9
		c-7.2,3-14.8,5.2-22.7,6.1c-5,0.6-9.9,1.7-14.8,2.9c-9.4,2.3-18.8,4.8-27.9,8c-3.4,1.2-6.9,2.2-10.2,3.6c-2.2,1-4.3,2.4-6.1,4
		c-2.7,2.3-5,4.9-7.6,7.3c-2.6,2.5-5.5,4.7-8,7.3c-6.6,6.7-13.2,13.4-18.2,21.3c-2.4,3.8-5.3,7.2-7.8,10.9
		c-3.6,5.2-7.2,10.3-10.5,15.6c-2.4,3.8-4,7.9-4,12.4c0,2-0.9,3.5-2.9,4.1c-3.5,0.9-7,1.9-10.5,2.5c-9.5,1.6-19.2,1.7-28.9,1.6
		c-10.4,0-20.6-1.4-30.7-3c-4.5-0.7-8.6-2.4-12.4-4.6c-1.5-0.9-2.9-1.7-4.4-2.5c-3.1-1.8-4-3.8-2.7-7c2-4.9,2.3-9.9,2.4-15
		c0-0.4,0-0.9,0.1-1.3c1.4-5.3,1-10.7,0.7-16c-0.1-1.5-0.3-3-0.7-4.5c-1.7-7.3-3.2-14.7-7.4-21.3c-0.4-0.6-0.8-1.2-1.3-1.8
		c-1-1.5-2-3-3-4.5c-0.3-0.4-0.4-0.8-0.7-1.2c-4.1-4.1-8-8.3-12.8-11.8c-5.8-4.1-12.4-6.1-18.9-8.5c-4.6-1.7-9.2-2.8-14.1-3.1
		c-2.5-0.1-4.9-0.6-7.3-1.1c-5.6-1-11.2-0.4-16.9,0c-9,0.6-17.9,1.5-26.8,2c-2.8,0.2-5.7-0.2-8.5-0.6c-2.6-0.4-5.2-1-7.8-1.7
		c-4.5-1.3-8.2-3.8-11.2-7.2c-2-2.3-4.5-4.1-7-5.8C100.3,77.3,100.4,77.2,100.4,74.2z M470.4,44.7c0.1-0.1,0.1-0.3,0.2-0.4
		c-0.5-0.3-1-0.7-1.6-0.9c-4.1-1.8-8.6-1.8-12.9-2c-10.3-0.5-20.6-1-30.9-1c-13.5,0-27.1-0.2-40.6,0.4c-5.3,0.3-10.7,0.2-16,0.4
		c-10.7,0.4-21.3,1.1-32,1.5c-12.3,0.4-24.6,0.5-37,0.8c-10.5,0.2-21,0.2-31.5,0.5c-7.3,0.2-14.6,0.8-22,1.1
		c-8.8,0.3-17.5,0.4-26.3,0.6c-3.6,0.1-7.2,0.4-10.9,0.5c-3.6,0.1-7.3-0.1-10.9,0.1c-4,0.2-8,0.9-11.9,1.2
		c-6.4,0.5-12.8,0.9-19.1,1.4c-0.7,0.1-1.5,0.4-2.2,0.6c-0.3,0.1-0.6,0.1-0.9-0.1c-2.1-1-4.2-0.4-6.3-0.3c0,0.9,0,1.7,0.1,2.5
		c1.2,0,2.4,0.1,3.5-0.1c4-0.8,8.1-1.1,12.2-1.4c6-0.3,11.9-1.2,17.9-1.6c7-0.4,14.1-0.6,21.1-0.9c5.9-0.2,11.8-0.2,17.7-0.4
		c6.8-0.2,13.5-0.6,20.3-0.8c9.9-0.3,19.9-0.5,29.8-0.8c8-0.2,16-0.7,24-0.7c11.4,0,22.7,0.1,34.1-0.7c8.3-0.5,16.6-0.7,24.9-1
		c11.9-0.3,23.9-0.6,35.8-0.9c13.6-0.2,27.1-0.6,40.7,0.3c7.6,0.5,15.3,0.5,22.9,0.8c2.1,0.1,4.1,0.7,6.2,1.1
		C469.2,44.5,469.8,44.6,470.4,44.7z M430.7,50.3c-1.4-1.4-2.7-1.9-4.2-2c-3-0.1-5.9-0.3-8.9-0.2c-6.2,0.1-12.4,0.4-18.6,0.6
		c-16,0.5-32.1,1-48.1,1.3c-13,0.3-26,0.2-39,0.4c-7.9,0.1-15.8,0.4-23.7,0.5c-2.6,0.1-5.2,0-7.7,0.1c-8.1,0.2-16.2,0.3-24.3,0.5
		c-5.3,0.2-10.7,0.7-16,0.9c-3.7,0.2-7.4,0.2-11.2,0.3c-0.5,0-1,0.3-1.5,0.5c0,0.2,0.1,0.4,0.1,0.6c1.8,0.1,3.6,0.2,5.4,0.2
		c6.6-0.3,13.2-0.8,19.8-0.9c13.8-0.3,27.5-0.5,41.3-0.7c8.4-0.1,16.8-0.3,25.2-0.5c12-0.2,24.1-0.4,36.1-0.7
		c9.8-0.2,19.7-0.4,29.5-0.6c9.1-0.2,18.1-0.6,27.2-0.8c5.1-0.1,10.1-0.1,15.2,0C428.2,49.8,429.1,50.1,430.7,50.3z M251.6,59.7
		c0.1,0.2,0.1,0.4,0.2,0.5c0.4,0.1,0.9,0.2,1.3,0.2c6.4-0.6,12.7-1.4,19.1-1.8c8.4-0.5,16.8-0.8,25.2-1c5.8-0.1,11.7,0.1,17.5,0
		c8.5-0.1,17-0.5,25.5-0.6c5-0.1,9.9,0.1,14.9,0.2c4.3,0.1,8.6,0.3,12.9,0.4c2.3,0,4.6-0.1,7-0.1c-0.2-0.6-0.5-0.7-0.8-0.8
		c-3.6-1.3-7.3-1-11-1.1c-6.3-0.1-12.6-0.1-18.9-0.1c-3.4,0-6.9-0.1-10.3,0c-10.5,0.2-21,0.4-31.5,0.6c-4,0.1-8,0-12,0.1
		c-6,0.3-12,0.6-18,1.1c-6.4,0.5-12.7,1.1-19.1,1.7C252.8,59,252.2,59.4,251.6,59.7z M487.8,39c-1.9,0.4-1.9,1.7-2,2.8
		c-0.4,3.7-0.7,7.5-1,11.2c-0.2,3.8-1.6,6.9-5,9.2c-3.4,2.2-6.6,4.6-9.9,6.8c-3.2,2.2-6.5,4.1-9.5,6.4c-2.8,2.1-5.3,4.6-8,6.9
		c-0.7,0.6-1.8,1.3-0.8,2.1c1,0.9,1.6-0.3,2.3-0.9c2.6-2.3,5-4.9,7.9-7c5.9-4.3,12.1-8.4,18.2-12.6c2.9-2,5.6-4.1,6.2-7.7
		c0.3-1.9,0.4-3.7,0.6-5.6c0.3-3.3,0.6-6.6,1-9.9C487.8,40.4,487.8,39.8,487.8,39z M138.7,78.5c-10.1-0.3-17.7-4.1-22.5-13
		c-0.3,0.8-0.7,1.3-0.6,1.7c0.3,1,0.7,2.1,1.3,2.9c4,5.6,9.6,8.8,16.6,9.9C135.3,80.4,137.3,80.1,138.7,78.5z"/>
	<path class="st1" d="M518.7,170.8c-0.7,1.1-1.4,2.3-2.1,3.4c-3.4,6.2-7.1,12.3-10.1,18.6c-4,8.4-7.5,17-11.2,25.5
		c-4.2,9.5-8.5,18.9-12.6,28.5c-2.9,6.9-5.5,13.9-8.4,20.8c-4.9,11.7-9.8,23.3-14.8,34.9c-1.3,3.2-2.6,6.3-4,9.7
		c-26.1,0.4-52.2,0.9-78.8,1.1c1-2,1.7-3.5,2.6-4.9c3.8-6,7.8-12,11.6-18.1c3.8-6.1,7.7-12.1,11.3-18.4c5.5-9.6,10.8-19.3,15.9-29
		c3.2-6.1,6.1-12.3,9.1-18.5c2.6-5.4,5.1-10.8,7.8-16.1c3.9-7.6,7.9-15.1,11.8-22.6c2.5-4.9,4.8-9.9,7.2-14.8c2-4,4.1-7.8,6.3-12.1
		c0.2,3.1,2.2,4.6,4.3,6.2c3.1,2.3,6.3,4.3,10.1,5.6c2.1,0.7,4.4,1.3,6.5,1.9c1.5,0.4,3.1,0.4,4.4,1.1c2.5,1.1,5,0.9,7.6,1
		c5.1,0.1,10-1.4,15-1.7C511.8,172.5,515.2,172.1,518.7,170.8z"/>
	<path class="st1" d="M107.4,316.9c-26.3,0.5-52,0.9-78,1.4c-0.8-4-1.7-7.7-2.3-11.5c-0.8-5.3-1.6-10.6-2-16
		c-0.2-3.3-0.6-6.7,0.2-10.1c0.3-1.3,0.1-2.7,0.2-4c0.2-6.7,0.4-13.4,0.7-20.1c0.4-9.4,0.9-18.8,1.4-28.2c0.2-3.7,0.7-7.5,1.2-11.2
		c0.7-6,1.5-12.1,2.3-18.1c0.5-3.6,1.2-7.3,1.4-10.9c0.4-7.1,0.5-14.1,0.7-21.2c0.1-3.1,0.5-6.2,0.5-9.4c0-2.1-0.2-4.3-0.3-6.4
		c-0.2-2.9-0.5-5.8-0.8-8.7c0.2-0.1,0.4-0.2,0.6-0.4c0.8,0.6,1.6,1.3,2.5,1.9c4.5,3.3,9,6.6,13.7,9.7c5,3.4,10.6,4.4,16.8,4.3
		c4.8-0.1,9.3-1.2,13-3.5c3.2-2,7.1-3.6,9.1-7.1c0.3-0.4,0.7-0.8,1.5-1c-0.6,2.2-1.2,4.4-1.9,6.6c-3.2,10.1-5.1,20.5-6.3,31
		c-1.3,11.2-1.2,22.3-0.5,33.5c0.5,8.4,1.9,16.7,3,25c0.7,5.1,1.4,10.1,2.3,15.1c2.2,12.3,4.3,24.5,8.7,36.3c0,3.8,2.3,6.8,4.2,9.9
		c1.9,3.2,4,6.3,6,9.4C106,314.5,106.7,315.6,107.4,316.9z"/>
	<path class="st2" d="M515.4,113.8c2,0.1,2.8-0.8,2.8-2.2c0-2.8-0.2-5.5-0.3-8.3c-0.1-2.7,0.1-3.1,2.4-4.6c1.5,0.7,3.1,1.5,4.6,2.2
		c1.3,0.6,2.6,0.5,3.8-0.1c4-1.8,7.6-3.9,10.2-7.5c1.5-2.1,3.8-3.7,5.8-5.5c2.6-2.4,5.2-4.7,7.8-7c0.8-0.7,1.6-1.4,2.8-2.5
		c-0.5,2-0.8,3.4-1.3,4.8c-3,9.1-4.9,18.3-7,27.6c-1,4.1-2.3,8.1-5.1,11.5c-3.9,4.8-7.7,9.8-11.3,14.8c-3.8,5.2-6.2,10.8-7,17.1
		c-0.6,4.7-3.2,7.9-8.2,8.9c-7.9,1.5-15.8,2.8-23.7,3.6c-3.9,0.4-8-0.2-11.8-1.7c-1.9-0.7-4-1.2-6-1.9c-4.3-1.4-6.9-4-7.5-8.3
		c-0.4-2.5-0.9-4.9-1.3-7.4c-0.1-0.6-0.1-1.3,0-1.8c0.8-2.8,1.6-5.6,2.4-8.4c0.8,1.4,1.6,2.9,2.4,4.5c1.2-1,1.7-1.6,1-2.8
		c-1-1.6-1.9-3.3-2.7-5c-2.1-4.4-4.1-8.8-6.1-13.3c-1.8-4-3.4-8.1-5.2-12.2c-0.8-1.8-0.8-3.6-0.6-5.3c6-2.8,11.7-5.7,17.6-8.4
		c4-1.9,8.1-3.6,12.2-5.2c0.6-0.2,1.8,0,2.3,0.4c2.8,2.2,6,3,9.5,3.4c1,0.1,2.1,0.5,2.8,1.1c2.4,1.9,4.6,4,6.8,6.1
		c3.5,3.3,5.5,7.5,7.2,11.8C515,112.7,515.2,113.2,515.4,113.8z"/>
	<path class="st2" d="M39.2,46.9c2.4,2,3.5,4.5,4.4,7.1c1.8,5,1.6,10.2,2.1,15.4c0.5,5.1,1.2,10.1,2.1,15.1c0.4,2.4,1,5,2.2,7.2
		c0.8,1.6,2.4,3.2,4,3.9c2,0.9,4.5,1.3,6.6,1c2-0.3,3.5-2,4.4-3.9c1.6-3.2,2.6-6.5,2.2-10.1c-0.2-1.9,0.1-3.9,0.2-6
		c1.9-0.6,3.7-1.3,5.5-1.6c1.8-0.3,3-1.1,3.9-2.4c1.3-1.8,2.4-3.6,3.8-5.7c2.8,1.2,6.1,1.8,9.5,0.6c0.6,1,1.2,1.8,1.7,2.7
		c1.5,2.3,1.5,2.7-0.6,4.5c-2,1.7-4,3.5-6.1,5.2c-2.8,2.2-6,3.8-9.4,5.1c-1.6,0.6-3,1.6-4.3,2.6c-2,1.5-3.8,3.2-5.9,5
		c-0.1,1.6,0.8,2.8,2.7,3.3c3.2-2,6.3-4.1,9.5-6c1.8-1.1,3.8-2.1,5.8-2.7c1.6-0.5,3.3-0.5,5-0.5c3.8,0,7.6-0.1,11.3,0.2
		c3.3,0.3,6.2,1.5,8.6,3.8c3,2.9,6.9,4.4,10.8,6c0.5,0.2,1,0.4,1.7,0.7c-2.2,1.5-4.3,2.7-6.1,4.3c-5.3,4.5-10.2,9.3-14.3,14.9
		c-1.6,2.1-3,4.2-4.3,6.5c-0.6,1-1.3,2.1-1.5,3.2c-0.4,2.6-2,4.6-3.6,6.6c-1.4,1.7-2.7,3.3-3.7,5.3c-0.9,1.8-2.9,3.2-4.7,4.6
		c-4.6,3.6-10,5.6-15.8,6.3c-6,0.8-12,1.1-17.8-0.9c-0.8-0.3-1.6-0.5-2.3-1c-3.7-2.6-7.4-5-10.3-8.4c-1.8-2-2.3-4.4-3.4-6.7
		c-2.5-5.5-3-11.4-3.6-17.3c-0.5-5-0.8-10-1.2-15c0-0.6,0-1.2,0.2-1.9c1.1-5.8,2.2-11.6,3.4-17.4c0.7-3.3,1.6-6.6,2.3-9.9
		c1-4.9,2-9.8,3-14.7c0.5-2.6,0.9-5.3,1.4-7.9C38.7,47.7,39,47.4,39.2,46.9z"/>
	<path class="st3" d="M238.9,181.2c-1.3-1.4-2.1-2.7-2.7-4.2c-1.2-3-2.5-5.9-3.7-8.9c-0.4-1.1-0.6-2.2-1.1-3.3
		c-1.2-3.1-2.4-6.2-3.6-9.3c-0.2-0.4-0.3-0.8-0.6-1.2c-3.7-5-7.3-10.1-11.2-15.1c-4.6-5.9-9.8-11.4-15.8-16.1
		c-2.3-1.8-4.5-3.9-6.8-5.7c-1.5-1.1-3.3-1.8-4.7-3c-4.7-3.7-10.4-5.4-16.1-7.3c-4.7-1.6-9.5-3.2-14.8-5c1.2-0.2,1.7-0.4,2.2-0.4
		c7.5-0.1,14.9-0.4,22.4-0.3c8.8,0.1,17.3,2,25.5,5.1c5.5,2,10.6,4.8,15,8.2c3.9,2.9,7.3,6.7,9.7,10.8c3.3,5.4,6.2,11.1,7.1,17.4
		c0.8,5.2,1.4,10.5,1.9,15.7c0.2,2.4,0.2,4.8,0.3,7.2c0.1,4.9-1.1,9.6-2.5,14.2C239.4,180.4,239.2,180.7,238.9,181.2z"/>
	<path class="st2" d="M491.4,86.9c2-2.3,3.5-4,4.9-5.7c1.7-2,3.7-3.9,5.1-6.1c1.6-2.7,2.8-5.6,3.9-8.5c1.5-3.9,0.8-8,0.3-12
		c-0.7-5.9-1.7-11.9-2.5-17.8c-0.2-1.5-0.5-3-0.4-4.5c0.4-3.9-2.2-6.8-4.1-9.8c-0.6-0.9-2.1-1.5-3.4-1.9c-2.2-0.7-4.6-1.1-7.1-1.8
		c0.6-1.7,1.1-3.3,1.9-4.8c1-1.7,2.3-2.7,4.7-2.7c5,0.1,9.3,1.5,13.1,4.6c0.7,0.6,1.4,1.2,2.2,1.7c4.3,2.3,6.8,5.8,8.2,10.3
		c1.6,5.3,3.2,10.7,3.3,16.3c0.2,6.6,0,13.2-1.9,19.7c-1.1,3.6-2.2,7.2-3.5,10.7c-0.4,1.1-1.4,2.2-2.3,3c-3,2.7-6.1,5.3-9.2,8
		c-2.2,1.9-4.6,3-7.8,2.1C495.2,87.3,493.5,87.2,491.4,86.9z"/>
	<path class="st2" d="M125.9,15.6c-0.6,2.4-1.2,4.9-1.8,7.3c-0.2,0.6-0.5,1.2-0.6,1.8c-1.7,10.6-6.2,20.4-9.1,30.7
		c-0.7,2.3-2.2,4.6-3.7,6.6c-1.5,2-3.5,3.8-5.5,5.4c-1,0.8-2.5,1.2-3.9,1.6c-1.3,0.4-2.7,0.4-3.6-0.8c-1-1.3-1.9-2.7-1-4.5
		c1-1.8,1.8-3.7,3-5.4c1-1.5,1.7-3.1,2.2-4.9c1-3.4,2.3-6.8,3.2-10.3c1.3-4.5,1.6-9.1,0.8-13.8c-0.4-2.5-0.4-5-0.5-7.5
		c-0.2-6.1,2.6-10.5,8.6-13c0.3-0.1,0.5-0.2,0.8-0.3c4.9-2.3,7.7-1.3,9.8,3.4c0.3,0.7,0.6,1.3,0.8,2c0.2,0.5,0.1,1.1,0.2,1.6
		C125.7,15.5,125.8,15.5,125.9,15.6z"/>
	<path class="st2" d="M38.1,40.9c0.6-2.7,1.3-5.3,3.1-7.4c1-1.2,2.6-2,4.1-2.7c1.8-0.8,3.7-1.5,5.6-2c2.3-0.6,4.6,0.6,5.7,3
		c0.9,2.2,1.6,4.6,2.2,6.9c0.8,3.3,1.6,6.6,2,10c0.3,2.5-0.2,5,0.1,7.5c0.5,4.4,0.1,8.9,1.9,13.2c0.5,1.3,0.5,2.8,0.8,4.2
		c0.4,2,1,4,1.4,6c0.5,2.3,0.1,4.6-1,6.8c-0.6,1.2-1.1,2.5-1.6,3.7c-0.1,0.2-0.2,0.5-0.2,0.8c-0.6,1.7-1.9,2.9-3.7,3
		c-1.7,0.1-2.9-1.3-3.7-2.6c-2.3-3.8-3.3-7.9-3.7-12.2c-0.4-3.7-1.3-7.4-1.2-11.1c0.2-5.3-1.4-10.2-2.4-15.3
		C46.4,47.4,43.5,43.5,38.1,40.9z"/>
	<path class="st2" d="M57.9,28.3c0-1.7,0.7-3.5,1.8-5.2c1.6-2.3,3.5-4.5,6.1-5.9c4.4-2.5,9.9-0.6,11.1,4.2c1.1,4.5,2.3,9,3,13.5
		c0.8,5.5,1.6,11.1,0.2,16.5c-0.8,3.2-0.8,6.3-0.9,9.5c0,0.6,0.1,1.3,0,1.9c-0.4,1.6-0.8,3.3-1.6,4.8c-0.7,1.5-2.2,2.4-4.1,2.5
		c-2.2,0.1-4.3,0.4-6.5,0.7c-1.4-3.4-2-6.7-2.2-10.1c-0.2-5.6-0.1-11.3-1.4-16.8c-1-4-2-8-3.2-12C59.9,30.6,58.8,29.6,57.9,28.3z"/>
	<path class="st2" d="M82.7,64.9c0.7-6.3,1.6-12.4,2-18.5c0.2-3.8-0.4-7.6-0.6-11.5c-0.1-2.3,0-4.6,0-7c-0.1-2-0.2-4.1-0.4-6.1
		c-0.1-1.2,0.4-2.2,1.1-3.2c2.8-3.8,6.7-5.1,11.5-4.3c2,0.3,3.2,1.2,3.7,3.2c1.7,6.7,2.5,13.5,1.8,20.4c-0.5,4-0.6,8-2.3,11.8
		c-0.9,1.9-1.6,3.8-2.7,5.6c-1.7,2.9-3.6,5.7-5.6,8.4c-1,1.4-2.4,2.2-4.4,1.7C85.4,65.2,84,65.1,82.7,64.9z"/>
	<path class="st2" d="M506.1,90.8c3.5-4.3,6.9-8.5,10.3-12.7c0.5-0.6,0.9-1.3,1.2-2c1.6-4.5,3.4-8.9,4.5-13.5
		c1.1-4.2,1.7-8.6,1.5-13c0-0.7,0.1-1.4,0.1-2.2c2.1-0.6,4-1.3,6.1-1.7c3.7-0.7,8.3,2.4,7.8,5.6c-0.3,2-0.1,4.1-0.5,6.1
		c-1,5.5-2.2,11.1-3.4,16.6c-1.2,5.4-3.8,10.1-8.1,13.9c-1.8,1.6-3.5,3.3-5.3,4.9c-2.5,2.3-5.6,2.9-9,2.3
		C508.7,94.5,507.4,92.5,506.1,90.8z"/>
	<path class="st2" d="M524.3,95c1.6-1.9,3-3.8,4.7-5.5c3.5-3.5,6.2-7.2,6.5-12.2c0.2-3.8,1.6-6.9,5.1-9.3c3.6-2.5,6.6-5.6,10.7-7.5
		c1.4-0.6,2.8-1.1,4.3-1.5c1.5-0.5,2.6-0.1,3.3,1.3c1.4,2.8,2.1,5.5,0.3,8.4c-3.8,6.3-8,12.1-14.7,16.1c-2.2,1.3-4,3.2-6,5
		c-2,1.8-3.9,3.6-5.9,5.4c-1.9,1.7-3.1,1.8-5.7,0.8C526.1,95.7,525.3,95.4,524.3,95z"/>
	<path d="M470.4,44.7c-0.6-0.1-1.2-0.2-1.8-0.3c-2.1-0.4-4.1-1-6.2-1.1c-7.6-0.4-15.3-0.3-22.9-0.8c-13.6-0.9-27.1-0.5-40.7-0.3
		c-11.9,0.2-23.9,0.5-35.8,0.9c-8.3,0.2-16.6,0.4-24.9,1c-11.4,0.7-22.7,0.7-34.1,0.7c-8,0-16,0.5-24,0.7
		c-9.9,0.3-19.9,0.5-29.8,0.8c-6.8,0.2-13.5,0.6-20.3,0.8c-5.9,0.2-11.8,0.2-17.7,0.4c-7,0.2-14.1,0.4-21.1,0.9
		c-6,0.4-11.9,1.3-17.9,1.6c-4.1,0.2-8.2,0.5-12.2,1.4c-1.1,0.2-2.3,0.1-3.5,0.1c0-0.8,0-1.6-0.1-2.5c2.2-0.1,4.3-0.6,6.3,0.3
		c0.2,0.1,0.6,0.1,0.9,0.1c0.7-0.2,1.4-0.5,2.2-0.6c6.4-0.5,12.8-0.9,19.1-1.4c4-0.3,8-1,11.9-1.2c3.6-0.2,7.2,0,10.9-0.1
		c3.6-0.1,7.2-0.4,10.9-0.5c8.8-0.2,17.5-0.3,26.3-0.6c7.3-0.3,14.6-0.9,22-1.1c10.5-0.3,21-0.3,31.5-0.5c12.3-0.2,24.6-0.4,37-0.8
		c10.7-0.3,21.4-1,32-1.5c5.3-0.2,10.7-0.2,16-0.4c13.5-0.7,27.1-0.4,40.6-0.4c10.3,0,20.6,0.5,30.9,1c4.3,0.2,8.8,0.1,12.9,2
		c0.6,0.3,1.1,0.6,1.6,0.9C470.5,44.4,470.4,44.6,470.4,44.7z"/>
	<path d="M430.7,50.3c-1.5-0.2-2.5-0.5-3.5-0.5c-5.1,0-10.1-0.1-15.2,0c-9.1,0.2-18.1,0.6-27.2,0.8c-9.8,0.3-19.7,0.5-29.5,0.6
		c-12,0.2-24.1,0.4-36.1,0.7c-8.4,0.2-16.8,0.3-25.2,0.5c-13.8,0.2-27.5,0.4-41.3,0.7c-6.6,0.2-13.2,0.7-19.8,0.9
		c-1.8,0.1-3.6-0.1-5.4-0.2c0-0.2-0.1-0.4-0.1-0.6c0.5-0.2,1-0.5,1.5-0.5c3.7-0.1,7.4-0.1,11.2-0.3c5.3-0.3,10.7-0.7,16-0.9
		c8.1-0.3,16.2-0.4,24.3-0.5c2.6-0.1,5.2,0,7.7-0.1c7.9-0.2,15.8-0.4,23.7-0.5c13-0.2,26-0.1,39-0.4c16-0.3,32.1-0.9,48.1-1.3
		c6.2-0.2,12.4-0.5,18.6-0.6c3-0.1,5.9,0.1,8.9,0.2C427.9,48.4,429.2,48.9,430.7,50.3z"/>
	<path d="M251.6,59.7c0.6-0.2,1.2-0.7,1.8-0.7c6.4-0.6,12.7-1.3,19.1-1.7c6-0.5,12-0.8,18-1.1c4-0.2,8-0.1,12-0.1
		c10.5-0.2,21-0.4,31.5-0.6c3.4-0.1,6.9,0,10.3,0c6.3,0,12.6,0,18.9,0.1c3.7,0.1,7.5-0.2,11,1.1c0.3,0.1,0.6,0.3,0.8,0.8
		c-2.3,0-4.6,0.2-7,0.1c-4.3-0.1-8.6-0.3-12.9-0.4c-5-0.1-9.9-0.2-14.9-0.2c-8.5,0.1-17,0.5-25.5,0.6c-5.8,0.1-11.7-0.1-17.5,0
		c-8.4,0.2-16.8,0.5-25.2,1c-6.4,0.4-12.7,1.2-19.1,1.8c-0.4,0-0.9-0.1-1.3-0.2C251.7,60,251.7,59.9,251.6,59.7z"/>
	<path d="M487.8,39c0,0.7,0,1.3-0.1,1.9c-0.3,3.3-0.6,6.6-1,9.9c-0.2,1.9-0.3,3.7-0.6,5.6c-0.6,3.6-3.3,5.7-6.2,7.7
		c-6.1,4.1-12.3,8.2-18.2,12.6c-2.8,2.1-5.3,4.7-7.9,7c-0.6,0.6-1.2,1.8-2.3,0.9c-1-0.9,0.1-1.6,0.8-2.1c2.6-2.3,5.2-4.8,8-6.9
		c3-2.3,6.4-4.3,9.5-6.4c3.3-2.3,6.5-4.6,9.9-6.8c3.4-2.3,4.8-5.4,5-9.2c0.2-3.7,0.6-7.5,1-11.2C485.9,40.7,485.9,39.5,487.8,39z"/>
	<path d="M138.7,78.5c-1.5,1.5-3.4,1.8-5.3,1.6c-7-1.1-12.6-4.3-16.6-9.9c-0.6-0.9-1-1.9-1.3-2.9c-0.1-0.4,0.3-0.9,0.6-1.7
		C121,74.4,128.6,78.3,138.7,78.5z"/>
</g>
</svg>
