<?xml version="1.0" encoding="utf-8"?>
<!-- Generator: Adobe Illustrator 16.0.4, SVG Export Plug-In . SVG Version: 6.00 Build 0)  -->
<!DOCTYPE svg PUBLIC "-//W3C//DTD SVG 1.1//EN" "http://www.w3.org/Graphics/SVG/1.1/DTD/svg11.dtd">
<svg version="1.1" id="Layer_1" xmlns="http://www.w3.org/2000/svg" xmlns:xlink="http://www.w3.org/1999/xlink" x="0px" y="0px"
	 width="485px" height="540px" viewBox="52.5 135.5 485 540" enable-background="new 52.5 135.5 485 540" xml:space="preserve">
<path d="M111.875,233.412c-0.463,0.034-1.042,0.264-1.371,0.07c-1.833-1.079-3.562-2.34-5.412-3.388
	c-2.35-1.33-4.782-2.515-7.396-3.876c-0.658-2.347,2.204-3.252,2.732-5.505c-1.252-0.48-2.538-1.035-3.863-1.473
	c-7.601-2.509-14.816-5.915-22.068-9.263c-3.693-1.705-6.492-3.859-7.029-8.152c-0.067-0.542-0.409-1.046-0.521-1.589
	c-1.589-7.698-5.003-14.62-9.083-21.247c-0.54-0.876-0.735-1.586-0.011-2.35c0.738-0.779,1.706-1.078,2.596-0.441
	c1.224,0.875,2.363,1.886,3.445,2.935c0.905,0.877,1.676,1.894,2.507,2.848c0.2-0.122,0.401-0.244,0.602-0.366
	c-0.553-1.746-1.141-3.481-1.648-5.24c-0.506-1.756-1.038-3.539-0.007-5.304c0.117-0.201,0.298-0.363,0.619-0.744
	c0.806,0.35,1.818,0.536,2.474,1.121c2.096,1.87,3.869,4.009,4.723,6.782c0.677,2.197,1.268,4.441,2.189,6.536
	c1.948,4.429,4.318,8.625,8.918,10.856c1.914,0.928,4.002,1.499,6.015,2.221c0.872,0.313,1.753,0.6,2.722,0.93
	c-0.017-0.248,0.047-0.511-0.056-0.659c-1.812-2.6-3.665-5.172-5.463-7.782c-0.739-1.074-1.574-1.888-2.826-2.444
	c-2.466-1.096-3.45-3.451-4.181-5.84c-0.361-1.18,0.688-2.188,2.013-1.935c1.159,0.222,2.285,0.689,3.38,1.156
	c3.742,1.596,7.458,3.25,11.195,4.858c1.319,0.567,2.681,1.033,3.998,1.605c1.998,0.868,3.05,2.743,4.464,4.245
	c2.24,2.379,4.565,4.68,6.886,6.981c0.323,0.32,0.833,0.452,1.344,0.716c0.767-0.806,1.518-1.595,2.54-2.668
	c0.929,1.347,1.888,2.418,2.488,3.662c2.726,5.648,7.291,9.621,11.959,13.549c8.204,6.904,16.845,13.181,26.087,18.625
	c1.03,0.607,1.981,1.349,3.024,1.93c1.625,0.904,2.044,0.852,3.356-0.458c2.149-2.147,4.228-4.366,6.376-6.514
	c4.01-4.009,7.914-8.136,12.109-11.941c4.747-4.306,9.014-9.03,13.261-13.802c2.651-2.979,5.463-5.829,8.35-8.583
	c4.049-3.861,8.349-7.419,13.064-10.479c7.392-4.797,15.281-8.242,24.073-9.45c3.949-0.543,7.876-1.255,11.831-1.75
	c3.245-0.406,6.512-0.652,9.776-0.878c2.373-0.164,2.631-0.113,2.959-2.513c0.354-2.586,0.307-5.229,0.38-7.85
	c0.036-1.275,0.041-2.564-0.106-3.829c-0.216-1.85,0.666-2.965,2.093-3.96c2.304-1.607,4.861-2.446,7.604-2.668
	c2.546-0.207,5.126-0.421,7.661-0.229c1.948,0.147,4.204,0.445,5.675,1.543c1.616,1.207,2.5,3.4,3.673,5.183
	c0.165,0.251,0.187,0.61,0.231,0.926c0.47,3.375,2.562,5.099,5.737,5.915c4.768,1.225,9.615,1.797,14.493,1.413
	c3.628-0.285,7.209-1.146,10.819-1.689c5.354-0.804,10.667-1.831,16.112-2.073c2.832-0.125,5.235,0.519,7.803,1.545
	c5.219,2.088,9.956,4.99,14.64,7.996c1.726,1.107,3.153,2.673,4.746,3.995c6.143,5.096,11.89,10.639,17.88,15.893
	c5.551,4.869,10.085,10.69,15.634,15.507c5.007,4.346,9.99,8.749,16.086,11.584c1.01,0.469,2.076,0.832,3.146,1.146
	c2.706,0.796,5.119,0.445,7.787-0.856c6.974-3.403,12.315-8.799,18.044-13.757c7.835-6.782,14.099-14.975,20.671-22.894
	c1.925-2.32,3.968-4.542,5.956-6.807c2.015,1.391,2.146,1.656,2.169,4.498c1.421-0.203,2.487-1.006,3.408-1.925
	c2.586-2.586,4.502-5.529,4.887-9.317c0.372-3.672,2.467-6.451,4.791-9.027c1.562,0.254,2.192,1.198,2.69,2.734
	c0.967-1.199,1.858-2.187,2.612-3.271c1.461-2.099,2.846-4.251,4.261-6.382c0.044-0.066,0.071-0.145,0.12-0.208
	c0.646-0.836,1.398-1.825,2.504-1.505c1.31,0.379,1.336,1.675,1.136,2.828c-0.37,2.123-0.804,4.234-1.22,6.349
	c-0.245,1.244-0.509,2.484-0.855,4.179c2.164-1.47,3.435-3.12,4.216-5.044c1.568-3.865,3.833-7.302,6.143-10.729
	c1.061-1.571,1.924-1.942,3.356-1.295c1.33,0.6,1.796,1.781,1.221,3.438c-0.549,1.58-1.226,3.114-1.821,4.677
	c-0.247,0.647-0.431,1.319-0.822,2.545c0.896-0.601,1.36-0.82,1.707-1.16c1.311-1.289,2.55-2.651,3.884-3.914
	c0.503-0.476,1.147-0.886,1.804-1.097c1.122-0.361,1.922,0.064,2.164,1.233c0.169,0.818,0.156,1.775-0.101,2.564
	c-0.982,3.024-2.095,6.007-3.229,9.197c1.395,0.222,2.497-0.601,3.684-1.087c1.171-0.48,2.361-0.915,3.516-1.434
	c2.021-0.91,3.514-0.292,4.724,1.613c-0.403,1.44-1.316,2.589-2.587,3.492c-2.911,2.069-5.761,4.233-8.749,6.185
	c-2.399,1.567-4.146,3.708-5.843,5.919c-0.873,1.138-1.602,2.387-2.403,3.58c-1.671,2.487-3.808,4.407-6.367,6.028
	c-4.243,2.686-8.274,5.706-12.428,8.537c-0.954,0.651-1.146,1.447-0.931,2.474c0.097,0.462,0.253,0.939,0.221,1.398
	c-0.188,2.618-1.069,4.437-3.899,5.562c-5.602,2.225-10.439,5.844-14.971,9.797c-9.332,8.142-18.525,16.443-27.939,24.487
	c-4.913,4.198-10.128,8.143-16.119,10.67c-5.618,2.37-11.101,2.096-16.231-1.93c-5.334-4.184-10.984-7.961-16.461-11.966
	c-6.271-4.585-13.065-8.318-19.729-12.268c-0.888-0.526-1.871-0.89-2.813-1.322c-5.875-2.697-11.75-5.393-17.625-8.087
	c-1.318-0.605-1.694-0.502-2.47,0.841c-2.041,3.542-3.689,7.256-4.728,11.219c-1.938,7.404-3.98,14.784-5.717,22.235
	c-0.919,3.943-1.28,8.016-1.9,12.028c-0.972,6.292-1.966,12.581-2.919,18.875c-0.933,6.149-1.902,12.294-2.709,18.46
	c-0.589,4.506-1.218,9.036-1.329,13.567c-0.17,6.869,0.229,13.737,1.398,20.538c0.201,1.168,0.342,2.417,0.144,3.565
	c-0.256,1.484,0.15,2.694,0.696,4.017c2.492,6.052,4.592,12.25,5.903,18.666c1.072,5.24,1.658,10.578,1.644,15.929
	c-0.023,8.145-0.332,16.288-0.419,24.433c-0.162,15.265-0.2,30.529-0.396,45.795c-0.08,6.312-0.405,12.62-0.663,18.93
	c-0.223,5.43-0.474,10.859-0.775,16.285c-0.219,3.907-0.646,7.805-0.792,11.714c-0.17,4.562-0.985,9.021-1.818,13.483
	c-1.341,7.189-1.559,14.419-1.286,21.729c0.274,7.342-0.137,14.707-0.008,22.059c0.164,9.382-1.112,18.653-1.783,27.972
	c-0.235,3.282-0.271,6.542,0.866,9.719c0.67,1.87,1.103,3.826,1.78,5.693c0.691,1.909-0.178,3.522-2.231,3.809
	c-0.472,0.065-0.961-0.001-1.438,0.044c-0.465,0.044-0.922,0.154-1.367,0.232c-0.504,1.282-0.223,2.264,0.411,3.41
	c1.228,2.223,2.468,4.521,3.132,6.945c0.598,2.182,0.74,4.604,0.487,6.854c-0.148,1.326-1.195,2.863-2.298,3.706
	c-2.199,1.685-4.651,3.083-7.131,4.342c-1.15,0.584-2.602,0.735-3.929,0.787c-3.242,0.127-6.508,0.292-9.735,0.053
	c-3.741-0.276-7.412-1.211-10.613-3.272c-2.698-1.739-4.289-4.448-5.215-7.445c-0.541-1.75,0.014-3.452,1.323-4.851
	c1.793-1.913,3.642-3.788,5.294-5.817c1.921-2.359,2.382-3.811,2.867-7.358c-3.388-0.871-5.042-3.518-6.344-6.364
	c0.972-1.073,1.825-2.115,2.781-3.053c1.492-1.463,2.402-3.18,2.531-5.268c0.369-5.977,0.857-11.949,0.997-17.932
	c0.051-2.177-0.655-4.396-1.176-6.558c-1.359-5.632-1.605-11.372-1.712-17.117c-0.145-7.756,0.166-15.504,1.437-23.163
	c0.519-3.126,1.537-6.174,2.41-9.232c0.694-2.436,0.911-4.89,0.276-7.328c-1.209-4.639-2.543-9.244-3.812-13.867
	c-0.146-0.534-0.226-1.089-0.304-1.639c-0.626-4.419-1.28-8.835-1.853-13.262c-0.409-3.163-0.635-6.352-1.071-9.51
	c-0.501-3.634-1.176-7.243-1.713-10.872c-0.244-1.65-0.286-3.331-0.511-4.984c-0.366-2.688-0.807-5.365-1.617-8.16
	c-0.515,1.331-1.082,2.645-1.536,3.996c-1.499,4.453-3.033,8.895-4.412,13.385c-1.826,5.945-3.427,11.961-5.297,17.893
	c-1.557,4.939-2.647,10.032-4.933,14.743c-0.758,1.562-1.149,3.324-1.546,5.032c-2.987,12.838-4.346,25.84-4.019,39.028
	c0.144,5.836,0.083,11.678,0.072,17.517c-0.004,1.972-0.2,3.876-0.733,5.853c-0.907,3.358-1.144,6.897-1.696,10.356
	c-0.591,3.7-1.156,7.407-1.85,11.09c-0.828,4.391-1.757,8.762-2.687,13.13c-1.343,6.313-2.823,12.6-4.056,18.934
	c-0.807,4.144-1.349,8.345-1.857,12.539c-0.137,1.128,0.302,2.32,0.446,3.489c0.163,1.325,0.406,2.658,0.375,3.982
	c-0.011,0.479-0.63,1.077-1.121,1.381c-0.733,0.453-1.597,0.694-2.543,1.082c-0.422,3.06-0.265,6.192,0.262,9.206
	c1.322,7.565-4.966,14.47-10.392,16.166c-1.688,0.527-3.608,0.697-5.373,0.526c-4.833-0.47-9.387,0.133-13.649,2.559
	c-5.056,2.878-10.154,5.686-15.187,8.603c-2.744,1.59-5.702,2.556-8.781,3.003c-1.69,0.246-3.489-0.032-5.211-0.273
	c-2.347-0.328-4.731-0.496-6.942-1.555c-1.134-0.542-2.022-1.244-2.67-2.292c-0.251-0.405-0.445-0.86-0.758-1.21
	c-2.176-2.432-1.808-4.995-0.258-7.485c0.557-0.894,1.476-1.717,2.421-2.185c3.349-1.655,6.77-3.17,10.185-4.688
	c2.546-1.131,4.371-3.17,6.358-4.982c2.808-2.562,5.531-5.22,8.223-7.903c2.528-2.522,4.958-5.103,6.635-8.355
	c1.339-2.598,3.253-4.895,4.64-7.471c0.927-1.723,1.639-3.655,1.989-5.577c0.798-4.387,1.434-8.812,1.913-13.246
	c0.522-4.83,0.792-9.688,1.172-14.533c0.766-9.776,1.583-19.547,3.161-29.236c0.614-3.772,1.091-7.566,1.624-11.353
	c0.833-5.919,1.602-11.848,2.504-17.755c0.783-5.12,1.574-10.245,2.607-15.316c1.906-9.357,1.033-18.792,0.834-28.185
	c-0.115-5.426-0.109-10.845-0.11-16.268c-0.001-6.852-0.126-13.7-0.101-20.551c0.016-4.307,0.208-8.61,0.32-12.916
	c0.048-1.836,0.063-3.673,0.145-5.507c0.17-3.826,0.291-7.658,0.589-11.478c0.284-3.638,0.795-7.257,1.152-10.89
	c0.265-2.698,0.388-5.411,0.666-8.107c0.628-6.091,1.006-12.197,2.209-18.24c0.946-4.747,1.188-9.637,1.686-14.469
	c0.292-2.837,0.611-5.683,0.668-8.529c0.106-5.319,0.03-10.641,0.03-16.209c-0.667-0.301-1.65-0.746-2.766-1.25
	c0.192-1.872,0.311-3.693,0.58-5.492c0.323-2.157,0.195-4.255-0.34-6.364c-0.213-0.842-0.225-1.742-0.274-2.618
	c-0.293-5.251-0.425-10.516-0.891-15.75c-0.594-6.668-1.404-13.318-2.219-19.964c-0.435-3.551-0.89-7.12-1.677-10.603
	c-0.7-3.093-1.877-6.078-2.832-9.114c-2.296-7.297-4.477-14.632-6.902-21.885c-3.439-10.284-6.171-20.766-9.041-31.21
	c-0.037-0.135-0.188-0.238-0.447-0.552c-0.387,0.301-0.909,0.525-1.146,0.92c-2.49,4.165-6.104,7.327-9.431,10.758
	c-5.834,6.019-12.324,11.364-17.871,17.684c-2.937,3.346-6.245,6.365-9.293,9.618c-3.542,3.78-7.007,7.633-10.461,11.493
	c-3.075,3.436-6.738,6.097-10.741,8.315c-1.113,0.617-2.309,0.513-3.456-0.031c-4.721-2.241-9.051-5.022-12.594-8.936
	c-3.149-3.479-6.423-6.847-9.502-10.385c-1.553-1.784-3.016-3.609-4.863-5.126c-3.937-3.234-7.685-6.705-11.707-9.826
	c-3.451-2.679-7.17-5.011-10.78-7.484c-0.687-0.471-1.719-0.695-1.172-1.914c0.893,0.458,1.816,0.88,2.683,1.396
	c0.747,0.445,1.394,1.059,2.146,1.491c5.912,3.399,11.228,7.628,16.22,12.205c4.21,3.86,8,8.179,11.969,12.302
	c2.817,2.927,5.535,5.956,8.459,8.771c2.491,2.398,5.485,4.084,8.74,5.319c2.06,0.781,3.855,0.539,5.628-0.749
	c4.027-2.927,7.512-6.419,10.723-10.192c2.583-3.034,5.06-6.159,7.618-9.214c1.281-1.53,2.575-3.058,3.975-4.476
	c2.007-2.034,4.164-3.919,6.171-5.953c4.091-4.146,8.124-8.348,12.184-12.525c5.448-5.604,11.114-11.012,15.421-17.624
	c0.649-0.997,1.39-2.149,2.941-2.289c0.396,1.39,0.205,2.574-0.379,3.78c-0.291,0.601-0.563,1.407-0.401,1.999
	c1.178,4.291,2.421,8.565,3.737,12.815c2.028,6.553,4.139,13.08,6.2,19.622c1.415,4.489,2.759,9.001,4.22,13.475
	c1.333,4.079,3.057,8.051,4.104,12.198c1.227,4.859,2.106,9.83,2.777,14.8c0.917,6.793,1.509,13.63,2.212,20.451
	c0.344,3.332,0.657,6.668,0.923,10.007c0.252,3.172,0.365,6.356,0.654,9.523c0.195,2.137,0.677,4.25,0.105,6.401
	c-0.162,0.61-0.063,1.298-0.271,1.884c-0.308,0.869,0.032,1.461,0.699,1.811c0.676,0.354,1.448,0.6,2.205,0.71
	c2.842,0.416,5.734,0.573,8.536,1.164c5.435,1.146,10.869,1.9,16.37,0.715c3.186-0.686,6.38-1.443,9.456-2.501
	c2.778-0.955,5.347-2.509,8.111-3.515c1.531-0.557,3.288-0.799,4.917-0.709c2.701,0.148,5.382,0.674,8.071,1.05
	c5.885,0.822,11.762,0.305,17.639-0.104c1.029-0.071,2.049-0.266,3.078-0.34c2.206-0.159,2.691-0.643,2.569-2.805
	c-0.049-0.875-0.229-1.743-0.335-2.617c-0.316-2.607-0.656-5.212-0.924-7.824c-0.147-1.427-0.189-2.866-0.242-4.302
	c-0.148-4.067-0.34-8.115,0.261-12.19c0.965-6.556,1.627-13.155,2.503-19.724c0.538-4.036,1.286-8.043,1.853-12.075
	c0.731-5.223,1.227-10.482,2.1-15.68c0.896-5.349,1.989-10.675,3.242-15.953c1.844-7.761,3.621-15.554,6.732-22.947
	c1.044-2.479,2.114-4.948,3.201-7.489c-0.35-0.252-0.731-0.523-1.108-0.803c-3.771-2.802-7.571-5.562-11.281-8.441
	c-0.87-0.675-2.041-1.34-1.986-2.879c1.021-0.62,1.913-0.594,2.775,0.29c0.557,0.57,1.115,1.159,1.761,1.616
	c6.055,4.298,12.066,8.676,18.845,11.811c3.109,1.438,6.28,2.75,9.444,4.066c2.203,0.917,4.502,1.623,6.653,2.645
	c3.097,1.471,6.174,3.015,9.118,4.764c3.078,1.828,6.367,3.555,8.862,6.033c2.293,2.277,5.038,3.82,7.394,5.918
	c1.189,1.061,2.555,1.987,3.524,3.221c2.479,3.154,6.044,4.94,9.007,7.474c0.236,0.201,0.557,0.316,0.851,0.436
	c4.521,1.836,8.931,1.35,13.154-0.86c6.625-3.465,12.433-8.095,17.999-13.027c5.978-5.294,11.788-10.778,17.858-15.959
	c7.03-6,14.047-12.069,22.618-15.902c0.179-0.08,0.28-0.333,0.632-0.772c-3.932-0.003-6.765-2.099-9.218-4.407
	c-4.25-3.998-6.939-8.901-6.718-15.019c0.053-1.469-0.075-2.944-0.119-4.417c-0.168-0.065-0.336-0.131-0.503-0.196
	c-0.649,0.651-1.354,1.256-1.938,1.961c-2.748,3.312-5.402,6.701-8.204,9.965c-3.01,3.507-5.954,7.106-9.275,10.303
	c-4.366,4.202-9.141,7.979-13.615,12.073c-3.851,3.52-8.482,5.602-13.191,7.539c-1.021,0.421-2.443,0.399-3.52,0.062
	c-3.349-1.05-6.6-2.322-9.565-4.327c-6.726-4.543-12.803-9.807-18.287-15.771c-1.994-2.169-3.779-4.561-5.948-6.534
	c-5.598-5.091-11.323-10.041-17.062-14.975c-2.965-2.55-6.009-5.018-9.114-7.395c-4.663-3.57-9.849-6.223-15.316-8.333
	c-2.131-0.823-4.353-1.121-6.598-0.793c-4.011,0.585-8.035,1.133-11.997,1.969c-8.099,1.708-15.996,4.126-23.696,7.181
	c-0.918,0.364-1.91,0.542-2.867,0.807c-0.123-0.279-0.246-0.558-0.369-0.837c1.689-1.32,3.972-1.587,5.867-2.518
	c2.06-1.012,4.239-1.778,6.891-2.867c-3.22-0.168-5.845-0.241-8.458-0.458c-3.424-0.285-6.875-0.56-9.722-2.857
	c-0.079-0.063-0.292,0.04-0.393,0.057c-0.641,1.22-1.077,2.57-1.925,3.571c-3.709,4.382-8.557,5.926-14.175,5.309
	c-2.838-0.312-5.674-0.65-8.516-0.935c-0.542-0.054-1.164-0.044-1.647,0.168c-3.075,1.349-6.4,1.472-9.624,1.659
	c-6.969,0.406-13.797,1.64-20.625,2.914c-4.163,0.777-8.242,1.941-12.005,3.935c-2.881,1.526-5.653,3.257-8.487,4.872
	c-5.261,2.997-9.548,7.238-13.932,11.283c-4.023,3.714-7.462,8.052-11.289,11.99c-4.055,4.173-8.286,8.176-12.397,12.296
	c-4.175,4.184-8.33,8.388-12.426,12.647c-1.604,1.667-3.008,3.523-4.542,5.259c-0.331,0.374-0.83,0.598-1.252,0.891
	c-0.225,0.068-0.45,0.137-0.675,0.206c1.003-2.021-0.356-2.436-1.317-3.042c-3.711-2.341-7.533-4.516-11.161-6.976
	c-3.692-2.503-7.254-5.206-10.782-7.938c-3.347-2.592-6.579-5.334-9.857-8.015c-3.481-2.848-6.726-5.88-8.468-10.192
	c-0.487-1.205-1.237-2.304-1.868-3.454c-0.368,0.215-0.568,0.263-0.622,0.378c-0.129,0.279-0.246,0.585-0.269,0.888
	c-0.251,3.373-0.904,6.615-2.603,9.615c-0.659,1.164-0.956,2.527-1.494,3.766c-1.528,3.517-3.02,7.058-6.507,9.208
	c-1.326,0.817-2.58,1.754-3.767,2.568c2.341,1.572,4.667,3.1,6.953,4.684C109.661,231.643,110.752,232.55,111.875,233.412z
	 M255.174,648.999c-0.555,0.402-1.193,0.728-1.649,1.222c-1.444,1.564-3.216,2.505-5.275,2.896
	c-1.594,0.304-3.208,0.505-4.904,0.767c4.323,1.516,9.585-0.727,11.772-4.938c0.861-0.309,1.253-0.921,0.999-1.925
	C255.803,647.68,255.489,648.339,255.174,648.999z M324.567,619.92c-0.71,0.287-1.398,0.718-2.137,0.835
	c-3.24,0.515-6.46-0.013-9.65-0.488c-2.028-0.304-4.005-0.159-6.004-0.1c4.343,2.316,12.315,2.694,18.407,1.015
	c-0.219-0.421-0.435-0.835-0.649-1.25c0.322-0.146,0.631-0.348,0.969-0.432c1.756-0.434,3.537-0.777,5.277-1.266
	c2.331-0.654,3.322-2.551,3.385-4.69c0.102-3.576-0.354-7.264-2.215-10.291c-1.298-2.112-1.897-4.481-3.203-6.478
	c-1.995-0.643-3.921-1.422-5.922-1.852c-1.362-0.292-2.881-0.343-4.238-0.061c-2.766,0.576-5.487,0.888-8.285,0.324
	c-0.674-0.137-1.397-0.021-2.223-0.021c-1.209,5.104-4.16,9.091-7.875,12.595c-0.46,0.436-0.853,0.955-1.208,1.482
	c-0.869,1.292-1.094,2.675-0.214,4.037c0.596,0.923,1.224,1.879,2.033,2.601c2.121,1.892,4.829,2.219,7.514,2.487
	c2.925,0.292,5.882,0.361,8.779,0.817C319.599,619.58,322.105,619.585,324.567,619.92z M296.435,398.79
	c1.281,1.198,1.854,2.376,1.886,3.777c0.052,2.315,0.174,4.643,0.03,6.948c-0.51,8.165,0.301,16.287,0.735,24.417
	c0.174,3.26,0.732,6.502,1.216,9.736c0.591,3.949,1.031,7.949,2.029,11.799c0.688,2.652,1.178,5.284,1.388,7.985
	c0.304,3.895,0.446,7.804,0.82,11.69c0.352,3.647,0.987,7.27,1.368,10.914c0.467,4.464,1.421,8.815,2.813,13.062
	c0.524,1.597,0.569,3.112,0.244,4.698c-0.928,4.521-2.034,9.017-2.729,13.572c-0.626,4.097-0.985,8.255-1.131,12.396
	c-0.167,4.756-0.172,9.538,0.133,14.285c0.245,3.805,0.875,7.612,1.682,11.344c0.53,2.449,0.819,4.84,0.65,7.324
	c-0.114,1.674-0.078,3.356-0.138,5.036c-0.104,3.033-0.119,6.077-0.377,9.1c-0.336,3.927-1.071,7.744-3.832,10.87
	c-0.984,1.113-0.817,2.473,0.428,3.341c1.082,0.754,2.348,1.38,3.623,1.69c3.506,0.854,6.962,0.626,10.273-0.975
	c1.271-0.611,2.612-0.666,3.932-0.097c1.319,0.568,2.636,1.147,3.938,1.752c2.708,1.255,5.475,1.523,8.675,0.517
	c-0.31-1.808-0.599-3.589-0.925-5.361c-0.202-1.097-0.506-2.174-0.688-3.272c-0.608-3.677-0.001-7.337,0.246-10.994
	c0.297-4.384,0.965-8.752,1.062-13.137c0.219-9.738,0.218-19.481,0.233-29.225c0.009-4.312-0.515-8.654-0.165-12.933
	c0.626-7.698,1.719-15.36,2.632-23.037c0.368-3.094,0.93-6.172,1.137-9.274c0.713-10.685,1.333-21.374,1.93-32.064
	c0.129-2.311,0.058-4.637-0.005-6.953c-0.114-4.301-0.392-8.601-0.415-12.9c-0.035-6.302,0.087-12.604,0.153-18.907
	c0.037-3.587,0.076-7.174,0.152-10.76c0.197-9.43,0.503-18.859,0.589-28.29c0.033-3.825-0.193-7.677-0.644-11.477
	c-0.818-6.929-3.082-13.534-5.05-20.19c-0.671-2.271-1.739-4.425-2.526-6.386c-4.097,0.262-7.896,0.554-11.701,0.736
	c-5.358,0.256-10.681,0.074-15.891-1.441c-3.807-1.107-7.262-0.326-10.357,2.159c-0.541,0.435-1.184,0.78-1.831,1.038
	c-1.778,0.707-3.572,1.375-5.379,2.004c-3.312,1.153-6.577,2.354-10.214,2.262c-2.766-0.07-5.544,0.373-8.318,0.567
	c-0.554,0.039-1.114-0.009-1.671-0.017c-3.81-0.058-7.385-1.162-10.93-2.421c-0.786-0.279-1.616-0.431-2.761-0.728
	c-0.085,3.226-0.37,6.089-0.197,8.924c0.473,7.767-0.519,15.444-1.174,23.142c-0.256,3.009-0.797,5.993-1.171,8.993
	c-0.419,3.361-0.746,6.735-1.205,10.09c-0.395,2.887,0.177,5.892-1.058,8.674c-0.24,7.408-1.569,14.729-1.662,22.159
	c-0.069,5.491-0.717,10.974-0.818,16.466c-0.131,7.09-0.079,14.188,0.092,21.276c0.149,6.194-0.744,12.397,0.296,18.593
	c0.42,2.499,0.417,5.068,0.589,7.607c0.031,0.463,0.018,0.938-0.046,1.396c-0.117,0.846-0.41,1.684-0.415,2.526
	c-0.029,4.624,0.094,9.251-0.022,13.872c-0.049,1.968-0.571,3.922-0.847,5.886c-0.606,4.321-1.125,8.655-1.801,12.965
	c-1.013,6.448-2.128,12.88-3.208,19.317c-0.223,1.325-0.527,2.64-0.716,3.97c-0.47,3.304-0.881,6.615-1.343,9.92
	c-0.418,2.996-0.968,5.977-1.292,8.981c-0.513,4.755-0.866,9.526-1.324,14.288c-0.259,2.696-0.641,5.382-0.877,8.078
	c-0.339,3.876-0.503,7.77-0.916,11.637c-0.406,3.806-0.954,7.594-0.73,11.437c0.189,3.253-1.099,6.076-2.668,8.776
	c-1.074,1.847-2.388,3.552-3.512,5.371c-0.782,1.266-0.659,1.914,0.805,2.333c2.892,0.827,5.861,1.389,8.811,2.004
	c0.438,0.091,0.937-0.149,1.412-0.197c3.159-0.315,5.972-1.668,8.818-2.923c2.201-0.97,4.431-1.782,6.901-1.723
	c2.283,0.055,4.569,0.011,6.741,0.011c0.52-1.671,0.453-1.64-0.059-2.704c-0.328-0.682-0.659-1.502-0.579-2.214
	c0.194-1.729,0.65-3.427,0.961-5.144c0.783-4.318,1.517-8.646,2.321-12.962c0.73-3.917,1.472-7.833,2.31-11.728
	c1.223-5.689,2.675-11.332,3.77-17.045c0.959-5.004,1.58-10.073,2.314-15.119c0.425-2.919,1.069-5.844,1.104-8.772
	c0.071-5.904-0.219-11.814-0.331-17.724c-0.032-1.674,0.135-3.354,0.046-5.022c-0.476-8.953,0.02-17.874,1.505-26.688
	c1.099-6.523,2.894-12.916,5.068-19.19c0.83-2.396,1.303-4.919,1.904-7.392c0.657-2.704,1.182-5.443,1.931-8.121
	c1.03-3.682,2.353-7.284,3.308-10.983c1.936-7.493,3.983-14.942,6.655-22.221c1.542-4.199,2.661-8.571,2.896-13.046
	c0.25-4.775,0.062-9.572,0.118-14.359c0.022-1.909,0.144-3.821,0.304-5.727C295.815,400.1,296.15,399.561,296.435,398.79z
	 M224.354,630.747c-1.251,1.477-2.527,2.979-3.801,4.485c-0.924,1.091-1.77,2.262-2.782,3.264c-3.155,3.122-6.352,6.203-9.578,9.252
	c-1.372,1.297-2.497,2.846-4.414,3.571c-2.81,1.063-5.537,2.354-8.274,3.604c-1.008,0.46-1.996,1.004-2.904,1.637
	c-2.225,1.553-2.355,3.854-0.264,5.594c2.019,1.68,4.413,2.998,7.014,2.81c4.251-0.307,8.507-0.188,12.761-1.419
	c3.801-1.1,7.319-2.574,10.726-4.45c2.78-1.529,5.459-3.247,8.261-4.733c1.083-0.576,2.363-0.959,3.585-1.066
	c4.583-0.402,9.132-0.957,13.646-1.895c3.464-0.721,7.145-4.896,7.936-8.139c1.109-4.543,0.5-8.965,0.247-13.438
	c-3.137-0.263-6.093-0.143-9.048,0.849c-3.158,1.06-6.399,1.935-9.665,2.588C233.117,634.198,228.636,633.466,224.354,630.747z
	 M511.562,148.431c-1.611-0.225-2.353,0.339-2.91,1.162c-0.808,1.188-1.646,2.367-2.305,3.637c-1.28,2.476-2.099,5.274-3.741,7.462
	c-2.289,3.046-4.729,5.976-6.812,9.181c-0.385,0.593-0.914,1.153-1.505,1.527c-0.366,0.232-0.973,0.084-1.472,0.106
	c0.047-0.44-0.059-0.996,0.172-1.297c0.523-0.688,1.201-1.264,1.836-1.865c0.896-0.848,1.567-1.833,1.639-3.087
	c0.153-2.745,0.837-5.343,1.852-7.894c0.558-1.403,0.886-2.903,1.223-4.381c0.086-0.376-0.069-1.059-0.329-1.197
	c-0.304-0.161-1.038-0.032-1.244,0.235c-0.826,1.069-1.549,2.223-2.256,3.377c-1.042,1.701-2.003,3.451-3.062,5.139
	c-0.889,1.414-1.939,2.728-2.794,4.16c-2.9,4.866-5.703,9.802-10.562,13.079c-1.946,1.312-3.695,2.987-6.154,3.373
	c-0.082,0.237-0.19,0.455-0.23,0.686c-1.328,7.617,3.462,14.769,9.935,18.021c0.839,0.421,1.392,0.153,2.073-0.526
	c1.576-1.569,3.216-3.113,5.017-4.409c3.687-2.654,7.381-5.33,11.288-7.632c3.214-1.894,5.613-4.409,7.555-7.489
	c0.341-0.542,0.653-1.11,1.064-1.594c1.737-2.044,2.95-4.537,5.331-6.036c2.292-1.444,4.535-2.97,6.77-4.507
	c1.755-1.208,3.693-2.224,4.824-4.143c-1.184-1.448-1.631-1.536-3.181-0.649c-1.244,0.712-2.447,1.507-3.732,2.137
	c-1.284,0.631-2.667,1.061-3.973,1.656c-1.209,0.552-2.302,1.083-2.847,2.611c-0.452,1.27-1.644,2.3-2.595,3.358
	c-0.537,0.599-1.264,0.858-2.211,0.091c2.235-1.132,3.551-2.773,3.858-5.179c0.073-0.574,0.596-1.092,0.919-1.631
	c0.896-1.493,1.863-2.948,2.674-4.486c0.963-1.829,1.853-3.703,2.649-5.608c0.326-0.778,0.483-1.699,0.438-2.54
	c-0.054-1.025-0.851-1.347-1.7-0.801c-0.396,0.255-0.725,0.624-1.062,0.962c-1.576,1.577-3.168,3.138-4.7,4.756
	c-0.533,0.562-1.229,1.238-1.303,1.921c-0.327,2.996-1.575,5.463-3.684,7.572c-1.806,1.806-3.549,3.675-5.325,5.51
	c-0.662,0.685-1.297,0.739-1.88-0.006c1.729-1.8,3.304-3.584,5.031-5.204c2.39-2.238,3.574-4.967,4.083-8.16
	c0.489-3.062,1.041-6.138,2.855-8.821C511.5,150.384,511.397,149.408,511.562,148.431z M113.932,201.786
	c-3.943-1.836-6.592-5.009-9.012-8.234c-2.134-2.842-4.757-4.557-7.982-5.746c-4.174-1.538-8.512-2.706-12.314-5.157
	c-0.524-0.337-1.229-0.394-1.999-0.625c0.342,2.649,0.975,3.59,3.166,5.12c0.843,0.588,1.841,1.084,2.436,1.873
	c2.248,2.984,4.376,6.059,6.511,9.126c0.673,0.968,1.154,2.031,0.571,3.431c-3.547-1.276-7.03-2.391-10.392-3.795
	c-1.738-0.726-3.519-1.709-4.828-3.026c-2.893-2.911-4.938-6.449-5.991-10.448c-0.825-3.132-1.548-6.283-3.717-8.825
	c-1.048-1.228-2.181-2.384-3.345-3.649c-1.152,1.292-1.087,2.394-0.693,3.602c0.838,2.57,1.942,5.109,2.341,7.751
	c0.635,4.201,1.778,8.222,3.192,12.194c0.417,1.173,0.439,1.165-0.04,2.923c-1.083-3.247-2.098-6.145-3.013-9.073
	c-0.73-2.338-1.137-4.808-3.562-6.19c-0.519-0.296-0.812-0.973-1.246-1.439c-0.87-0.934-1.715-1.901-2.672-2.74
	c-0.473-0.416-1.078-1.033-1.897-0.423c0.031,0.254-0.009,0.522,0.096,0.709c1.807,3.19,3.636,6.368,5.448,9.556
	c0.233,0.41,0.446,0.844,0.585,1.292c1.42,4.564,2.946,9.101,4.173,13.716c0.519,1.95,1.697,2.999,3.299,3.798
	c2.356,1.175,4.791,2.197,7.117,3.426c7.741,4.088,16.147,6.394,24.525,9.42C109.467,215.035,112.77,209.084,113.932,201.786z
	 M267.196,168.877c0.415,0.163,0.773,0.335,1.149,0.445c4.126,1.203,8.381,1.116,12.606,1.104c1.641-0.004,3.426-0.218,4.893-0.887
	c4.464-2.036,6.331-6.288,5.155-11.051c-0.115-0.466-0.175-0.959-0.373-1.388c-0.831-1.808-1.566-3.87-3.472-4.677
	c-1.715-0.726-3.686-1.007-5.568-1.139c-2.061-0.144-4.156,0.037-6.225,0.209c-2.244,0.187-4.41,0.705-6.352,1.958
	c-2.354,1.518-2.698,2.24-2.084,4.966c0.513,2.275,0.737,4.535,0.306,6.872C267.021,166.435,267.196,167.652,267.196,168.877z
	 M215.573,664.208c-2.134,0.566-4.286,1.078-6.399,1.713c-3.587,1.077-7.25,0.664-10.893,0.664c-0.285,0-0.559-0.284-0.856-0.378
	c-1.476-0.462-2.958-0.905-4.863-1.484c1.415,2.145,3.227,2.791,5.078,2.999c2.919,0.328,5.88,0.555,8.81,0.441
	C209.837,668.033,212.93,666.773,215.573,664.208z M487.249,161.258c-2.312,1.655-4.194,6.656-4.286,11.293
	c0.341-0.32,0.691-0.543,0.899-0.861c1.304-1.98,2.677-3.926,3.821-5.996C488.499,164.224,488.1,162.693,487.249,161.258z
	 M228.926,657.178c-2.471,0.634-4.266,2.436-6.34,3.754C225.099,660.369,226.901,658.581,228.926,657.178z"/>
<path fill="#D91F5D" d="M111.875,233.412c-1.124-0.861-2.214-1.769-3.377-2.575c-2.286-1.584-4.611-3.111-6.953-4.684
	c1.187-0.814,2.44-1.75,3.767-2.568c3.487-2.15,4.979-5.691,6.507-9.208c0.539-1.239,0.835-2.603,1.494-3.766
	c1.699-3,2.352-6.242,2.603-9.615c0.023-0.303,0.14-0.609,0.269-0.888c0.053-0.115,0.254-0.163,0.622-0.378
	c0.631,1.15,1.381,2.249,1.868,3.454c1.742,4.312,4.986,7.344,8.468,10.192c3.278,2.681,6.51,5.423,9.857,8.015
	c3.528,2.732,7.09,5.435,10.782,7.938c3.628,2.46,7.45,4.635,11.161,6.976c0.961,0.606,2.321,1.021,1.317,3.042
	c0.225-0.069,0.45-0.137,0.675-0.206c0.422-0.293,0.921-0.518,1.252-0.891c1.534-1.735,2.939-3.592,4.542-5.259
	c4.097-4.259,8.251-8.463,12.426-12.647c4.111-4.12,8.342-8.123,12.397-12.296c3.826-3.938,7.265-8.276,11.289-11.99
	c4.383-4.045,8.671-8.286,13.932-11.283c2.834-1.615,5.606-3.345,8.487-4.872c3.764-1.994,7.842-3.158,12.005-3.935
	c6.828-1.274,13.656-2.508,20.625-2.914c3.223-0.188,6.549-0.311,9.624-1.659c0.483-0.212,1.105-0.222,1.647-0.168
	c2.841,0.284,5.677,0.623,8.516,0.935c5.619,0.617,10.466-0.927,14.175-5.309c0.848-1.001,1.284-2.351,1.925-3.571
	c0.102-0.017,0.314-0.12,0.393-0.057c2.847,2.297,6.297,2.572,9.722,2.857c2.613,0.217,5.238,0.29,8.458,0.458
	c-2.65,1.089-4.831,1.855-6.891,2.867c-1.896,0.931-4.178,1.198-5.867,2.518c0.123,0.279,0.246,0.558,0.369,0.837
	c0.958-0.265,1.949-0.443,2.867-0.807c7.7-3.054,15.598-5.472,23.696-7.181c3.962-0.836,7.986-1.384,11.997-1.969
	c2.245-0.328,4.467-0.03,6.598,0.793c5.469,2.111,10.654,4.763,15.316,8.333c3.105,2.377,6.149,4.845,9.114,7.395
	c5.737,4.934,11.464,9.884,17.062,14.975c2.169,1.973,3.955,4.364,5.948,6.534c5.484,5.964,11.562,11.228,18.287,15.771
	c2.968,2.005,6.218,3.277,9.565,4.327c1.075,0.337,2.497,0.359,3.52-0.062c4.709-1.937,9.343-4.019,13.191-7.539
	c4.476-4.093,9.249-7.871,13.615-12.073c3.321-3.197,6.267-6.796,9.275-10.303c2.803-3.264,5.456-6.654,8.204-9.965
	c0.584-0.705,1.288-1.31,1.938-1.961c0.167,0.065,0.335,0.131,0.503,0.196c0.044,1.472,0.172,2.948,0.119,4.417
	c-0.223,6.117,2.468,11.021,6.718,15.019c2.453,2.308,5.286,4.403,9.218,4.407c-0.352,0.439-0.453,0.692-0.632,0.772
	c-8.571,3.833-15.588,9.903-22.618,15.902c-6.07,5.181-11.882,10.666-17.858,15.959c-5.566,4.932-11.374,9.562-17.999,13.027
	c-4.225,2.21-8.633,2.696-13.154,0.86c-0.294-0.12-0.613-0.234-0.851-0.436c-2.963-2.533-6.527-4.319-9.007-7.474
	c-0.971-1.234-2.335-2.16-3.524-3.221c-2.354-2.098-5.101-3.641-7.394-5.918c-2.495-2.478-5.784-4.205-8.862-6.033
	c-2.944-1.75-6.021-3.293-9.118-4.764c-2.151-1.021-4.45-1.728-6.653-2.645c-3.164-1.317-6.335-2.628-9.444-4.066
	c-6.777-3.134-12.79-7.513-18.845-11.812c-0.645-0.458-1.204-1.046-1.761-1.616c-0.862-0.883-1.754-0.91-2.775-0.29
	c-0.055,1.539,1.116,2.204,1.986,2.879c3.71,2.879,7.512,5.639,11.281,8.441c0.377,0.28,0.76,0.55,1.108,0.803
	c-1.087,2.541-2.157,5.009-3.201,7.489c-3.111,7.393-4.89,15.186-6.732,22.947c-1.253,5.277-2.346,10.604-3.242,15.953
	c-0.873,5.198-1.367,10.458-2.1,15.68c-0.565,4.032-1.313,8.04-1.853,12.075c-0.876,6.569-1.538,13.168-2.503,19.724
	c-0.601,4.075-0.409,8.123-0.261,12.19c0.053,1.436,0.095,2.875,0.242,4.302c0.268,2.612,0.606,5.217,0.924,7.824
	c0.104,0.874,0.286,1.741,0.335,2.617c0.122,2.162-0.363,2.646-2.569,2.805c-1.028,0.074-2.049,0.269-3.078,0.34
	c-5.877,0.409-11.754,0.926-17.639,0.104c-2.689-0.375-5.37-0.901-8.071-1.05c-1.629-0.089-3.386,0.153-4.917,0.709
	c-2.764,1.006-5.333,2.56-8.111,3.515c-3.076,1.058-6.27,1.815-9.456,2.501c-5.5,1.185-10.935,0.43-16.37-0.715
	c-2.802-0.591-5.694-0.749-8.536-1.164c-0.757-0.11-1.529-0.356-2.205-0.71c-0.667-0.349-1.007-0.941-0.699-1.811
	c0.208-0.586,0.109-1.274,0.271-1.884c0.572-2.152,0.09-4.264-0.105-6.401c-0.289-3.167-0.401-6.352-0.654-9.523
	c-0.266-3.339-0.58-6.675-0.923-10.007c-0.703-6.821-1.295-13.658-2.212-20.451c-0.671-4.971-1.55-9.941-2.777-14.8
	c-1.047-4.147-2.771-8.119-4.104-12.198c-1.461-4.474-2.806-8.986-4.22-13.475c-2.062-6.542-4.172-13.069-6.2-19.622
	c-1.316-4.25-2.559-8.525-3.737-12.815c-0.162-0.592,0.11-1.398,0.401-1.999c0.583-1.207,0.775-2.39,0.379-3.78
	c-1.551,0.14-2.292,1.292-2.941,2.289c-4.307,6.612-9.973,12.02-15.421,17.624c-4.06,4.177-8.093,8.38-12.184,12.525
	c-2.007,2.034-4.165,3.919-6.171,5.953c-1.4,1.418-2.694,2.946-3.975,4.476c-2.558,3.056-5.035,6.18-7.618,9.214
	c-3.211,3.772-6.696,7.265-10.723,10.192c-1.772,1.288-3.568,1.53-5.628,0.749c-3.255-1.234-6.249-2.921-8.74-5.319
	c-2.924-2.815-5.642-5.844-8.459-8.771c-3.969-4.123-7.758-8.442-11.969-12.302c-4.992-4.576-10.308-8.806-16.22-12.205
	c-0.752-0.432-1.4-1.046-2.146-1.491c-0.867-0.516-1.79-0.938-2.683-1.396C111.798,233.352,111.875,233.412,111.875,233.412z
	 M295.91,310.736c0.152-1.752,0.341-3.167,0.383-4.586c0.107-3.583-0.054-7.185,0.26-10.747c0.543-6.161,0.314-12.26-0.57-18.368
	c-0.467-3.224-0.731-6.478-1.054-9.722c-0.308-3.092-0.525-6.193-0.87-9.281c-0.3-2.688-0.712-5.364-1.092-8.042
	c-0.593-4.173-0.854-8.432-1.881-12.497c-1.735-6.868-3.957-13.613-5.98-20.408c-0.067-0.227-0.144-0.523-0.315-0.632
	c-0.354-0.226-0.773-0.348-1.166-0.513c-0.148,0.392-0.51,0.848-0.414,1.166c1.506,4.947,3.086,9.871,4.618,14.811
	c0.636,2.052,1.441,4.09,1.752,6.197c1.118,7.569,2.142,15.154,3.041,22.752c0.74,6.26,1.303,12.542,1.844,18.823
	c0.3,3.489,0.582,6.997,0.54,10.493c-0.07,5.822-0.419,11.641-0.622,17.462C294.346,308.719,294.205,309.9,295.91,310.736z
	 M244.342,213.508c-1.182,0.777-1.177,1.478-0.331,2.216c0.657,0.574,1.463,1.009,2.017,1.664
	c6.66,7.877,12.657,16.142,16.083,26.054c2.081,6.018,4.632,11.871,6.857,17.841c0.858,2.304,1.333,4.748,2.107,7.086
	c0.391,1.18,0.685,2.543,2.2,3.165c0-0.412,0.053-0.662-0.008-0.88c-0.858-3.062-1.658-6.144-2.623-9.171
	c-1.014-3.179-2.15-6.321-3.308-9.451c-0.882-2.385-1.928-4.709-2.818-7.092c-1.731-4.631-3.286-9.353-6.077-13.487
	c-2.985-4.422-6.027-8.815-9.237-13.075C247.843,216.568,245.988,215.129,244.342,213.508z M305.973,266.78
	c1.773-0.098,1.849-1.07,1.987-2.038c0.453-3.16,0.784-6.347,1.438-9.465c0.801-3.817,1.764-7.611,2.871-11.351
	c1.199-4.044,2.715-7.994,3.973-12.022c1.723-5.518,4.166-10.671,7.429-15.44c0.587-0.856,1.14-1.735,1.709-2.604
	c-1.527,0.021-2.312,0.805-3,1.799c-2.415,3.486-4.532,7.131-6.162,11.055c-3.123,7.52-5.864,15.172-7.569,23.143
	c-0.9,4.206-1.439,8.49-2.121,12.742C306.316,263.913,306.175,265.238,305.973,266.78z M271.888,175.547
	c0.021-0.22,0.041-0.441,0.062-0.661c-0.562-0.083-1.134-0.282-1.682-0.229c-1.582,0.151-3.149,0.445-4.729,0.604
	c-2.221,0.223-4.449,0.376-6.674,0.559c-3.485,0.287-6.97,0.573-10.454,0.858c-3.722,0.306-7.445,0.595-11.163,0.944
	c-0.283,0.027-0.725,0.461-0.733,0.718c-0.009,0.273,0.397,0.788,0.644,0.802c1.024,0.059,2.07,0.056,3.084-0.089
	c1.497-0.214,2.962-0.712,4.461-0.836c5.154-0.428,10.315-0.796,15.479-1.089C264.135,176.903,268.033,176.392,271.888,175.547z"/>
<path fill="#EE2E7C" d="M296.435,398.79c-0.285,0.771-0.62,1.31-0.667,1.872c-0.161,1.904-0.282,3.816-0.304,5.727
	c-0.056,4.787,0.132,9.584-0.118,14.359c-0.234,4.475-1.354,8.847-2.896,13.046c-2.672,7.277-4.719,14.728-6.655,22.221
	c-0.955,3.699-2.278,7.303-3.308,10.983c-0.749,2.678-1.273,5.417-1.931,8.121c-0.601,2.473-1.074,4.995-1.904,7.392
	c-2.175,6.274-3.969,12.667-5.068,19.19c-1.485,8.814-1.98,17.734-1.505,26.688c0.089,1.668-0.078,3.35-0.046,5.022
	c0.112,5.908,0.402,11.818,0.331,17.724c-0.036,2.93-0.68,5.854-1.104,8.772c-0.735,5.046-1.355,10.115-2.314,15.119
	c-1.095,5.713-2.546,11.354-3.77,17.045c-0.837,3.895-1.579,7.811-2.31,11.728c-0.804,4.314-1.538,8.644-2.321,12.962
	c-0.311,1.717-0.767,3.414-0.961,5.144c-0.08,0.712,0.251,1.531,0.579,2.214c0.512,1.064,0.579,1.033,0.059,2.704
	c-2.172,0-4.458,0.044-6.741-0.012c-2.471-0.06-4.701,0.753-6.901,1.724c-2.847,1.255-5.659,2.606-8.818,2.923
	c-0.475,0.048-0.974,0.288-1.412,0.197c-2.95-0.615-5.919-1.178-8.811-2.004c-1.464-0.419-1.587-1.067-0.805-2.333
	c1.124-1.819,2.438-3.524,3.512-5.371c1.569-2.7,2.857-5.523,2.668-8.776c-0.224-3.843,0.324-7.631,0.73-11.437
	c0.413-3.867,0.576-7.761,0.916-11.637c0.236-2.696,0.619-5.382,0.877-8.078c0.458-4.762,0.811-9.533,1.324-14.289
	c0.324-3.005,0.873-5.984,1.292-8.98c0.462-3.305,0.873-6.616,1.343-9.92c0.189-1.33,0.494-2.645,0.716-3.97
	c1.08-6.438,2.195-12.869,3.208-19.317c0.677-4.31,1.195-8.644,1.801-12.965c0.276-1.964,0.798-3.918,0.847-5.886
	c0.116-4.621-0.007-9.248,0.022-13.872c0.005-0.844,0.298-1.682,0.415-2.526c0.064-0.459,0.078-0.934,0.046-1.396
	c-0.172-2.539-0.169-5.108-0.589-7.607c-1.04-6.194-0.147-12.397-0.296-18.593c-0.171-7.09-0.223-14.188-0.092-21.276
	c0.101-5.492,0.749-10.975,0.818-16.466c0.093-7.431,1.422-14.751,1.662-22.159c1.235-2.782,0.663-5.787,1.058-8.674
	c0.459-3.355,0.786-6.729,1.205-10.09c0.374-3,0.916-5.984,1.171-8.993c0.655-7.698,1.647-15.375,1.174-23.142
	c-0.172-2.835,0.112-5.698,0.197-8.924c1.145,0.297,1.976,0.449,2.761,0.728c3.545,1.259,7.121,2.363,10.93,2.421
	c0.557,0.008,1.117,0.056,1.671,0.017c2.774-0.195,5.552-0.637,8.318-0.567c3.637,0.092,6.902-1.109,10.214-2.262
	c1.807-0.629,3.601-1.297,5.379-2.004c0.647-0.257,1.29-0.603,1.831-1.038c3.095-2.485,6.55-3.266,10.357-2.159
	c5.21,1.515,10.531,1.697,15.891,1.441c3.806-0.182,7.604-0.474,11.701-0.736c0.787,1.961,1.855,4.115,2.526,6.386
	c1.968,6.657,4.23,13.261,5.05,20.19c0.449,3.8,0.678,7.652,0.644,11.477c-0.086,9.431-0.392,18.86-0.589,28.29
	c-0.076,3.586-0.115,7.173-0.152,10.76c-0.066,6.303-0.188,12.605-0.153,18.907c0.023,4.301,0.301,8.601,0.415,12.9
	c0.062,2.316,0.134,4.644,0.005,6.953c-0.597,10.69-1.217,21.381-1.93,32.064c-0.207,3.104-0.769,6.182-1.137,9.274
	c-0.913,7.677-2.006,15.339-2.632,23.037c-0.35,4.277,0.174,8.619,0.166,12.933c-0.018,9.741-0.017,19.485-0.234,29.225
	c-0.098,4.385-0.766,8.753-1.062,13.137c-0.247,3.657-0.854,7.317-0.245,10.994c0.183,1.1,0.485,2.177,0.688,3.272
	c0.326,1.772,0.615,3.555,0.925,5.361c-3.2,1.008-5.967,0.738-8.675-0.517c-1.304-0.604-2.619-1.184-3.938-1.752
	c-1.319-0.569-2.662-0.516-3.933,0.097c-3.312,1.601-6.769,1.828-10.272,0.975c-1.275-0.312-2.542-0.938-3.624-1.69
	c-1.245-0.868-1.412-2.228-0.428-3.341c2.761-3.126,3.495-6.943,3.832-10.87c0.259-3.022,0.271-6.065,0.377-9.1
	c0.06-1.68,0.022-3.362,0.138-5.036c0.169-2.484-0.12-4.875-0.65-7.324c-0.808-3.73-1.438-7.539-1.682-11.344
	c-0.305-4.747-0.301-9.529-0.133-14.285c0.146-4.143,0.504-8.301,1.131-12.396c0.696-4.557,1.803-9.051,2.729-13.572
	c0.325-1.586,0.28-3.103-0.244-4.698c-1.393-4.246-2.347-8.599-2.813-13.062c-0.381-3.646-1.017-7.267-1.368-10.913
	c-0.375-3.889-0.517-7.798-0.82-11.691c-0.21-2.701-0.701-5.333-1.388-7.985c-0.999-3.85-1.438-7.85-2.029-11.799
	c-0.484-3.234-1.042-6.478-1.216-9.736c-0.434-8.13-1.245-16.252-0.735-24.417c0.144-2.307,0.022-4.633-0.03-6.948
	C298.289,401.166,297.716,399.988,296.435,398.79z"/>
<path fill="#BE202E" d="M224.354,630.747c4.283,2.719,8.763,3.451,13.446,2.513c3.265-0.653,6.507-1.528,9.665-2.588
	c2.955-0.99,5.911-1.109,9.048-0.849c0.253,4.473,0.862,8.895-0.247,13.438c-0.791,3.243-4.472,7.418-7.936,8.139
	c-4.513,0.938-9.062,1.491-13.646,1.895c-1.223,0.107-2.502,0.49-3.585,1.066c-2.802,1.486-5.481,3.204-8.261,4.733
	c-3.407,1.876-6.925,3.352-10.726,4.45c-4.254,1.23-8.509,1.112-12.761,1.419c-2.601,0.188-4.995-1.13-7.014-2.81
	c-2.091-1.739-1.961-4.041,0.264-5.594c0.908-0.633,1.896-1.177,2.904-1.637c2.737-1.249,5.464-2.54,8.274-3.604
	c1.917-0.727,3.042-2.274,4.414-3.571c3.226-3.049,6.422-6.13,9.578-9.252c1.013-1.002,1.858-2.173,2.782-3.264
	C221.827,633.727,223.102,632.224,224.354,630.747z"/>
<path fill="#FEE5D2" d="M511.562,148.431c-0.165,0.977-0.062,1.953-0.483,2.575c-1.814,2.683-2.366,5.759-2.855,8.821
	c-0.509,3.193-1.693,5.922-4.083,8.16c-1.729,1.62-3.303,3.404-5.031,5.204c0.583,0.745,1.218,0.69,1.88,0.006
	c1.776-1.834,3.521-3.704,5.325-5.51c2.107-2.109,3.355-4.576,3.684-7.572c0.074-0.684,0.77-1.359,1.303-1.921
	c1.532-1.618,3.124-3.179,4.7-4.756c0.338-0.338,0.666-0.707,1.062-0.962c0.851-0.546,1.646-0.225,1.7,0.801
	c0.045,0.841-0.112,1.762-0.438,2.54c-0.798,1.906-1.688,3.78-2.649,5.608c-0.811,1.538-1.778,2.993-2.674,4.486
	c-0.323,0.54-0.846,1.058-0.919,1.631c-0.309,2.406-1.623,4.046-3.858,5.179c0.947,0.767,1.673,0.508,2.211-0.091
	c0.951-1.058,2.143-2.088,2.595-3.358c0.545-1.528,1.638-2.059,2.847-2.611c1.306-0.595,2.688-1.025,3.973-1.656
	c1.285-0.63,2.488-1.424,3.732-2.137c1.55-0.886,1.997-0.798,3.181,0.649c-1.131,1.919-3.069,2.935-4.824,4.143
	c-2.233,1.537-4.478,3.062-6.77,4.507c-2.381,1.5-3.594,3.992-5.331,6.036c-0.411,0.484-0.725,1.053-1.064,1.594
	c-1.94,3.08-4.341,5.595-7.555,7.489c-3.907,2.302-7.603,4.978-11.288,7.632c-1.801,1.296-3.439,2.84-5.017,4.409
	c-0.683,0.679-1.234,0.947-2.073,0.526c-6.473-3.252-11.263-10.404-9.935-18.021c0.04-0.23,0.148-0.449,0.23-0.686
	c2.459-0.385,4.208-2.061,6.154-3.373c4.859-3.276,7.662-8.213,10.563-13.079c0.854-1.433,1.904-2.746,2.793-4.16
	c1.061-1.688,2.021-3.438,3.062-5.139c0.707-1.155,1.43-2.309,2.256-3.377c0.206-0.267,0.94-0.396,1.244-0.235
	c0.26,0.138,0.415,0.821,0.329,1.197c-0.337,1.478-0.665,2.978-1.223,4.381c-1.015,2.55-1.697,5.148-1.852,7.894
	c-0.07,1.255-0.742,2.239-1.639,3.087c-0.635,0.601-1.312,1.177-1.836,1.865c-0.229,0.301-0.125,0.857-0.172,1.297
	c0.499-0.022,1.104,0.126,1.472-0.106c0.591-0.374,1.12-0.934,1.505-1.527c2.082-3.206,4.522-6.135,6.812-9.181
	c1.644-2.188,2.461-4.986,3.741-7.462c0.657-1.27,1.497-2.45,2.305-3.637C509.211,148.771,509.951,148.206,511.562,148.431z"/>
<path fill="#FEE5D2" d="M113.932,201.786c-1.163,7.298-4.465,13.249-9.241,18.567c-8.378-3.026-16.784-5.332-24.525-9.42
	c-2.326-1.229-4.76-2.251-7.117-3.426c-1.603-0.799-2.78-1.848-3.299-3.798c-1.228-4.615-2.753-9.152-4.173-13.716
	c-0.14-0.448-0.352-0.882-0.585-1.292c-1.812-3.188-3.641-6.366-5.448-9.556c-0.105-0.187-0.065-0.455-0.096-0.709
	c0.819-0.609,1.424,0.008,1.897,0.423c0.957,0.839,1.802,1.806,2.672,2.74c0.434,0.466,0.727,1.143,1.246,1.439
	c2.426,1.383,2.832,3.853,3.562,6.19c0.915,2.928,1.93,5.826,3.013,9.073c0.479-1.759,0.457-1.75,0.04-2.923
	c-1.415-3.972-2.558-7.993-3.192-12.194c-0.399-2.642-1.503-5.182-2.341-7.751c-0.394-1.208-0.459-2.309,0.693-3.602
	c1.164,1.265,2.296,2.421,3.345,3.649c2.169,2.542,2.892,5.692,3.717,8.825c1.053,3.999,3.098,7.537,5.991,10.448
	c1.309,1.317,3.09,2.301,4.828,3.026c3.362,1.405,6.845,2.519,10.392,3.795c0.583-1.4,0.102-2.463-0.571-3.431
	c-2.135-3.067-4.263-6.142-6.511-9.126c-0.594-0.789-1.593-1.285-2.436-1.873c-2.191-1.53-2.824-2.47-3.166-5.12
	c0.77,0.231,1.475,0.288,1.999,0.625c3.802,2.452,8.141,3.619,12.314,5.157c3.226,1.189,5.848,2.904,7.982,5.746
	C107.34,196.777,109.989,199.95,113.932,201.786z"/>
<path fill="#BE202E" d="M324.589,619.908c-2.482-0.323-4.99-0.328-7.479-0.719c-2.897-0.456-5.854-0.526-8.779-0.818
	c-2.685-0.27-5.394-0.597-7.514-2.487c-0.81-0.722-1.437-1.678-2.033-2.601c-0.88-1.362-0.655-2.745,0.214-4.037
	c0.355-0.527,0.748-1.048,1.208-1.482c3.715-3.504,6.666-7.488,7.875-12.595c0.824,0,1.549-0.116,2.223,0.021
	c2.798,0.562,5.521,0.252,8.285-0.324c1.357-0.282,2.876-0.231,4.238,0.061c2.001,0.43,3.927,1.209,5.922,1.852
	c1.306,1.995,1.905,4.365,3.203,6.478c1.859,3.027,2.315,6.715,2.215,10.291c-0.062,2.142-1.054,4.036-3.385,4.69
	c-1.74,0.488-3.521,0.832-5.277,1.266c-0.338,0.084-0.646,0.285-0.969,0.433L324.589,619.908z M304.275,611.392
	c0.609-0.117,1.051-0.199,1.491-0.288c3.048-0.615,6.127-1.197,9.226-0.664c3.436,0.591,6.926,0.967,10.229,2.232
	c1.082,0.415,2.288,0.507,3.662,0.793c-0.731-1.938-2.3-2.147-3.706-2.468c-2.09-0.474-4.325-0.502-6.301-1.245
	c-4.551-1.711-8.979-0.36-13.454,0.093C304.807,609.907,304.147,610.124,304.275,611.392z"/>
<path fill="#FEE5D2" d="M267.196,168.877c0-1.225-0.175-2.442,0.037-3.588c0.432-2.336,0.207-4.596-0.306-6.872
	c-0.614-2.726-0.271-3.448,2.084-4.966c1.942-1.252,4.108-1.771,6.352-1.958c2.069-0.172,4.164-0.353,6.225-0.209
	c1.882,0.131,3.853,0.413,5.568,1.139c1.906,0.807,2.641,2.869,3.472,4.677c0.197,0.429,0.258,0.922,0.373,1.388
	c1.175,4.764-0.691,9.015-5.155,11.051c-1.467,0.669-3.252,0.883-4.893,0.887c-4.225,0.011-8.48,0.098-12.606-1.104
	C267.969,169.212,267.611,169.04,267.196,168.877z"/>
<path fill="#BE202E" d="M215.573,664.208c-2.643,2.565-5.736,3.825-9.124,3.955c-2.929,0.112-5.891-0.113-8.81-0.441
	c-1.852-0.208-3.663-0.854-5.078-2.999c1.905,0.579,3.387,1.022,4.863,1.484c0.297,0.094,0.571,0.378,0.856,0.378
	c3.643,0,7.306,0.413,10.893-0.664C211.288,665.286,213.439,664.774,215.573,664.208z"/>
<path fill="#FEE5D2" d="M487.249,161.258c0.851,1.435,1.25,2.966,0.436,4.437c-1.146,2.07-2.519,4.015-3.821,5.996
	c-0.208,0.317-0.56,0.541-0.899,0.861C483.055,167.914,484.938,162.913,487.249,161.258z"/>
<path fill="#BE202E" d="M324.534,619.932c0.216,0.415,0.432,0.829,0.649,1.25c-6.092,1.681-14.064,1.303-18.407-1.015
	c1.999-0.061,3.976-0.204,6.004,0.1c3.19,0.477,6.41,1.003,9.65,0.488c0.737-0.117,1.427-0.548,2.146-0.841
	C324.589,619.908,324.534,619.932,324.534,619.932z"/>
<path fill="#BE202E" d="M255.121,648.946c-2.189,4.21-7.451,6.45-11.774,4.937c1.696-0.262,3.31-0.463,4.904-0.767
	c2.06-0.392,3.831-1.331,5.275-2.896c0.456-0.494,1.094-0.818,1.649-1.222L255.121,648.946z"/>
<path fill="#BE202E" d="M228.926,657.178c-2.025,1.403-3.827,3.191-6.34,3.754C224.66,659.612,226.455,657.812,228.926,657.178z"/>
<path fill="#BE202E" d="M255.174,648.999c0.314-0.66,0.629-1.319,0.943-1.979c0.254,1.005-0.138,1.617-0.998,1.927
	C255.121,648.946,255.174,648.999,255.174,648.999z"/>
<path d="M295.91,310.736c-1.705-0.836-1.564-2.017-1.526-3.093c0.203-5.821,0.551-11.64,0.622-17.462
	c0.042-3.496-0.24-7.004-0.54-10.493c-0.541-6.281-1.104-12.563-1.844-18.823c-0.898-7.598-1.922-15.184-3.041-22.752
	c-0.311-2.106-1.116-4.145-1.752-6.197c-1.532-4.939-3.111-9.864-4.618-14.811c-0.097-0.317,0.265-0.774,0.414-1.166
	c0.393,0.165,0.812,0.287,1.166,0.513c0.171,0.109,0.248,0.405,0.315,0.632c2.023,6.795,4.246,13.54,5.98,20.408
	c1.027,4.064,1.288,8.323,1.881,12.497c0.38,2.679,0.792,5.354,1.092,8.042c0.345,3.088,0.562,6.188,0.87,9.281
	c0.322,3.244,0.587,6.498,1.054,9.722c0.885,6.108,1.114,12.207,0.57,18.368c-0.314,3.562-0.153,7.164-0.26,10.747
	C296.251,307.569,296.062,308.983,295.91,310.736z"/>
<path d="M244.342,213.508c1.646,1.622,3.501,3.06,4.864,4.869c3.21,4.26,6.251,8.652,9.237,13.075
	c2.791,4.134,4.346,8.856,6.077,13.487c0.89,2.383,1.936,4.707,2.818,7.092c1.158,3.13,2.294,6.271,3.308,9.451
	c0.965,3.028,1.765,6.109,2.623,9.171c0.061,0.218,0.008,0.468,0.008,0.88c-1.516-0.621-1.81-1.984-2.2-3.165
	c-0.774-2.338-1.249-4.782-2.107-7.086c-2.225-5.97-4.776-11.824-6.857-17.841c-3.427-9.912-9.423-18.176-16.083-26.054
	c-0.554-0.655-1.359-1.09-2.017-1.664C243.165,214.985,243.161,214.285,244.342,213.508z"/>
<path d="M305.973,266.78c0.202-1.542,0.343-2.867,0.554-4.181c0.681-4.252,1.22-8.536,2.121-12.742
	c1.705-7.97,4.446-15.623,7.569-23.143c1.63-3.924,3.747-7.569,6.162-11.055c0.688-0.995,1.473-1.779,3-1.799
	c-0.569,0.868-1.122,1.747-1.709,2.604c-3.263,4.769-5.706,9.922-7.429,15.44c-1.258,4.028-2.772,7.978-3.973,12.022
	c-1.107,3.74-2.07,7.534-2.871,11.351c-0.654,3.119-0.985,6.306-1.438,9.465C307.821,265.71,307.746,266.682,305.973,266.78z"/>
<path d="M271.888,175.547c-3.855,0.845-7.753,1.356-11.706,1.58c-5.164,0.292-10.325,0.661-15.479,1.089
	c-1.5,0.125-2.964,0.623-4.461,0.836c-1.014,0.146-2.06,0.147-3.084,0.089c-0.247-0.014-0.653-0.529-0.644-0.802
	c0.009-0.257,0.451-0.691,0.733-0.718c3.718-0.349,7.441-0.638,11.163-0.944c3.484-0.286,6.969-0.572,10.454-0.858
	c2.225-0.183,4.453-0.336,6.674-0.559c1.581-0.159,3.148-0.453,4.729-0.604c0.548-0.052,1.12,0.146,1.682,0.229
	C271.929,175.106,271.909,175.327,271.888,175.547z"/>
<path d="M304.275,611.392c-0.127-1.268,0.532-1.483,1.148-1.547c4.475-0.453,8.903-1.804,13.454-0.093
	c1.977,0.743,4.211,0.771,6.301,1.245c1.406,0.319,2.975,0.528,3.706,2.468c-1.374-0.286-2.58-0.378-3.662-0.793
	c-3.304-1.267-6.794-1.643-10.229-2.232c-3.099-0.533-6.178,0.049-9.226,0.664C305.326,611.191,304.884,611.273,304.275,611.392z"/>
</svg>
