<?xml version="1.0" encoding="utf-8"?>
<!-- Generator: Adobe Illustrator 19.2.0, SVG Export Plug-In . SVG Version: 6.00 Build 0)  -->
<svg version="1.1" id="Layer_1" xmlns="http://www.w3.org/2000/svg" xmlns:xlink="http://www.w3.org/1999/xlink" x="0px" y="0px"
	 viewBox="0 0 391 383" style="enable-background:new 0 0 391 383;" xml:space="preserve">
<style type="text/css">
	.st0{fill:#D91F5D;}
	.st1{fill:#EE2E7C;}
	.st2{fill:#FEE5D2;}
	.st3{fill:#BE202E;}
	.st4{fill:#FFFFFF;}
	.st5{fill:#010101;}
</style>
<path d="M35.1,140.3c-1.4-0.6-2.6-1.1-3.6-1.7c-0.8-0.5-1.5-1.1-2.2-1.8c-1.7-1.8-3.2-3.7-4.9-5.6c-1.5-1.7-3-3.3-4.4-5
	c-0.9-1-1.8-2-2.7-3.1c-1.4-1.9-2.6-3.8-1.7-6.6c1.1,0.1,2.2,0.1,3.4,0.2c-1-1.3-1.9-2.5-2.7-3.7c-1.4-2-1.7-4.1-0.8-6.4
	c0.4-1.1,1.2-1.4,2.3-1.1c3.6,1,6.5,3.1,8.6,6.1c2.9,4.1,6.7,7.1,11.3,9.4c-0.7-0.9-1.5-1.9-2.2-2.8c-2-2.2-4-4.3-5.9-6.6
	c-1.6-2-3.3-4.1-4-6.7c-0.3-1.1-0.1-2,0.7-2.8c0.8-0.7,1.7-0.5,2.5-0.1c1.5,0.9,3,1.8,4.2,3.1c3.7,3.7,7.1,7.8,10.9,11.4
	c4.6,4.4,9.6,8.2,15.3,10.9c0.4,0.2,0.9,0.2,1.4,0.4c1-2.1,0.9-4.3,0.3-6.4c-0.5-1.5-1-3-1.5-4.6c-0.3-1.1-0.5-2.3-0.7-3.5
	c-0.4-2.2,0.9-3.4,2.5-4.6c1-0.8,1.9-0.1,2.5,0.5c0.8,0.8,1.4,1.7,1.9,2.7c1.4,2.9,2.8,5.9,4.2,8.9c0.9,1.8,1.9,3.5,4.4,3.4
	c0.4,0,1,0.8,1.3,1.4c1.1,2.6,2.2,5.3,3.2,8c1.7,4.3,4.5,7.5,8.2,10.2c6.9,5.1,13.6,10.6,20.4,15.9c5.4,4.2,10.9,8.1,17,11.1
	c1.8,0.9,3.4,2.1,5,3.2c3.4,2.3,6.7,4.6,10.1,6.9c0.6,0.4,1.3,0.5,2.2,0.9c2.6-2.8,5.1-5.6,7.6-8.4c1.7-1.9,3.6-3.6,5.2-5.6
	c1.2-1.4,2.1-3,3.2-4.4c4.4-5.4,8.9-10.7,13.3-16c2-2.4,4.1-4.9,6.2-7.2c3.2-3.5,6.4-7.1,9.9-10.4c3.9-3.7,8.6-6.6,13.1-9.5
	c0.3-0.2,0.6-0.2,0.9-0.4c3.9-3.1,8.6-3.9,13.3-4.8c5.7-1.1,11.4-2.3,17.1-3.4c3.8-0.7,7.7-1.4,11.6-2.1c2.6-3.6,3.3-7.9,4-12.1
	c0.3-2,0.9-4.1,0.5-5.9c-0.4-1.7-2.1-3.1-3.1-4.7c-2.7-4.2-5.4-8.4-8-12.7c-0.7-1.1-1-2.5-1.6-4.2c-2.2-1.6-4.7-3.4-5.1-7
	c-0.2-1.9-1-3.7-1.5-5.5c-0.4-1.5-1-3.1-1.1-4.6c-0.2-2,0.6-2.8,2.8-3.3c-0.4-2.4-0.7-4.8-1.1-7.3c0-0.3-0.1-0.7-0.3-0.9
	c-2.4-3.1-1.8-6.8-2-10.3c-0.1-0.8,0.2-1.6,0.1-2.4c-0.5-2.8,1.5-3.7,3.3-4.7c1.4-0.8,2.9-1.4,4.3-2c2.9-1.2,4.4-3.5,5.2-6.5
	c0.2-0.7,0.5-1.5,0.9-2.8c0.9,1.1,1.4,1.8,2,2.6c2.2-1.1,3.4-2.9,3.4-5.7c1.3,0.7,1.2,1.8,1.6,2.6c0.6,1.2,1.1,1.4,2.2,0.7
	c2.3-1.3,3.4-3.5,4.7-5.6c0.4-0.7,0.9-1.4,1.4-2.3c1.7,1.1,1,2.4,0.9,3.6c-0.1,1.2-0.5,2.3-0.8,3.5c0.2,0.1,0.4,0.3,0.6,0.4
	c0.6-0.8,1.3-1.5,2.1-2.5c0.2,1.1,0.3,2.1,0.5,3.1c1.8-1,2.5-3.1,2.7-8.5c1.1,1.1,1.4,2.1,1.9,8.3c1.2-0.9,0.2-2.2,0.6-3.5
	c0.4,0.5,0.8,0.9,1.1,1.3c2-1.7,1.4-4.2,1.9-6.6c3.7,2.4,2,5.7,2.4,8.7c0.3-1.5,0.7-3,1.1-5c0.5,1.2,0.8,1.8,1.2,2.7
	c0.3-1.1,0.5-1.8,0.6-2.6c0.1-0.6-0.2-1.3-0.3-2.1c2.6,1.4,3.3,3.9,2.8,9.6c0.1,0,0.3,0,0.3-0.1c0.3-1.2,0.4-2.4,0.8-3.5
	c0.3-0.9,1.1-1.7,1.4-2.6c0.3-1,0.3-2.1,0.9-3.3c0.9,1.6,1.8,3.2,2.7,4.8c0.6-0.9,1.3-1.9,2-3.2c1.6,1.7,2.2,3.6,2.3,5.7
	c0.1,1,0.2,2,0,2.9c-0.5,2.4,0,4.8,0.7,7.1c1.8,5.6,1.1,11.2,0.1,16.8c-0.3,1.5-0.6,3-0.8,4.5c-0.2,1.3-0.1,1.6,1.4,1.8
	c1.8,0.3,2.1,0.8,2,2.6c-0.1,2.3-0.3,4.6-0.4,6.9c0,2.1-0.7,3.9-2.4,5.2c-1.1,0.8-1.4,1.9-1.4,3.2c0.3,4-1.2,7.7-2.2,11.5
	c-0.2,0.9-0.7,1.8-1.3,2.5c-2.3,2.6-2.7,5.7-2.5,8.9c0.1,2.6,0.3,5.1,0.6,7.6c0.1,1.2,0.6,2.5,1,3.7c0.5,1.7,1.3,2.9,3.4,2.5
	c0.2,0,0.3,0,0.5,0c4.2,1.6,8.1-0.1,12.2-0.8c3.8-0.7,7.7-1.5,11.5-2.1c3.1-0.5,6.3-0.8,9.5-1.5c5.4-1.2,10.2,0.1,14.7,3.1
	c4.1,2.7,7.2,6.5,10.6,10c4.6,4.8,8.5,10.2,11.5,16.1c2.3,4.6,5.1,8.8,7.8,13.1c3,4.8,5.9,9.6,9,14.4c1.5,2.3,3.3,4.5,5,6.7
	c3.5,4.4,6,9.4,7.6,14.8c0.7,2.4,1.7,4.6,2.3,7c0.5,2.1,0.7,4.2,0.9,6.4c0.4,3.8-0.4,7.5-1.4,11.1c-0.5,1.6-1.9,3.1-3.2,4.4
	c-3.7,3.7-7.5,7.2-11.2,10.9c-4.1,4.1-8.3,8.2-12.3,12.4c-4.7,4.9-9.3,9.9-14,14.8c-4.3,4.5-8.8,8.8-13.1,13.3c-1.8,1.9-3.1,4.2-5,6
	c-1.9,1.7-2.9,4-4.5,5.9c-0.6,0.7-1,1.6-1.5,2.4c-0.8,1.3-1.5,2.7-2.5,3.7c-1.2,1.2-1.4,2.4-1,3.9c1.1,4.6,2.1,9.2,3.3,13.7
	c2.1,7.8,4.5,15.6,6.6,23.5c1,3.8,1.7,7.6,2.8,11.4c2.8,9.1,4,18.6,6.2,27.8c1.7,7.1,3.8,14,6,20.9c2.1,6.5,4.9,12.6,7.1,19
	c2,5.9,4.2,11.7,5.9,17.6c1.3,4.4,2.2,9,3.1,13.5c0.9,4.8,1.6,9.6,2.4,14.4c0.1,0.8,0.6,1.5-0.3,2.2c-0.1,0.1,0,0.6,0,0.9
	c0.7,6.6,1.5,13.2,2,19.8c0.9,12,1,24.1-0.3,36.1c-0.4,3.8-1.3,7.5-1.8,11.3c-1.1,8.8,0.2,17.3,3.2,25.6c0.9,2.3,1.7,4.6,2.7,6.9
	c0.4,1,1,2,1.7,2.9c1.2,1.6,1.1,1.9-0.6,2.8c-1.4,0.8-2.8,1.6-4.2,2.2c-1.1,0.5-1.4,1.3-1.3,2.3c0.1,1.2,0,2.4,0.4,3.6
	c1.1,3.6,2.2,7.2,3.5,10.7c1.2,3.4,2.7,6.6,3.8,10c0.7,2.3,1.3,4.7,1.4,7c0.1,1.7-0.8,3.3-1.3,5c-2.8,1.3-4.6,4.1-7.6,5
	c-3.2,0.9-6.3,2.1-9.5,3.1c-3.9,1.2-7.5-0.3-11.1-1.7c-2.6-1-4.6-2.6-6.3-4.9c-1.9-2.5-2.1-5.3-2-8.2c0.2-4,0.4-8,0.9-11.9
	c0.3-2.3,0.9-4.7,1.6-6.9c1.1-3.3,2.7-6.5,2.1-10.2c-1.6-0.9-3.3-0.8-5.1-0.8c-2.7,0-3.3-0.6-3.1-3.3c0.2-2.6,0.8-5.2,1-7.8
	c0.4-4.7,0.6-9.4,1.1-14.1c0.4-3.2,0.5-6.4,0.2-9.5c-0.3-2.5-0.8-4.9-1-7.3c-0.5-6.3-1-12.6-1.3-18.9c-0.4-7.2-0.9-14.4-1-21.5
	c-0.1-5.9-0.3-11.9,1-17.7c0.8-3.4,0.2-6.2-1.3-9.1c-3.6-7.2-7.2-14.4-11.5-21.3c-4.4-7.1-8.2-14.6-11.6-22.3
	c-3.3-7.3-6.7-14.5-10.3-21.6c-2.5-5-5.5-9.7-8.1-14.7c-2.1-4-3.9-8-5.8-12.1c-2.3-4.9-4.7-9.8-6.9-14.8c-1.4-3.1-2.4-6.2-3.7-9.8
	c-1.8,3.4-3.5,6.4-5.1,9.4c-1.3,2.4-2.5,4.8-3.9,7.1c-3.4,5.4-7,10.7-10.3,16.1c-1.9,3-3.3,6.4-5.1,9.5c-3,5.1-5.9,10.2-9.1,15.2
	c-4.8,7.6-9.8,15.1-14.7,22.7c-1.4,2.2-2.6,4.6-4.1,6.8c-2.4,3.6-2.9,7.7-3,11.9c0,2.4,0.2,4.8-0.2,7.2c-1.2,6.1-0.7,12.3-1.4,18.3
	c-0.2,1.7-0.6,3.5-0.8,5.2c-0.7,5.9-1.3,11.7-2.1,17.6c-0.6,4-1.5,8-2.4,12c-1.2,5.2-2.6,10.4-4,15.5c-1,3.8-1.5,7.7-1.7,11.6
	c-0.3,4.2-0.6,8.4,0,12.7c0.8,5.6,2,11.1,3.8,16.5c0.8,2.4,2.2,4.4,3.4,6.5c0.8,1.5,0.4,2.3-1.4,2.5c-1.6,0.2-3.3,0.5-5,0.7
	c-0.6,2.9,0.1,5.7,0.5,8.4c0.4,2.4,1,4.7,1.4,7c0.4,2.4,0.7,4.9,1.2,7.3c0.1,0.8-0.2,1.7,0.8,2.4c0.3,0.2,0.2,1.2,0,1.8
	c-0.4,1.9-0.3,3.7,0.8,5.5c1,1.8,0.8,2.2-1.1,3.1c-0.6,0.3-1.3,0.5-2,0.7c-2.6,0.6-5.3,1.1-7.9,1.8c-6,1.5-12.1,2.7-18.4,2.6
	c-3.5-0.1-6.8-0.9-10-2.2c-3.7-1.6-6.2-4.3-7.7-8.1c-0.3-0.9-0.8-1.8-1-2.7c-0.2-1-0.2-2-0.2-3c0.1-1.2,0.4-2.3,0.6-3.5
	c0.2-1.1,0.3-2.3,0.8-3.2c1.5-3.1,3.1-6.1,4.9-9c2.2-3.7,3.9-7.5,3.6-11.9c-2.3-0.8-4.6-1.5-6.8-2.3c-2.3-0.8-2.8-2.1-1.2-3.9
	c3-3.5,4.5-7.8,6.3-12c1.2-2.9,2.3-6,3.1-9c1-3.5,1.6-7.1,2.4-10.7c1.2-5.6,0.4-11.3,0.4-16.9c0-6.4-0.4-12.8,0.7-19.1
	c0.6-3.5,1.1-7.1,1.6-10.6c0.9-7,1.8-13.9,2.6-20.9c0.4-3.5,0.9-7,1-10.5s0-7-0.1-10.5c-0.1-3.7-0.6-7.5-0.4-11.2
	c0.3-4.4,1.6-8.7,3.8-12.7c2.9-5.3,5.1-10.8,6.7-16.5c1.7-6.1,3.6-12.1,5.2-18.1c1.2-4.5,2.2-9.2,3.4-13.7c1.4-5.2,3-10.4,4.6-15.6
	c1.8-5.4,3.7-10.7,5.7-16c0.9-2.5,2.2-4.9,3.3-7.4c1.7-3.8,3.3-7.6,5.1-11.3c1.2-2.7,2.5-5.3,4.1-7.8c1.3-2.1,2.2-4.4,2.9-6.8
	c0.9-3.1,1.9-6.2,2.9-9.3c0.3-0.8,0.1-1.5,0-2.3c-0.2-1.9-0.4-4,0-5.9c1-5.4,0.6-10.8,0.3-16.2c-0.2-4-0.3-8-0.3-12
	c-0.1-4.1,0-8.3-0.2-12.4c-0.1-3.3-0.5-6.5-0.5-9.8c-0.1-6.4-1.3-12.7-3.6-18.7c-2.2-5.7-4.5-11.4-6.8-17.1c-0.6-1.6-1.2-3.3-2-4.9
	c-0.4-0.8-1-1.5-1.4-2.4c-0.6-1.3-1-2.7-1.4-4c-0.3-1.1-0.4-2.2-0.6-3.7c-1.8,1.5-3.3,2.8-4.8,4c-4,3.2-8,6.3-12.1,9.4
	c-5.3,4-10.6,7.9-15.9,11.9c-1,0.8-2.1,1.5-3.1,2.2c-3,2.3-6,4.6-8.9,6.9c-1.8,1.4-3.6,2.9-5.3,4.5c-2.4,2.3-4.8,4.6-7.2,7
	c-1.7,1.7-3.8,2.3-6.1,2.4c-6.1,0.3-11.5-1.5-16.6-4.9c-5.3-3.5-10-7.6-14.8-11.7c-7.3-6.3-15-11.9-22.3-18c-3.5-2.9-6.9-6-10.5-8.7
	c-4.2-3.2-8.6-6-13.8-7.5c-3.1-0.9-6.1-2.4-9.2-3.4c-1.3-0.5-2.8-0.7-4.2-0.8c-0.9-0.1-1.6-0.4-1.8-1.2c-0.3-1.1-1.2-1.4-2.1-1.7
	c-4.1-1.4-8.2-2.3-12.6-2.5c-1.5-0.1-3.2-0.6-4.5-1.3c-3.6-2-7.7-2.6-11.5-3.9c-1.2-0.4-2.4-0.9-3.4-1.6c-0.7-0.5-1.3-1.6-1.2-2.4
	c0.1-0.7,1-1.7,1.8-1.9c3-0.9,6-1.7,9.2-0.9C30.7,141.3,32.8,141.3,35.1,140.3z M255.7,23.9c-0.6,0.8-1.3,1.6-1.9,2.4
	c-0.4-0.1-0.8-0.1-1.2-0.2c-0.6-0.1-1.2-0.2-2-0.4c1.2-1.5,2.8-2.3,3.1-4.3c-1.6,0.7-2.1,2.7-4.1,2.5c0.9-1.1,1.8-2.3,2.7-3.4
	c0.1,0.7,0.6,0.5,0.8,0.1c1.4-2.3,2.7-4.6,4.1-6.9c0.2-0.3,0.1-0.7,0.1-1c-1,0.6-1.7,1.3-2.3,2.1c-0.5,0.7-0.9,1.6-1.3,2.4
	c0.2-0.8,0.3-1.7,0.6-3c-0.5,0.7-0.6,0.9-0.8,1.1c-1.3,2.4-2.5,4.8-3.8,7.1c-0.8,1.5-1.8,2.9-3.2,4c-1.3,1.1-2.1,2.7-3.4,4.4
	c4.1-0.5,7.6-1,10.1-4.1c0.6,0.2,1.2,0.3,1.6,0.4C255.1,25.9,255.4,24.9,255.7,23.9c0.7-0.3,1.9,0,1.9-1.4c0.8-0.8,1.6-1.7,2.4-2.5
	c-1.1,1.9-2.2,3.8-3.4,6.1c2.7-1.6,4.2-4.2,4.5-7.2c-0.2,0.1-0.4,0.2-0.6,0.3c0.2-0.5,0.3-1.1,0.6-1.5c1.2-1.6,1-3.4,1.3-5.2
	c-1.6,3.1-3.2,6.2-4.8,9.3C256,21.7,256,22.9,255.7,23.9z M267.9,15.6c-0.3,0.2-0.6,0.3-0.8,0.5c-0.4,0.6-0.7,1.3-1,2
	c0.1-0.9,0.3-1.9,0.4-2.9c-0.4,0.2-0.6,0.3-0.9,0.5c0.5-1.6,1.1-3.2,1.6-4.8c-2.3,1.7-2.6,4.3-3.3,6.8c0,0.3,0.1,0.6,0.1,0.9
	c-0.2,0.1-0.5,0.2-0.7,0.3c0.2-1.4,0.3-2.7,0.5-4.1c-0.2,0-0.3-0.1-0.5-0.1c-0.5,2.2-1,4.4-1.5,6.6c-0.3,0.5-0.6,0.9-0.9,1.3
	c-1,0.7-1.4,1.6-1.5,2.7l0.1-0.1c-1,0-1.2,0.6-1.6,1.4c1.6,0.1,3.2,0.8,4.3,0.2c1.8-0.8,3.6-2.2,4.7-3.8c1.5-2,2.7-4.4,2.8-7.2
	c-0.4,0.3-0.8,0.6-1.2,0.9c0.4-0.6,0.5-1-0.5-0.9C268.1,16,268,15.7,267.9,15.6c0-1,0.1-1.9,0.1-2.8c-0.2,0-0.3,0-0.5,0
	C267.7,13.8,267.8,14.7,267.9,15.6z M245.1,23.9L245.1,23.9c0.4-1.4,0.8-2.8,1.2-4.5c-1,0.8-1.6,1.2-2.2,1.7
	c0.6-1.5,0.8-3.4,1.9-4.2c1.5-1.2,1-2,0.2-3.5c-0.9,4.3-4.4,6.7-5.9,10.5c0.7-0.5,1.3-1,2-1.5c-0.6,1-1.3,2-1.9,2.9
	c-0.3,0.4-1,1.1-0.9,1.3c0.8,1.3-0.4,1.7-1,2.3c-0.9,1-2,1.9-2.9,2.8c2-0.2,4-0.1,5.1-2c0.1-0.2,0.4-0.3,0.6-0.3
	c1.5,0.4,2.2-0.6,2.9-1.6c0.4-0.5,0.8-1,1.3-1.4c1.7-1.4,2.7-3.3,3.5-5.3c0.4-0.9,0.4-2.3,1.9-2.5c0.1,0,0.2-0.2,0.2-0.3
	c0-1.9,1.3-3.1,2.1-4.6c0.5-1,1-2.1,1.5-3.1c-2.5,2.8-4,6.2-6.5,8.9c-0.1-0.1-0.3-0.2-0.4-0.3c1-1.7,2.1-3.3,3.1-5
	c-0.1-0.1-0.2-0.2-0.3-0.2c-0.8,0.4-1.7,0.7-2.5,1.1C247.4,19.3,246.9,20.9,245.1,23.9z M213,150.3c-0.5,3-1.3,5.7-1.5,8.5
	c-0.2,3-0.2,6.1,0.5,9c0.7,3.2,2.2,6.1,3.5,9.1c2.6,6.1,5.3,12.1,7.9,18.2c0.5,1.2,1.1,2.5,1.5,3.8c0.6,1.8,1.3,3.6,1.4,5.5
	c0.4,4.8,0.5,9.6,0.8,14.4c0.5,7.7,1,15.3,1.5,23c0.3,4.8,0.7,9.6,0.1,14.3c-0.4,3.6-0.7,7.2-1,10.7c-0.2,1.7-0.1,2.9,1.5,4.1
	c1.7,1.3,3.3,3.1,4.4,5c0.8,1.4,1.8,2,3.1,2.1c1.4,0.2,2.9,0.2,4.3,0.2c4.9-0.2,9.9-0.5,14.8-0.8c3-0.2,6.1-0.4,9.1-0.6
	c4.6-0.3,9.2-0.8,13.6-2.5c2.8-1.1,5.6-2.2,8.6-3c1.4-0.4,2.3-1.2,3.2-2.2c1.7-2.1,3.5-4.2,5.4-6.1c2.2-2.3,4.6-4.4,7.1-6.4
	c1.6-1.3,3.5-2.1,4.2-4.3c0.2-0.5,0.9-0.9,1.3-1.4c1.9-2,3.4-4.2,3.1-7.2c0-0.3,0-0.6,0.1-0.9c0.1-4.1,1.5-8.1,1.5-12.3
	c0-4.8,0.4-9.5,0.6-14.3c0.1-3,0-5.9,0.4-8.9c0.9-6.8,1.8-13.6,3.1-20.3c0.9-4.9,2.4-9.6,3.7-14.4c0.3-1.2,1-2.3,1.5-3.5
	c0.8-2.3,1.4-4.7,2.4-7c1.6-3.8,3.4-7.5,5.2-11.4c-5.1-6.8-6.8-14.6-6.9-23c0.8,1.1,1.4,2.3,1.8,3.5c2.2,6.9,4.3,13.7,7.9,20
	c0.6,1,1.2,2.1,1.7,3.2c2.5,5.4,5.7,10.3,8.9,15.3c2.5,4,5,8,7.5,11.9c0.7,1.1,1.2,2.6,2.1,3.4c1.4,1.3,2.3,2.8,3.1,4.5
	c0.7,1.5,0.5,2.5-0.7,3.5c-0.9,0.7-1.8,1.3-2.7,2c-4.6,3.6-8.2,8.1-11.7,12.6c-4.4,5.6-8.4,11.4-11.7,17.7
	c-2.9,5.6-6.4,10.8-10.4,15.8c-2.9,3.7-5.9,7.3-9,10.8c-2.1,2.4-1.6,3.3,1.5,4.6c0.4,0.1,0.8,0.1,1.2,0.2c3.1,0.6,6.3,1.1,9.4,1.7
	c1.9,0.4,3.5,0.3,5-1.3c2.7-2.8,5.6-5.5,8.3-8.3c4.2-4.3,8.3-8.6,12.5-12.9c4.9-5.1,9.7-10.4,14.7-15.4c5.5-5.6,11.1-11,16.9-16.4
	c4.5-4.2,5.2-9.5,4.9-15.1c-0.1-2.9-1-5.8-1.3-8.8c-0.4-3.5-1.9-6.6-3.4-9.6c-2.7-5.5-6.1-10.5-9.7-15.4c-0.9-1.2-1.7-2.5-2.4-3.8
	c-2.3-3.9-4.4-7.9-7-11.7c-2.8-4.2-5.4-8.5-7.7-12.9c-2.4-4.5-4.9-9-8.2-12.9c-4.2-4.9-8.3-9.9-14-13.3c-3.2-1.9-6.5-3-10.4-2.3
	c-3.5,0.6-7.1,0.8-10.7,1.3c-4,0.5-8.1,0.9-12.1,1.7c-4.4,0.9-8.7,2.1-13.2,1.6c-0.4,0-0.8,0.1-1,0.2c-2.6,4.5-5.9,7.9-10.5,10
	c-1.1,0.5-2.3,0.8-3.3,1.3c-3.1,1.6-6.3,2.8-9.8,2.7c-1.2,0-2.4,0.2-3.6,0.5c-2.6,0.7-5.1,0.2-7.5-0.8c-2.5-1.1-4.4-2.7-5-5.9
	c-3.6,0.7-7,1.4-10.4,2.1c-5.6,1.2-11.2,2.4-16.9,3.5c-4.6,0.9-9.3,1.4-13.3,4.4c-4.1,3-8.5,5.4-12.4,8.6c-3.9,3.3-7.4,7-10.8,10.8
	c-5,5.7-9.8,11.5-14.7,17.3c-2.7,3.2-5.3,6.4-7.9,9.6c-0.6,0.7-1,1.4-1.6,2.1c-4.8,5.7-10.3,10.9-13.8,17.6
	c-0.2,0.3-0.8,0.4-1.5,0.8c0.1-0.6,0.1-0.9,0.2-1.1c1-2.2,1-2.5-1-3.9c-1.2-0.9-2.5-1.6-3.8-2.5c-4.8-3.4-9.7-6.7-14.9-9.5
	c-2.4-1.3-4.8-2.6-6.9-4.2c-6.6-4.9-13.1-10-19.6-15c-2.2-1.7-4.3-3.5-6.5-5.3c-2.4-1.9-4.9-3.8-7.2-5.9c-1.7-1.5-2.6-3.6-3.3-5.7
	c-0.5-1.4-0.9-2.9-2.2-4.2c-0.6,3-1.5,5.6-3.1,7.9c-2,3-4.2,6-6,9.2c-1.8,3.1-3.9,5.8-6.8,7.9c-0.3,0.2-0.6,0.5-0.9,0.8
	c0.4,0.4,0.7,0.7,1,0.9c2.9,1.2,5.7,2.4,8.7,3.4c3.9,1.2,7.7,2.7,11,5.1c3.3,2.4,6.5,4.9,9.7,7.4c2.1,1.7,4,3.6,6.2,5.3
	c4.8,3.8,9.6,7.6,14.5,11.4c1.3,1,2.6,1.9,3.8,2.9c5.5,4.5,10.8,9.2,16.4,13.6c4.8,3.7,10.3,5.6,16.5,5.2c1.9-0.1,3.5-0.9,4.9-2.1
	c7.4-6,14.1-12.9,22.2-18.2c0.7-0.4,1.4-0.8,2-1.3c5.1-3.8,10.1-7.8,15.3-11.4c6.1-4.3,12-9,17.6-14c0.4-0.3,0.7-0.9,0.9-1.4
	c0.6-2.6,1-5.2,1.5-7.7C210.5,153.5,211.4,151.7,213,150.3z M271.7,315c0.4,2.4,0.7,4.3-0.1,6c-0.8,1.9-0.5,3.5,0.1,5.3
	c2.1,5.7,4.5,11.2,7.3,16.7c3.1,6.2,5.9,12.6,9,18.8c2.3,4.6,5.1,8.9,7.4,13.4c3,6,5.8,12.1,8.7,18.1c0.7,1.4,1.5,2.8,2.1,4.3
	c2.9,7.1,6.5,13.9,10.4,20.5c3.4,5.8,7,11.5,9.7,17.6c1.1,2.5,2.5,4.8,3.8,7.3c0.5-1.6,0.5-1.6,1.8-1.8c-0.1,0.8-0.1,1.6-0.3,2.4
	c-1.6,7.7-2.4,15.5-2.2,23.3c0.1,7.3,0.7,14.7,1.1,22c0.5,9.5,0.9,19,2.5,28.4c0.4,2.3,0.1,4.8,0,7.1c-0.1,2.1-0.4,4.3-0.6,6.4
	c-0.4,4.4-0.9,8.9-1.3,13.3c-0.1,1.6-0.5,3.3,0.2,5.2c3.4-0.8,6.8-1.3,10-2.4c3.7-1.3,7.3-2.1,11.2-1.8c1.4,0.1,2.9-0.1,4.3-0.2
	c1.2,0,2.3,0,3.5,0c1.9,0,3.9,0,6,0c-1-1.9-2-3.6-2.6-5.3c-1.2-3.2-2.1-6.5-3.2-9.8c-2.2-6.5-2.7-13.3-2.1-20.1
	c0.7-7.3,2.5-14.5,2.4-21.9c0-1.8,0.4-3.6,0.3-5.5c0-5.3-0.2-10.7-0.3-16c0-1.5,0-3-0.2-4.5c-0.3-2.8-0.6-5.5-0.9-8.3
	c-0.6-5.2-1.2-10.5-2-15.7c-0.5-3.3-1.2-6.6-1.8-9.9c-0.1-0.6,0-1.3,0-1.9c0-0.8,0-1.7-0.1-2.5c-0.1-0.9-0.5-1.7-0.6-2.6
	c-0.2-5.2-1.8-10.1-3.5-14.9c-1.9-5.2-4.2-10.2-6.3-15.2c-1.4-3.3-2.9-6.6-4-10c-1.8-5.7-3.2-11.5-4.8-17.3
	c-0.9-3.2-1.8-6.3-2.5-9.5c-1.4-6.4-2.5-12.8-3.9-19.2c-0.7-3.3-1.9-6.6-2.8-9.9c-3-11-5.9-22-8.8-33c-1-3.9-1.8-7.9-2.8-11.9
	c-0.4-1.5-0.9-3-1.3-4.4c-0.5,0.1-0.7,0-0.8,0.1c-3.5,2.1-7.4,2.8-11.4,3.3c-3.5,0.5-6.9,1-10.4,1.3c-2.7,0.3-5.5,0.7-8.1,0.4
	c-4.7-0.6-9.4-1.8-14.1-2.7c-0.6-0.1-1.3-0.4-1.9-0.3c-6.1,1.1-12.2,0.9-18.3,1.6c-2.4,0.3-4.8,0.4-7.2,0.4
	c-2.9-0.1-5.7-0.4-8.6-0.7c-1.2-0.1-2.2-0.8-2.4-2.2c-0.2-2.1-1.7-2.9-3.4-3.4c-1,2.9-1.9,5.7-2.8,8.5c-1.2,3.8-2.5,7.6-4.5,11.1
	c-1.3,2.4-2.7,4.7-3.8,7.2c-3,6.8-5.7,13.7-8.7,20.4c-2.7,6-4.6,12.3-6.4,18.5c-2.1,7.1-3.8,14.3-5.7,21.5c-1.4,5.5-2.8,11-4.4,16.4
	c-1.2,4.1-2.6,8.2-3.9,12.3c-0.2,0.5-0.5,1.2-0.3,1.5c0.4,0.8,0,1.1-0.3,1.7c-1.9,3.3-3.9,6.6-5.5,10.1c-1.6,3.4-2.1,7.2-1.9,11
	c0.2,3.2,0.8,6.3,1.2,9.5c0.2,1.5,0.9,3.1-0.4,4.5c-0.1,0.1,0,0.5-0.1,0.7c-0.3,4.3-0.5,8.6-0.8,12.9c-0.5,6.6-1,13.2-1.7,19.8
	c-0.9,9.2-2.1,18.4-3.1,27.6c-0.2,1.6-0.1,3.2-0.1,4.8c0.1,3.7,0.5,7.3,0.4,11c-0.1,2.5-0.4,5.1-1.1,7.5c-0.7,2.4-0.2,5.1-2.2,7.1
	c0,0,0,0.2-0.1,0.2c-0.8,2.4-1.5,4.9-2.3,7.3c-0.8,2.4-1.7,4.8-2.7,7.1s-2.1,4.5-3.2,6.9c3.3-0.7,6.3-1.4,9.3-2
	c2.6-0.5,5.2-1.1,7.8-1.1c3.3,0,6.5,0.5,9.8,0.7c3.9,0.3,7.5,1.4,10.9,3.2c0.9,0.5,1.7,1,3,1.8c-0.9-3.1-1.6-5.6-2.3-8.2
	c-0.7-2.7-1.3-5.4-2-8.1c-0.7-3-0.6-6-0.6-9c0-7,0.6-13.9,2.4-20.6c1.4-5.4,3-10.7,4.2-16.2c1.1-5,1.9-10,2.6-15.1
	c0.7-4.7,1.2-9.5,1.8-14.2c0.2-1.9,0.5-3.8,0.6-5.7c0.3-4.8,0.5-9.6,0.8-14.3c0.1-2.4-0.2-4.7-1.4-6.9c-0.4-0.8-0.2-1.3,0.1-2
	c0.7-1.5,1.2-3.1,1.8-4.6c0.7-1.7,1.2-3.5,2-5.1c1.3-2.5,2.8-5,4.3-7.4c2.4-3.8,4.9-7.5,7.3-11.2c2.6-3.9,5.3-7.8,7.6-11.9
	c2.8-4.7,5.1-9.7,7.8-14.5s5.8-9.3,8.5-14c2.9-5.1,6.7-9.7,8.8-15.3c1.1-2.8,2.6-5.4,4-8.1c2.5-4.7,5.4-9.2,6.9-14.4
	C270.3,315.9,270.9,315.7,271.7,315z M232.8,34.4c0.8,4-0.4,7.8,1,11.5c0.2,0.4,0.1,0.9,0.2,1.4c0.3,2.7,0.4,5.4,1.1,8
	c1.3,5.1,1.6,10.4,1.8,15.6c0,0.9,0.4,1.8,0.8,2.6c0.9,1.5,1.9,2.9,2.9,4.4c3,4.5,5.3,9.4,9.3,13.3c3.4,3.3,7.2,4.7,11.9,4
	c4.2-0.6,7.7-2.3,10.8-5.1c0.7-0.7,1.4-1.5,1.9-2.4c1.1-2,1.9-4.2,2.9-6.3c3.3-6.6,4.9-13.6,5.5-20.9c0.2-2.8-0.3-5.6-0.3-8.3
	c0-4.6,0.1-9.2,0.4-13.9c0.2-3.7-1-7-1.6-10.6c-0.9,0.3-1.5,0.6-2.2,0.8c-0.6-0.5-1.2-0.9-1.8-1.3c-0.4,0.2-0.8,0.3-1.2,0.5
	c-2.2,1-4.4,1.3-6.6-0.3c-0.5-0.4-1.5-0.3-2.3-0.2c-2.7,0.3-5.2,2-8.1,1.3c-2.8-0.6-5.5,0-7.8,1.7c-2.7,1.9-5.7,2.3-8.8,2.1
	c-2.1-0.1-3.8,0.3-5.4,1.8c-0.9,0.9-2,1.8-3.9,1.4c0.6-0.4,0.9-0.7,1.3-0.9c0.3-0.2,0.6-0.4,0.9-0.6c-0.1-0.1-0.1-0.2-0.1-0.3
	C234.7,34.1,234,34.2,232.8,34.4z M353.5,191.3c-0.4-1.2-0.6-2.3-1.2-3.2c-1.8-3-3.8-5.9-5.7-8.8c-3.2-4.7-6.6-9.2-9.1-14.3
	c-1-2.1-2-4.2-3-6.2c-0.7-1.4-1.4-2.7-2.4-4.5c-1.6,2.6-3.1,4.6-4.3,6.9c-1.2,2.2-2.1,4.6-2.9,7c-1.6,4.5-3.2,9-4.6,13.6
	c-0.9,2.9-1,6-1.9,8.9c-1.7,5.6-1.9,11.3-2.6,17c-0.6,4.9-0.3,9.9-0.5,14.8c-0.2,4.9-0.6,9.9-0.9,14.8c-0.1,2.2-0.3,4.4-0.5,7
	c0.8-0.7,1.2-0.9,1.6-1.4c2.5-3.4,5.2-6.7,7.5-10.2c2.3-3.6,4.2-7.5,6.5-11.2c2.8-4.5,5.7-8.9,8.9-13.1c2.9-3.8,6.2-7.3,9.4-10.9
	C349.3,195.4,351.3,193.5,353.5,191.3z M19.5,144.4c1,0.5,1.9,1,2.9,1.4c3.5,1.2,7,2.1,10.4,3.5c2.6,1.1,5.2,1.8,8,2
	c3.9,0.3,7.7,1.4,11.2,2.9c2.1,0.9,3.6,0.6,5.4-0.4c2.1-1.2,3.8-2.9,5.1-4.9c2-3.1,4.1-6.1,6-9.2c1.1-1.8,2-3.6,2.7-5.6
	c1-2.5,1-5-0.8-7.3c-0.2-0.3-0.4-0.7-0.6-1c-1.6-3.8-3.3-7.6-4.9-11.4c-0.6-1.4-1-2.9-2.5-3.6c-1.8,0.7-2.4,1.9-2,3.6
	c0.5,1.9,0.9,3.9,1.7,5.7c1.8,4.4,0.7,8.5-1.2,12.5c-0.4,0.9-1.3,1.6-2,2.3c-0.2,0.2-1,0.1-1.2-0.1c-0.2-0.2-0.3-0.9-0.2-1.2
	c0.2-0.4,0.7-0.7,0.9-1.1c0.5-0.8,1-1.7,1.5-2.5c-1.1-0.8-2-1.3-2.8-1.9c-2.2-1.4-4.4-2.8-6.6-4.4c-2.3-1.6-4.6-3.1-6.6-5.1
	c-3.9-3.7-7.5-7.6-11.2-11.4c-0.9-0.9-1.8-1.8-2.8-2.5c-0.7-0.5-1.5-1.7-2.4-0.8c-0.9,0.8,0,1.8,0.5,2.6c1,1.6,2.1,3.2,3.3,4.7
	c1.5,1.8,3,3.5,4.7,5.1c2.8,2.7,4.4,6.5,7.5,9c0.7,0.5,0.7,1.2-0.3,1.7c-0.4-0.2-0.9-0.2-1.3-0.5c-1.8-1.2-3.7-2.5-5.5-3.8
	c-4.2-3-8.5-5.8-11.4-10.3c-1.6-2.5-4.3-3.8-7.2-5.2c-0.1,0.5,0,0.8-0.1,0.9c-1.6,1.4-1.2,2.8,0,4.3c0.5,0.6,0.9,1.3,1.4,1.9
	c3.6,4.4,7.8,8.2,12.4,11.4c1.2,0.8,2.3,1.8,3.6,2.7c-1.5,1.1-1.5,1.1-2.7,0.1c-3.5-2.8-7.1-5.7-10.7-8.4c-1.4-1-2.9-1.8-5.1-1.4
	c0.4,0.9,0.7,1.6,1.1,2.2c1.4,1.9,2.8,3.9,4.4,5.7c2.3,2.6,4.9,4.8,7,7.5c2.2,2.8,5,4.3,8.2,5.5c0.6,0.2,1.2,0.4,1.7,0.6
	c0.3,1.3,0.1,2.2-1.2,2.1c-3.3-0.2-6.4,0.8-9.7,0.2C25.2,142,22.3,142.6,19.5,144.4z M199.6,544c-4.6-2.6-9.3-2.3-13.7-3
	c-4.7-0.7-9.6-0.4-14.3,0.8c-0.8,0.2-1.3,0.5-1.2,1.4c0,0.6,0,1.3,0.1,1.9c0.4,5.3-0.6,10.2-3.6,14.8c-2.2,3.4-3.8,7.2-5.5,10.8
	c-0.5,1-0.4,2,0.1,3.1c1.1,2.4,3.1,3.7,5.4,4.3c3.2,0.8,6.5,1.4,9.8,2c2.1,0.4,4.2,0.9,6.3,1c4.2,0.2,8.4-0.2,12.5-1.6
	c1.7-0.6,3.5-1.1,5.1-2c1.9-1,3.2-2.6,3-4.8c-0.3-3-0.9-6-1.4-9c-0.4-2.3-0.9-4.7-1.2-7C200.4,552.5,200,548.1,199.6,544z
	 M360.2,547.1c-1.6,0.1-2.9,0.2-4.3,0.3c-1,0.1-2.1,0.3-3.1,0.2c-4.1-0.5-8,0.5-12,1.7c-1.5,0.5-2,1.1-2.1,2.6
	c-0.1,2.6-0.1,5.3-1.2,7.8c-2.5,5.4-3,11.2-3.1,17.1c0,1.7,0.5,3.2,1.6,4.4c1.1,1.1,2.3,2.2,3.7,3c4.5,2.8,9.6,2.8,14.6,2.7
	c3.4-0.1,6.7-1.3,9.5-3.5c0.7-0.6,1.4-0.6,2.1,0.5c-0.6,0.7-1.1,1.6-1.9,2c-3.4,1.7-7,3.2-10.9,3c-1.7-0.1-3.3-0.2-5-0.4
	c-4.9-0.6-9.5-2.1-12.9-6.1c-0.2-0.2-0.4-0.4-0.8-0.7c-0.5,3.5,0.6,6.2,3.1,8.3c3.5,2.9,7.7,4.4,12.1,4.3c5.8-0.2,11-2.4,15.8-5.6
	c3.3-2.2,4.6-5.3,3.1-9.2c-0.2-0.5-0.3-1.1-0.5-1.6c-1.2-3.2-2.4-6.4-3.7-9.6c-1.7-4.5-3.7-9-4.2-13.9
	C360,552,360.2,549.7,360.2,547.1z M249.3,93.6c-0.1,0.6-0.2,0.8-0.2,1.1c-0.6,4.8-1.3,9.6-3.6,14.1c-0.3,0.6-0.2,1.8,0.3,2.4
	c0.6,0.8,1.6,1.5,2.6,1.9c3.6,1.3,7.5,1.2,11.1,0.5c4.6-1,9.1-2.8,13.6-4.5c2.4-0.9,4.6-2.5,6.4-4.5c0.8-0.9,0.9-1.7,0.2-2.8
	c-1.6-2.4-2.4-5-2.5-7.9c0-1.8-0.4-3.7-0.5-5.3c-1.2,1-2.4,2-3.5,3.1c-2.3,2.4-5.1,4.1-8.3,4.9c-4.8,1.3-9.4,1.6-13.6-1.9
	C250.8,94.3,250.1,94.1,249.3,93.6z M323.3,261.4c-1-0.4-1.9-0.9-2.8-0.9c-2.7,0.1-5.1-0.9-7.7-1.6c-1.5-0.4-3.1-0.7-4.5-1.5
	c-1.3-0.7-2.4-0.8-3.6-0.3c-1.1,0.6-2.3,1.2-3.1,2.1c-3.2,3.3-6.3,6.7-9.4,10.2c-2.1,2.4-4.4,4.3-7.4,5.4c-1.9,0.7-3.6,1.6-5.4,2.4
	c-0.4,0.2-0.8,0.6-1.2,0.9c0,0.2,0.1,0.3,0.1,0.5c2.3,0.2,4.5,0.4,6.8,0.5c4.4,0.1,8.7-0.1,13.1-0.9c3.3-0.6,6.6-0.9,9.8-1.7
	c4-0.9,7.3-3,9.7-6.5c1.6-2.4,3.2-4.9,4.8-7.4C322.8,262.5,323,262.1,323.3,261.4z M161,578.7c1.3,3.5,2.8,6.4,5.8,8
	c3.4,1.8,6.9,2.7,10.8,2.8c5.1,0.1,10-0.8,14.9-1.8c3.7-0.7,7.4-1.7,11.1-2.7c0.6-0.1,1.1-0.5,1.7-0.8c-0.5-1.9-1-3.6-1.5-5.4
	c-2.2,1.2-4.6,2.6-6.9,3.8c-1.2,0.6-2.4,1.1-3.7,1.4c-0.8,0.2-1.7,0.3-2.6,0.3c-3.2,0.1-6.3,0.8-9.5,0.2c-2-0.4-3.9-0.6-5.9-1.1
	c-3.5-0.9-6.9-1.8-10.3-2.9C163.7,580.2,162.6,579.5,161,578.7z M235.1,68.3c-1.1-4.6-2.2-8.7-3.1-12.8c-0.4-1.8-1.6-2.7-3.5-3.7
	c0.5,2,0.8,3.5,1.2,5c0.5,1.8,1,3.7,1.4,5.5C231.7,64.6,232.5,66.7,235.1,68.3z M284.6,48.3c0.2,3.5-0.5,7.1,0,10.9
	c2.3-1.4,2.2-1.4,2.4-3.4c0.2-2.3,0.5-4.6,0.7-6.9c0-0.6,0-1.3-0.3-1.7c-0.6-0.7-1.3-0.3-1.9,0.3C285.2,47.8,285,47.9,284.6,48.3z
	 M271.8,26.6c2,1.1,3.8,0.9,5-0.3c0.3-0.3,0.5-0.8,0.9-1c0.8-0.3,1.5-0.8,2.4-1c2.2-0.5,2.4-2.8,2.9-4.9
	C279.6,22.5,276.4,25.6,271.8,26.6z M265.8,25.7c3.3,0.1,5.9-3.2,6.4-8.7C270.5,20.4,268.6,23.2,265.8,25.7z M229.5,26.3
	c0.8,0.4,1.3,0.6,1.9,0.9c1.4-1.3,3.2-2.2,4.3-4.5C233.3,23.8,231.2,24.3,229.5,26.3z M239,24c-2.2,2-4.3,3.9-6.5,5.9
	c0.1,0.1,0.3,0.3,0.4,0.4C235.5,28.8,237.8,27,239,24z M259.5,14.8c-0.8,0.4-1.9,0.6-2.3,1.3c-0.8,1.3-1.3,2.8-1.9,4.2
	C257,18.6,259.1,17.4,259.5,14.8z M276.9,18.3c2.8-1.8,3.1-2.8,2.1-5.4C278.2,14.9,277.6,16.6,276.9,18.3z M272.4,11.5
	c-2,2.1-2,4.6-2.2,7C271.3,16.4,272.9,14.3,272.4,11.5z M276.1,18.2c-1.3,2-3.6,3.3-4.1,5.8C273.6,22.2,275.9,21,276.1,18.2z
	 M273.1,8.1c-0.2,1.2-0.7,1.8,0.1,2.7c0.6,0.7,0.3,2.1,0.4,3.1c0,0.3-0.1,0.6-0.2,0.9c0,0.2,0.1,0.5,0.1,0.8
	C274.5,13.1,274.6,10.7,273.1,8.1z M280.3,19.3c1.1-1.5,2.1-3.2,2.1-5.5C280.4,15.4,281.4,17.8,280.3,19.3z M277.3,13.7
	c0.1,0.1,0.3,0.1,0.5,0.2c0.6-1.2,1.2-2.4,1.7-3.7c0.1-0.2-0.5-0.6-1-1.2C278,10.9,277.7,12.3,277.3,13.7z M282.2,18.3
	c1.8-3,2-3.9,1.6-6.5C283.3,13.7,282.8,15.8,282.2,18.3z M231.5,33.2c-0.1,0-0.2,0.1-0.3,0.1c0,2.1,0,4.3,0,6.4c0.1,0,0.2,0,0.3,0
	C231.5,37.5,231.5,35.4,231.5,33.2z M256.1,21.5c-0.2-0.1-0.3-0.3-0.5-0.4c-0.9,1.1-1.7,2.2-2.6,3.3c0.2,0.1,0.3,0.2,0.5,0.4
	C254.4,23.8,255.3,22.7,256.1,21.5z M242,17.6c-0.2-0.1-0.4-0.2-0.6-0.3c-0.6,0.9-1.3,1.8-0.9,3.2C241,19.5,241.5,18.6,242,17.6z
	 M273.2,17.6c-0.4,1.1-0.7,2.1-1.1,3.1c0.1,0.1,0.3,0.1,0.4,0.2c0.7-1,1.4-1.9,2.1-3C273.9,17.8,273.6,17.7,273.2,17.6z M283.9,32.1
	c-0.2,0-0.3,0.1-0.5,0.1c0.1,0.8,0.1,1.7,0.2,3C284.8,33.8,284,33,283.9,32.1z M227.2,30.3c0.1,0,0.2,0,0.3,0
	c0.3-1.1,0.6-2.1,0.9-3.2c-0.1,0-0.2-0.1-0.4-0.1C227.8,28.1,227.5,29.2,227.2,30.3z M236.1,29.7c0.1,0.1,0.2,0.2,0.3,0.3
	c0.8-0.8,1.6-1.6,2.4-2.4c-0.1-0.1-0.1-0.1-0.2-0.2C237.8,28.1,237,28.9,236.1,29.7z M274.9,23.6c1.8-0.5,1.8-0.5,2-1.6
	C276.2,22.5,275.5,23,274.9,23.6z M229.2,32.1c-0.1,0-0.2,0-0.2,0c0,0.8,0,1.6,0,2.4c0.1,0,0.2,0,0.2,0
	C229.2,33.8,229.2,33,229.2,32.1z M237.3,22.4c-0.1-0.1-0.2-0.2-0.3-0.3c-0.3,0.5-0.5,0.9-0.8,1.4c0.1,0.1,0.2,0.1,0.3,0.2
	C236.8,23.3,237.1,22.9,237.3,22.4z"/>
<path class="st0" d="M213,150.3c-1.7,1.4-2.5,3.2-3,5.3c-0.5,2.6-1,5.2-1.5,7.7c-0.1,0.5-0.5,1-0.9,1.4c-5.6,5-11.5,9.6-17.6,14
	c-5.2,3.7-10.2,7.6-15.3,11.4c-0.6,0.5-1.3,0.9-2,1.3c-8,5.3-14.7,12.2-22.2,18.2c-1.5,1.2-3,1.9-4.9,2.1
	c-6.2,0.4-11.7-1.5-16.5-5.2c-5.6-4.4-10.9-9.1-16.4-13.6c-1.2-1-2.5-1.9-3.8-2.9c-4.8-3.8-9.7-7.6-14.5-11.4
	c-2.1-1.7-4-3.6-6.2-5.3c-3.2-2.5-6.4-5-9.7-7.4c-3.3-2.4-7.1-3.9-11-5.1c-3-0.9-5.8-2.2-8.7-3.4c-0.3-0.1-0.6-0.5-1-0.9
	c0.4-0.3,0.7-0.6,0.9-0.8c2.9-2.1,5-4.8,6.8-7.9c1.8-3.2,4-6.2,6-9.2c1.6-2.4,2.5-5,3.1-7.9c1.3,1.2,1.7,2.7,2.2,4.2
	c0.7,2.1,1.6,4.2,3.3,5.7c2.3,2.1,4.8,3.9,7.2,5.9c2.2,1.8,4.3,3.6,6.5,5.3c6.5,5,13,10.1,19.6,15c2.2,1.6,4.5,3,6.9,4.2
	c5.2,2.7,10.1,6.1,14.9,9.5c1.2,0.9,2.6,1.6,3.8,2.5c2,1.4,2,1.7,1,3.9c-0.1,0.2-0.1,0.4-0.2,1.1c0.7-0.4,1.3-0.5,1.5-0.8
	c3.5-6.8,9.1-11.9,13.8-17.6c0.6-0.7,1.1-1.4,1.6-2.1c2.6-3.2,5.2-6.4,7.9-9.6c4.9-5.8,9.7-11.7,14.7-17.3
	c3.4-3.8,6.9-7.6,10.8-10.8c3.8-3.2,8.3-5.7,12.4-8.6c4-2.9,8.7-3.4,13.3-4.4c5.6-1.1,11.2-2.4,16.9-3.5c3.4-0.7,6.9-1.4,10.4-2.1
	c0.6,3.1,2.6,4.8,5,5.9c2.4,1,4.9,1.5,7.5,0.8c1.2-0.3,2.4-0.5,3.6-0.5c3.6,0.1,6.7-1.1,9.8-2.7c1.1-0.5,2.2-0.9,3.3-1.3
	c4.6-2.1,8-5.5,10.5-10c0.3,0,0.7-0.2,1-0.2c4.5,0.6,8.9-0.7,13.2-1.6c4-0.8,8-1.2,12.1-1.7c3.6-0.5,7.2-0.7,10.7-1.3
	c3.9-0.7,7.2,0.4,10.4,2.3c5.7,3.4,9.8,8.4,14,13.3c3.3,3.9,5.8,8.4,8.2,12.9c2.4,4.4,4.9,8.7,7.7,12.9c2.5,3.8,4.7,7.8,7,11.7
	c0.8,1.3,1.5,2.6,2.4,3.8c3.6,4.9,7,9.9,9.7,15.4c1.5,3.1,3,6.1,3.4,9.6c0.3,2.9,1.2,5.8,1.3,8.8c0.3,5.6-0.4,10.9-4.9,15.1
	c-5.7,5.3-11.3,10.8-16.9,16.4c-5,5-9.8,10.3-14.7,15.4c-4.1,4.3-8.3,8.7-12.5,12.9c-2.7,2.8-5.6,5.4-8.3,8.3
	c-1.5,1.6-3.1,1.7-5,1.3c-3.1-0.6-6.3-1.1-9.4-1.7c-0.4-0.1-0.8-0.1-1.2-0.2c-3.1-1.3-3.6-2.2-1.5-4.6c3.1-3.6,6-7.2,9-10.9
	c4-4.9,7.5-10.1,10.4-15.8c3.3-6.3,7.3-12.2,11.7-17.7c3.5-4.5,7.2-9,11.7-12.6c0.9-0.7,1.8-1.3,2.7-2c1.3-1.1,1.4-2,0.7-3.5
	c-0.8-1.7-1.7-3.2-3.1-4.5c-0.9-0.9-1.4-2.3-2.1-3.4c-2.5-4-5-8-7.5-11.9c-3.2-5-6.4-9.9-8.9-15.3c-0.5-1.1-1.1-2.1-1.7-3.2
	c-3.6-6.3-5.8-13.1-7.9-20c-0.4-1.3-1-2.4-1.8-3.5c0.1,8.4,1.9,16.3,6.9,23c-1.8,3.9-3.6,7.6-5.2,11.4c-1,2.3-1.5,4.7-2.4,7
	c-0.4,1.2-1.1,2.3-1.5,3.5c-1.3,4.8-2.8,9.6-3.7,14.4c-1.3,6.7-2.2,13.5-3.1,20.3c-0.4,2.9-0.2,5.9-0.4,8.9
	c-0.2,4.8-0.6,9.5-0.6,14.3c0,4.2-1.4,8.1-1.5,12.3c0,0.3-0.1,0.6-0.1,0.9c0.3,3-1.2,5.2-3.1,7.2c-0.4,0.5-1.1,0.8-1.3,1.4
	c-0.7,2.2-2.6,3-4.2,4.3c-2.5,2-4.8,4.2-7.1,6.4c-1.9,1.9-3.6,4-5.4,6.1c-0.9,1.1-1.8,1.8-3.2,2.2c-2.9,0.8-5.7,1.9-8.6,3
	c-4.4,1.7-8.9,2.2-13.6,2.5c-3,0.2-6,0.4-9.1,0.6c-4.9,0.3-9.9,0.6-14.8,0.8c-1.4,0.1-2.9,0-4.3-0.2c-1.3-0.2-2.3-0.7-3.1-2.1
	c-1.1-1.9-2.6-3.7-4.4-5c-1.6-1.2-1.7-2.5-1.5-4.1c0.4-3.6,0.6-7.2,1-10.7c0.6-4.8,0.2-9.6-0.1-14.3c-0.5-7.7-1.1-15.3-1.5-23
	c-0.3-4.8-0.4-9.6-0.8-14.4c-0.2-1.9-0.9-3.7-1.4-5.5c-0.4-1.3-0.9-2.5-1.5-3.8c-2.6-6.1-5.3-12.1-7.9-18.2c-1.3-3-2.8-6-3.5-9.1
	c-0.7-2.9-0.7-6-0.5-9C211.7,156,212.5,153.2,213,150.3z M263.1,136.3c-0.3,0.1-0.5,0.1-0.8,0.2c0.1,0.7,0.1,1.5,0.2,2.2
	c1,3.9,2.1,7.7,2.9,11.6c1.1,5.8,2,11.6,3,17.4c0.6,3.6,1.2,7.2,1.5,10.9c0.7,8.4,1.3,16.7,1.8,25.1c0.4,7.3,0.4,14.7-0.6,22
	c-0.4,3.3-0.2,6.7-0.1,10.1c0,0.9,0.3,1.7,1.8,1.5c0-0.7,0-1.4,0-2.1c0-3.4-0.1-6.9,0-10.3c0.1-1.9,0.5-3.8,0.5-5.7
	c0-7.5,0-15-0.3-22.5c-0.3-6.6-0.8-13.2-1.5-19.8c-0.5-4.6-1.3-9.2-2-13.7c-1.3-8.1-2.5-16.2-5.2-24.1
	C264,138.1,263.5,137.2,263.1,136.3z"/>
<path class="st1" d="M271.7,315c-0.8,0.6-1.4,0.9-1.5,1.3c-1.5,5.2-4.4,9.7-6.9,14.4c-1.4,2.7-3,5.3-4,8.1
	c-2.1,5.6-5.9,10.2-8.8,15.3c-2.7,4.8-5.8,9.3-8.5,14c-2.7,4.8-5.1,9.7-7.8,14.5c-2.4,4.1-5.1,7.9-7.6,11.9
	c-2.4,3.7-4.9,7.5-7.3,11.2c-1.5,2.4-3,4.9-4.3,7.4c-0.8,1.6-1.4,3.4-2,5.1c-0.6,1.5-1.1,3.1-1.8,4.6c-0.3,0.7-0.6,1.2-0.1,2
	c1.2,2.1,1.5,4.5,1.4,6.9c-0.2,4.8-0.5,9.6-0.8,14.3c-0.1,1.9-0.4,3.8-0.6,5.7c-0.6,4.8-1.1,9.5-1.8,14.2c-0.8,5-1.5,10.1-2.6,15.1
	c-1.2,5.4-2.8,10.8-4.2,16.2c-1.7,6.8-2.4,13.7-2.4,20.6c0,3-0.1,6.1,0.6,9c0.6,2.7,1.3,5.4,2,8.1c0.7,2.6,1.5,5.2,2.3,8.2
	c-1.3-0.8-2.2-1.4-3-1.8c-3.4-1.8-7-2.9-10.9-3.2c-3.3-0.2-6.5-0.7-9.8-0.7c-2.6,0-5.2,0.6-7.8,1.1c-3,0.6-6,1.3-9.3,2
	c1.1-2.4,2.2-4.6,3.2-6.9c1-2.3,1.9-4.7,2.7-7.1c0.8-2.4,1.5-4.9,2.3-7.3c0-0.1,0-0.2,0.1-0.2c2-2,1.4-4.7,2.2-7.1
	c0.8-2.4,1.1-5,1.1-7.5c0.1-3.7-0.3-7.3-0.4-11c-0.1-1.6-0.1-3.2,0.1-4.8c1-9.2,2.1-18.4,3.1-27.6c0.7-6.6,1.2-13.2,1.7-19.8
	c0.3-4.3,0.6-8.6,0.8-12.9c0-0.2-0.1-0.6,0.1-0.7c1.3-1.4,0.6-3,0.4-4.5c-0.4-3.2-1-6.3-1.2-9.5c-0.2-3.8,0.3-7.6,1.9-11
	c1.6-3.5,3.6-6.7,5.5-10.1c0.3-0.6,0.7-0.9,0.3-1.7c-0.2-0.4,0.1-1,0.3-1.5c1.3-4.1,2.8-8.1,3.9-12.3c1.6-5.4,2.9-10.9,4.4-16.4
	c1.9-7.2,3.6-14.4,5.7-21.5c1.9-6.3,3.8-12.5,6.4-18.5c3-6.8,5.8-13.6,8.7-20.4c1.1-2.5,2.5-4.8,3.8-7.2c1.9-3.5,3.3-7.3,4.5-11.1
	c0.9-2.8,1.8-5.6,2.8-8.5c1.8,0.5,3.2,1.3,3.4,3.4c0.2,1.5,1.2,2.1,2.4,2.2c2.8,0.3,5.7,0.7,8.6,0.7c2.4,0.1,4.8-0.1,7.2-0.4
	c6.1-0.7,12.3-0.5,18.3-1.6c0.6-0.1,1.2,0.1,1.9,0.3c4.7,0.9,9.3,2.1,14.1,2.7c2.6,0.3,5.4-0.1,8.1-0.4c3.5-0.3,7-0.8,10.4-1.3
	c3.9-0.6,7.9-1.2,11.4-3.3c0.1-0.1,0.3,0,0.8-0.1c0.4,1.4,1,2.9,1.3,4.4c1,3.9,1.8,7.9,2.8,11.9c2.9,11,5.9,22,8.8,33
	c0.9,3.3,2,6.6,2.8,9.9c1.4,6.4,2.5,12.8,3.9,19.2c0.7,3.2,1.6,6.3,2.5,9.5c1.6,5.8,3,11.6,4.8,17.3c1.1,3.4,2.6,6.6,4,10
	c2.1,5.1,4.4,10.1,6.3,15.2c1.7,4.8,3.3,9.7,3.5,14.9c0,0.9,0.4,1.7,0.6,2.6c0.1,0.8,0.1,1.7,0.1,2.5c0,0.6-0.1,1.3,0,1.9
	c0.6,3.3,1.3,6.6,1.8,9.9c0.7,5.2,1.3,10.4,2,15.7c0.3,2.8,0.7,5.5,0.9,8.3c0.1,1.5,0.2,3,0.2,4.5c0.1,5.3,0.2,10.7,0.3,16
	c0,1.8-0.4,3.6-0.3,5.5c0.2,7.4-1.7,14.6-2.4,21.9c-0.6,6.8-0.1,13.5,2.1,20.1c1.1,3.3,2,6.5,3.2,9.8c0.7,1.8,1.7,3.4,2.6,5.3
	c-2.2,0-4.1,0-6,0c-1.2,0-2.3,0-3.5,0c-1.4,0-2.9,0.3-4.3,0.2c-3.9-0.4-7.6,0.5-11.2,1.8c-3.2,1.1-6.6,1.6-10,2.4
	c-0.7-1.9-0.3-3.5-0.2-5.2c0.4-4.4,0.9-8.9,1.3-13.3c0.2-2.1,0.5-4.3,0.6-6.4c0.1-2.4,0.4-4.8,0-7.1c-1.6-9.4-2-18.9-2.5-28.4
	c-0.4-7.3-0.9-14.7-1.1-22c-0.2-7.8,0.7-15.6,2.2-23.3c0.2-0.8,0.2-1.5,0.3-2.4c-1.3,0.2-1.3,0.2-1.8,1.8c-1.3-2.5-2.7-4.9-3.8-7.3
	c-2.8-6.1-6.3-11.8-9.7-17.6c-3.9-6.6-7.5-13.4-10.4-20.5c-0.6-1.5-1.4-2.9-2.1-4.3c-2.9-6-5.7-12.1-8.7-18.1
	c-2.3-4.6-5.1-8.9-7.4-13.4c-3.1-6.2-5.9-12.6-9-18.8c-2.7-5.4-5.2-11-7.3-16.7c-0.7-1.8-0.9-3.5-0.1-5.3
	C272.3,319.3,272.1,317.4,271.7,315z"/>
<path class="st2" d="M232.8,34.4c1.2-0.2,2-0.3,2.7-0.4c0.1,0.1,0.1,0.2,0.1,0.3c-0.3,0.2-0.6,0.4-0.9,0.6c-0.4,0.2-0.7,0.5-1.3,0.9
	c1.8,0.4,2.9-0.6,3.9-1.4c1.6-1.5,3.3-2,5.4-1.8c3.1,0.2,6.1-0.2,8.8-2.1c2.3-1.6,5-2.2,7.8-1.7c2.9,0.6,5.4-1,8.1-1.3
	c0.8-0.1,1.7-0.2,2.3,0.2c2.2,1.5,4.3,1.3,6.6,0.3c0.4-0.2,0.7-0.3,1.2-0.5c0.6,0.4,1.1,0.8,1.8,1.3c0.7-0.3,1.3-0.5,2.2-0.8
	c0.7,3.6,1.8,7,1.6,10.6c-0.2,4.6-0.3,9.2-0.4,13.9c0,2.8,0.5,5.6,0.3,8.3c-0.6,7.2-2.2,14.3-5.5,20.9c-1,2.1-1.9,4.2-2.9,6.3
	c-0.5,0.9-1.1,1.7-1.9,2.4c-3.1,2.8-6.6,4.5-10.8,5.1c-4.7,0.7-8.5-0.7-11.9-4c-3.9-3.9-6.3-8.8-9.3-13.3c-1-1.5-2-2.9-2.9-4.4
	c-0.4-0.8-0.8-1.7-0.8-2.6c-0.2-5.3-0.6-10.5-1.8-15.6c-0.6-2.6-0.7-5.4-1.1-8c-0.1-0.5,0-1-0.2-1.4
	C232.4,42.2,233.6,38.3,232.8,34.4z M272.4,77.6L272.4,77.6c-2.9-2.4-3.9-2.4-7.6-0.3c-0.5-0.2-1.1-0.5-1.7-0.8
	c-2-1.1-3.1-1-4.3,0.8c-1.1,1.7-2.4,2.9-4.2,3.6c-0.1,0-0.1,0.3-0.2,0.7c1-0.2,1.8-0.3,2.6-0.6c1.3-0.5,2.3-0.4,3.2,0.7
	c0.3,0.4,0.7,0.7,1.1,1c2.1,1.8,5.4,1.8,7.4,0c1.7-1.5,3.4-3.2,5.2-5C273.3,77.6,272.8,77.6,272.4,77.6z M267.7,64.1
	c-2.5-3.9-2.8-8-2.4-12.7c3.6,2.1,6.6,1.1,9.4-1.3c-0.7,0.1-1.4,0.2-2.1,0.4c0-0.7,0-1.3,0-2.1c1,0,1.9,0,3.1,0
	c-1.8-2-3.8-1.3-6.3-1.3c1.9-1.4,3.3-2.6,4.9-3.6c1.7-1,3.5,0,5.8,0.3c-0.7-0.7-1-1.1-1.3-1.3c-2.1-1.1-4.3-1.1-6.3,0.2
	c-3.3,2.1-6.6,4.3-9.8,6.3c0.3,1.1,0.8,2.2,0.8,3.1c-0.1,4.5,1.3,8.6,2.4,13.1C266.6,64.9,267.1,64.5,267.7,64.1z M251.7,53.1
	c-1.1,0.2-2,0.4-3.3,0.7c0.5-1,0.8-1.6,1.1-2.2c2.4,0.2,4.7,1.7,7-0.4c-0.5-0.4-0.9-0.8-1.3-1c-3.9-1.5-7.9-3-11.8-4.4
	c-0.9-0.3-1.9-0.4-2.8-0.4c-1.8,0-2.5,0.8-3.2,3.2c0.8-0.6,1.4-1,1.9-1.3c1-0.6,2-1.1,3.1-0.5c1.9,0.9,3.8,1.8,6.1,2.9
	c-3.2,0.6-5.9,1-8,3.1C244.4,56,249.6,56.2,251.7,53.1z M266.5,68.8c-2.4-0.5-4.8-1.6-7.4-1.2c0,0.3,0,0.6,0,0.6
	c1.2,1.4,5.7,2.4,7.4,1.6c0.3-0.1,0.5-0.3,0.8-0.5c0.7-0.6,1.4-1.2,2.1-1.9C267.8,66.7,267.4,68.3,266.5,68.8z M265.1,39
	c-4.3,1-8.5,1.3-12.6,1.6c3.5,1.3,6.9-0.6,10.4-0.5C263.6,40.1,264.4,39.4,265.1,39z M244.7,57.3c2.4,0.4,4.3,0.1,6.1-1.2
	C248.9,56.4,247,56.8,244.7,57.3z"/>
<path class="st2" d="M19.5,144.4c2.9-1.9,5.7-2.4,8.5-1.9c3.3,0.7,6.5-0.4,9.7-0.2c1.3,0.1,1.5-0.9,1.2-2.1
	c-0.5-0.2-1.1-0.4-1.7-0.6c-3.2-1.2-6-2.8-8.2-5.5c-2.1-2.7-4.7-5-7-7.5c-1.6-1.8-3-3.7-4.4-5.7c-0.5-0.6-0.7-1.4-1.1-2.2
	c2.2-0.4,3.7,0.4,5.1,1.4c3.6,2.7,7.2,5.5,10.7,8.4c1.2,1,1.2,1.1,2.7-0.1c-1.2-0.9-2.4-1.9-3.6-2.7c-4.7-3.3-8.8-7-12.4-11.4
	c-0.5-0.6-0.9-1.3-1.4-1.9c-1.2-1.5-1.6-2.9,0-4.3c0.1-0.1,0.1-0.4,0.1-0.9c2.8,1.4,5.6,2.7,7.2,5.2c2.8,4.6,7.1,7.4,11.4,10.3
	c1.8,1.3,3.6,2.5,5.5,3.8c0.4,0.3,0.9,0.3,1.3,0.5c1-0.5,0.9-1.2,0.3-1.7c-3.1-2.5-4.7-6.3-7.5-9c-1.7-1.6-3.2-3.3-4.7-5.1
	c-1.2-1.5-2.3-3.1-3.3-4.7c-0.4-0.7-1.3-1.8-0.5-2.6c1-0.9,1.7,0.3,2.4,0.8c1,0.7,2,1.6,2.8,2.5c3.7,3.8,7.4,7.7,11.2,11.4
	c2,1.9,4.4,3.4,6.6,5.1c2.1,1.5,4.4,2.9,6.6,4.4c0.9,0.6,1.7,1.1,2.8,1.9c-0.5,0.8-1,1.7-1.5,2.5c-0.3,0.4-0.8,0.7-0.9,1.1
	c-0.1,0.4-0.1,1,0.2,1.2c0.2,0.2,1,0.3,1.2,0.1c0.8-0.7,1.6-1.4,2-2.3c1.8-4,3-8.1,1.2-12.5c-0.8-1.8-1.2-3.8-1.7-5.7
	c-0.4-1.7,0.2-3,2-3.6c1.5,0.8,1.9,2.3,2.5,3.6c1.6,3.8,3.3,7.6,4.9,11.4c0.2,0.4,0.3,0.7,0.6,1c1.8,2.3,1.7,4.8,0.8,7.3
	c-0.7,1.9-1.6,3.8-2.7,5.6c-1.9,3.1-4,6.1-6,9.2c-1.3,2-3,3.7-5.1,4.9c-1.7,1-3.3,1.3-5.4,0.4c-3.6-1.5-7.3-2.6-11.2-2.9
	c-2.8-0.2-5.4-0.9-8-2c-3.4-1.4-7-2.3-10.4-3.5C21.4,145.4,20.4,144.9,19.5,144.4z"/>
<path class="st3" d="M199.4,544.3c0.4,4.1,0.8,8.5,1.3,12.8c0.3,2.4,0.8,4.7,1.2,7c0.5,3,1.1,6,1.4,9c0.2,2.2-1.1,3.8-3,4.8
	c-1.6,0.8-3.4,1.4-5.1,2c-4,1.4-8.2,1.8-12.5,1.6c-2.1-0.1-4.2-0.6-6.3-1c-3.3-0.6-6.6-1.2-9.8-2c-2.4-0.6-4.3-1.9-5.4-4.3
	c-0.5-1.1-0.6-2.1-0.1-3.1c1.8-3.6,3.4-7.4,5.5-10.8c3-4.6,4-9.5,3.6-14.8c0-0.6,0-1.3-0.1-1.9c0-0.9,0.4-1.2,1.2-1.4
	c4.7-1.2,9.6-1.5,14.3-0.8C190.1,542,194.8,541.7,199.4,544.3z"/>
<path class="st3" d="M360,547.4c0,2.7-0.2,4.9,0,7.1c0.5,4.9,2.5,9.4,4.2,13.9c1.2,3.2,2.4,6.4,3.7,9.6c0.2,0.5,0.3,1.1,0.5,1.6
	c1.5,3.9,0.2,7-3.1,9.2c-4.7,3.2-10,5.4-15.8,5.6c-4.5,0.1-8.6-1.4-12.1-4.3c-2.5-2.1-3.6-4.7-3.1-8.3c0.4,0.3,0.6,0.5,0.8,0.7
	c3.4,4,7.9,5.4,12.9,6.1c1.6,0.2,3.3,0.4,5,0.4c4,0.2,7.5-1.3,10.9-3c0.8-0.4,1.3-1.3,1.9-2c-0.7-1.1-1.3-1.1-2.1-0.5
	c-2.8,2.2-6.1,3.4-9.5,3.5c-5,0.1-10.1,0.1-14.6-2.7c-1.3-0.8-2.6-1.9-3.7-3c-1.1-1.2-1.6-2.6-1.6-4.4c0.1-5.9,0.6-11.6,3.1-17.1
	c1.1-2.4,1.1-5.1,1.2-7.8c0.1-1.5,0.5-2.1,2.1-2.6c3.9-1.2,7.8-2.2,12-1.7c1,0.1,2.1-0.1,3.1-0.2C357.1,547.5,358.4,547.5,360,547.4
	z"/>
<path class="st2" d="M249.3,93.6c0.8,0.4,1.5,0.6,2,1.1c4.1,3.5,8.8,3.2,13.6,1.9c3.2-0.9,6-2.5,8.3-4.9c1.1-1.1,2.3-2,3.5-3.1
	c0.2,1.6,0.5,3.4,0.5,5.3c0.1,2.9,0.9,5.5,2.5,7.9c0.7,1.1,0.6,1.9-0.2,2.8c-1.8,2-4,3.6-6.4,4.5c-4.4,1.7-8.9,3.5-13.6,4.5
	c-3.6,0.8-7.5,0.9-11.1-0.5c-1-0.4-2-1.1-2.6-1.9c-0.4-0.6-0.6-1.8-0.3-2.4c2.3-4.4,3-9.2,3.6-14.1
	C249.1,94.5,249.1,94.3,249.3,93.6z"/>
<path class="st2" d="M323.3,261.4c-0.3,0.7-0.4,1.1-0.7,1.5c-1.6,2.5-3.2,4.9-4.8,7.4c-2.3,3.5-5.7,5.6-9.7,6.5
	c-3.2,0.7-6.6,1.1-9.8,1.7c-4.3,0.8-8.7,1-13.1,0.9c-2.3-0.1-4.5-0.3-6.8-0.5c0-0.2-0.1-0.3-0.1-0.5c0.4-0.3,0.7-0.7,1.2-0.9
	c1.8-0.9,3.6-1.7,5.4-2.4c3-1.1,5.4-3,7.4-5.4c3-3.5,6.2-6.9,9.4-10.2c0.9-0.9,2-1.6,3.1-2.1c1.2-0.6,2.3-0.5,3.6,0.3
	c1.3,0.8,2.9,1.1,4.5,1.5c2.5,0.6,5,1.7,7.7,1.6C321.4,260.5,322.2,261,323.3,261.4z"/>
<path class="st3" d="M160.8,579c1.6,0.8,2.7,1.5,3.9,1.9c3.4,1.1,6.9,2,10.3,2.9c1.9,0.5,3.9,0.7,5.9,1.1c3.2,0.6,6.3-0.1,9.5-0.2
	c0.9,0,1.8-0.1,2.6-0.3c1.3-0.4,2.5-0.8,3.7-1.4c2.4-1.2,4.7-2.5,6.9-3.8c0.5,1.8,1,3.6,1.5,5.4c-0.6,0.3-1.1,0.6-1.7,0.8
	c-3.7,0.9-7.4,1.9-11.1,2.7c-4.9,1-9.9,1.9-14.9,1.8c-3.9,0-7.4-1-10.8-2.8C163.6,585.3,162.1,582.5,160.8,579z"/>
<path class="st4" d="M245.1,23.9c1.8-3,2.3-4.5,3-8.9c0.8-0.4,1.7-0.7,2.5-1.1c0.1,0.1,0.2,0.2,0.3,0.2c-1,1.7-2.1,3.3-3.1,5
	c0.1,0.1,0.3,0.2,0.4,0.3c2.5-2.7,4-6.1,6.5-8.9c-0.5,1-0.9,2.1-1.5,3.1c-0.8,1.5-2.2,2.8-2.1,4.6c0,0.1-0.1,0.3-0.2,0.3
	c-1.5,0.1-1.5,1.5-1.9,2.5c-0.9,2-1.9,3.9-3.5,5.3c-0.5,0.4-0.9,0.9-1.3,1.4c-0.8,1-1.4,2-2.9,1.6c-0.2,0-0.5,0.1-0.6,0.3
	c-1.1,2-3.1,1.8-5.1,2c1-0.9,2.1-1.8,2.9-2.8c0.5-0.6,1.8-1.1,1-2.3c-0.1-0.2,0.6-0.8,0.9-1.3c0.6-1,1.3-2,1.9-2.9l-0.1,0.1
	c1.2,0.2,1.4-0.9,2-1.5l-0.1,0.1c0.6-0.5,1.2-1,2.2-1.7C245.9,21.1,245.5,22.5,245.1,23.9c-1.2,1-1.5,1.5-1.7,3
	C244,25.8,244.5,24.9,245.1,23.9z"/>
<path class="st4" d="M252.3,20.5c-0.9,1.1-1.8,2.3-2.7,3.4c2,0.2,2.5-1.8,4.1-2.5c-0.4,1.9-1.9,2.7-3.1,4.3c0.8,0.2,1.4,0.3,2,0.4
	c0.4,0.1,0.8,0.1,1.2,0.2c-0.2,0.2-0.4,0.4-0.6,0.5c-2.5,3.1-6,3.6-10.1,4.1c1.3-1.7,2.2-3.3,3.4-4.4c1.3-1.2,2.3-2.5,3.2-4
	c1.3-2.3,2.5-4.8,3.8-7.1c0.1-0.2,0.3-0.5,0.8-1.1c-0.3,1.4-0.4,2.2-0.6,3l0.1-0.1C253.2,18.3,252.7,19.4,252.3,20.5L252.3,20.5z"/>
<path class="st2" d="M235.1,68.3c-2.6-1.5-3.4-3.6-4-5.9c-0.5-1.8-1-3.7-1.4-5.5c-0.4-1.5-0.7-3-1.2-5c2,1,3.1,1.8,3.5,3.7
	C232.9,59.6,234,63.7,235.1,68.3z"/>
<path class="st4" d="M265.7,15.8c0.2-0.1,0.5-0.3,0.9-0.5c-0.1,1-0.3,1.9-0.4,2.9l0.1-0.1c-0.5,1.2-1,2.4-1.6,3.6
	c-0.5,1.1-1.2,2.2-1.8,3.2c0.2,0.1,0.4,0.2,0.6,0.3c1.7-2.5,3.4-5,5.1-7.4c0.2-0.2,0.1-0.6,0.1-0.9l0.1-0.1c0.4-0.3,0.7-0.6,1.2-0.9
	c-0.1,2.8-1.3,5.2-2.8,7.2c-1.1,1.6-2.9,2.9-4.7,3.8c-1.1,0.5-2.7-0.1-4.3-0.2c0.4-0.7,0.6-1.4,1.6-1.4c0,0.3,0,0.6,0.1,1.2
	c2.3-2.5,3.8-5,4.5-7.9C264.7,17.6,265.2,16.6,265.7,15.8L265.7,15.8z"/>
<path class="st2" d="M284.6,48.3c0.4-0.3,0.7-0.5,0.9-0.7c0.6-0.5,1.3-1,1.9-0.3c0.3,0.4,0.4,1.1,0.3,1.7c-0.2,2.3-0.6,4.6-0.7,6.9
	c-0.1,2-0.1,2-2.4,3.4C284.1,55.4,284.8,51.8,284.6,48.3z"/>
<path class="st4" d="M271.8,26.6c4.6-1,7.7-4.1,11.2-7.2c-0.5,2.1-0.7,4.3-2.9,4.9c-0.9,0.2-1.6,0.7-2.4,1c-0.4,0.2-0.6,0.7-0.9,1
	C275.6,27.5,273.8,27.7,271.8,26.6z"/>
<path class="st4" d="M265.8,25.7c2.8-2.5,4.7-5.3,6.4-8.7C271.7,22.5,269.1,25.7,265.8,25.7z"/>
<path class="st4" d="M229.5,26.3c1.7-2,3.9-2.5,6.2-3.6c-1.2,2.3-2.9,3.2-4.3,4.5C230.7,27,230.3,26.7,229.5,26.3z"/>
<path d="M264.1,18.6c-0.6,3-2.2,5.5-4.5,7.9c-0.1-0.6-0.1-0.9-0.1-1.2l-0.1,0.1c0.8-0.7,1.6-1.5,1.5-2.7c0.3-0.5,0.6-0.9,0.9-1.3
	c0.5-0.8,1-1.6,1.5-2.4C263.6,18.8,263.8,18.7,264.1,18.6L264.1,18.6z"/>
<path class="st4" d="M239,24c-1.2,3-3.5,4.9-6.1,6.3c-0.1-0.1-0.3-0.3-0.4-0.4C234.7,27.9,236.8,25.9,239,24z"/>
<path class="st4" d="M276.9,18.2c0.7-1.7,1.3-3.4,2.1-5.4C280.1,15.5,279.7,16.4,276.9,18.2z"/>
<path class="st4" d="M260,20c0.1-0.3,0.3-0.6,0.4-0.9c0.2-0.1,0.4-0.2,0.6-0.3c-0.3,3-1.8,5.6-4.5,7.2C257.8,23.8,258.9,21.9,260,20
	z"/>
<path class="st4" d="M272.5,11.5c0.4,2.8-1.1,4.9-2.2,7C270.5,16.1,270.4,13.5,272.5,11.5z"/>
<path class="st4" d="M276.1,18.2c-0.2,2.8-2.5,4-4.1,5.8C272.5,21.5,274.8,20.2,276.1,18.2z"/>
<path class="st4" d="M273.1,8.1c1.5,2.6,1.4,5,0.5,7.6c-0.1-0.4-0.1-0.6-0.1-0.8c0-0.3,0.2-0.6,0.2-0.9c-0.1-1.1,0.2-2.5-0.4-3.1
	C272.5,9.8,273,9.2,273.1,8.1z"/>
<path class="st4" d="M280.3,19.3c1.2-1.6,0.1-3.9,2.1-5.5C282.4,16.2,281.4,17.8,280.3,19.3z"/>
<path class="st4" d="M282.2,18.3c0.6-2.5,1.1-4.6,1.6-6.5C284.2,14.3,284,15.2,282.2,18.3z"/>
<path class="st4" d="M231.5,33.2c0,2.2,0,4.3,0,6.5c-0.1,0-0.2,0-0.3,0c0-2.1,0-4.3,0-6.4C231.3,33.3,231.4,33.2,231.5,33.2z"/>
<path class="st4" d="M256.1,21.5c-0.9,1.1-1.8,2.2-2.6,3.3c-0.2-0.1-0.3-0.2-0.5-0.4c0.9-1.1,1.7-2.2,2.6-3.3
	C255.8,21.3,256,21.4,256.1,21.5z"/>
<path class="st4" d="M273.2,17.6c0.5,0.1,0.8,0.2,1.4,0.3c-0.8,1.1-1.5,2.1-2.1,3c-0.1-0.1-0.3-0.1-0.4-0.2
	C272.4,19.7,272.8,18.7,273.2,17.6z"/>
<path class="st4" d="M253.1,26.8c0.2-0.2,0.4-0.4,0.6-0.5c0.6-0.8,1.3-1.6,1.9-2.4v-0.1c-0.2,1-0.5,2-0.8,3.4
	C254.4,27.1,253.8,27,253.1,26.8z"/>
<path class="st4" d="M227.2,30.3c0.3-1.1,0.6-2.2,0.8-3.3c0.1,0,0.2,0.1,0.4,0.1c-0.3,1.1-0.6,2.1-0.9,3.2
	C227.4,30.3,227.3,30.3,227.2,30.3z"/>
<path class="st4" d="M236.1,29.7c0.8-0.8,1.7-1.5,2.5-2.3c0.1,0.1,0.1,0.1,0.2,0.2c-0.8,0.8-1.6,1.6-2.4,2.4
	C236.3,29.9,236.2,29.8,236.1,29.7z"/>
<path class="st4" d="M229.2,32.1c0,0.8,0,1.6,0,2.4c-0.1,0-0.2,0-0.2,0c0-0.8,0-1.6,0-2.4C229,32.2,229.1,32.1,229.2,32.1z"/>
<path class="st4" d="M260.9,22.6c0.1,1.2-0.7,2-1.5,2.7C259.6,24.3,260,23.3,260.9,22.6z"/>
<g>
	<path class="st4" d="M242.1,22.6c-0.7,0.5-1.3,1-2,1.5c1.6-3.7,5-6.2,5.9-10.5c0.8,1.5,1.3,2.3-0.2,3.5c-1.1,0.9-1.3,2.8-1.9,4.2
		l0.1-0.1C243.1,21.3,242.3,21.6,242.1,22.6L242.1,22.6z"/>
	<path class="st4" d="M253.5,17.4c0.4-0.8,0.8-1.6,1.3-2.4c0.6-0.8,1.3-1.5,2.3-2.1c0,0.3,0,0.7-0.1,1c-1.3,2.3-2.7,4.6-4.1,6.9
		c-0.2,0.4-0.6,0.6-0.8-0.1l-0.1,0.1c0.5-1.2,1-2.3,1.5-3.5L253.5,17.4z"/>
	<path class="st4" d="M259.9,20.2c-0.8,0.8-1.6,1.7-2.4,2.5c0-0.3,0-0.6,0-0.8c1.6-3.1,3.2-6.1,4.8-9.3c-0.3,1.8-0.1,3.6-1.3,5.2
		c-0.3,0.4-0.4,1-0.6,1.5C260.2,19.6,260,19.9,259.9,20.2z"/>
	<path class="st4" d="M259.4,15c-0.4,2.6-2.6,3.8-4.2,5.4c0.6-1.4,1-2.9,1.9-4.2C257.5,15.6,258.6,15.4,259.4,15z"/>
	<path class="st4" d="M263.8,17.9c0.7-2.4,1-5,3.3-6.8c-0.5,1.6-1.1,3.2-1.6,4.8l0.1-0.1C265,16.5,264.4,17.2,263.8,17.9z"/>
	<path class="st4" d="M268.6,17L268.6,17c-0.9,1.2-1.7,2.3-2.8,3.8c0.2-1.2,0.3-1.9,0.3-2.5l-0.1,0.1c0.3-0.7,0.6-1.4,1-2
		c0.1-0.2,0.5-0.3,0.8-0.5l0,0c0.1,0.1,0.2,0.4,0.3,0.4C269.1,16.1,268.9,16.5,268.6,17z"/>
	<path class="st4" d="M263.2,19.1c-0.5,0.8-1,1.6-1.5,2.4c0.5-2.2,1-4.4,1.5-6.6c0.2,0,0.3,0.1,0.5,0.1
		C263.5,16.3,263.4,17.7,263.2,19.1z"/>
	<path class="st4" d="M241.9,17.8c-0.5,1-1,1.9-1.5,2.9c-0.4-1.4,0.3-2.3,0.9-3.2C241.5,17.6,241.7,17.7,241.9,17.8z"/>
	<path class="st4" d="M237.2,22.7c-0.3,0.4-0.5,0.9-0.8,1.3c-0.1-0.1-0.2-0.1-0.3-0.2c0.3-0.5,0.5-0.9,0.8-1.4
		C237,22.5,237.1,22.6,237.2,22.7z"/>
</g>
<path d="M263.1,136.3c0.4,0.9,0.9,1.8,1.2,2.8c2.7,7.8,3.9,15.9,5.2,24.1c0.7,4.6,1.6,9.1,2,13.7c0.7,6.6,1.2,13.2,1.5,19.8
	c0.3,7.5,0.3,15,0.3,22.5c0,1.9-0.5,3.8-0.5,5.7c-0.1,3.4,0,6.9,0,10.3c0,0.7,0,1.4,0,2.1c-1.5,0.3-1.8-0.6-1.8-1.5
	c0-3.4-0.3-6.8,0.1-10.1c1-7.3,1-14.7,0.6-22c-0.5-8.4-1.1-16.7-1.8-25.1c-0.3-3.7-0.9-7.3-1.5-10.9c-0.9-5.8-1.8-11.6-3-17.4
	c-0.8-3.9-1.9-7.7-2.9-11.6c-0.2-0.7-0.2-1.5-0.2-2.2C262.6,136.4,262.9,136.4,263.1,136.3z"/>
<path d="M267.7,64.1c-0.6,0.4-1.2,0.8-1.9,1.3c-1.2-4.5-2.5-8.7-2.4-13.1c0-1-0.5-2-0.8-3.1c3.2-2,6.5-4.2,9.8-6.3
	c2.1-1.3,4.2-1.3,6.3-0.2c0.4,0.2,0.6,0.6,1.3,1.3c-2.3-0.4-4.1-1.4-5.8-0.3c-1.6,1-3,2.2-4.9,3.6c2.5,0,4.5-0.7,6.3,1.3
	c-1.2,0-2.1,0-3.1,0c0,0.7,0,1.4,0,2.1c0.7-0.1,1.4-0.2,2.1-0.4c-2.8,2.4-5.7,3.4-9.4,1.3C265,56.1,265.2,60.2,267.7,64.1z
	 M266.1,50.6c1.1,0.5,2,1.2,3.5,0.8c-0.5-0.7-0.9-1.3-1.3-1.9C267.5,49.8,266.8,50.1,266.1,50.6z"/>
<path d="M251.7,53.1c-2.1,3.1-7.3,2.9-11.3-0.3c2.1-2.1,4.9-2.5,8-3.1c-2.3-1.1-4.2-2-6.1-2.9c-1.1-0.5-2.2-0.1-3.1,0.5
	c-0.5,0.4-1.1,0.7-1.9,1.3c0.7-2.4,1.4-3.2,3.2-3.2c0.9,0,1.9,0.1,2.8,0.4c4,1.4,7.9,2.9,11.8,4.4c0.5,0.2,0.8,0.6,1.3,1
	c-2.4,2.1-4.7,0.6-7,0.4c-0.3,0.6-0.6,1.2-1.1,2.2C249.7,53.6,250.6,53.4,251.7,53.1z M244.5,52.1c-0.7,0.3-1.1,0.5-2,1
	c1.1,0.3,1.7,0.4,2.5,0.6C244.8,53,244.7,52.7,244.5,52.1z"/>
<path d="M272.4,77.6c0.4,0,0.9,0.1,1.5,0.1c-1.9,1.8-3.5,3.4-5.2,5c-2,1.8-5.3,1.8-7.4,0c-0.4-0.3-0.8-0.6-1.1-1
	c-0.9-1.1-1.9-1.2-3.2-0.7c-0.8,0.3-1.6,0.4-2.6,0.6c0.1-0.5,0.1-0.7,0.2-0.7c1.9-0.7,3.1-1.9,4.2-3.6c1.2-1.8,2.3-1.9,4.3-0.8
	c0.6,0.3,1.1,0.5,1.7,0.8C268.5,75.1,269.5,75.2,272.4,77.6c-0.4,0.1-0.9,0.1-1.4,0.1c-0.6-0.6-1.2-1.1-1.7-1.6
	c-1.6,0.7-3.2,0.9-4.1,2.5c0.8,0.8,1.7,0.6,2.2,0.1c1.1-1.2,2.4-0.9,3.7-1c-0.1,0.2-0.2,0.6-0.4,0.6c-0.9,0.1-1.9,0-2.1,1.3
	c0,0.2-0.5,0.3-0.8,0.5c-1.7,0.7-3.3,0.8-5.1,0.1c-0.9-0.4-1.9-1-2.7,0.2c2.8,3.4,6.4,3.4,8.6,1.2c1.1-1,2.4-1.8,3.5-2.8
	C272.4,78.4,272.3,77.9,272.4,77.6z M264.7,78.9c-3.1-2.7-3.6-2.8-5-0.9C261.3,78.3,262.8,78.6,264.7,78.9z"/>
<path d="M266.5,68.8c0.9-0.5,1.3-2.1,2.9-1.4c-0.8,0.7-1.5,1.3-2.1,1.9c-0.2,0.2-0.5,0.4-0.8,0.5c-1.7,0.7-6.2-0.3-7.4-1.6
	c-0.1-0.1,0-0.3,0-0.6C261.7,67.2,264,68.3,266.5,68.8z"/>
<path d="M265.1,39c-0.7,0.4-1.5,1.1-2.2,1.1c-3.5-0.1-6.9,1.8-10.4,0.5C256.7,40.3,260.8,40,265.1,39z"/>
<path d="M244.7,57.3c2.3-0.5,4.1-0.8,6.1-1.2C249,57.4,247.2,57.7,244.7,57.3z"/>
<path d="M245.1,23.9c-0.6,1-1.1,2-1.7,3C243.6,25.3,243.9,24.9,245.1,23.9L245.1,23.9z"/>
<path d="M248.6,27.2c0.2-1.1,1.1-1.4,2-1.5C250.1,26.4,249.8,27.5,248.6,27.2z"/>
<path d="M266.2,18.1c-0.1,0.7-0.2,1.4-0.3,2.5c1.1-1.5,1.9-2.6,2.7-3.7c0,0.3,0.1,0.7-0.1,0.9c-1.7,2.5-3.4,5-5.1,7.4
	c-0.2-0.1-0.4-0.2-0.6-0.3c0.6-1.1,1.2-2.1,1.8-3.2C265.2,20.5,265.7,19.3,266.2,18.1z"/>
<path class="st4" d="M266.1,50.6c0.8-0.4,1.5-0.8,2.2-1.2c0.4,0.6,0.8,1.2,1.3,1.9C268.1,51.8,267.1,51.1,266.1,50.6z"/>
<path class="st4" d="M244.5,52.1c0.2,0.6,0.3,0.9,0.6,1.6c-0.8-0.2-1.4-0.4-2.5-0.6C243.4,52.6,243.8,52.4,244.5,52.1z"/>
<path class="st2" d="M272.4,77.6c-0.1,0.4,0,0.9-0.2,1c-1.1,1-2.5,1.7-3.5,2.8c-2.2,2.2-5.8,2.2-8.6-1.2c0.9-1.1,1.9-0.5,2.7-0.2
	c1.7,0.8,3.4,0.6,5.1-0.1c0.3-0.1,0.8-0.3,0.8-0.5c0.2-1.3,1.2-1.1,2.1-1.3c0.1,0,0.2-0.4,0.4-0.6l0,0
	C271.5,77.7,272,77.6,272.4,77.6L272.4,77.6z"/>
<path class="st2" d="M271,77.6c-1.3,0-2.6-0.2-3.7,1c-0.4,0.5-1.4,0.7-2.2-0.1c0.9-1.5,2.5-1.8,4.1-2.5
	C269.8,76.6,270.4,77.1,271,77.6L271,77.6z"/>
<path class="st2" d="M264.7,78.9c-1.9-0.3-3.4-0.6-5-0.9C261.1,76.1,261.6,76.2,264.7,78.9z"/>
<path class="st5" d="M255.1,194.6c-0.3-0.6-0.7-1.1-1-1.7c-2.5-5.6-4.8-11.3-7.5-16.8c-1.7-3.5-3.9-6.8-5.9-10.1
	c-0.4-0.8-1-1.5-1.4-2.2c-1.3-2.4-2.8-4.7-4.8-6.5c-2.4-2.2-4.3-5-7.3-6.5c-1.5-0.8-3-1.5-4.5-2.2c-1-0.4-1.1-1-0.6-2.2
	c1.1,0.4,2.3,0.8,3.3,1.3c3.2,1.5,5.8,4,8.4,6.3c2.4,2.1,4.3,4.5,5.9,7.2c2.8,4.8,5.8,9.5,8.4,14.5s4.8,10.2,7.1,15.4
	c0.5,1,0.4,2.3,0.5,3.5C255.5,194.4,255.3,194.5,255.1,194.6z"/>
<path class="st5" d="M284.7,189.4c-0.1-5.5-0.5-11,0.5-16.4c0.8-4.1,2.5-7.8,4.5-11.5c2.4-4.4,5.3-8.3,8.8-11.9
	c2.8-2.9,5.4-6.1,8.1-9.1c1.3-1.4,2.5-2.9,3.9-4.2c0.4-0.4,1.2-0.4,1.8-0.6c0.1,0.2,0.3,0.3,0.4,0.5c-0.5,0.7-0.9,1.4-1.4,2
	c-4.9,5.4-10,10.6-14.6,16.1c-7,8.2-11,17.7-10.8,28.7c0,1.9-0.1,3.8-0.3,5.7c0,0.3-0.2,0.5-0.3,0.8
	C285.1,189.5,284.9,189.5,284.7,189.4z"/>
</svg>
