<?xml version="1.0" encoding="utf-8"?>
<!-- Generator: Adobe Illustrator 16.0.4, SVG Export Plug-In . SVG Version: 6.00 Build 0)  -->
<!DOCTYPE svg PUBLIC "-//W3C//DTD SVG 1.1//EN" "http://www.w3.org/Graphics/SVG/1.1/DTD/svg11.dtd">
<svg version="1.1" id="Layer_1" xmlns="http://www.w3.org/2000/svg" xmlns:xlink="http://www.w3.org/1999/xlink" x="0px" y="0px"
	 width="119px" height="95px" viewBox="22.5 21.5 119 95" enable-background="new 22.5 21.5 119 95" xml:space="preserve">
<g>
	<path d="M125.441,26.165c2.641,8.977,5.229,17.451,7.604,25.983c1.367,4.915,2.656,9.882,3.469,14.908
		c0.551,3.415,0.693,6.961,0.162,10.47c-0.334,2.205-0.355,4.457-0.678,6.665c-0.771,5.259-2.896,9.974-6.385,13.958
		c-1.666,1.904-3.654,3.598-5.729,5.061c-3.926,2.77-8.197,5.094-12.732,6.568c-4.389,1.426-9.057,1.996-13.732,1.744
		c-1.105-0.061-2.232-0.277-3.287-0.617c-4.408-1.42-8.895-2.676-12.867-5.164c-1.188-0.744-2.188-0.25-3.139,0.271
		c-3.683,2.021-7.656,3.146-11.705,4.146c-7.105,1.756-14.279,1.721-21.396,0.547c-2.48-0.408-4.781-2.055-7.092-3.275
		c-1.262-0.666-2.363-1.635-3.549-2.447c-3.416-2.34-5.867-5.457-6.741-9.499c-1.056-4.886-1.622-9.87-1.446-14.886
		c0.138-3.901,0.42-7.801,0.74-11.692c0.473-5.72,0.988-11.438,1.584-17.146c0.335-3.209,1.432-6.197,2.943-9.062
		c2.572-4.877,5.037-9.811,7.554-14.718c0.357-0.698,0.743-1.381,1.235-2.293c0.832,0.356,1.551,0.632,2.24,0.967
		c4.315,2.093,8.644,4.159,12.928,6.312c3.265,1.641,6.766,2.424,10.323,2.952c4.513,0.669,9.053,0.986,13.626,0.701
		c2.073-0.129,4.16-0.137,6.238-0.074c7.48,0.229,14.846-0.512,22.051-2.581c3.451-0.992,6.922-1.952,10.295-3.173
		c1.617-0.585,3.033-1.73,4.521-2.652C123.406,27.563,124.299,26.929,125.441,26.165z M124.068,28.32
		c-1.172,0.753-2.148,1.411-3.154,2.019c-0.816,0.493-1.621,1.072-2.512,1.36c-3.496,1.127-6.979,2.338-10.549,3.171
		c-4.732,1.106-9.416,2.527-14.369,2.527c-6.479,0-12.961,0.338-19.435,0.193c-7.307-0.165-14.484-1.147-21.084-4.725
		c-3.37-1.827-6.883-3.392-10.336-5.062c-0.619-0.299-1.27-0.534-1.885-0.791c-0.244,0.327-0.42,0.5-0.523,0.708
		c-2.663,5.369-5.411,10.698-7.93,16.135c-0.962,2.075-1.62,4.356-2.015,6.614c-0.577,3.298-0.965,6.65-1.124,9.995
		c-0.34,7.175-1.969,14.259-1.383,21.499c0.232,2.863-0.172,5.805,0.277,8.619c1.205,7.547,5.666,12.93,12.265,16.445
		c3.538,1.885,7.585,2.48,11.554,2.82c7.119,0.611,13.808-1.18,20.086-4.422c2.092-1.078,4.105-2.438,5.18-4.776
		c0.39-0.847,1.104-1.569,1.76-2.261c0.884-0.932,1.615-0.879,2.362,0.142c0.47,0.643,0.854,1.353,1.228,2.059
		c2.226,4.204,6.062,6.46,10.363,7.55c4.184,1.059,8.625,0.723,12.861-0.023c3.578-0.629,7.225-1.441,10.297-3.684
		c0.441-0.324,1.014-0.467,1.518-0.709c4.77-2.293,8.652-5.744,11.838-9.854c3.297-4.256,4.617-9.401,5.221-14.688
		c0.27-2.361,0.576-4.803,0.273-7.131c-1.178-9.044-3.426-17.854-6.316-26.504c-0.76-2.274-1.449-4.573-2.119-6.875
		c-0.242-0.837-0.533-1.736-0.459-2.577C126.201,33.334,124.908,31.025,124.068,28.32z"/>
	<path fill="#BE232F" d="M124.068,28.32c0.84,2.705,2.133,5.014,1.889,7.776c-0.074,0.841,0.217,1.739,0.459,2.577
		c0.67,2.302,1.359,4.601,2.119,6.875c2.891,8.649,5.139,17.46,6.316,26.504c0.303,2.328-0.004,4.771-0.273,7.131
		c-0.604,5.286-1.924,10.432-5.221,14.688c-3.186,4.109-7.068,7.561-11.838,9.854c-0.504,0.242-1.076,0.385-1.518,0.709
		c-3.072,2.242-6.719,3.055-10.297,3.684c-4.236,0.746-8.678,1.082-12.861,0.023c-4.301-1.09-8.137-3.346-10.363-7.55
		c-0.373-0.706-0.758-1.416-1.228-2.059c-0.747-1.021-1.479-1.073-2.362-0.142c-0.656,0.691-1.37,1.414-1.76,2.261
		c-1.074,2.339-3.088,3.698-5.18,4.776c-6.278,3.242-12.967,5.033-20.086,4.422c-3.969-0.34-8.016-0.936-11.554-2.82
		c-6.599-3.516-11.06-8.898-12.265-16.445c-0.449-2.814-0.045-5.756-0.277-8.619c-0.586-7.24,1.043-14.324,1.383-21.499
		c0.159-3.344,0.547-6.697,1.124-9.995c0.395-2.258,1.053-4.539,2.015-6.614c2.519-5.437,5.267-10.766,7.93-16.135
		c0.104-0.208,0.279-0.382,0.523-0.708c0.615,0.256,1.266,0.491,1.885,0.791c3.453,1.67,6.966,3.234,10.336,5.062
		c6.6,3.578,13.777,4.56,21.084,4.725c6.474,0.146,12.957-0.193,19.435-0.193c4.953,0,9.637-1.421,14.369-2.527
		c3.57-0.833,7.053-2.044,10.549-3.171c0.891-0.288,1.695-0.867,2.512-1.36C121.92,29.73,122.896,29.073,124.068,28.32z"/>
</g>
</svg>
