<?xml version="1.0" encoding="utf-8"?>
<!-- Generator: Adobe Illustrator 16.0.4, SVG Export Plug-In . SVG Version: 6.00 Build 0)  -->
<!DOCTYPE svg PUBLIC "-//W3C//DTD SVG 1.1//EN" "http://www.w3.org/Graphics/SVG/1.1/DTD/svg11.dtd">
<svg version="1.1" id="Layer_1" xmlns="http://www.w3.org/2000/svg" xmlns:xlink="http://www.w3.org/1999/xlink" x="0px" y="0px"
	 width="190.49px" height="674.585px" viewBox="7.105 0 190.49 674.585" enable-background="new 7.105 0 190.49 674.585"
	 xml:space="preserve">
<path d="M104.682,24.316c-0.075-0.469-0.248-0.945-0.211-1.405c0.214-2.666,0.477-5.328,0.739-8.167
	c0.351,0.429,0.691,0.847,1.083,1.327c1.943-1.818,1.583-4.353,2.044-6.872c3.568,1.962,2.009,5.214,2.617,7.944
	c0.257-1.255,0.514-2.511,0.887-4.337c0.6,1.166,0.929,1.805,1.298,2.524c1.205-1.367,0.817-2.917,0.647-4.514
	c2.436,1.13,2.481,3.464,3.231,5.479c0.624-0.231,1.293-0.479,2.142-0.793c0.186-1.437,0.383-2.962,0.657-5.095
	c1.231,1.983,2.199,3.542,3.242,5.222c0.704-0.944,1.44-1.931,2.273-3.048c1.012,1.383,1.935,2.716,2.057,4.314
	c0.18,2.357,0.115,4.732,0.163,7.1c0.01,0.461,0.009,0.932,0.096,1.382c0.453,2.339,1.001,4.663,1.376,7.014
	c0.206,1.293,0.603,2.657-0.269,3.922c-0.151,0.22-0.219,0.734-0.081,0.877c1.043,1.078,0.569,2.408,0.639,3.621
	c0.215,3.752,0.238,7.519,0.553,11.261c0.177,2.103,1.022,4.158,1.127,6.256c0.121,2.444-0.071,4.939-0.467,7.356
	c-0.176,1.074-0.985,2.268-1.861,2.953c-1.4,1.094-1.996,2.479-2.242,4.072c-0.316,2.047-0.428,4.125-0.721,6.176
	c-0.49,3.44-1.918,6.568-3.346,9.695c-1.716,3.757-3.383,7.537-5.079,11.323c1.965,2.307,4.224,3.758,7.153,4.14
	c2.756,0.358,5.485,0.938,8.247,1.224c4.237,0.438,8.423,0.104,12.542-1.114c3.448-1.019,6.361-0.105,9.32,2.066
	c3.195,2.344,5.1,5.468,6.808,8.775c3.866,7.485,6.585,15.357,7.894,23.734c0.749,4.792,2.069,9.492,3.031,14.254
	c1.104,5.469,2.037,10.972,3.151,16.439c1.18,5.786,2.889,11.427,4.772,17.026c1.293,3.843,2.138,7.836,3.377,11.7
	c0.978,3.05,1.713,6.128,2.201,9.288c0.746,4.827,1.232,9.662,1.147,14.558c-0.041,2.297-0.628,4.336-1.672,6.392
	c-2.331,4.587-5.216,8.845-8.676,12.543c-2.322,2.481-4.571,5.055-6.968,7.472c-2.926,2.95-5.718,5.991-8.157,9.369
	c-3.311,4.583-6.71,9.102-10.147,13.591c-0.964,1.259-1.296,2.48-0.846,3.998c1.817,6.118,3.666,12.229,5.368,18.379
	c1.062,3.835,1.962,7.72,2.794,11.612c1.053,4.92,2.17,9.842,2.862,14.819c0.491,3.528,0.396,7.148,0.424,10.729
	c0.015,2.065-0.19,4.139-0.402,6.198c-0.229,2.217-0.582,4.42-0.883,6.63c-0.493,3.63-1.018,7.256-1.475,10.891
	c-0.397,3.167-0.761,6.339-1.065,9.517c-0.465,4.839-0.968,9.678-1.271,14.529c-0.453,7.247-0.7,14.511-1.126,21.763
	c-0.252,4.299-0.852,8.582-0.986,12.883c-0.248,7.893-0.179,15.795-0.405,23.689c-0.296,10.291-0.867,20.576-1.086,30.869
	c-0.107,5.014,0.246,10.043,0.518,15.059c0.296,5.459-0.015,10.84-1.3,16.17c-0.634,2.633-1.339,5.303-1.477,7.98
	c-0.111,2.17,0.369,4.439,0.953,6.562c1.518,5.523,2.245,11.131,1.832,16.824c-0.438,6.045-1.191,12.066-1.736,18.105
	c-0.544,6.031-0.986,12.072-1.501,18.107c-0.216,2.543-0.583,5.074-0.738,7.619c-0.322,5.254-0.491,10.516-0.837,15.768
	c-0.2,3.031-0.612,6.049,0.073,9.066c0.228,1.002,0.537,1.986,0.754,2.99c0.553,2.562,1.31,5.109,1.549,7.703
	c0.285,3.096-1.42,4.473-4.521,4.133c-0.226-0.023-0.459,0.031-0.735,0.053c-0.417,6.604,0.869,12.967,2.26,19.33
	c0.559,2.557,0.814,5.182,1.154,7.783c0.286,2.191-0.663,3.994-1.853,5.752c-2.59,3.83-6.614,5.232-10.777,6.023
	c-8.908,1.693-16.966-0.295-23.789-6.467c-1.81-1.637-2.395-3.979-2.807-6.23c-0.766-4.188-0.671-8.441,0.001-12.639
	c0.312-1.943,1.062-3.818,1.646-5.713c0.914-2.961,1.858-5.914,2.845-9.045c-1.979,0.27-3.853,0.52-5.725,0.781
	c-2.037,0.287-2.251,0.156-2.805-1.857c-0.212-0.77-0.491-1.541-0.558-2.326c-0.115-1.361,0.112-2.551,1.173-3.693
	c3.568-3.852,5.531-8.373,5.67-13.74c0.181-7.01,0.712-14.01,0.954-21.02c0.136-3.902-0.137-7.822,0.003-11.729
	c0.209-5.82,0.56-11.639,0.959-17.449c0.4-5.809,0.841-11.617,1.445-17.406c0.356-3.4,1.059-6.77,1.62-10.15
	c0.392-2.359,0.935-4.703,1.169-7.078c0.139-1.4-0.065-2.873-0.334-4.271c-0.735-3.828-1.504-7.654-2.414-11.443
	c-1.005-4.184-2.248-8.307-3.255-12.486c-0.481-2.002-0.653-4.08-0.973-6.121c-0.65-4.166-1.13-8.367-2.003-12.484
	c-0.996-4.695-1.781-9.396-2.181-14.178c-0.411-4.918-0.867-9.836-1.467-14.732c-0.629-5.143-1.557-10.248-2.161-15.393
	c-0.566-4.828-0.815-9.691-1.328-14.525c-0.479-4.521-1.104-9.029-1.696-13.539c-0.278-2.125-0.622-4.242-0.953-6.359
	c-0.057-0.363-0.195-0.713-0.438-1.572c-1.398,5.521-2.69,10.515-3.924,15.523c-1.62,6.58-3.265,13.158-4.767,19.768
	c-1.2,5.281-2.13,10.625-3.319,15.91c-0.731,3.248-1.767,6.428-2.592,9.658c-1.024,4.006-1.962,8.035-2.96,12.047
	c-0.366,1.471-0.733,2.945-1.216,4.381c-1.431,4.264-2.071,8.682-2.709,13.105c-0.066,0.461-0.117,0.969-0.345,1.354
	c-3.094,5.26-5.058,10.969-6.817,16.773c-1.181,3.891-2.458,7.754-3.797,11.594c-0.965,2.768-1.235,5.625-1.306,8.498
	c-0.065,2.623-0.107,5.289,0.267,7.873c0.424,2.922-0.213,5.719-0.419,8.561c-0.425,5.883-0.678,11.803-1.57,17.619
	c-0.842,5.49-2.25,10.912-3.715,16.279c-1.104,4.039-1.279,8.02-0.412,12.057c0.871,4.049,1.651,8.143,3.713,11.822
	c0.303,0.541,0.562,1.141,0.985,1.57c0.724,0.729,0.914,1.484,0.359,2.336c-0.564,0.867-1.294,0.572-2.114,0.303
	c-1.24-0.406-2.545-0.613-3.91-0.926c-0.519,3.164,0.497,5.844,0.664,8.588c0.261,4.293,2.062,8.109,3.521,12.037
	c0.192,0.518,0.403,1.045,0.479,1.586c0.209,1.482,0.348,2.979,0.521,4.469c0.144,1.24,0.003,2.275-1.138,3.154
	c-3.51,2.705-6.635,5.875-10.889,7.598c-6.495,2.631-13.051,3.289-19.934,1.904c-3.565-0.717-6.591-2.293-9.379-4.453
	c-5.645-4.373-7.394-10.725-5.234-16.752c1.446-4.035,3.359-7.902,4.878-11.914c1.663-4.396,3.608-8.646,5.78-12.809
	c0.536-1.025,0.774-2.281,0.865-3.453c0.284-3.654,0.53-7.32,0.595-10.984c0.036-2.051-0.157-4.139-0.518-6.16
	c-1.292-7.248-1.68-14.543-1.417-21.887c0.177-4.941,0.313-9.885,0.522-14.826c0.067-1.592,0.332-3.174,0.459-4.766
	c0.558-6.992,1.043-14,2.823-20.82c1.43-5.477,3.08-10.875,6.324-15.635c0.574-0.842,1.035-1.824,1.285-2.811
	c0.883-3.463,1.761-6.896,2.119-10.512c0.364-3.688,0.248-7.297,0.118-10.965c-0.224-6.285-0.34-12.586-0.163-18.871
	c0.21-7.484,0.689-14.961,1.68-22.4c0.556-4.186,0.623-8.432,1.119-12.625c0.618-5.215,1.353-10.422,2.22-15.601
	c1.062-6.354,2.422-12.661,3.45-19.02c0.725-4.483,0.972-9.043,1.676-13.531c1.408-8.983,2.751-17.968,5.031-26.81
	c1.568-6.082,2.188-12.402,3.395-18.584c0.977-5.001,2.186-9.958,3.312-14.93c1.019-4.495,2.022-8.994,3.115-13.471
	c0.694-2.843,1.562-5.643,2.293-8.477c0.128-0.496,0.078-1.107-0.086-1.6c-1.767-5.323-2.499-10.842-3.31-16.363
	c-0.846-5.763-1.95-11.489-3.005-17.219c-1.011-5.488-2.114-10.958-3.148-16.442c-0.398-2.109-0.694-4.238-1.085-6.349
	c-0.115-0.619-0.329-1.241-0.612-1.805c-3.002-5.985-6.071-11.937-9.027-17.944c-1.617-3.285-3.41-6.549-4.485-10.02
	c-1.497-4.839-3.124-9.715-2.71-14.965c0.148-1.885-0.291-3.812-0.417-5.723c-0.303-4.577,0.305-9.061,1.57-13.449
	c0.226-0.781,0.782-1.591,1.414-2.11c2.775-2.282,5.574-4.545,8.476-6.663c8.075-5.893,15.91-12.081,23.484-18.607
	c2.537-2.187,5.229-4.196,7.866-6.265c2.985-2.341,4.032-5.667,4.586-9.188c0.234-1.488,0.212-3.04,0.104-4.548
	c-0.059-0.825-0.403-1.708-0.857-2.412c-1.335-2.07-2.83-4.036-4.188-6.091c-2.458-3.723-4.887-7.465-7.275-11.232
	c-0.808-1.274-1.679-2.585-1.163-3.778c-1.826-1.82-3.444-3.334-4.926-4.972c-0.434-0.479-0.59-1.294-0.683-1.981
	c-0.354-2.624-0.902-5.18-2.038-7.596c-0.794-1.688-1.185-3.485-0.973-5.358c0.192-1.708,0.903-2.25,2.918-2.12
	c-0.513-2.064-0.833-4.113-1.536-6.02c-1.495-4.054-1.671-8.275-1.915-12.498c-0.069-1.193,0.181-2.421-0.001-3.588
	c-0.399-2.564,0.745-4.212,2.752-5.575c2.434-1.653,4.72-3.457,7.588-4.46c2.17-0.759,2.945-3.008,3.765-5.017
	c0.256-0.627,0.498-1.259,1.16-1.89c0.255,0.847,0.509,1.695,0.77,2.563c1.184-0.676,2.311-1.32,3.679-2.102
	c0.163-1.031,0.382-2.412,0.641-4.049c1.031,0.641,1.126,1.424,1.366,2.148c0.564,1.706,1.02,1.85,2.578,0.879
	c0.263-0.164,0.496-0.375,0.74-0.562c0.434,0.264,0.806,0.49,1.416,0.862c1.208-2.352,2.358-4.59,3.581-6.971
	c0.292,0.193,0.682,0.452,1.055,0.701c0.12-0.29,0.238-0.579,0.399-0.969c0.18,0.229,0.433,0.404,0.416,0.55
	c-0.16,1.414-0.365,2.823-0.578,4.383c0.667-0.304,1.199-0.547,1.664-0.76c1.477,0.971,0.545,2.424,0.865,3.611
	c2.08-1.275,2.972-3.893,3.266-9.73c0.411,0.777,0.77,1.183,0.841,1.633c0.423,2.678,0.999,5.359,1.082,8.053
	c0.054,1.776-0.621,3.577-0.993,5.361c-0.146,0.697-0.357,1.38-0.539,2.07c0,0,0.057-0.094,0.057-0.095
	c-0.898,1.625-1.797,3.251-2.695,4.876c-0.064,0.061-0.129,0.121-0.194,0.181c-0.575,0.386-1.151,0.771-2.043,1.369
	c4.449,1.142,4.907,1.079,7.574-1.03c0.979-0.772,2.025-1.529,2.778-2.498c0.812-1.046,1.317-2.332,1.959-3.512
	c0.506-0.353,1.233-0.596,1.471-1.08c0.805-1.636,1.498-3.336,2.101-5.058c0.246-0.702,0.151-1.524,0.212-2.292
	c-1.299,1.332-2.08,2.737-2.267,4.572c-0.135,1.328-0.179,2.913-1.527,3.857c0.257-1.078,0.515-2.155,0.771-3.232
	c-2.241,3.191-4.452,6.271-7.144,9.012c-0.079-0.464-0.014-0.851,0.201-1.117c1.955-2.424,2.551-5.417,3.472-8.269
	c0.107-0.334,0.448-0.992-0.463-0.883c0.414-1.593,0.829-3.187,1.243-4.779c-1.518,1.477-2.569,3.096-2.95,5.095
	c-0.19,1.002-0.573,1.968-0.869,2.951L104.682,24.316z M78.46,25.214c-0.311,0.298-0.606,0.613-0.936,0.889
	c-0.321,0.27-0.676,0.498-1.017,0.745c-2.679,0.395-4.782,1.918-6.778,3.576c-1.47,1.221-1.276,1.991,0.766,3.105
	c1.662-1.441,3.384-2.934,5.104-4.427c1.82-0.634,2.409-2.204,2.916-3.837c0.933-0.533,0.979-1.468,0.97-2.43
	C79.144,23.627,78.802,24.421,78.46,25.214z M120.312,18.803c0.365-0.951,0.778-1.887,1.066-2.86
	c0.098-0.327-0.126-0.749-0.203-1.126c-0.127,0-0.254,0-0.381,0c-0.53,1.501-1.061,3.002-1.59,4.503
	c0.135,0.072,0.269,0.144,0.403,0.216c0.258-0.274,0.516-0.548,0.773-0.822c-0.526,1.875-1.053,3.751-1.637,5.835
	c2.737-1.944,3.147-2.9,2.682-5.862C121.057,18.721,120.689,18.756,120.312,18.803z M92.579,26.56
	c0.191,0.917,0.583,0.535,0.863,0.093c1.404-2.21,2.854-4.398,4.122-6.686c0.415-0.749,0.332-1.773,0.523-2.957
	c-1.492,0.659-2.132,1.331-2.484,2.679c-0.515,1.969-1.552,3.802-2.366,5.692c0.487-1.8,0.976-3.6,1.463-5.4
	c-0.402,0.238-0.634,0.546-0.811,0.884c-1.328,2.535-2.583,5.112-3.993,7.601c-0.733,1.297-1.521,2.722-2.663,3.594
	c-1.776,1.356-2.669,3.261-3.925,5.046c3.904-0.114,7.515-0.87,10.223-3.847c1.731,0.516,2.26,0.357,3.141-0.878
	c0.569-0.211,1.262-0.282,1.687-0.656c2.039-1.793,3.013-4.216,3.729-6.758c0.057-0.202-0.082-0.46-0.131-0.692
	c0.61-2.248,1.531-4.436,1.396-7.213c-1.913,4.323-2.991,8.69-6.608,11.628c-0.646,0.526-0.852,1.588-1.491,2.132
	c-0.809,0.688-1.817,1.192-2.816,1.58c-0.33,0.128-0.896-0.349-1.432-0.583c1.112-1.625,3.014-2.469,3.073-4.55
	c-0.737,0.526-1.321,1.174-1.912,1.815c-0.587,0.637-1.046,1.536-2.508,1.176C90.74,28.889,91.66,27.724,92.579,26.56z
	 M78.96,33.442c-1.607,0.288-1.607,0.288-2.226,1.972c0.721-0.553,1.314-1.009,1.908-1.465c-0.362,2.21-2.737,2.779-3.779,4.667
	c2.078-0.5,4.248-0.406,5.452-2.527c0.082-0.145,0.497-0.281,0.597-0.207c1.184,0.886,1.875-0.314,2.366-0.813
	c1.606-1.633,2.971-3.5,4.461-5.251c1.47-1.727,1.125-4.645,3.71-5.631c-0.26-2.51,1.877-3.934,2.697-5.954
	c0.254-0.626,0.489-1.261,0.733-1.892c-2.989,2.962-4.119,7.298-7.87,9.574c-0.403,0.245-0.67,0.717-1,1.083l0.045,0.044
	c0-0.449,0-0.898,0-1.696c-0.994,0.884-1.711,1.59-2.501,2.2c-0.534,0.411-1.173,0.685-1.765,1.022
	c0.1-0.216,0.145-0.492,0.307-0.64c1.712-1.561,3.305-3.181,3.787-5.594c0.044-0.222,0.722-0.317,1.22-0.517
	c-0.189-0.943-0.377-1.878-0.564-2.813c-1.312,4.33-5.006,6.975-7.021,10.645c0.115,0.109,0.23,0.218,0.347,0.328
	c0.664-0.494,1.329-0.988,1.994-1.482c-0.588,0.957-1.136,1.941-1.776,2.861C79.623,32.014,78.64,32.368,78.96,33.442z
	 M122.614,27.897c-0.208,0.034-0.497-0.007-0.61,0.114c-3.104,3.324-7.107,4.654-11.462,5.281c-1.649,0.237-3.473,0.312-4.853,1.099
	c-1.701,0.969-3.402,1.089-5.074,0.789c-3.521-0.631-6.569,0.343-9.522,2.078c-0.96,0.564-1.977,1.035-2.986,1.509
	c-0.424,0.199-0.893,0.408-1.346,0.417c-1.423,0.03-2.858,0.062-4.271-0.083c-2.186-0.224-4.01,0.209-5.657,1.836
	c-0.999,0.988-2.301,1.876-4.094,1.432c1.008-0.609,2.016-1.218,3.022-1.828c-0.028-0.056-0.058-0.111-0.087-0.167
	c-1.126,0.272-2.253,0.544-3.441,0.831c0,2.267-0.154,4.573,0.038,6.85c0.258,3.065,0.773,6.11,1.197,9.161
	c0.308,2.207,0.449,4.46,1.011,6.602c1.263,4.817,1.667,9.715,1.678,14.651c0.005,1.999,0.389,3.722,1.695,5.284
	c0.912,1.089,1.619,2.352,2.409,3.543c3.104,4.684,5.584,9.772,9.645,13.827c3.571,3.567,7.605,5.437,12.639,4.335
	c2.777-0.608,5.461-1.637,8.221-2.341c2.188-0.558,3.749-1.841,4.627-3.818c2.933-6.602,6.719-12.868,8.075-20.102
	c0.835-4.454,1.884-8.856,1.773-13.464c-0.165-6.929-0.104-13.865-0.072-20.798c0.018-3.628-0.645-7.08-2.028-10.382
	c-1.035,0-1.943,0.896-2.916-0.304c0.554-0.283,1.009-0.5,1.448-0.744c0.421-0.234,0.826-0.497,1.238-0.747
	c-1.375,0.098-2.644,0.498-4.138-0.342c0.995-0.9,1.83-1.656,2.664-2.411c0.015,0.544,0.094,0.972,0.818,0.637
	c1.812-0.839,2.802-2.758,2.669-4.561C124.354,26.528,123.484,27.212,122.614,27.897z M148.354,609.701
	c-0.281-3.043-0.562-6.107-0.85-9.17c-0.148-1.586-0.491-3.178-0.438-4.756c0.232-6.768,0.525-13.533,0.902-20.293
	c0.239-4.307,0.634-8.604,1.013-12.9c0.352-3.973,0.812-7.936,1.156-11.908c0.324-3.736,0.636-7.475,0.814-11.219
	c0.19-3.984,0.423-7.984,0.265-11.963c-0.184-4.609-0.717-9.209-1.222-13.799c-0.153-1.396-0.445-2.914-1.16-4.076
	c-0.921-1.5-0.739-2.74-0.219-4.24c0.727-2.092,1.573-4.232,1.762-6.404c0.391-4.527,0.507-9.088,0.507-13.635
	c0.001-5.582-0.286-11.164-0.336-16.748c-0.018-2.064,0.406-4.131,0.423-6.199c0.074-9.574,0.018-19.15,0.126-28.725
	c0.073-6.451,0.344-12.902,0.527-19.352c0.104-3.662,0.158-7.324,0.33-10.982c0.253-5.406,0.329-10.84,0.948-16.208
	c1.205-10.453,2.751-20.867,4.121-31.302c0.456-3.471,0.911-6.947,1.182-10.436c0.321-4.132,0.436-8.279,0.652-12.42
	c0.229-4.365,0.941-8.678,0.397-13.112c-0.702-5.726-1.834-11.346-3.23-16.918c-1.514-6.04-3.146-12.051-4.816-18.05
	c-0.843-3.028-1.884-6.001-2.96-9.393c-0.876,1.004-1.552,1.662-2.091,2.417c-3.15,4.408-6.318,8.804-9.382,13.271
	c-2.391,3.484-4.775,6.986-6.916,10.625c-3.262,5.544-7.113,10.828-8.205,17.42c-0.262,1.582-1.146,2.016-2.591,1.376
	c-1.146-0.508-2.176-1.274-3.453-2.044c-0.564,0.98-1.223,1.875-1.628,2.873c-1.095,2.693-1.521,5.532-1.18,8.415
	c0.438,3.703-0.45,6.947-2.896,9.764c-0.365,0.42-0.714,0.854-1.069,1.282c-1.633,1.969-3.335,3.885-4.881,5.92
	c-1.691,2.226-2.64,4.691-2.078,7.6c0.393,2.037,0.594,4.111,0.849,6.173c0.088,0.711,0.246,1.474,0.08,2.14
	c-0.281,1.138-0.628,2.323-1.249,3.297c-0.885,1.389-3.346,1.206-4.226-0.412c-1.172-2.155-2.044-4.477-3.011-6.741
	c-0.444-1.042-0.81-2.117-1.211-3.178c-0.166,0.053-0.333,0.105-0.499,0.158c0.039,0.355,0.104,0.711,0.115,1.068
	c0.079,2.546,0.307,5.1,0.172,7.635c-0.112,2.131-1.752,2.875-3.806,2.157c-1.284-0.449-1.949-1.294-2.267-2.543
	c-0.184-0.721-0.42-1.429-0.632-2.143c-0.465,0.658-0.53,1.249-0.594,1.841c-0.075,0.716-0.146,1.432-0.224,2.147
	c-0.103,0.949-0.081,1.939-1.296,2.3c-1.272,0.378-2.694,0.117-3.447-1.007c-0.534-0.797-0.728-1.823-1.059-2.711
	c-0.703-0.043-1.478-0.09-2.572-0.157c-0.371-1.654-0.871-3.239-1.052-4.859c-0.211-1.896,0.015-3.845-0.228-5.734
	c-0.648-5.055-0.503-10.029,1.039-14.916c0.47-1.491,0.988-2.966,1.566-4.693c-0.854,0.058-1.55,0.08-2.239,0.156
	c-1.638,0.182-3.14-0.215-4.541-1.031c-0.912-0.531-1.528-1.368-1.156-2.385c0.512-1.398,0.983-3.021,2.002-3.988
	c4.064-3.855,8.509-7.049,14.095-8.648c3.436-0.982,6.278-3.437,8.657-6.197c0.716-0.831,1.002-1.754,0.668-3.053
	c-0.646-2.517-0.354-4.951,2.195-6.522c0.397-0.244,0.771-0.608,1.017-1.005c2.764-4.468,5.522-8.939,8.236-13.438
	c2.175-3.604,4.323-7.223,6.413-10.875c1.402-2.45,2.683-4.97,4.001-7.43c-1.662,0-3.224-0.301-4.616,0.056
	c-4.445,1.14-8.834,2.503-13.232,3.82c-2.364,0.708-4.715,1.464-7.051,2.262c-3.238,1.106-6.548,2.072-9.655,3.48
	c-2.298,1.041-4.584,1.83-7.073,2.05c-2.674,0.236-5.352,0.432-8.153,0.656c-0.305,1.303-0.603,2.618-0.92,3.928
	c-0.941,3.881-2.015,7.735-2.811,11.646c-1.527,7.505-2.882,15.044-4.345,22.562c-0.593,3.044-1.376,6.053-1.901,9.107
	c-0.405,2.354-0.461,4.766-0.815,7.131c-1.371,9.158-2.763,18.313-4.223,27.458c-0.893,5.593-1.873,11.173-2.908,16.741
	c-0.919,4.936-2.099,9.825-2.913,14.774c-0.551,3.35-0.633,6.771-0.999,10.15c-0.126,1.166-0.556,2.295-0.707,3.461
	c-0.286,2.211-0.281,4.477-0.737,6.646c-1.248,5.945-0.312,11.953-0.696,17.918c-0.051,0.791,0.055,1.604,0.182,2.389
	c0.887,5.477,0.444,10.967,0.217,16.457c-0.139,3.346-0.208,6.693-0.288,10.039c-0.066,2.711,0.195,5.473-0.239,8.121
	c-0.406,2.479-1.567,4.828-2.336,7.254c-0.384,1.209-0.588,2.473-0.958,3.688c-0.393,1.291,0.147,3.105-1.913,3.539
	c-0.194,0.039-0.306,0.531-0.433,0.824c-0.604,1.383-1.337,2.727-1.775,4.158c-1.586,5.189-3.271,10.359-4.548,15.627
	c-1.792,7.404-2.166,15.006-2.312,22.592c-0.145,7.498-0.082,15-0.022,22.498c0.016,1.986,0.278,3.98,0.559,5.951
	c0.641,4.484,1.39,8.951,0.878,13.516c-0.275,2.455-0.485,4.918-0.613,7.385c-0.038,0.734,0.046,1.855,0.507,2.18
	c3.66,2.553,7.567,4.385,12.252,3.502c1.076-0.203,2.287-0.375,3.304-0.09c4.965,1.395,9.966,0.492,15.068,0.588
	c-0.757-3.1-1.431-6.047-2.203-8.971c-0.982-3.717-1.835-7.43-1.422-11.324c0.515-4.854,1.602-9.58,2.794-14.301
	c0.683-2.695,1.18-5.441,1.688-8.182c0.843-4.541,0.049-9.229,1.177-13.752c0.035-0.143-0.064-0.314-0.062-0.471
	c0.066-3.031,0.122-6.062,0.219-9.092c0.038-1.191-0.033-2.26-0.72-3.365c-0.505-0.814-0.75-2.041-0.575-2.984
	c0.737-3.982,1.655-7.936,2.563-11.887c0.139-0.6,0.619-1.113,0.868-1.697c0.718-1.688,1.526-3.35,2.069-5.094
	c1.208-3.873,2.202-7.811,3.417-11.68c2.146-6.834,4.602-13.578,6.53-20.471c1.67-5.967,2.983-12.053,4.092-18.15
	c1.04-5.717,2.1-11.412,3.797-16.975c0.65-2.131,1.303-4.266,1.888-6.416c1.336-4.918,2.605-9.854,3.95-14.77
	c2.688-9.826,5.5-19.622,7.01-29.725c0.193-1.296,0.735-2.363,2.003-3.337c0.479,0.634,1.079,1.12,1.263,1.731
	c0.454,1.517,0.928,3.078,1.014,4.642c0.157,2.857-0.117,5.738,0.07,8.592c0.396,6.048,0.754,12.109,1.533,18.111
	c0.984,7.584,2.373,15.113,3.588,22.666c0.545,3.387,1.277,6.756,1.589,10.164c0.354,3.889,0.412,7.812,0.462,11.721
	c0.083,6.582,1.412,12.973,2.796,19.359c1.246,5.752,2.479,11.506,3.676,17.268c1.248,6.018,2.528,12.025,3.618,18.07
	c0.393,2.176,0.853,4.615,0.258,6.633c-1.044,3.543-1.274,7.148-1.766,10.732c-0.334,2.434-0.283,4.918-0.499,7.371
	c-0.587,6.691-1.221,13.377-1.843,20.062c-0.296,3.186-0.427,6.4-0.967,9.545c-0.421,2.445-0.7,4.84-0.543,7.322
	c0.181,2.863,0.278,5.74,0.236,8.607c-0.106,7.113-0.33,14.229-0.459,21.344c-0.02,1.104,0.116,2.236,0.356,3.312
	c0.178,0.805,0.736,1.234,1.716,1.344c1.643,0.182,3.282,0.562,4.871,1.035c1.754,0.521,3.428,0.682,5.106-0.182
	c0.322-0.164,0.684-0.252,1.251-0.455c-1.702,2.346-3.729,2.707-6.095,1.92c-0.756-0.254-1.525-0.469-2.292-0.688
	c-4.323-1.246-5.928-0.73-8.591,2.838c-0.764,1.021-1.481,2.088-2.135,3.184c-0.468,0.785-0.792,1.654-1.39,2.936
	c2.394-0.02,4.249,0.883,6.219,0.146c0.954-0.359,2.203-0.568,2.743-1.281c2.098-2.768,4.784-3.156,7.854-2.387
	c1.612,0.404,3.201,0.914,4.782,1.432c2.44,0.801,4.875,1.549,7.489,0.93c1.395-0.33,2.84-0.512,4.182-0.99
	c1.837-0.654,3.401-0.084,4.62,1.086C146.3,610.367,147.176,610.199,148.354,609.701z M83.924,118.141
	c-1.2,1.076-2.306,2.119-3.466,3.096c-4.935,4.157-9.878,8.303-14.838,12.43c-1.033,0.859-2.292,1.484-3.197,2.452
	c-2.865,3.064-6.274,5.421-9.683,7.793c-1.624,1.13-3.164,2.423-4.905,3.329c-1.839,0.956-3.083,2.27-3.59,4.216
	c-0.382,1.461-0.567,2.976-0.813,4.471c-1.043,6.348,0.293,12.563,1.125,18.795c0.766,5.742,3.897,10.593,6.226,15.738
	c1.479,3.265,3.348,6.381,4.542,9.741c1.813,5.102,3.244,10.345,4.746,15.554c1.592,5.523,2.589,11.163,3.061,16.898
	c0.137,1.664,0.343,3.354,0.791,4.956c2.196,7.854,3.509,15.887,4.972,23.891c0.459,2.513,0.939,5.022,1.39,7.537
	c0.215,1.195,0.976,1.88,2.103,1.921c2.15,0.078,4.364,0.305,6.449-0.083c4.523-0.841,9.001-1.96,13.465-3.095
	c6.927-1.761,13.844-3.568,20.726-5.496c1.894-0.531,3.729-1.418,5.443-2.399c2.182-1.247,4.283-2.664,6.289-4.179
	c1.887-1.423,3.824-2.779,4.747-5.224c0.694-1.838,1.884-3.509,2.979-5.171c3.547-5.382,7.523-10.484,10.46-16.262
	c1.622-3.192,3.286-6.363,4.979-9.518c0.48-0.895,0.318-1.6-0.129-2.453c-1.666-3.177-3.481-6.304-4.819-9.62
	c-3.645-9.033-7.228-18.097-10.543-27.255c-3.015-8.328-5.531-16.83-7.778-25.404c-0.364-1.389-0.71-2.792-0.927-4.209
	c-0.482-3.149-0.915-6.307-1.297-9.469c-0.277-2.29-0.558-4.592-0.602-6.893c-0.021-1.075,0.199-2.326,1.576-3.209
	c0.062,0.921,0.127,1.533,0.14,2.146c0.029,1.437-0.157,2.907,0.079,4.306c1.712,10.133,3.414,20.272,6.444,30.125
	c3.691,12.003,8.602,23.552,13.267,35.186c2.072,5.167,4.799,10.069,7.17,15.119c0.572,1.219,0.932,2.54,1.359,3.823
	c0.249,0.747,0.328,1.569,0.678,2.26c0.643,1.271,1.512,2.426,2.127,3.707c0.543,1.13,1.018,2.34,1.221,3.564
	c0.085,0.511-0.61,1.152-0.951,1.734c-0.477-0.349-1.108-0.601-1.396-1.067c-0.536-0.873-0.875-1.869-1.293-2.814
	c-0.788-1.777-1.573-3.555-2.511-5.672c-0.325,0.5-0.459,0.698-0.584,0.9c-3.443,5.562-6.929,11.101-10.308,16.702
	c-1.399,2.319-2.414,4.877-3.879,7.149c-3.833,5.945-7.761,11.831-11.757,17.668c-4.176,6.101-8.506,12.107-12.068,18.592
	c-4.221,7.683-8.908,15.068-13.72,22.41c1.143,1.864,2.742,2.742,4.983,2.663c3.689-0.131,7.085,1.06,10.249,2.827
	c2.002,1.118,3.934,2.367,5.103,4.537c0.403,0.75,1.395,1.185,2.149,1.789c0.286-0.4,0.49-0.574,0.549-0.787
	c0.997-3.615,2.11-7.179,4.346-10.27c0.046-0.063,0.063-0.147,0.105-0.215c3.239-5.194,6.427-10.423,9.739-15.571
	c2.19-3.405,4.554-6.7,6.852-10.036c2.254-3.272,4.418-6.613,6.816-9.775c2.403-3.167,5.117-6.097,7.568-9.229
	c2.605-3.328,4.972-6.844,7.615-10.139c1.739-2.168,3.904-3.992,5.669-6.143c3.396-4.14,6.733-8.333,9.922-12.634
	c2.782-3.751,4.866-7.862,5.121-12.675c0.109-2.069,0.208-4.139,0.392-6.202c0.266-2.984-0.203-5.84-1.039-8.709
	c-0.913-3.13-1.845-6.305-2.231-9.524c-0.481-4.012-1.729-7.824-3.084-11.5c-1.552-4.21-2.646-8.507-3.692-12.814
	c-1.576-6.486-2.661-13.09-4.167-19.595c-1.383-5.973-2.946-11.9-3.878-17.971c-0.229-1.496-0.456-3.037-1.006-4.431
	c-1.746-4.436-2.633-9.218-5.303-13.286c-0.259-0.394-0.376-0.878-0.583-1.31c-1.273-2.661-2.71-5.123-4.896-7.267
	c-3.057-2.997-6.372-3.179-10.095-2.073c-3.354,0.995-6.688,2.059-10.047,3.033c-2.664,0.772-5.459,1.195-8.01,2.231
	c-5.378,2.185-10.891,3.947-16.382,5.79c-0.886,0.297-1.395,0.122-1.435-0.96c3.186-1.018,6.465-1.775,9.488-3.111
	c3.111-1.375,6.399-2.204,9.543-3.477c2.944-1.191,6.256-1.557,9.186-2.966c-6.499-0.419-12.984-0.514-18.809-4.131
	c-0.314,0.662-0.546,1.074-0.712,1.511c-1.08,2.841-2.812,5.065-5.447,6.729c-3.831,2.417-8.07,3.846-12.32,5.065
	C94.563,117.705,89.295,118.825,83.924,118.141z M56.574,587.363c-2.176-0.295-3.975-0.234-5.538-0.812
	c-3.005-1.107-5.996-1.564-9.14-1c-3.545,0.637-6.734,0.084-9.481-2.48c-0.977-0.912-1.648-0.744-2.671,0.387
	c-1.627,1.797-2.633,3.926-3.326,6.26c-0.631,2.127-1.396,4.24-2.354,6.236c-1.784,3.721-3.811,7.301-4.979,11.312
	c-1.372,4.719,0.095,9.094,4.257,11.793c3.741,2.426,7.975,3.174,12.271,3.373c3.079,0.143,6.183-0.4,9.278-0.443
	c5.131-0.07,9.046-2.721,12.806-5.758c0.541-0.438,1.001-0.986,1.452-1.52c1.993-2.363,1.595-5.234,1.567-7.98
	c-0.013-1.234-0.246-2.561-0.75-3.678c-1.232-2.729-1.798-5.578-2.197-8.508C57.427,592.033,56.942,589.545,56.574,587.363z
	 M97.886,341.486c0.141,1.018,0.453,1.73,0.27,2.275c-0.378,1.119-0.762,2.475-1.608,3.149c-1.832,1.46-1.807,3.354-1.869,5.304
	c-0.03,0.957,0.046,1.916,0.068,2.875c0.091,3.749,1.707,6.877,3.806,9.799c2.297-0.815,3.012-1.805,2.719-3.887
	c-0.289-2.049-0.661-4.09-1.078-6.118c-0.806-3.926,0.664-7.247,2.871-10.267c1.692-2.316,3.733-4.376,5.542-6.611
	c1.538-1.899,2.476-4.019,2.428-6.579c-0.063-3.337-0.217-6.715,1.023-9.924c0.6-1.55,1.264-3.074,1.92-4.661
	c-0.556-0.639-1.085-1.344-1.71-1.95c-2.109-2.047-4.772-3.031-7.595-2.935c-2.359,0.081-4.693,0.627-6.881-0.202
	c-1.29,1.416-2.354,2.832-3.665,3.962c-1.788,1.542-3.593,3.174-5.868,3.964c-4.693,1.631-9.082,3.832-12.992,6.883
	c-1.534,1.197-3.156,2.493-3.441,4.769c2.483,2.467,5.201,0.794,7.766,0.528c1.817-2.7,3.513-5.339,6.137-7.645
	c0.111,0.651,0.293,1.007,0.187,1.214c-0.723,1.403-1.312,2.938-2.31,4.124c-2.466,2.932-3.611,6.525-5.155,9.893
	c-1.441,3.145-1.521,6.655-1.483,10.095c0.036,3.349,0.164,6.697,0.255,10.046c0.015,0.558-0.104,1.184,0.108,1.657
	c0.261,0.582,0.728,1.354,1.242,1.477c0.847,0.204,1.17-0.633,1.282-1.386c0.082-0.551,0.129-1.113,0.128-1.671
	c-0.002-1.995,0.114-4.005-0.079-5.982c-0.435-4.445,1.556-8.142,3.257-12.07c1.069,0.688,1.153,1.496,0.819,2.367
	c-0.341,0.892-0.889,1.714-1.149,2.623c-0.563,1.97-1.312,3.96-1.423,5.973c-0.2,3.687,0.003,7.396,0.047,11.096
	c0.021,1.846,0.61,2.956,1.528,2.801c1.589-0.27,1.307-1.611,1.345-2.666c0.209-5.681,0.89-11.296,2.475-16.759
	c0.483-1.667,0.811-3.589,2.657-4.479c0.887,0.586,0.713,1.153,0.428,1.922c-0.683,1.841-1.56,3.575-2.084,5.522
	c-1.211,4.498-0.831,8.809,0.408,13.145c0.304,1.063,0.94,1.988,2.328,2.535c0.349-0.867,0.824-1.625,0.939-2.434
	c0.19-1.335,0.356-2.733,0.168-4.053C90.675,352.402,93.819,347.063,97.886,341.486z M147.305,638.736
	c0.075-0.018,0.15-0.033,0.226-0.055c-0.491-2.49-0.964-4.984-1.482-7.471c-0.26-1.246-0.717-2.459-0.893-3.715
	c-0.662-4.725-1.227-9.463-1.865-14.189c-0.271-2.004-1.347-2.773-3.36-2.297c-1.15,0.273-2.25,0.801-3.337,1.291
	c-1.52,0.688-2.922,0.93-4.548,0.074c-1.745-0.92-3.666-1.512-5.525-2.207c-4.411-1.65-8.576,0.072-10.415,4.414
	c-0.806,1.902-1.556,3.871-1.982,5.885c-0.853,4.025-1.388,8.119-2.193,12.156c-1.304,6.535,2.33,12.613,7.476,15.857
	c0.662,0.418,1.432,0.787,2.193,0.902c2.592,0.395,5.198,0.848,7.809,0.92c1.795,0.047,3.649-0.34,5.4-0.816
	c3.964-1.078,7.394-3.297,10.847-5.434c1.179-0.73,1.825-1.729,1.665-3.186C147.242,640.166,147.305,639.447,147.305,638.736z
	 M72.054,273.528c-0.422,0.665-0.903,1.3-1.248,2.003c-0.347,0.705-0.689,1.458-0.798,2.222c-0.217,1.543,0.516,2.382,2.007,2.232
	c1.333-0.134,2.665-0.436,3.952-0.816c2.211-0.653,4.367-1.492,6.581-2.135c6.491-1.886,13.062-3.525,19.48-5.63
	c4.47-1.465,8.859-3.037,13.6-3.351c2.46-0.163,4.222-1.329,5.404-3.616c1.027-1.986,2.442-3.771,3.686-5.646
	c-0.916,0.169-1.553,0.625-2.248,0.956c-2.435,1.159-4.811,2.513-7.354,3.358c-5.739,1.907-11.57,3.541-17.355,5.312
	c-2.591,0.793-5.115,1.858-7.75,2.436c-5.765,1.265-11.53,2.646-17.501,2.547C72.36,273.397,72.208,273.482,72.054,273.528z
	 M90.34,104.393c-1.038,3.698-2.034,7.247-3.095,11.025c1.014,0.117,1.977,0.438,2.863,0.292c3.287-0.538,6.586-1.088,9.814-1.896
	c5.11-1.279,9.495-3.931,13.159-7.712c0.791-0.816,1.352-1.854,2.019-2.79c-4.077,2.34-8.38,3.584-12.789,4.335
	c-3.706,0.632-7.301,0.059-10.391-2.395C91.446,104.876,90.842,104.66,90.34,104.393z M67.599,59.69
	c0.173,1.477,0.187,2.759,0.493,3.967c0.682,2.686,1.445,5.355,2.3,7.991c0.647,1.997,1.505,3.917,3.97,5.211
	c-1.111-4.528-2.188-8.574-3.074-12.66C70.842,62.145,69.857,60.688,67.599,59.69z M126.821,67.701
	c2.384-1.375,2.718-3.242,2.623-5.457c-0.073-1.723,0.299-3.47,0.53-5.198c0.107-0.802,1.043-1.791-0.057-2.293
	c-0.595-0.272-1.578,0.27-2.373,0.493c-0.201,0.056-0.351,0.295-0.724,0.629C126.821,59.654,126.821,63.594,126.821,67.701z
	 M113.716,23.134c-1.935,3.303-3.958,6.6-7.441,9.186C111.815,31.492,112.954,27.504,113.716,23.134z M71.554,36.351
	c0.138,0.177,0.275,0.354,0.413,0.531c2.725-1.674,5.343-3.467,6.604-6.77C76.232,32.191,73.893,34.271,71.554,36.351z
	 M100.877,20.363c-0.903,0.091-1.666,0.167-2.593,0.261c-0.671,1.539-1.399,3.211-2.129,4.883c0.169,0.098,0.338,0.196,0.507,0.294
	C98.068,23.987,100.188,22.763,100.877,20.363z M107.143,26.076c1.098-1.472,3.114-2.53,2-4.919
	c-0.225-0.482,0.147-1.235,0.221-1.866c0.107-0.932,0.193-1.867,0.335-3.25C108.766,19.701,107.955,22.889,107.143,26.076z
	 M113.494,30.212c1.672-1.938,4.244-3.256,4.437-6.236C116.309,25.952,114.241,27.594,113.494,30.212z M117.167,21.243
	c-1.75,1.592-3.313,3.277-3.623,6.202C115.354,25.365,116.71,23.562,117.167,21.243z M87.493,24.692
	c1.559-1.705,3.065-2.894,2.265-5.236c-0.594,0.255-1.135,0.487-1.577,0.677C87.956,21.622,87.759,22.925,87.493,24.692z
	 M78.78,27.137c2.337-1.241,2.657-3.026,3.045-4.773c-0.148-0.081-0.297-0.162-0.444-0.243
	C80.589,23.646,79.798,25.172,78.78,27.137z M115.677,19.948c0.438-2.582,0.3-4.497-0.97-6.591c-0.204,0.87-0.626,1.824-0.431,1.974
	C115.668,16.402,115.202,18.046,115.677,19.948z M125.697,17.062c-0.094,1.009-0.127,2.028-0.3,3.023
	c-0.17,0.975-0.482,1.925-0.731,2.886C126.043,21.164,126.645,19.225,125.697,17.062z M125.182,18.84
	c-1.949,1.275-2.284,2.743-1.598,4.587C124.076,22.017,124.567,20.607,125.182,18.84z M70.47,46.864
	c0.081-2.418,0.704-4.828-0.345-7.174C70.24,42.081,70.355,44.472,70.47,46.864z M68,42.667c0.293-1.243,0.551-2.447,0.166-3.59
	c-0.184,0.017-0.368,0.033-0.553,0.05C67.743,40.306,67.872,41.487,68,42.667z M119.401,27.226c0.128,0.104,0.256,0.208,0.384,0.312
	c0.399-0.714,1.314-1.127,1.219-2.728C120.284,25.895,119.842,26.561,119.401,27.226z M94.072,29.643
	c0.21,0.181,0.419,0.362,0.629,0.543c0.554-0.748,1.107-1.496,1.661-2.243c-0.15-0.115-0.302-0.23-0.452-0.346
	C95.297,28.279,94.685,28.961,94.072,29.643z M126.381,46.863c0.158,0.038,0.317,0.076,0.476,0.114
	c0.187-0.778,0.373-1.557,0.561-2.334c-0.141-0.033-0.28-0.065-0.421-0.098C126.791,45.317,126.586,46.09,126.381,46.863z
	 M125.478,31.417c-0.146,0.085-0.291,0.171-0.437,0.256c0.229,0.59,0.457,1.18,0.686,1.77c0.096-0.031,0.19-0.062,0.286-0.093
	C125.834,32.705,125.657,32.061,125.478,31.417z M117.834,27.042c0.121,0.125,0.24,0.25,0.36,0.375
	c0.309-0.365,0.617-0.73,0.925-1.095c-0.087-0.08-0.174-0.161-0.261-0.241C118.518,26.402,118.176,26.722,117.834,27.042z
	 M117.827,29.349c-0.131-0.135-0.262-0.269-0.393-0.403c-0.472,0.408-0.944,0.817-1.417,1.226c0.099,0.113,0.196,0.226,0.294,0.339
	C116.816,30.124,117.322,29.737,117.827,29.349z M128.497,49.376c0.061-0.001,0.121-0.003,0.182-0.005c0-0.52,0-1.04,0-1.56
	c-0.061,0.005-0.121,0.01-0.182,0.015C128.497,48.343,128.497,48.859,128.497,49.376z"/>
<path d="M104.682,24.316l-0.079-0.02c0.634-0.759,1.267-1.518,1.899-2.276c-1.555,3.714-2.887,7.562-6.12,10.668
	c-0.152-0.762-0.226-1.13-0.299-1.497c0.065-0.06,0.13-0.12,0.194-0.181c1.969-1.033,2.388-2.924,2.695-4.875l-0.057,0.094
	C103.505,25.591,104.093,24.953,104.682,24.316z"/>
<path fill="#EE2E7C" d="M148.354,609.701c-1.178,0.498-2.054,0.666-3.103-0.34c-1.219-1.17-2.783-1.74-4.62-1.086
	c-1.342,0.479-2.787,0.66-4.182,0.99c-2.614,0.619-5.049-0.129-7.489-0.93c-1.581-0.52-3.17-1.027-4.782-1.434
	c-3.07-0.77-5.757-0.381-7.854,2.389c-0.54,0.713-1.789,0.922-2.743,1.279c-1.97,0.736-3.825-0.166-6.219-0.145
	c0.598-1.281,0.922-2.15,1.39-2.938c0.653-1.096,1.371-2.158,2.135-3.184c2.663-3.566,4.268-4.084,8.591-2.838
	c0.767,0.221,1.536,0.436,2.292,0.689c2.365,0.787,4.393,0.426,6.095-1.92c-0.567,0.203-0.929,0.291-1.251,0.455
	c-1.679,0.861-3.353,0.703-5.106,0.182c-1.589-0.473-3.229-0.855-4.871-1.037c-0.979-0.107-1.538-0.539-1.716-1.342
	c-0.24-1.078-0.376-2.209-0.356-3.314c0.129-7.115,0.353-14.229,0.459-21.344c0.042-2.867-0.056-5.744-0.236-8.607
	c-0.157-2.48,0.122-4.877,0.543-7.322c0.54-3.145,0.671-6.357,0.967-9.545c0.622-6.686,1.256-13.369,1.843-20.061
	c0.216-2.453,0.165-4.939,0.499-7.371c0.491-3.584,0.722-7.189,1.766-10.732c0.595-2.018,0.135-4.457-0.258-6.633
	c-1.09-6.045-2.37-12.055-3.618-18.07c-1.196-5.762-2.43-11.516-3.676-17.268c-1.384-6.389-2.713-12.777-2.796-19.359
	c-0.05-3.908-0.107-7.832-0.462-11.721c-0.312-3.408-1.044-6.777-1.589-10.164c-1.215-7.553-2.604-15.082-3.588-22.666
	c-0.779-6.002-1.137-12.064-1.533-18.111c-0.188-2.854,0.087-5.734-0.07-8.593c-0.086-1.563-0.56-3.125-1.014-4.642
	c-0.184-0.611-0.784-1.098-1.263-1.731c-1.268,0.974-1.81,2.041-2.003,3.337c-1.51,10.103-4.321,19.897-7.01,29.724
	c-1.345,4.916-2.614,9.852-3.95,14.77c-0.585,2.15-1.237,4.285-1.888,6.416c-1.697,5.562-2.757,11.26-3.797,16.977
	c-1.108,6.098-2.422,12.184-4.092,18.148c-1.929,6.895-4.385,13.639-6.53,20.473c-1.215,3.869-2.209,7.807-3.417,11.68
	c-0.543,1.744-1.352,3.406-2.069,5.094c-0.249,0.584-0.729,1.098-0.868,1.697c-0.908,3.951-1.826,7.902-2.563,11.887
	c-0.175,0.943,0.07,2.17,0.575,2.984c0.687,1.104,0.758,2.174,0.72,3.365c-0.097,3.027-0.152,6.061-0.219,9.092
	c-0.003,0.156,0.097,0.328,0.062,0.471c-1.128,4.523-0.334,9.211-1.177,13.752c-0.509,2.738-1.006,5.484-1.688,8.182
	c-1.192,4.719-2.279,9.447-2.794,14.299c-0.413,3.896,0.439,7.609,1.422,11.326c0.772,2.922,1.446,5.871,2.203,8.969
	c-5.103-0.094-10.104,0.807-15.068-0.588c-1.017-0.285-2.228-0.113-3.304,0.09c-4.686,0.883-8.593-0.949-12.252-3.502
	c-0.461-0.322-0.545-1.443-0.507-2.178c0.128-2.467,0.338-4.93,0.613-7.385c0.512-4.564-0.237-9.031-0.878-13.516
	c-0.281-1.971-0.543-3.965-0.559-5.951c-0.06-7.498-0.123-15,0.022-22.498c0.146-7.586,0.52-15.188,2.312-22.592
	c1.276-5.268,2.962-10.438,4.548-15.627c0.438-1.434,1.171-2.775,1.775-4.158c0.127-0.293,0.239-0.785,0.433-0.824
	c2.061-0.434,1.521-2.248,1.913-3.539c0.37-1.215,0.574-2.479,0.958-3.688c0.769-2.426,1.93-4.775,2.336-7.254
	c0.435-2.648,0.173-5.41,0.239-8.121c0.08-3.346,0.149-6.693,0.288-10.039c0.228-5.49,0.67-10.98-0.217-16.457
	c-0.127-0.785-0.232-1.598-0.182-2.389c0.385-5.965-0.552-11.975,0.696-17.918c0.456-2.172,0.451-4.438,0.737-6.646
	c0.151-1.166,0.581-2.295,0.707-3.461c0.366-3.381,0.448-6.803,0.999-10.15c0.814-4.951,1.994-9.84,2.913-14.775
	c1.035-5.568,2.016-11.148,2.908-16.741c1.46-9.145,2.852-18.3,4.223-27.458c0.354-2.365,0.41-4.777,0.815-7.131
	c0.525-3.055,1.309-6.063,1.901-9.107c1.463-7.518,2.817-15.057,4.345-22.562c0.796-3.91,1.869-7.765,2.811-11.646
	c0.317-1.31,0.615-2.625,0.92-3.928c2.802-0.224,5.479-0.42,8.153-0.656c2.489-0.22,4.775-1.009,7.073-2.05
	c3.107-1.408,6.417-2.374,9.655-3.48c2.336-0.798,4.687-1.554,7.051-2.262c4.398-1.317,8.787-2.681,13.232-3.82
	c1.393-0.357,2.954-0.056,4.616-0.056c-1.318,2.459-2.599,4.979-4.001,7.43c-2.09,3.652-4.238,7.271-6.413,10.875
	c-2.714,4.498-5.473,8.97-8.236,13.438c-0.245,0.396-0.619,0.761-1.017,1.005c-2.549,1.571-2.842,4.006-2.195,6.522
	c0.334,1.299,0.048,2.222-0.668,3.053c-2.379,2.761-5.222,5.215-8.657,6.197c-5.586,1.6-10.03,4.793-14.095,8.648
	c-1.019,0.967-1.49,2.59-2.002,3.988c-0.372,1.017,0.244,1.854,1.156,2.385c1.401,0.816,2.903,1.213,4.541,1.031
	c0.689-0.076,1.385-0.099,2.239-0.156c-0.578,1.728-1.097,3.202-1.566,4.693c-1.542,4.887-1.688,9.861-1.039,14.916
	c0.242,1.89,0.017,3.838,0.228,5.734c0.181,1.62,0.681,3.205,1.052,4.859c1.095,0.067,1.869,0.114,2.572,0.157
	c0.331,0.888,0.524,1.914,1.059,2.711c0.753,1.124,2.175,1.385,3.447,1.007c1.215-0.36,1.193-1.351,1.296-2.3
	c0.077-0.716,0.148-1.432,0.224-2.147c0.063-0.592,0.129-1.183,0.594-1.841c0.212,0.714,0.448,1.422,0.632,2.143
	c0.317,1.249,0.982,2.094,2.267,2.543c2.054,0.718,3.693-0.026,3.806-2.157c0.135-2.535-0.093-5.089-0.172-7.635
	c-0.012-0.357-0.076-0.713-0.115-1.068c0.166-0.053,0.333-0.105,0.499-0.158c0.401,1.061,0.767,2.136,1.211,3.178
	c0.967,2.265,1.839,4.586,3.011,6.741c0.88,1.618,3.341,1.801,4.226,0.412c0.621-0.974,0.968-2.159,1.249-3.297
	c0.166-0.666,0.008-1.429-0.08-2.14c-0.255-2.062-0.456-4.136-0.849-6.173c-0.562-2.908,0.387-5.374,2.078-7.6
	c1.546-2.035,3.248-3.951,4.881-5.92c0.355-0.428,0.704-0.862,1.069-1.282c2.445-2.816,3.334-6.061,2.896-9.764
	c-0.341-2.883,0.085-5.722,1.18-8.415c0.405-0.998,1.063-1.893,1.628-2.873c1.277,0.77,2.308,1.536,3.453,2.044
	c1.444,0.64,2.329,0.206,2.591-1.376c1.092-6.592,4.943-11.876,8.205-17.42c2.141-3.639,4.525-7.141,6.916-10.625
	c3.063-4.468,6.231-8.864,9.382-13.271c0.539-0.755,1.215-1.413,2.091-2.417c1.076,3.392,2.117,6.365,2.96,9.393
	c1.671,5.999,3.303,12.01,4.816,18.05c1.396,5.572,2.528,11.192,3.23,16.918c0.544,4.435-0.169,8.747-0.397,13.112
	c-0.217,4.141-0.331,8.288-0.652,12.42c-0.271,3.488-0.726,6.965-1.182,10.436c-1.37,10.436-2.916,20.849-4.121,31.302
	c-0.619,5.37-0.695,10.803-0.948,16.209c-0.172,3.658-0.227,7.318-0.33,10.98c-0.184,6.449-0.454,12.9-0.527,19.354
	c-0.108,9.574-0.052,19.148-0.126,28.725c-0.017,2.068-0.44,4.135-0.423,6.199c0.05,5.584,0.337,11.166,0.336,16.748
	c0,4.547-0.116,9.105-0.507,13.635c-0.188,2.172-1.035,4.312-1.762,6.404c-0.521,1.5-0.702,2.74,0.219,4.24
	c0.715,1.16,1.007,2.68,1.16,4.074c0.505,4.592,1.038,9.189,1.222,13.801c0.158,3.979-0.074,7.979-0.265,11.963
	c-0.179,3.744-0.49,7.48-0.814,11.219c-0.345,3.973-0.805,7.936-1.156,11.908c-0.379,4.297-0.773,8.594-1.013,12.898
	c-0.377,6.762-0.67,13.525-0.902,20.293c-0.054,1.578,0.289,3.172,0.438,4.758C147.792,603.594,148.073,606.658,148.354,609.701z
	 M145.598,602.227c0.815-0.637,0.727-1.236,0.094-1.652c-1.889-1.242-3.995-1.512-6.173-1.064c-0.343,0.07-0.582,0.645-0.869,0.988
	c0.356,0.227,0.737,0.678,1.066,0.643C141.818,600.918,143.801,601.279,145.598,602.227z"/>
<path fill="#D91F5D" d="M83.924,118.141c5.371,0.684,10.639-0.436,15.759-1.905c4.25-1.219,8.489-2.647,12.32-5.065
	c2.636-1.663,4.367-3.888,5.447-6.729c0.166-0.437,0.397-0.849,0.712-1.511c5.824,3.617,12.31,3.711,18.809,4.131
	c-2.93,1.409-6.241,1.774-9.186,2.966c-3.144,1.272-6.432,2.102-9.543,3.477c-3.023,1.336-6.303,2.093-9.488,3.111
	c0.04,1.082,0.549,1.257,1.435,0.96c5.491-1.843,11.004-3.605,16.382-5.79c2.551-1.036,5.346-1.459,8.01-2.231
	c3.359-0.974,6.692-2.038,10.047-3.033c3.723-1.105,7.038-0.924,10.095,2.073c2.187,2.144,3.623,4.605,4.896,7.267
	c0.207,0.431,0.324,0.916,0.583,1.31c2.67,4.068,3.557,8.85,5.303,13.286c0.55,1.394,0.776,2.936,1.006,4.431
	c0.932,6.07,2.495,11.998,3.878,17.971c1.506,6.505,2.591,13.109,4.167,19.595c1.046,4.308,2.141,8.604,3.692,12.814
	c1.355,3.676,2.603,7.488,3.084,11.5c0.387,3.22,1.318,6.395,2.231,9.524c0.836,2.869,1.305,5.725,1.039,8.709
	c-0.184,2.062-0.282,4.133-0.392,6.202c-0.255,4.813-2.339,8.924-5.121,12.675c-3.188,4.3-6.526,8.494-9.922,12.634
	c-1.765,2.15-3.93,3.975-5.669,6.143c-2.644,3.295-5.01,6.812-7.615,10.139c-2.451,3.132-5.165,6.062-7.568,9.229
	c-2.398,3.162-4.562,6.503-6.816,9.775c-2.298,3.336-4.661,6.631-6.852,10.036c-3.312,5.148-6.5,10.377-9.739,15.571
	c-0.042,0.067-0.06,0.151-0.105,0.215c-2.235,3.091-3.349,6.654-4.346,10.27c-0.059,0.213-0.263,0.387-0.549,0.787
	c-0.755-0.604-1.746-1.039-2.149-1.789c-1.169-2.17-3.101-3.419-5.103-4.537c-3.164-1.768-6.56-2.958-10.249-2.827
	c-2.241,0.079-3.841-0.799-4.983-2.663c4.812-7.342,9.499-14.728,13.72-22.41c3.562-6.485,7.893-12.492,12.068-18.592
	c3.996-5.837,7.924-11.723,11.757-17.668c1.465-2.271,2.479-4.83,3.879-7.148c3.379-5.602,6.864-11.139,10.308-16.702
	c0.125-0.203,0.259-0.4,0.584-0.9c0.938,2.118,1.723,3.896,2.511,5.672c0.418,0.945,0.757,1.941,1.293,2.814
	c0.287,0.466,0.919,0.718,1.396,1.067c0.341-0.582,1.036-1.223,0.951-1.734c-0.203-1.225-0.678-2.435-1.221-3.564
	c-0.615-1.281-1.484-2.438-2.127-3.707c-0.35-0.691-0.429-1.513-0.678-2.26c-0.428-1.284-0.787-2.604-1.359-3.823
	c-2.371-5.049-5.098-9.952-7.17-15.119c-4.665-11.633-9.575-23.182-13.267-35.186c-3.03-9.853-4.732-19.991-6.444-30.125
	c-0.236-1.399-0.05-2.869-0.079-4.306c-0.013-0.613-0.078-1.226-0.14-2.146c-1.377,0.883-1.597,2.134-1.576,3.209
	c0.044,2.301,0.324,4.603,0.602,6.893c0.382,3.163,0.814,6.32,1.297,9.469c0.217,1.417,0.562,2.82,0.927,4.209
	c2.247,8.574,4.764,17.076,7.778,25.404c3.315,9.158,6.898,18.222,10.543,27.255c1.338,3.315,3.153,6.442,4.819,9.62
	c0.447,0.853,0.609,1.558,0.129,2.453c-1.692,3.155-3.356,6.326-4.979,9.518c-2.937,5.778-6.913,10.88-10.46,16.262
	c-1.096,1.662-2.285,3.333-2.979,5.171c-0.923,2.444-2.86,3.8-4.747,5.224c-2.006,1.515-4.107,2.932-6.289,4.179
	c-1.715,0.98-3.55,1.868-5.443,2.399c-6.882,1.928-13.799,3.735-20.726,5.496c-4.464,1.135-8.941,2.253-13.465,3.095
	c-2.085,0.388-4.299,0.161-6.449,0.083c-1.127-0.041-1.888-0.727-2.103-1.921c-0.45-2.515-0.931-5.023-1.39-7.537
	c-1.463-8.004-2.775-16.036-4.972-23.891c-0.448-1.602-0.654-3.292-0.791-4.956c-0.472-5.735-1.469-11.375-3.061-16.898
	c-1.502-5.209-2.933-10.452-4.746-15.554c-1.194-3.36-3.063-6.476-4.542-9.741c-2.328-5.145-5.46-9.996-6.226-15.738
	c-0.832-6.232-2.168-12.447-1.125-18.795c0.246-1.496,0.432-3.01,0.813-4.471c0.507-1.946,1.751-3.261,3.59-4.216
	c1.741-0.906,3.281-2.199,4.905-3.329c3.408-2.372,6.817-4.729,9.683-7.793c0.905-0.968,2.164-1.593,3.197-2.452
	c4.96-4.127,9.903-8.273,14.838-12.43C81.619,120.26,82.724,119.217,83.924,118.141z M104.355,238.982
	c0.167,0.011,0.334,0.021,0.501,0.032c0.105-0.529,0.318-1.062,0.3-1.587c-0.146-4.299-0.168-8.611-0.545-12.892
	c-0.799-9.07-1.661-18.138-2.74-27.177c-0.852-7.129-1.362-14.292-2.689-21.381c-1.262-6.739-2.464-13.528-2.587-20.433
	c-0.012-0.673-0.233-1.342-0.358-2.013c-0.17,0.015-0.341,0.029-0.511,0.044c0,1.965-0.137,3.94,0.024,5.892
	c0.593,7.169,1.195,14.34,1.96,21.492c1.029,9.615,2.206,19.215,3.33,28.82c0.947,8.1,1.918,16.197,2.861,24.298
	C104.09,235.708,104.206,237.347,104.355,238.982z M55.079,160.141c0.287,0.385,0.515,0.84,0.872,1.142
	c1.514,1.275,3.116,2.449,4.593,3.765c2.02,1.8,4.056,3.6,5.902,5.57c2.955,3.154,5.051,6.913,7.188,10.648
	c2.414,4.22,4.504,8.565,6.219,13.114c0.798,2.116,1.929,4.106,2.909,6.154c0.204-0.085,0.409-0.169,0.613-0.254
	c-0.491-1.401-0.933-2.821-1.485-4.198c-0.8-1.995-1.702-3.948-2.521-5.936c-2.556-6.214-6.079-11.885-9.723-17.496
	c-1.937-2.983-4.561-5.323-7.109-7.712C60.413,162.947,58.29,160.874,55.079,160.141z M110.334,200.271
	c0.181-0.006,0.362-0.011,0.544-0.017c0.059-0.413,0.189-0.831,0.166-1.239c-0.434-7.486,1.051-14.755,2.28-22.078
	c0.917-5.458,2.505-10.713,4.177-15.935c0.977-3.052,2.159-6.18,4.714-8.445c0.269-0.237,0.459-0.561,0.715-0.881
	c-1.545-0.559-1.556-0.566-2.235,0.356c-2.849,3.864-4.295,8.391-5.561,12.892c-1.374,4.888-2.559,9.839-3.409,14.885
	c-0.932,5.527-1.688,11.027-1.653,16.626C110.08,197.716,110.243,198.993,110.334,200.271z M79.387,130.909
	c-0.046-0.16-0.092-0.321-0.138-0.481c-0.79,0-1.635-0.178-2.356,0.043c-0.968,0.296-1.819,0.949-2.758,1.365
	c-3.483,1.546-7.022,2.941-10.138,5.244c-3.064,2.266-6.345,4.238-9.41,6.502c-0.925,0.684-2.203,1.301-2.44,2.873
	c0.411,0.046,0.797,0.217,0.988,0.091c1.856-1.218,3.717-2.437,5.507-3.75c4.755-3.488,9.584-6.829,15.088-9.087
	C75.672,132.914,77.504,131.851,79.387,130.909z"/>
<path fill="#FEE5D2" d="M121.436,30.004c-0.834,0.755-1.669,1.511-2.664,2.411c1.494,0.84,2.763,0.44,4.138,0.342
	c-0.412,0.25-0.817,0.513-1.238,0.747c-0.439,0.245-0.895,0.461-1.448,0.744c0.973,1.2,1.881,0.304,2.916,0.304
	c1.384,3.303,2.046,6.754,2.028,10.382c-0.032,6.933-0.093,13.869,0.072,20.798c0.11,4.608-0.938,9.01-1.773,13.464
	c-1.356,7.234-5.143,13.5-8.075,20.102c-0.878,1.977-2.439,3.26-4.627,3.818c-2.76,0.704-5.443,1.733-8.221,2.341
	c-5.033,1.102-9.067-0.768-12.639-4.335c-4.061-4.055-6.541-9.144-9.645-13.827c-0.79-1.191-1.497-2.454-2.409-3.543
	c-1.307-1.562-1.69-3.285-1.695-5.284c-0.011-4.937-0.415-9.834-1.678-14.651c-0.562-2.142-0.703-4.396-1.011-6.602
	c-0.424-3.051-0.939-6.095-1.197-9.161c-0.192-2.277-0.038-4.583-0.038-6.85c1.188-0.287,2.315-0.559,3.441-0.831
	c0.029,0.056,0.059,0.111,0.087,0.167c-1.007,0.609-2.015,1.218-3.022,1.828c1.793,0.445,3.095-0.444,4.094-1.432
	c1.647-1.627,3.472-2.06,5.657-1.836c1.413,0.145,2.849,0.112,4.271,0.083c0.453-0.009,0.922-0.219,1.346-0.417
	c1.01-0.474,2.026-0.945,2.986-1.509c2.953-1.735,6.001-2.709,9.522-2.078c1.672,0.3,3.373,0.18,5.074-0.789
	c1.38-0.787,3.203-0.861,4.853-1.099c4.354-0.626,8.357-1.957,11.462-5.281c0.113-0.122,0.402-0.08,0.61-0.114
	C122.221,28.599,121.829,29.301,121.436,30.004z M107.301,86.085c-1.154,0.7-2.116,0.577-3.193-0.35
	c-1.412-1.215-2.414-1.129-3.826,0.052c-0.541,0.453-0.992,1.034-1.404,1.613c-0.801,1.123-1.653,2.126-3.111,2.409
	c-0.326,0.063-0.605,0.367-1.329,0.83c1.019,0.116,1.697,0.415,2.022,0.194c2.005-1.361,3.482-0.396,4.834,0.998
	c1.786,1.843,4.022,1.752,6.261,1.521c1.521-0.157,4.02-2.53,4.619-4.182c-1.985,1.116-3.357,3.218-5.964,3.245
	c-2.892,0.03-4.692-0.869-5.719-3.197c1.371-0.747,2.6-0.136,3.874,0.34c2.562,0.955,5.075,0.152,6.181-2.116
	c1.492,0,3.109,0,4.776,0c-1.211-0.725-2.273-1.321-3.295-1.979c-2.314-1.495-2.823-1.433-4.808,0.705L107.301,86.085z
	 M121.749,51.215c-0.265-0.583-0.311-0.949-0.513-1.087c-1.571-1.071-3.285-1.617-5.139-0.866
	c-4.668,1.892-8.573,5.065-12.849,7.514c0.425,1.441,1.112,2.695,1.104,3.943c-0.029,4.466,1.229,8.618,2.646,12.831
	c0.41-0.11,0.818-0.15,1.148-0.332c0.255-0.14,0.411-0.458,0.719-0.825c-2.482-3.99-3.162-8.318-2.299-13.131
	c3.805,1.998,7.107,1.121,10.145-1.512c-0.792,0.159-1.584,0.319-2.558,0.515c0.036-0.781,0.07-1.516,0.106-2.302
	c1.058,0,1.862,0,3.163,0c-2.285-1.375-4.221-1.668-6.404-1.263c1.512-1.39,3.019-2.798,4.754-3.819
	C117.581,49.818,119.579,50.596,121.749,51.215z M97.459,58.625c-1.29-0.699-2.273-1.413-3.371-1.794
	c-3.911-1.36-7.835-2.693-11.804-3.87c-3.065-0.909-3.975-0.365-5.592,2.742c1.008,0.012,1.022,0.031,1.778-0.582
	c1.435-1.165,2.944-1.468,4.665-0.621c1.921,0.946,3.883,1.807,5.817,2.724c0.207,0.098,0.354,0.32,0.666,0.615
	c-5.146,0.051-7.839,0.984-9.453,3.187c4.389,3.146,9.639,3.203,12.281-0.249c-1.468,0.407-2.582,0.717-3.93,1.091
	c0.092-1.012,0.154-1.693,0.243-2.672c1.635,0.307,3.104,0.532,4.548,0.868C94.814,60.413,96.107,60.239,97.459,58.625z
	 M110.803,76.088c-0.736-0.529-1.36-0.632-1.829-0.105c-1.518,1.708-3.15,1.177-4.979,0.591c-1.317-0.421-2.799-0.333-4.387-0.489
	c1.033,2.925,3.562,2.41,5.37,2.745C107.209,79.243,108.951,77.547,110.803,76.088z M92.625,47.386
	c-0.007,0.216-0.015,0.432-0.022,0.648c1.286,0.069,2.586,0.292,3.854,0.174c2.52-0.232,5.024-0.634,7.53-1.001
	c1.088-0.16,1.286-0.369,2.031-1.636C101.705,46.988,97.199,47.417,92.625,47.386z M85.125,65.228
	c2.344,0.595,4.021,0.219,5.354-1.066C88.869,64.483,86.916,64.872,85.125,65.228z M112.678,34.483
	c2.679,0.609,2.753,0.601,4.119-0.363C115.323,34.25,114,34.367,112.678,34.483z"/>
<path fill="#BE202E" d="M56.574,587.363c0.368,2.184,0.854,4.67,1.195,7.182c0.399,2.93,0.965,5.779,2.197,8.508
	c0.504,1.117,0.737,2.441,0.75,3.678c0.027,2.746,0.426,5.617-1.567,7.98c-0.451,0.533-0.911,1.084-1.452,1.52
	c-3.76,3.037-7.675,5.688-12.806,5.758c-3.096,0.043-6.199,0.586-9.278,0.443c-4.296-0.199-8.53-0.947-12.271-3.373
	c-4.162-2.699-5.629-7.074-4.257-11.793c1.168-4.014,3.195-7.594,4.979-11.312c0.958-1.998,1.723-4.109,2.354-6.236
	c0.693-2.334,1.699-4.463,3.326-6.262c1.022-1.129,1.694-1.297,2.671-0.385c2.747,2.562,5.937,3.115,9.481,2.48
	c3.144-0.564,6.135-0.107,9.14,1C52.599,587.127,54.398,587.068,56.574,587.363z"/>
<path fill="#FEE5D2" d="M97.886,341.486c-4.067,5.577-7.211,10.916-6.241,17.718c0.188,1.319,0.022,2.718-0.168,4.053
	c-0.115,0.809-0.591,1.566-0.939,2.434c-1.388-0.547-2.024-1.472-2.328-2.535c-1.239-4.336-1.619-8.646-0.408-13.145
	c0.524-1.947,1.401-3.682,2.084-5.522c0.285-0.769,0.459-1.336-0.428-1.922c-1.847,0.891-2.174,2.812-2.657,4.479
	c-1.585,5.463-2.266,11.078-2.475,16.759c-0.038,1.055,0.244,2.396-1.345,2.666c-0.918,0.155-1.507-0.955-1.528-2.801
	c-0.044-3.699-0.247-7.409-0.047-11.096c0.11-2.013,0.859-4.003,1.423-5.973c0.261-0.909,0.809-1.731,1.149-2.623
	c0.334-0.871,0.25-1.68-0.819-2.367c-1.701,3.929-3.691,7.625-3.257,12.07c0.193,1.978,0.077,3.987,0.079,5.982
	c0.001,0.558-0.046,1.12-0.128,1.671c-0.112,0.753-0.436,1.59-1.282,1.386c-0.515-0.123-0.981-0.895-1.242-1.477
	c-0.213-0.474-0.094-1.1-0.108-1.657c-0.091-3.349-0.219-6.697-0.255-10.046c-0.037-3.439,0.042-6.95,1.483-10.095
	c1.544-3.367,2.689-6.961,5.155-9.893c0.997-1.186,1.587-2.721,2.31-4.124c0.106-0.207-0.075-0.562-0.187-1.214
	c-2.624,2.306-4.319,4.944-6.137,7.645c-2.564,0.266-5.282,1.938-7.766-0.528c0.285-2.275,1.907-3.571,3.441-4.769
	c3.91-3.051,8.299-5.252,12.992-6.883c2.275-0.79,4.08-2.422,5.868-3.964c1.311-1.13,2.375-2.546,3.665-3.962
	c2.188,0.829,4.521,0.283,6.881,0.202c2.822-0.097,5.485,0.888,7.595,2.935c0.625,0.606,1.154,1.312,1.71,1.95
	c-0.656,1.587-1.32,3.111-1.92,4.661c-1.24,3.209-1.087,6.587-1.023,9.924c0.048,2.561-0.89,4.68-2.428,6.579
	c-1.809,2.235-3.85,4.295-5.542,6.611c-2.207,3.02-3.677,6.341-2.871,10.267c0.417,2.028,0.789,4.069,1.078,6.118
	c0.293,2.082-0.422,3.071-2.719,3.887c-2.099-2.922-3.715-6.05-3.806-9.799c-0.022-0.959-0.099-1.918-0.068-2.875
	c0.062-1.949,0.037-3.844,1.869-5.304c0.847-0.675,1.23-2.03,1.608-3.149C98.339,343.217,98.027,342.504,97.886,341.486z"/>
<path fill="#BE202E" d="M147.305,638.736c0,0.711-0.063,1.432,0.014,2.135c0.16,1.455-0.486,2.451-1.665,3.184
	c-3.453,2.137-6.883,4.354-10.847,5.434c-1.751,0.477-3.605,0.863-5.4,0.816c-2.61-0.072-5.217-0.525-7.809-0.92
	c-0.762-0.115-1.531-0.484-2.193-0.902c-5.146-3.244-8.779-9.322-7.476-15.857c0.806-4.037,1.341-8.131,2.193-12.156
	c0.427-2.014,1.177-3.982,1.982-5.885c1.839-4.342,6.004-6.064,10.415-4.414c1.859,0.695,3.78,1.287,5.525,2.207
	c1.626,0.855,3.028,0.613,4.548-0.074c1.087-0.49,2.187-1.018,3.337-1.291c2.014-0.477,3.089,0.293,3.36,2.297
	c0.639,4.729,1.203,9.465,1.865,14.189c0.176,1.256,0.633,2.469,0.893,3.715c0.519,2.486,0.991,4.98,1.482,7.471
	C147.456,638.701,147.38,638.719,147.305,638.736z"/>
<path fill="#EE2E7C" d="M72.055,273.527c0.152-0.045,0.305-0.129,0.455-0.127c5.971,0.099,11.736-1.282,17.501-2.547
	c2.635-0.578,5.159-1.643,7.75-2.436c5.785-1.771,11.616-3.404,17.355-5.312c2.543-0.845,4.919-2.199,7.354-3.358
	c0.695-0.331,1.332-0.786,2.248-0.956c-1.243,1.875-2.658,3.66-3.686,5.646c-1.183,2.287-2.944,3.453-5.404,3.616
	c-4.74,0.313-9.13,1.886-13.6,3.351c-6.419,2.104-12.989,3.744-19.48,5.63c-2.214,0.643-4.37,1.482-6.581,2.135
	c-1.287,0.38-2.619,0.682-3.952,0.816c-1.491,0.149-2.224-0.689-2.007-2.232c0.108-0.765,0.451-1.518,0.798-2.222
	C71.151,274.828,71.632,274.193,72.055,273.527z"/>
<path fill="#FEE5D2" d="M90.34,104.393c0.502,0.268,1.105,0.483,1.581,0.86c3.09,2.453,6.685,3.026,10.391,2.395
	c4.409-0.751,8.712-1.995,12.789-4.335c-0.667,0.936-1.228,1.974-2.019,2.79c-3.664,3.781-8.049,6.433-13.159,7.712
	c-3.229,0.808-6.527,1.358-9.814,1.896c-0.887,0.145-1.85-0.176-2.863-0.292C88.306,111.64,89.302,108.091,90.34,104.393z"/>
<path fill="#FFFFFF" d="M86.01,26.998c0.33-0.367,0.597-0.838,1-1.083c3.751-2.276,4.881-6.612,7.87-9.574
	c-0.244,0.631-0.479,1.265-0.733,1.892c-0.82,2.021-2.957,3.444-2.697,5.954c-2.585,0.986-2.24,3.904-3.71,5.631
	c-1.49,1.75-2.854,3.618-4.461,5.251c-0.491,0.499-1.183,1.699-2.366,0.813c-0.1-0.074-0.515,0.062-0.597,0.207
	c-1.204,2.122-3.374,2.027-5.452,2.527c1.042-1.888,3.417-2.457,3.779-4.667c0.105-0.169,0.212-0.338,0.317-0.507
	c-0.32-1.074,0.662-1.428,1.121-2.087c0.641-0.919,1.188-1.904,1.776-2.861l-0.068,0.073c0.592-0.335,1.23-0.61,1.765-1.021
	c0.79-0.609,1.507-1.315,2.501-2.2c0,0.798,0,1.248,0.004,1.7c-0.914,1.725-1.831,3.447-2.748,5.169
	c0.156,0.073,0.313,0.146,0.47,0.22C84.586,30.652,86.357,29.316,86.01,26.998z"/>
<path fill="#FFFFFF" d="M96.671,32.381c-0.881,1.235-1.409,1.394-3.141,0.878c-2.708,2.977-6.318,3.733-10.223,3.847
	c1.256-1.785,2.148-3.689,3.925-5.046c1.142-0.872,1.93-2.297,2.663-3.594c1.41-2.489,2.665-5.066,3.993-7.601
	c0.177-0.337,0.408-0.646,0.811-0.884c-0.487,1.8-0.976,3.6-1.463,5.4c-0.219,0.393-0.438,0.786-0.658,1.179
	c-0.919,1.164-1.839,2.329-2.921,3.699c1.462,0.36,1.921-0.539,2.508-1.176c0.591-0.641,1.175-1.289,1.912-1.815
	c-0.06,2.081-1.961,2.925-3.073,4.55c0.536,0.234,1.102,0.711,1.432,0.583c0.999-0.388,2.008-0.891,2.816-1.58
	c0.64-0.544,0.845-1.606,1.491-2.132c3.617-2.938,4.695-7.305,6.608-11.628c0.135,2.777-0.786,4.965-1.396,7.213
	c-0.463,0.544-0.926,1.088-1.389,1.632c-1.478,1.362-2.033,3.522-4.095,4.453c-0.563,0.255-1.354,1.301-0.939,2.477
	c0.462-0.149,0.832-0.27,1.202-0.388L96.671,32.381z"/>
<path fill="#FEE5D2" d="M67.599,59.69c2.258,0.999,3.243,2.455,3.688,4.509c0.886,4.086,1.963,8.132,3.074,12.66
	c-2.465-1.294-3.322-3.214-3.97-5.211c-0.854-2.636-1.618-5.305-2.3-7.991C67.786,62.449,67.772,61.166,67.599,59.69z"/>
<path fill="#FFFFFF" d="M100.083,31.191c0.073,0.367,0.146,0.735,0.299,1.497c3.233-3.106,4.565-6.954,6.118-10.664
	c0.224-0.329,0.451-0.661,0.679-0.994c0.911-0.109,0.57,0.548,0.463,0.883c-0.921,2.853-1.517,5.845-3.472,8.269
	c-0.215,0.267-0.28,0.653-0.201,1.117c2.691-2.742,4.902-5.821,7.144-9.012c-0.257,1.078-0.515,2.155-0.771,3.232h0.009
	c-0.64,1.181-1.145,2.466-1.957,3.512c-0.753,0.968-1.8,1.724-2.778,2.498c-2.667,2.109-3.125,2.172-7.574,1.03
	C98.932,31.962,99.508,31.577,100.083,31.191z"/>
<path fill="#FEE5D2" d="M126.821,67.701c0-4.108,0-8.047,0-11.827c0.373-0.333,0.522-0.573,0.724-0.629
	c0.795-0.223,1.778-0.765,2.373-0.493c1.1,0.503,0.164,1.492,0.057,2.293c-0.231,1.728-0.604,3.475-0.53,5.198
	C129.539,64.459,129.205,66.326,126.821,67.701z"/>
<path fill="#FFFFFF" d="M75.6,29.101c-1.721,1.493-3.442,2.985-5.104,4.427c-2.042-1.114-2.235-1.884-0.766-3.105
	c1.996-1.658,4.1-3.181,6.778-3.576C76.206,27.598,75.903,28.35,75.6,29.101z"/>
<path fill="#FFFFFF" d="M81.858,28.494c-0.665,0.494-1.33,0.988-1.994,1.482c-0.116-0.109-0.231-0.218-0.347-0.328
	c2.016-3.669,5.71-6.314,7.021-10.645c0.188,0.936,0.375,1.871,0.564,2.813c-0.498,0.2-1.176,0.295-1.22,0.517
	c-0.482,2.414-2.075,4.034-3.787,5.594c-0.162,0.148-0.207,0.423-0.307,0.639C81.79,28.567,81.858,28.494,81.858,28.494z"/>
<path fill="#FFFFFF" d="M92.579,26.56c0.22-0.393,0.439-0.786,0.658-1.179c0.814-1.891,1.852-3.723,2.366-5.692
	c0.353-1.348,0.992-2.021,2.484-2.679c-0.191,1.184-0.108,2.208-0.523,2.957c-1.269,2.288-2.718,4.476-4.122,6.686
	C93.162,27.095,92.77,27.477,92.579,26.56z"/>
<path fill="#FFFFFF" d="M113.716,23.134c-0.763,4.37-1.901,8.357-7.441,9.186C109.758,29.734,111.782,26.437,113.716,23.134z"/>
<path fill="#FFFFFF" d="M71.554,36.351c2.339-2.08,4.678-4.16,7.017-6.239c-1.261,3.303-3.879,5.096-6.604,6.77
	C71.83,36.705,71.692,36.528,71.554,36.351z"/>
<path fill="#FFFFFF" d="M110.341,25.519c1.349-0.944,1.393-2.529,1.527-3.857c0.187-1.835,0.968-3.24,2.267-4.572
	c-0.061,0.768,0.034,1.589-0.212,2.292c-0.603,1.722-1.296,3.422-2.101,5.058c-0.237,0.484-0.965,0.728-1.471,1.08
	C110.35,25.52,110.341,25.519,110.341,25.519z"/>
<path fill="#FFFFFF" d="M100.877,20.363c-0.689,2.4-2.81,3.624-4.215,5.438c-0.169-0.098-0.338-0.196-0.507-0.294
	c0.729-1.672,1.458-3.344,2.129-4.883C99.211,20.53,99.974,20.453,100.877,20.363z"/>
<path fill="#FFFFFF" d="M107.179,21.03c-0.228,0.333-0.455,0.665-0.679,0.994c-0.631,0.755-1.264,1.514-1.897,2.272
	c0.296-0.982,0.679-1.948,0.869-2.951c0.381-1.999,1.433-3.618,2.95-5.095C108.008,17.844,107.593,19.437,107.179,21.03z"/>
<path fill="#FFFFFF" d="M100.567,25.907c0.463-0.544,0.926-1.088,1.389-1.632c0.049,0.232,0.188,0.49,0.131,0.692
	c-0.716,2.542-1.689,4.965-3.729,6.758c-0.425,0.374-1.117,0.445-1.687,0.656l0.063,0.068c0.57-0.823,1.201-1.611,1.697-2.477
	C99.193,28.644,99.86,27.264,100.567,25.907z"/>
<path fill="#FFFFFF" d="M120.321,18.791c0.368-0.035,0.736-0.07,1.105-0.105c0.466,2.962,0.056,3.918-2.682,5.862
	c0.584-2.084,1.11-3.96,1.637-5.835L120.321,18.791z"/>
<path fill="#FFFFFF" d="M107.143,26.076c0.812-3.188,1.623-6.375,2.556-10.036c-0.142,1.384-0.228,2.318-0.335,3.25
	c-0.073,0.631-0.445,1.384-0.221,1.866C110.257,23.546,108.241,24.604,107.143,26.076z"/>
<path fill="#FFFFFF" d="M121.436,30.004c0.393-0.703,0.785-1.405,1.178-2.107c0.87-0.685,1.74-1.369,2.31-1.817
	c0.133,1.803-0.856,3.722-2.669,4.561C121.53,30.976,121.451,30.548,121.436,30.004z"/>
<path fill="#FFFFFF" d="M113.494,30.212c0.747-2.618,2.815-4.26,4.437-6.236C117.738,26.955,115.166,28.273,113.494,30.212z"/>
<path fill="#FFFFFF" d="M117.167,21.243c-0.457,2.319-1.813,4.122-3.623,6.202C113.854,24.52,115.417,22.835,117.167,21.243z"/>
<path fill="#FFFFFF" d="M87.493,24.692c0.267-1.767,0.463-3.07,0.688-4.559c0.442-0.19,0.983-0.422,1.577-0.677
	C90.558,21.798,89.051,22.988,87.493,24.692z"/>
<path fill="#FFFFFF" d="M78.78,27.137c1.019-1.965,1.81-3.491,2.601-5.017c0.147,0.081,0.296,0.162,0.444,0.243
	C81.437,24.111,81.117,25.896,78.78,27.137z"/>
<path fill="#FFFFFF" d="M115.677,19.948c-0.476-1.902-0.009-3.545-1.4-4.617c-0.195-0.15,0.227-1.104,0.431-1.974
	C115.977,15.451,116.116,17.366,115.677,19.948z"/>
<path fill="#FFFFFF" d="M125.697,17.062c0.948,2.164,0.347,4.103-1.031,5.909c0.249-0.961,0.562-1.911,0.731-2.886
	C125.57,19.09,125.603,18.071,125.697,17.062z"/>
<path fill="#FFFFFF" d="M125.182,18.84c-0.615,1.767-1.106,3.177-1.598,4.587C122.898,21.583,123.233,20.115,125.182,18.84z"/>
<path fill="#FFFFFF" d="M70.47,46.864c-0.115-2.391-0.23-4.783-0.345-7.174C71.174,42.035,70.551,44.446,70.47,46.864z"/>
<path fill="#FFFFFF" d="M120.381,18.713c-0.258,0.274-0.516,0.548-0.773,0.822c-0.135-0.072-0.269-0.144-0.403-0.216
	c0.529-1.501,1.06-3.002,1.59-4.503c0.127,0,0.254,0,0.381,0c0.077,0.378,0.301,0.8,0.203,1.126
	c-0.288,0.974-0.701,1.91-1.062,2.854C120.321,18.791,120.381,18.713,120.381,18.713z"/>
<path fill="#FFFFFF" d="M75.6,29.101c0.303-0.751,0.605-1.503,0.908-2.254c0.341-0.247,0.695-0.475,1.017-0.745
	c0.329-0.275,0.625-0.591,0.936-0.889l0.057,0.053C78.009,26.898,77.42,28.468,75.6,29.101z"/>
<path fill="#FFFFFF" d="M102.973,26.134c-0.308,1.952-0.727,3.843-2.695,4.876C101.176,29.385,102.075,27.759,102.973,26.134z"/>
<path fill="#FFFFFF" d="M68,42.667c-0.129-1.18-0.258-2.36-0.387-3.541c0.185-0.017,0.369-0.033,0.553-0.05
	C68.551,40.22,68.293,41.424,68,42.667z"/>
<path fill="#FFFFFF" d="M78.96,33.442c-0.105,0.169-0.212,0.338-0.317,0.507c-0.594,0.456-1.188,0.912-1.908,1.465
	C77.353,33.73,77.353,33.73,78.96,33.442z"/>
<path fill="#FFFFFF" d="M119.401,27.226c0.441-0.666,0.883-1.331,1.603-2.416c0.096,1.6-0.819,2.014-1.219,2.728
	C119.657,27.434,119.529,27.33,119.401,27.226z"/>
<path fill="#FFFFFF" d="M94.072,29.643c0.613-0.682,1.226-1.364,1.838-2.046c0.15,0.116,0.302,0.231,0.452,0.346
	c-0.554,0.748-1.107,1.495-1.661,2.243C94.491,30.005,94.282,29.824,94.072,29.643z"/>
<path fill="#FFFFFF" d="M78.46,25.214c0.342-0.793,0.684-1.586,1.025-2.379c0.009,0.962-0.037,1.897-0.97,2.431
	C78.517,25.266,78.46,25.214,78.46,25.214z"/>
<path fill="#FFFFFF" d="M126.381,46.863c0.205-0.773,0.41-1.546,0.615-2.318c0.141,0.033,0.28,0.065,0.421,0.098
	c-0.188,0.778-0.374,1.556-0.561,2.334C126.699,46.939,126.54,46.901,126.381,46.863z"/>
<path fill="#FFFFFF" d="M125.478,31.417c0.179,0.644,0.356,1.288,0.535,1.933c-0.096,0.031-0.19,0.062-0.286,0.093
	c-0.229-0.59-0.457-1.18-0.686-1.77C125.187,31.588,125.332,31.502,125.478,31.417z"/>
<path fill="#FFFFFF" d="M117.834,27.042c0.342-0.32,0.684-0.64,1.024-0.96c0.087,0.08,0.174,0.161,0.261,0.241
	c-0.308,0.365-0.616,0.73-0.925,1.095C118.075,27.292,117.956,27.167,117.834,27.042z"/>
<path fill="#FFFFFF" d="M117.827,29.349c-0.505,0.387-1.011,0.774-1.516,1.162c-0.098-0.113-0.195-0.226-0.294-0.339
	c0.473-0.409,0.945-0.817,1.417-1.226C117.565,29.08,117.696,29.215,117.827,29.349z"/>
<path fill="#FFFFFF" d="M128.497,49.376c0-0.517,0-1.033,0-1.55c0.061-0.005,0.121-0.01,0.182-0.015c0,0.52,0,1.04,0,1.56
	C128.618,49.372,128.557,49.374,128.497,49.376z"/>
<path d="M145.598,602.227c-1.797-0.947-3.78-1.309-5.882-1.088c-0.329,0.035-0.71-0.416-1.066-0.643
	c0.287-0.342,0.526-0.918,0.869-0.988c2.178-0.445,4.284-0.178,6.173,1.066C146.325,600.99,146.414,601.59,145.598,602.227z"/>
<path d="M104.355,238.982c-0.149-1.635-0.265-3.274-0.454-4.904c-0.943-8.101-1.914-16.198-2.861-24.298
	c-1.124-9.605-2.301-19.205-3.33-28.82c-0.765-7.152-1.367-14.323-1.96-21.492c-0.161-1.951-0.024-3.927-0.024-5.892
	c0.17-0.015,0.341-0.029,0.511-0.044c0.125,0.671,0.347,1.34,0.358,2.013c0.123,6.905,1.325,13.694,2.587,20.433
	c1.327,7.089,1.838,14.251,2.689,21.381c1.079,9.04,1.941,18.107,2.74,27.177c0.377,4.28,0.399,8.593,0.545,12.892
	c0.019,0.525-0.194,1.058-0.3,1.587C104.689,239.004,104.522,238.993,104.355,238.982z"/>
<path d="M55.079,160.141c3.211,0.732,5.334,2.806,7.458,4.796c2.549,2.389,5.173,4.729,7.109,7.712
	c3.644,5.611,7.167,11.282,9.723,17.496c0.818,1.988,1.721,3.941,2.521,5.936c0.553,1.376,0.994,2.797,1.485,4.198
	c-0.204,0.085-0.409,0.169-0.613,0.254c-0.98-2.047-2.111-4.038-2.909-6.154c-1.715-4.549-3.805-8.894-6.219-13.114
	c-2.137-3.736-4.232-7.495-7.188-10.648c-1.847-1.971-3.883-3.771-5.902-5.57c-1.477-1.316-3.079-2.49-4.593-3.765
	C55.593,160.982,55.366,160.526,55.079,160.141z"/>
<path d="M110.334,200.271c-0.092-1.278-0.255-2.556-0.263-3.834c-0.035-5.6,0.722-11.1,1.653-16.626
	c0.851-5.046,2.035-9.998,3.409-14.885c1.266-4.5,2.712-9.027,5.561-12.892c0.68-0.922,0.69-0.915,2.235-0.356
	c-0.256,0.32-0.446,0.644-0.715,0.881c-2.555,2.265-3.737,5.393-4.714,8.445c-1.672,5.222-3.26,10.478-4.177,15.935
	c-1.229,7.323-2.714,14.592-2.28,22.078c0.023,0.408-0.107,0.826-0.166,1.239C110.697,200.26,110.515,200.265,110.334,200.271z"/>
<path d="M79.387,130.909c-1.883,0.942-3.715,2.005-5.657,2.802c-5.504,2.258-10.333,5.599-15.088,9.087
	c-1.79,1.313-3.65,2.531-5.507,3.75c-0.191,0.125-0.577-0.045-0.988-0.091c0.237-1.572,1.516-2.189,2.44-2.873
	c3.065-2.265,6.346-4.237,9.41-6.502c3.115-2.303,6.654-3.698,10.138-5.244c0.938-0.417,1.79-1.069,2.758-1.365
	c0.722-0.221,1.566-0.043,2.356-0.043C79.295,130.588,79.341,130.749,79.387,130.909z"/>
<path d="M121.749,51.215c-2.17-0.619-4.168-1.397-5.976-0.333c-1.735,1.021-3.242,2.43-4.754,3.819
	c2.184-0.405,4.119-0.112,6.404,1.263c-1.301,0-2.105,0-3.163,0c-0.036,0.786-0.07,1.521-0.106,2.302
	c0.974-0.196,1.766-0.355,2.558-0.515c-3.037,2.632-6.34,3.509-10.145,1.512c-0.863,4.812-0.184,9.141,2.299,13.131
	c-0.308,0.367-0.464,0.685-0.719,0.825c-0.33,0.182-0.738,0.222-1.148,0.332c-1.417-4.212-2.676-8.365-2.646-12.831
	c0.009-1.249-0.679-2.502-1.104-3.943c4.275-2.449,8.181-5.622,12.849-7.514c1.854-0.751,3.567-0.206,5.139,0.866
	C121.438,50.266,121.484,50.633,121.749,51.215z M107.436,58.226c1.207,0.754,2.144,1.424,3.485,0.836
	c-0.496-0.728-0.934-1.369-1.387-2.033c-0.243,0.116-0.453,0.201-0.646,0.313C108.481,57.58,108.082,57.832,107.436,58.226z"/>
<path d="M97.459,58.625c-1.353,1.614-2.646,1.788-4.15,1.438c-1.443-0.335-2.913-0.561-4.548-0.868
	c-0.089,0.979-0.151,1.661-0.243,2.672c1.348-0.375,2.462-0.684,3.93-1.091c-2.643,3.452-7.893,3.395-12.281,0.249
	c1.614-2.203,4.308-3.136,9.453-3.187c-0.312-0.294-0.459-0.517-0.666-0.615c-1.935-0.917-3.896-1.778-5.817-2.724
	c-1.721-0.847-3.23-0.544-4.665,0.621c-0.756,0.612-0.771,0.593-1.778,0.582c1.617-3.107,2.526-3.65,5.592-2.742
	c3.969,1.177,7.893,2.51,11.804,3.87C95.186,57.212,96.169,57.926,97.459,58.625z M82.94,60.473
	c-0.001,0.225-0.002,0.451-0.003,0.676c0.409-0.075,0.819-0.147,1.224-0.245c0.013-0.003-0.031-0.409-0.066-0.412
	C83.711,60.461,83.326,60.473,82.94,60.473z"/>
<path d="M107.219,86.167c1.984-2.137,2.493-2.199,4.808-0.705c1.021,0.66,2.084,1.255,3.295,1.979c-1.667,0-3.284,0-4.776,0
	c-1.105,2.268-3.618,3.071-6.181,2.116c-1.274-0.476-2.503-1.086-3.874-0.34c1.026,2.328,2.827,3.227,5.719,3.197
	c2.606-0.027,3.979-2.129,5.964-3.245c-0.6,1.652-3.099,4.025-4.619,4.182c-2.238,0.231-4.475,0.322-6.261-1.521
	c-1.352-1.395-2.829-2.359-4.834-0.998c-0.325,0.221-1.004-0.078-2.022-0.194c0.724-0.463,1.003-0.767,1.329-0.83
	c1.458-0.283,2.311-1.287,3.111-2.409c0.412-0.579,0.863-1.161,1.404-1.613c1.412-1.181,2.414-1.267,3.826-0.052
	c1.077,0.927,2.039,1.049,3.193,0.351c-0.998,1.789-1.416,1.868-3.223,0.616c-1.997-1.385-2.451-1.294-3.693,0.604
	c1.373,0.267,2.8,0.635,4.25,0.795c1.091,0.121,2.271,0.187,3.303-0.106c1.349-0.384,2.591-1.146,3.978-1.792
	c-0.634-0.442-1.267-0.885-1.665-1.163C109.074,85.478,108.147,85.823,107.219,86.167z"/>
<path d="M110.803,76.088c-1.853,1.458-3.594,3.154-5.824,2.742c-1.808-0.335-4.337,0.181-5.37-2.745
	c1.588,0.157,3.069,0.068,4.387,0.489c1.828,0.585,3.461,1.116,4.979-0.591C109.443,75.456,110.067,75.559,110.803,76.088z"/>
<path d="M92.625,47.386c4.573,0.031,9.079-0.398,13.394-1.815c-0.745,1.268-0.943,1.477-2.031,1.636
	c-2.506,0.368-5.011,0.769-7.53,1.001c-1.269,0.117-2.568-0.105-3.854-0.174C92.611,47.818,92.619,47.602,92.625,47.386z"/>
<path d="M85.125,65.228c1.79-0.356,3.743-0.745,5.354-1.066C89.146,65.447,87.469,65.823,85.125,65.228z"/>
<path d="M112.678,34.483c1.322-0.117,2.645-0.233,4.119-0.363C115.431,35.084,115.357,35.093,112.678,34.483z"/>
<path d="M86.01,26.998c0.347,2.317-1.424,3.654-2.229,5.437c-0.156-0.073-0.313-0.146-0.47-0.22
	c0.917-1.722,1.834-3.444,2.748-5.169C86.055,27.043,86.01,26.998,86.01,26.998z"/>
<path d="M100.567,25.907c-0.707,1.358-1.374,2.738-2.135,4.065c-0.496,0.866-1.127,1.654-1.697,2.477
	c-0.37,0.119-0.74,0.239-1.202,0.388c-0.415-1.176,0.376-2.222,0.939-2.477C98.534,29.429,99.089,27.268,100.567,25.907z"/>
<path fill="#FFFFFF" d="M107.436,58.226c0.646-0.395,1.045-0.646,1.452-0.883c0.193-0.113,0.403-0.197,0.646-0.313
	c0.453,0.664,0.891,1.305,1.387,2.033C109.58,59.651,108.643,58.98,107.436,58.226z"/>
<path fill="#FFFFFF" d="M82.94,60.473c0.386,0,0.771-0.012,1.154,0.02c0.035,0.003,0.079,0.409,0.066,0.412
	c-0.404,0.098-0.814,0.169-1.224,0.245C82.938,60.924,82.939,60.698,82.94,60.473z"/>
<path fill="#FEE5D2" d="M107.219,86.167c0.928-0.344,1.854-0.689,3.031-1.126c0.398,0.278,1.031,0.721,1.665,1.163
	c-1.387,0.646-2.629,1.408-3.978,1.792c-1.031,0.293-2.212,0.227-3.303,0.106c-1.45-0.16-2.877-0.529-4.25-0.795
	c1.242-1.898,1.696-1.989,3.693-0.604c1.807,1.252,2.225,1.173,3.223-0.616C107.301,86.085,107.219,86.167,107.219,86.167z"/>
</svg>
