<?xml version="1.0" encoding="utf-8"?>
<!-- Generator: Adobe Illustrator 16.0.4, SVG Export Plug-In . SVG Version: 6.00 Build 0)  -->
<!DOCTYPE svg PUBLIC "-//W3C//DTD SVG 1.1//EN" "http://www.w3.org/Graphics/SVG/1.1/DTD/svg11.dtd">
<svg version="1.1" id="Layer_1" xmlns="http://www.w3.org/2000/svg" xmlns:xlink="http://www.w3.org/1999/xlink" x="0px" y="0px"
	 width="604.075px" height="551.972px" viewBox="0 23.609 604.075 551.972" enable-background="new 0 23.609 604.075 551.972"
	 xml:space="preserve">
<path d="M490.422,297.051c1.94,1.351,3.88,2.74,6.037,3.898c4.787,2.566,8.886,5.973,13.356,8.933
	c8.79,5.823,17.453,11.802,26.144,17.75c6.358,4.351,12.535,8.924,19.033,13.094c8.504,5.456,15.807,12.209,24.354,17.595
	c0.618,0.39,1.276,0.744,1.837,1.191c1.94,1.541,4.211,2.625,5.437,5.005c1.239,2.407,3.179,4.612,5.443,6.471
	c1.465,1.199,2.416,2.551,1.562,4.375c-0.76,1.618-2.632,2.345-4.882,2.546c-3.729,0.332-7.002-1.279-10.529-1.753
	c-3.223-0.433-6.406-1.143-9.612-1.705c-3.671-0.643-7.337-1.311-11.024-1.878c-8.521-1.31-17.077-2.446-25.573-3.888
	c-5.688-0.964-11.294-2.339-16.94-3.516c-0.816-0.168-1.652-0.308-2.486-0.345c-6.049-0.274-12.016-1.028-17.88-2.443
	c-0.476-0.113-0.966-0.178-1.678-0.307c0.299,1.984,1.196,3.684,1.99,5.347c4.944,10.394,8.532,21.172,12.134,31.954
	c2.354,7.043,4.729,14.088,7.379,21.049c3.161,8.305,6.791,16.461,10.57,24.57c2.065,4.43,4.586,8.689,6.245,13.279
	c0.768,2.129,0.845,4.217,0.871,6.352c0.012,0.922-1.072,1.705-2.291,1.586c-1.494-0.15-3.122-0.414-4.221-1.277
	c-1.765-1.387-3.819-2.191-5.87-3.043c-6.346-2.633-12.371-5.795-18.469-8.85c-7.631-3.826-15.434-7.404-22.925-11.445
	c-4.9-2.646-10.062-4.857-14.896-7.588c-6.616-3.736-13.824-6.49-20.528-10.059c-3.682-1.957-7.547-3.621-11.104-5.762
	c-0.897-0.541-1.826-1.027-3.16-1.418c-0.172,1.158-0.409,2.232-0.484,3.314c-0.425,6.043-0.748,12.098-1.654,18.092
	c-0.53,3.51,0.61,6.834,1.232,10.211c1.698,9.246,3.176,18.516,3.965,27.846c0.542,6.414,0.709,12.854,1.103,19.275
	c0.262,4.256,0.645,8.502,0.938,12.756c0.509,7.393,1.132,14.779,1.441,22.174c0.286,6.826,1.35,13.547,2.948,20.227
	c0.174,0.723,0.479,1.457,0.889,2.1c1.148,1.801,0.883,3.574,0.188,5.393c-0.181,0.469-0.443,0.918-0.968,0.873
	c-2.433-0.195-4.818,0.287-6.9-1.98c-2.961-3.23-6.678-5.912-10.034-8.863c-4.946-4.352-8.918-9.424-13.191-14.268
	c-2.916-3.309-5.919-6.559-8.843-9.863c-2.127-2.4-4.207-4.838-6.271-7.285c-1.748-2.07-3.652-4.07-5.104-6.297
	c-1.991-3.049-4.229-5.941-6.46-8.838c-3.535-4.584-6.978-9.225-10.776-13.648c-3.945-4.598-7.486-9.428-10.864-14.383
	c-4.297-6.312-7.305-13.188-11.54-19.508c-0.038-0.053-0.141-0.076-0.404-0.209c-0.476,1.264-0.908,2.512-1.41,3.732
	c-3.446,8.381-6.551,16.854-9.019,25.523c-0.97,3.4-2.799,6.523-4.188,9.789c-0.942,2.217-1.945,4.41-2.733,6.686
	c-0.538,1.543-1.608,2.932-2.264,4.453c-1.73,4.027-2.915,8.219-4.136,12.391c-1.009,3.455-2.115,6.879-3.325,10.283
	c-1.812,5.1-4.189,10.016-6.022,15.094c-2.323,6.439-4.957,12.783-7.13,19.268c-0.521,1.551-1.934,2.705-2.535,4.256
	c-0.148,0.383-0.469,0.729-0.641,1.156c-0.663,1.646-2.145,2.025-3.681,0.867c-1.02-0.768-1.896-1.717-2.707-2.674
	c-2.647-3.123-5.083-6.373-7.392-9.705c-2.346-3.383-5.06-6.584-7.157-10.078c-3.419-5.703-7.101-11.275-10.366-17.051
	c-1.392-2.465-3.297-4.711-5.07-6.998c-3.417-4.406-6.411-9.006-8.758-13.945c-1.183-2.482-2.659-4.857-3.979-7.293
	c-4.212-7.766-7.638-15.855-12.411-23.398c-3.271-5.168-6.473-10.371-9.544-15.633c-5.406-9.264-11.316-18.309-16.04-27.865
	c-3.123-6.32-5.99-12.74-7.894-19.455c-0.209-0.738-0.021-1.873-1.103-2.055c-0.854-0.146-1.313,0.791-1.854,1.338
	c-1.969,2-4.382,3.668-5.62,6.197c-0.152,0.312-0.552,0.561-0.891,0.762c-5.148,3.09-9.277,7.199-13.493,11.148
	c-3.838,3.596-7.542,7.338-10.931,11.326c-2.955,3.477-6.264,6.721-9.562,9.949c-3.148,3.076-6.608,5.895-9.352,9.305
	c-1.263,1.566-2.998,2.764-4.341,4.291c-2.096,2.383-4.42,4.602-6.573,6.945c-0.978,1.066-2.349,1.777-3.076,3.09
	c-0.74,1.33-1.979,2.373-3.162,3.422c-1.168,1.033-2.465,1.984-3.446,3.148c-1.666,1.975-3.756,3.426-5.946,4.906
	c-1.552,1.051-2.393,2.939-3.511,4.479c-0.216,0.297-0.205,0.914-0.573,0.93c-2.053,0.078-2.792,1.707-4.092,2.65
	c-0.738,0.537-1.31,0.893-2.109,0.119c-0.612-0.594-1.34-0.379-2.106-0.264c-1.432,0.217-2.199-0.357-1.891-1.529
	c0.449-1.717,0.285-3.426,0.125-5.129c-0.468-5.004-0.332-10.012-0.513-15.016c-0.119-3.283-0.213-6.561-0.173-9.848
	c0.044-3.748,0.27-7.477,0.594-11.195c0.483-5.537-0.234-11.061-0.22-16.59c0.013-5.17,0.377-10.297,1.234-15.396
	c1.066-6.348,1.958-12.715,2.443-19.127c0.554-7.298,1.416-14.577,1.544-21.901c0.088-5.005,0.344-9.997,1.02-14.962
	c0.3-2.217-0.078-4.486,0.397-6.697c0.186-0.858-0.225-1.405-1.055-1.835c-7.499-3.873-13.503-9.466-20.328-14.116
	c-3.797-2.587-6.891-5.846-10.686-8.43c-3.752-2.555-7.292-5.356-10.996-7.974c-6.868-4.849-13.836-9.589-20.072-15.111
	c-0.461-0.408-1.12-0.636-1.667-0.972c-4.766-2.914-9.425-5.963-14.128-8.951c-4.334-2.755-8.448-5.719-12.355-8.881
	c-8.375-6.776-17.222-13.067-25.488-19.949c-0.925-0.771-1.855-1.541-2.729-2.357c-1.348-1.258-1.203-2.594,0.51-3.499
	c4.705-2.491,9.426-4.955,14.458-6.921c6.938-2.71,13.796-5.571,20.371-8.919c1.674-0.852,3.482-1.412,5.202-2.159
	c5.757-2.501,11.508-5.025,17.376-7.312c3.658-1.426,7.405-2.7,10.996-4.25c4.287-1.851,8.902-2.863,13.306-4.386
	c2.07-0.718,3.984-1.753,6.106-2.436c4.365-1.406,8.676-2.958,12.934-4.6c6.963-2.682,14.114-4.938,21.146-7.461
	c0.154-0.055,0.305-0.122,0.455-0.188c2.574-1.103,2.562-1.101,1.771-3.479c-2.121-6.379-3.971-12.829-6.435-19.117
	c-1.745-4.453-3.031-9.027-4.762-13.478c-4.605-11.833-8.315-23.908-12.686-35.804c-0.784-2.133-1.627-4.266-2.245-6.43
	c-0.788-2.758-2.612-4.972-4.203-7.323c-0.253-0.373-0.621-0.735-1.032-0.96c-0.958-0.527-1.45-1.102-1.202-2.203
	c0.166-0.732-0.534-1.389-1.014-2.003c-0.581-0.746-1.12-1.509-1.395-2.387c-0.46-1.467-0.03-2.162,1.621-2.679
	c0.631-0.197,1.261-0.399,1.893-0.59c1.427-0.43,2.733-0.383,4.029,0.505c1.479,1.014,3.299,1.482,4.948,2.222
	c3.904,1.75,7.791,3.561,11.523,5.587c7.118,3.863,14.137,7.87,21.477,11.399c1.848,0.889,3.558,2.008,5.336,3.017
	c4.931,2.8,10.401,4.616,15.615,6.9c6.951,3.045,14.002,5.906,20.921,9.009c5.774,2.589,11.651,4.993,17.378,7.654
	c1.699,0.789,3.477,1.555,5.084,2.545c1.499,0.924,1.707,0.857,2.634-0.632c1.743-2.802,2.854-5.869,4.468-8.721
	c2.771-4.906,5.693-9.744,8.353-14.697c3.02-5.623,6.097-11.222,8.7-17.022c1.3-2.898,3.085-5.595,4.396-8.502
	c3.447-7.645,7.359-15.108,10.565-22.854c2.768-6.686,6.287-13.1,9.696-19.546c2.055-3.884,3.957-7.824,5.485-11.938
	c2.435-6.552,5.428-12.933,8.109-19.411c1.007-2.435,1.789-4.944,2.699-7.411c0.25-0.675,0.285-1.272-0.186-1.916
	c-0.502-0.689-0.798-1.501-1.335-2.164c-0.804-0.991-0.9-1.842,0.07-2.771c1.187-1.134,2.958-1.622,4.215-1.135
	c2.258,0.873,3.515,2.688,4.943,4.278c2.472,2.749,4.572,5.749,7.632,8.08c0.995,0.758,1.655,1.893,2.379,2.904
	c3.13,4.364,7.017,8.26,10.094,12.636c3.136,4.458,7.21,8.318,10.064,12.955c0.992,1.611,2.708,2.863,4.02,4.332
	c6.547,7.354,13.284,14.567,20.241,21.621c4.059,4.114,7.689,8.559,11.616,12.763c7.287,7.799,14.303,15.843,22.959,22.546
	c0.127,0.099,0.303,0.172,0.383,0.295c1.646,2.56,3.974,2.213,6.503,1.371c3.514-1.173,7.077-2.234,10.591-3.406
	c1.729-0.576,3.532-0.883,5.311-1.269c11.283-2.45,22.399-5.409,33.253-9.037c8.192-2.739,16.164-5.995,24.288-8.905
	c5.875-2.104,11.755-4.208,17.764-6.034c6.865-2.089,13.656-4.376,20.645-6.14c2.696-0.679,5.474-1.11,8.16-1.807
	c5.429-1.41,10.784-3.042,16.239-4.364c6.83-1.656,13.753-3.012,20.722-4.176c1.533-0.256,3.015,0.112,4.476,0.454
	c1.104,0.258,1.688,0.861,1.361,2.011c-0.202,0.708-0.109,1.482-0.571,2.147c-0.206,0.299-0.582,0.702-0.167,0.996
	c1.426,1.014,0.247,2.038-0.12,2.801c-3.849,7.991-6.954,16.232-10.033,24.474c-2.234,5.983-4.128,12.076-5.984,18.169
	c-2.157,7.091-4.109,14.236-6.148,21.356c-2.147,7.484-4.521,14.919-6.223,22.502c-0.781,3.491-1.585,6.977-2.397,10.462
	c-1.44,6.186-3.072,12.346-4.133,18.589c-0.516,3.025-1.206,6.085-1.134,9.199c0.031,1.443,0.063,1.397,1.699,1.423
	c2.892,0.045,5.61-0.805,8.434-1.039c6.504-0.541,13.021-0.958,19.531-1.449c1.748-0.131,3.489-0.334,5.232-0.532
	c4.908-0.557,9.878-0.06,14.782-0.508c5.487-0.503,11.01-0.538,16.497-1.11c6.129-0.639,12.287-1.168,18.473-1.359
	c3.585-0.109,7.156-0.384,10.734-0.578c0.416-0.022,0.839,0.021,1.259,0.015c0.752-0.011,1.046,0.321,1.006,0.971
	c-0.164,2.688-0.33,5.376-0.469,8.067c-0.029,0.604-0.453,0.901-0.906,1.245c-2.947,2.239-6.047,4.277-9.278,6.198
	c-2.669,1.588-5.335,3.21-7.91,4.951c-4.359,2.947-8.712,5.918-13.123,8.811c-5.089,3.337-10.323,6.5-15.33,9.942
	c-5.335,3.66-10.501,7.497-15.812,11.184c-2.936,2.043-5.591,4.398-8.704,6.264c-4.934,2.955-9.605,6.223-14.242,9.531
	c-3.037,2.167-6.28,4.072-9.652,5.79c-2.963,1.511-5.813,3.098-7.429,5.919C491.452,296.587,490.559,296.29,490.422,297.051z
	 M586.534,221.827c-0.604-0.466-1.214-1.336-1.812-1.333c-6.02,0.037-12.027,0.42-17.979,1.138
	c-6.894,0.831-13.829,1.303-20.755,1.556c-6.457,0.236-12.88,0.623-19.312,1.045c-9.098,0.596-18.147,1.409-27.17,2.566
	c-4.544,0.584-9.122,0.966-13.633,1.757c-1.902,0.333-3.004-0.897-2.062-2.377c0.866-1.358,1.076-2.812,1.404-4.253
	c0.58-2.549,1.058-5.121,1.509-7.693c0.691-3.906,2.141-7.644,2.993-11.51c0.711-3.219,1.766-6.347,2.864-9.458
	c1.353-3.837,2.473-7.729,3.257-11.684c0.857-4.329,1.906-8.617,3.008-12.893c0.839-3.248,2.01-6.425,2.831-9.675
	c0.631-2.467,1.215-4.942,1.913-7.396c1.133-3.966,2.245-7.938,3.202-11.941c0.523-2.192,1.151-4.345,1.96-6.457
	c2.576-6.752,4.998-13.552,8.234-20.094c2.218-4.482,3.524-9.296,5.738-13.792c0.14-0.277,0.164-0.574-0.26-0.898
	c-5.043,0.604-9.985,1.938-14.971,3.099c-5.817,1.354-11.286,3.667-17.157,4.897c-8.702,1.826-17.304,3.946-25.71,6.642
	c-10.281,3.298-20.302,7.18-30.426,10.822c-7.727,2.778-15.42,5.592-23.372,7.84c-1.188,0.335-2.42,0.445-3.604,0.874
	c-3.779,1.375-7.71,2.423-11.746,3.022c-2.22,0.331-4.421,0.708-6.602,1.168c-2.432,0.515-4.734,1.411-7.094,2.061
	c-2.289,0.63-4.636,1.141-6.895,1.896c-0.651,0.219-1.226,0.445-1.52,1.048c-0.864,1.778-2.677,2.154-4.551,2.208
	c-2.209,0.067-4.282,0.521-6.359,1.104c-2.836,0.793-5.544,0.302-7.385-1.79c-2.133-2.418-5-4.254-6.746-6.961
	c-0.667-1.035-1.422-2.052-2.301-2.95c-4.44-4.533-8.904-9.045-13.414-13.524c-5.688-5.647-10.979-11.587-16.264-17.532
	c-3.192-3.596-6.374-7.196-9.443-10.882c-3.017-3.624-5.875-7.344-8.806-11.015c-3.024-3.788-5.986-7.623-8.668-11.631
	c-2.367-3.538-5.025-6.922-7.277-10.533c-2.336-3.745-5.182-7.218-7.661-10.893c-1.182-1.749-2.28-3.619-3.939-5.139
	c-0.552,0.552-0.67,1.144-0.866,1.712c-0.958,2.778-1.933,5.561-3.387,8.157c-2.094,3.739-3.254,7.783-4.868,11.679
	c-0.978,2.363-1.623,4.859-2.813,7.126c-4.312,8.202-8.586,16.413-12.54,24.763c-1.94,4.097-3.31,8.389-5.519,12.4
	c-2.055,3.724-3.84,7.578-5.566,11.44c-1.361,3.04-3.198,5.878-4.503,8.929c-2.376,5.556-5.587,10.759-8.307,16.171
	c-2.379,4.732-5.325,9.232-8.005,13.842c-2.562,4.41-4.182,9.225-7.145,13.46c-0.572,0.819-0.567,1.421,0.464,2.057
	c0.91,0.562,1.258,1.505,0.362,2.303c-0.721,0.64-1.863,1.014-0.89,2.193c0.052,0.064-0.175,0.422-0.354,0.507
	c-1.902,0.893-3.978,1.375-6.036,1.892c-0.221,0.054-0.513,0.002-0.734-0.081c-2.249-0.846-4.616-1.512-6.703-2.609
	c-3.487-1.833-7.231-3.183-10.731-4.994c-7.991-4.137-16.338-7.691-24.312-11.866c-3.254-1.702-6.398-3.524-9.389-5.582
	c-1.932-1.329-3.917-2.653-6.06-3.671c-6.51-3.088-13.104-6.032-19.672-9.02c-5.545-2.524-11.063-5.097-16.742-7.372
	c-0.649-0.261-1.169-0.825-2.035-0.738c0.611,1.612,1.223,3.148,1.778,4.702c1.679,4.704,3.318,9.422,5.01,14.123
	c1.052,2.925,2.242,5.812,3.248,8.75c1.985,5.792,3.809,11.623,6.051,17.353c2.24,5.728,4.263,11.523,6.313,17.308
	c1.595,4.501,3.098,9.026,4.618,13.547c0.797,2.369,1.625,4.733,2.283,7.132c0.519,1.89-0.367,2.664-2.535,2.444
	c-0.244-0.025-0.516-0.075-0.713-0.196c-0.744-0.46-1.384-0.247-2.106,0.07c-3.201,1.408-6.632,2.312-9.987,3.364
	c-2.971,0.931-6.033,1.608-8.919,2.799c-3.978,1.64-8.042,3.129-12.11,4.595c-4.236,1.525-8.785,2.253-12.943,4.044
	c-5.086,2.19-10.47,3.793-15.66,5.802c-8.176,3.165-16.274,6.465-24.272,9.958c-4.406,1.923-8.722,4.01-13.158,5.878
	c-4.586,1.933-9.27,3.679-13.899,5.532c-1.174,0.47-2.299,1.033-3.69,1.666c1.852,1.415,3.443,2.624,5.025,3.84
	c3.955,3.047,7.847,6.162,11.879,9.124c2.929,2.15,5.972,4.167,8.844,6.393c6.811,5.274,13.37,10.791,20.602,15.654
	c5.632,3.789,10.982,7.96,16.225,12.211c8.099,6.569,17.383,11.65,26.759,16.558c7.769,4.069,15.766,7.771,23.957,11.124
	c1.556,0.636,1.93,1.279,1.385,2.641c-0.292,0.729-0.339,1.448-0.404,2.188c-0.238,2.753-0.403,5.514-0.741,8.256
	c-1.114,9.049-1.423,18.161-2.115,27.241c-0.317,4.167-0.168,8.365-0.507,12.528c-0.776,9.533-1.715,19.054-2.606,28.573
	c-0.16,1.713-0.335,3.424-0.64,5.117c-0.796,4.418-1.082,8.867-0.963,13.348c0.029,1.049,0.538,2.031,0.39,3.105
	c-0.543,3.93-0.709,7.902-0.883,11.85c-0.339,7.688-1.113,15.361-0.822,23.08c0.03,0.812-0.125,1.641-0.306,2.441
	c-0.312,1.363-0.452,2.727-0.336,4.174c0.743-0.457-0.067-1.439,1.074-1.777c0.629,1.461-0.202,3.021,0.305,4.67
	c2.902-2.773,5.441-5.457,7.114-8.717c0.263-0.514,0.465-1.225,1.22-1.314c1.204-0.143,1.555-1.062,2.122-1.74
	c0.597-0.709,1.19-1.42,1.841-2.1c6.59-6.885,13.535-13.486,20.42-20.137c8.016-7.742,15.264-16.084,23.455-23.688
	c3.458-3.209,6.632-6.66,10.091-9.859c4.735-4.379,9.324-8.883,14.122-13.207c1.053-0.949,2.073-1.928,3.134-2.873
	c0.997-0.887,2.247-1.62,2.982-2.65c0.961-1.35,2.698-0.733,3.856-1.568c1.282-0.922,1.941-0.629,2.064,0.843
	c0.113,1.385,0.672,2.604,1.224,3.858c0.438,1.002,0.81,2.08-0.135,2.953c-0.935,0.863-0.729,1.723-0.331,2.676
	c0.233,0.562,0.434,1.139,0.581,1.721c1.532,6.016,3.854,11.812,6.606,17.461c3.591,7.365,7.498,14.611,11.964,21.605
	c3.338,5.223,6.118,10.701,9.409,15.949c4.394,7.02,8.791,14.043,12.492,21.381c2.521,4.994,4.987,10.014,7.692,14.938
	c3.485,6.344,6.843,12.738,11.388,18.564c3.864,4.951,7.045,10.232,10.143,15.578c2.199,3.799,4.313,7.654,6.95,11.246
	c2.032,2.771,4.048,5.545,5.933,8.4c1.213,1.834,2.358,3.746,4.257,5.34c0.725-1.559,0.524-3.117,0.998-4.52
	c2.089-6.189,4.183-12.379,6.437-18.521c2.282-6.221,4.799-12.373,7.129-18.578c1.512-4.021,3.061-8.043,4.264-12.145
	c1.76-5.977,3.167-12.041,4.819-18.047c2.229-8.092,4.684-16.129,7.39-24.1c2.175-6.404,3.474-13.02,5.662-19.422
	c0.846-2.471,1.777-4.957,1.871-7.598c0.057-1.545,0.107-1.598,1.649-0.828c0.637,0.318,1.145,0.791,1.452-0.221
	c0.239-0.807,0.794-0.705,1.251-0.207c1.595,1.736,3.438,3.379,3.442,5.848c0,0.699,0.257,1.346,0.604,1.934
	c1.871,3.193,3.731,6.395,5.706,9.535c1.233,1.973,2.352,3.992,3.409,6.033c3.073,5.955,6.824,11.586,10.812,17.066
	c3.344,4.602,7.234,8.889,10.796,13.369c3.169,3.984,6.289,8.008,9.299,12.092c2.825,3.834,5.556,7.734,8.747,11.332
	c8.744,9.85,17.097,19.975,26.105,29.639c1.644,1.766,3.271,3.576,5.791,5.199c-0.194-2.588-0.253-4.807-0.548-6.996
	c-0.9-6.678-2.865-13.188-4.358-19.77c-2.498-10.957-3.763-22.018-4.76-33.113c-0.562-6.254-0.749-12.521-0.972-18.791
	c-0.256-7.168,0.163-14.307,0.329-21.451c0.075-3.145,0.104-6.236-0.504-9.355c-0.43-2.213-0.679-4.455-0.753-6.705
	c-0.048-1.49-0.147-2.998-0.433-4.467c-1.306-6.783-2.452-13.598-4.683-20.217c-0.274-0.832-0.27-1.627-0.182-2.439
	c0.151-1.463,0.687-1.795,2.349-1.381c0.878,0.219,1.688,0.664,2.556,0.939c3.032,0.965,5.406,2.994,8.362,4.117
	c1.833,0.697,3.576,1.639,4.818,3.168c0.426,0.523,1.119,0.906,1.764,1.256c2.445,1.324,4.927,2.602,7.386,3.906
	c11.222,5.947,23.076,10.846,34.258,16.869c6.704,3.613,13.566,6.988,20.348,10.488c8.314,4.293,16.918,8.123,25.151,12.549
	c0.521,0.281,1.088,0.795,2.045,0.273c-2.537-4.785-4.036-9.938-6.461-14.809c-3.867-7.758-6.916-15.777-9.499-23.934
	c-0.593-1.873-1.272-3.725-1.872-5.598c-1.833-5.746-3.489-11.541-5.511-17.235c-2.54-7.14-5.432-14.182-8.071-21.297
	c-2.742-7.393-5.585-14.763-7.469-22.377c-0.171-0.687-0.202-1.197,0.528-1.489c0.654-0.26,1.011-0.719,1.386-1.214
	c0.589-0.782,1.433-1.189,2.462-1.162c0.85,0.541,0.133,1.922,1.317,2.038c2.633,0.254,4.744,1.683,7.025,2.593
	c3.021,1.205,6.186,1.961,9.281,2.409c5.616,0.816,11.104,2.374,16.854,2.566c5.159,0.174,10.313,0.686,15.467,1.107
	c2.895,0.237,5.833,0.359,8.654,0.937c8.769,1.796,17.497,3.775,26.231,5.71c3.996,0.883,7.984,1.832,11.976,2.747
	c1.494,0.342,2.075,0.142,2.415-0.821c0.381-1.075,0.086-1.584-1.468-2.093c-1.063-0.35-2.122-0.833-2.661-1.626
	c-0.915-1.35-2.296-2.174-3.588-3.108c-1.635-1.184-3.497-2.085-5.214-3.153c-5.121-3.183-10.169-6.489-14.666-10.361
	c-9.869-8.497-20.955-15.633-31.756-23.091c-4.538-3.135-9.202-6.124-13.715-9.284c-7.175-5.023-14.567-9.768-22.305-14.062
	c-1.92-1.068-3.802-2.566-6.399-2.196c-0.205,0.03-0.558-0.091-0.669-0.243c-1.331-1.792-3.962-2.842-3.771-5.524
	c0.058-0.798,0.041-1.371,0.813-1.892c8.438-5.68,16.798-11.451,25.286-17.07c9.616-6.369,19.64-12.243,29.287-18.581
	c5.559-3.648,11.419-6.929,17.128-10.395c4.047-2.457,8.12-4.884,12.084-7.443c2.287-1.476,4.362-3.206,6.57-4.784
	c5.419-3.888,11.014-7.566,16.75-11.074c0.19-0.225,0.405-0.438,0.569-0.68c0.13-0.189,0.577-0.437-0.02-0.606
	c-0.265-0.076-0.478,0.069-0.567,0.3C586.316,221.135,586.236,221.492,586.534,221.827z"/>
<path fill="#FDF8BF" d="M586.473,221.776c-5.744,3.501-11.34,7.18-16.759,11.068c-2.208,1.578-4.283,3.308-6.569,4.784
	c-3.965,2.559-8.037,4.986-12.084,7.443c-5.709,3.466-11.57,6.747-17.129,10.395c-9.647,6.338-19.671,12.212-29.286,18.581
	c-8.489,5.62-16.851,11.391-25.286,17.07c-0.773,0.521-0.757,1.093-0.814,1.892c-0.189,2.682,2.44,3.732,3.771,5.524
	c0.11,0.152,0.464,0.273,0.669,0.243c2.598-0.37,4.479,1.128,6.398,2.196c7.736,4.294,15.13,9.039,22.306,14.062
	c4.512,3.16,9.176,6.148,13.715,9.284c10.8,7.458,21.886,14.594,31.755,23.091c4.497,3.873,9.545,7.179,14.666,10.361
	c1.717,1.068,3.58,1.97,5.214,3.153c1.292,0.935,2.673,1.759,3.588,3.108c0.539,0.793,1.598,1.276,2.661,1.626
	c1.554,0.509,1.849,1.019,1.468,2.093c-0.34,0.962-0.921,1.163-2.415,0.821c-3.989-0.915-7.979-1.863-11.976-2.747
	c-8.734-1.935-17.463-3.914-26.231-5.71c-2.82-0.578-5.761-0.699-8.653-0.937c-5.153-0.421-10.309-0.933-15.468-1.107
	c-5.747-0.192-11.235-1.75-16.854-2.566c-3.096-0.448-6.259-1.204-9.281-2.409c-2.281-0.911-4.393-2.339-7.024-2.593
	c-1.187-0.116-0.47-1.497-1.318-2.038c-1.029-0.028-1.873,0.38-2.462,1.162c-0.375,0.495-0.73,0.954-1.385,1.214
	c-0.731,0.292-0.7,0.802-0.529,1.489c1.884,7.614,4.727,14.984,7.469,22.377c2.642,7.115,5.531,14.157,8.071,21.297
	c2.021,5.694,3.678,11.489,5.511,17.235c0.601,1.873,1.279,3.725,1.872,5.598c2.583,8.156,5.632,16.176,9.499,23.936
	c2.425,4.869,3.924,10.021,6.461,14.807c-0.957,0.521-1.521,0.008-2.045-0.273c-8.233-4.426-16.837-8.256-25.151-12.549
	c-6.779-3.5-13.644-6.875-20.348-10.486c-11.181-6.025-23.036-10.924-34.258-16.871c-2.459-1.305-4.939-2.582-7.385-3.906
	c-0.646-0.348-1.338-0.732-1.765-1.256c-1.241-1.529-2.984-2.471-4.817-3.168c-2.956-1.121-5.33-3.152-8.363-4.117
	c-0.866-0.277-1.677-0.721-2.555-0.939c-1.662-0.414-2.197-0.082-2.35,1.381c-0.088,0.811-0.094,1.607,0.183,2.439
	c2.229,6.621,3.377,13.434,4.682,20.217c0.284,1.469,0.385,2.977,0.433,4.467c0.074,2.25,0.323,4.492,0.754,6.705
	c0.606,3.119,0.578,6.211,0.504,9.355c-0.166,7.145-0.585,14.283-0.329,21.451c0.222,6.27,0.409,12.537,0.971,18.791
	c0.997,11.098,2.262,22.156,4.76,33.113c1.493,6.582,3.458,13.092,4.358,19.77c0.295,2.189,0.354,4.408,0.548,6.996
	c-2.52-1.623-4.147-3.436-5.791-5.199c-9.009-9.664-17.361-19.789-26.104-29.639c-3.192-3.598-5.923-7.498-8.747-11.332
	c-3.011-4.084-6.131-8.105-9.3-12.092c-3.562-4.48-7.451-8.768-10.796-13.369c-3.985-5.48-7.736-11.111-10.811-17.066
	c-1.06-2.041-2.176-4.062-3.41-6.033c-1.974-3.141-3.835-6.342-5.706-9.535c-0.346-0.588-0.603-1.232-0.603-1.934
	c-0.007-2.469-1.85-4.109-3.443-5.848c-0.457-0.498-1.011-0.6-1.251,0.207c-0.309,1.012-0.815,0.539-1.452,0.221
	c-1.542-0.77-1.594-0.717-1.649,0.828c-0.094,2.641-1.025,5.127-1.87,7.598c-2.189,6.402-3.488,13.018-5.662,19.422
	c-2.706,7.973-5.161,16.008-7.391,24.1c-1.651,6.006-3.061,12.07-4.818,18.047c-1.203,4.102-2.752,8.123-4.265,12.145
	c-2.33,6.205-4.847,12.357-7.129,18.578c-2.254,6.145-4.348,12.332-6.437,18.521c-0.473,1.402-0.272,2.961-0.998,4.52
	c-1.898-1.594-3.044-3.506-4.257-5.34c-1.885-2.855-3.901-5.629-5.933-8.4c-2.637-3.592-4.751-7.447-6.95-11.246
	c-3.098-5.346-6.278-10.627-10.143-15.578c-4.545-5.826-7.903-12.223-11.388-18.564c-2.705-4.924-5.171-9.941-7.692-14.938
	c-3.702-7.338-8.099-14.361-12.492-21.381c-3.291-5.248-6.071-10.727-9.409-15.949c-4.466-6.994-8.373-14.24-11.964-21.605
	c-2.752-5.646-5.074-11.445-6.606-17.461c-0.147-0.582-0.348-1.158-0.581-1.721c-0.398-0.953-0.604-1.812,0.331-2.676
	c0.945-0.873,0.572-1.951,0.135-2.953c-0.551-1.252-1.111-2.474-1.224-3.858c-0.123-1.472-0.783-1.765-2.064-0.843
	c-1.158,0.834-2.896,0.219-3.856,1.568c-0.735,1.03-1.986,1.765-2.982,2.65c-1.061,0.945-2.081,1.924-3.134,2.873
	c-4.798,4.324-9.387,8.828-14.122,13.207c-3.459,3.199-6.633,6.65-10.091,9.859c-8.19,7.604-15.438,15.945-23.455,23.688
	c-6.885,6.648-13.83,13.252-20.42,20.137c-0.65,0.68-1.244,1.391-1.841,2.1c-0.566,0.678-0.918,1.598-2.122,1.74
	c-0.754,0.092-0.957,0.801-1.22,1.314c-1.672,3.26-4.211,5.941-7.114,8.717c-0.506-1.648,0.325-3.209-0.305-4.67
	c-1.141,0.34-0.331,1.32-1.074,1.777c-0.116-1.447,0.023-2.811,0.336-4.174c0.181-0.803,0.336-1.629,0.306-2.441
	c-0.292-7.719,0.483-15.393,0.822-23.08c0.173-3.947,0.339-7.92,0.883-11.85c0.148-1.074-0.361-2.057-0.39-3.105
	c-0.118-4.48,0.167-8.93,0.963-13.348c0.305-1.693,0.48-3.404,0.64-5.117c0.891-9.52,1.83-19.04,2.606-28.573
	c0.339-4.163,0.19-8.361,0.507-12.528c0.692-9.08,1.001-18.192,2.115-27.241c0.338-2.743,0.503-5.503,0.741-8.256
	c0.064-0.741,0.112-1.46,0.404-2.188c0.545-1.361,0.17-2.004-1.385-2.641c-8.19-3.353-16.188-7.055-23.957-11.124
	c-9.376-4.908-18.66-9.989-26.759-16.558c-5.243-4.251-10.592-8.423-16.225-12.211c-7.232-4.863-13.791-10.38-20.602-15.654
	c-2.872-2.225-5.915-4.243-8.844-6.393c-4.032-2.962-7.925-6.077-11.879-9.124c-1.582-1.217-3.173-2.426-5.025-3.84
	c1.392-0.633,2.517-1.196,3.69-1.666c4.629-1.853,9.313-3.599,13.899-5.532c4.436-1.868,8.752-3.955,13.158-5.878
	c7.998-3.493,16.096-6.793,24.272-9.958c5.189-2.008,10.573-3.612,15.66-5.802c4.159-1.791,8.708-2.519,12.943-4.044
	c4.068-1.465,8.132-2.955,12.11-4.595c2.886-1.19,5.948-1.868,8.919-2.799c3.354-1.05,6.786-1.956,9.987-3.364
	c0.722-0.317,1.362-0.531,2.106-0.07c0.197,0.121,0.469,0.171,0.713,0.196c2.167,0.22,3.053-0.554,2.535-2.444
	c-0.658-2.399-1.485-4.763-2.283-7.132c-1.52-4.521-3.022-9.046-4.618-13.547c-2.051-5.785-4.073-11.58-6.313-17.308
	c-2.242-5.729-4.066-11.56-6.051-17.353c-1.005-2.938-2.195-5.825-3.248-8.75c-1.692-4.701-3.331-9.419-5.01-14.123
	c-0.555-1.554-1.167-3.09-1.778-4.702c0.865-0.087,1.385,0.477,2.035,0.738c5.678,2.275,11.197,4.848,16.742,7.372
	c6.567,2.988,13.162,5.932,19.672,9.02c2.143,1.018,4.128,2.342,6.06,3.671c2.991,2.058,6.135,3.88,9.389,5.582
	c7.974,4.174,16.322,7.729,24.312,11.866c3.5,1.812,7.244,3.162,10.731,4.994c2.087,1.097,4.455,1.763,6.703,2.609
	c0.221,0.083,0.513,0.135,0.734,0.081c2.058-0.517,4.133-0.999,6.036-1.892c0.179-0.085,0.406-0.443,0.354-0.507
	c-0.973-1.179,0.169-1.553,0.89-2.193c0.896-0.798,0.547-1.741-0.362-2.303c-1.031-0.636-1.037-1.238-0.464-2.057
	c2.963-4.236,4.583-9.051,7.145-13.46c2.681-4.609,5.626-9.109,8.005-13.842c2.72-5.412,5.931-10.615,8.307-16.171
	c1.305-3.051,3.143-5.889,4.503-8.929c1.726-3.862,3.511-7.716,5.566-11.44c2.209-4.011,3.578-8.304,5.519-12.4
	c3.954-8.35,8.228-16.561,12.54-24.763c1.19-2.267,1.835-4.763,2.813-7.126c1.614-3.896,2.774-7.939,4.868-11.679
	c1.454-2.596,2.428-5.379,3.387-8.157c0.195-0.568,0.314-1.161,0.866-1.712c1.659,1.52,2.757,3.39,3.939,5.139
	c2.479,3.675,5.325,7.148,7.661,10.893c2.251,3.611,4.91,6.996,7.277,10.533c2.682,4.008,5.644,7.843,8.668,11.631
	c2.931,3.67,5.789,7.391,8.806,11.015c3.07,3.687,6.25,7.287,9.444,10.882c5.282,5.945,10.576,11.885,16.263,17.532
	c4.51,4.479,8.974,8.992,13.414,13.524c0.879,0.898,1.634,1.915,2.301,2.95c1.746,2.708,4.613,4.543,6.746,6.961
	c1.841,2.091,4.549,2.583,7.385,1.79c2.077-0.583,4.15-1.037,6.359-1.104c1.874-0.054,3.687-0.43,4.551-2.208
	c0.294-0.604,0.867-0.829,1.521-1.048c2.258-0.755,4.604-1.266,6.894-1.896c2.359-0.65,4.662-1.546,7.094-2.061
	c2.182-0.461,4.383-0.838,6.603-1.168c4.036-0.599,7.966-1.647,11.746-3.022c1.183-0.429,2.414-0.539,3.603-0.874
	c7.952-2.249,15.646-5.062,23.372-7.84c10.124-3.642,20.146-7.523,30.426-10.822c8.406-2.696,17.009-4.816,25.71-6.642
	c5.871-1.23,11.341-3.543,17.157-4.897c4.985-1.16,9.928-2.494,14.971-3.099c0.425,0.324,0.398,0.621,0.261,0.898
	c-2.214,4.497-3.521,9.311-5.739,13.792c-3.236,6.542-5.658,13.341-8.234,20.094c-0.809,2.111-1.437,4.264-1.96,6.457
	c-0.957,4.003-2.068,7.976-3.202,11.941c-0.697,2.453-1.281,4.929-1.912,7.396c-0.822,3.25-1.992,6.427-2.831,9.675
	c-1.103,4.276-2.15,8.564-3.009,12.893c-0.783,3.955-1.903,7.847-3.257,11.684c-1.1,3.112-2.152,6.24-2.863,9.458
	c-0.854,3.866-2.303,7.604-2.993,11.51c-0.452,2.572-0.93,5.144-1.51,7.693c-0.327,1.442-0.537,2.896-1.403,4.253
	c-0.942,1.479,0.159,2.71,2.062,2.377c4.511-0.792,9.089-1.173,13.633-1.757c9.021-1.157,18.072-1.97,27.171-2.566
	c6.433-0.422,12.854-0.81,19.312-1.045c6.926-0.253,13.862-0.725,20.755-1.556c5.95-0.718,11.959-1.102,17.979-1.138
	c0.597-0.003,1.207,0.867,1.811,1.333L586.473,221.776z"/>
<path fill="none" d="M500.01,282.565c-0.234-0.263-0.19-0.563-0.108-0.862c0.056-0.196,0.207-0.327,0.405-0.277
	c0.449,0.112,0.128,0.339,0.04,0.502c-0.109,0.208-0.259,0.396-0.389,0.596C499.962,282.526,500.01,282.565,500.01,282.565z"/>
</svg>
