<?xml version="1.0" encoding="utf-8"?>
<!-- Generator: Adobe Illustrator 16.0.4, SVG Export Plug-In . SVG Version: 6.00 Build 0)  -->
<!DOCTYPE svg PUBLIC "-//W3C//DTD SVG 1.1//EN" "http://www.w3.org/Graphics/SVG/1.1/DTD/svg11.dtd">
<svg version="1.1" id="Layer_1" xmlns="http://www.w3.org/2000/svg" xmlns:xlink="http://www.w3.org/1999/xlink" x="0px" y="0px"
	 width="601.075px" height="556.472px" viewBox="0 10.11 601.075 556.472" enable-background="new 0 10.11 601.075 556.472">
<path d="M490.422,283.552c1.94,1.351,3.88,2.74,6.037,3.898c4.787,2.566,8.886,5.973,13.356,8.933
	c8.79,5.823,17.453,11.802,26.144,17.75c6.358,4.351,12.535,8.924,19.033,13.094c8.504,5.456,15.807,12.209,24.354,17.595
	c0.618,0.39,1.276,0.744,1.837,1.191c1.94,1.541,4.211,2.625,5.437,5.005c1.239,2.407,3.179,4.612,5.443,6.471
	c1.465,1.199,2.416,2.551,1.562,4.375c-0.76,1.618-2.632,2.345-4.882,2.546c-3.729,0.332-7.002-1.279-10.529-1.753
	c-3.223-0.433-6.406-1.143-9.612-1.705c-3.671-0.643-7.337-1.311-11.024-1.878c-8.521-1.31-17.077-2.446-25.573-3.888
	c-5.688-0.964-11.294-2.339-16.94-3.516c-0.816-0.168-1.652-0.308-2.486-0.345c-6.049-0.274-12.016-1.028-17.88-2.443
	c-0.476-0.113-0.966-0.178-1.678-0.307c0.299,1.984,1.196,3.684,1.99,5.347c4.944,10.394,8.532,21.172,12.134,31.954
	c2.354,7.042,4.729,14.088,7.379,21.049c3.161,8.304,6.791,16.461,10.57,24.569c2.065,4.43,4.586,8.689,6.245,13.28
	c0.768,2.129,0.845,4.216,0.871,6.352c0.012,0.921-1.072,1.704-2.291,1.585c-1.494-0.149-3.122-0.413-4.221-1.277
	c-1.765-1.386-3.819-2.191-5.87-3.042c-6.346-2.634-12.371-5.796-18.469-8.85c-7.631-3.827-15.434-7.404-22.925-11.446
	c-4.9-2.646-10.062-4.857-14.896-7.588c-6.616-3.735-13.824-6.49-20.528-10.058c-3.682-1.958-7.547-3.621-11.104-5.763
	c-0.897-0.541-1.826-1.027-3.16-1.418c-0.172,1.158-0.409,2.232-0.484,3.315c-0.425,6.043-0.748,12.097-1.654,18.091
	c-0.53,3.51,0.61,6.834,1.232,10.211c1.698,9.246,3.176,18.517,3.965,27.846c0.542,6.415,0.709,12.854,1.103,19.275
	c0.262,4.256,0.645,8.503,0.938,12.757c0.509,7.392,1.132,14.779,1.441,22.173c0.286,6.826,1.35,13.548,2.948,20.228
	c0.174,0.722,0.479,1.456,0.889,2.1c1.148,1.8,0.883,3.574,0.188,5.392c-0.181,0.47-0.443,0.918-0.968,0.874
	c-2.433-0.195-4.818,0.286-6.9-1.98c-2.961-3.23-6.678-5.913-10.034-8.864c-4.946-4.351-8.918-9.423-13.191-14.268
	c-2.916-3.308-5.919-6.559-8.843-9.862c-2.127-2.401-4.207-4.838-6.271-7.285c-1.748-2.071-3.652-4.07-5.104-6.297
	c-1.991-3.049-4.229-5.942-6.46-8.838c-3.535-4.585-6.978-9.226-10.776-13.649c-3.945-4.597-7.486-9.427-10.864-14.383
	c-4.297-6.312-7.305-13.188-11.54-19.507c-0.038-0.054-0.141-0.077-0.404-0.21c-0.476,1.265-0.908,2.512-1.41,3.733
	c-3.446,8.381-6.551,16.854-9.019,25.522c-0.97,3.4-2.799,6.523-4.188,9.789c-0.942,2.217-1.945,4.41-2.733,6.687
	c-0.538,1.543-1.608,2.932-2.264,4.452c-1.73,4.027-2.915,8.219-4.136,12.392c-1.009,3.454-2.115,6.879-3.325,10.282
	c-1.812,5.101-4.189,10.017-6.022,15.095c-2.323,6.439-4.957,12.782-7.13,19.267c-0.521,1.552-1.934,2.705-2.535,4.257
	c-0.148,0.382-0.469,0.729-0.641,1.155c-0.663,1.646-2.145,2.026-3.681,0.868c-1.02-0.768-1.896-1.718-2.707-2.675
	c-2.647-3.123-5.083-6.373-7.392-9.705c-2.346-3.383-5.06-6.583-7.157-10.078c-3.419-5.702-7.101-11.274-10.366-17.051
	c-1.392-2.465-3.297-4.711-5.07-6.998c-3.417-4.406-6.411-9.005-8.758-13.945c-1.183-2.481-2.659-4.856-3.979-7.292
	c-4.212-7.766-7.638-15.856-12.411-23.399c-3.271-5.168-6.473-10.371-9.544-15.633c-5.406-9.263-11.316-18.308-16.04-27.865
	c-3.123-6.319-5.99-12.739-7.894-19.455c-0.209-0.738-0.021-1.872-1.103-2.055c-0.854-0.146-1.313,0.791-1.854,1.339
	c-1.969,1.999-4.382,3.667-5.62,6.196c-0.152,0.313-0.552,0.561-0.891,0.763c-5.148,3.089-9.277,7.199-13.493,11.148
	c-3.838,3.596-7.542,7.338-10.931,11.326c-2.955,3.476-6.264,6.72-9.562,9.948c-3.148,3.077-6.608,5.896-9.352,9.306
	c-1.263,1.565-2.998,2.763-4.341,4.291c-2.096,2.382-4.42,4.601-6.573,6.945c-0.978,1.065-2.349,1.777-3.076,3.089
	c-0.74,1.331-1.979,2.373-3.162,3.422c-1.168,1.034-2.465,1.984-3.446,3.149c-1.666,1.974-3.756,3.426-5.946,4.905
	c-1.552,1.052-2.393,2.94-3.511,4.479c-0.216,0.297-0.205,0.914-0.573,0.93c-2.053,0.077-2.792,1.706-4.092,2.649
	c-0.738,0.538-1.31,0.894-2.109,0.12c-0.612-0.595-1.34-0.38-2.106-0.264c-1.432,0.217-2.199-0.357-1.891-1.53
	c0.449-1.717,0.285-3.425,0.125-5.128c-0.468-5.005-0.332-10.012-0.513-15.017c-0.119-3.282-0.213-6.561-0.173-9.848
	c0.044-3.748,0.27-7.476,0.594-11.194c0.483-5.538-0.234-11.062-0.22-16.591c0.013-5.17,0.377-10.296,1.234-15.396
	c1.066-6.347,1.958-12.714,2.443-19.125c0.554-7.299,1.416-14.577,1.544-21.902c0.088-5.005,0.344-9.997,1.02-14.962
	c0.3-2.217-0.078-4.486,0.397-6.697c0.186-0.858-0.225-1.405-1.055-1.835c-7.499-3.873-13.503-9.466-20.328-14.116
	c-3.797-2.587-6.891-5.846-10.686-8.43c-3.752-2.555-7.292-5.356-10.996-7.974c-6.868-4.849-13.836-9.589-20.072-15.111
	c-0.461-0.408-1.12-0.636-1.667-0.972c-4.766-2.914-9.425-5.963-14.128-8.951c-4.334-2.755-8.448-5.719-12.355-8.881
	c-8.375-6.776-17.222-13.067-25.488-19.949c-0.925-0.771-1.855-1.541-2.729-2.357c-1.348-1.258-1.203-2.594,0.51-3.499
	c4.705-2.491,9.426-4.955,14.458-6.921c6.938-2.71,13.796-5.571,20.371-8.919c1.674-0.852,3.482-1.412,5.202-2.159
	c5.757-2.501,11.508-5.025,17.376-7.312c3.658-1.426,7.405-2.7,10.996-4.25c4.287-1.851,8.902-2.863,13.306-4.386
	c2.07-0.718,3.984-1.753,6.106-2.436c4.365-1.406,8.676-2.958,12.934-4.6c6.963-2.682,14.114-4.938,21.146-7.461
	c0.154-0.055,0.305-0.122,0.455-0.188c2.574-1.103,2.562-1.101,1.771-3.479c-2.121-6.379-3.971-12.829-6.435-19.117
	c-1.745-4.453-3.031-9.027-4.762-13.478c-4.605-11.833-8.315-23.908-12.686-35.804c-0.784-2.133-1.627-4.266-2.245-6.43
	c-0.788-2.758-2.612-4.972-4.203-7.323c-0.253-0.373-0.621-0.735-1.032-0.96c-0.958-0.527-1.45-1.102-1.202-2.203
	c0.166-0.732-0.534-1.389-1.014-2.003c-0.581-0.746-1.12-1.509-1.395-2.387c-0.46-1.467-0.03-2.162,1.621-2.679
	c0.631-0.197,1.261-0.399,1.893-0.59c1.427-0.43,2.733-0.383,4.029,0.505c1.479,1.014,3.299,1.482,4.948,2.222
	c3.904,1.75,7.791,3.561,11.523,5.587c7.118,3.863,14.137,7.87,21.477,11.399c1.848,0.889,3.558,2.008,5.336,3.017
	c4.931,2.8,10.401,4.616,15.615,6.9c6.951,3.045,14.002,5.906,20.921,9.009c5.774,2.589,11.651,4.993,17.378,7.654
	c1.699,0.789,3.477,1.555,5.084,2.545c1.499,0.924,1.707,0.857,2.634-0.632c1.743-2.802,2.854-5.869,4.468-8.721
	c2.771-4.906,5.693-9.744,8.353-14.697c3.02-5.623,6.097-11.222,8.7-17.022c1.3-2.898,3.085-5.595,4.396-8.502
	c3.447-7.645,7.359-15.108,10.565-22.854c2.768-6.686,6.287-13.1,9.696-19.546c2.055-3.884,3.957-7.824,5.485-11.938
	c2.435-6.552,5.428-12.933,8.109-19.411c1.007-2.435,1.789-4.944,2.699-7.411c0.25-0.675,0.285-1.272-0.186-1.916
	c-0.502-0.689-0.798-1.501-1.335-2.164c-0.804-0.991-0.9-1.842,0.07-2.771c1.187-1.134,2.958-1.622,4.215-1.135
	c2.258,0.873,3.515,2.688,4.943,4.278c2.472,2.749,4.572,5.749,7.632,8.08c0.995,0.758,1.655,1.893,2.379,2.904
	c3.13,4.364,7.017,8.26,10.094,12.636c3.136,4.458,7.21,8.318,10.064,12.955c0.992,1.611,2.708,2.863,4.02,4.332
	c6.547,7.354,13.284,14.567,20.241,21.621c4.059,4.114,7.689,8.559,11.616,12.763c7.287,7.799,14.303,15.843,22.959,22.546
	c0.127,0.099,0.303,0.172,0.383,0.295c1.646,2.56,3.974,2.213,6.503,1.371c3.514-1.173,7.077-2.234,10.591-3.406
	c1.729-0.576,3.532-0.883,5.311-1.269c11.283-2.45,22.399-5.409,33.253-9.037c8.192-2.739,16.164-5.995,24.288-8.905
	c5.875-2.104,11.755-4.208,17.764-6.034c6.865-2.089,13.656-4.376,20.645-6.14c2.696-0.679,5.474-1.11,8.16-1.807
	c5.429-1.41,10.784-3.042,16.239-4.364c6.83-1.656,13.753-3.012,20.722-4.176c1.533-0.256,3.015,0.112,4.476,0.454
	c1.104,0.258,1.688,0.861,1.361,2.011c-0.202,0.708-0.109,1.482-0.571,2.147c-0.206,0.299-0.582,0.702-0.167,0.996
	c1.426,1.014,0.247,2.038-0.12,2.801c-3.849,7.991-6.954,16.232-10.033,24.474c-2.234,5.983-4.128,12.076-5.984,18.169
	c-2.157,7.091-4.109,14.236-6.148,21.356c-2.147,7.484-4.521,14.919-6.223,22.502c-0.781,3.491-1.585,6.977-2.397,10.462
	c-1.44,6.186-3.072,12.346-4.133,18.589c-0.516,3.025-1.206,6.085-1.134,9.199c0.031,1.443,0.063,1.397,1.699,1.423
	c2.892,0.045,5.61-0.805,8.434-1.039c6.504-0.541,13.021-0.958,19.531-1.449c1.748-0.131,3.489-0.334,5.232-0.532
	c4.908-0.557,9.878-0.06,14.782-0.508c5.487-0.503,11.01-0.538,16.497-1.11c6.129-0.639,12.287-1.168,18.473-1.359
	c3.585-0.109,7.156-0.384,10.734-0.578c0.416-0.022,0.839,0.021,1.259,0.015c0.752-0.011,1.046,0.321,1.006,0.971
	c-0.164,2.688-0.33,5.376-0.469,8.067c-0.029,0.604-0.453,0.901-0.906,1.245c-2.947,2.239-6.047,4.277-9.278,6.198
	c-2.669,1.588-5.335,3.21-7.91,4.951c-4.359,2.947-8.712,5.918-13.123,8.811c-5.089,3.337-10.323,6.5-15.33,9.942
	c-5.335,3.66-10.501,7.497-15.812,11.184c-2.936,2.043-5.591,4.398-8.704,6.264c-4.934,2.955-9.605,6.223-14.242,9.531
	c-3.037,2.167-6.28,4.072-9.652,5.79c-2.963,1.511-5.813,3.098-7.429,5.919C491.452,283.088,490.559,282.791,490.422,283.552z
	 M586.534,208.328c-0.604-0.466-1.214-1.336-1.812-1.333c-6.02,0.037-12.027,0.42-17.979,1.138
	c-6.894,0.831-13.829,1.303-20.755,1.556c-6.457,0.236-12.88,0.623-19.312,1.045c-9.098,0.596-18.147,1.409-27.17,2.566
	c-4.544,0.584-9.122,0.966-13.633,1.757c-1.902,0.333-3.004-0.897-2.062-2.377c0.866-1.358,1.076-2.812,1.404-4.253
	c0.58-2.549,1.058-5.121,1.509-7.693c0.691-3.906,2.141-7.644,2.993-11.51c0.711-3.219,1.766-6.347,2.864-9.458
	c1.353-3.837,2.473-7.729,3.257-11.684c0.857-4.329,1.906-8.617,3.008-12.893c0.839-3.248,2.01-6.425,2.831-9.675
	c0.631-2.467,1.215-4.942,1.913-7.396c1.133-3.966,2.245-7.938,3.202-11.941c0.523-2.192,1.151-4.345,1.96-6.457
	c2.576-6.752,4.998-13.552,8.234-20.094c2.218-4.482,3.524-9.296,5.738-13.792c0.14-0.277,0.164-0.574-0.26-0.898
	c-5.043,0.604-9.985,1.938-14.971,3.099c-5.817,1.354-11.286,3.667-17.157,4.897c-8.702,1.826-17.304,3.946-25.71,6.642
	c-10.281,3.298-20.302,7.18-30.426,10.822c-7.727,2.778-15.42,5.592-23.372,7.84c-1.188,0.335-2.42,0.445-3.604,0.874
	c-3.779,1.375-7.71,2.423-11.746,3.022c-2.22,0.331-4.421,0.708-6.602,1.168c-2.432,0.515-4.734,1.411-7.094,2.061
	c-2.289,0.63-4.636,1.141-6.895,1.896c-0.651,0.219-1.226,0.445-1.52,1.048c-0.864,1.778-2.677,2.154-4.551,2.208
	c-2.209,0.067-4.282,0.521-6.359,1.104c-2.836,0.793-5.544,0.302-7.385-1.79c-2.133-2.418-5-4.254-6.746-6.961
	c-0.667-1.035-1.422-2.052-2.301-2.95c-4.44-4.533-8.904-9.045-13.414-13.524c-5.688-5.647-10.979-11.587-16.264-17.532
	c-3.192-3.596-6.374-7.196-9.443-10.882c-3.017-3.624-5.875-7.344-8.806-11.015c-3.024-3.788-5.986-7.623-8.668-11.631
	c-2.367-3.538-5.025-6.922-7.277-10.533c-2.336-3.745-5.182-7.218-7.661-10.893c-1.182-1.749-2.28-3.619-3.939-5.139
	c-0.552,0.552-0.67,1.144-0.866,1.712c-0.958,2.778-1.933,5.561-3.387,8.157c-2.094,3.739-3.254,7.783-4.868,11.679
	c-0.978,2.363-1.623,4.859-2.813,7.126c-4.312,8.202-8.586,16.413-12.54,24.763c-1.94,4.097-3.31,8.389-5.519,12.4
	c-2.055,3.724-3.84,7.578-5.566,11.44c-1.361,3.04-3.198,5.878-4.503,8.929c-2.376,5.556-5.587,10.759-8.307,16.171
	c-2.379,4.732-5.325,9.232-8.005,13.842c-2.562,4.41-4.182,9.225-7.145,13.46c-0.572,0.819-0.567,1.421,0.464,2.057
	c0.91,0.562,1.258,1.505,0.362,2.303c-0.721,0.64-1.863,1.014-0.89,2.193c0.052,0.064-0.175,0.422-0.354,0.507
	c-1.902,0.893-3.978,1.375-6.036,1.892c-0.221,0.054-0.513,0.002-0.734-0.081c-2.249-0.846-4.616-1.512-6.703-2.609
	c-3.487-1.833-7.231-3.183-10.731-4.994c-7.991-4.137-16.338-7.691-24.312-11.866c-3.254-1.702-6.398-3.524-9.389-5.582
	c-1.932-1.329-3.917-2.653-6.06-3.671c-6.51-3.088-13.104-6.032-19.672-9.02c-5.545-2.524-11.063-5.097-16.742-7.372
	c-0.649-0.261-1.169-0.825-2.035-0.738c0.611,1.612,1.223,3.148,1.778,4.702c1.679,4.704,3.318,9.422,5.01,14.123
	c1.052,2.925,2.242,5.812,3.248,8.75c1.985,5.792,3.809,11.623,6.051,17.353c2.24,5.728,4.263,11.523,6.313,17.308
	c1.595,4.501,3.098,9.026,4.618,13.547c0.797,2.369,1.625,4.733,2.283,7.132c0.519,1.89-0.367,2.664-2.535,2.444
	c-0.244-0.025-0.516-0.075-0.713-0.196c-0.744-0.46-1.384-0.247-2.106,0.07c-3.201,1.408-6.632,2.312-9.987,3.364
	c-2.971,0.931-6.033,1.608-8.919,2.799c-3.978,1.64-8.042,3.129-12.11,4.595c-4.236,1.525-8.785,2.253-12.943,4.044
	c-5.086,2.19-10.47,3.793-15.66,5.802c-8.176,3.165-16.274,6.465-24.272,9.958c-4.406,1.923-8.722,4.01-13.158,5.878
	c-4.586,1.933-9.27,3.679-13.899,5.532c-1.174,0.47-2.299,1.033-3.69,1.666c1.852,1.415,3.443,2.624,5.025,3.84
	c3.955,3.047,7.847,6.162,11.879,9.124c2.929,2.15,5.972,4.167,8.844,6.393c6.811,5.274,13.37,10.791,20.602,15.654
	c5.632,3.789,10.982,7.96,16.225,12.211c8.099,6.569,17.383,11.65,26.759,16.558c7.769,4.069,15.766,7.771,23.957,11.124
	c1.556,0.636,1.93,1.279,1.385,2.641c-0.292,0.729-0.339,1.448-0.404,2.188c-0.238,2.753-0.403,5.514-0.741,8.256
	c-1.114,9.049-1.423,18.161-2.115,27.241c-0.317,4.167-0.168,8.365-0.507,12.528c-0.776,9.533-1.715,19.053-2.606,28.573
	c-0.16,1.712-0.335,3.424-0.64,5.116c-0.796,4.418-1.082,8.867-0.963,13.348c0.029,1.05,0.538,2.032,0.39,3.106
	c-0.543,3.93-0.709,7.901-0.883,11.849c-0.339,7.688-1.113,15.362-0.822,23.08c0.03,0.812-0.125,1.641-0.306,2.441
	c-0.312,1.363-0.452,2.727-0.336,4.174c0.743-0.456-0.067-1.438,1.074-1.777c0.629,1.462-0.202,3.021,0.305,4.67
	c2.902-2.773,5.441-5.456,7.114-8.717c0.263-0.514,0.465-1.224,1.22-1.314c1.204-0.143,1.555-1.062,2.122-1.739
	c0.597-0.71,1.19-1.42,1.841-2.101c6.59-6.884,13.535-13.486,20.42-20.137c8.016-7.741,15.264-16.084,23.455-23.688
	c3.458-3.209,6.632-6.66,10.091-9.859c4.735-4.378,9.324-8.882,14.122-13.206c1.053-0.949,2.073-1.928,3.134-2.874
	c0.997-0.886,2.247-1.619,2.982-2.65c0.961-1.349,2.698-0.733,3.856-1.568c1.282-0.921,1.941-0.629,2.064,0.843
	c0.113,1.385,0.672,2.605,1.224,3.859c0.438,1.002,0.81,2.079-0.135,2.952c-0.935,0.864-0.729,1.723-0.331,2.677
	c0.233,0.562,0.434,1.138,0.581,1.72c1.532,6.016,3.854,11.812,6.606,17.461c3.591,7.365,7.498,14.61,11.964,21.604
	c3.338,5.224,6.118,10.701,9.409,15.95c4.394,7.019,8.791,14.042,12.492,21.38c2.521,4.995,4.987,10.015,7.692,14.938
	c3.485,6.343,6.843,12.737,11.388,18.563c3.864,4.951,7.045,10.232,10.143,15.579c2.199,3.798,4.313,7.654,6.95,11.246
	c2.032,2.771,4.048,5.545,5.933,8.399c1.213,1.835,2.358,3.747,4.257,5.34c0.725-1.559,0.524-3.116,0.998-4.519
	c2.089-6.189,4.183-12.38,6.437-18.521c2.282-6.221,4.799-12.373,7.129-18.579c1.512-4.021,3.061-8.042,4.264-12.144
	c1.76-5.978,3.167-12.042,4.819-18.048c2.229-8.092,4.684-16.128,7.39-24.1c2.175-6.404,3.474-13.019,5.662-19.422
	c0.846-2.47,1.777-4.957,1.871-7.598c0.057-1.544,0.107-1.597,1.649-0.827c0.637,0.317,1.145,0.79,1.452-0.222
	c0.239-0.807,0.794-0.704,1.251-0.207c1.595,1.737,3.438,3.38,3.442,5.849c0,0.699,0.257,1.345,0.604,1.934
	c1.871,3.192,3.731,6.395,5.706,9.535c1.233,1.972,2.352,3.991,3.409,6.032c3.073,5.955,6.824,11.586,10.812,17.067
	c3.344,4.602,7.234,8.888,10.796,13.368c3.169,3.985,6.289,8.009,9.299,12.092c2.825,3.834,5.556,7.734,8.747,11.332
	c8.744,9.851,17.097,19.975,26.105,29.64c1.644,1.765,3.271,3.575,5.791,5.198c-0.194-2.587-0.253-4.806-0.548-6.996
	c-0.9-6.678-2.865-13.188-4.358-19.769c-2.498-10.958-3.763-22.018-4.76-33.113c-0.562-6.254-0.749-12.521-0.972-18.791
	c-0.256-7.168,0.163-14.307,0.329-21.452c0.075-3.145,0.104-6.236-0.504-9.355c-0.43-2.212-0.679-4.454-0.753-6.705
	c-0.048-1.489-0.147-2.998-0.433-4.467c-1.306-6.783-2.452-13.597-4.683-20.217c-0.274-0.831-0.27-1.627-0.182-2.438
	c0.151-1.463,0.687-1.796,2.349-1.382c0.878,0.22,1.688,0.664,2.556,0.94c3.032,0.965,5.406,2.995,8.362,4.117
	c1.833,0.698,3.576,1.639,4.818,3.167c0.426,0.523,1.119,0.907,1.764,1.257c2.445,1.323,4.927,2.602,7.386,3.906
	c11.222,5.946,23.076,10.846,34.258,16.869c6.704,3.613,13.566,6.987,20.348,10.488c8.314,4.292,16.918,8.122,25.151,12.548
	c0.521,0.282,1.088,0.795,2.045,0.274c-2.537-4.785-4.036-9.938-6.461-14.809c-3.867-7.758-6.916-15.777-9.499-23.935
	c-0.593-1.873-1.272-3.724-1.872-5.598c-1.833-5.745-3.489-11.541-5.511-17.234c-2.54-7.14-5.432-14.182-8.071-21.297
	c-2.742-7.393-5.585-14.763-7.469-22.377c-0.171-0.687-0.202-1.197,0.528-1.489c0.654-0.26,1.011-0.719,1.386-1.214
	c0.589-0.782,1.433-1.189,2.462-1.162c0.85,0.541,0.133,1.922,1.317,2.038c2.633,0.254,4.744,1.683,7.025,2.593
	c3.021,1.205,6.186,1.961,9.281,2.409c5.616,0.816,11.104,2.374,16.854,2.566c5.159,0.174,10.313,0.686,15.467,1.107
	c2.895,0.237,5.833,0.359,8.654,0.937c8.769,1.796,17.497,3.775,26.231,5.71c3.996,0.883,7.984,1.832,11.976,2.747
	c1.494,0.342,2.075,0.142,2.415-0.821c0.381-1.075,0.086-1.584-1.468-2.093c-1.063-0.35-2.122-0.833-2.661-1.626
	c-0.915-1.35-2.296-2.174-3.588-3.108c-1.635-1.184-3.497-2.085-5.214-3.153c-5.121-3.183-10.169-6.489-14.666-10.361
	c-9.869-8.497-20.955-15.633-31.756-23.091c-4.538-3.135-9.202-6.124-13.715-9.284c-7.175-5.023-14.567-9.768-22.305-14.062
	c-1.92-1.068-3.802-2.566-6.399-2.196c-0.205,0.03-0.558-0.091-0.669-0.243c-1.331-1.792-3.962-2.842-3.771-5.524
	c0.058-0.798,0.041-1.371,0.813-1.892c8.438-5.68,16.798-11.451,25.286-17.07c9.616-6.369,19.64-12.243,29.287-18.581
	c5.559-3.648,11.419-6.929,17.128-10.395c4.047-2.457,8.12-4.884,12.084-7.443c2.287-1.476,4.362-3.206,6.57-4.784
	c5.419-3.888,11.014-7.566,16.75-11.074c0.19-0.225,0.405-0.438,0.569-0.68c0.13-0.189,0.577-0.437-0.02-0.606
	c-0.265-0.076-0.478,0.069-0.567,0.3C586.316,207.636,586.236,207.993,586.534,208.328z"/>
<path fill="#FDF8BF" d="M586.473,208.277c-5.744,3.501-11.34,7.18-16.759,11.068c-2.208,1.578-4.283,3.308-6.569,4.784
	c-3.965,2.559-8.037,4.986-12.084,7.443c-5.709,3.466-11.57,6.747-17.129,10.395c-9.647,6.338-19.671,12.212-29.286,18.581
	c-8.489,5.62-16.851,11.391-25.286,17.07c-0.773,0.521-0.757,1.093-0.814,1.892c-0.189,2.682,2.44,3.732,3.771,5.524
	c0.11,0.152,0.464,0.273,0.669,0.243c2.598-0.37,4.479,1.128,6.398,2.196c7.736,4.294,15.13,9.039,22.306,14.062
	c4.512,3.16,9.176,6.148,13.715,9.284c10.8,7.458,21.886,14.594,31.755,23.091c4.497,3.873,9.545,7.179,14.666,10.361
	c1.717,1.068,3.58,1.97,5.214,3.153c1.292,0.935,2.673,1.759,3.588,3.108c0.539,0.793,1.598,1.276,2.661,1.626
	c1.554,0.509,1.849,1.019,1.468,2.093c-0.34,0.962-0.921,1.163-2.415,0.821c-3.989-0.915-7.979-1.863-11.976-2.747
	c-8.734-1.935-17.463-3.914-26.231-5.71c-2.82-0.578-5.761-0.699-8.653-0.937c-5.153-0.421-10.309-0.933-15.468-1.107
	c-5.747-0.192-11.235-1.75-16.854-2.566c-3.096-0.448-6.259-1.204-9.281-2.409c-2.281-0.911-4.393-2.339-7.024-2.593
	c-1.187-0.116-0.47-1.497-1.318-2.038c-1.029-0.028-1.873,0.38-2.462,1.162c-0.375,0.495-0.73,0.954-1.385,1.214
	c-0.731,0.292-0.7,0.802-0.529,1.489c1.884,7.614,4.727,14.984,7.469,22.377c2.642,7.115,5.531,14.157,8.071,21.297
	c2.021,5.694,3.678,11.489,5.511,17.234c0.601,1.874,1.279,3.725,1.872,5.598c2.583,8.156,5.632,16.177,9.499,23.936
	c2.425,4.869,3.924,10.021,6.461,14.808c-0.957,0.521-1.521,0.008-2.045-0.274c-8.233-4.426-16.837-8.256-25.151-12.548
	c-6.779-3.501-13.644-6.875-20.348-10.487c-11.181-6.024-23.036-10.924-34.258-16.87c-2.459-1.306-4.939-2.583-7.385-3.906
	c-0.646-0.349-1.338-0.732-1.765-1.257c-1.241-1.528-2.984-2.471-4.817-3.167c-2.956-1.122-5.33-3.152-8.363-4.117
	c-0.866-0.277-1.677-0.72-2.555-0.94c-1.662-0.414-2.197-0.081-2.35,1.382c-0.088,0.81-0.094,1.607,0.183,2.438
	c2.229,6.621,3.377,13.434,4.682,20.217c0.284,1.469,0.385,2.978,0.433,4.467c0.074,2.251,0.323,4.493,0.754,6.705
	c0.606,3.119,0.578,6.212,0.504,9.355c-0.166,7.146-0.585,14.284-0.329,21.452c0.222,6.27,0.409,12.537,0.971,18.791
	c0.997,11.097,2.262,22.155,4.76,33.113c1.493,6.581,3.458,13.091,4.358,19.769c0.295,2.19,0.354,4.409,0.548,6.996
	c-2.52-1.623-4.147-3.435-5.791-5.198c-9.009-9.665-17.361-19.789-26.104-29.64c-3.192-3.598-5.923-7.498-8.747-11.332
	c-3.011-4.083-6.131-8.105-9.3-12.092c-3.562-4.48-7.451-8.768-10.796-13.368c-3.985-5.481-7.736-11.112-10.811-17.067
	c-1.06-2.041-2.176-4.062-3.41-6.032c-1.974-3.142-3.835-6.343-5.706-9.535c-0.346-0.589-0.603-1.233-0.603-1.934
	c-0.007-2.469-1.85-4.11-3.443-5.849c-0.457-0.497-1.011-0.6-1.251,0.207c-0.309,1.012-0.815,0.54-1.452,0.222
	c-1.542-0.77-1.594-0.717-1.649,0.827c-0.094,2.641-1.025,5.128-1.87,7.598c-2.189,6.403-3.488,13.019-5.662,19.422
	c-2.706,7.973-5.161,16.008-7.391,24.1c-1.651,6.006-3.061,12.07-4.818,18.048c-1.203,4.102-2.752,8.123-4.265,12.144
	c-2.33,6.206-4.847,12.358-7.129,18.579c-2.254,6.144-4.348,12.332-6.437,18.521c-0.473,1.401-0.272,2.96-0.998,4.519
	c-1.898-1.593-3.044-3.505-4.257-5.34c-1.885-2.854-3.901-5.628-5.933-8.399c-2.637-3.592-4.751-7.448-6.95-11.246
	c-3.098-5.347-6.278-10.628-10.143-15.578c-4.545-5.827-7.903-12.223-11.388-18.564c-2.705-4.924-5.171-9.942-7.692-14.938
	c-3.702-7.338-8.099-14.361-12.492-21.38c-3.291-5.249-6.071-10.728-9.409-15.95c-4.466-6.994-8.373-14.239-11.964-21.604
	c-2.752-5.646-5.074-11.445-6.606-17.461c-0.147-0.582-0.348-1.159-0.581-1.72c-0.398-0.955-0.604-1.813,0.331-2.677
	c0.945-0.873,0.572-1.95,0.135-2.952c-0.551-1.253-1.111-2.474-1.224-3.859c-0.123-1.472-0.783-1.764-2.064-0.843
	c-1.158,0.834-2.896,0.219-3.856,1.568c-0.735,1.031-1.986,1.765-2.982,2.65c-1.061,0.946-2.081,1.925-3.134,2.874
	c-4.798,4.323-9.387,8.828-14.122,13.206c-3.459,3.199-6.633,6.651-10.091,9.86c-8.19,7.603-15.438,15.944-23.455,23.687
	c-6.885,6.649-13.83,13.253-20.42,20.137c-0.65,0.681-1.244,1.391-1.841,2.101c-0.566,0.677-0.918,1.598-2.122,1.739
	c-0.754,0.092-0.957,0.802-1.22,1.314c-1.672,3.261-4.211,5.942-7.114,8.717c-0.506-1.647,0.325-3.208-0.305-4.67
	c-1.141,0.34-0.331,1.321-1.074,1.777c-0.116-1.447,0.023-2.811,0.336-4.174c0.181-0.802,0.336-1.628,0.306-2.441
	c-0.292-7.718,0.483-15.393,0.822-23.08c0.173-3.946,0.339-7.919,0.883-11.849c0.148-1.074-0.361-2.058-0.39-3.106
	c-0.118-4.479,0.167-8.93,0.963-13.348c0.305-1.692,0.48-3.404,0.64-5.116c0.891-9.521,1.83-19.04,2.606-28.573
	c0.339-4.163,0.19-8.361,0.507-12.528c0.692-9.08,1.001-18.192,2.115-27.241c0.338-2.743,0.503-5.503,0.741-8.256
	c0.064-0.741,0.112-1.46,0.404-2.188c0.545-1.361,0.17-2.004-1.385-2.641c-8.19-3.353-16.188-7.055-23.957-11.124
	c-9.376-4.908-18.66-9.989-26.759-16.558c-5.243-4.251-10.592-8.423-16.225-12.211c-7.232-4.863-13.791-10.38-20.602-15.654
	c-2.872-2.225-5.915-4.243-8.844-6.393c-4.032-2.962-7.925-6.077-11.879-9.124c-1.582-1.217-3.173-2.426-5.025-3.84
	c1.392-0.633,2.517-1.196,3.69-1.666c4.629-1.853,9.313-3.599,13.899-5.532c4.436-1.868,8.752-3.955,13.158-5.878
	c7.998-3.493,16.096-6.793,24.272-9.958c5.189-2.008,10.573-3.612,15.66-5.802c4.159-1.791,8.708-2.519,12.943-4.044
	c4.068-1.465,8.132-2.955,12.11-4.595c2.886-1.19,5.948-1.868,8.919-2.799c3.354-1.05,6.786-1.956,9.987-3.364
	c0.722-0.317,1.362-0.531,2.106-0.07c0.197,0.121,0.469,0.171,0.713,0.196c2.167,0.22,3.053-0.554,2.535-2.444
	c-0.658-2.399-1.485-4.763-2.283-7.132c-1.52-4.521-3.022-9.046-4.618-13.547c-2.051-5.785-4.073-11.58-6.313-17.308
	c-2.242-5.729-4.066-11.56-6.051-17.353c-1.005-2.938-2.195-5.825-3.248-8.75c-1.692-4.701-3.331-9.419-5.01-14.123
	c-0.555-1.554-1.167-3.09-1.778-4.702c0.865-0.087,1.385,0.477,2.035,0.738c5.678,2.275,11.197,4.848,16.742,7.372
	c6.567,2.988,13.162,5.932,19.672,9.02c2.143,1.018,4.128,2.342,6.06,3.671c2.991,2.058,6.135,3.88,9.389,5.582
	c7.974,4.174,16.322,7.729,24.312,11.866c3.5,1.812,7.244,3.162,10.731,4.994c2.087,1.097,4.455,1.763,6.703,2.609
	c0.221,0.083,0.513,0.135,0.734,0.081c2.058-0.517,4.133-0.999,6.036-1.892c0.179-0.085,0.406-0.443,0.354-0.507
	c-0.973-1.179,0.169-1.553,0.89-2.193c0.896-0.798,0.547-1.741-0.362-2.303c-1.031-0.636-1.037-1.238-0.464-2.057
	c2.963-4.236,4.583-9.051,7.145-13.46c2.681-4.609,5.626-9.109,8.005-13.842c2.72-5.412,5.931-10.615,8.307-16.171
	c1.305-3.051,3.143-5.889,4.503-8.929c1.726-3.862,3.511-7.716,5.566-11.44c2.209-4.011,3.578-8.304,5.519-12.4
	c3.954-8.35,8.228-16.561,12.54-24.763c1.19-2.267,1.835-4.763,2.813-7.126c1.614-3.896,2.774-7.939,4.868-11.679
	c1.454-2.596,2.428-5.379,3.387-8.157c0.195-0.568,0.314-1.161,0.866-1.712c1.659,1.52,2.757,3.39,3.939,5.139
	c2.479,3.675,5.325,7.148,7.661,10.893c2.251,3.611,4.91,6.996,7.277,10.533c2.682,4.008,5.644,7.843,8.668,11.631
	c2.931,3.67,5.789,7.391,8.806,11.015c3.07,3.687,6.25,7.287,9.444,10.882c5.282,5.945,10.576,11.885,16.263,17.532
	c4.51,4.479,8.974,8.992,13.414,13.524c0.879,0.898,1.634,1.915,2.301,2.95c1.746,2.708,4.613,4.543,6.746,6.961
	c1.841,2.091,4.549,2.583,7.385,1.79c2.077-0.583,4.15-1.037,6.359-1.104c1.874-0.054,3.687-0.43,4.551-2.208
	c0.294-0.604,0.867-0.829,1.521-1.048c2.258-0.755,4.604-1.266,6.894-1.896c2.359-0.65,4.662-1.546,7.094-2.061
	c2.182-0.461,4.383-0.838,6.603-1.168c4.036-0.599,7.966-1.647,11.746-3.022c1.183-0.429,2.414-0.539,3.603-0.874
	c7.952-2.249,15.646-5.062,23.372-7.84c10.124-3.642,20.146-7.523,30.426-10.822c8.406-2.696,17.009-4.816,25.71-6.642
	c5.871-1.23,11.341-3.543,17.157-4.897c4.985-1.16,9.928-2.494,14.971-3.099c0.425,0.324,0.398,0.621,0.261,0.898
	c-2.214,4.497-3.521,9.311-5.739,13.792c-3.236,6.542-5.658,13.341-8.234,20.094c-0.809,2.111-1.437,4.264-1.96,6.457
	c-0.957,4.003-2.068,7.976-3.202,11.941c-0.697,2.453-1.281,4.929-1.912,7.396c-0.822,3.25-1.992,6.427-2.831,9.675
	c-1.103,4.276-2.15,8.564-3.009,12.893c-0.783,3.955-1.903,7.847-3.257,11.684c-1.1,3.112-2.152,6.24-2.863,9.458
	c-0.854,3.866-2.303,7.604-2.993,11.51c-0.452,2.572-0.93,5.144-1.51,7.693c-0.327,1.442-0.537,2.896-1.403,4.253
	c-0.942,1.479,0.159,2.71,2.062,2.377c4.511-0.792,9.089-1.173,13.633-1.757c9.021-1.157,18.072-1.97,27.171-2.566
	c6.433-0.422,12.854-0.81,19.312-1.045c6.926-0.253,13.862-0.725,20.755-1.556c5.95-0.718,11.959-1.102,17.979-1.138
	c0.597-0.003,1.207,0.867,1.811,1.333L586.473,208.277z"/>
<path fill="none" d="M500.01,269.066c-0.234-0.263-0.19-0.563-0.108-0.862c0.056-0.196,0.207-0.327,0.405-0.277
	c0.449,0.112,0.128,0.339,0.04,0.502c-0.109,0.208-0.259,0.396-0.389,0.596C499.962,269.027,500.01,269.066,500.01,269.066z"/>
<path d="M999.378,630.046c-0.455,0.15-0.909,0.302-1.364,0.452c-0.05-0.156-0.1-0.312-0.148-0.468
	c0.46-0.134,0.921-0.27,1.382-0.402C999.29,629.768,999.334,629.907,999.378,630.046z"/>
<path d="M379.203,280.459c-4.239,3.678-8.924,4.888-14.312,3.957c1.486,1.848,2.399,4.038,5.01,4.614
	c1.081,0.239,2.09,1.027,2.999,1.737c0.66,0.515,0.662,1.369,0.08,2.022c-0.728,0.817-1.513,1.591-2.326,2.323
	c-3.226,2.899-6.564,5.675-9.665,8.699c-1.712,1.669-3.017,3.751-4.531,5.623c-1.45,1.792-3.188,3.215-5.445,3.868
	c-1.716,0.497-2.415,0.039-3.46-1.551c-3.839-5.833-7.157-11.994-11.362-17.604c-2.472-3.297-4.585-6.872-6.753-10.388
	c-2.093-3.392-4.038-6.874-6.069-10.305c-0.309-0.52-0.728-0.974-1.131-1.507c-0.6,0.275-1.082,0.497-1.402,0.645
	c-0.732,5.842,1.757,10.946,2.958,16.273c1.056,4.686,2.56,9.279,4.009,13.867c1.057,3.338,2.3,6.622,3.562,9.889
	c0.36,0.93,1.02,1.775,1.667,2.557c0.611,0.743,0.675,1.524,0.361,2.311c-0.329,0.826-1.176,1.048-1.921,0.862
	c-1.796-0.451-3.405,0.254-5.038,0.693c-1.451,0.391-2.83,1.049-4.254,1.596c0.08,0.57,0.152,1.077,0.234,1.653
	c-1.969,0.649-3.843,1.313-5.747,1.885c-4.63,1.394-8.896,3.65-13.288,5.599c-5.087,2.257-10.143,4.584-15.189,6.932
	c-2.06,0.957-4.077,2.008-6.079,3.081c-2.301,1.232-4.618,2.449-6.822,3.841c-1.562,0.987-2.941,2.263-4.417,3.389
	c-0.534,0.408-1.113,0.757-1.694,1.147c-1.082-0.747-1.635-2.087-3.134-1.938c-0.213,0.022-0.596-0.68-0.744-1.101
	c-2.616-7.464-5.654-14.754-8.854-21.983c-0.973-2.197-1.606-4.541-2.466-6.791c-0.44-1.151-0.994-2.265-1.572-3.356
	c-2.942-5.563-4.828-11.552-7.023-17.414c-1.641-4.383-3.228-8.789-4.722-13.224c-1.429-4.241-2.702-8.534-4.052-12.801
	c-0.219-0.691-0.491-1.365-0.841-2.332c-0.983,3.544-1.334,6.709-0.839,10.047c0.231,1.554-0.617,3.268-0.885,4.494
	c-4.877,2.582-9.332,4.981-13.626,7.68c-4.306,2.706-8.629,5.386-13.196,8.234c0.359,1.539,0.756,3.234,1.167,4.999
	c4.926-2.519,9.625-4.921,14.322-7.323c1.918-0.981,2.893-0.872,4.183,0.606c0.324,0.372,0.566,0.948,0.58,1.438
	c0.069,2.626,0.367,5.208,1.199,7.713c0.021,0.064,0.078,0.12,0.089,0.185c0.428,2.699,0.852,5.396,1.306,8.281
	c-0.086,0.06-0.354,0.411-0.63,0.416c-1.881,0.037-3.17,1.195-4.513,2.27c-1.29,1.031-2.577,2.065-3.869,3.096
	c-0.591,0.471-1.189,0.931-1.906,1.493c1.326,3.183,2.531,6.086,3.747,8.986c0.159,0.377,0.405,0.719,0.554,1.1
	c2.389,6.135,5.985,11.594,9.525,17.088c1.489,2.311,2.957,4.639,4.296,7.036c0.283,0.506-0.038,1.347-0.084,2.083
	c1.728,1.13,1.728,1.13,2.029,2.588c-1.338,1.494-3.257,1.244-4.948,1.562c-3.099,0.584-6.242,0.923-9.349,1.468
	c-1,0.175-1.972,0.614-2.909,1.039c-2.57,1.164-5.127,2.359-7.662,3.598c-0.785,0.382-1.466,0.351-2.125-0.142
	c-1.059-0.793-1.986-1.664-2.208-3.098c-0.633-4.087-1.68-8.056-3.011-11.989c-1.096-3.24-1.51-6.704-2.419-10.016
	c-1.054-3.841-2.465-7.588-3.453-11.444c-0.992-3.872-2.82-7.432-3.886-11.263c-0.11-0.394-0.315-0.767-0.52-1.126
	c-3.001-5.272-5.399-10.811-7.63-16.449c-1.868-4.72-4.118-9.291-6.229-13.913c-0.589-1.292-0.247-2.113,1.072-2.474
	c0.695-0.19,1.35-0.527,2.027-0.79c0.25-0.097,0.583-0.313,0.754-0.228c1.441,0.723,2.518-0.27,3.609-0.815
	c6.724-3.352,13.183-7.15,19.482-11.258c4.897-3.194,10.04-6.014,15.086-8.979c2.246-1.32,4.528-2.581,6.782-3.889
	c0.285-0.166,0.49-0.468,0.742-0.694c1.214-1.083,1.987-1.118,3.352-0.194c0.337,0.228,0.722,0.384,1.248,0.657
	c0.826-0.685,1.774-1.283,2.479-2.094c1.534-1.766,2.882-3.694,4.42-5.455c1.807-2.068,3.719-4.048,5.618-6.033
	c0.993-1.038,2.086-1.981,3.076-3.022c0.298-0.314,0.457-0.799,0.581-1.233c0.11-0.39,0.032-0.833,0.132-1.228
	c0.193-0.758,0.458-1.419,1.498-1.348c0.955,0.065,1.172,0.686,1.172,1.392c0.002,5.811,2.375,11.151,3.291,16.777
	c0.934,5.727,2.825,11.198,4.354,16.767c0.891,3.244,1.463,6.575,2.309,9.832c0.794,3.054,1.772,6.06,2.646,9.093
	c0.971,3.368,1.892,6.752,2.884,10.115c0.719,2.433,1.513,4.845,2.286,7.263c0.355,1.11,0.729,2.217,1.117,3.317
	c0.438,1.241,1.06,1.443,2.166,0.702c0.458-0.306,0.92-0.623,1.316-1.003c3.931-3.789,8.515-6.686,13.043-9.67
	c2.681-1.769,5.255-3.699,7.788-5.493c-0.932-4.566-1.874-9.124-2.792-13.688c-0.625-3.103-1.337-6.195-1.799-9.322
	c-0.624-4.217-1.02-8.468-1.564-12.697c-0.58-4.504-1.236-8.999-1.83-13.501c-0.386-2.931-0.714-5.869-1.086-8.801
	c-0.111-0.871,0.049-1.424,0.845-2.077c3.288-2.697,6.552-5.444,9.608-8.398c3.258-3.151,6.599-6.261,9.085-10.123
	c0.699-1.086,1.828-1.055,2.636,0.099c1.418,2.032,2.741,4.132,4.177,6.15c3.229,4.533,6.47,9.058,9.77,13.537
	c1.466,1.989,3.322,3.722,4.586,5.819c1.683,2.789,3.553,5.418,5.659,7.869c2.6,3.025,5.347,5.925,8.057,8.854
	c0.412,0.445,0.967,0.759,1.63,1.268c2.855-2.144,5.1-4.696,6.214-8.143c1.752-0.408,1.922-0.285,2.315,1.211
	c0.595,2.254,1.441,4.309,4.113,4.854c0.41,0.083,0.742,0.553,1.192,0.911c0.932-1.094,0.665-2.377,0.34-3.485
	c-0.731-2.504-1.544-5.002-2.566-7.398c-1.537-3.601-3.271-7.1-5.494-10.372c-3.059-4.499-7.332-7.17-12.326-8.83
	c-4.5-1.495-7.533-4.456-9.813-8.54c-2.251-4.032-1.841-7.811,0.481-11.494c1.496-2.373,3.208-4.624,4.976-6.807
	c1.528-1.888,3.531-2.887,6.098-2.867c2.655,0.02,5.312-0.287,8.309-0.472c-0.538-0.932-0.959-1.687-1.403-2.427
	c-0.78-1.298-1.632-2.556-2.348-3.887c-0.877-1.628-0.749-2.267,0.699-3.374c2.928-2.235,5.516-4.728,7.151-8.121
	c0.704-1.457,1.617-1.394,2.999-0.382c2.411,1.764,3.644,4.411,5.173,6.795c3.309,5.152,6.406,10.438,9.606,15.659
	c2.265,3.693,4.552,7.372,6.837,11.051c0.285,0.461,0.633,0.886,0.978,1.361c2.385-1.792,4.708-3.538,7.156-5.376
	c-0.969-2.318-2.021-4.847-3.081-7.373c-2.696-6.411-5.407-12.815-8.085-19.232c-1.003-2.405-1.826-4.867-3.332-7.062
	c-1.182-1.725-0.917-2.544,0.699-3.892c2.168-1.807,4.406-3.533,6.527-5.394c0.867-0.759,1.521-1.767,2.232-2.691
	c0.419-0.542,0.677-1.238,1.172-1.681c0.326-0.293,1.119-0.522,1.405-0.333c1.727,1.149,3.396,2.137,4.117,4.516
	c1.214,3.992,2.989,7.824,4.699,11.648c3.259,7.281,6.694,14.481,9.949,21.763c3.482,7.796,7.07,15.521,11.434,22.887
	c4.101,6.93,7.876,14.055,11.937,21.01c1.909,3.265,4.151,6.334,6.246,9.491c2.628,3.964,2.573,4.562-1.018,7.62
	c-1.415,1.206-2.922,2.307-4.42,3.41c-2.552,1.878-5.045,3.806-6.938,6.399c-0.269,0.369-0.751,0.582-1.331,1.013
	c-0.789-0.48-1.666-0.959-2.481-1.525c-0.658-0.456-0.851-1.064-0.809-1.952c0.056-1.134-0.07-2.401-0.539-3.415
	c-1.794-3.871-3.689-7.698-5.676-11.475c-2.671-5.084-6.327-9.495-9.812-14.024c-1.928-2.508-3.752-5.095-5.681-7.721
	c-1.294,0.328-2.031,1.213-2.952,2.152c0.839,1.487,1.682,2.96,2.503,4.442c2.74,4.922,5.417,9.878,8.233,14.755
	c1.023,1.773,2.339,3.387,3.582,5.026c1.454,1.917,2.956,3.8,4.478,5.666c1.234,1.514,1.141,2.433-0.511,3.508
	c-0.921,0.6-1.884,1.136-2.835,1.692c-4.704,2.756-9.027,6.031-13.277,9.438c-1.704,1.367-3.054,2.936-4.297,4.671
	c-0.438,0.612-0.956,1.186-1.515,1.688c-1.183,1.058-1.694,0.741-3.084-0.184c-2.343-1.559-2.895-4.29-4.582-6.242
	C379.611,281.188,379.469,280.88,379.203,280.459z M327.427,313.165c-0.443-1.17-0.761-2.39-1.344-3.466
	c-1.954-3.607-3.021-7.529-4.115-11.429c-1.821-6.498-3.523-13.031-5.217-19.564c-0.444-1.724-0.729-3.498-0.947-5.266
	c-0.062-0.498,0.226-1.256,0.613-1.551c1.3-0.989,2.728-1.812,4.091-2.719c1.744-1.161,2.257-1.133,3.68,0.403
	c0.363,0.394,0.612,0.907,0.868,1.389c1.067,2,2.001,4.084,3.196,6.004c3.354,5.377,6.5,10.877,10.325,15.965
	c2.762,3.676,5.133,7.646,7.657,11.5c0.78,1.195,1.496,2.433,2.44,3.981c5.266-6.355,11.064-11.717,17.128-17.007
	c-1.63-1.924-3.038-3.695-4.558-5.364c-5.756-6.321-11.585-12.572-17.312-18.917c-5.355-5.934-10.68-11.898-15.899-17.952
	c-4.769-5.533-9.426-11.165-14.031-16.835c-1.418-1.748-2.502-3.768-3.741-5.661c-0.368-0.561-0.747-1.114-1.128-1.68
	c-0.311,0.173-0.546,0.229-0.651,0.377c-2.407,3.315-5.505,5.956-8.498,8.698c-1.406,1.289-2.703,2.775-4.307,3.747
	c-1.85,1.121-2.656,2.48-2.334,4.56c0.769,4.958,1.57,9.912,2.314,14.874c0.418,2.784,0.722,5.585,1.126,8.37
	c0.663,4.561,1.25,9.136,2.084,13.665c0.811,4.397,1.854,8.754,2.881,13.109c0.301,1.281,0.487,2.688,1.607,3.715
	c0.647-0.362,1.188-0.653,1.719-0.963c2.315-1.348,4.618-2.723,6.951-4.044c1.079-0.612,2.033-0.349,2.396,0.651
	c0.299,0.825,0.703,1.728,0.623,2.554c-0.404,4.218,0.102,8.398,0.339,12.592c0.187,3.293,0.562,6.555,1.824,9.91
	C320.664,315.578,324.004,314.385,327.427,313.165z M383.645,283.52c2.342-1.195,3.482-3.634,5.378-5.283
	c1.953-1.703,3.855-3.468,5.85-5.127c1.938-1.615,4.474-2.465,6.073-4.619c-0.177-0.338-0.324-0.642-0.49-0.936
	c-2.729-4.867-5.491-9.715-8.177-14.605c-1.256-2.288-2.356-4.661-3.544-6.986c-1.406-2.75-2.792-5.511-4.267-8.224
	c-0.465-0.852-0.495-1.598,0.092-2.284c1.239-1.446,2.453-2.938,3.865-4.204c0.801-0.719,1.972-1.028,2.975-1.518
	c1.238-0.604,1.809-0.511,2.724,0.485c0.324,0.354,0.604,0.748,0.895,1.131c4.073,5.378,8.09,10.8,12.23,16.125
	c3.78,4.861,6.603,10.263,9.3,15.751c0.768,1.562,1.527,3.129,2.238,4.583c3.892-2.862,7.604-5.594,11.381-8.37
	c-0.393-0.667-0.695-1.282-1.088-1.833c-5.419-7.582-9.642-15.888-14.458-23.836c-1.712-2.825-3.124-5.83-4.794-8.682
	c-3.383-5.781-6.08-11.889-8.789-17.995c-2.235-5.04-4.496-10.068-6.763-15.094c-2.123-4.708-4.319-9.384-6.392-14.115
	c-1.262-2.885-2.345-5.849-3.521-8.802c-3.017,2.747-6.05,5.508-9.061,8.25c5.237,12.04,10.506,24.156,15.814,36.361
	c-1.95,1.325-3.77,2.534-5.559,3.79c-1.011,0.71-1.979,1.484-2.946,2.251c-0.806,0.638-1.454,1.35-0.568,2.503
	c-1.528,0.565-2.38,2.471-3.854,1.646c-0.608-1.5-0.905-2.684-1.519-3.671c-3.923-6.317-8.028-12.512-11.524-19.097
	c-2.126-4.007-4.727-7.764-7.142-11.617c-0.652-1.042-1.4-2.022-2.101-3.021c-2.028,2.391-3.983,4.692-5.935,6.996
	c-0.637,0.752-0.858,1.536-0.269,2.447c1.304,2.006,2.562,4.041,3.877,6.038c0.16,0.242,0.557,0.341,0.854,0.477
	c1.624,0.736,3.267,1.435,4.872,2.204c0.957,0.457,3.034,0.789,4.178,0.679c0.423-0.041,1.134,0.1,1.256,0.367
	c0.225,0.492,0.335,1.261,0.097,1.698c-0.671,1.227-0.76,2.508-0.663,3.816c0.136,1.851,0.394,3.693,0.556,5.542
	c0.046,0.516,0.117,1.16-0.131,1.545c-0.503,0.779-1.216,1.421-1.908,2.195c-1.809-1.188-3.54-2.418-5.36-3.501
	c-1.835-1.09-3.484-2.603-6.12-2.994c0.393,1.024,0.495,1.926,0.989,2.466c2.039,2.223,4.048,4.515,6.345,6.454
	c4.672,3.946,9.7,7.462,13.637,12.249c4.345,5.282,8.312,10.707,10.78,17.22c1.811,4.774,1.748,9.596,1.502,14.445
	c-0.217,4.282-1.559,8.35-4.046,11.885C381.51,280.332,382.543,281.873,383.645,283.52z M267.438,341.549
	c6.255-3.345,12.02-6.724,18.036-9.566c7.137-3.374,14.491-6.292,21.754-9.397c2.438-1.042,4.889-2.053,7.369-3.093
	c-3.335-8.089-3.111-16.428-3.277-24.922c-0.953,0.553-1.65,0.969-2.358,1.368c-3.597,2.029-7.234,3.992-10.782,6.104
	c-2.004,1.194-3.881,2.608-5.782,3.97c-3.968,2.843-7.918,5.711-11.867,8.581c-1.17,0.85-2.319,1.73-3.464,2.613
	c-1.337,1.03-2.852,1.112-4.735,0.936c-1.485-3.77-3.145-7.542-4.455-11.431c-1.294-3.844-2.237-7.808-3.329-11.72
	c-2.74-9.815-5.503-19.625-8.207-29.451c-1.277-4.639-2.435-9.312-3.664-13.965c-0.171-0.65-0.436-1.276-0.731-2.129
	c-2.917,2.905-5.745,5.615-8.443,8.45c-1.748,1.837-3.28,3.886-6.034,4.378c0.1,0.699,0.108,1.258,0.266,1.771
	c1.208,3.942,2.365,7.903,3.693,11.804c1.93,5.667,3.98,11.292,6,16.927c1.32,3.688,2.562,7.411,4.047,11.033
	c2.294,5.59,4.811,11.089,7.15,16.661c2.341,5.573,4.569,11.194,6.873,16.784C266.116,338.752,266.831,340.211,267.438,341.549z
	 M204.103,306.633c1.374-0.772,1.061-1.812,0.744-2.9c-0.361-1.24-0.809-2.492-0.903-3.762c-0.14-1.911-0.091-3.849,0.065-5.76
	c0.043-0.537,0.636-1.239,1.157-1.493c3.4-1.65,6.818-3.274,10.292-4.761c4.83-2.069,9.347-4.651,13.625-7.693
	c1.383-0.984,1.938-2.142,1.823-3.847c-0.254-3.78-0.348-7.572-0.526-11.357c-0.02-0.427-0.161-0.849-0.274-1.413
	c-4.918,2.928-9.652,5.729-14.368,8.561c-3.837,2.304-7.618,4.701-11.486,6.949c-3.625,2.106-7.323,4.089-11.008,6.094
	c-2.094,1.139-4.226,2.212-6.377,3.333c0.193,0.641,0.295,1.108,0.473,1.545c2.026,4.966,4.052,9.933,6.104,14.889
	c0.867,2.096,1.721,4.201,2.712,6.24c2.041,4.203,4.164,8.368,5.73,12.779c0.62,1.747,1.095,3.545,1.633,5.321
	c1.665,5.5,3.374,10.987,4.975,16.506c0.726,2.504,1.222,5.076,1.854,7.608c0.597,2.396,1.229,4.783,1.858,7.17
	c0.274,1.045,0.581,2.082,0.913,3.269c6.28-3.373,13.024-4.396,19.75-5.995c-0.281-0.479-0.482-0.823-0.683-1.168
	c-1.868-3.214-4.146-6.265-5.511-9.68c-2.059-5.149-5.066-9.773-7.358-14.777c-1.803-3.935-3.747-7.806-5.617-11.71
	c-0.297-0.619-0.724-1.364-0.107-1.915c0.684-0.611,1.51-0.482,2.211,0.166c0.132,0.123,0.333,0.171,0.619,0.313
	c1.192-0.938,2.383-1.868,3.566-2.809c1.561-1.239,3.054-2.577,4.693-3.702c1.182-0.812,1.557-1.675,1.282-3.09
	c-0.522-2.701-0.863-5.436-1.287-8.156c-0.145-0.927-0.312-1.852-0.504-2.982c-6.386,3.218-11.741,7.804-18.369,10.397
	C205.283,308.142,204.746,307.454,204.103,306.633z M347.727,265.373c1.713,1.868,3.312,3.561,4.854,5.306
	c2.507,2.841,4.96,5.729,7.472,8.565c0.386,0.436,0.938,0.947,1.455,1.002c1.963,0.208,3.888,0.453,5.928,0.191
	c3.84-0.492,6.59-2.504,8.881-5.336c2.543-3.144,3.42-6.895,3.314-10.838c-0.066-2.609-0.324-5.239-0.788-7.807
	c-0.978-5.39-2.75-10.46-6.036-14.981c-3.679-5.062-7.987-9.264-13.812-11.777c-3.044-1.312-5.849-2.999-8.285-5.324
	c-1.974-1.88-3.176-4.083-3.877-6.667c-0.688-2.535,0.768-4.719,1.025-7.094c0.011-0.084,0.215-0.148,0.333-0.223
	c4.604,0.093,8.018,3.079,12.1,5.182c-0.129-1.865-0.441-3.458-0.301-5.009c0.231-2.589-1.197-3.747-3.3-4.511
	c-0.71-0.258-1.412-0.567-2.147-0.72c-4.556-0.951-9.155-0.674-13.745-0.366c-1.464,0.098-2.89,0.518-3.821,1.766
	c-1.93,2.589-4.021,5.062-5.335,8.082c-0.611,1.414-0.891,2.861-0.454,4.221c0.93,2.9,2.312,5.549,4.89,7.454
	c2.373,1.754,5.16,2.557,7.796,3.697c4.507,1.95,8.044,4.987,10.663,9.113c2.966,4.669,5.411,9.603,7.201,14.829
	c0.639,1.864,0.992,3.857,1.22,5.822c0.236,2.069-0.493,3.993-1.921,5.495c-2.008,2.114-5.398,3.214-7.787-0.095
	c-0.806-1.113-1.184-2.534-1.827-3.973C350.278,262.608,349.044,263.945,347.727,265.373z"/>
<path fill="#F8991D" d="M327.427,313.165c-3.423,1.221-6.763,2.413-10.217,3.646c-1.264-3.355-1.639-6.616-1.824-9.91
	c-0.237-4.193-0.743-8.374-0.339-12.592c0.08-0.826-0.324-1.729-0.623-2.554c-0.361-1-1.316-1.263-2.396-0.651
	c-2.333,1.321-4.636,2.696-6.951,4.044c-0.531,0.31-1.072,0.601-1.719,0.963c-1.12-1.028-1.306-2.435-1.607-3.715
	c-1.026-4.354-2.07-8.712-2.881-13.109c-0.835-4.529-1.422-9.104-2.084-13.665c-0.405-2.785-0.708-5.586-1.126-8.37
	c-0.744-4.962-1.545-9.915-2.314-14.874c-0.322-2.079,0.484-3.439,2.334-4.56c1.604-0.972,2.901-2.458,4.307-3.747
	c2.992-2.742,6.09-5.383,8.498-8.698c0.105-0.148,0.342-0.204,0.651-0.377c0.381,0.566,0.761,1.119,1.128,1.68
	c1.239,1.893,2.323,3.913,3.741,5.661c4.605,5.67,9.265,11.302,14.031,16.835c5.221,6.054,10.544,12.018,15.899,17.952
	c5.727,6.345,11.556,12.597,17.312,18.917c1.52,1.669,2.928,3.44,4.558,5.364c-6.062,5.291-11.862,10.652-17.128,17.007
	c-0.944-1.548-1.66-2.787-2.44-3.981c-2.524-3.853-4.896-7.824-7.657-11.5c-3.825-5.088-6.973-10.588-10.325-15.965
	c-1.195-1.919-2.129-4.003-3.196-6.004c-0.256-0.482-0.505-0.995-0.868-1.389c-1.423-1.536-1.936-1.564-3.68-0.403
	c-1.362,0.907-2.791,1.73-4.091,2.719c-0.389,0.295-0.675,1.053-0.613,1.551c0.22,1.768,0.503,3.542,0.947,5.266
	c1.692,6.534,3.396,13.066,5.217,19.564c1.095,3.9,2.161,7.822,4.115,11.429C326.666,310.774,326.982,311.994,327.427,313.165z
	 M306.369,264.085c0.645-0.031,1.438,0.263,1.574-0.817c0.022-0.184,0.35-0.465,0.542-0.469c1.024-0.024,1.562-0.739,2.197-1.373
	c1.119-1.113,2.276-2.191,3.456-3.242c1.124-1,1.083-2.586-0.317-3.007c-1.167-0.351-1.664-1.147-2.222-1.962
	c-1.436-2.094-2.811-4.231-4.187-6.365c-0.785-1.216-1.475-1.296-2.357-0.126c-0.448,0.593-0.735,1.308-1.093,1.969
	c-0.512,0.943-0.759,2.032-1.821,2.656c-0.276,0.162-0.411,1.028-0.244,1.412c1.332,3.057,1.757,6.331,2.409,9.55
	C304.583,263.671,304.939,264.004,306.369,264.085z"/>
<path fill="#F8991D" d="M383.645,283.52c-1.102-1.647-2.135-3.188-3.227-4.817c2.487-3.536,3.829-7.603,4.046-11.885
	c0.246-4.849,0.309-9.67-1.502-14.445c-2.47-6.513-6.437-11.938-10.78-17.22c-3.937-4.787-8.965-8.302-13.637-12.249
	c-2.297-1.939-4.306-4.23-6.345-6.454c-0.494-0.541-0.598-1.442-0.989-2.466c2.636,0.392,4.285,1.904,6.12,2.994
	c1.82,1.083,3.553,2.312,5.36,3.501c0.692-0.774,1.405-1.416,1.908-2.195c0.248-0.386,0.177-1.029,0.13-1.545
	c-0.161-1.849-0.419-3.69-0.555-5.542c-0.097-1.308-0.008-2.589,0.663-3.816c0.238-0.437,0.128-1.206-0.097-1.698
	c-0.122-0.267-0.833-0.408-1.256-0.367c-1.144,0.109-3.221-0.222-4.178-0.679c-1.605-0.769-3.248-1.467-4.872-2.204
	c-0.299-0.136-0.694-0.235-0.854-0.477c-1.315-1.997-2.573-4.031-3.877-6.038c-0.591-0.911-0.368-1.695,0.269-2.447
	c1.95-2.304,3.905-4.604,5.935-6.996c0.698,0.999,1.447,1.979,2.101,3.021c2.415,3.853,5.016,7.61,7.141,11.617
	c3.497,6.584,7.604,12.78,11.525,19.097c0.612,0.988,0.909,2.171,1.519,3.671c1.474,0.826,2.324-1.08,3.854-1.646
	c-0.886-1.153-0.236-1.866,0.568-2.503c0.969-0.768,1.937-1.542,2.946-2.251c1.789-1.255,3.607-2.464,5.559-3.79
	c-5.31-12.205-10.577-24.321-15.814-36.361c3.01-2.741,6.044-5.502,9.061-8.25c1.176,2.954,2.259,5.917,3.521,8.802
	c2.071,4.731,4.269,9.407,6.392,14.115c2.267,5.026,4.526,10.054,6.763,15.094c2.709,6.106,5.406,12.214,8.789,17.995
	c1.67,2.853,3.082,5.857,4.794,8.682c4.815,7.948,9.039,16.254,14.458,23.836c0.393,0.551,0.695,1.167,1.088,1.833
	c-3.775,2.775-7.489,5.508-11.381,8.37c-0.711-1.455-1.472-3.021-2.238-4.583c-2.697-5.488-5.52-10.89-9.3-15.751
	c-4.142-5.324-8.157-10.746-12.23-16.125c-0.29-0.384-0.569-0.778-0.895-1.131c-0.915-0.996-1.484-1.089-2.724-0.485
	c-1.003,0.49-2.174,0.799-2.975,1.518c-1.412,1.266-2.626,2.758-3.865,4.204c-0.587,0.686-0.557,1.432-0.092,2.284
	c1.475,2.713,2.859,5.474,4.267,8.224c1.188,2.325,2.287,4.699,3.544,6.986c2.686,4.89,5.448,9.739,8.177,14.604
	c0.166,0.294,0.313,0.597,0.49,0.937c-1.601,2.154-4.136,3.003-6.073,4.619c-1.993,1.659-3.896,3.424-5.851,5.127
	C387.127,279.885,385.985,282.324,383.645,283.52z"/>
<path fill="#F8991D" d="M267.438,341.549c-0.607-1.338-1.323-2.797-1.94-4.294c-2.304-5.589-4.532-11.21-6.873-16.784
	c-2.339-5.572-4.856-11.071-7.15-16.661c-1.485-3.622-2.727-7.344-4.047-11.033c-2.02-5.635-4.07-11.261-6-16.927
	c-1.329-3.901-2.485-7.862-3.693-11.804c-0.157-0.513-0.166-1.072-0.266-1.771c2.753-0.493,4.286-2.542,6.034-4.378
	c2.698-2.835,5.526-5.545,8.443-8.45c0.295,0.853,0.56,1.479,0.731,2.129c1.229,4.653,2.386,9.326,3.664,13.965
	c2.704,9.826,5.466,19.635,8.207,29.451c1.092,3.912,2.035,7.876,3.329,11.72c1.31,3.89,2.97,7.662,4.455,11.431
	c1.883,0.176,3.398,0.094,4.735-0.936c1.146-0.883,2.294-1.763,3.464-2.613c3.949-2.87,7.899-5.738,11.867-8.581
	c1.901-1.362,3.778-2.775,5.782-3.97c3.548-2.113,7.186-4.075,10.782-6.104c0.708-0.399,1.405-0.814,2.358-1.368
	c0.166,8.494-0.058,16.833,3.277,24.922c-2.48,1.04-4.933,2.05-7.368,3.093c-7.265,3.105-14.619,6.023-21.755,9.397
	C279.458,334.825,273.693,338.204,267.438,341.549z"/>
<path fill="#F8991D" d="M204.103,306.633c0.643,0.821,1.181,1.509,1.699,2.171c6.627-2.593,11.982-7.179,18.369-10.397
	c0.192,1.13,0.359,2.055,0.504,2.982c0.424,2.72,0.764,5.456,1.287,8.156c0.274,1.415-0.1,2.278-1.282,3.09
	c-1.639,1.125-3.132,2.462-4.693,3.702c-1.183,0.94-2.374,1.871-3.566,2.809c-0.286-0.142-0.487-0.191-0.619-0.313
	c-0.701-0.648-1.527-0.777-2.211-0.166c-0.617,0.551-0.19,1.295,0.107,1.915c1.871,3.904,3.814,7.775,5.617,11.71
	c2.292,5.003,5.3,9.628,7.358,14.777c1.366,3.415,3.643,6.466,5.511,9.68c0.201,0.346,0.402,0.689,0.683,1.168
	c-6.726,1.599-13.469,2.622-19.75,5.995c-0.333-1.188-0.639-2.224-0.913-3.269c-0.629-2.387-1.262-4.774-1.858-7.17
	c-0.632-2.532-1.127-5.104-1.854-7.608c-1.601-5.519-3.31-11.006-4.975-16.506c-0.539-1.776-1.013-3.575-1.633-5.321
	c-1.566-4.411-3.689-8.577-5.73-12.779c-0.991-2.039-1.845-4.144-2.712-6.24c-2.051-4.956-4.077-9.922-6.104-14.889
	c-0.177-0.437-0.279-0.904-0.473-1.545c2.151-1.122,4.283-2.194,6.377-3.333c3.685-2.004,7.383-3.987,11.008-6.094
	c3.868-2.248,7.649-4.646,11.486-6.949c4.716-2.831,9.45-5.632,14.368-8.561c0.113,0.564,0.254,0.985,0.274,1.413
	c0.178,3.786,0.272,7.577,0.526,11.357c0.115,1.705-0.44,2.862-1.823,3.847c-4.277,3.042-8.795,5.625-13.625,7.693
	c-3.474,1.487-6.892,3.111-10.292,4.761c-0.521,0.253-1.114,0.956-1.157,1.493c-0.156,1.911-0.206,3.849-0.065,5.76
	c0.094,1.27,0.542,2.522,0.903,3.762C205.163,304.821,205.477,305.861,204.103,306.633z"/>
<path fill="#F8991D" d="M347.727,265.373c1.317-1.428,2.553-2.765,3.69-3.999c0.644,1.439,1.021,2.86,1.827,3.973
	c2.389,3.309,5.779,2.209,7.787,0.095c1.428-1.502,2.156-3.426,1.921-5.495c-0.228-1.965-0.581-3.958-1.22-5.822
	c-1.79-5.227-4.235-10.16-7.201-14.829c-2.619-4.126-6.156-7.163-10.663-9.113c-2.636-1.141-5.423-1.943-7.796-3.697
	c-2.576-1.905-3.96-4.554-4.89-7.454c-0.437-1.36-0.157-2.808,0.454-4.221c1.314-3.02,3.405-5.493,5.335-8.082
	c0.933-1.248,2.357-1.667,3.821-1.766c4.59-0.308,9.189-0.585,13.745,0.366c0.735,0.153,1.438,0.462,2.146,0.72
	c2.104,0.764,3.532,1.922,3.301,4.511c-0.142,1.552,0.172,3.144,0.301,5.009c-4.082-2.103-7.496-5.088-12.101-5.182
	c-0.117,0.075-0.321,0.139-0.333,0.223c-0.258,2.375-1.712,4.559-1.024,7.094c0.701,2.584,1.903,4.787,3.877,6.667
	c2.438,2.325,5.241,4.011,8.285,5.324c5.825,2.513,10.135,6.714,13.812,11.777c3.286,4.521,5.06,9.592,6.036,14.981
	c0.464,2.568,0.721,5.198,0.788,7.807c0.104,3.943-0.771,7.695-3.315,10.838c-2.29,2.833-5.04,4.844-8.88,5.336
	c-2.04,0.262-3.965,0.017-5.928-0.191c-0.519-0.055-1.069-0.566-1.455-1.002c-2.512-2.836-4.965-5.724-7.472-8.565
	C351.039,268.934,349.438,267.241,347.727,265.373z"/>
<path d="M306.369,264.085c-1.43-0.081-1.786-0.414-2.062-1.775c-0.652-3.219-1.077-6.493-2.409-9.55
	c-0.167-0.383-0.033-1.25,0.244-1.412c1.062-0.624,1.31-1.712,1.821-2.656c0.358-0.661,0.646-1.375,1.093-1.969
	c0.882-1.17,1.572-1.089,2.357,0.126c1.376,2.134,2.751,4.271,4.187,6.365c0.558,0.814,1.055,1.611,2.222,1.962
	c1.4,0.421,1.441,2.007,0.317,3.007c-1.18,1.05-2.337,2.128-3.456,3.242c-0.637,0.634-1.173,1.349-2.197,1.373
	c-0.192,0.004-0.52,0.286-0.542,0.469C307.809,264.348,307.014,264.054,306.369,264.085z M306.05,251.315
	c0.725,2.646,2.118,5.004,3.229,7.602c0.928-0.63,1.717-1.194,1.072-2.36C309.261,254.581,307.947,252.77,306.05,251.315z"/>
</svg>
