<?xml version="1.0" encoding="utf-8"?>
<!-- Generator: Adobe Illustrator 19.2.0, SVG Export Plug-In . SVG Version: 6.00 Build 0)  -->
<svg version="1.1" id="Layer_1" xmlns="http://www.w3.org/2000/svg" xmlns:xlink="http://www.w3.org/1999/xlink" x="0px" y="0px"
	 viewBox="0 0 389 373" style="enable-background:new 0 0 389 373;" xml:space="preserve">
<style type="text/css">
	.st0{fill:#4CC1EF;}
	.st1{fill:#4197D3;}
	.st2{fill:#FEE5D2;}
	.st3{fill:#FEE65E;}
	.st4{fill:#434244;}
	.st5{fill:#FFFFFF;}
</style>
<g>
	<path d="M25.8,149.5c-1.2-0.5-1.8-0.7-2.5-1c-1.8-0.7-3.2-1.9-4.3-3.6c-1.1-1.7-2.8-3-4.1-4.5c-1.4-1.6-2.8-3.2-4.2-4.8
		c-0.9-1-1.7-2.1-2.6-3c-1.8-1.9-2.4-4.3-1.5-6.6c1,0.1,2,0.1,3.2,0.2c-1-1.3-1.9-2.5-2.8-3.7c-1.3-1.8-1.6-3.8-0.8-5.9
		c0.6-1.6,1-1.8,2.7-1.3c3.5,0.9,6.1,3,8.1,5.8c2.8,3.9,6.3,6.8,10.3,9.3c0.2,0.1,0.5,0.2,1,0c-1.7-2-3.5-4-5.2-6
		c-1.9-2.2-3.8-4.5-5.5-6.8c-0.7-1-1.2-2.2-1.5-3.5c-0.5-2,0.8-3.1,2.8-2.6c1.9,0.5,3.2,1.8,4.4,3.1c3.7,3.7,7.1,7.7,10.8,11.3
		c4.6,4.4,9.7,8.4,15.6,11c0.3,0.1,0.6,0.1,1,0.2c1-2,0.9-4.1,0.3-6.2c-0.5-1.6-1-3.2-1.5-4.8c-0.2-0.5-0.4-1.1-0.5-1.6
		c-0.5-2.8-0.1-5.2,3-6.6c1.9,0.2,2.9,1.8,3.6,3.4c1.4,2.9,2.7,5.7,4,8.6c0.9,2,2,3.8,4.6,3.7c0.4,0,0.9,0.8,1.1,1.3
		c1.2,2.9,2.3,5.9,3.6,8.8c0.9,2,2.1,3.9,3.5,5.6c1.2,1.5,3,2.6,4.5,3.8c6.6,5.2,13.3,10.5,20,15.7c5.3,4.1,10.8,8.1,16.8,11
		c1.8,0.9,3.4,2,5,3.1c3.3,2.3,6.6,4.6,10,6.9c0.6,0.4,1.3,0.6,1.6,0.7c2.3-2.2,4.5-4.1,6.6-6.2c2.4-2.4,4.6-5,6.8-7.5
		c0.9-1,1.5-2.2,2.3-3.3c3.9-4.9,7.8-9.7,11.9-14.5c3.3-3.9,6.8-7.7,10.3-11.5c1.1-1.2,2.2-2.3,3.2-3.5c4.1-5.1,9.2-8.8,14.6-12.4
		c2.2-1.4,4.6-2.5,6.8-3.8c1.8-1,3.6-2,5.3-3.1c6.2-3.8,12.8-6.9,19.7-9.1c2.4-0.7,4-1.8,6.2-4.1c-2.2-1-3.9-2.9-6.7-1.5
		c-1.2,0.6-2.7,0.9-4.3,1.4c-0.4-0.2-1-0.6-1.4-0.8c-2.5,1.6-4.9,3.1-7.3,4.5c-1.5,0.9-3.1,0.4-4.6,0c-0.7-1.1-0.4-1.9,0.7-2.8
		c2.5-2.1,4.1-5.2,2.4-8.6c-1.2,1.6-2.3,3.3-3.7,4.7c-0.8,0.8-2,1.3-3,1.8c-0.5,0.2-1.1,0.2-1.6,0.2c-1,0-2.1-0.1-3.1-0.2
		c-0.4,0-0.7-0.4-1.1-0.6c0.7-2.9,4.2-3.4,5.3-6.3c-1.3,0.3-2.5,0.3-3.5,0.7c-3.9,1.8-6.5-0.5-9.8-2.6c2.4-0.9,4.9-0.5,6.5-2.3
		c1.5-1.6,2.3-3.6,2.6-5.9c-1.1,0-2-0.1-3,0.7c-0.9,0.7-1.9,0.9-3.1,0.5c-1.5-0.5-3.1-0.7-4.6-1.2c-1.1-0.3-2.1-0.6-2.5-1.9
		c1.3-1.5,3-2.3,5.2-2.1c-1.4-1.1-2.7-2-3.7-3.1c-0.9-1-2.3-2.1-1.1-4.2c0.8,0.2,1.7,0.5,2.6,0.7c2.7,0.9,4.8,0.3,6.4-1.8
		c1.7-2.3,3.4-4.6,5.2-6.7c2.2-2.5,3.4-5.5,4.7-8.5c0.5-1.1,0.8-2.2,1.3-3.3c2.4-5.6,3.4-11.5,4.8-17.3c1-4.3,1.6-8.7,4.4-12.4
		c0.5-0.6,0.9-1.3,1.5-1.8c2-1.9,4.1-3.7,6-5.7c1.9-1.9,4.3-2.6,6.7-3.4c0.4-0.1,0.9,0.1,1.4,0.1c1.7,0,3.5,0,5.2-0.2
		c3.4-0.3,5.5-2.4,7.2-5.1c1-1.5,1.9-3.1,2.9-4.8c2.6,2.2,1.4,5,1.9,7.6c4.6-2.7,5.8-7.7,8.4-11.8c1.8,0.9,1.9,1.3,2.1,7
		c0.2-0.1,0.5-0.1,0.6-0.3c1.4-2.4,4.1-3.9,4.7-6.9c0.1-0.6,1.2-1,1.8-1.4c1.5,1.4,1,3,1.4,4.6c1.5-0.9,2.3-2.1,2.7-3.4
		c0.5-1.8,1.7-2.5,3.3-3c0.8,1.7,0,3.3,0.2,5.1c0.9-0.2,1.6-0.6,1.9-1.4c0.7-1.6,2-2.8,3.4-3.9c1-0.8,1.6-0.5,1.7,0.7
		c0.1,0.7,0,1.4,0,2.1c0,0.6-0.1,1.2,0.2,1.9c0.7-1.2,1.4-2.3,2.2-3.5c0.8-1.2,1.5-2.4,3.4-2.4c-0.1,3.4-1,6.4-2.1,9.6
		c1.5,0.4,2.7-0.1,3.7-1.1c0.7-0.7,1.3-1.6,2-2.4c0.5-0.7,0.7-1.8,2-1.6c0.4,0,0.8-0.9,1.6-1.2c-0.1,0.5-0.1,1-0.3,1.5
		c-0.8,1.6-1.6,3.1-2.5,4.6c-2.9,4.4-5.8,8.8-8.8,13.2c-1.1,1.6-1.4,3.1-1.1,5.1c0.7,4.9,3.1,9,6,12.7c1.2,1.6,3.2,2.6,4.8,3.8
		c0.7,0.5,1.5,0.9,2.2,1.4c1.4,1.1,1.3,2-0.2,2.9c-0.4,0.2-0.9,0.3-1.4,0.5c2.1,2.5,5.4,2.6,8.3,4.1c-1.3,1.4-2.4,2.5-3.5,3.6
		c1.6,1.7,3.8,0.2,5.7,0.8c1.2,2.2,1.2,2.3-0.6,3.6c-0.7,0.5-1.4,1-2.3,1.7c1.8,1.2,3.7,1.4,5.6,1.7c1,0.1,2.3-0.4,2.7,0.8
		c0.4,1.4-1,2-1.9,2.6c-0.8,0.6-1.7,1.1-2.8,1.8c3.1,1.5,6.2,0.4,9.2,1.1c0.1,3.6-2.5,5.9-4.4,8.7c0.1,0.3,0.4,0.7,0.7,1.2
		c-0.6,0.2-1.2,0.3-1.9,0.5c0.3,0.6,0.5,1.1,0.8,1.7c-1.1,2-3.5,1.4-5,2.5s-3,2-4.7,3c0,0.4,0.1,0.8,0.1,1.2c-3.6,2-7.2,4-10.6,5.9
		c-0.5,3.7-0.9,7.4-1.4,11.2c0.6,0,1.1,0.1,1.6,0c3.1-0.6,6.2-1.3,9.3-1.8c1.5-0.3,3-0.2,4.5-0.4c3.5-0.5,7.1-0.8,10.6-1.5
		c5.5-1.2,10.3,0.1,14.8,3.1c4.1,2.7,7.2,6.4,10.5,9.9c4.5,4.7,8.3,10,11.2,15.8c2.3,4.5,5,8.8,7.7,13c3,4.8,5.9,9.5,8.9,14.2
		c1.6,2.4,3.3,4.6,5.1,6.8c3.5,4.3,5.9,9.2,7.4,14.5c0.6,2.3,1.6,4.4,2.2,6.7c0.5,2.1,0.8,4.4,1,6.5c0.4,3.8-0.4,7.6-1.4,11.2
		c-0.5,1.6-1.9,3.1-3.2,4.3c-3.6,3.6-7.3,7-10.9,10.6c-4.1,4.1-8.2,8.2-12.2,12.3c-4.7,4.8-9.2,9.8-13.9,14.6
		c-4.3,4.5-8.8,8.8-13.1,13.4c-2.5,2.6-4.9,5.4-7,8.2c-1.6,2.2-2.9,4.7-4.3,7c-0.5,0.7-0.9,1.5-1.6,2c-1.7,1.3-1.7,3-1.3,4.9
		c1.2,4.7,2.3,9.5,3.5,14.3c1.3,5,2.8,9.9,4.1,14.8c1.5,5.6,2.8,11.4,4.5,16.9c2.9,9.5,4.2,19.3,6.5,28.9c1.7,7,3.8,13.9,6,20.7
		c2.1,6.5,4.9,12.7,7.1,19.1c2.1,6,4.3,12.1,6.1,18.2c1.3,4.6,2.1,9.4,3.1,14.1c0.8,4.3,1.5,8.6,2.2,12.9c0.1,0.7,0.6,1.3-0.3,1.9
		c-0.2,0.1,0,0.7,0,1.1c0.8,7.5,1.7,15,2.3,22.5c0.4,4.5,0.3,9,0.2,13.5c-0.2,7.1-0.5,14.2-1,21.3c-0.2,3.1-1.2,6.2-1.6,9.3
		c-1.1,8.7,0.2,17.2,3.3,25.4c0.8,2.2,1.7,4.4,2.6,6.6c0.5,1.1,1.1,2.1,1.8,3c1,1.3,1,1.8-0.4,2.6s-2.9,1.7-4.4,2.3
		c-1.2,0.5-1.5,1.4-1.4,2.5c0.1,1.3,0.1,2.6,0.5,3.8c1,3.4,2.1,6.8,3.3,10.1c1.2,3.4,2.8,6.7,3.9,10.2c0.7,2.2,1.2,4.5,1.3,6.7
		c0.1,1.6-0.7,3.2-1.1,4.8c-2,0.7-2.9,2.7-4.7,3.7c-4.6,2.3-9.4,4.3-14.5,4.9c-3.4,0.4-6.5-1-9.6-2.2c-2.3-0.9-4.1-2.5-5.6-4.5
		c-1.9-2.5-2.2-5.2-2.1-8.1c0.2-3.9,0.4-7.8,0.9-11.6c0.3-2.5,0.9-5,1.7-7.3c1-3.3,2.7-6.4,2-10.4c-1.7-0.1-3.5-0.3-5.3-0.4
		c-2.1-0.1-2.7-0.6-2.7-2.7c0-1.7,0.2-3.3,0.5-5c1.1-5.5,1.1-11.2,1.5-16.8c0.2-3,0.4-6,0.3-9c-0.1-2.7-0.8-5.5-1-8.2
		c-0.5-6.2-0.9-12.3-1.3-18.5c-0.4-7.3-0.9-14.6-1.1-21.8c-0.1-6.4-0.1-12.8,1.3-19.2c0.4-1.8,0.3-3.3-0.6-5
		c-3.1-5.9-5.9-11.9-9-17.8c-2.1-4-4.7-7.7-6.8-11.7c-2.4-4.5-4.7-9.1-6.9-13.8c-3.2-6.6-6.1-13.2-9.4-19.7
		c-3.6-7-7.5-13.7-11.1-20.7c-1.7-3.3-3.1-6.8-4.7-10.1c-2.2-4.7-4.4-9.3-6.5-14c-1.2-2.7-2.2-5.6-3.2-8.4c-0.2-0.4-0.4-0.9-0.7-1.6
		c-1.8,3.4-3.4,6.5-5.1,9.6c-1.1,2-2.1,4.1-3.3,6c-3.5,5.5-7.2,11-10.7,16.6c-1.9,3-3.3,6.3-5.1,9.4c-2.9,5.1-5.9,10.1-9,15.1
		c-4.8,7.6-9.8,15.2-14.7,22.7c-1.4,2.1-2.5,4.4-3.9,6.5c-2.4,3.7-3,7.8-3,12c0,3.5,0,6.9-0.7,10.4c-0.4,1.8-0.3,3.6-0.4,5.4
		c-0.2,5-0.7,9.9-1.4,14.9c-0.8,5.2-1.2,10.5-2,15.8c-0.7,4.5-1.5,8.9-2.5,13.3c-1.1,5-2.5,10-3.9,14.9c-1.2,4.1-1.7,8.4-1.8,12.7
		c-0.1,3.9-0.3,7.8,0.1,11.6c0.5,5.6,1.9,11,3.7,16.4c0.7,2.3,2,4.2,3.2,6.3c1.1,1.9,0.7,2.6-1.6,2.8c-1.5,0.2-3,0.4-4.7,0.7
		c0,1.4-0.1,2.8,0,4.2c0.1,1.5,0.4,3,0.7,4.5c0.8,4.7,1.7,9.5,2.5,14.2c0.1,0.7-0.1,1.4,0.7,1.9c0.3,0.2,0.2,1,0.1,1.5
		c-0.4,2.1-0.4,4,0.8,5.9c1,1.6,0.7,2.1-1.1,2.9c-0.7,0.3-1.5,0.5-2.2,0.7c-2.3,0.5-4.6,0.9-6.9,1.5c-6.3,1.7-12.6,2.9-19.2,2.8
		c-3.6-0.1-6.9-0.9-10.1-2.4c-3.5-1.6-5.9-4.2-7.2-7.8c-0.4-1-0.9-2-1.2-3.1c-0.2-0.6-0.2-1.2-0.2-1.8c0.8-5.9,2.8-11.2,6.2-16.1
		c2.5-3.6,4.1-7.5,3.8-12c-2.3-0.8-4.6-1.5-6.9-2.3c-2.1-0.8-2.5-2.1-1.1-3.7c3.2-3.8,4.8-8.3,6.5-12.8c1-2.7,2.1-5.3,2.8-8
		c1-3.6,1.6-7.2,2.4-10.9c1.2-5.6,0.4-11.3,0.4-17c0-6.3-0.3-12.7,0.8-18.9c0.9-5.3,1.7-10.6,2.4-16c0.7-5.2,1.2-10.4,1.8-15.6
		c0.4-3.2,0.8-6.4,1-9.7c0.1-3.5,0-7.1-0.1-10.7c-0.1-3.7-0.7-7.4-0.4-11.1c0.3-4.3,1.6-8.5,3.7-12.4c2.9-5.3,5.2-10.8,6.7-16.6
		c1.6-6,3.5-12,5.2-18c1.2-4.3,2.1-8.8,3.3-13.1c1.4-5.2,2.9-10.4,4.5-15.5c1.8-5.5,3.7-10.9,5.8-16.3c1.3-3.3,2.9-6.5,4.4-9.7
		c1.3-2.9,2.5-5.8,3.8-8.7c1.2-2.6,2.5-5.3,4-7.8c1.4-2.2,2.2-4.5,2.9-6.9c0.9-3,1.8-6,2.8-9c0.3-0.9,0-1.6-0.1-2.5
		c-0.3-1.8-0.3-3.8,0-5.6c1-5.4,0.6-10.9,0.3-16.3c-0.2-3.9-0.2-7.9-0.3-11.9s0-8.1-0.1-12.1c-0.1-3.2-0.5-6.5-0.5-9.7
		c-0.1-6.5-1.3-12.7-3.6-18.8c-2.2-5.7-4.5-11.3-6.8-17c-0.6-1.6-1.2-3.2-1.9-4.8c-0.3-0.8-1-1.4-1.3-2.2c-0.6-1.3-1.1-2.6-1.5-4
		c-0.3-1.1-0.4-2.3-0.6-3.8c-1.7,1.4-3.1,2.6-4.5,3.8c-4.2,3.3-8.3,6.5-12.6,9.7c-5.3,4.1-10.7,8.1-16.1,12.1
		c-0.5,0.4-1,0.8-1.5,1.1c-3.9,2.1-7.1,5.3-10.6,8.1c-1.7,1.3-3.3,2.7-4.9,4.2c-2.2,2.1-4.5,4.2-6.6,6.4c-1.4,1.5-3.1,2.2-5,2.4
		c-3,0.3-5.9,0-8.9-0.7c-3.6-0.9-6.6-2.8-9.7-4.9c-5.5-3.7-10.2-8.2-15.3-12.3c-2.9-2.3-5.8-4.7-8.7-7c-4.3-3.4-8.6-6.8-12.8-10.2
		c-5.2-4.3-10.1-9-16.1-12.1c-2.3-1.2-4.8-2.1-7.2-3c-3-1.2-6-2.4-9.1-3.5c-1.2-0.4-2.6-0.6-3.9-0.8c-1-0.1-1.7-0.4-2-1.3
		c-0.2-1-1-1.2-1.7-1.4c-4.1-1.4-8.3-2.4-12.7-2.6c-1.6-0.1-3.3-0.6-4.7-1.4c-3.5-1.9-7.5-2.5-11.2-3.8c-1.2-0.4-2.4-0.9-3.4-1.5
		c-2-1.3-1.8-3.6,0.4-4.4c2.9-1,5.9-1.7,9.1-0.9C21.2,150.5,23.3,150.4,25.8,149.5z M275.2,93.1c0.8,0,1.7,0,3,0
		c-1-0.7-1.6-1.1-2.2-1.6c0.1-0.2,0.1-0.3,0.2-0.5c0.8,0.3,1.6,0.6,2.5,0.8c0.8,0.2,1.7,0.3,2.5,0.4c0.8,0,1.7-0.1,2.6-0.1
		c0-0.2,0-0.3,0-0.5c-1.9-0.3-3.7-0.9-5.6-0.9c-2.1,0.1-4-0.2-6.1-0.7c0.5,0.7,1,1.3,1.4,2c-1-0.5-1.8-1.1-2.1-2.3
		c-0.2-0.7-0.9-1.2-1.4-1.7c-0.1-0.1-0.4-0.1-0.7-0.1c-0.2,0.5-0.4,1-0.5,1.4c3.5,4.6,7.9,6.6,14,5.3c-1.3-0.8-2.3-0.9-3.4-1
		C277.9,93.6,276.6,93.3,275.2,93.1z M255.9,23.5c-0.3,0.8-0.6,1.5-0.9,2.3c2-1.2,3.3-2.9,3.7-5.1c0.2-0.6,0.3-1.3,0.6-2.3
		c-1.3,1-2.3,1.7-3.3,2.4c1.4-1.5,2.8-3,4.3-4.4c2.1-2.1,3.6-4.5,3.7-7.7c-1.2,2.2-4.1,3-4.6,5.7c-1.6-0.7-1.5-1.9-1.1-3.2
		c-0.7,0.6-1.3,1.1-1.8,1.5c-1.7,1.4-2.8,3.1-2.7,5.5c0,1-0.5,2-0.8,2.9c-0.2,0.5-0.3,1.1-0.6,1.9c0.8-0.4,1.3-0.7,1.8-1
		c-0.6,0.6-1.3,1.3-1.9,1.9c-0.4,0.4-0.9,0.7-1.2,1.1c-1,1.7-1.9,3.5-2.8,5.2C251.4,28.6,253.8,26.2,255.9,23.5z M227.6,102.6
		c1.6-0.1,1,1.5,1.7,2.2c2.4-2.6,3.9-5.6,4.9-8.9c0.3-1.2,0.2-2.3-0.3-3.5c-1.4,2.4-2.7,4.5-4.1,6.7c0.2-1.2,0.5-2.5,0.7-3.7
		c0.3-2.1,0.7-4.2,0.9-6.3c0.1-0.4-0.2-0.9-0.3-1.6c-0.3,0.4-0.4,0.5-0.5,0.6c-1.3,2.9-2.6,5.9-4,8.8c-0.5,1-1,1.3-1.8,0.4
		c1.3-2.4,2.7-4.6,3.7-7c0.6-1.5,0.8-3.2,1-4.8c0.1-0.7-0.4-1.5-0.8-2.5c-2.2,4-2.7,8.5-6.5,11.6c2.3-4.4,3.5-8.6,4.1-13
		c0.2-1.3,0.1-2.5-1.1-3.7c-2.8,2.1-2.3,5.9-4.3,8.3c-0.4-0.2-0.8-0.3-1.1-0.4c0.7-2.2,1.4-4.2,1.9-6.3c0.2-0.7,0-1.6-0.4-2.1
		c-1.1-1.4-2.5-2.5-3.9-3.9c-0.4,0.9-0.7,1.8-1.2,2.6c-1,1.8-2,3.6-3,5.4c-0.2,0.3-0.7,0.4-1.1,0.7l0.1,0.1c1.8-2.7,3.2-5.5,4.3-8.6
		c0.4-1.3,0.4-2.2-0.2-3.3c-0.6-1-1-2.2-1.6-3.1c-2.1-3.1-1.3-6,0.3-8.9c0.3-0.6,0.7-1.3,0.6-1.9c-0.2-1.2-0.7-2.4-1.2-3.6
		c-0.9-1.8-1.9-3.6-2.9-5.4c-0.7-1.4-1.4-2.8-2.9-3.6c-0.6-0.3-1.4-0.9-0.6-2.1c0.8,0.3,1.6,0.6,2.5,1c0.4,0.2,0.8,0.5,1.2,0.6
		c2.7,0.4,5.5,0.6,8.2,1c2.2,0.3,4.3-0.2,6.1-1.4c-0.8,0-1.5,0.1-2.1,0c-1.1-0.2-2.4-0.2-3.1-1.4l0,0c2.4,1,5,1.3,7.6,0.9
		c2.1-0.3,3.3-2.4,4.9-3.8c-1.7-0.1-3.3-0.1-5.4-0.2c4.4,0,8.5,0.3,11.1-3.6c-1.6-0.3-3.1-0.6-4.6-0.9l-0.1,0.1c1.6,0,3.1,0,4.7,0.1
		c1.4,0.1,2.6-0.4,3.7-1.1c4-2.5,6.7-5.9,8.3-10.3c0.1-0.4,0.2-0.8,0.2-1.1c-0.7,0.5-1.1,1.1-1.5,1.6c-1.2,1.4-2.3,2.8-4.1,3.3
		c0.2-0.2,0.3-0.6,0.5-0.7c2.9-2.2,4.6-5.3,6.4-8.3c0.1-0.2,0.1-0.4,0.2-0.7c-0.5-0.1-0.9-0.1-1.3-0.2c-0.3,0.9-0.6,1.7-0.8,2.5
		c-0.2,0-0.3-0.1-0.5-0.1c0.1-0.9,0.2-1.8,0.3-2.7c0.1-0.9,0.1-1.8,0.2-2.7c-0.8-0.2-1.4-0.4-1.9-0.6c-0.9,1.6-0.8,1.6-0.3,3.1
		c0.7,1.8,1,3.7-0.5,5.3c0-1.7,0.7-3.5-0.7-5.1c-0.9,1.6-1.7,3-2.6,4.3c-1.3,1.8-2.7,3.7-4.9,4.6c1.1-1.3,2.2-2.5,3.4-3.8
		c-1.3,0.3-2,1.7-3.7,1.5c0.1-1.2,0.2-2.4,0.2-3.6c0-1.2,0.3-2.4-0.6-3.6c-1.6,2.3-3.1,4.4-4.7,6.7c1.2,0.1,2.2,0.2,3.2,0.3
		c0.2,0.8,0,1.1-0.9,1.3c-2.8,0.5-5.5,1-8.3,1.6c1,0.4,2,0.4,3,0.6c1.9,0.4,3.7,0.3,5.6-0.4c0.9-0.4,1.9-0.5,2.9-0.8
		c-1.2,0.7-2.4,1.4-3.6,2.2c0.6,0.4,1.2,0.8,1.7,1.2c-2-0.6-3.9-1.4-6-0.3c-0.2,0.1-0.7-0.2-1.1-0.3c0.3-0.3,0.5-0.5,0.7-0.8
		c-3.3-1.1-6.6-1.2-9.8,0c-3.8,1.4-6.7,4-8.6,7.7c-0.4-0.2-0.7-0.4-1.2-0.7c-0.6,1-1.2,2-1.9,3c-0.6,0.9,0.1,2.5-1.3,3.1
		c-0.4-3.6,2.5-5.8,3.6-8.8c-2.6,2.3-4.7,4.8-5.4,8.2c-0.8,3.4-1.4,6.8-2.3,10.2c-1.2,4.6-2.8,9.1-3.9,13.7
		c-1.1,4.9-3.7,9.1-5.6,13.6c-0.1,0.3-0.5,0.4-0.9,0.7c0.1-0.7,0.1-1.1,0.2-1.9c-1.9,2.5-3.6,4.6-5.1,6.9c-1.3,2-3,3.2-5.4,3.3
		c-0.6,0-1.3,0.1-1.9,0.2c1.3,0.9,2.8,1.3,2.8,3.3c1.4-0.7,2.6-1.3,3.8-1.9c0.1,0.1,0.1,0.3,0.2,0.4c-1.3,0.9-2.5,1.8-3.9,2.7
		c0.3,0.5,0.5,1,0.7,1.5c-0.1,0-0.2,0.1-0.3,0.1c-0.5-0.5-0.9-1-1.6-1.7c-0.5,0.6-1,1.1-1.4,1.5c0.5,0.4,1,1,1.6,1.1
		c1.5,0.2,3,0.2,4.5,0c3.2-0.5,4-1.1,3.8-3.7c0-0.1,0.1-0.2,0.2-0.4c0.8,1.1,0.8,1.1-0.2,4.6c-0.5,1.7-0.9,3.4-1.6,4.9
		c-0.7,1.5-1.8,2.9-2.7,4.3c0.1,0.2,0.2,0.3,0.3,0.5c1.8-0.3,3.6-0.4,5.3-1c2.3-0.8,4.8-1.4,6.2-3.8c0.3,2.4-1.8,3.7-2.2,5.8
		c-0.4,2.2-2.9,2.8-3.8,4.7c2.2-0.5,4.2-1.2,5.5-3.1c1.2-1.8,2-3.8,3.1-6c0.8,0.7,2,1.2,2.2,2c0.8,3.4,1.1,6.8-1,10
		c-0.4,0.6-0.8,1.1-1.4,2.1c1.5-0.6,2.7-0.4,3-2c0.1-0.4,0.5-0.8,0.9-1c1.9-1.1,3.5-2.6,4.3-4.5c1.4,0.5,2.6,1,4.2,1.5
		c0.8-0.7,1.7-1.5,2.8-2.5c0.2,0.8,0.4,1.6,0.6,2.2c1.9,0.6,3.1-0.2,4-1.8c0.5-0.9,1.1-1.8,1.6-2.6c0.1-0.1,0.2-0.2,0.5-0.3
		c0.3,0.4,0.6,0.8,0.8,1.3c0.7-0.3,1.3-0.6,2-0.9c-1.5,1.8-3.9,2.6-5.6,5.1c1.8-0.5,3.1,0.4,4.2-0.8
		C226.8,105.9,227.8,104.5,227.6,102.6z M258.6,27.7c-0.6,0.7-1.2,1.4-1.9,2.3c1.8,0.1,3.1-0.7,4.2-1.6c3.5-2.7,6.9-5.4,8.6-9.6
		c-0.4,1.1-0.5,2.3-1.1,3.3c-1.2,1.9-2.6,3.6-3.9,5.3c-0.2,0.3-0.3,0.7-0.5,1c0.1,0.1,0.2,0.2,0.3,0.2c1.1-0.8,2.3-1.6,3.4-2.4
		c0,0.1,0.1,0.1,0.1,0.2c-0.4,0.6-0.8,1.2-1.2,1.8c0.1,0.1,0.2,0.2,0.3,0.4c1.1-0.8,2.3-1.5,3.4-2.4c1.1-0.8,2.1-1.7,3-2.7
		c0.9-1.1,2.1-2.2,2.4-3.5c0.3-1.2,1.4-2,1.6-3.3c-0.6,0.1-1.1,0.2-1.9,0.3c1.4-0.9,2.5-1.7,3.6-2.4c-0.1-0.2-0.1-0.3-0.2-0.5
		c-1.1,0.1-2.3,0.1-3.4,0.2c0.2-0.5,0.4-1.1,0.6-1.7c-0.1,0-0.1-0.1-0.2-0.1c-1.1,1.2-2.2,2.4-3,3.3c-1.2-0.1-2.1-0.1-2.9-0.2
		c0.2-0.2,0.5-0.5,0.7-0.5c1.1,0.2,2-0.2,2.8-0.9c1.7-1.6,3.3-5.1,3.4-7.5c-1,1.1-2,2.3-3.2,3.4c-0.9,0.8-1.8,1.5-2.1,2.8
		c-0.2,0.7-0.6,1.3-1.6,1c0.3-0.9,0.6-1.6,0.9-2.4c-0.1,0-0.2-0.1-0.3-0.1c-0.2,0.4-0.5,0.8-0.7,1.2c-0.2-0.1-0.3-0.2-0.5-0.4
		c0.3-0.9,0.6-1.9,0.9-2.8c-0.1,0-0.2-0.1-0.3-0.1c-0.7,0.8-1.4,1.6-2.1,2.4c-0.3-0.4-0.5-0.7-0.9-1.2c-1.3,1.7-2.5,3.4-3.7,5
		c-3.3,4.4-5.2,9.6-9.9,13.6c2.4-0.6,3-3.2,5.4-2.7c0,0.4-0.1,0.8-0.1,1.2C258.8,27.4,258.7,27.5,258.6,27.7z M294.2,86.3
		c-5.3,1.1-10.5,0.9-16.2-0.4c0.5,0.8,0.6,1,1,1.5c-3.4,0.1-5.7-1.8-8-3.8c-0.4,1.1-0.8,1.9-1.1,2.9c1.1,0.7,2,1.3,3,1.9
		c1.8,1.1,3.6,1.3,5.7,1c0.9-0.1,2.2-0.5,2.3,1.2c3.3-0.6,6.7,0,10.3-1.6c-1.9-0.3-3.4-0.5-5.1-0.8c2,0,3.6,0.1,5.2,0
		C292.5,88.1,293.7,87.7,294.2,86.3c1.1-0.2,2.2-0.3,3.3-0.5c-0.1-0.2-0.1-0.4-0.2-0.6C296.2,85.6,295.2,86,294.2,86.3z M297.4,75.7
		L297.4,75.7c-0.7-0.4-1.4-0.9-2.2-1.1c-0.9-0.3-1.9-0.3-2.8-0.6c-1.1-0.3-1.3-1-0.5-1.9c0.3-0.3,0.7-0.6,1.1-0.8
		c1.2-0.6,2.4-1.1,3.7-1.7c-0.6-0.3-1-0.6-1.4-0.7c-2.1-0.8-4.3-1.6-6.4-2.5c-0.5-0.2-1.1-0.8-1.1-1.3c0-0.9,0.8-0.7,1.4-0.6
		c1.6,0.2,2.9-0.3,3.9-1.4c-2.1-0.8-4.1-1.8-6.2-2.4c-1.4-0.4-1.8-1.2-1.9-2.5c1.8,0,3.4-0.2,5-1.2c-1.7-0.8-3.3-1.4-4.8-2.2
		c-2-1-3.9-2-5.9-3.1c-0.4-0.2-0.5-1-0.7-1.5c0.5-0.1,0.9-0.4,1.4-0.4c1-0.1,2.1,0,3.2,0c0.1-0.2,0.2-0.3,0.3-0.5
		c-7.7-4.6-10.1-12.2-12.1-20.8c-0.5,1.1-0.9,1.6-0.9,2.2c0,4,0,7.9,0.1,11.9c0,0.9,0.1,1.8,0.1,2.8c0.5,0,0.7,0.1,0.9,0.1
		c3-0.2,3.7,0.3,4,3.3c0.3,3.9,0.4,7.9,0.5,11.9c0,1.9-0.5,2.6-2.5,3.3c-0.5,0.2-0.9,0.4-1.5,0.7c1,2.8,3.1,4.3,5.3,5.7
		c-0.1,0.2-0.3,0.3-0.4,0.5c-1.3-0.6-2.5-1.3-4.2-2.2c1.2,3.3,3.9,4.8,5.9,6.8c-0.8-0.3-1.6-0.7-2.5-1.1c0.1,0.6,0.2,0.9,0.3,1.5
		c-1.8-1-0.8-3.9-3.2-4c-0.5,4.1,0.8,7.1,4.6,8.7c0.4,0.2,0.7,0.3,1,0.6c0.3,0.3,0.5,0.7,1.1,1.4c-3.2,0.3-5-1.5-7-2.8
		c-1.3,1-1.5,1.3-0.8,2c0.9,1,1.9,2,3,2.7c4,2.3,8.3,2.2,12.6,1.5c0.2,0.2,0.3,0.4,0.5,0.5c2.2,0.2,4.5,0.1,6.6-0.8
		c-0.1-1-0.5-1.1-1.3-0.9c-2,0.5-3.9,0.9-5.9,1.3c0.4-1.4,2.1-0.7,3.1-1.9c-1.3,0.1-2.4,0.4-3-0.3c1.8-0.2,3.6-0.3,5.3-0.8
		c2-0.6,4-1.5,5.8-2.5c1.9-1,3-2.8,4-5.1c-1.8,0-3.4,0-4.9,0C298,75.1,297.7,75.5,297.4,75.7z M311.1,136.9c0.2,0.2,0.4,0.4,0.5,0.7
		c0.4,0.9,0.9,1.9,1.2,2.9c2.1,6.8,4.2,13.6,7.8,19.8c0.6,1,1.2,2.1,1.7,3.1c2.4,5.2,5.5,10,8.6,14.8c3,4.7,5.8,9.4,8.8,14.1
		c0.4,0.6,0.7,1.3,1.2,1.7c1.3,1.1,2.1,2.5,2.8,4c0.8,2,0.7,2.7-1,4c-0.9,0.7-1.8,1.3-2.6,2c-4.4,3.5-8,7.9-11.4,12.4
		c-4.3,5.5-8.4,11.3-11.6,17.6c-2.8,5.5-6.3,10.6-10.2,15.4c-2.9,3.6-5.9,7.2-8.9,10.8c-2,2.3-1.7,3.4,1.7,4.6
		c0.4,0.1,0.8,0.1,1.2,0.2c3,0.6,6,1.1,9.1,1.7c1.9,0.4,3.5,0.3,5-1.3c2.7-2.8,5.5-5.4,8.2-8.2c4.1-4.2,8.2-8.4,12.2-12.6
		c5-5.2,9.8-10.5,14.9-15.6c5.4-5.5,10.9-10.8,16.5-16.1c4.4-4.1,5.2-9.4,4.9-14.9c-0.1-2.9-1-5.8-1.3-8.7c-0.4-3.5-1.9-6.7-3.5-9.8
		c-2.7-5.4-6-10.4-9.7-15.2c-0.9-1.1-1.6-2.4-2.3-3.6c-2.3-3.9-4.4-7.9-6.9-11.6c-2.9-4.2-5.4-8.5-7.8-13c-2.3-4.4-4.8-8.8-8-12.6
		c-4.1-4.9-8.2-9.8-13.8-13.2c-2.6-1.6-5.3-2.6-8.2-2.6c-2.6,0-5.2,0.6-7.8,0.9c-3.6,0.4-7.2,1.2-10.8,1.1c-3.4-0.1-6.6,0.6-9.8,1.4
		c-2.3,0.6-3.4,1.5-4.2,3.9c-1.6,4.8-4,9.3-6.7,13.6c-2.6,4-6.1,7.3-8.2,11.5c-0.9,1.7-1.9,3.6-2.2,5.4c-0.9,6.4,0,12.8,1.3,19.1
		c0.8,4,1.9,7.8,3,11.7c0.3,1.2,0.3,2.1-1.1,2.8c-0.4-0.6-0.8-1.1-1.1-1.7c-1.8-3.9-3.5-7.8-5.4-11.6c-1.2-2.4-2.6-4.7-4.2-6.8
		c-4.1-5.3-8.7-10.3-12.6-15.7c-4.7-6.4-8.2-13.5-10.1-21.3c-0.5-2.2-2.2-3.2-3.6-4.6c-1-1-2.1,0.1-3.2-0.1c-0.2,0-0.5,0-0.7,0
		c-4.6,0.1-8.9,1.2-13,3.4c-4.9,2.6-9.7,5.4-14.6,7.9c-5,2.5-9.7,5.5-13.9,9c-4.4,3.6-8.5,7.8-12.4,12c-4.6,5-8.9,10.3-13.3,15.5
		c-2.6,3.1-5.5,6-7.7,9.3c-2.7,3.9-6.1,7.1-8.9,10.8c-2.7,3.4-5.9,6.4-7.6,10.5c-0.3,0.8-0.8,0.9-1.5,0.5c0.1-0.2,0.1-0.5,0.2-0.7
		c1-2.2,1-2.5-1-3.9c-1.2-0.9-2.5-1.6-3.7-2.5c-4.8-3.4-9.6-6.7-14.8-9.4c-2.5-1.3-5-2.8-7.2-4.5c-3.9-2.9-7.6-6-11.4-8.9
		c-5.8-4.5-11.7-8.9-17.5-13.4c-3.2-2.5-6.1-5.2-7.2-9.4c-0.3-1.3-1.1-2.4-1.6-3.5c-1.2,2.7-2.1,5.3-3.5,7.7c-1.8,3.1-4.1,6-5.9,9.2
		c-1.8,3.1-3.9,5.7-6.7,7.8c-0.3,0.2-0.6,0.5-0.9,0.8c0.5,0.4,0.7,0.7,1,0.8c2.9,1.1,5.7,2.4,8.6,3.3c3.9,1.2,7.6,2.7,10.9,5.1
		c3.2,2.4,6.4,4.9,9.6,7.4c2.1,1.7,4,3.6,6.1,5.3c4.7,3.8,9.5,7.5,14.3,11.3c1.2,1,2.5,1.9,3.8,2.9c5.4,4.5,10.7,9.1,16.2,13.5
		c4.7,3.7,10.2,5.6,16.4,5.2c1.9-0.1,3.4-0.9,4.9-2.1c7.4-5.9,14-12.8,22-18c0.7-0.4,1.3-0.8,2-1.3c5.1-3.8,10.1-7.7,15.2-11.3
		c6.1-4.3,11.9-8.9,17.5-13.8c0.4-0.3,0.7-0.9,0.8-1.3c0.6-2.5,1.1-5.1,1.5-7.7c0.4-2.1,1.6-4.1,2.9-4.9c-0.5,2.6-1.2,5.3-1.4,8.1
		c-0.2,3-0.2,6.1,0.5,8.9c0.7,3.1,2.2,6.1,3.5,9.1c2.6,6,5.2,12,7.8,18.1c0.5,1.2,1.1,2.5,1.5,3.8c0.6,1.8,1.2,3.6,1.4,5.5
		c0.4,3.5,0.5,7,0.7,10.4c0.3,5.5,0.6,10.9,0.9,16.4c0.3,4.7,0.7,9.3,0.9,14c0.1,2.9,0.2,5.9,0,8.8c-0.3,4.4-0.8,8.8-1.2,13.2
		c-0.1,1.2,0.2,2,1.2,2.8c1.9,1.4,3.8,3,4.7,5.2c0.6,1.6,1.8,2,3.1,2.1c1.4,0.2,2.8,0.2,4.2,0.2c4.9-0.2,9.8-0.5,14.7-0.8
		c3-0.2,6-0.4,9-0.6c5.1-0.3,10.2-1.1,15-3.1c2.3-1,4.7-1.8,7.2-2.5c1.3-0.3,2.1-1,2.9-1.9c1.8-2.1,3.5-4.2,5.5-6.2
		c2-2.1,4.2-4.1,6.4-6c1.8-1.5,4.2-2.3,4.9-4.9c0-0.1,0.2-0.3,0.3-0.4c2.7-2.3,4.1-5,4.1-8.6c-0.1-4.2,1.5-8.4,1.5-12.6
		c0-4.6,0.5-9.1,0.5-13.7c0-7,0.9-13.9,1.9-20.8c0.8-5.6,2.3-11.1,3.5-16.7c0.5-2.1,1.1-4.2,1.8-6.2c0.4-1.1,1-2.1,1.4-3.2
		c0.8-2.3,1.4-4.7,2.3-6.9c1.6-3.8,3.4-7.5,5.2-11.4C312.8,153.2,311.2,145.3,311.1,136.9z M217.1,281.5c-1.2,3.6-2.2,7-3.4,10.3
		c-1,2.8-2,5.7-3.5,8.3c-2.1,3.8-4.1,7.7-5.7,11.7c-2.2,5.5-4.5,10.9-7,16.3c-2.7,5.9-4.5,12.2-6.4,18.4c-2.2,7.3-3.9,14.7-5.8,22
		c-1.2,4.4-2.3,8.9-3.6,13.3c-1.1,4-2.4,8-3.6,12c-0.5,1.6-1.7,3-1,4.9c0.1,0.2-0.1,0.4-0.2,0.6c-1,1.8-1.9,3.6-3.1,5.3
		c-1.6,2.4-2.7,5-3.5,7.7c-0.8,2.8-1.1,5.6-0.9,8.4c0.3,3,0.8,5.9,1.1,8.9c0.2,1.6,1,3.2-0.4,4.7c-0.2,0.2,0,0.6-0.1,0.9
		c-0.2,3.5-0.2,7-0.5,10.4c-0.8,9.4-1.8,18.7-2.7,28.1c-0.6,6.4-1.2,12.8-2.1,19.1c-0.4,3.3-0.5,6.6-0.1,9.9c0.1,1.3,0.4,2.7,0.3,4
		c-0.2,3.1-0.2,6.2-0.9,9.2s-0.7,6.1-2.4,8.9c-1.1,1.7-1.4,3.8-2,5.8c-1.3,4.3-2.8,8.6-4.9,12.6c-0.5,0.9-0.9,1.9-1.4,3
		c3.3-0.7,6.3-1.4,9.3-2c2.5-0.5,5.1-1.1,7.7-1.1c3.2,0,6.5,0.5,9.7,0.7c3.9,0.3,7.4,1.3,10.8,3.2c0.9,0.5,1.7,1,3,1.8
		c-0.9-3.1-1.6-5.6-2.3-8.2c-0.7-2.7-1.3-5.3-1.9-8c-0.7-3-0.6-6-0.6-9c0-6.9,0.6-13.8,2.4-20.5c1.4-5.4,3-10.6,4.2-16
		c1.1-4.9,1.9-9.9,2.6-15c0.7-4.7,1.2-9.4,1.8-14.1c0.2-1.9,0.5-3.8,0.6-5.7c0.3-4.7,0.5-9.5,0.8-14.2c0.1-2.4-0.2-4.7-1.4-6.8
		c-0.4-0.7-0.2-1.3,0.1-2c0.7-1.5,1.2-3.1,1.8-4.6c0.6-1.7,1.2-3.4,2-5c1.3-2.5,2.8-4.9,4.3-7.3c2.4-3.7,4.8-7.4,7.2-11.1
		c2.5-3.9,5.2-7.7,7.6-11.8c2.7-4.7,5.1-9.6,7.8-14.4c2.7-4.7,5.8-9.2,8.5-13.9c2.9-5.1,6.6-9.6,8.7-15.1c1.1-2.8,2.6-5.4,4-8.1
		c2.5-4.7,5.3-9.2,6.8-14.3c0.2-0.6,0.7-1.1,1.7-0.5c0,1.6,0.4,3.5-0.3,5.2c-0.8,1.8-0.5,3.5,0.1,5.3c2.1,5.6,4.4,11,7.1,16.3
		c3.1,6.2,5.9,12.6,9,18.8c2.3,4.5,5,8.8,7.3,13.3c3,5.8,5.7,11.8,8.6,17.7c0.7,1.5,1.5,3,2.2,4.5c2.9,7,6.4,13.8,10.3,20.3
		c3.4,5.7,6.9,11.4,9.6,17.4c1.1,2.4,2.5,4.7,3.8,7.3c0.4-1,0.1-2.3,1.7-1.8c-0.1,0.8-0.1,1.6-0.3,2.3c-1.6,7.6-2.3,15.2-2.2,22.9
		c0.1,7.4,0.7,14.7,1.1,22.1c0.5,9.4,0.9,18.8,2.5,28.1c0.4,2.3,0.1,4.7,0,7.1c-0.1,2.1-0.4,4.1-0.6,6.1c-0.4,4.5-0.9,9-1.3,13.5
		c-0.1,1.6-0.5,3.2,0.2,5.1c3.5-0.8,6.9-1.4,10.2-2.5c3.3-1.1,6.5-1.9,10-1.7c1.4,0.1,2.9,0.1,4.3,0c1.7-0.2,3.4-0.3,5.1-0.1
		c1.6,0.2,3.3,0.1,5.3,0.1c-1-2-2-3.6-2.6-5.4c-1.2-3.2-2.1-6.5-3.2-9.7c-2.1-6.5-2.7-13.2-2-19.9c0.7-7.2,2.5-14.4,2.4-21.7
		c0-1.8,0.4-3.6,0.3-5.4c0-5.3-0.2-10.6-0.3-15.9c0-1.5-0.1-3-0.2-4.5c-0.3-2.7-0.6-5.5-0.9-8.2c-0.6-5.2-1.2-10.4-1.9-15.5
		c-0.5-3.3-1.2-6.5-1.7-9.8c-0.1-0.6,0-1.3,0-1.9c0-0.8,0-1.7-0.1-2.5c-0.1-0.9-0.5-1.7-0.6-2.5c-0.2-5.1-1.8-10-3.5-14.7
		c-1.9-5.1-4.2-10.1-6.2-15.1c-1.4-3.3-2.9-6.5-4-9.9c-1.8-5.7-3.2-11.4-4.7-17.1c-0.9-3.1-1.8-6.2-2.5-9.4
		c-1.4-6.3-2.5-12.7-3.8-19.1c-0.7-3.3-1.9-6.5-2.7-9.8c-2.9-10.9-5.9-21.8-8.8-32.8c-1-3.9-1.8-7.8-2.8-11.8
		c-0.4-1.5-0.9-3-1.4-4.6c-4.3,2.5-8.7,3.2-13.2,3.9c-3.8,0.5-7.5,0.9-11.3,1.2c-2,0.2-4,0.5-5.9,0.2c-4.7-0.7-9.3-1.8-13.9-2.7
		c-0.6-0.1-1.3-0.4-1.8-0.3c-6,1.1-12.1,0.9-18.2,1.6c-2.4,0.3-4.7,0.4-7.1,0.4c-2.8-0.1-5.7-0.4-8.5-0.7c-1.1-0.1-2.2-0.7-2.3-2
		C220.4,283.1,219,282.2,217.1,281.5z M212.9,44.8c-0.1,0.1-0.2,0.3-0.3,0.4c0.2,0.4,0.4,0.9,0.6,1.3c1.3,2.9,2.7,5.9,4,8.8
		c1.6,3.6,2.9,7.3,4.6,10.9c1.8,3.8,4,7.5,5.9,11.3c2.4,4.8,5.8,8.9,8.8,13.2c0.3,0.4,0.6,0.7,1,1c2.7,2,5.4,4,8.2,5.8
		c1,0.7,2.3,1.1,3.5,1.3c1.2,0.2,2.5,0.2,3.8,0.2c2.3,0.1,4.5-0.1,6.8-0.9c1-0.3,1.7-0.8,2.2-1.6c2.3-3.8,5-7.3,6.3-11.6
		c1.1-3.5,2.7-6.9,3-10.7c0.3-2.7,0.2-5.4-1-7.9c-0.7-1.4-1.1-2.7-1.3-4.1c-0.6-3.6-1.3-7.2-1.8-10.8c-0.2-1.5-0.3-3-0.2-4.5
		c0.2-2.4,0.6-4.7,0.8-7.1c0.2-2.8,0-5.5-1.1-8.1c-2,0.1-4,0.1-5.9,0.4c-4.2,0.5-8.5,1.1-12.7,1.7c-0.4,0.1-0.7,0.3-1.1,0.5
		c-3.2,1.8-6.3,3.5-9.5,5.3c-1.6,0.9-3.1,2.1-4.9,2.9c-3,1.4-6.1,2.6-9.2,3.7c-2.2,0.8-4.4,0.8-6.7-0.2
		C215.6,45.6,214.2,45.3,212.9,44.8z M320.3,163.7c-0.3,0.1-0.5,0.2-0.6,0.3c-0.3,0.3-0.5,0.6-0.7,0.9c-3.9,5-5.9,11-8,16.8
		c-2,5.7-3.3,11.5-4.6,17.4c-1.2,5.6-1.8,11.2-2.5,16.9c-0.6,4.8-0.3,9.8-0.5,14.7s-0.6,9.8-0.9,14.7c-0.1,2.2-0.3,4.4-0.5,7.1
		c0.8-0.7,1.2-0.9,1.4-1.3c2.6-3.4,5.3-6.7,7.6-10.3c2.3-3.6,4.2-7.5,6.4-11.1c2.8-4.4,5.6-8.8,8.8-13c3.1-4.1,6.3-8.2,10.2-11.6
		c1.8-1.6,3.3-3.6,5.1-5.5c-0.7-1.5-1.3-3.1-2.2-4.4c-2.5-3.9-5.1-7.6-7.6-11.4c-0.8-1.2-1.6-2.5-2.4-3.8c-1-1.5-2-3-2.8-4.6
		c-1.4-2.7-2.6-5.4-4-8.1C321.6,166.2,320.9,165,320.3,163.7z M7.3,128c0.4,0.9,0.7,1.6,1.1,2.2c1.4,1.9,2.8,3.8,4.4,5.6
		c2.2,2.5,4.9,4.8,6.9,7.5c2.2,2.8,5,4.3,8.1,5.5c0.6,0.2,1.1,0.4,1.7,0.6c0.2,1.2,0.1,2.2-1.2,2.1c-3.3-0.2-6.5,0.8-9.9,0.1
		c-2.8-0.5-5.6,0-8.6,1.7c1.3,0.6,2.2,1.2,3.2,1.5c3.4,1.2,7,2.1,10.3,3.4c2.6,1.1,5.2,1.8,8,2c3.9,0.3,7.8,1.4,11.3,3
		c1.8,0.8,3.2,0.6,4.7-0.2c3.1-1.7,5.3-4.4,7-7.5c0.7-1.3,1.5-2.6,2.4-3.8c2-2.6,3.6-5.4,4.7-8.5c0.9-2.5,1-5-0.8-7.2
		c-0.2-0.3-0.4-0.7-0.6-1c-1.6-3.8-3.2-7.5-4.9-11.3c-0.6-1.3-1-2.8-2.4-3.6c-1.8,0.6-2.4,1.9-2,3.6c0.5,1.9,0.9,3.9,1.6,5.7
		c1.8,4.4,0.7,8.4-1.2,12.4c-0.4,0.9-1.2,1.6-2,2.3c-0.2,0.2-1,0.1-1.2-0.1c-0.2-0.2-0.3-0.9-0.2-1.2c0.2-0.4,0.7-0.7,0.9-1.1
		c0.5-0.8,1-1.7,1.5-2.5c-1.1-0.8-2-1.3-2.8-1.9c-2.2-1.4-4.4-2.8-6.5-4.3c-2.2-1.6-4.6-3.1-6.6-5c-3.9-3.7-7.5-7.7-11.3-11.5
		c-1.1-1.1-2.2-2-3.5-2.9c-0.4-0.3-1.1-0.2-1.7-0.3c0,0.5-0.2,1.1,0.1,1.5c1.2,2,2.3,3.9,3.7,5.7c1.4,1.8,3,3.5,4.6,5.1
		c2.8,2.7,4.3,6.4,7.4,8.9c0.6,0.5,0.7,1.2-0.3,1.7c-0.4-0.2-0.9-0.2-1.3-0.5c-1.8-1.2-3.6-2.5-5.4-3.7c-4.2-2.9-8.5-5.7-11.3-10.3
		c-1.5-2.5-4.3-3.8-7.1-5.2c0,0.5,0,0.8-0.1,0.9c-1.6,1.4-1.2,2.8,0,4.2c0.5,0.6,0.9,1.3,1.4,1.9c3.5,4.4,7.7,8.1,12.3,11.4
		c1.2,0.8,2.3,1.8,3.5,2.7c-1.1,1.4-1.8,0.8-2.7,0.1c-3.5-2.8-7-5.6-10.6-8.3C11,128.5,9.4,127.6,7.3,128z M188.7,549.6
		c-4.7-2.4-9.4-2.2-13.9-2.8c-4.4-0.6-9-0.4-13.4,0.7c-1.3,0.3-1.8,0.8-1.6,2c0.1,0.5,0,0.9,0.1,1.4c0.3,5.2-0.5,10-3.5,14.4
		c-2.3,3.4-4.2,7.1-5.6,10.9c-0.3,1-0.4,1.8,0.1,2.9c1.1,2.5,3.1,3.8,5.5,4.4c3.2,0.8,6.5,1.4,9.7,2c2.2,0.4,4.3,0.9,6.5,1
		c4.7,0.3,9.3-0.5,13.7-2.1c1.2-0.4,2.4-0.8,3.5-1.5c2-1.2,3.3-3,2.8-5.5c-0.5-2.8-0.9-5.6-1.4-8.4c-0.4-2.2-0.8-4.5-1.1-6.8
		C189.5,558.1,189.2,553.8,188.7,549.6z M322.5,587c-1.2,3.8,1.8,8.1,5.5,9.9c4.8,2.4,9.8,3.4,15.1,1.5c4.8-1.7,9.6-3.1,12.9-7.5
		c0.6-0.8,0.9-1.6,0.9-2.6c-0.2-3-1.2-5.7-2.2-8.5c-2.1-5.5-4.2-10.9-6-16.5c-0.6-2-0.6-4.2-0.7-6.3c-0.1-1.4,0-2.8,0-4.3
		c-1.2,0-2.2,0-3.1,0c-1.4,0.1-2.9,0.5-4.3,0.3c-4.7-0.6-9.1,0.8-13.6,2.3c-0.1,1.3-0.2,2.7-0.4,4c-0.3,1.9-0.4,4-1.2,5.8
		c-2.3,5.4-2.9,11-3,16.7c0,1.9,0.5,3.5,1.8,4.7s2.8,2.3,4.4,3.2c2.3,1.3,4.8,2,7.5,2c2.1,0,4.3,0.3,6.4,0.2
		c3.4-0.3,6.5-1.4,9.2-3.5c0.7-0.5,1.3-0.4,1.9,0.6c-0.6,0.7-1.1,1.6-1.8,2c-2.3,1-4.7,1.9-7.1,2.6c-3,1-6,0.2-8.9-0.1
		c-4.8-0.5-9.3-2-12.5-5.9C323.1,587.5,322.8,587.3,322.5,587z M265.1,98.4c-1.3,0.9-2.5,2.2-3.9,2.7c-4.1,1.5-8.5,1.6-12.6,0.4
		c-2.6-0.7-4.9-2.5-7.2-4c-1.8-1.2-3.5-2.6-5-3.8c-0.5,2.6-1.1,5-1.5,7.5c-0.3,1.5-0.5,3.1-0.5,4.7c0,2.3,0.2,4.6,0.5,6.9
		c0.3,2.7,0.8,5.4,2.2,7.6c2,3.2,4.4,6.2,6.5,9.4c1.9,2.8,3.6,5.7,5.2,8.7c2.3,4.2,4.4,8.6,6.5,12.9c0.1,0.3,0.5,0.5,1,1
		c0-0.8,0-1.2,0-1.6c-0.3-5.2,0.9-10.2,2.4-15.1c0.8-2.5,2-5,3.2-7.4c2.4-5,5-9.8,5.8-15.5c0.4-2.6,1.7-5.1,2.8-7.5
		c1-2-0.4-4.9-2.2-5.6C267.2,99.4,266.2,98.9,265.1,98.4z M266.7,286.2c0,0.2,0.1,0.4,0.1,0.6c2.3,0.2,4.5,0.4,6.8,0.5
		c4.5,0.2,9-0.2,13.4-1c3.6-0.6,7.2-1,10.6-2c3.3-1,6.1-2.9,8.1-5.9c1.6-2.5,3.3-5,4.9-7.5c0.2-0.4,0.3-0.8,0.6-1.5
		c-1.1-0.3-2.1-0.6-3.1-0.8c-1.1-0.2-2.4-0.2-3.5-0.5c-2.7-0.7-5.6-1.3-8.1-2.5c-1.6-0.8-2.8-0.8-4.2,0c-1,0.5-1.9,1.2-2.6,2
		c-3.1,3.3-6.2,6.6-9.1,10c-2.1,2.4-4.5,4.4-7.6,5.5c-1.8,0.6-3.5,1.5-5.2,2.3C267.5,285.5,267.2,285.9,266.7,286.2z M258,157.1
		c0.1,0,0.3,0,0.4,0c0.1-0.1,0.2-0.3,0.2-0.4c0-0.5-0.1-1-0.2-1.4c-1.2-5.6,0.2-10.9,2.7-15.8c1.5-2.9,3.9-5.3,5.8-8
		c1.2-1.7,2.5-3.3,3.5-5c1.2-2.1,2.3-4.4,3.2-6.6c1-2.4,1.8-4.9,2.4-7.4c0.7-2.9,1-5.9,1.4-8.9c0.2-1.5,0.5-3,0.8-4.8
		c-2.6,0.5-4.9,1-7.2,1.5c0.2,0.5,0.3,1,0.4,1.4c0.5,1.9,0.8,3.8-0.2,5.7c-0.6,1.2-1.2,2.4-1.5,3.7c-0.5,1.9-0.8,3.8-1.3,5.6
		c-1,3.9-3,7.2-4.8,10.8c-1.4,2.9-3.1,5.7-4.1,8.8c-2,5.9-2.5,12-2,18.3C257.7,155.3,257.9,156.2,258,157.1z M224.6,113.7
		c0.1,0.2,0.2,0.4,0.3,0.6c0.7,0.1,1.4,0.1,2.1,0.2c2.3,0.4,3.9,1.8,4.1,4c0.3,3.7,1.3,7.1,3,10.4c1.1,2.3,2.3,4.5,3.5,6.7
		c1.5,2.6,2.8,5.3,4.6,7.7c3,4.1,6.3,7.9,9.5,11.8c1.6,1.9,3.2,3.9,4.8,5.8c-0.6-2.8-1.5-5.4-3-7.7c-1.2-1.9-2.3-4-3.3-6
		c-1.7-3.1-3.3-6.3-5.1-9.4c-1.6-2.7-3.4-5.1-5-7.7c-2.6-4.2-5.4-8.2-6.8-13c-0.4-1.3-0.7-2.5-0.8-3.8c-0.1-2.2-0.5-4.3-0.9-7.1
		c-0.6,1-1,1.4-1.1,1.8c-0.4,2.5-1.9,3.9-4.3,4.5C225.6,112.7,225.1,113.3,224.6,113.7z M150.7,584.6c1.1,3,2.7,5.9,5.8,7.5
		c3.3,1.8,6.9,2.6,10.7,2.7c5,0,9.9-0.9,14.8-1.9c3.6-0.7,7.2-1.7,10.8-2.6c0.6-0.1,1.1-0.5,1.8-0.7c-0.5-1.9-1-3.6-1.6-5.5
		c-2.5,1.4-4.9,2.9-7.3,4.3c-0.6,0.3-1.3,0.7-2,0.8c-3.5,0.4-7.1,1-10.6,1c-3.9,0-7.9-0.9-11.6-2
		C157.8,587.1,154.3,585.8,150.7,584.6z M274.5,47.1c-3.1-0.9-5,0.8-4.5,3.9c0.3,1.7,0.2,3.5,0.5,5.2c0.3,2,0.6,4,1,6.2
		c1.5-0.8,2.6-1.4,3.9-2c-0.2-1.6-0.4-3.1-0.5-4.5s-0.1-2.8-0.1-4.2C274.7,50.1,274.6,48.6,274.5,47.1z M217,60.3
		c-1.2,2.1-1.4,3.2-0.7,5c0.5,1.2,1.1,2.4,1.6,3.7c0.5,1.2,1.3,2.3,1.8,3.5c0.5,1,1.4,1.9,2.2,2.8c0.6,0.7,1.4,1,2.5,0.4
		c-2.2-4.8-4.4-9.7-6.6-14.5C217.6,60.8,217.3,60.6,217,60.3z M267.2,92.8c-1.1,2.6-1,3.4,0.6,3.8c1.7,0.4,3.6,0.8,5.3,0.8
		c1.5,0,3.2-0.2,4.5-1.7C274,94.9,270.4,94.8,267.2,92.8z M230,23.7c0,0.2,0.1,0.4,0.1,0.5c0.7-0.1,1.4-0.3,2.1-0.5
		c0-0.2-0.1-0.4-0.1-0.5C231.4,23.4,230.7,23.5,230,23.7z M285.9,93c-0.1-0.2-0.2-0.3-0.3-0.5c-0.7,0.2-1.4,0.5-2,0.7
		c0,0.2,0.1,0.3,0.1,0.5C284.5,93.5,285.2,93.3,285.9,93z M222.7,25.1c0,0.1,0,0.3,0,0.4c0.6,0,1.3-0.1,1.9-0.1c0-0.1,0-0.2,0-0.3
		C224,25.1,223.3,25.1,222.7,25.1z"/>
	<path class="st0" d="M311.1,136.9c0.1,8.4,1.7,16.2,6.7,22.9c-1.8,3.9-3.6,7.6-5.2,11.4c-0.9,2.2-1.5,4.6-2.3,6.9
		c-0.4,1.1-1.1,2.1-1.4,3.2c-0.7,2.1-1.3,4.1-1.8,6.2c-1.2,5.6-2.7,11.1-3.5,16.7c-1,6.9-1.9,13.8-1.9,20.8c0,4.6-0.5,9.1-0.5,13.7
		c0,4.3-1.6,8.4-1.5,12.6c0.1,3.7-1.4,6.4-4.1,8.6c-0.1,0.1-0.3,0.2-0.3,0.4c-0.7,2.6-3.1,3.4-4.9,4.9c-2.2,1.9-4.4,3.9-6.4,6
		c-1.9,2-3.7,4.1-5.5,6.2c-0.8,0.9-1.6,1.6-2.9,1.9c-2.4,0.6-4.8,1.5-7.2,2.5c-4.8,2-9.9,2.8-15,3.1c-3,0.2-6,0.4-9,0.6
		c-4.9,0.3-9.8,0.6-14.7,0.8c-1.4,0.1-2.8,0-4.2-0.2c-1.3-0.2-2.4-0.6-3.1-2.1c-0.9-2.2-2.8-3.8-4.7-5.2c-1.1-0.8-1.3-1.7-1.2-2.8
		c0.4-4.4,0.9-8.8,1.2-13.2c0.2-2.9,0.1-5.8,0-8.8c-0.2-4.7-0.6-9.3-0.9-14c-0.3-5.5-0.6-10.9-0.9-16.4c-0.2-3.5-0.3-7-0.7-10.4
		c-0.2-1.9-0.9-3.7-1.4-5.5c-0.4-1.3-0.9-2.5-1.5-3.8c-2.6-6-5.2-12-7.8-18.1c-1.3-3-2.8-5.9-3.5-9.1c-0.7-2.9-0.7-6-0.5-8.9
		c0.2-2.8,0.9-5.6,1.4-8.1c-1.3,0.8-2.5,2.8-2.9,4.9c-0.5,2.6-1,5.1-1.5,7.7c-0.1,0.5-0.5,1-0.8,1.3c-5.6,4.9-11.4,9.5-17.5,13.8
		c-5.2,3.7-10.1,7.6-15.2,11.3c-0.6,0.5-1.3,0.9-2,1.3c-8,5.2-14.6,12.1-22,18c-1.5,1.2-3,1.9-4.9,2.1c-6.1,0.4-11.6-1.5-16.4-5.2
		c-5.5-4.3-10.8-9-16.2-13.5c-1.2-1-2.5-1.9-3.8-2.9c-4.8-3.8-9.6-7.5-14.3-11.3c-2.1-1.7-4-3.6-6.1-5.3c-3.1-2.5-6.3-5-9.6-7.4
		c-3.3-2.4-7-3.9-10.9-5.1c-2.9-0.9-5.7-2.2-8.6-3.3c-0.3-0.1-0.6-0.5-1-0.8c0.4-0.3,0.6-0.6,0.9-0.8c2.8-2.1,5-4.8,6.7-7.8
		c1.8-3.1,4.1-6,5.9-9.2c1.4-2.4,2.3-5.1,3.5-7.7c0.5,1.1,1.3,2.3,1.6,3.5c1.1,4.2,4,6.9,7.2,9.4c5.8,4.5,11.7,8.9,17.5,13.4
		c3.8,2.9,7.5,6,11.4,8.9c2.3,1.7,4.7,3.2,7.2,4.5c5.2,2.7,10,6,14.8,9.4c1.2,0.9,2.5,1.6,3.7,2.5c2,1.4,2,1.7,1,3.9
		c-0.1,0.2-0.1,0.4-0.2,0.7c0.7,0.4,1.2,0.2,1.5-0.5c1.8-4.1,5-7.1,7.6-10.5c2.9-3.7,6.3-6.9,8.9-10.8c2.3-3.3,5.1-6.2,7.7-9.3
		c4.4-5.2,8.7-10.5,13.3-15.5c3.9-4.2,7.9-8.4,12.4-12c4.3-3.5,8.9-6.5,13.9-9c5-2.5,9.7-5.3,14.6-7.9c4-2.1,8.4-3.3,13-3.4
		c0.2,0,0.5-0.1,0.7,0c1.1,0.1,2.2-0.9,3.2,0.1c1.4,1.4,3,2.4,3.6,4.6c1.9,7.8,5.5,14.9,10.1,21.3c3.9,5.4,8.5,10.4,12.6,15.7
		c1.6,2.1,3,4.4,4.2,6.8c1.9,3.8,3.6,7.7,5.4,11.6c0.3,0.6,0.7,1.2,1.1,1.7c1.4-0.6,1.4-1.6,1.1-2.8c-1.1-3.9-2.2-7.8-3-11.7
		c-1.2-6.3-2.2-12.7-1.3-19.1c0.3-1.9,1.3-3.7,2.2-5.4c2.2-4.2,5.7-7.6,8.2-11.5c2.8-4.2,5.1-8.8,6.7-13.6c0.8-2.4,2-3.4,4.2-3.9
		c3.2-0.8,6.4-1.5,9.8-1.4c3.6,0.1,7.2-0.6,10.8-1.1c2.6-0.3,5.2-0.9,7.8-0.9c2.9,0,5.6,1.1,8.2,2.6c5.6,3.4,9.7,8.3,13.8,13.2
		c3.2,3.8,5.7,8.2,8,12.6c2.4,4.5,4.9,8.8,7.8,13c2.5,3.7,4.6,7.7,6.9,11.6c0.7,1.2,1.4,2.5,2.3,3.6c3.6,4.8,7,9.8,9.7,15.2
		c1.6,3.1,3.1,6.2,3.5,9.8c0.3,2.9,1.2,5.8,1.3,8.7c0.3,5.5-0.4,10.8-4.9,14.9c-5.6,5.2-11.1,10.6-16.5,16.1
		c-5.1,5.1-9.9,10.4-14.9,15.6c-4.1,4.2-8.1,8.5-12.2,12.6c-2.7,2.8-5.6,5.4-8.2,8.2c-1.5,1.6-3.1,1.6-5,1.3c-3-0.6-6-1.1-9.1-1.7
		c-0.4-0.1-0.8,0-1.2-0.2c-3.4-1.3-3.7-2.3-1.7-4.6c3.1-3.5,6-7.1,8.9-10.8c3.9-4.8,7.4-9.9,10.2-15.4c3.2-6.3,7.2-12.1,11.6-17.6
		c3.5-4.4,7-8.8,11.4-12.4c0.9-0.7,1.8-1.3,2.6-2c1.7-1.3,1.8-2,1-4c-0.7-1.6-1.5-2.9-2.8-4c-0.5-0.5-0.8-1.1-1.2-1.7
		c-2.9-4.7-5.8-9.4-8.8-14.1c-3.1-4.8-6.1-9.6-8.6-14.8c-0.5-1.1-1.1-2.1-1.7-3.1c-3.6-6.2-5.7-13-7.8-19.8c-0.3-1-0.8-1.9-1.2-2.9
		C311.5,137.4,311.2,137.2,311.1,136.9z"/>
	<path class="st1" d="M217.1,281.5c1.9,0.7,3.2,1.6,3.4,3.7c0.1,1.3,1.2,1.9,2.3,2c2.8,0.3,5.6,0.7,8.5,0.7c2.4,0.1,4.8-0.1,7.1-0.4
		c6-0.7,12.2-0.5,18.2-1.6c0.6-0.1,1.2,0.1,1.8,0.3c4.6,0.9,9.3,2,13.9,2.7c1.9,0.3,3.9,0,5.9-0.2c3.8-0.4,7.6-0.7,11.3-1.2
		c4.4-0.6,8.9-1.3,13.2-3.9c0.5,1.7,1,3.1,1.4,4.6c1,3.9,1.8,7.9,2.8,11.8c2.9,10.9,5.8,21.8,8.8,32.8c0.9,3.3,2,6.5,2.7,9.8
		c1.4,6.3,2.5,12.7,3.9,19.1c0.7,3.2,1.6,6.3,2.5,9.4c1.6,5.7,3,11.5,4.7,17.1c1,3.4,2.6,6.6,4,9.9c2.1,5,4.4,10,6.2,15.1
		c1.7,4.7,3.2,9.6,3.5,14.7c0,0.9,0.4,1.7,0.6,2.5c0.1,0.8,0.1,1.7,0.1,2.5c0,0.6-0.1,1.3,0,1.9c0.6,3.3,1.3,6.5,1.7,9.8
		c0.7,5.2,1.3,10.4,1.9,15.5c0.3,2.7,0.7,5.5,0.9,8.2c0.1,1.5,0.2,3,0.2,4.5c0.1,5.3,0.2,10.6,0.3,15.9c0,1.8-0.4,3.6-0.3,5.4
		c0.1,7.3-1.7,14.5-2.4,21.7c-0.6,6.8-0.1,13.4,2,19.9c1.1,3.2,2,6.5,3.2,9.7c0.6,1.8,1.6,3.4,2.6,5.4c-1.9,0-3.6,0.2-5.3-0.1
		c-1.8-0.3-3.4-0.2-5.1,0.1c-1.4,0.2-2.8,0.1-4.3,0c-3.5-0.2-6.7,0.6-10,1.7c-3.3,1.1-6.7,1.7-10.2,2.5c-0.7-1.9-0.3-3.5-0.2-5.1
		c0.4-4.5,0.9-9,1.3-13.5c0.2-2,0.5-4.1,0.6-6.1c0.1-2.4,0.4-4.8,0-7.1c-1.6-9.3-2-18.7-2.5-28.1c-0.4-7.3-0.9-14.7-1.1-22.1
		c-0.1-7.7,0.7-15.3,2.2-22.9c0.2-0.8,0.2-1.5,0.3-2.3c-1.7-0.5-1.4,0.8-1.7,1.8c-1.4-2.6-2.7-4.9-3.8-7.3
		c-2.7-6.1-6.2-11.7-9.6-17.4c-3.9-6.5-7.4-13.3-10.3-20.3c-0.6-1.5-1.5-3-2.2-4.5c-2.8-5.9-5.6-11.9-8.6-17.7
		c-2.3-4.5-5.1-8.8-7.3-13.3c-3.1-6.2-5.9-12.6-9-18.8c-2.7-5.3-5-10.7-7.1-16.3c-0.7-1.8-0.9-3.4-0.1-5.3c0.8-1.7,0.3-3.5,0.3-5.2
		c-1-0.6-1.5-0.2-1.7,0.5c-1.5,5.1-4.4,9.6-6.8,14.3c-1.4,2.7-2.9,5.3-4,8.1c-2.1,5.5-5.9,10.1-8.7,15.1c-2.7,4.7-5.8,9.2-8.5,13.9
		c-2.7,4.7-5,9.7-7.8,14.4c-2.3,4-5,7.9-7.6,11.8c-2.4,3.7-4.9,7.4-7.2,11.1c-1.5,2.4-3,4.8-4.3,7.3c-0.8,1.6-1.4,3.3-2,5
		c-0.6,1.5-1.1,3.1-1.8,4.6c-0.3,0.7-0.6,1.2-0.1,2c1.2,2.1,1.5,4.4,1.4,6.8c-0.2,4.7-0.5,9.5-0.8,14.2c-0.1,1.9-0.4,3.8-0.6,5.7
		c-0.6,4.7-1.1,9.4-1.8,14.1c-0.8,5-1.5,10-2.6,15c-1.2,5.4-2.8,10.7-4.2,16c-1.7,6.7-2.3,13.6-2.4,20.5c0,3-0.1,6,0.6,9
		c0.6,2.7,1.2,5.4,1.9,8s1.4,5.1,2.3,8.2c-1.3-0.8-2.1-1.3-3-1.8c-3.4-1.8-7-2.9-10.8-3.2c-3.2-0.2-6.5-0.7-9.7-0.7
		c-2.6,0-5.1,0.6-7.7,1.1c-3,0.6-6,1.3-9.3,2c0.5-1.1,0.9-2.1,1.4-3c2.1-4,3.6-8.2,4.9-12.6c0.6-2,0.9-4.1,2-5.8
		c1.7-2.8,1.8-5.9,2.4-8.9c0.7-3,0.7-6.1,0.9-9.2c0.1-1.3-0.1-2.7-0.3-4c-0.4-3.3-0.3-6.6,0.1-9.9c0.8-6.4,1.4-12.7,2.1-19.1
		c0.9-9.4,1.9-18.7,2.7-28.1c0.3-3.5,0.4-7,0.5-10.4c0-0.3-0.1-0.8,0.1-0.9c1.4-1.5,0.5-3.1,0.4-4.7c-0.3-3-0.9-5.9-1.1-8.9
		c-0.2-2.8,0.1-5.7,0.9-8.4c0.8-2.8,1.9-5.4,3.5-7.7c1.1-1.7,2.1-3.5,3.1-5.3c0.1-0.2,0.3-0.5,0.2-0.6c-0.7-1.8,0.6-3.3,1-4.9
		c1.2-4,2.4-8,3.6-12c1.2-4.4,2.4-8.8,3.6-13.3c1.9-7.3,3.6-14.7,5.8-22c1.9-6.2,3.7-12.4,6.4-18.4c2.5-5.4,4.8-10.8,7-16.3
		c1.6-4,3.5-7.9,5.7-11.7c1.5-2.6,2.5-5.5,3.5-8.3C214.9,288.5,215.9,285.1,217.1,281.5z"/>
	<path class="st2" d="M212.9,44.8c1.3,0.4,2.7,0.8,4,1.3c2.2,1,4.5,1,6.7,0.2c3.1-1.2,6.2-2.4,9.2-3.7c1.7-0.8,3.2-2,4.9-2.9
		c3.1-1.8,6.3-3.6,9.5-5.3c0.3-0.2,0.7-0.4,1.1-0.5c4.2-0.6,8.4-1.2,12.7-1.7c1.9-0.2,3.9-0.2,5.9-0.4c1.1,2.6,1.3,5.3,1.1,8.1
		c-0.2,2.4-0.7,4.7-0.8,7.1c-0.1,1.5,0,3,0.2,4.5c0.5,3.6,1.2,7.2,1.8,10.8c0.2,1.5,0.7,2.8,1.3,4.1c1.2,2.4,1.3,5.2,1,7.9
		c-0.4,3.8-2,7.1-3,10.7c-1.3,4.3-4.1,7.8-6.3,11.6c-0.5,0.9-1.3,1.3-2.2,1.6c-2.2,0.8-4.5,1-6.8,0.9c-1.3,0-2.5,0-3.8-0.2
		c-1.2-0.2-2.5-0.6-3.5-1.3c-2.8-1.8-5.5-3.8-8.2-5.8c-0.4-0.3-0.7-0.6-1-1c-3-4.3-6.4-8.4-8.8-13.2c-1.9-3.8-4.1-7.4-5.9-11.3
		c-1.7-3.6-3.1-7.3-4.6-10.9c-1.3-3-2.7-5.9-4-8.8c-0.2-0.4-0.4-0.9-0.6-1.3C212.7,45.1,212.8,45,212.9,44.8z M227.2,59.8
		L227.2,59.8c0.6,0.4,1.3,1.2,2,1.3c1.4,0.1,2.8,0,4.2-0.2c1.5-0.3,2.9-1.1,4-2.3c-1.3-1.1-2.1,0.2-3.2,0.1c-0.1-0.5-0.1-1-0.2-1.7
		c1.4-0.2,2.7-0.4,4.3-0.7c-0.6-0.5-0.8-0.8-1-0.9c-3-0.4-5.9-0.9-8.6,1.1c-0.9,0.7-2,1.1-3.1,1.7c-0.4,0.3-0.9,0.6-1.7,1.2
		C225.3,59.5,226.2,59.6,227.2,59.8z M252.9,55.5c1.6,1.6,3.6,1.7,5.2,0.8c1.8-1.1,3.1-2.9,5.1-4.8c-1.8-0.2-3-0.3-4.2-0.5
		c-1.3-0.2-2.5-0.6-4.1-1c0.8-0.6,1.4-1.1,2-1.6c2.3-2.4,4.9-3.1,7.9-1.8c0.9,0.4,1.4-0.2,2.1-0.6c-1.4-1-2.5-1.9-4-1.8
		c-2.5,0.3-5,0.8-6.9,2.7c-0.8,0.8-1.8,1.4-2.7,1.9c-0.6,0.3-1.4,0.4-2.1,0.6c0-0.8,0-1.3,0-2.2c-1.3,1.3-2.1,2.4-2.4,3.8
		c-0.8,4.2-1.4,8.5,0.7,12.5c0.2,0.4,0.2,0.9,0.4,1.4c0.4,1.1,0.9,2.2,1.4,3.3c0.3,0.6,0.7,1,1.4,0.6c-0.9-2.4-1.7-4.7-2.6-7
		c-1-2.5-1.4-5-0.6-7.6c0-0.1,0.2-0.2,0.3-0.4c0.4,0.3,0.8,0.7,1.1,0.9c1.1-0.6,2-1.2,3.2-1.8c0.2,1,0.3,1.8,0.4,2.5
		C253.9,55.4,253.4,55.5,252.9,55.5z M239.9,53.3c-2-1.5-2-1.5-4.2-1.6c-1.3-0.1-2.7-0.3-4-0.3c-2.5-0.2-5.1-0.6-7.5,0.4
		c-1.6,0.7-3,1.8-4.6,2.8c1.2,1.4,2.4,0.6,3.4-0.1c2-1.5,4.2-1.8,6.5-1.4s4.6,1,6.9,1.4C237.7,54.7,239,55.2,239.9,53.3z
		 M254.8,72.9c-0.8-0.2-1.6-0.4-2.6-0.7c-0.6,0.9-1.2,2.2-2.8,1.9c-0.1,0-0.4,0.2-0.5,0.4c-0.9,1.2-1.8,0.6-2.6,0.1
		c-0.5-0.3-0.9-0.8-1.4-1.2c-0.6-0.5-1.3-1.1-2.1-0.5c-0.8,0.6-0.5,1.4,0.1,2.2c0.8-0.1,1.5-0.2,2.1-0.3c1,0.6,2,1.5,2.9,1.5
		c2.6,0.1,4.6-1.7,6.9-2.6C254.8,73.6,254.7,73.2,254.8,72.9z M243.3,84.6c0.1,0.1,0.3,0.2,0.4,0.4c0.6-0.3,1.2-0.8,1.8-1
		c1.1-0.3,2.3-0.9,3.4-0.7c1.4,0.2,2.6,0,3.9-0.4c1.4-0.5,2.8-1,4.4-0.8c0.2,0,0.4-0.3,0.9-0.6c-1.4-0.7-2.5-0.8-3.8-0.3
		c-1.5,0.5-3.1,1.1-4.5,0.8c-2.3-0.4-4,0.5-5.7,1.6C243.7,83.7,243.6,84.2,243.3,84.6z M253.4,85.1c-1.9,0.1-4-0.2-5.6,1
		C249.8,86.3,251.8,87,253.4,85.1z"/>
	<path class="st3" d="M234.4,33.5c1.5,0.3,3,0.6,4.6,0.9c-2.7,3.9-6.7,3.7-11.1,3.6c2.1,0.1,3.7,0.2,5.4,0.2
		c-1.6,1.4-2.8,3.4-4.9,3.8c-2.5,0.4-5.1,0.1-7.6-0.9c-0.9,0-1.8,0-3,0c0.3-0.9,0.5-1.5,0.7-2.1c-0.1,0-0.2-0.1-0.3-0.1
		c-0.3,0.6-0.7,1.2-1,1.8c-1.5-0.7-2.9-1.3-4.4-1.9c-0.1,0.2-0.1,0.3-0.2,0.5c2.2,1.1,4.5,2.2,7,2.4c0.4,0,0.8-0.4,1.2-0.6
		c0.7,1.2,2,1.1,3.1,1.4c0.6,0.1,1.2,0,2.1,0c-1.8,1.2-3.9,1.7-6.1,1.4c-2.7-0.3-5.5-0.6-8.2-1c-0.4-0.1-0.8-0.4-1.2-0.6
		c-0.8-0.3-1.7-0.7-2.5-1c-0.8,1.2-0.1,1.8,0.6,2.1c1.5,0.8,2.2,2.2,2.9,3.6c1,1.8,2,3.6,2.9,5.4c0.5,1.1,1,2.3,1.2,3.6
		c0.1,0.6-0.3,1.3-0.6,1.9c-1.6,2.9-2.3,5.8-0.3,8.9c0.7,1,1.1,2.1,1.6,3.1c0.6,1.1,0.6,2,0.2,3.3c-1.1,3.1-2.6,5.9-4.3,8.6
		c-0.4,0.7-0.9,1.4-1.3,2c-1,0.6-1.8,1.5-2.3,2.5c0.1,0.1,0.2,0.2,0.4,0.3c0.6-0.9,1.2-1.9,1.9-2.8c0.8-0.5,1.6-0.9,1.3-2
		c0.4-0.2,0.9-0.3,1.1-0.7c1.1-1.8,2-3.6,3-5.4c0.4-0.8,0.8-1.7,1.2-2.6c1.4,1.4,2.7,2.5,3.9,3.9c0.4,0.5,0.6,1.5,0.4,2.1
		c-0.5,2.1-1.2,4.1-1.9,6.3c0.3,0.1,0.7,0.3,1.1,0.4c2-2.4,1.5-6.3,4.3-8.3c1.2,1.1,1.3,2.3,1.1,3.7c-0.7,4.4-1.9,8.6-4.1,13
		c3.8-3.1,4.3-7.6,6.5-11.6c0.3,1.1,0.8,1.8,0.8,2.5c-0.2,1.6-0.4,3.3-1,4.8c-1,2.4-2.4,4.6-3.7,7c0.8,1,1.4,0.6,1.8-0.4
		c1.3-2.9,2.7-5.9,4-8.8c0.1-0.1,0.2-0.2,0.5-0.6c0.1,0.7,0.4,1.1,0.3,1.6c-0.3,2.1-0.6,4.2-0.9,6.3c-0.2,1.2-0.4,2.5-0.7,3.7
		c-0.3,0.5-0.7,1.1-1,1.6c-0.6,0.7-1.1,1.5-1.7,2.2l-0.1,0.1c-0.6,0.3-1.3,0.6-2,0.9c-0.3-0.4-0.5-0.8-0.8-1.3
		c-0.2,0.1-0.4,0.2-0.5,0.3c-0.6,0.9-1.2,1.7-1.6,2.6c-0.8,1.6-2,2.4-4,1.8c-0.2-0.6-0.4-1.3-0.6-2.2c-1,0.9-2,1.8-2.8,2.5
		c-1.6-0.6-2.8-1-4.2-1.5c-0.8,1.9-2.4,3.4-4.3,4.5c-0.4,0.2-0.8,0.6-0.9,1c-0.3,1.6-1.5,1.5-3,2c0.6-1,1-1.5,1.4-2.1
		c2.1-3.1,1.8-6.6,1-10c-0.2-0.8-1.4-1.3-2.2-2c-1.1,2.1-2,4.2-3.1,6c-1.2,1.9-3.3,2.6-5.5,3.1c1-1.8,3.4-2.5,3.8-4.7
		c0.4-2,2.5-3.4,2.2-5.8c-1.4,2.4-3.9,3-6.2,3.8c-1.7,0.6-3.5,0.7-5.3,1c-0.1-0.2-0.2-0.3-0.3-0.5c0.9-1.4,2-2.8,2.7-4.3
		c0.7-1.6,1.1-3.2,1.6-4.9c1-3.6,0.9-3.6,0.2-4.6c-0.1,0.1-0.2,0.3-0.2,0.4c0.2,2.6-0.5,3.3-3.8,3.7c-1.5,0.2-3,0.1-4.5,0
		c-0.6-0.1-1.1-0.7-1.6-1.1c0.4-0.5,0.9-0.9,1.4-1.5c0.7,0.7,1.1,1.2,1.6,1.7c0.1,0,0.2-0.1,0.3-0.1c-0.2-0.5-0.5-0.9-0.7-1.5
		c1.3-0.9,2.6-1.8,3.9-2.7c-0.1-0.1-0.1-0.3-0.2-0.4c-1.2,0.6-2.4,1.2-3.8,1.9c0-1.9-1.5-2.3-2.8-3.3c0.6-0.1,1.3-0.1,1.9-0.2
		c2.4-0.1,4.1-1.3,5.4-3.3c1.5-2.2,3.2-4.3,5.1-6.9c-0.1,0.8-0.1,1.2-0.2,1.9c0.4-0.3,0.8-0.5,0.9-0.7c1.9-4.5,4.6-8.7,5.6-13.6
		c1-4.6,2.6-9.1,3.9-13.7c0.9-3.4,1.6-6.8,2.3-10.2c0.8-3.4,2.9-5.9,5.4-8.2c-1,3-4,5.1-3.6,8.8c1.4-0.6,0.7-2.2,1.3-3.1
		c0.7-1,1.3-2,1.9-3c0.5,0.3,0.8,0.4,1.2,0.7c1.9-3.7,4.8-6.3,8.6-7.7c3.2-1.2,6.5-1.2,9.8,0c-0.2,0.3-0.4,0.5-0.7,0.8
		c0.4,0.1,0.9,0.4,1.1,0.3c2.1-1.1,4-0.3,6,0.3l-0.1-0.1c2.7,1.1,5.7,0.4,7.7-1.9l-0.1,0.1c1.9-0.5,3-2,4.1-3.3
		c0.5-0.5,0.8-1.1,1.5-1.6c-0.1,0.4-0.1,0.8-0.2,1.1c-1.6,4.4-4.3,7.8-8.3,10.3c-1.2,0.7-2.3,1.2-3.7,1.1
		C237.5,33.6,235.9,33.6,234.4,33.5c-0.5-0.4-0.9-1-1.7-0.2C233.3,33.4,233.8,33.4,234.4,33.5z M210.1,100.7
		c1.9-1.7,2.4-2.3,2.7-3.6C211.9,98.3,211,99.5,210.1,100.7c-0.7,0.5-1.5,1-2.2,1.5c0.1,0.2,0.2,0.3,0.4,0.5
		C208.8,102,209.5,101.4,210.1,100.7z M219.1,31.2c0.5-0.1,1,0,1.4-0.2c1.5-0.8,3.1-0.9,4.8-0.4c1,0.3,2.2,0.4,3.2,0.5
		c-0.7-0.6-1.5-1-2.3-1.1C223.7,29.9,221.2,29.2,219.1,31.2c-3.1,0.6-4,1.5-4,3.8c0.3-0.2,0.7-0.4,0.7-0.6c0.1-1.5,1.2-2.1,2.4-2.5
		C218.6,31.8,218.8,31.4,219.1,31.2z M205.9,62.7c0.1,0.2,0.2,0.3,0.2,0.3c0.1,0,0.2,0,0.2-0.1c0.4-0.8,1-1.6,1.3-2.5
		c1.1-3.2,2-6.4,3-9.6c-0.3,0-0.6-0.1-0.6,0C207.9,54.6,208.4,59.2,205.9,62.7z M207.9,72.8c2.1-2.8,3.9-7.3,3.7-9.3
		c-0.2,0.1-0.5,0.2-0.5,0.4C210,66.8,209,69.7,207.9,72.8z M205.3,94.6c-0.8,0.2-1.6,0.4-2.4,0.5c-0.8,0.1-1.5,0.2-2.3,0.3
		c0,0.2,0.1,0.3,0.1,0.5C202.4,96.4,203.9,95.8,205.3,94.6z M219.4,35.5c-0.1,0.2-0.2,0.4-0.3,0.6c1.4,0.8,2.6,2,4.7,1.5
		C222.2,36.9,220.8,36.2,219.4,35.5z M203.6,92c0.1,0.1,0.2,0.2,0.3,0.3c0.7-0.8,1.4-1.6,2.2-2.4c-0.1,0-0.1-0.1-0.1-0.1
		C205.1,90.6,204.3,91.3,203.6,92z M198.8,73.4c0.1,0.1,0.3,0.2,0.4,0.3c0.6-0.9,1.2-1.8,1.8-2.7c-0.1-0.1-0.2-0.1-0.3-0.2
		C200,71.7,199.4,72.5,198.8,73.4z M216.7,86.9c-0.1-0.1-0.2-0.2-0.3-0.3c-0.4,0.5-0.9,1-1.3,1.4c0.1,0.1,0.1,0.1,0.2,0.2
		C215.8,87.8,216.3,87.3,216.7,86.9z M216.8,101.4c0.1,0.1,0.1,0.1,0.2,0.2c0.3-0.3,0.5-0.6,0.8-0.9c-0.1-0.1-0.2-0.1-0.3-0.2
		C217.3,100.9,217.1,101.2,216.8,101.4z M206,75.7c0.1,0.1,0.2,0.1,0.3,0.2c0.3-0.5,0.5-0.9,0.8-1.4c-0.1-0.1-0.2-0.1-0.3-0.2
		C206.5,74.7,206.3,75.2,206,75.7z M207.9,93.1c0.1,0.1,0.2,0.3,0.3,0.4c0.6-0.4,1.1-0.8,1.7-1.1c-0.1-0.1-0.1-0.2-0.2-0.3
		C209.1,92.4,208.5,92.8,207.9,93.1z M220.8,97.5c-0.1-0.1-0.2-0.1-0.3-0.2c-0.2,0.3-0.4,0.5-0.6,0.8c0.1,0.1,0.2,0.1,0.2,0.2
		C220.3,98,220.5,97.7,220.8,97.5z M195.9,89.6c0-0.1,0-0.1,0-0.2c-0.3-0.1-0.7-0.1-1-0.2c0,0.2,0,0.3,0,0.5
		C195.2,89.7,195.6,89.6,195.9,89.6z M212.3,90.6c-0.1-0.1-0.2-0.2-0.2-0.3c-0.5,0.4-0.9,0.7-1.4,1.1c0.1,0.1,0.2,0.2,0.2,0.3
		C211.4,91.3,211.8,91,212.3,90.6z"/>
	<path class="st2" d="M7.3,128c2.1-0.4,3.7,0.4,5,1.4c3.6,2.7,7.1,5.5,10.6,8.3c0.9,0.7,1.5,1.4,2.7-0.1c-1.2-0.9-2.4-1.9-3.5-2.7
		c-4.6-3.2-8.8-7-12.3-11.4c-0.5-0.6-0.9-1.3-1.4-1.9c-1.2-1.4-1.6-2.8,0-4.2c0.1-0.1,0-0.4,0.1-0.9c2.8,1.4,5.6,2.7,7.1,5.2
		c2.8,4.6,7.1,7.3,11.3,10.3c1.8,1.3,3.6,2.5,5.4,3.7c0.4,0.3,0.9,0.3,1.3,0.5c1-0.5,0.9-1.2,0.3-1.7c-3.1-2.4-4.6-6.2-7.4-8.9
		c-1.7-1.6-3.2-3.3-4.6-5.1c-1.4-1.8-2.5-3.8-3.7-5.7c-0.2-0.4,0-1-0.1-1.5c0.6,0.1,1.2,0,1.7,0.3c1.2,0.9,2.4,1.8,3.5,2.9
		c3.8,3.8,7.4,7.8,11.3,11.5c2,1.9,4.3,3.4,6.6,5c2.1,1.5,4.4,2.9,6.5,4.3c0.8,0.6,1.7,1.1,2.8,1.9c-0.5,0.8-0.9,1.7-1.5,2.5
		c-0.3,0.4-0.8,0.6-0.9,1.1c-0.1,0.4-0.1,1,0.2,1.2c0.2,0.2,1,0.3,1.2,0.1c0.8-0.7,1.6-1.4,2-2.3c1.8-4,3-8,1.2-12.4
		c-0.7-1.8-1.2-3.8-1.6-5.7c-0.4-1.7,0.2-3,2-3.6c1.4,0.8,1.8,2.2,2.4,3.6c1.6,3.8,3.2,7.5,4.9,11.3c0.2,0.4,0.3,0.7,0.6,1
		c1.8,2.2,1.7,4.7,0.8,7.2c-1.1,3.1-2.7,5.9-4.7,8.5c-0.9,1.2-1.7,2.5-2.4,3.8c-1.7,3.1-3.8,5.8-7,7.5c-1.5,0.8-2.9,1-4.7,0.2
		c-3.6-1.6-7.4-2.6-11.3-3c-2.8-0.2-5.4-0.9-8-2c-3.3-1.4-6.9-2.3-10.3-3.4c-1-0.3-1.9-0.9-3.2-1.5c3-1.8,5.8-2.2,8.6-1.7
		c3.3,0.6,6.6-0.3,9.9-0.1c1.3,0.1,1.5-0.9,1.2-2.1c-0.5-0.2-1.1-0.4-1.7-0.6c-3.1-1.2-5.9-2.7-8.1-5.5c-2.1-2.7-4.7-4.9-6.9-7.5
		c-1.6-1.8-3-3.7-4.4-5.6C8,129.6,7.7,128.9,7.3,128z"/>
	<path class="st4" d="M188.7,549.6c0.4,4.2,0.8,8.5,1.3,12.8c0.3,2.3,0.7,4.5,1.1,6.8c0.5,2.8,0.9,5.6,1.4,8.4
		c0.4,2.5-0.8,4.3-2.8,5.5c-1.1,0.6-2.3,1-3.5,1.5c-4.4,1.6-9,2.4-13.7,2.1c-2.2-0.1-4.4-0.6-6.5-1c-3.2-0.6-6.5-1.2-9.7-2
		c-2.4-0.6-4.4-2-5.5-4.4c-0.5-1.1-0.5-1.9-0.1-2.9c1.4-3.9,3.3-7.6,5.6-10.9c3-4.4,3.8-9.2,3.5-14.4c0-0.5,0-1-0.1-1.4
		c-0.2-1.3,0.4-1.7,1.6-2c4.5-1.1,9-1.3,13.4-0.7C179.3,547.4,184,547.2,188.7,549.6z"/>
	<path class="st4" d="M322.5,587c0.3,0.2,0.5,0.4,0.7,0.6c3.3,3.9,7.7,5.4,12.5,5.9c3,0.3,6,1.1,8.9,0.1c2.4-0.8,4.8-1.6,7.1-2.6
		c0.8-0.3,1.3-1.3,1.8-2c-0.6-0.9-1.2-1.1-1.9-0.6c-2.7,2.1-5.8,3.2-9.2,3.5c-2.1,0.2-4.3-0.2-6.4-0.2c-2.7,0-5.2-0.7-7.5-2
		c-1.6-0.9-3.1-2-4.4-3.2s-1.9-2.8-1.8-4.7c0.1-5.7,0.6-11.3,3-16.7c0.8-1.8,0.8-3.8,1.2-5.8c0.2-1.3,0.3-2.7,0.4-4
		c4.5-1.5,8.9-2.9,13.6-2.3c1.4,0.2,2.8-0.2,4.3-0.3c0.9-0.1,1.9,0,3.1,0c0,1.5-0.1,2.9,0,4.3c0.1,2.1,0.1,4.3,0.7,6.3
		c1.8,5.6,3.9,11,6,16.5c1,2.7,2.1,5.5,2.2,8.5c0.1,1-0.2,1.7-0.9,2.6c-3.2,4.4-8.1,5.8-12.9,7.5c-5.3,1.9-10.3,0.8-15.1-1.5
		C324.4,595.2,321.4,590.8,322.5,587z"/>
	<path class="st2" d="M265.1,98.4c1.2,0.5,2.2,1,3.2,1.4c1.8,0.7,3.2,3.6,2.2,5.6c-1.2,2.4-2.4,4.9-2.8,7.5
		c-0.8,5.6-3.4,10.5-5.8,15.5c-1.2,2.4-2.4,4.8-3.2,7.4c-1.5,4.9-2.7,9.9-2.4,15.1c0,0.4,0,0.8,0,1.6c-0.5-0.5-0.8-0.7-1-1
		c-2.2-4.3-4.3-8.7-6.5-12.9c-1.6-3-3.4-5.9-5.2-8.7c-2.1-3.2-4.4-6.2-6.5-9.4c-1.4-2.3-2-5-2.2-7.6c-0.2-2.3-0.4-4.6-0.5-6.9
		c0-1.6,0.2-3.1,0.5-4.7c0.4-2.5,1-4.9,1.5-7.5c1.6,1.2,3.2,2.6,5,3.8c2.3,1.5,4.6,3.3,7.2,4c4.1,1.2,8.5,1.2,12.6-0.4
		C262.6,100.5,263.7,99.3,265.1,98.4z"/>
	<path class="st3" d="M288,85.5c-4.3,0.7-8.6,0.9-12.6-1.5c-1.1-0.7-2.1-1.7-3-2.7c-0.6-0.7-0.4-1,0.8-2c2,1.3,3.8,3.1,7,2.8
		c-0.6-0.7-0.8-1.1-1.1-1.4c-0.3-0.3-0.7-0.4-1-0.6c-3.8-1.7-5.2-4.7-4.6-8.7c2.4,0.1,1.5,2.9,3.2,4c-0.1-0.6-0.2-1-0.3-1.5
		c0.9,0.4,1.7,0.7,2.5,1.1c-2-2-4.6-3.5-5.9-6.8c1.7,0.9,3,1.5,4.2,2.2c0.1-0.2,0.3-0.3,0.4-0.5c-2.3-1.4-4.4-3-5.3-5.7
		c0.5-0.3,1-0.5,1.5-0.7c1.9-0.7,2.5-1.3,2.5-3.3c-0.1-4-0.2-7.9-0.5-11.9c-0.2-3-1-3.5-4-3.3c-0.2,0-0.5,0-0.9-0.1
		c0-0.9-0.1-1.9-0.1-2.8c0-4-0.1-7.9-0.1-11.9c0-0.6,0.5-1.1,0.9-2.2c1.9,8.6,4.4,16.2,12.1,20.8c-0.1,0.2-0.2,0.3-0.3,0.5
		c-1.1,0-2.1,0-3.2,0c-0.5,0-1,0.3-1.4,0.4c0.2,0.5,0.3,1.3,0.7,1.5c1.9,1.1,3.9,2.1,5.9,3.1c1.5,0.8,3.1,1.4,4.8,2.2
		c-1.6,1.1-3.2,1.2-5,1.2c0.1,1.4,0.5,2.1,1.9,2.5c2.1,0.6,4.1,1.6,6.2,2.4c-1,1.2-2.3,1.6-3.9,1.4c-0.7-0.1-1.4-0.2-1.4,0.6
		c0,0.4,0.6,1.1,1.1,1.3c2.1,0.9,4.3,1.6,6.4,2.5c0.4,0.2,0.8,0.4,1.4,0.7c-1.3,0.6-2.5,1.1-3.7,1.7c-0.4,0.2-0.8,0.5-1.1,0.8
		c-0.8,0.9-0.6,1.6,0.5,1.9c0.9,0.3,1.9,0.3,2.8,0.6c0.8,0.3,1.5,0.8,2.2,1.2c-1.6-0.2-3.1-0.4-4.7-0.6c-0.7,0-1.4,0-2.1,0
		c0,0.1,0,0.2,0,0.3c0.7-0.1,1.4-0.2,2.1-0.3c0.2,0.6,0.6,0.8,1.2,0.7c1.2-0.1,2.3-0.1,3.5-0.1c0.3-0.2,0.5-0.7,0.8-0.7
		c1.6-0.1,3.1,0,4.9,0c-1,2.3-2.1,4.1-4,5.1s-3.8,1.9-5.8,2.5c-1.7,0.5-3.5,0.5-5.3,0.8c0.6,0.8,1.7,0.4,3,0.3
		C290,84.9,288.3,84.2,288,85.5L288,85.5z"/>
	<path class="st2" d="M266.7,286.2c0.4-0.3,0.8-0.7,1.3-0.9c1.7-0.8,3.4-1.7,5.2-2.3c3.1-1.1,5.5-3,7.6-5.5c3-3.4,6-6.7,9.1-10
		c0.7-0.8,1.7-1.5,2.6-2c1.4-0.7,2.6-0.7,4.2,0c2.5,1.2,5.4,1.8,8.1,2.5c1.1,0.3,2.3,0.3,3.5,0.5c1,0.2,1.9,0.5,3.1,0.8
		c-0.3,0.7-0.3,1.1-0.6,1.5c-1.6,2.5-3.3,5-4.9,7.5c-1.9,3-4.8,4.9-8.1,5.9c-3.5,1-7.1,1.4-10.6,2c-4.4,0.7-8.9,1.1-13.4,1
		c-2.3-0.1-4.5-0.3-6.8-0.5C266.8,286.6,266.8,286.4,266.7,286.2z"/>
	<path class="st0" d="M258,157.1c-0.1-0.9-0.3-1.8-0.4-2.7c-0.5-6.2,0-12.4,2-18.3c1-3,2.7-5.9,4.1-8.8c1.7-3.5,3.8-6.9,4.8-10.8
		c0.5-1.9,0.8-3.8,1.3-5.6c0.3-1.3,0.9-2.5,1.5-3.7c1-1.9,0.7-3.8,0.2-5.7c-0.1-0.5-0.3-0.9-0.4-1.4c2.3-0.5,4.6-0.9,7.2-1.5
		c-0.3,1.8-0.6,3.3-0.8,4.8c-0.5,3-0.8,6-1.4,8.9c-0.6,2.5-1.5,5-2.4,7.4c-0.9,2.3-2,4.5-3.2,6.6c-1,1.8-2.3,3.4-3.5,5
		c-2,2.7-4.3,5.1-5.8,8c-2.6,4.9-3.9,10.2-2.7,15.8c0.1,0.5,0.1,0.9,0.2,1.4c0,0.1-0.1,0.3-0.2,0.4
		C258.3,157.1,258.1,157.1,258,157.1z"/>
	<path class="st0" d="M224.6,113.7c0.5-0.4,1-1,1.5-1.1c2.3-0.7,3.9-2,4.3-4.5c0.1-0.5,0.5-0.9,1.1-1.8c0.4,2.7,0.8,4.9,0.9,7.1
		c0.1,1.4,0.4,2.6,0.8,3.8c1.4,4.8,4.2,8.8,6.8,13c1.6,2.6,3.5,5.1,5,7.7c1.8,3.1,3.4,6.3,5.1,9.4c1.1,2,2.1,4.1,3.3,6
		c1.5,2.4,2.5,4.9,3,7.7c-1.6-1.9-3.2-3.8-4.8-5.8c-3.2-3.9-6.5-7.8-9.5-11.8c-1.8-2.4-3.1-5.1-4.6-7.7c-1.2-2.2-2.4-4.4-3.5-6.7
		c-1.6-3.3-2.7-6.7-3-10.4c-0.2-2.1-1.7-3.6-4.1-4c-0.7-0.1-1.4-0.2-2.1-0.2C224.8,114.1,224.7,113.9,224.6,113.7z"/>
	<path class="st4" d="M150.7,584.6c3.6,1.2,7.2,2.5,10.8,3.5c3.8,1.1,7.7,2,11.6,2c3.5,0,7.1-0.6,10.6-1c0.7-0.1,1.3-0.4,2-0.8
		c2.5-1.4,4.9-2.8,7.3-4.3c0.5,1.9,1,3.6,1.6,5.5c-0.6,0.3-1.2,0.6-1.8,0.7c-3.6,0.9-7.2,1.9-10.8,2.6c-4.9,1-9.8,1.9-14.8,1.9
		c-3.8,0-7.4-0.9-10.7-2.7C153.3,590.5,151.8,587.7,150.7,584.6z"/>
	<path class="st3" d="M258.9,27.3c0-0.4,0.1-0.8,0.1-1.2c-2.4-0.4-3,2.2-5.4,2.7c4.7-3.9,6.6-9.2,9.9-13.6c1.2-1.6,2.5-3.3,3.7-5
		c0.3,0.5,0.5,0.8,0.9,1.2c0.7-0.8,1.4-1.6,2.1-2.4c0.1,0,0.2,0.1,0.3,0.1c-0.3,0.9-0.6,1.9-0.9,2.8c0.2,0.1,0.3,0.2,0.5,0.4
		c0.2-0.4,0.5-0.8,0.7-1.2c0.1,0,0.2,0.1,0.3,0.1c-0.3,0.8-0.6,1.5-0.9,2.4c1,0.3,1.4-0.4,1.6-1c0.3-1.2,1.2-2,2.1-2.8
		c1.2-1,2.2-2.3,3.2-3.4c-0.1,2.5-1.6,5.9-3.4,7.5c-0.8,0.7-1.7,1.1-2.8,0.9c-0.2,0-0.5,0.3-0.7,0.5v-0.1c-1.2,0.9-2.1,2.1-2.4,3.6
		c-0.1,0.1-0.1,0.1-0.2,0.2c-0.7,0.5-1.4,1-2,1.6C263.2,23,261.1,25.1,258.9,27.3z M261.8,22.5c1.8-1.8,2.7-4.1,2.7-6.7
		c-0.6,1-0.7,2.2-1.1,3.3C263,20.4,262.4,21.5,261.8,22.5c-0.3,0.5-0.8,1-1.2,1.4c0.1,0.1,0.3,0.2,0.4,0.3
		C261.3,23.7,261.6,23.1,261.8,22.5z"/>
	<path class="st3" d="M270,15.5c0.8,0.1,1.7,0.1,2.9,0.2c0.9-0.9,2-2.1,3-3.3c0.1,0,0.1,0.1,0.2,0.1c-0.2,0.6-0.5,1.2-0.6,1.7
		c1.1-0.1,2.2-0.1,3.4-0.2c0.1,0.2,0.1,0.3,0.2,0.5c-1.1,0.7-2.2,1.5-3.6,2.4c0.8-0.1,1.3-0.2,1.9-0.3c-0.2,1.3-1.3,2.1-1.6,3.3
		c-0.3,1.3-1.4,2.4-2.4,3.5c-0.9,1-2,1.8-3,2.7c-1.1,0.8-2.3,1.6-3.4,2.4c-0.1-0.1-0.2-0.2-0.3-0.4c0.4-0.6,0.8-1.2,1.2-1.8
		c0-0.1-0.1-0.1-0.1-0.2c-1.1,0.8-2.3,1.6-3.4,2.4c-0.1-0.1-0.2-0.2-0.3-0.2c0.2-0.3,0.3-0.7,0.5-1c1.3-1.8,2.7-3.5,3.9-5.3
		c0.6-1,0.8-2.2,1.1-3.3l-0.1,0.1C269.7,17.8,269.8,16.6,270,15.5L270,15.5z M273.6,16.8c-0.2-0.1-0.3-0.2-0.5-0.2
		c-0.5,1.5-1,3-1.7,4.3c-0.8,1.5-1.8,2.8-2.8,4.2C271.4,22.9,273.1,20.1,273.6,16.8z"/>
	<path class="st2" d="M274.5,47.1c0.1,1.5,0.2,3,0.2,4.5c0.1,1.4,0,2.8,0.1,4.2c0.1,1.5,0.3,3,0.5,4.5c-1.3,0.7-2.4,1.3-3.9,2
		c-0.4-2.2-0.7-4.2-1-6.2c-0.2-1.7-0.2-3.5-0.5-5.2C269.5,48,271.4,46.3,274.5,47.1z"/>
	<path class="st3" d="M294.1,86.3c-0.4,1.4-1.6,1.8-2.9,1.9c-1.6,0.1-3.3,0-5.2,0c1.7,0.3,3.1,0.5,5.1,0.8c-3.6,1.5-7,0.9-10.3,1.6
		c-0.2-1.7-1.4-1.3-2.3-1.2c-2,0.3-3.9,0-5.7-1c-1-0.6-2-1.2-3-1.9c0.4-0.9,0.7-1.8,1.1-2.9c2.3,2,4.6,3.9,8,3.8
		c-0.3-0.5-0.5-0.7-1-1.5C283.6,87.3,288.9,87.5,294.1,86.3L294.1,86.3z"/>
	<path class="st3" d="M254.2,22.1c-0.5,0.3-0.9,0.5-1.8,1c0.3-0.9,0.4-1.4,0.6-1.9c0.3-1,0.8-2,0.8-2.9c-0.1-2.4,1-4.1,2.7-5.5
		c0.5-0.4,1.1-0.9,1.8-1.5c-0.4,1.4-0.5,2.6,1.1,3.2c0.6-2.7,3.4-3.5,4.6-5.7c-0.1,3.2-1.6,5.6-3.7,7.7c-1.5,1.4-2.9,2.9-4.3,4.4
		C255.5,21.3,254.8,21.7,254.2,22.1z"/>
	<path class="st2" d="M217,60.3c0.3,0.3,0.6,0.5,0.8,0.8c2.2,4.8,4.4,9.7,6.6,14.5c-1.1,0.6-1.8,0.3-2.5-0.4
		c-0.8-0.9-1.7-1.7-2.2-2.8c-0.6-1.2-1.3-2.3-1.8-3.5c-0.6-1.2-1.1-2.4-1.6-3.7C215.6,63.5,215.8,62.4,217,60.3z"/>
	<path class="st3" d="M238.1,27.9c-0.6-0.4-1.1-0.7-1.7-1.2c1.2-0.7,2.4-1.5,3.6-2.2l-0.1,0.1c2.2-0.9,3.6-2.7,4.9-4.6
		c0.9-1.3,1.7-2.8,2.6-4.3c1.4,1.6,0.7,3.4,0.7,5.1c0,0.1-0.1,0.2-0.2,0.3c-0.4,0.3-0.8,0.4-1.1,0.8c-1.1,1.4-2.1,2.9-3.2,4.5
		c0.3,0,0.6-0.1,0.9-0.1C242.6,27.9,240.3,27.9,238.1,27.9L238.1,27.9z"/>
	<path class="st3" d="M240,24.6c-1,0.3-2,0.4-2.9,0.8c-1.8,0.7-3.7,0.8-5.6,0.4c-1-0.2-2-0.3-3-0.6c2.8-0.5,5.5-1.1,8.3-1.6
		c0.8-0.1,1.1-0.4,0.9-1.3c-1-0.1-2-0.2-3.2-0.3c1.6-2.3,3.1-4.5,4.7-6.7c0.9,1.1,0.6,2.4,0.6,3.6c0,1.2-0.1,2.3-0.2,3.6
		c1.6,0.1,2.3-1.2,3.7-1.5C242.1,22.1,241,23.4,240,24.6C239.9,24.7,240,24.6,240,24.6z"/>
	<path class="st3" d="M267.4,19.3c0.1-0.1,0.1-0.1,0.2-0.2c0.6,0,1.1-1.9,1.9-0.2l0.1-0.1c-1.7,4.2-5.2,7-8.6,9.6
		c-1.2,0.9-2.4,1.7-4.2,1.6c0.7-0.9,1.3-1.6,1.9-2.3c0.4-0.2,0.9-0.2,1.2-0.5C262.3,24.6,264.9,21.9,267.4,19.3z"/>
	<path class="st3" d="M228.9,100.7c0.3-0.5,0.7-1.1,1-1.6c1.3-2.2,2.6-4.4,4.1-6.7c0.5,1.2,0.6,2.4,0.3,3.5c-1,3.3-2.5,6.4-4.9,8.9
		c-0.7-0.7-0.2-2.3-1.7-2.2h0.1C228.1,102,228.5,101.3,228.9,100.7z"/>
	<path class="st3" d="M267.2,92.8c3.2,2,6.8,2.1,10.5,2.9c-1.4,1.4-3,1.7-4.5,1.7c-1.8,0-3.6-0.3-5.3-0.8
		C266.2,96.1,266.1,95.4,267.2,92.8z"/>
	<path class="st3" d="M254.2,22.1c0.6-0.4,1.2-0.8,1.9-1.2c1-0.7,2-1.5,3.3-2.4c-0.3,1-0.4,1.6-0.6,2.3c-0.4,0.2-0.8,0.4-1.1,0.6
		c-0.6,0.7-1.1,1.5-1.7,2.2v-0.1c-2.1,2.7-4.5,5.1-7.6,6.9c0.9-1.7,1.8-3.5,2.8-5.2c0.3-0.5,0.8-0.8,1.2-1.1
		C252.9,23.4,253.6,22.8,254.2,22.1z"/>
	<path class="st3" d="M247.9,21.2c0.1-0.1,0.1-0.2,0.2-0.3c1.5-1.6,1.2-3.5,0.5-5.3c-0.5-1.5-0.6-1.4,0.3-3.1
		c0.5,0.2,1.1,0.3,1.9,0.6c-0.1,0.8-0.1,1.8-0.2,2.7s-0.2,1.8-0.3,2.7c0.2,0,0.3,0.1,0.5,0.1c0.3-0.8,0.5-1.6,0.8-2.5
		c0.4,0.1,0.8,0.1,1.3,0.2c-0.1,0.3-0.1,0.5-0.2,0.7c-1.9,3-3.6,6.1-6.4,8.3c-0.2,0.2-0.3,0.5-0.5,0.7l0.1-0.1
		c-0.4,0.1-0.8,0.3-1.2,0.4C245.7,24.6,246.8,22.9,247.9,21.2z"/>
	<path class="st3" d="M275.2,93.1c1.4,0.2,2.7,0.6,4.1,0.6c1.1,0.1,2.1,0.2,3.4,1c-6.1,1.3-10.5-0.7-14-5.3c0.1-0.4,0.3-0.9,0.5-1.4
		c0.3,0,0.6,0,0.7,0.1c0.5,0.5,1.2,1.1,1.4,1.7c0.3,1.2,1.1,1.8,2.1,2.3C274.1,92.4,274.6,92.7,275.2,93.1z"/>
	<path class="st3" d="M275.2,93.1c-0.6-0.3-1.1-0.7-1.7-1c-0.5-0.7-1-1.3-1.4-2c2.1,0.5,4.1,0.7,6.1,0.7c1.9-0.1,3.7,0.6,5.6,0.9
		c0,0.2,0,0.3,0,0.5c-0.9,0-1.7,0.2-2.6,0.1c-0.9,0-1.7-0.2-2.5-0.4c-0.8-0.2-1.7-0.5-2.5-0.8c-0.1,0.2-0.1,0.3-0.2,0.5
		c0.6,0.4,1.2,0.8,2.2,1.6C276.9,93.1,276,93.1,275.2,93.1z"/>
	<path class="st3" d="M227.1,102.9L227.1,102.9c0.2-0.1,0.4-0.2,0.6-0.3h-0.1c0.2,1.9-0.8,3.3-2,4.6c-1.1,1.2-2.5,0.3-4.2,0.8
		C223.2,105.5,225.6,104.7,227.1,102.9z"/>
	<path d="M267.4,19.3c-2.5,2.6-5.1,5.3-7.6,7.9c-0.3,0.3-0.8,0.4-1.2,0.5c0.1-0.1,0.2-0.3,0.3-0.4c2.2-2.1,4.4-4.3,6.6-6.4
		C266,20.3,266.7,19.8,267.4,19.3z"/>
	<path class="st3" d="M287.9,85.6c2-0.4,4-0.8,5.9-1.3c0.8-0.2,1.2-0.1,1.3,0.9c-2.1,0.9-4.4,1-6.6,0.8
		C288.3,86,288.2,85.7,287.9,85.6C288,85.5,287.9,85.6,287.9,85.6z"/>
	<path class="st3" d="M257.6,21.4c0.4-0.2,0.8-0.4,1.1-0.6c-0.5,2.2-1.7,3.8-3.7,5.1c0.3-0.8,0.6-1.5,0.9-2.3v0.1
		C257.1,23.4,257.5,22.5,257.6,21.4z"/>
	<path class="st3" d="M230,23.7c0.7-0.1,1.4-0.3,2.1-0.4c0,0.2,0.1,0.4,0.1,0.5c-0.7,0.1-1.4,0.3-2.1,0.5
		C230.1,24,230,23.9,230,23.7z"/>
	<path class="st3" d="M294.2,86.3c1-0.4,2.1-0.7,3.1-1.1c0.1,0.2,0.1,0.4,0.2,0.6C296.3,86,295.2,86.1,294.2,86.3
		C294.1,86.3,294.2,86.3,294.2,86.3z"/>
	<path class="st5" d="M285.9,93c-0.7,0.2-1.4,0.4-2.2,0.7c0-0.2-0.1-0.3-0.1-0.5c0.7-0.2,1.4-0.5,2-0.7
		C285.8,92.7,285.8,92.9,285.9,93z"/>
	<path class="st3" d="M222.7,25.1c0.6,0,1.3,0,1.9,0c0,0.1,0,0.2,0,0.3c-0.6,0-1.3,0.1-1.9,0.1C222.7,25.4,222.7,25.2,222.7,25.1z"
		/>
	<path d="M252.9,55.5c0.5,0,1.1-0.1,1.7-0.1c-0.1-0.7-0.2-1.5-0.4-2.5c-1.1,0.7-2.1,1.2-3.2,1.8c-0.3-0.3-0.7-0.6-1.1-0.9
		c-0.2,0.2-0.3,0.3-0.3,0.4c-0.8,2.6-0.4,5.1,0.6,7.6c0.9,2.3,1.7,4.6,2.6,7c-0.6,0.4-1.1,0-1.4-0.6c-0.5-1.1-0.9-2.2-1.4-3.3
		c-0.2-0.4-0.2-1-0.4-1.4c-2.1-4.1-1.5-8.3-0.7-12.5c0.3-1.5,1.1-2.6,2.4-3.8c0,0.9,0,1.4,0,2.2c0.7-0.2,1.4-0.2,2.1-0.6
		c1-0.5,1.9-1.1,2.7-1.9c1.9-1.9,4.4-2.5,6.9-2.7c1.5-0.2,2.7,0.8,4,1.8c-0.8,0.5-1.3,1-2.1,0.6c-3.1-1.3-5.7-0.6-7.9,1.8
		c-0.5,0.5-1.2,1-2,1.6c1.6,0.4,2.8,0.8,4.1,1c1.2,0.2,2.4,0.3,4.2,0.5c-2,1.9-3.3,3.7-5.1,4.8C256.5,57.2,254.5,57,252.9,55.5z
		 M258.8,54.1c0.5-0.4,1-0.8,1.4-1.1c-0.1-0.1-0.1-0.2-0.2-0.4c-0.5,0-1.1,0.1-1.7,0.1C258.4,53.3,258.6,53.6,258.8,54.1z"/>
	<path d="M227.2,59.8c-0.9-0.2-1.8-0.3-3.2-0.5c0.8-0.6,1.2-0.9,1.7-1.2c1-0.6,2.1-1,3.1-1.7c2.7-1.9,5.7-1.5,8.6-1.1
		c0.2,0,0.4,0.4,1,0.9c-1.7,0.3-3,0.5-4.3,0.7c0.1,0.7,0.1,1.2,0.2,1.7c1.1,0.1,1.9-1.1,3.2-0.1c-1.1,1.3-2.5,2-4,2.3
		c-1.4,0.3-2.8,0.4-4.2,0.2C228.4,61,227.8,60.2,227.2,59.8c0.8,0,1.7,0,2.5,0C228.6,58.3,227.9,59.3,227.2,59.8z"/>
	<path d="M239.9,53.3c-0.8,1.9-2.2,1.4-3.5,1.1c-2.3-0.5-4.6-1.1-6.9-1.4c-2.3-0.4-4.5,0-6.5,1.4c-1,0.7-2.1,1.5-3.4,0.1
		c1.6-1,3-2.1,4.6-2.8c2.4-1,5-0.6,7.5-0.4c1.3,0.1,2.7,0.3,4,0.3C237.8,51.9,237.8,51.8,239.9,53.3z"/>
	<path d="M254.8,72.9c0,0.3,0,0.7-0.1,0.8c-2.3,0.8-4.3,2.7-6.9,2.6c-1,0-1.9-1-2.9-1.5c-0.6,0.1-1.3,0.2-2.1,0.3
		c-0.6-0.8-0.8-1.6-0.1-2.2c0.8-0.6,1.5-0.1,2.1,0.5c0.5,0.4,0.9,0.9,1.4,1.2c0.9,0.5,1.8,1.2,2.6-0.1c0.1-0.2,0.4-0.4,0.5-0.4
		c1.6,0.3,2.2-0.9,2.8-1.9C253.1,72.5,253.9,72.7,254.8,72.9z"/>
	<path d="M243.3,84.6c0.2-0.4,0.4-0.9,0.7-1.1c1.7-1,3.4-2,5.7-1.6c1.4,0.3,3.1-0.3,4.5-0.8c1.3-0.5,2.4-0.3,3.8,0.3
		c-0.4,0.3-0.7,0.7-0.9,0.6c-1.6-0.2-3,0.3-4.4,0.8c-1.3,0.5-2.5,0.7-3.9,0.4c-1.1-0.2-2.3,0.3-3.4,0.7c-0.7,0.2-1.2,0.7-1.8,1
		C243.6,84.8,243.5,84.7,243.3,84.6z"/>
	<path d="M253.4,85.1c-1.6,1.9-3.7,1.2-5.6,1C249.5,84.9,251.5,85.3,253.4,85.1z"/>
	<path d="M205.9,62.7c2.5-3.5,2-8.1,4.2-11.8c0-0.1,0.3,0,0.6,0c-1,3.2-2,6.4-3,9.6c-0.3,0.9-0.9,1.7-1.3,2.5c0,0-0.1,0.1-0.2,0.1
		C206,63,206,62.9,205.9,62.7z"/>
	<path d="M207.9,72.8c1.1-3.1,2.1-6,3.1-8.9c0.1-0.2,0.3-0.3,0.5-0.4C211.8,65.5,210.1,70,207.9,72.8z"/>
	<path d="M220.8,41.2c-0.4,0.2-0.8,0.6-1.2,0.6c-2.6-0.2-4.8-1.3-7-2.4c0.1-0.2,0.1-0.3,0.2-0.5c1.4,0.6,2.9,1.3,4.4,1.9
		c0.4-0.6,0.7-1.2,1-1.8c0.1,0,0.2,0.1,0.3,0.1c-0.2,0.6-0.4,1.2-0.7,2.1C219,41.2,219.9,41.2,220.8,41.2L220.8,41.2z"/>
	<path d="M219.1,31.2c2.1-2,4.6-1.4,7.1-1.2c0.8,0,1.6,0.5,2.3,1.1c-1.1-0.2-2.2-0.2-3.2-0.5c-1.7-0.5-3.2-0.3-4.8,0.4
		C220,31.2,219.5,31.1,219.1,31.2L219.1,31.2z"/>
	<path d="M219.1,31.2c-0.3,0.2-0.5,0.6-0.8,0.7c-1.2,0.4-2.3,1-2.4,2.5c0,0.2-0.4,0.4-0.7,0.6C215.1,32.7,216,31.8,219.1,31.2
		L219.1,31.2z"/>
	<path d="M244.5,26.3c0.4-0.1,0.8-0.3,1.2-0.4c-2,2.3-5,3-7.7,1.9C240.3,27.9,242.6,27.9,244.5,26.3L244.5,26.3z"/>
	<path d="M205.3,94.6c-1.4,1.2-2.9,1.8-4.7,1.3c0-0.2-0.1-0.3-0.1-0.5c0.8-0.1,1.6-0.2,2.3-0.3C203.7,95,204.5,94.8,205.3,94.6z"/>
	<path d="M219.4,35.5c1.4,0.7,2.8,1.4,4.3,2.1c-2,0.5-3.2-0.8-4.7-1.5C219.2,35.9,219.3,35.7,219.4,35.5z"/>
	<path d="M210.1,100.8c0.9-1.2,1.8-2.5,2.6-3.7C212.5,98.4,212,99,210.1,100.8L210.1,100.8z"/>
	<path d="M203.6,92c0.8-0.7,1.5-1.5,2.3-2.2c0.1,0,0.1,0.1,0.1,0.1c-0.7,0.8-1.4,1.6-2.2,2.4C203.8,92.2,203.7,92.1,203.6,92z"/>
	<path d="M198.8,73.4c0.6-0.8,1.3-1.7,1.9-2.5c0.1,0.1,0.2,0.1,0.3,0.2c-0.6,0.9-1.2,1.8-1.8,2.7C199,73.6,198.9,73.5,198.8,73.4z"
		/>
	<path d="M211,84c-0.6,0.9-1.2,1.9-1.9,2.8c-0.1-0.1-0.2-0.2-0.4-0.3C209.3,85.6,210,84.7,211,84C211,84.1,211,84,211,84z"/>
	<path d="M210.1,100.7c-0.6,0.7-1.2,1.3-1.9,2c-0.1-0.2-0.2-0.3-0.4-0.5C208.6,101.7,209.4,101.3,210.1,100.7
		C210.1,100.8,210.1,100.7,210.1,100.7z"/>
	<path d="M216.7,86.9c-0.5,0.4-1,0.9-1.5,1.3c-0.1-0.1-0.1-0.1-0.2-0.2c0.4-0.5,0.9-1,1.3-1.4C216.5,86.7,216.6,86.8,216.7,86.9z"/>
	<path d="M216.8,101.4c0.2-0.3,0.5-0.6,0.7-0.8c0.1,0.1,0.2,0.1,0.3,0.2c-0.3,0.3-0.5,0.6-0.8,0.9
		C217,101.6,216.9,101.5,216.8,101.4z"/>
	<path d="M206,75.7c0.3-0.5,0.5-1,0.8-1.4c0.1,0.1,0.2,0.1,0.3,0.2c-0.3,0.5-0.5,0.9-0.8,1.4C206.2,75.8,206.1,75.7,206,75.7z"/>
	<path d="M207.9,93.1c0.6-0.4,1.2-0.7,1.8-1.1c0.1,0.1,0.1,0.2,0.2,0.3c-0.6,0.4-1.1,0.8-1.7,1.1C208.1,93.4,208,93.3,207.9,93.1z"
		/>
	<path d="M234.4,33.5c-0.6-0.1-1.1-0.1-1.7-0.2C233.5,32.5,233.9,33.1,234.4,33.5C234.4,33.6,234.4,33.5,234.4,33.5z"/>
	<path d="M212.3,82c0.3,1.1-0.6,1.6-1.3,2h0.1C211.4,83.4,211.9,82.7,212.3,82C212.3,82.1,212.3,82,212.3,82z"/>
	<path d="M227.7,102.6c-0.2,0.1-0.4,0.2-0.5,0.2c0.6-0.7,1.1-1.5,1.7-2.2C228.5,101.3,228.1,102,227.7,102.6z"/>
	<path d="M220.8,97.5c-0.2,0.3-0.4,0.5-0.6,0.8c-0.1-0.1-0.2-0.1-0.2-0.2c0.2-0.3,0.4-0.5,0.6-0.8C220.6,97.4,220.7,97.4,220.8,97.5
		z"/>
	<path d="M195.9,89.6c-0.3,0-0.7,0-1,0.1c0-0.2,0-0.3,0-0.5c0.3,0.1,0.7,0.1,1,0.2C195.9,89.5,195.9,89.6,195.9,89.6z"/>
	<path d="M212.3,90.6c-0.5,0.4-0.9,0.7-1.4,1.1c-0.1-0.1-0.2-0.2-0.2-0.3c0.5-0.4,0.9-0.7,1.4-1.1C212.2,90.4,212.2,90.5,212.3,90.6
		z"/>
	<path d="M292.8,75.2c1.6,0.2,3.1,0.4,4.7,0.6l0,0c-1.1,0.1-2.3,0.1-3.5,0.1C293.4,75.9,292.9,75.8,292.8,75.2L292.8,75.2z"/>
	<path d="M292.8,75.1c-0.7,0.1-1.4,0.2-2.1,0.3c0-0.1,0-0.2,0-0.3C291.4,75.2,292,75.2,292.8,75.1C292.8,75.2,292.8,75.1,292.8,75.1
		z"/>
	<path d="M261.9,22.6c0.5-1.1,1.1-2.2,1.5-3.4c0.4-1.1,0.6-2.3,1.1-3.3C264.5,18.4,263.7,20.7,261.9,22.6L261.9,22.6z"/>
	<path d="M269.5,18.9c-0.8-1.7-1.3,0.2-1.9,0.2c0.3-1.5,1.2-2.7,2.4-3.6C269.8,16.6,269.7,17.8,269.5,18.9z"/>
	<path d="M261.8,22.5c-0.2,0.6-0.5,1.1-0.7,1.7c-0.1-0.1-0.3-0.2-0.4-0.3C261.1,23.5,261.5,23.1,261.8,22.5
		C261.9,22.6,261.8,22.5,261.8,22.5z"/>
	<path d="M273.6,16.8c-0.6,3.4-2.2,6.1-4.9,8.3c0.9-1.4,2-2.7,2.8-4.2c0.7-1.4,1.1-2.9,1.7-4.3C273.3,16.6,273.5,16.7,273.6,16.8z"
		/>
	<path d="M244.5,26.3L244.5,26.3c-0.3,0-0.6,0.1-1,0.1c1.1-1.5,2.1-3,3.2-4.5c0.3-0.3,0.7-0.5,1.1-0.8
		C246.8,22.9,245.7,24.6,244.5,26.3z"/>
	<path d="M257.6,21.4c-0.1,1.1-0.5,2-1.7,2.2C256.5,22.9,257.1,22.2,257.6,21.4z"/>
	<path class="st5" d="M258.8,54.1c-0.2-0.5-0.3-0.9-0.5-1.4c0.6,0,1.2-0.1,1.7-0.1c0.1,0.1,0.1,0.2,0.2,0.4
		C259.7,53.4,259.3,53.7,258.8,54.1z"/>
	<path class="st5" d="M227.2,59.8c0.8-0.5,1.5-1.4,2.5,0C228.8,59.7,228,59.7,227.2,59.8L227.2,59.8z"/>
</g>
</svg>
