<?xml version="1.0" encoding="utf-8"?>
<!-- Generator: Adobe Illustrator 16.0.4, SVG Export Plug-In . SVG Version: 6.00 Build 0)  -->
<!DOCTYPE svg PUBLIC "-//W3C//DTD SVG 1.1//EN" "http://www.w3.org/Graphics/SVG/1.1/DTD/svg11.dtd">
<svg version="1.1" id="Layer_1" xmlns="http://www.w3.org/2000/svg" xmlns:xlink="http://www.w3.org/1999/xlink" x="0px" y="0px"
	 width="271.369px" height="629.579px" viewBox="0 0 271.369 629.579" enable-background="new 0 0 271.369 629.579"
	 xml:space="preserve">
<g>
	<path d="M60.103,561.314c-1.003,2.586-0.863,5.164-0.333,7.631c0.801,3.74,1.832,7.439,2.964,11.097
		c1.808,5.836,1.051,11.567-0.719,17.174c-1.094,3.467-3.903,5.803-6.88,7.727c-1.797,1.16-3.849,1.922-5.758,2.916
		c-2.927,1.523-6.006,1.353-9.113,0.89c-4.435-0.658-8.474-2.183-11.51-5.652c-1.665-1.902-2.732-4.057-3.521-6.561
		c-1.55-4.921-0.975-9.789-0.679-14.712c0.13-2.168,1.301-3.893,2.392-5.663c1.337-2.173,2.624-4.375,3.891-6.589
		c2.115-3.69,2.829-7.754,3.102-12.205c-0.725-0.372-1.597-0.737-2.377-1.245c-0.926-0.603-1.869-1.232-2.635-2.017
		c-1.408-1.44-1.256-1.875,0.068-3.528c3.581-4.474,7.142-8.951,9.212-14.416c1.524-4.021,3.386-7.916,4.851-11.959
		c0.948-2.613,1.601-5.361,2.107-8.103c0.387-2.096,0.45-4.271,0.462-6.412c0.032-5.553,1.38-10.926,2.071-16.387
		c0.963-7.601,2.935-15.041,3.338-22.736c0.135-2.584,0.961-5.174,1.759-7.668c2.023-6.321,3.523-12.746,4.546-19.309
		c0.428-2.744,1.453-5.39,2.116-8.103c1.078-4.414,2.023-8.858,3.146-13.26c0.451-1.766,1.289-3.432,1.824-5.182
		c0.294-0.961,0.505-2.017,0.443-3.01c-0.273-4.335,0.299-8.604,0.725-12.896c0.797-8.049,2.757-15.885,4.106-23.831
		c0.633-3.728,2.177-7.152,3.224-10.739c1.319-4.522,2.929-8.979,3.214-13.739c0.335-5.587,0.637-11.149-0.528-16.722
		c-0.796-3.811-1.074-7.728-1.623-11.592c-0.482-3.386-1.2-6.748-1.494-10.148c-0.574-6.63-0.044-13.218,1.141-19.771
		c1.495-8.267,4.591-15.921,8.579-23.262c1.103-2.03,2.126-4.103,3.165-6.166c0.176-0.349,0.328-0.743,0.357-1.127
		c0.371-4.849,0.686-9.703,1.08-14.55c0.286-3.522,0.1-7.002-0.337-10.512c-0.63-5.062-0.855-10.173-1.496-15.232
		c-0.48-3.793-1.184-7.575-2.069-11.294c-1.438-6.044-2.932-12.085-4.727-18.03c-1.565-5.186-3.379-10.311-6.331-14.95
		c-1.324-2.082-2.347-4.353-3.552-6.514c-0.501-0.899-1.119-1.733-1.882-2.899c-1.01,1.657-1.945,3.085-2.777,4.572
		c-4.556,8.147-9.515,16.041-14.989,23.599c-1.447,1.998-3.152,3.833-4.9,5.58c-1.565,1.563-2.295,3.42-2.543,5.516
		c-0.14,1.185-0.256,2.414-0.096,3.585c0.56,4.091,1.253,8.163,1.875,12.246c0.191,1.25,0.309,2.512,0.473,3.767
		c0.072,0.555,0.045,1.169,0.282,1.648c1.479,2.985,0.977,6.25,1.381,9.381c0.394,3.059,0.689,6.131,1.006,9.199
		c0.336,3.246,0.601,6.5,0.98,9.74c0.426,3.641,0.845,7.288,1.456,10.9c0.454,2.687,2.191,4.753,3.96,6.716
		c1.911,2.121,3.912,4.162,5.977,6.347c-0.863,2.27-3.086,3.093-5.267,4.272c0.223,0.885,0.34,1.838,0.697,2.689
		c2.087,4.974,3.186,10.193,3.899,15.504c0.454,3.378-0.042,6.745-0.828,9.99c-0.567,2.341-1.958,4.405-4.705,4.869
		c-2.084-1.056-2.285-3.111-2.229-4.943c0.134-4.486-1.367-8.658-2.177-12.954c-0.307-1.629-1.399-3.11-2.328-5.072
		c-0.302,0.705-0.465,0.896-0.442,1.062c0.585,4.203-0.784,7.959-2.324,11.786c-1.631,4.053-2.01,8.315-0.764,12.653
		c0.654,2.277,1.1,4.636,1.396,6.988c0.197,1.566-0.068,1.802-1.152,3.494c-2.325-0.076-2.7-0.312-4.626-2.984
		c-0.879,2.983-1.031,5.682,0.468,8.518c1.138,2.153,1.804,4.585,2.46,6.953c0.617,2.229-0.058,3.469-2.124,4.511
		c-0.654-0.582-1.35-1.201-2.043-1.817c-1.982,2.106-3.737,1.92-5.054-0.572c-1.225-2.317-2.391-4.671-3.49-7.051
		c-2.113-4.58-2.355-9.408-1.571-14.298c0.568-3.542,1.34-7.05,2.01-10.576c0.207-1.09,0.539-2.188,0.533-3.282
		c-0.023-4.489,1.005-8.844,1.535-13.261c0.027-0.225-0.077-0.465-0.142-0.816c-0.458-0.184-0.991-0.331-1.456-0.596
		c-1.924-1.095-2.739-3.515-1.485-5.308c2.794-3.996,2.834-8.334,1.951-12.821c-0.753-3.823-1.53-7.647-2.479-11.424
		c-1.63-6.486-3.416-12.932-5.105-19.404c-0.502-1.923-0.991-3.858-1.326-5.816c-0.635-3.717-1.871-7.226-3.234-10.728
		c-0.89-2.286-1.286-4.761-1.955-7.138c-1.878-6.669-2.573-13.454-2.087-20.363c0.302-4.303,1.903-8.176,3.858-11.95
		c3.361-6.489,6.62-13.032,10.035-19.493c1.898-3.591,3.398-7.333,4.922-11.084c0.892-2.197,2.241-4.212,3.419-6.288
		c1.179-2.077,2.458-4.098,3.592-6.197c2.611-4.832,5.05-9.759,7.773-14.526c2.126-3.722,4.312-7.467,6.965-10.811
		c1.897-2.391,4.525-4.245,6.98-6.14c3.057-2.36,6.255-4.541,9.425-6.751c3.397-2.37,6.791-4.741,9.59-7.833
		c1.208-1.334,2.343-2.732,3.822-4.465c-2.217-0.279-3.926-0.503-5.637-0.705c-0.843-0.099-1.573-0.139-2.36-0.79
		c-1.067-0.884-2.36-0.183-3.498,0.396c-0.983,0.5-1.97,1.015-3.002,1.392c-2.219,0.811-4.375,0.807-6.31-0.796
		c-0.292-1.304,0.489-1.755,1.532-2.271c3.257-1.611,4.276-3.379,4.335-7.416c-0.874,0.838-1.569,1.495-2.254,2.164
		c-2.568,2.505-6.989,3.017-9.916,1.095c-0.348-0.229-0.521-0.723-0.949-1.348c2.171-1.119,4.189-2.158,6.411-3.303
		c-1.132-0.936-2.226-0.794-3.28-0.71c-2.223,0.178-4.272-0.122-6.099-1.586c-0.565-0.454-1.453-0.504-2.293-0.771
		c-0.101-0.67-0.215-1.429-0.333-2.218c0.608-0.799,1.357-0.458,2.149-0.336c3.324,0.507,5.835-1.057,7.221-4.405
		c-3.533-0.16-8.645-2.994-10.007-5.641c0.62-0.408,1.218-0.914,1.904-1.222c0.696-0.312,1.48-0.428,2.25-0.637
		c-2.24-4.172-2.325-4.528-1.428-6.723c0.744,0.445,1.471,0.833,2.15,1.293c2.553,1.727,4.577,1.63,7.009-0.297
		c1.688-1.338,3.38-2.678,5.147-3.908c3.06-2.13,5.597-4.739,7.599-7.877c0.086-0.134,0.172-0.273,0.282-0.388
		c2.917-3.041,4.668-6.821,6.732-10.42c4.537-7.91,8.508-16.105,12.642-24.223c1.975-3.878,4.805-6.896,8.976-8.9
		c4.593-2.206,9.324-2.65,14.184-2.728c4.234-0.067,8.472,0.177,12.709,0.277c3.782,0.09,7.33,1.154,10.347,3.345
		c2.637,1.916,4.932,4.317,6.424,7.311c2.632,5.278,4.127,10.845,4.603,16.753c0.372,4.617,1.132,9.213,3.361,13.403
		c0.375,0.705,0.676,1.449,1.014,2.174c1.424,3.058,1.396,3.108-1.968,3.379c-0.203,1.099,0.336,1.976,0.967,2.767
		c0.994,1.248,2.064,2.435,3.111,3.641c0.312,0.36,0.682,0.673,0.975,1.047c1.242,1.584,1,2.322-0.927,2.852
		c-0.303,0.083-0.626,0.089-1.097,0.152c1.371,2.662,3.968,3.833,6.507,5.609c-1.523,0.997-2.727,1.784-3.969,2.597
		c0.99,1.991,3.495,1,4.888,2.283c0.283,2.238,0.265,2.279-1.622,3.039c-0.739,0.298-1.485,0.576-2.369,0.917
		c1.79,2.386,4.957,2.375,7.032,4.083c-0.953,1.521-0.953,1.521-4.077,2.742c1.723,2.208,5.5,2.118,6.127,5.559
		c-1.007,0.877-2.02,1.76-3.093,2.694c1.024,1.33,0.562,2.209-0.486,2.909c-1.39,0.927-2.795,1.829-4.281,2.799
		c-0.062,3.315-3.129,1.293-4.892,2.501c2.149,1.021,4.075,2.104,6.119,2.873c4.559,1.716,9.23,3.14,13.754,4.94
		c3.844,1.529,7.901,1.939,11.869,2.826c3.269,0.731,6.536,1.465,9.79,2.261c2.25,0.551,3.948,1.939,5.477,3.656
		c1.854,2.083,3.858,4.032,5.808,6.029c5.486,5.622,10.247,11.805,14.338,18.509c2.535,4.154,5.218,8.224,7.586,12.47
		c1.738,3.116,3.068,6.459,4.59,9.698c0.644,1.369,1.37,2.702,1.954,4.096c1.229,2.938,2.315,5.938,3.597,8.854
		c2.231,5.078,5.525,9.499,8.832,13.904c1.39,1.852,2.816,3.681,4.103,5.603c0.51,0.762,0.894,1.729,0.976,2.635
		c0.428,4.68,0.857,9.365,1.059,14.058c0.204,4.777,0.117,9.566,0.207,14.349c0.072,3.83,0.354,7.66,0.295,11.486
		c-0.072,4.701-0.567,9.397-0.577,14.096c-0.011,4.616,0.324,9.233,0.57,13.847c0.157,2.944,0.474,5.837,1.329,8.723
		c1.387,4.682,3.355,9.108,5.227,13.586c0.03,0.073,0.076,0.141,0.11,0.213c1.488,3.1,0.639,3.286-1.992,3.636
		c-0.044,0.723-0.231,1.513-0.113,2.254c0.786,4.961,1.579,9.922,2.489,14.861c0.484,2.627,0.457,5.047-0.463,7.681
		c-1.764,5.051-2.869,10.287-1.907,15.733c0.317,1.801,0.475,3.635,0.611,5.461c0.045,0.604-0.07,1.297-0.345,1.829
		c-0.492,0.959-1.344,1.122-2.128,0.339c-1.39-1.389-2.654-2.902-3.589-3.939c-0.732,0.548-1.601,1.237-2.511,1.864
		c-0.842,0.58-1.797,0.856-2.67,0.15c-0.858-0.695-1.591-1.449-1.415-2.803c0.328-2.522,0.474-5.069,0.691-7.606
		c0.126-1.477,0.246-2.955,0.415-4.996c-2.924,3.755-5.489,7.356-10.633,6.771c-0.801-0.756-0.591-1.734-0.292-2.623
		c0.991-2.94,1.81-5.978,3.165-8.747c1.496-3.056,1.892-6.265,2.123-9.512c0.231-3.238,0.113-6.502,0.139-9.755
		c0.013-1.488,0.003-2.977-0.37-4.909c-0.094,0.314-0.163,0.639-0.284,0.942c-1.769,4.417-5.122,7.447-8.925,10.038
		c-1.655,1.128-3.566,1.342-5.496,0.783c-1.626-0.472-2.113-1.301-1.42-2.855c0.873-1.958,1.965-3.821,3.027-5.689
		c1.508-2.652,2.579-5.44,3.018-8.619c-1.101,0-2.087,0-3.452,0c0.273-0.763,0.383-1.348,0.675-1.82
		c0.458-0.74,1.014-1.425,1.573-2.097c3.196-3.844,4.111-8.358,3.969-13.209c-0.084-2.857,0.048-5.728-0.167-8.573
		c-0.16-2.125-0.675-4.229-1.112-6.326c-0.748-3.582-1.554-7.151-2.347-10.723c-0.397-1.79-0.709-3.608-1.252-5.354
		c-1.43-4.603-1.993-9.369-2.22-14.115c-0.247-5.158,0.057-10.353,0.327-15.521c0.086-1.627-0.477-2.741-1.428-3.863
		c-2.628-3.098-5.119-6.32-7.885-9.29c-2.989-3.209-6.104-6.328-9.388-9.233c-4.448-3.938-8.331-8.357-12.087-12.93
		c-3.986-4.854-6.724-10.445-9.688-15.908c-0.446-0.823-0.923-1.629-1.68-2.959c-0.781,2.007-1.429,3.513-1.957,5.061
		c-1.21,3.548-2.248,7.16-3.568,10.665c-1.409,3.739-2.977,7.398-3.487,11.42c-0.188,1.482-0.725,2.935-1.218,4.361
		c-1.555,4.498-1.576,9.269-2.53,13.865c-1.498,7.221-1.929,14.56-2.721,21.862c-0.206,1.899-0.642,3.772-0.943,5.663
		c-1.152,7.214-1.251,14.491-0.917,21.754c0.138,2.998,0.958,5.976,1.598,8.936c0.872,4.04,1.925,8.041,2.791,12.083
		c0.698,3.263,1.022,6.619,1.892,9.832c1.373,5.074,3.092,10.053,4.604,15.09c0.62,2.062,0.982,4.203,1.643,6.249
		c1.614,5.005,3.345,9.974,5.009,14.963c1.185,3.555,2.24,7.156,3.531,10.672c1.703,4.636,3.607,9.198,5.371,13.812
		c0.795,2.08,1.451,4.214,2.188,6.317c2.208,6.312,4.394,12.633,6.65,18.927c1.532,4.272,3.16,8.512,4.769,12.757
		c0.365,0.965,0.827,1.894,1.239,2.841c0.476,1.095,1.114,2.152,1.39,3.297c1.444,6,4.094,11.557,6.218,17.307
		c1.877,5.084,3.762,10.188,5.187,15.405c0.917,3.354,1.082,6.927,1.448,10.416c0.391,3.724,0.659,7.462,0.903,11.197
		c0.125,1.912,0.146,3.836,0.102,5.752c-0.134,5.746-0.157,11.5-0.533,17.232c-0.45,6.848-1.247,13.674-1.837,20.514
		c-0.233,2.703-0.364,5.416-0.452,8.127c-0.123,3.826-0.229,7.656-0.221,11.484c0.007,3.344,0.181,6.688,0.282,10.033
		c0.107,3.506,0.218,7.014,0.321,10.52c0.009,0.318-0.101,0.66-0.02,0.953c0.963,3.496-0.113,6.996,0.047,10.475
		c0.229,4.988,0.232,10.06,2.58,14.697c0.851,1.683,1.654,3.389,2.589,5.31c-0.789,1.004-2.026,0.852-3.283,0.602
		c-1.245-0.248-2.487-0.508-3.654-0.746c-3.379,4.064-4.043,8.906-4.42,13.695c-0.425,5.404,1.248,10.363,4.4,14.824
		c1.331,1.883,2.604,3.842,3.614,5.905c1.321,2.701,1.127,7.107-1.194,9.605c-1.738,1.871-3.527,3.699-5.36,5.477
		c-2.691,2.611-6.045,3.908-9.693,4.24c-1.354,0.123-2.844-0.391-4.162-0.896c-3.866-1.482-7.835-2.761-11.181-5.361
		c-3.535-2.746-5.089-6.529-5.472-10.785c-0.197-2.182,0.05-4.451,0.44-6.619c0.275-1.52,0.896-3.102,1.785-4.354
		c1.373-1.937,1.788-4.025,1.935-6.279c0.207-3.178,0.487-6.352,0.696-9.529c0.067-1.021,0.011-2.051,0.011-3.035
		c-1.478-0.614-2.938-1.055-4.228-1.793c-2.784-1.596-3.179-3.096-1.717-5.944c1.565-3.058,3.312-6.039,3.952-9.472
		c0.423-2.272,0.857-4.557,1.065-6.854c0.324-3.574,0.333-7.18,0.709-10.746c0.455-4.32,0.359-8.619-0.188-12.9
		c-0.413-3.233-1.096-6.434-1.607-9.655c-0.562-3.541-1.14-7.082-1.582-10.642c-1.191-9.561-0.466-19.164-0.499-28.75
		c-0.02-5.66,0.303-11.323,0.183-16.979c-0.117-5.521-1.041-10.974-2.355-16.342c-0.793-3.242-1.553-6.498-2.5-9.695
		c-0.275-0.932-1.059-1.769-1.754-2.512c-3.929-4.203-8.125-8.179-11.788-12.599c-2.992-3.608-5.464-7.67-7.993-11.641
		c-5.441-8.542-10.937-17.059-16.088-25.776c-3.274-5.54-5.948-11.433-8.937-17.143c-2.147-4.102-4.369-8.164-6.57-12.237
		c-0.058-0.106-0.267-0.132-0.729-0.343c-0.341,1.906-0.684,3.73-0.99,5.562c-0.565,3.379-0.971,6.791-1.696,10.135
		c-0.98,4.517-2.009,9.039-3.367,13.451c-1.498,4.868-3.352,9.63-5.13,14.408c-0.861,2.314-1.827,4.598-2.879,6.83
		c-1.835,3.896-3.801,7.729-5.66,11.613c-1.684,3.52-3.296,7.074-4.946,10.608c-0.202,0.433-0.408,0.871-0.676,1.263
		c-3.265,4.772-5.52,10.022-7.604,15.395c-1.633,4.207-2.546,8.551-3.322,12.945c-1.136,6.434-1.887,12.953-3.363,19.305
		c-1.91,8.224-4.244,16.354-6.654,24.447c-1.11,3.727-2.708,7.33-4.303,10.891c-4.267,9.527-8.634,19.011-12.994,28.496
		c-2.834,6.168-3.762,12.656-3.251,19.361c0.26,3.408,0.67,6.812,1.196,10.188c0.458,2.945-1.22,4.763-4.195,4.255
		C61.279,561.645,60.76,561.479,60.103,561.314z M55.563,281.862c-1.727-1.912-3.213-3.56-4.703-5.206
		c-2.858-3.157-4.129-6.914-4.323-11.122c-0.099-2.147-0.349-4.29-0.577-6.429c-0.548-5.14-1.137-10.276-1.685-15.417
		c-0.253-2.376-0.312-4.782-0.696-7.135c-1.015-6.219-2.171-12.415-3.247-18.624c-0.425-2.453-0.787-4.917-1.176-7.364
		c-0.625,0.735-1.194,1.404-1.763,2.074c-0.152-0.1-0.304-0.2-0.456-0.3c0.998-1.943,1.825-4.002,3.038-5.801
		c1.372-2.036,3.044-3.88,4.667-5.736c5.167-5.912,9.054-12.714,13.312-19.249c1.545-2.371,2.502-5.127,3.718-7.712
		c1.017-2.165,2.013-4.339,3.032-6.503c0.669-1.421,0.979-2.842,0.393-4.397c-0.344-0.912-0.17-1.734,0.998-2.072
		c1.185,1.173,1.826,2.517,1.619,4.256c-0.177,1.491,0.375,2.753,1.258,3.998c1.008,1.421,1.782,3.019,2.568,4.585
		c1.396,2.78,2.668,5.623,4.094,8.386c2.313,4.482,4.293,9.085,5.471,14.005c1.82,7.605,3.674,15.202,5.423,22.824
		c0.694,3.027,1.366,6.09,1.652,9.173c0.397,4.289,0.486,8.611,0.585,12.922c0.062,2.711,0.004,5.435-0.184,8.14
		c-0.326,4.685-0.796,9.359-1.215,14.153c1.661,1.088,3.415,2.341,5.27,3.418c1.299,0.754,2.686,1.453,4.124,1.854
		c3.829,1.071,7.685,2.07,11.571,2.906c4.195,0.903,8.433,1.614,12.66,2.358c3.062,0.539,6.093,1.266,9.265,0.931
		c3.886-0.41,7.792-0.621,11.684-0.978c1.499-0.137,3-0.359,4.471-0.677c3.655-0.79,7.212-2.047,10.999-2.211
		c0.539-0.023,1.069-0.294,1.6-0.462c3.557-1.125,6.133-3.609,8.719-6.138c1.205-1.178,1.629-2.402,1.527-4.048
		c-0.28-4.539-0.627-9.087-0.579-13.628c0.051-4.864,0.416-9.733,0.84-14.583c0.354-4.052,1.019-8.076,1.493-12.118
		c0.27-2.296,0.34-4.618,0.666-6.904c0.745-5.215,1.483-10.435,2.432-15.615c0.904-4.938,1.989-9.848,3.159-14.73
		c0.592-2.472,1.485-4.879,2.358-7.274c0.681-1.868,1.682-3.626,2.288-5.514c1.17-3.641,2.235-7.32,3.182-11.025
		c0.26-1.018,0.045-2.201-0.133-3.279c-0.4-2.434-0.918-4.847-1.38-7.271c-0.137-0.72,0.078-1.241,1.01-1.462
		c0.951,1.983,1.941,3.952,2.85,5.957c2.799,6.183,5.71,12.314,9.494,17.961c1.818,2.712,3.837,5.325,6.031,7.741
		c3.049,3.358,6.312,6.527,9.552,9.707c3.815,3.745,7.788,7.301,10.977,11.675c2.46,3.375,5.434,6.375,8.383,9.778
		c-0.205,0.994-0.575,2.211-0.685,3.451c-0.195,2.223-0.384,4.466-0.307,6.69c0.157,4.541,0.066,9.15,0.846,13.596
		c1.495,8.54,3.538,16.983,5.327,25.473c0.573,2.722,1.263,5.431,1.086,8.261c-0.09,1.432-0.227,2.894-0.049,4.303
		c0.432,3.43-0.509,6.672-1.224,9.93c-0.427,1.945-1.298,3.777-2.896,5.137c-0.309,0.263-0.557,0.599-1.146,1.244
		c1.003,0,1.541-0.048,2.067,0.008c3.943,0.414,7.882-0.581,11.879,0.423c4.545,1.142,9.245,1.663,13.882,2.431
		c0.256,0.042,0.547-0.128,0.854-0.208c-1.419-3.616-2.926-7.049-4.106-10.59c-0.954-2.86-1.702-5.819-2.197-8.792
		c-0.458-2.746-0.509-5.565-0.649-8.357c-0.168-3.341-0.396-6.692-0.317-10.032c0.121-5.1,0.645-10.192,0.702-15.291
		c0.067-5.972-0.189-11.948-0.281-17.922c-0.015-0.955,0.223-1.922,0.138-2.865c-0.533-5.95-0.481-11.966-1.911-17.814
		c-0.238-0.972-0.583-1.991-1.148-2.798c-2.516-3.587-5.207-7.054-7.682-10.669c-1.616-2.363-3.357-4.761-4.348-7.404
		c-1.451-3.871-2.866-7.742-4.672-11.464c-0.451-0.931-0.858-1.884-1.326-2.807c-1.619-3.198-3.136-6.455-4.914-9.562
		c-2.455-4.289-5.184-8.421-7.664-12.696c-2.696-4.647-5.908-8.912-9.448-12.917c-2.951-3.338-6.2-6.383-9.511-9.395
		c-3.052-2.777-6.337-4.119-10.178-4.729c-0.475-0.075-0.949-0.145-1.422-0.231c-6.127-1.128-12.226-2.348-17.979-4.873
		c-1.605-0.705-3.264-1.333-4.951-1.804c-5.753-1.609-11.415-3.402-16.426-6.958c0.629,1.191,1.474,2.203,2.184,3.304
		c0.728,1.13,2.051,2.076,1.47,3.87c-1.799-0.343-3.064-1.461-4.316-2.5c-1.228-1.019-2.286-2.241-3.781-3.736
		c0.271,4.02,3.985,4.354,5.698,6.558c-1.384,1.042-2.522,1.825-4.039,0.674c-0.325-0.247-0.896-0.221-1.355-0.229
		c-2.026-0.036-3.743-0.83-5.168-2.203c-0.861-0.83-1.82-1.344-3.164-1.807c0.617,2.624,2.541,4.371,2.877,6.773
		c-0.292,0.178-0.475,0.356-0.687,0.404c-0.304,0.069-0.647,0.118-0.942,0.046c-3.578-0.867-6.632-2.843-7.075-7.315
		c-0.072-0.726-0.27-1.439-0.453-2.385c-2.343,3.099-2.568,5.162-0.869,8.494c0.562,1.102,0.688,1.911-0.322,2.708
		c-3.623-0.661-4.218-1.135-5.994-4.386c-0.687-1.257-1.488-2.46-2.328-3.621c-0.623-0.86-1.388-1.622-2.576-1.986
		c0,1.149-0.022,2.102,0.005,3.053c0.042,1.438,0.17,2.877,0.14,4.313c-0.007,0.347-0.434,0.805-0.783,0.974
		c-0.179,0.086-0.784-0.283-0.897-0.565c-0.323-0.805-0.472-1.677-0.728-2.511c-0.409-1.336-0.849-2.664-1.276-3.995
		c-0.175-0.011-0.351-0.021-0.526-0.032c-1.515,3.084-1.536,7.383-6.255,7.83c-1-1.098-0.976-1.092-0.689-2.289
		c0.223-0.931,0.463-1.871,0.543-2.819c0.189-2.252-0.942-4.232-2.78-5.118c-0.113,1.636,0.059,3.383-0.425,4.924
		c-0.453,1.44-0.944,3.158-2.603,3.856c-1.407,0.591-2.439,2.497-4.594,1.329c0.632-2.28,1.251-4.512,1.871-6.744
		c-1.849,1.16-3.124,2.748-4.742,3.814c-1.665,1.096-3.665,1.683-5.566,2.513c-0.56-0.391-1.188-0.83-1.806-1.261
		c1.216-1.555,2.612-2.914,3.469-4.553c0.885-1.692,0.285-3.656,0.209-5.921c-1.137,0.951-2.074,1.569-2.803,2.375
		c-2.342,2.592-4.952,3.693-8.237,1.652c-1.36,1.277-2.583,2.542-3.926,3.662c-1.958,1.633-3.996,3.169-6.008,4.736
		c-1.968,1.532-4.061,2.788-5.841,4.701c-2.053,2.207-5.026,3.614-7.731,5.133c-1.593,0.895-2.846,2.003-3.872,3.463
		c-1.192,1.697-2.472,3.335-3.624,5.059c-4.568,6.832-8.24,14.172-12.106,21.402c-0.938,1.753-1.95,3.466-2.89,5.219
		c-1.161,2.165-2.347,4.321-3.403,6.537c-1.197,2.51-2.167,5.13-3.407,7.617c-2.039,4.091-4.251,8.095-6.324,12.17
		c-1.841,3.619-3.507,7.328-5.406,10.916c-2.133,4.031-3.005,8.326-3.076,12.819c-0.045,2.872,0.028,5.746,0.054,8.619
		c0.002,0.236,0.029,0.476,0.083,0.706c0.467,2.002,0.911,4.012,1.425,6.002c0.814,3.154,1.636,6.307,2.535,9.437
		c0.637,2.218,1.482,4.376,2.102,6.598c0.958,3.44,1.812,6.91,2.691,10.371c0.998,3.926,2.467,7.739,2.794,11.828
		c0.05,0.619,0.378,1.213,0.554,1.826c0.903,3.136,1.922,6.245,2.662,9.419c0.758,3.255,1.442,6.554,1.786,9.872
		c0.324,3.126,0.908,6.361-0.775,9.378c-0.203,0.364-0.028,0.939-0.028,1.676c0.821-0.319,1.374-0.434,1.814-0.722
		c1.737-1.135,3.492-2.254,5.143-3.507c4.74-3.596,9.925-5.985,15.963-6.288C53.849,282.551,54.59,282.159,55.563,281.862z
		 M227.067,556.072c-0.215-0.801-0.284-1.358-0.508-1.848c-2.032-4.43-2.841-9.145-2.993-13.949
		c-0.2-6.293-0.177-12.596-0.241-18.893c-0.084-8.217-0.183-16.435-0.226-24.65c-0.016-3.192-0.146-6.414,0.216-9.572
		c0.743-6.502,1.658-12.983,1.811-19.536c0.165-7.105,0.431-14.211,0.403-21.316c-0.016-4.062-0.43-8.133-0.841-12.182
		c-0.452-4.445-0.882-8.912-1.731-13.291c-1.003-5.17-2.854-10.111-4.894-14.98c-1.228-2.934-2.012-6.049-3.156-9.021
		c-1.804-4.683-3.862-9.266-5.6-13.971c-3.224-8.735-6.261-17.538-9.438-26.291c-2.036-5.609-4.17-11.184-6.285-16.764
		c-0.902-2.378-1.974-4.695-2.784-7.103c-1.195-3.545-2.157-7.168-3.337-10.719c-3.291-9.9-6.749-19.747-9.935-29.68
		c-2.384-7.436-4.443-14.976-6.658-22.466c-0.486-1.646-1.019-3.278-1.599-5.14c-0.515,0.477-0.932,0.735-1.172,1.107
		c-2.99,4.624-7.555,6.376-12.729,7.036c-0.553,0.07-1.129,0.073-1.651,0.241c-3.346,1.073-6.715,1.912-10.231,2.374
		c-6.031,0.792-12.083,1.315-18.136,1.187c-4.925-0.104-9.848-0.809-14.749-1.434c-5.271-0.673-10.15-2.601-14.843-5.055
		c-2.732-1.428-5.533-2.725-8.402-4.129c-0.751,1.11-1.487,1.974-1.977,2.959c-2.271,4.568-4.679,9.084-6.653,13.78
		c-2.834,6.74-4.35,13.851-4.701,21.16c-0.126,2.616,0.097,5.257,0.286,7.877c0.166,2.302,0.502,4.591,0.771,6.885
		c0.083,0.712,0.48,1.543,0.238,2.107c-0.564,1.315-0.123,2.54,0.065,3.75c0.438,2.829,1.16,5.615,1.592,8.444
		c0.505,3.312,1.139,6.649,1.155,9.979c0.03,5.822-0.362,11.647-1.555,17.383c-0.194,0.933-0.195,1.904-0.362,2.846
		c-0.272,1.544-0.462,3.124-0.942,4.606c-1.442,4.459-3.608,8.676-4.146,13.438c-0.259,2.284-1.079,4.502-1.398,6.784
		c-0.374,2.669-0.409,5.385-0.714,8.067c-0.621,5.471-1.393,10.924-1.97,16.399c-0.446,4.228-1.569,8.255-3.082,12.199
		c-0.428,1.117-0.846,2.252-1.118,3.414c-1.522,6.521-3.066,13.037-4.471,19.584c-1.472,6.859-2.83,13.744-4.17,20.631
		c-1.568,8.056-3.098,16.119-4.578,24.191c-1.007,5.492-2.128,10.984-2.148,16.598c-0.013,3.479-0.747,6.814-1.605,10.138
		c-1.479,5.723-3.389,11.303-5.894,16.664c-1.992,4.262-4.028,8.506-6.935,12.25c-0.632,0.812-1.434,1.498-2.029,2.334
		c-1.074,1.506-0.823,2.586,0.669,3.646c1.183,0.84,2.288,1.062,3.779,0.494c2.212-0.844,4.548-1.447,6.883-1.859
		c3.817-0.672,7.47,0.293,10.98,1.724c2.426,0.987,4.734,2.262,7.154,3.266c3.317,1.377,3.992,0.842,3.672-2.717
		c-0.25-2.783-0.567-5.562-0.781-8.346c-0.376-4.904,0.065-9.752,1.539-14.441c2.135-6.793,5.609-13.023,8.502-19.498
		c2.276-5.096,4.868-10.055,7.038-15.191c4.203-9.95,6.896-20.381,9.364-30.866c1.37-5.818,2.28-11.713,3.189-17.625
		c0.911-5.927,1.708-12.007,4.23-17.607c1.599-3.551,2.967-7.213,4.693-10.699c1.406-2.84,3.427-5.334,4.735-8.271
		c1.907-4.283,4.11-8.433,6.133-12.662c1.993-4.17,4.051-8.314,5.846-12.57c4.1-9.722,7.2-19.768,9.224-30.129
		c0.839-4.294,1.458-8.631,2.307-12.922c0.556-2.81,0.706-5.504-0.876-8.049c-0.083-0.133-0.117-0.297-0.163-0.45
		c-0.432-1.429-0.093-2.613,1.151-3.74c0.507,0.582,1.02,0.992,1.302,1.523c1.462,2.751,2.913,5.51,4.279,8.309
		c3.146,6.447,6.228,12.926,9.361,19.379c2.539,5.229,5.855,10.018,8.331,15.31c2.426,5.183,5.856,9.837,9.276,14.468
		c4.078,5.523,7.791,11.316,11.733,16.941c2.375,3.389,4.777,6.768,7.373,9.985c1.839,2.281,3.956,4.354,6.077,6.388
		c1.194,1.145,2.646,2.021,3.984,3.018c0.306,0.229,0.617,0.449,1.111,0.809c-2.222,1.713-3.275-0.961-5.015-1.086
		c0.052,0.513,0.045,0.906,0.136,1.275c0.647,2.637,1.415,5.248,1.951,7.904c0.707,3.51,1.403,7.036,1.789,10.592
		c0.274,2.524,0.03,5.108,0.013,7.666c-0.052,7.91-0.023,15.822-0.185,23.729c-0.137,6.724,0.069,13.392,1.438,20.011
		c0.931,4.495,1.139,9.145,2.935,13.452c0.054,0.13,0.045,0.347-0.029,0.459c-0.851,1.277-0.17,2.632-0.172,3.939
		c-0.002,1.746,0.318,3.502,0.229,5.238c-0.338,6.621-0.733,13.239-1.209,19.852c-0.28,3.912-0.938,7.775-2.47,11.422
		c-0.613,1.457-1.506,2.799-2.1,4.265c-1.075,2.646,0.104,4.301,2.938,3.985c2.347-0.26,4.665-0.807,6.98-1.301
		c0.912-0.195,1.823-0.51,2.664-0.916c6.241-3.021,12.678-4.799,19.677-3.328C224.076,555.557,225.476,555.781,227.067,556.072z
		 M159.713,94.29c2.104-2.351,3.892-3.668,5.78-4.388c0.443-0.169,0.854-0.428,1.636-0.828c-1.798-0.808-2.825-1.444-3.941-1.725
		c-1.229-0.31-1.306-1.669-2.386-2.135c-1.045-0.451-1.918-1.303-2.932-2.026c1.377-0.45,2.672-0.873,4.154-1.356
		c-0.813-0.702-1.438-1.308-2.132-1.824c-1.345-1.001-2.763-1.908-4.073-2.951c-0.348-0.276-0.414-0.907-0.608-1.374
		c0.479-0.081,1.014-0.338,1.431-0.212c1.511,0.457,2.917,0.498,4.206-0.412c-0.909-0.58-1.779-1.087-2.597-1.669
		c-0.911-0.647-1.701-1.502-2.677-2.013c-1.194-0.625-1.175-1.473-1.02-2.56c1.573-0.012,3.043,0.559,4.659-0.133
		c-2.059-1.764-3.948-3.336-5.78-4.973c-0.89-0.794-1.738-1.656-2.466-2.595c-0.251-0.325-0.081-0.977-0.104-1.479
		c0.429-0.018,0.878-0.127,1.282-0.036c0.971,0.22,1.919,0.534,2.877,0.81c0.157-0.164,0.315-0.327,0.473-0.491
		c-2.963-2.754-4.426-6.189-5.128-9.98c1.326-0.41,1.702,2.26,3.287,0.841c-0.09-0.342-0.088-0.704-0.26-0.937
		c-2.021-2.727-2.779-5.876-3.184-9.164c-0.106-0.867-0.391-1.712-0.593-2.567c-0.161-0.684-0.488-1.377-0.455-2.052
		c0.268-5.453-0.937-10.534-3.167-15.524c-2.415-5.406-6.293-9.185-11.548-11.581c-3.094-1.411-6.374-1.975-9.646-0.316
		c-0.995-0.88-0.993-0.909-4.623-1.158c-3.165-0.217-6.347-0.453-9.081,1.044c-0.755-0.158-1.411-0.497-1.971-0.38
		c-3.438,0.716-6.587,2.16-9.465,4.159c-0.775,0.538-1.609,1.153-2.082,1.935c-1.609,2.662-3.158,5.369-4.562,8.144
		c-1.728,3.416-3.188,6.967-4.946,10.366c-1.723,3.331-3.61,6.582-5.54,9.8c-2.704,4.51-5.508,8.96-8.282,13.429
		c-0.251,0.405-0.576,0.769-0.896,1.125c-1.704,1.903-3.416,3.8-5.133,5.692c-0.097,0.107-0.269,0.148-0.473,0.255
		c-0.258-0.201-0.54-0.421-0.947-0.739c-1.63,1.211-3.46,2.28-4.916,3.725c-1.927,1.912-4.059,2.358-6.564,1.805
		c-0.408-0.09-0.817-0.171-1.301-0.273c0.525,1.68,2.007,1.232,3.087,1.627c0,0.631,0,1.139,0,1.672c0.404,0,0.72-0.017,1.034,0.005
		c0.239,0.017,0.474,0.083,0.89,0.162c-1.171,1.101-3.113,0.336-3.547,2.141c-1.04-0.807-1.04-0.807-2.33,0.319
		c1.996,1.167,3.958,2.118,6.254,2.151c2.077,0.03,2.146-0.047,2.981-2.014c0.125-0.296,0.344-0.551,0.52-0.826
		c0.138,0.089,0.277,0.178,0.415,0.268c-1.262,4.707-4.171,8.349-8.303,11.508c2.812,0.9,5.178,0.825,7.57,0.573
		c0.609-0.064,1.242,0.099,1.924,0.164c0.71-0.586,1.564-1.292,2.417-1.997c-0.065,2.277-2.208,2.863-2.988,4.471
		c-0.903,1.862-3.007,2.134-4.635,3.333c2.685,0.52,4.513-0.112,6.678-2.062c0.969-0.873,2.023-1.651,3.13-2.546
		c2.686,5.083-0.047,8.302-3.177,11.54c0.915-0.073,1.978-0.101,2.394-0.633c1.397-1.788,3.781-1.505,5.395-2.803
		c0.294-0.237,1.177,0.201,1.763,0.398c0.597,0.201,1.156,0.682,1.747,0.71c3.417,0.162,5.906-1.844,6.609-5.284
		c0.194-0.945,0.351-1.818,1.237-1.9c0.379,1.678,0.716,3.354-0.073,5.022c-0.794,1.678-2.209,2.588-4.015,3.594
		c1.751,0.142,3.186,0.258,4.773,0.386c0.47-0.812,0.974-1.681,1.477-2.549c0.097,0.034,0.194,0.067,0.291,0.101
		c-0.513,1.581-1.025,3.162-1.56,4.813c-0.717-0.08-1.611,0.244-1.374,1.387c0.24,1.156,1.252,0.796,1.938,0.394
		c1.438-0.842,2.938-1.649,4.18-2.736c1.683-1.473,1.613-1.78,0.621-3.917c-0.108-0.232-0.102-0.517-0.149-0.777
		c0.68,0.21,1.123,0.543,1.33,0.986c0.563,1.204,0.877,2.546,1.562,3.667c1.172,1.918,1.353,3.858,0.798,5.978
		c-0.226,0.863-0.248,1.78-0.418,3.115c2.706-1.603,4.427-3.372,5.435-5.809c0.556-1.344,0.954-2.784,2.555-4.036
		c0.122,3.931,1.312,7.442-0.132,11.028c3.64-2.944,3.089-6.74,1.886-10.947c1.405,0.245,2.69,0.076,3.222,0.63
		c2.336,2.432,4.327,5.127,4.004,8.815c-0.039,0.447-0.005,0.9-0.005,1.35c0.791-0.441,1.541-1.125,1.458-1.687
		c-0.176-1.203,0.213-2.152,0.632-3.18c0.429-1.052,0.742-2.15,1.111-3.242c1.204,0.961,2.262,1.805,3.541,2.825
		c0.573-2.028-0.832-4.086,1.237-5.473c0.162,0.548,0.208,1.12,0.483,1.542c0.376,0.578,0.862,1.384,1.413,1.487
		c1.211,0.225,2.493,0.07,3.365,0.07c0.785,1.724,1.511,3.273,2.194,4.841c0.302,0.692,0.595,1.406,0.754,2.14
		c0.222,1.025,0.819,1.625,2.196,2.224c-1.368-3.081-0.877-5.755,0.212-8.405c1.27-3.089,1.767-3.502,4.404-3.383
		c0.272,6.808,1.231,9.066,3.925,9.699c-0.455-1.616-1.284-3.322-1.322-5.046c-0.039-1.747-1.097-3.496-0.137-5.631
		c1.81,4.195,4.866,6.575,9.113,8.336c-0.581-3.469-1.763-6.516-0.625-9.938c1.012,1.752,1.727,3.34,2.76,4.683
		c1.041,1.35,2.399,2.457,3.617,3.669c-1.104-2.419-2.884-4.445-2.954-7.352c6.645,2.475,6.645,2.475,8.723,1.536
		c-0.556-0.456-1.086-0.893-1.796-1.477c2.489-0.254,5.01,0.223,7.229-1.888C161.688,94.959,160.821,94.666,159.713,94.29z
		 M58.328,560.508c-2.795-1.625-5.229-3.146-7.761-4.478c-2.021-1.063-4.284-1.11-6.535-1.141c-3.025-0.039-5.393,1.758-8.248,2.658
		c-0.065,1.324-0.167,2.586-0.18,3.85c-0.016,1.617-0.189,3.174-1.021,4.613c-2.266,3.93-4.504,7.873-6.751,11.812
		c-0.434,0.759-1.076,1.476-1.256,2.291c-1.34,6.062-0.823,11.752,3.772,16.457c3.58,3.664,8.104,5.205,13.087,5.631
		c2.938,0.25,5.636-0.372,8.279-1.795c3.251-1.748,5.73-4.223,8.019-7.03c2.204-2.705,2.83-5.658,1.853-8.943
		c-0.567-1.904-1.409-3.729-1.959-5.639c-0.592-2.054-1.094-4.146-1.437-6.252c-0.332-2.039-0.369-4.125-0.614-6.183
		C57.338,564.377,56.976,562.404,58.328,560.508z M214.579,604.559c0.006,0.287,0.012,0.574,0.018,0.861
		c-4.419,1.071-8.862,0.494-13.386-0.054c0.729,0.63,1.5,1.16,2.351,1.479c1.04,0.391,2.132,0.754,3.229,0.867
		c4.096,0.422,7.984-0.013,10.943-3.338c2.065-2.32,4.116-4.658,6.11-7.041c1.833-2.191,1.793-2.853,0.301-5.32
		c-1.651-2.732-3.279-5.484-4.82-8.279c-1.768-3.209-2.556-6.791-2.53-10.352c0.033-4.533,1.362-8.924,2.761-13.24
		c0.259-0.799,0.493-1.604,0.771-2.516c-0.714-0.211-1.156-0.451-1.6-0.453c-2.718-0.021-5.408,0.133-8.018,1.043
		c-4.735,1.652-9.349,3.596-13.912,5.666c-0.419,0.188-0.78,0.51-1.234,0.813c0,1.474,0.073,2.906-0.016,4.33
		c-0.179,2.867-0.452,5.729-0.674,8.595c-0.163,2.092-0.656,4.002-1.97,5.766c-1.926,2.586-2.4,5.502-1.122,8.582
		c0.52,1.25,0.917,2.561,1.528,3.764c2.291,4.51,5.701,7.699,10.884,8.396c2.597,0.35,5.247,0.309,7.875,0.424
		C212.903,604.59,213.742,604.559,214.579,604.559z M50.684,285.095c-2.711,0.117-5.139,0.787-7.367,2.097
		c-3.995,2.35-7.499,5.36-10.991,8.375c-0.323,0.279-0.594,0.767-0.647,1.188c-0.362,2.841-0.645,5.692-0.981,8.537
		c-0.477,4.033-0.909,8.073-1.493,12.091c-0.355,2.444-0.986,4.847-1.446,7.277c-1.166,6.161-0.438,12.091,2.385,17.701
		c0.855,1.699,1.926,3.298,3.009,4.866c0.232,0.336,1.082,0.607,1.405,0.44c0.618-0.318,1.031-0.969,0.654-1.803
		c-0.951-2.102-1.877-4.215-2.822-6.319c-0.912-2.031-1.839-4.055-2.75-6.086c-0.325-0.725-0.043-1.154,0.732-1.506
		c0.803,1.798,1.49,3.483,2.295,5.108c1.518,3.064,3.094,6.101,4.673,9.136c0.309,0.595,0.635,1.271,1.665,1.163
		c0.002-2.422-0.306-4.724-1.541-6.721c-2.266-3.664-2.435-7.51-1.31-11.505c0.285-1.011,0.058-1.78-0.322-2.702
		c-0.782-1.898-1.392-3.872-1.989-5.839c-0.224-0.738-0.325-1.583,0.97-2.173c0.123,0.858,0.174,1.609,0.344,2.331
		c0.343,1.46,0.587,2.976,1.173,4.338c0.713,1.657,1.658,3.233,2.659,4.741c0.578,0.871,1.275,1.92,2.72,1.396
		c1.17-2.184,0.259-4.257-0.374-6.265c-1.766-5.602-1.781-11.106,0.479-16.581c1.266-3.067,1.897-6.243,1.527-9.591
		c-0.14-1.265-0.086-2.553-0.082-3.831c0.004-1.178,0.465-2.132,1.708-3.031c0.42,0.783,0.847,1.406,1.104,2.092
		c0.472,1.263,0.768,2.595,1.272,3.844c2.157,5.341,3.74,10.805,3.973,16.611c0.052,1.302,0.102,2.713,1.296,3.62
		c2.008-0.759,2.51-1.244,3.073-3.089c0.921-3.015,1.188-6.142,0.902-9.237C55.921,298.555,53.312,291.871,50.684,285.095z
		 M244.771,291.368c1.463,1.523,1.503,1.854,1.342,3.988c-0.167,2.225-0.41,4.468-0.293,6.686
		c0.325,6.103,0.104,12.095-2.261,17.858c-1.142,2.781-2.091,5.641-3.201,8.668c2.647,0.263,4.434-0.628,5.829-2.289
		c1.283-1.528,2.437-3.166,3.638-4.762c1.566-2.082,2.605-4.388,2.866-7c0.294-2.932,0.601-5.864,0.8-8.803
		c0.082-1.21,0.25-2.276,1.359-3.173c0.185,0.39,0.372,0.594,0.353,0.776c-0.209,1.966-0.442,3.929-0.686,5.891
		c-0.36,2.916-0.328,5.955-1.184,8.718c-1.806,5.833-3.037,11.706-3.033,17.815c0,0.854-0.024,1.885,1.086,2.153
		c0.984,0.238,1.684-0.37,2.191-1.14c0.305-0.461,0.557-0.974,0.733-1.496c0.433-1.28,0.718-2.618,1.223-3.867
		c1.791-4.427,3.593-8.851,5.505-13.226c0.891-2.038,1.408-4.069,0.987-6.273c-1.226-6.413-2.58-12.806-2.902-19.585
		c-2.339-0.339-4.634-0.586-6.894-1.019c-3.443-0.658-6.852-1.497-10.295-2.15c-1.317-0.25-2.689-0.255-4.038-0.274
		c-1.654-0.023-2.545,0.754-2.941,2.477c-0.863,3.748-2.277,7.291-4.489,10.498c-0.593,0.859-0.821,1.97-1.227,2.992
		c2.316,1.337,4.282,0.608,5.848-0.575c3.778-2.857,7.176-6.107,8.595-10.884C243.869,292.747,244.311,292.198,244.771,291.368z
		 M26.949,596.619c0.624,2.673,1.795,4.464,3.47,6.019c3.15,2.926,7.036,3.883,11.124,4.404c3.274,0.418,6.348,0.09,9.069-2.011
		c0.621-0.479,1.375-0.817,2.114-1.104c2.375-0.922,4.178-2.646,5.964-4.336c1.245-1.176,2.243-2.638,2.294-4.578
		c-0.274,0.104-0.462,0.117-0.56,0.219c-0.496,0.521-0.969,1.06-1.448,1.594c-2.713,3.027-5.872,5.554-9.81,6.582
		c-5.954,1.558-11.683,0.597-16.903-2.731C30.541,599.576,28.998,598.197,26.949,596.619z M259.946,339.729
		c-0.241-4.49-0.472-8.788-0.706-13.147c-1.207,1.594-2.197,4.045-2.557,6.272C256.195,335.882,257.15,337.979,259.946,339.729z"/>
	<path fill="#47C1F0" d="M55.563,281.862c-0.973,0.297-1.713,0.689-2.472,0.727c-6.038,0.302-11.223,2.691-15.963,6.288
		c-1.651,1.252-3.406,2.372-5.143,3.507c-0.44,0.288-0.994,0.403-1.814,0.722c0-0.737-0.175-1.312,0.028-1.676
		c1.683-3.018,1.099-6.252,0.775-9.378c-0.344-3.318-1.028-6.617-1.786-9.872c-0.74-3.174-1.759-6.283-2.662-9.419
		c-0.176-0.612-0.504-1.207-0.554-1.826c-0.327-4.089-1.796-7.902-2.794-11.828c-0.879-3.461-1.733-6.931-2.691-10.371
		c-0.619-2.222-1.464-4.38-2.102-6.598c-0.899-3.13-1.721-6.283-2.535-9.437c-0.514-1.991-0.958-4-1.425-6.002
		c-0.054-0.229-0.08-0.47-0.083-0.706c-0.026-2.873-0.099-5.747-0.054-8.619c0.07-4.493,0.942-8.789,3.076-12.819
		c1.899-3.587,3.565-7.297,5.406-10.916c2.073-4.075,4.285-8.079,6.324-12.17c1.24-2.487,2.21-5.107,3.407-7.617
		c1.057-2.216,2.242-4.372,3.403-6.537c0.94-1.752,1.953-3.465,2.89-5.219c3.866-7.23,7.539-14.571,12.106-21.402
		c1.152-1.724,2.432-3.362,3.624-5.059c1.026-1.459,2.279-2.568,3.872-3.463c2.706-1.519,5.679-2.926,7.731-5.133
		c1.78-1.914,3.873-3.169,5.841-4.701c2.013-1.567,4.051-3.103,6.008-4.736c1.343-1.121,2.566-2.385,3.926-3.662
		c3.285,2.041,5.895,0.94,8.237-1.652c0.729-0.807,1.666-1.425,2.803-2.375c0.075,2.266,0.675,4.229-0.209,5.921
		c-0.857,1.64-2.253,2.998-3.469,4.553c0.618,0.431,1.246,0.87,1.806,1.261c1.901-0.831,3.902-1.417,5.566-2.513
		c1.619-1.066,2.893-2.655,4.742-3.814c-0.619,2.232-1.238,4.464-1.871,6.744c2.155,1.168,3.187-0.737,4.594-1.329
		c1.659-0.698,2.15-2.416,2.603-3.856c0.484-1.541,0.312-3.288,0.425-4.924c1.838,0.885,2.97,2.865,2.78,5.118
		c-0.08,0.949-0.32,1.889-0.543,2.819c-0.287,1.197-0.311,1.191,0.689,2.289c4.719-0.447,4.74-4.746,6.255-7.83
		c0.175,0.011,0.351,0.021,0.526,0.032c0.427,1.331,0.867,2.658,1.276,3.995c0.255,0.834,0.404,1.706,0.728,2.511
		c0.114,0.283,0.719,0.652,0.897,0.565c0.349-0.169,0.775-0.627,0.783-0.974c0.031-1.436-0.098-2.875-0.14-4.313
		c-0.027-0.951-0.005-1.904-0.005-3.053c1.188,0.364,1.953,1.126,2.576,1.986c0.84,1.161,1.641,2.364,2.328,3.621
		c1.776,3.251,2.371,3.726,5.994,4.386c1.01-0.796,0.884-1.606,0.322-2.708c-1.699-3.333-1.474-5.396,0.869-8.494
		c0.184,0.946,0.381,1.66,0.453,2.385c0.442,4.472,3.497,6.448,7.075,7.315c0.295,0.071,0.638,0.022,0.942-0.046
		c0.212-0.048,0.395-0.226,0.687-0.404c-0.337-2.402-2.261-4.149-2.877-6.773c1.344,0.463,2.303,0.977,3.164,1.807
		c1.426,1.374,3.142,2.167,5.168,2.203c0.459,0.009,1.03-0.017,1.355,0.229c1.517,1.15,2.655,0.368,4.039-0.674
		c-1.713-2.204-5.427-2.538-5.698-6.558c1.495,1.495,2.554,2.717,3.781,3.736c1.252,1.039,2.518,2.157,4.316,2.5
		c0.581-1.794-0.742-2.74-1.47-3.87c-0.71-1.101-1.555-2.113-2.184-3.304c5.011,3.556,10.673,5.35,16.426,6.958
		c1.688,0.472,3.346,1.099,4.951,1.804c5.754,2.524,11.853,3.745,17.979,4.873c0.473,0.086,0.947,0.156,1.422,0.231
		c3.841,0.61,7.126,1.952,10.178,4.729c3.311,3.012,6.56,6.057,9.511,9.395c3.54,4.005,6.752,8.27,9.448,12.917
		c2.48,4.275,5.209,8.407,7.664,12.696c1.778,3.107,3.295,6.364,4.914,9.562c0.468,0.923,0.875,1.876,1.326,2.807
		c1.806,3.722,3.221,7.593,4.672,11.464c0.99,2.643,2.731,5.041,4.348,7.404c2.475,3.615,5.166,7.082,7.682,10.669
		c0.565,0.807,0.91,1.826,1.148,2.798c1.43,5.849,1.378,11.865,1.911,17.814c0.085,0.943-0.152,1.91-0.138,2.865
		c0.092,5.975,0.349,11.95,0.281,17.922c-0.058,5.099-0.581,10.191-0.702,15.291c-0.079,3.34,0.149,6.69,0.317,10.032
		c0.141,2.792,0.191,5.611,0.649,8.357c0.495,2.973,1.243,5.933,2.197,8.792c1.181,3.542,2.688,6.975,4.106,10.59
		c-0.307,0.08-0.598,0.25-0.854,0.208c-4.637-0.768-9.337-1.29-13.882-2.431c-3.997-1.004-7.936-0.01-11.879-0.423
		c-0.526-0.056-1.064-0.008-2.067-0.008c0.589-0.646,0.837-0.981,1.146-1.244c1.598-1.36,2.469-3.192,2.896-5.137
		c0.715-3.257,1.655-6.5,1.224-9.93c-0.178-1.411-0.041-2.872,0.049-4.303c0.177-2.83-0.513-5.539-1.086-8.261
		c-1.789-8.489-3.832-16.933-5.327-25.473c-0.779-4.446-0.688-9.056-0.846-13.596c-0.077-2.225,0.111-4.467,0.307-6.69
		c0.109-1.24,0.479-2.457,0.685-3.451c-2.949-3.403-5.923-6.403-8.383-9.778c-3.188-4.375-7.161-7.93-10.977-11.675
		c-3.24-3.18-6.503-6.349-9.552-9.707c-2.194-2.416-4.213-5.029-6.031-7.741c-3.784-5.647-6.695-11.779-9.494-17.961
		c-0.908-2.005-1.898-3.974-2.85-5.957c-0.932,0.221-1.146,0.742-1.01,1.462c0.462,2.424,0.979,4.837,1.38,7.271
		c0.178,1.078,0.393,2.261,0.133,3.279c-0.946,3.706-2.012,7.385-3.182,11.025c-0.606,1.888-1.607,3.646-2.288,5.514
		c-0.873,2.395-1.767,4.802-2.358,7.274c-1.17,4.883-2.255,9.792-3.159,14.73c-0.948,5.18-1.687,10.4-2.432,15.615
		c-0.326,2.287-0.396,4.608-0.666,6.904c-0.475,4.042-1.139,8.066-1.493,12.118c-0.424,4.85-0.789,9.719-0.84,14.583
		c-0.048,4.541,0.299,9.089,0.579,13.628c0.102,1.646-0.322,2.87-1.527,4.048c-2.586,2.529-5.162,5.013-8.719,6.138
		c-0.53,0.168-1.061,0.439-1.6,0.462c-3.786,0.165-7.343,1.421-10.999,2.211c-1.471,0.318-2.972,0.54-4.471,0.677
		c-3.892,0.356-7.798,0.568-11.684,0.978c-3.172,0.334-6.204-0.392-9.265-0.931c-4.228-0.745-8.465-1.456-12.66-2.358
		c-3.886-0.836-7.742-1.835-11.571-2.906c-1.438-0.402-2.824-1.1-4.124-1.854c-1.855-1.077-3.609-2.33-5.27-3.418
		c0.419-4.794,0.889-9.469,1.215-14.153c0.188-2.705,0.246-5.429,0.184-8.14c-0.099-4.311-0.188-8.633-0.585-12.922
		c-0.286-3.083-0.958-6.146-1.652-9.173c-1.749-7.622-3.603-15.219-5.423-22.824c-1.177-4.92-3.158-9.523-5.471-14.005
		c-1.426-2.763-2.698-5.606-4.094-8.386c-0.787-1.566-1.56-3.165-2.568-4.585c-0.883-1.245-1.436-2.507-1.258-3.998
		c0.207-1.74-0.434-3.083-1.619-4.256c-1.168,0.338-1.342,1.16-0.998,2.072c0.587,1.555,0.277,2.976-0.393,4.397
		c-1.019,2.164-2.015,4.339-3.032,6.503c-1.215,2.585-2.172,5.341-3.718,7.712c-4.258,6.535-8.144,13.336-13.312,19.249
		c-1.623,1.856-3.294,3.7-4.667,5.736c-1.213,1.799-2.041,3.857-3.038,5.801c0.152,0.1,0.304,0.2,0.456,0.3
		c0.569-0.67,1.139-1.339,1.763-2.074c0.389,2.447,0.751,4.911,1.176,7.364c1.076,6.209,2.232,12.405,3.247,18.624
		c0.384,2.353,0.443,4.758,0.696,7.135c0.547,5.141,1.136,10.276,1.685,15.417c0.229,2.14,0.478,4.282,0.577,6.429
		c0.194,4.208,1.465,7.965,4.323,11.122C52.35,278.302,53.836,279.95,55.563,281.862z"/>
	<path fill="#3F97D3" d="M227.067,556.072c-1.591-0.291-2.991-0.516-4.378-0.807c-6.999-1.471-13.436,0.309-19.677,3.328
		c-0.841,0.406-1.752,0.721-2.664,0.916c-2.315,0.494-4.634,1.041-6.98,1.301c-2.835,0.314-4.014-1.34-2.938-3.986
		c0.594-1.465,1.486-2.807,2.1-4.264c1.532-3.646,2.189-7.51,2.47-11.422c0.476-6.611,0.871-13.23,1.209-19.852
		c0.089-1.736-0.231-3.492-0.229-5.238c0.002-1.31-0.679-2.662,0.172-3.939c0.074-0.112,0.083-0.33,0.029-0.459
		c-1.796-4.309-2.004-8.957-2.935-13.453c-1.369-6.618-1.575-13.286-1.438-20.01c0.161-7.908,0.133-15.82,0.185-23.729
		c0.018-2.558,0.262-5.142-0.013-7.666c-0.386-3.556-1.082-7.082-1.789-10.593c-0.536-2.655-1.304-5.268-1.951-7.903
		c-0.091-0.369-0.084-0.765-0.136-1.275c1.739,0.125,2.793,2.799,5.015,1.086c-0.494-0.358-0.806-0.58-1.111-0.809
		c-1.338-0.996-2.79-1.873-3.984-3.019c-2.121-2.032-4.238-4.104-6.077-6.387c-2.596-3.219-4.998-6.598-7.373-9.986
		c-3.942-5.625-7.655-11.418-11.733-16.94c-3.42-4.631-6.851-9.286-9.276-14.468c-2.476-5.292-5.792-10.081-8.331-15.31
		c-3.133-6.453-6.215-12.932-9.361-19.379c-1.366-2.799-2.817-5.558-4.279-8.309c-0.283-0.532-0.795-0.941-1.302-1.523
		c-1.244,1.127-1.583,2.312-1.151,3.74c0.046,0.153,0.081,0.317,0.163,0.45c1.583,2.545,1.432,5.239,0.876,8.049
		c-0.849,4.291-1.468,8.628-2.307,12.922c-2.024,10.361-5.124,20.407-9.224,30.129c-1.794,4.255-3.853,8.4-5.846,12.57
		c-2.022,4.229-4.226,8.379-6.133,12.662c-1.309,2.938-3.33,5.432-4.735,8.271c-1.726,3.486-3.094,7.148-4.693,10.699
		c-2.522,5.602-3.319,11.682-4.23,17.607c-0.909,5.911-1.819,11.807-3.189,17.625c-2.468,10.485-5.161,20.916-9.364,30.866
		c-2.17,5.138-4.762,10.097-7.038,15.191c-2.893,6.475-6.367,12.705-8.502,19.498c-1.474,4.688-1.915,9.537-1.539,14.44
		c0.214,2.785,0.531,5.562,0.781,8.347c0.32,3.559-0.354,4.094-3.672,2.717c-2.419-1.004-4.728-2.277-7.154-3.266
		c-3.51-1.431-7.163-2.396-10.98-1.724c-2.335,0.412-4.671,1.017-6.883,1.859c-1.491,0.567-2.596,0.346-3.779-0.494
		c-1.493-1.061-1.744-2.141-0.669-3.646c0.596-0.836,1.397-1.521,2.029-2.334c2.907-3.743,4.943-7.987,6.935-12.25
		c2.504-5.36,4.415-10.94,5.894-16.664c0.858-3.321,1.592-6.657,1.605-10.137c0.02-5.613,1.141-11.104,2.148-16.598
		c1.48-8.072,3.01-16.137,4.578-24.191c1.34-6.887,2.699-13.771,4.17-20.631c1.404-6.547,2.949-13.062,4.471-19.584
		c0.271-1.162,0.689-2.297,1.118-3.414c1.512-3.945,2.636-7.973,3.082-12.199c0.577-5.477,1.349-10.93,1.97-16.399
		c0.305-2.683,0.34-5.396,0.714-8.067c0.319-2.282,1.139-4.5,1.398-6.784c0.539-4.762,2.704-8.979,4.146-13.438
		c0.479-1.482,0.67-3.062,0.942-4.606c0.167-0.941,0.168-1.913,0.362-2.846c1.193-5.735,1.584-11.561,1.555-17.383
		c-0.017-3.329-0.65-6.667-1.155-9.979c-0.432-2.83-1.154-5.615-1.592-8.444c-0.188-1.21-0.629-2.435-0.065-3.75
		c0.242-0.564-0.154-1.395-0.238-2.107c-0.27-2.294-0.606-4.583-0.771-6.885c-0.189-2.62-0.412-5.261-0.286-7.877
		c0.351-7.31,1.867-14.42,4.701-21.16c1.975-4.696,4.382-9.212,6.653-13.78c0.49-0.985,1.225-1.849,1.977-2.959
		c2.869,1.404,5.67,2.701,8.402,4.129c4.693,2.454,9.573,4.382,14.843,5.055c4.9,0.625,9.824,1.33,14.749,1.434
		c6.054,0.128,12.105-0.396,18.136-1.187c3.516-0.462,6.885-1.301,10.231-2.374c0.522-0.167,1.099-0.17,1.651-0.241
		c5.174-0.66,9.738-2.412,12.729-7.036c0.24-0.372,0.657-0.63,1.172-1.107c0.58,1.862,1.112,3.495,1.599,5.14
		c2.215,7.491,4.274,15.03,6.658,22.466c3.186,9.934,6.644,19.78,9.935,29.68c1.18,3.551,2.142,7.174,3.337,10.719
		c0.811,2.407,1.882,4.725,2.784,7.103c2.115,5.58,4.249,11.154,6.285,16.764c3.177,8.753,6.214,17.556,9.438,26.291
		c1.737,4.705,3.796,9.29,5.6,13.972c1.145,2.973,1.929,6.088,3.156,9.021c2.04,4.869,3.891,9.812,4.894,14.98
		c0.85,4.379,1.279,8.846,1.731,13.291c0.411,4.049,0.825,8.118,0.841,12.182c0.027,7.104-0.238,14.211-0.403,21.316
		c-0.152,6.553-1.067,13.034-1.811,19.536c-0.361,3.158-0.231,6.38-0.216,9.572c0.043,8.217,0.142,16.435,0.226,24.65
		c0.064,6.297,0.041,12.6,0.241,18.893c0.152,4.806,0.961,9.521,2.993,13.949C226.783,554.713,226.852,555.271,227.067,556.072z"/>
	<path fill="#FEE65E" d="M159.713,94.29c1.108,0.376,1.976,0.67,3.251,1.103c-2.219,2.11-4.739,1.634-7.229,1.888
		c0.71,0.584,1.24,1.021,1.796,1.477c-2.078,0.939-2.078,0.939-8.723-1.536c0.069,2.906,1.85,4.932,2.954,7.352
		c-1.218-1.213-2.577-2.319-3.617-3.669c-1.034-1.342-1.749-2.931-2.76-4.683c-1.137,3.423,0.044,6.469,0.625,9.938
		c-4.247-1.762-7.303-4.142-9.113-8.336c-0.96,2.135,0.098,3.884,0.137,5.631c0.039,1.724,0.868,3.43,1.322,5.046
		c-2.694-0.633-3.653-2.892-3.925-9.699c-2.637-0.119-3.134,0.294-4.404,3.383c-1.089,2.649-1.58,5.324-0.212,8.405
		c-1.376-0.6-1.974-1.199-2.196-2.224c-0.159-0.734-0.452-1.447-0.754-2.14c-0.683-1.568-1.409-3.117-2.194-4.841
		c-0.872,0-2.154,0.155-3.365-0.07c-0.551-0.103-1.037-0.909-1.413-1.487c-0.275-0.422-0.322-0.993-0.483-1.542
		c-2.069,1.387-0.664,3.445-1.237,5.473c-1.278-1.02-2.336-1.864-3.541-2.825c-0.369,1.092-0.682,2.19-1.111,3.242
		c-0.419,1.028-0.808,1.977-0.632,3.18c0.083,0.562-0.668,1.246-1.458,1.687c0-0.45-0.034-0.903,0.005-1.35
		c0.323-3.688-1.668-6.384-4.004-8.815c-0.532-0.554-1.817-0.385-3.222-0.63c1.204,4.208,1.754,8.003-1.886,10.947
		c1.444-3.586,0.253-7.097,0.132-11.028c-1.602,1.252-2,2.692-2.555,4.036c-1.008,2.437-2.729,4.206-5.435,5.809
		c0.171-1.335,0.192-2.252,0.418-3.115c0.555-2.12,0.375-4.06-0.798-5.978c-0.685-1.121-0.999-2.463-1.562-3.667
		c-0.207-0.443-0.65-0.776-1.33-0.986c0.047,0.26,0.042,0.545,0.149,0.777c0.993,2.137,1.062,2.444-0.621,3.917
		c-1.242,1.087-2.743,1.894-4.18,2.736c-0.686,0.402-1.698,0.762-1.938-0.394c-0.238-1.143,0.657-1.467,1.374-1.387
		c0.535-1.651,1.047-3.232,1.56-4.813c-0.097-0.034-0.194-0.067-0.291-0.101c-0.503,0.869-1.007,1.738-1.477,2.549
		c-1.587-0.128-3.022-0.245-4.773-0.386c1.806-1.006,3.221-1.916,4.015-3.594c0.79-1.668,0.452-3.344,0.073-5.021
		c-0.887,0.083-1.043,0.956-1.237,1.9c-0.704,3.44-3.192,5.445-6.609,5.284c-0.591-0.028-1.149-0.509-1.747-0.71
		c-0.586-0.198-1.469-0.635-1.763-0.398c-1.614,1.298-3.998,1.015-5.395,2.803c-0.416,0.533-1.479,0.561-2.394,0.633
		c3.13-3.238,5.863-6.457,3.177-11.54c-1.107,0.895-2.161,1.673-3.13,2.546c-2.165,1.951-3.993,2.583-6.678,2.062
		c1.628-1.199,3.732-1.471,4.635-3.333c0.78-1.608,2.923-2.194,2.988-4.471c-0.853,0.705-1.707,1.41-2.417,1.997
		c-0.682-0.064-1.315-0.228-1.924-0.164c-2.392,0.252-4.758,0.328-7.57-0.573c4.132-3.159,7.041-6.802,8.303-11.508
		c-0.138-0.089-0.277-0.178-0.415-0.268c-0.176,0.274-0.395,0.53-0.52,0.826c-0.835,1.966-0.904,2.044-2.981,2.014
		c-2.295-0.034-4.258-0.985-6.254-2.151c1.29-1.125,1.29-1.125,2.33-0.319c0.434-1.805,2.376-1.04,3.547-2.141
		c-0.416-0.078-0.651-0.145-0.89-0.162c-0.313-0.022-0.63-0.005-1.034-0.005c0-0.533,0-1.042,0-1.672
		c-1.08-0.395-2.562,0.053-3.087-1.627c0.484,0.102,0.893,0.183,1.301,0.273c2.506,0.553,4.638,0.107,6.564-1.805
		c1.456-1.445,3.286-2.513,4.916-3.725c0.407,0.318,0.689,0.538,0.947,0.739c0.204-0.107,0.375-0.148,0.473-0.255
		c1.717-1.892,3.429-3.789,5.133-5.692c0.319-0.357,0.644-0.721,0.896-1.125c2.774-4.468,5.578-8.918,8.282-13.429
		c1.929-3.218,3.817-6.469,5.54-9.8c1.758-3.399,3.218-6.951,4.946-10.366c1.404-2.775,2.953-5.482,4.562-8.144
		c0.473-0.782,1.307-1.397,2.082-1.935c2.878-1.999,6.027-3.442,9.465-4.159c0.561-0.117,1.216,0.222,1.971,0.38
		c2.734-1.497,5.916-1.262,9.081-1.044c3.63,0.249,3.628,0.277,4.623,1.156c3.271-1.657,6.551-1.093,9.646,0.318
		c5.254,2.396,9.133,6.175,11.548,11.581c2.229,4.99,3.434,10.071,3.167,15.524c-0.034,0.675,0.293,1.368,0.455,2.052
		c0.202,0.855,0.486,1.7,0.593,2.567c0.404,3.288,1.163,6.438,3.184,9.164c0.172,0.233,0.17,0.595,0.26,0.937
		c-1.585,1.419-1.96-1.251-3.287-0.841c0.703,3.791,2.166,7.226,5.128,9.98c-0.157,0.164-0.315,0.327-0.473,0.491
		c-0.958-0.276-1.906-0.59-2.877-0.81c-0.404-0.092-0.854,0.018-1.282,0.036c0.022,0.502-0.148,1.154,0.104,1.479
		c0.728,0.939,1.576,1.801,2.466,2.595c1.832,1.636,3.722,3.209,5.78,4.973c-1.616,0.692-3.086,0.121-4.659,0.133
		c-0.155,1.087-0.175,1.935,1.02,2.56c0.976,0.51,1.766,1.365,2.677,2.013c0.817,0.582,1.688,1.089,2.597,1.669
		c-1.289,0.91-2.695,0.869-4.206,0.412c-0.417-0.126-0.951,0.131-1.431,0.212c0.194,0.467,0.261,1.098,0.608,1.374
		c1.311,1.043,2.729,1.95,4.073,2.951c0.693,0.516,1.318,1.122,2.132,1.824c-1.482,0.484-2.777,0.907-4.154,1.356
		c1.014,0.723,1.887,1.575,2.932,2.026c1.08,0.466,1.156,1.825,2.386,2.135c1.116,0.281,2.144,0.917,3.941,1.725
		c-0.782,0.4-1.192,0.659-1.636,0.828C163.604,90.622,161.817,91.938,159.713,94.29z M72.062,78.951
		c0.628-0.292,1.257-0.584,1.885-0.876c-0.103-0.155-0.205-0.309-0.308-0.464C73.13,78.075,72.62,78.539,72.108,79
		c-0.913-0.061-1.491,0.401-1.728,1.369C70.941,79.896,71.502,79.424,72.062,78.951z M76.822,57.312
		c0.708-0.468,1.416-0.936,2.124-1.404c-0.11-0.127-0.221-0.254-0.331-0.381c-0.582,0.613-1.163,1.226-1.745,1.838
		c-0.573,0.32-1.146,0.64-1.719,0.959c0.114,0.149,0.228,0.298,0.342,0.448C75.936,58.286,76.379,57.8,76.822,57.312z
		 M126.968,95.047c-0.107,1.547-0.107,1.547,1.331,3.358c-0.557-1.354-0.961-2.34-1.366-3.325c-0.498-1.268-0.996-2.536-1.494-3.804
		c-0.414-1.209-0.828-2.418-1.242-3.627c0.143,2.197,0.276,2.52,1.274,3.588C125.365,92.745,125.508,94.154,126.968,95.047z
		 M81.442,72.511c-1.761,1.247-3.522,2.493-5.284,3.739c1.915-0.794,3.585-1.95,5.23-3.141c0.104-0.076,0.007-0.428,0.02-0.635
		c1.812-0.245,3.901-1.899,4.654-3.74C84.482,70.025,82.962,71.268,81.442,72.511z M112.522,89.207
		c-1.35,2.627-1.159,5.606-1.989,8.352c1.282-2.659,1.591-5.535,1.934-8.411c0.163-0.965,0.325-1.931,0.488-2.896
		c-0.144-0.006-0.289-0.013-0.433-0.02C112.522,87.224,112.522,88.215,112.522,89.207z M74.787,81.224c-2.149,0-4.299,0-6.622,0
		c1.759,1.371,4.167,1.301,6.583-0.037c2.016,0.106,3.812-0.467,5.608-1.912C78.309,79.992,76.548,80.607,74.787,81.224z
		 M83.91,50.016c2.25-1.312,2.687-3.723,3.556-5.87c-1.413,1.828-2.606,3.786-3.493,5.928c-0.602,0.446-1.178,0.91-1.312,1.654
		c0.15,0.079,0.3,0.158,0.45,0.237C83.377,51.314,83.644,50.666,83.91,50.016z M132.141,80.996
		c-0.216,0.101-0.432,0.203-0.648,0.304c1.634,4.144,3.267,8.289,4.9,12.433c-0.62-4.077-3.317-7.536-3.071-11.879
		c-0.217,0.191-0.367,0.323-0.543,0.478C132.564,81.88,132.352,81.438,132.141,80.996z M107.903,86.219
		c-1.839,3.596-3.137,7.542-7.379,9.88c1.606,0.34,2.154-0.358,2.705-1.009C105.439,92.475,107.121,89.583,107.903,86.219z
		 M104.16,81.498c-0.163-0.021-0.326-0.042-0.489-0.063c-0.797,4.16-1.594,8.32-2.39,12.48c0.155,0.028,0.31,0.057,0.464,0.085
		C102.55,89.833,103.354,85.666,104.16,81.498z M113.965,65.433c-0.165-0.033-0.329-0.065-0.494-0.099
		c-0.035,0.469-0.136,0.945-0.093,1.407c0.249,2.701,0.532,5.399,0.803,8.098c-0.072,0.003-0.144,0.005-0.216,0.008
		C113.965,71.709,113.965,68.572,113.965,65.433z M86.53,55.412c-0.174-0.149-0.349-0.298-0.524-0.447
		c-1.566,2.252-3.132,4.504-4.698,6.757C83.516,59.952,85.235,57.834,86.53,55.412z M138.015,95.34
		c-3.248-0.683-4.774-2.908-7.01-5.094C133.197,94.011,135.579,95.86,138.015,95.34z M152.596,77.939
		c-1.009-1.128-1.809-2.002-2.585-2.897c-0.772-0.89-1.521-1.801-2.279-2.703c-0.116,0.103-0.232,0.207-0.349,0.31
		c1.389,1.814,2.772,3.634,4.188,5.427C151.64,78.165,151.995,78.027,152.596,77.939z M154.106,96.728
		c-0.106-0.807,0.01-1.477-0.268-1.756c-1.001-1.009-2.135-1.887-3.383-2.955C151.107,93.983,152.311,95.318,154.106,96.728z
		 M133.663,77.16c0.032,0,0.064,0,0.097,0c0-2.86,0-5.72,0-8.58c-0.032,0-0.064,0-0.097,0
		C133.663,71.439,133.663,74.3,133.663,77.16z M146.066,70.67c0.153-0.145,0.307-0.289,0.46-0.434
		c-1.375-1.856-2.75-3.712-4.125-5.567c-0.156,0.114-0.312,0.228-0.468,0.342C143.311,66.897,144.689,68.785,146.066,70.67z
		 M119.838,66.209c-0.022,0-0.043-0.001-0.065-0.002c0,2.59,0,5.181,0,7.771c0.022,0,0.043,0.001,0.065,0.002
		C119.838,71.39,119.838,68.8,119.838,66.209z M90.519,57.402c0.043,0.003,0.087,0.006,0.13,0.009c0-1.167,0.042-2.336-0.013-3.5
		c-0.05-1.074,0.229-2.203-0.175-3.234c-0.17,0.016-0.34,0.031-0.511,0.047C90.14,52.952,90.33,55.177,90.519,57.402z
		 M131.376,67.212c-0.032,0.009-0.063,0.019-0.095,0.029c0,2.543,0,5.086,0,7.629c0.031-0.001,0.063-0.002,0.095-0.003
		C131.376,72.316,131.376,69.765,131.376,67.212z M89.598,89.25c2.186-0.228,2.76-0.526,3.306-1.692
		c0.109-0.231-0.137-0.629-0.277-1.179C91.59,87.363,90.766,88.144,89.598,89.25z M119.178,86.441
		c0.203-0.018,0.406-0.035,0.609-0.053c-0.155-2.109-0.31-4.218-0.464-6.328c-0.048-0.001-0.096-0.002-0.145-0.003
		C119.178,82.186,119.178,84.313,119.178,86.441z M78.006,87.084c-0.084-0.124-0.168-0.248-0.252-0.372
		c-1.529,0.879-3.059,1.758-4.588,2.637c0.073,0.125,0.147,0.25,0.22,0.375C74.926,88.845,76.466,87.965,78.006,87.084z
		 M123.681,63.6c-0.031,0-0.062,0.001-0.094,0.002c0,1.691,0,3.383,0,5.075c0.031,0,0.062-0.001,0.094-0.001
		C123.681,66.982,123.681,65.291,123.681,63.6z M85.906,66.029c0.14,0.101,0.281,0.202,0.421,0.303
		c0.74-0.937,1.479-1.873,2.219-2.81c-0.179-0.13-0.357-0.261-0.535-0.392C87.309,64.097,86.607,65.062,85.906,66.029z
		 M84.007,67.095c0.031,0.045,0.063,0.09,0.095,0.136c1.224,0,2.448,0,3.671,0c-0.002-0.046-0.003-0.091-0.005-0.136
		C86.514,67.095,85.26,67.095,84.007,67.095z M145.239,81.554c0.035-0.034,0.069-0.069,0.103-0.103
		c-0.571-0.517-1.142-1.033-1.882-1.702C144.159,80.458,144.699,81.006,145.239,81.554z M155.401,91.819
		c-0.002,0.133-0.004,0.266-0.005,0.399c0.694,0.119,1.39,0.238,2.085,0.358c0.023-0.22,0.048-0.44,0.071-0.66
		C156.836,91.884,156.118,91.852,155.401,91.819z M158.464,81.658c-1.115-1.564-1.654-0.063-2.779,0
		C156.777,81.658,157.457,81.658,158.464,81.658z M78.328,64.615c0.08,0.07,0.16,0.14,0.24,0.21c0.513-0.532,1.026-1.063,1.54-1.596
		c-0.106-0.094-0.213-0.189-0.319-0.284C79.302,63.501,78.815,64.058,78.328,64.615z M113.972,80.813c0.043,0,0.087,0,0.13,0
		c0-0.743,0-1.486,0-2.229c-0.043,0-0.086,0-0.13,0C113.972,79.328,113.972,80.071,113.972,80.813z M157.56,89.994
		c-0.053,0.17-0.104,0.34-0.156,0.51c0.825,0.298,1.65,0.596,2.476,0.894c0.048-0.14,0.097-0.279,0.145-0.419
		C159.203,90.649,158.382,90.322,157.56,89.994z M91.022,76.076c0.005-0.127,0.01-0.255,0.016-0.382
		c-0.346-0.039-0.693-0.078-1.039-0.117c0.018,0.151,0.015,0.428,0.056,0.434C90.372,76.062,90.699,76.061,91.022,76.076z
		 M107.179,76.377c0,1.029,0,1.561,0,2.25C108.255,77.9,107.424,77.398,107.179,76.377z M147.567,92.208
		c-0.186-0.404-0.362-0.788-0.638-1.389C146.186,92.495,146.604,92.63,147.567,92.208z M87.69,86.104
		c0.117,0.117,0.235,0.232,0.352,0.349c0.47-0.453,0.94-0.905,1.41-1.358c-0.109-0.109-0.219-0.217-0.329-0.326
		C88.646,85.214,88.168,85.66,87.69,86.104z M108.507,70.987c-1.106,0.591-0.643,1.156-0.173,1.827
		C108.394,72.178,108.444,71.646,108.507,70.987z M154.201,75.536c-0.364-1.025-0.364-1.025-1.659-1.01
		C153.25,74.956,153.676,75.216,154.201,75.536z M96.52,82.277c0.079,0.166,0.158,0.332,0.237,0.498
		c0.373-0.218,0.745-0.436,1.118-0.654c-0.072-0.133-0.145-0.266-0.216-0.399C97.279,81.908,96.899,82.093,96.52,82.277z
		 M129.695,88.888c0.131-0.079,0.262-0.157,0.393-0.235c-0.349-0.576-0.698-1.151-1.047-1.727c-0.121,0.072-0.24,0.144-0.361,0.215
		C129.018,87.723,129.356,88.305,129.695,88.888z M131.839,78.388c-0.034,0-0.067,0-0.101,0.001c0,0.401,0,0.802,0,1.204
		c0.034,0,0.067-0.001,0.101-0.001C131.839,79.189,131.839,78.789,131.839,78.388z M81.599,67.17
		c-0.092-0.027-0.184-0.054-0.275-0.081c-0.184,0.42-0.367,0.839-0.551,1.259c0.164,0.053,0.328,0.105,0.492,0.158
		C81.376,68.062,81.488,67.617,81.599,67.17z M137.15,72.898c0.153-0.146,0.306-0.292,0.459-0.437
		c-0.336-0.31-0.673-0.62-1.009-0.929c-0.091,0.087-0.182,0.174-0.273,0.261C136.601,72.163,136.875,72.531,137.15,72.898z
		 M93.512,92.781c-0.107,0.047-0.214,0.094-0.321,0.141c0.182,0.438,0.364,0.876,0.545,1.313c0.124-0.054,0.248-0.108,0.372-0.163
		C93.909,93.642,93.71,93.211,93.512,92.781z M144.396,91.069c-0.077-0.015-0.153-0.03-0.229-0.045
		c-0.064,0.259-0.163,0.515-0.181,0.777c-0.014,0.202,0.074,0.411,0.116,0.617c0.098-0.016,0.196-0.031,0.294-0.047
		C144.396,91.938,144.396,91.503,144.396,91.069z M74.068,59.814c-0.076-0.101-0.153-0.202-0.229-0.303
		c-0.364,0.285-0.728,0.569-1.091,0.854c0.064,0.087,0.128,0.174,0.193,0.261C73.316,60.355,73.692,60.084,74.068,59.814z"/>
	<path fill="#424143" d="M58.328,560.508c-1.353,1.896-0.99,3.869-0.753,5.854c0.245,2.058,0.282,4.144,0.614,6.183
		c0.343,2.106,0.845,4.198,1.437,6.252c0.55,1.91,1.392,3.733,1.959,5.639c0.978,3.285,0.351,6.238-1.853,8.943
		c-2.288,2.809-4.768,5.282-8.019,7.03c-2.644,1.423-5.341,2.045-8.279,1.795c-4.983-0.426-9.507-1.967-13.087-5.631
		c-4.596-4.705-5.112-10.395-3.772-16.457c0.181-0.815,0.823-1.532,1.256-2.291c2.248-3.938,4.486-7.883,6.751-11.812
		c0.831-1.439,1.004-2.996,1.021-4.613c0.013-1.264,0.115-2.524,0.18-3.85c2.855-0.9,5.223-2.697,8.248-2.658
		c2.251,0.029,4.515,0.076,6.535,1.141C53.099,557.363,55.533,558.883,58.328,560.508z"/>
	<path fill="#424143" d="M214.579,604.559c-0.837,0-1.676,0.031-2.511-0.006c-2.628-0.115-5.278-0.074-7.875-0.424
		c-5.183-0.697-8.593-3.888-10.884-8.396c-0.611-1.203-1.009-2.514-1.528-3.764c-1.278-3.08-0.804-5.996,1.122-8.582
		c1.313-1.764,1.807-3.674,1.97-5.766c0.222-2.865,0.495-5.728,0.674-8.595c0.089-1.424,0.016-2.856,0.016-4.33
		c0.454-0.305,0.815-0.625,1.234-0.813c4.563-2.07,9.177-4.014,13.912-5.666c2.609-0.91,5.3-1.064,8.018-1.043
		c0.443,0.002,0.886,0.242,1.6,0.453c-0.278,0.909-0.513,1.717-0.771,2.516c-1.398,4.316-2.728,8.707-2.761,13.24
		c-0.025,3.561,0.763,7.143,2.53,10.352c1.541,2.795,3.169,5.547,4.82,8.279c1.492,2.469,1.532,3.129-0.301,5.32
		c-1.994,2.383-4.045,4.721-6.11,7.041c-2.959,3.325-6.848,3.76-10.943,3.338c-1.097-0.113-2.188-0.478-3.229-0.867
		c-0.851-0.318-1.622-0.85-2.351-1.479c4.523,0.548,8.967,1.125,13.386,0.054C214.591,605.133,214.585,604.846,214.579,604.559z"/>
	<path fill="#FEE5D2" d="M50.684,285.095c2.628,6.777,5.237,13.46,5.904,20.674c0.286,3.095,0.019,6.222-0.902,9.237
		c-0.563,1.845-1.065,2.33-3.073,3.089c-1.195-0.906-1.245-2.318-1.296-3.62c-0.233-5.807-1.816-11.27-3.973-16.611
		c-0.504-1.249-0.8-2.581-1.272-3.844c-0.257-0.687-0.683-1.309-1.104-2.092c-1.243,0.899-1.704,1.854-1.708,3.031
		c-0.004,1.277-0.059,2.566,0.082,3.831c0.371,3.349-0.261,6.524-1.527,9.591c-2.26,5.475-2.245,10.979-0.479,16.581
		c0.633,2.008,1.544,4.081,0.374,6.265c-1.444,0.524-2.142-0.525-2.72-1.396c-1-1.508-1.945-3.084-2.659-4.741
		c-0.586-1.362-0.83-2.878-1.173-4.338c-0.17-0.722-0.221-1.472-0.344-2.331c-1.295,0.59-1.194,1.435-0.97,2.173
		c0.597,1.968,1.207,3.941,1.989,5.839c0.379,0.922,0.607,1.691,0.322,2.702c-1.125,3.995-0.957,7.841,1.31,11.505
		c1.235,1.997,1.543,4.299,1.541,6.721c-1.029,0.107-1.356-0.568-1.665-1.163c-1.579-3.035-3.155-6.071-4.673-9.136
		c-0.806-1.625-1.493-3.31-2.295-5.108c-0.775,0.352-1.057,0.782-0.732,1.506c0.911,2.031,1.838,4.055,2.75,6.086
		c0.945,2.104,1.871,4.218,2.822,6.319c0.377,0.834-0.036,1.484-0.654,1.803c-0.324,0.167-1.173-0.104-1.405-0.44
		c-1.083-1.568-2.154-3.167-3.009-4.866c-2.823-5.61-3.55-11.541-2.385-17.701c0.46-2.43,1.091-4.833,1.446-7.277
		c0.583-4.018,1.016-8.058,1.493-12.091c0.336-2.845,0.619-5.696,0.981-8.537c0.054-0.422,0.324-0.909,0.647-1.188
		c3.493-3.014,6.997-6.024,10.991-8.375C45.545,285.882,47.973,285.211,50.684,285.095z"/>
	<path fill="#FEE5D2" d="M244.771,291.368c-0.46,0.83-0.902,1.38-1.089,2.006c-1.419,4.776-4.816,8.027-8.595,10.884
		c-1.565,1.184-3.531,1.913-5.848,0.575c0.405-1.021,0.634-2.132,1.227-2.992c2.212-3.207,3.626-6.75,4.489-10.498
		c0.396-1.723,1.287-2.5,2.941-2.477c1.349,0.019,2.721,0.024,4.038,0.274c3.443,0.653,6.852,1.492,10.295,2.15
		c2.26,0.432,4.555,0.68,6.894,1.019c0.322,6.779,1.677,13.172,2.902,19.585c0.421,2.204-0.097,4.235-0.987,6.273
		c-1.912,4.375-3.714,8.798-5.505,13.226c-0.505,1.249-0.79,2.586-1.223,3.867c-0.177,0.522-0.429,1.035-0.733,1.496
		c-0.508,0.77-1.207,1.378-2.191,1.14c-1.11-0.269-1.086-1.299-1.086-2.153c-0.004-6.109,1.228-11.983,3.033-17.815
		c0.855-2.764,0.823-5.803,1.184-8.718c0.243-1.962,0.477-3.925,0.686-5.891c0.02-0.182-0.168-0.386-0.353-0.776
		c-1.109,0.897-1.277,1.963-1.359,3.173c-0.199,2.939-0.506,5.871-0.8,8.803c-0.261,2.611-1.3,4.918-2.866,7
		c-1.201,1.596-2.354,3.234-3.638,4.762c-1.396,1.661-3.182,2.552-5.829,2.289c1.11-3.027,2.06-5.887,3.201-8.668
		c2.365-5.763,2.586-11.755,2.261-17.858c-0.117-2.217,0.126-4.46,0.293-6.686C246.274,293.221,246.234,292.891,244.771,291.368z"/>
	<path fill="#424143" d="M26.949,596.619c2.049,1.578,3.592,2.957,5.315,4.056c5.22,3.328,10.949,4.289,16.903,2.731
		c3.938-1.028,7.097-3.555,9.81-6.582c0.479-0.534,0.953-1.073,1.448-1.594c0.098-0.102,0.286-0.115,0.56-0.219
		c-0.051,1.941-1.049,3.402-2.294,4.578c-1.786,1.688-3.59,3.414-5.964,4.336c-0.738,0.287-1.493,0.627-2.114,1.104
		c-2.721,2.101-5.795,2.429-9.069,2.011c-4.088-0.521-7.974-1.479-11.124-4.404C28.744,601.082,27.573,599.291,26.949,596.619z"/>
	<path fill="#FEE5D2" d="M259.946,339.729c-2.796-1.75-3.751-3.849-3.263-6.875c0.359-2.227,1.35-4.678,2.557-6.272
		C259.474,330.941,259.705,335.24,259.946,339.729z"/>
	<path d="M132.141,80.996c0.211,0.442,0.423,0.884,0.639,1.335c0.176-0.155,0.326-0.287,0.543-0.478
		c-0.247,4.343,2.451,7.802,3.071,11.879c-1.633-4.144-3.267-8.289-4.9-12.433C131.709,81.199,131.925,81.097,132.141,80.996z"/>
	<path d="M107.903,86.219c-0.782,3.365-2.464,6.256-4.674,8.871c-0.551,0.651-1.099,1.35-2.705,1.009
		C104.766,93.762,106.064,89.814,107.903,86.219z"/>
	<path d="M104.16,81.498c-0.805,4.167-1.61,8.335-2.415,12.502c-0.155-0.028-0.31-0.057-0.464-0.085
		c0.796-4.16,1.593-8.32,2.39-12.48C103.833,81.456,103.996,81.477,104.16,81.498z"/>
	<path d="M113.965,65.433c0,3.138,0,6.276,0,9.415c0.072-0.003,0.144-0.005,0.216-0.008c-0.271-2.699-0.554-5.397-0.803-8.098
		c-0.043-0.462,0.059-0.938,0.093-1.407C113.636,65.368,113.8,65.4,113.965,65.433z"/>
	<path d="M86.53,55.412c-1.295,2.424-3.014,4.54-5.222,6.31c1.566-2.252,3.132-4.504,4.698-6.757
		C86.181,55.113,86.356,55.262,86.53,55.412z"/>
	<path d="M138.015,95.34c-2.436,0.521-4.819-1.329-7.01-5.094C133.241,92.432,134.767,94.657,138.015,95.34z"/>
	<path d="M152.596,77.939c-0.601,0.087-0.956,0.225-1.025,0.137c-1.416-1.793-2.798-3.613-4.188-5.427
		c0.116-0.103,0.232-0.207,0.349-0.31c0.759,0.902,1.507,1.812,2.279,2.703C150.787,75.938,151.586,76.812,152.596,77.939z"/>
	<path d="M83.967,50.068c0.893-2.137,2.086-4.095,3.499-5.923c-0.869,2.147-1.305,4.558-3.556,5.87L83.967,50.068z"/>
	<path d="M154.106,96.728c-1.795-1.409-2.999-2.744-3.65-4.711c1.248,1.068,2.382,1.945,3.383,2.955
		C154.116,95.25,154,95.92,154.106,96.728z"/>
	<path d="M74.739,81.179c-2.406,1.346-4.815,1.416-6.574,0.045c2.323,0,4.473,0,6.622,0L74.739,81.179z"/>
	<path d="M133.663,77.16c0-2.86,0-5.72,0-8.58c0.032,0,0.064,0,0.097,0c0,2.86,0,5.72,0,8.58
		C133.727,77.16,133.695,77.16,133.663,77.16z"/>
	<path d="M112.477,89.159c-0.354,2.866-0.662,5.741-1.944,8.4c0.83-2.746,0.639-5.725,1.989-8.352L112.477,89.159z"/>
	<path d="M146.066,70.67c-1.377-1.886-2.755-3.772-4.132-5.659c0.156-0.114,0.312-0.228,0.468-0.342
		c1.375,1.855,2.75,3.711,4.125,5.567C146.373,70.382,146.22,70.525,146.066,70.67z"/>
	<path d="M119.838,66.209c0,2.59,0,5.18,0,7.771c-0.022,0-0.043-0.001-0.065-0.002c0-2.59,0-5.181,0-7.771
		C119.794,66.208,119.816,66.208,119.838,66.209z"/>
	<path d="M90.519,57.402c-0.189-2.226-0.379-4.452-0.568-6.678c0.17-0.016,0.34-0.031,0.511-0.047
		c0.404,1.031,0.125,2.16,0.175,3.234c0.055,1.164,0.013,2.333,0.013,3.5C90.606,57.41,90.563,57.406,90.519,57.402z"/>
	<path d="M131.376,67.212c0,2.552,0,5.104,0,7.655c-0.032,0.001-0.063,0.002-0.095,0.003c0-2.543,0-5.086,0-7.629
		C131.312,67.231,131.344,67.223,131.376,67.212z"/>
	<path d="M89.598,89.25c1.168-1.107,1.992-1.888,3.029-2.871c0.141,0.55,0.386,0.948,0.277,1.179
		C92.358,88.725,91.784,89.022,89.598,89.25z"/>
	<path d="M119.178,86.441c0-2.128,0-4.256,0-6.384c0.048,0.001,0.096,0.002,0.145,0.003c0.155,2.109,0.31,4.219,0.464,6.328
		C119.584,86.407,119.381,86.424,119.178,86.441z"/>
	<path d="M81.393,72.457c0.003,0.224,0.1,0.576-0.004,0.652c-1.645,1.191-3.315,2.346-5.23,3.141
		c1.762-1.246,3.523-2.492,5.284-3.739L81.393,72.457z"/>
	<path d="M81.442,72.511c1.52-1.243,3.04-2.485,4.62-3.777c-0.753,1.841-2.842,3.495-4.662,3.732
		C81.393,72.457,81.442,72.511,81.442,72.511z"/>
	<path d="M78.006,87.084c-1.54,0.88-3.08,1.76-4.62,2.641c-0.073-0.125-0.147-0.25-0.22-0.375c1.529-0.879,3.059-1.758,4.588-2.637
		C77.838,86.836,77.922,86.96,78.006,87.084z"/>
	<path d="M74.787,81.224c1.761-0.616,3.522-1.232,5.569-1.949c-1.797,1.445-3.592,2.018-5.613,1.908
		C74.739,81.179,74.787,81.224,74.787,81.224z"/>
	<path d="M123.681,63.6c0,1.692,0,3.383,0,5.075c-0.031,0-0.062,0.001-0.094,0.001c0-1.691,0-3.383,0-5.075
		C123.618,63.601,123.649,63.6,123.681,63.6z"/>
	<path d="M85.906,66.029c0.702-0.966,1.404-1.933,2.105-2.898c0.178,0.13,0.356,0.261,0.535,0.392
		c-0.74,0.937-1.479,1.873-2.219,2.81C86.186,66.23,86.046,66.13,85.906,66.029z"/>
	<path d="M84.007,67.095c1.253,0,2.507,0,3.761,0c0.002,0.045,0.003,0.09,0.005,0.136c-1.224,0-2.448,0-3.671,0
		C84.07,67.185,84.038,67.14,84.007,67.095z"/>
	<path d="M145.239,81.554c-0.54-0.548-1.08-1.096-1.779-1.805c0.74,0.669,1.311,1.186,1.882,1.702
		C145.307,81.484,145.273,81.52,145.239,81.554z"/>
	<path d="M155.401,91.819c0.717,0.032,1.435,0.064,2.151,0.097c-0.023,0.22-0.048,0.44-0.071,0.66
		c-0.695-0.12-1.391-0.239-2.085-0.358C155.397,92.085,155.399,91.953,155.401,91.819z"/>
	<path d="M125.481,91.225c-1.007-1.057-1.141-1.379-1.284-3.577c0.414,1.209,0.828,2.418,1.242,3.627L125.481,91.225z"/>
	<path d="M158.464,81.658c-1.007,0-1.687,0-2.779,0C156.809,81.595,157.348,80.093,158.464,81.658z"/>
	<path d="M78.328,64.615c0.487-0.557,0.974-1.113,1.46-1.67c0.106,0.095,0.212,0.19,0.319,0.284
		c-0.513,0.532-1.026,1.064-1.54,1.596C78.488,64.755,78.409,64.685,78.328,64.615z"/>
	<path d="M125.439,91.274c0.498,1.269,0.996,2.536,1.494,3.804l0.05-0.047c-1.475-0.878-1.619-2.288-1.507-3.802
		C125.481,91.225,125.439,91.274,125.439,91.274z"/>
	<path d="M113.972,80.813c0-0.743,0-1.486,0-2.229c0.043,0,0.087,0,0.13,0c0,0.743,0,1.486,0,2.229
		C114.058,80.813,114.015,80.813,113.972,80.813z"/>
	<path d="M126.933,95.079c0.405,0.985,0.809,1.971,1.366,3.325c-1.438-1.811-1.438-1.811-1.323-3.365
		C126.983,95.032,126.933,95.079,126.933,95.079z"/>
	<path d="M157.56,89.994c0.821,0.328,1.643,0.657,2.464,0.985c-0.048,0.14-0.097,0.279-0.145,0.419
		c-0.825-0.298-1.65-0.596-2.476-0.894C157.456,90.333,157.508,90.163,157.56,89.994z"/>
	<path d="M91.022,76.076c-0.323-0.015-0.65-0.014-0.967-0.064c-0.041-0.006-0.039-0.283-0.056-0.434
		c0.346,0.039,0.693,0.078,1.039,0.117C91.032,75.821,91.027,75.949,91.022,76.076z"/>
	<path d="M107.179,76.377c0.245,1.021,1.076,1.523,0,2.25C107.179,77.938,107.179,77.407,107.179,76.377z"/>
	<path d="M76.871,57.367c0.581-0.613,1.163-1.226,1.744-1.838c0.11,0.127,0.22,0.254,0.331,0.381
		c-0.708,0.468-1.416,0.936-2.124,1.404L76.871,57.367z"/>
	<path d="M147.567,92.208c-0.962,0.421-1.381,0.286-0.638-1.389C147.205,91.42,147.381,91.805,147.567,92.208z"/>
	<path d="M112.522,89.207c0-0.992,0-1.983,0-2.975c0.144,0.007,0.289,0.013,0.433,0.02c-0.163,0.966-0.325,1.931-0.482,2.902
		C112.477,89.159,112.522,89.207,112.522,89.207z"/>
	<path d="M87.69,86.104c0.478-0.445,0.956-0.89,1.433-1.335c0.11,0.108,0.22,0.217,0.329,0.326c-0.47,0.453-0.94,0.905-1.41,1.358
		C87.925,86.336,87.807,86.221,87.69,86.104z"/>
	<path d="M108.507,70.987c-0.062,0.659-0.113,1.19-0.173,1.827C107.864,72.143,107.4,71.579,108.507,70.987z"/>
	<path d="M154.201,75.536c-0.525-0.319-0.951-0.579-1.659-1.01C153.837,74.511,153.837,74.511,154.201,75.536z"/>
	<path d="M96.52,82.277c0.379-0.185,0.759-0.37,1.139-0.556c0.072,0.133,0.144,0.267,0.216,0.399
		c-0.373,0.218-0.746,0.436-1.118,0.654C96.678,82.609,96.598,82.443,96.52,82.277z"/>
	<path d="M72.111,79.002c0.51-0.464,1.019-0.928,1.528-1.392c0.103,0.155,0.206,0.309,0.308,0.464
		c-0.628,0.292-1.256,0.584-1.885,0.876L72.111,79.002z"/>
	<path d="M129.695,88.888c-0.338-0.583-0.677-1.165-1.015-1.747c0.121-0.072,0.24-0.144,0.361-0.215
		c0.349,0.576,0.698,1.151,1.047,1.727C129.956,88.729,129.826,88.809,129.695,88.888z"/>
	<path d="M72.062,78.951c-0.561,0.473-1.122,0.945-1.683,1.417c0.237-0.967,0.815-1.429,1.729-1.367
		C72.111,79.002,72.062,78.951,72.062,78.951z"/>
	<path d="M131.839,78.388c0,0.401,0,0.802,0,1.204c-0.034,0-0.067,0-0.101,0.001c0-0.401,0-0.802,0-1.204
		C131.771,78.388,131.805,78.388,131.839,78.388z"/>
	<path d="M81.599,67.17c-0.111,0.446-0.223,0.891-0.335,1.336c-0.164-0.053-0.328-0.105-0.492-0.158
		c0.184-0.42,0.368-0.839,0.551-1.259C81.416,67.118,81.508,67.144,81.599,67.17z"/>
	<path d="M137.15,72.898c-0.274-0.368-0.549-0.737-0.824-1.105c0.091-0.087,0.182-0.174,0.273-0.261
		c0.336,0.31,0.673,0.62,1.009,0.929C137.456,72.607,137.303,72.753,137.15,72.898z"/>
	<path d="M93.512,92.781c0.198,0.431,0.397,0.861,0.596,1.292c-0.124,0.054-0.248,0.108-0.372,0.163
		c-0.182-0.438-0.364-0.876-0.545-1.313C93.297,92.875,93.404,92.828,93.512,92.781z"/>
	<path d="M83.91,50.016c-0.267,0.65-0.533,1.299-0.8,1.949c-0.15-0.079-0.3-0.158-0.45-0.237c0.134-0.744,0.71-1.208,1.31-1.657
		C83.967,50.068,83.91,50.016,83.91,50.016z"/>
	<path d="M144.396,91.069c0,0.434,0,0.869,0,1.303c-0.098,0.016-0.196,0.031-0.294,0.047c-0.042-0.206-0.13-0.415-0.116-0.617
		c0.018-0.262,0.117-0.519,0.181-0.777C144.243,91.039,144.319,91.055,144.396,91.069z"/>
	<path d="M74.068,59.814c-0.376,0.271-0.751,0.541-1.127,0.812c-0.064-0.087-0.129-0.174-0.193-0.261
		c0.364-0.284,0.728-0.569,1.091-0.854C73.915,59.613,73.992,59.714,74.068,59.814z"/>
	<path d="M76.822,57.312c-0.443,0.486-0.885,0.973-1.328,1.459c-0.114-0.149-0.228-0.298-0.342-0.448
		c0.573-0.319,1.146-0.639,1.72-0.959C76.871,57.367,76.822,57.312,76.822,57.312z"/>
</g>
</svg>
