<?xml version="1.0" encoding="utf-8"?>
<!-- Generator: Adobe Illustrator 16.0.4, SVG Export Plug-In . SVG Version: 6.00 Build 0)  -->
<!DOCTYPE svg PUBLIC "-//W3C//DTD SVG 1.1//EN" "http://www.w3.org/Graphics/SVG/1.1/DTD/svg11.dtd">
<svg version="1.1" id="Layer_1" xmlns="http://www.w3.org/2000/svg" xmlns:xlink="http://www.w3.org/1999/xlink" x="0px" y="0px"
	 width="472.082px" height="305.595px" viewBox="0 0 472.082 305.595" enable-background="new 0 0 472.082 305.595"
	 xml:space="preserve">
<g>
	<path d="M383.493,281.54c1.074,0.208,1.805,0.256,2.465,0.495c1.236,0.447,1.944,1.383,2.006,2.717
		c0.061,1.288-0.773,2.528-2.11,2.867c-0.99,0.25-2.053,0.271-3.086,0.29c-27.592,0.537-55.183,1.048-82.772,1.586
		c-93.409,1.823-186.816,3.655-280.224,5.482c-0.718,0.014-1.446,0.065-2.157-0.01c-1.809-0.188-2.918-1.279-2.994-2.859
		c-0.073-1.522,0.786-2.617,2.462-3.086c0.453-0.127,0.933-0.157,1.693-0.279c-0.271-1.507-0.478-2.977-0.803-4.421
		c-1.891-8.438-3.128-16.959-3.318-25.615c-0.087-3.994-0.219-7.99-0.159-11.982c0.026-1.72,0.646-3.428,0.729-5.155
		c0.489-10.217,0.97-20.438,1.314-30.661c0.242-7.207,1.189-14.331,2.069-21.468c0.352-2.851,0.637-5.712,1.072-8.551
		c0.336-2.192,1.09-4.342,1.253-6.541c0.353-4.75,0.43-9.521,0.649-14.282c0.185-4.042,0.453-8.081,0.596-12.124
		c0.087-2.392,0.269-4.828-0.058-7.177c-0.844-6.051-0.531-12.116-0.631-18.179c-0.035-2.153-0.176-4.312-0.415-6.453
		c-0.795-7.141-1.869-14.272-1.687-21.472c0.083-3.32,0.693-6.642,1.242-9.935c0.984-5.905,2.138-11.783,3.149-17.684
		c0.633-3.693,1.134-7.41,1.7-11.114c0.06-0.394,0.109-0.8,0.247-1.169c1.344-3.583,1.233-7.329,1.32-11.062
		c0.075-3.274,0.277-6.546,2.206-9.388c0.481-0.712,1.015-1.402,1.614-2.016c0.778-0.799,1.674-1.481,2.464-2.267
		c2.447-2.434,5.323-2.975,8.563-2.032c0.532,0.155,1.076,0.261,1.497,0.364c0.797-1.688,1.414-3.408,2.373-4.911
		c0.981-1.536,2.306-2.854,3.467-4.278c1.234-1.513,3.033-2.183,4.761-2.607c1.902-0.467,3.958-0.447,5.942-0.406
		c1.385,0.029,2.213,1.146,2.924,2.249c0.511,0.792,1.034,1.575,1.688,2.57c0.465-0.62,0.722-1.085,1.091-1.434
		c1.143-1.081,2.167-2.508,3.536-3.082c2.329-0.974,4.857-1.576,7.357-2.004c2.948-0.505,5.493,0.643,7.293,2.972
		c1.586-2.815,3.993-4.755,6.449-6.646c1.54-1.184,3.197-2.05,5.201-2.192c1.749-0.125,3.354,0.173,4.68,1.342
		c1.177,1.04,2.732,1.584,3.544,3.119c1.516,2.862,1.476,5.792,0.729,8.804c-0.171,0.69-0.416,1.361-0.664,2.156
		c2.507,1.3,5.162,1.333,7.758,1.47c1.827,0.098,3.671-0.209,5.506-0.19c6.619,0.07,13.236,0.292,19.854,0.276
		c4.46-0.011,8.92-0.33,13.382-0.501c3.508-0.135,7.021-0.188,10.524-0.397c9.318-0.558,18.631-1.199,27.948-1.774
		c11.244-0.695,22.489-1.264,33.762-1.454c9.824-0.166,19.638-0.855,29.46-1.256c4.938-0.201,9.883-0.256,14.824-0.417
		c3.907-0.128,7.811-0.368,11.719-0.459c2.394-0.055,4.792,0.15,7.186,0.107c11.902-0.212,23.806-0.569,35.711-0.667
		c6.464-0.053,12.931,0.332,19.398,0.481c5.341,0.124,10.681,0.187,16.021,0.284c7.249,0.132,14.497,0.258,21.744,0.417
		c5.99,0.132,11.979,0.329,17.969,0.447c1.989,0.038,3.982-0.08,6.062-0.128c0.307-0.641,0.662-1.178,0.828-1.768
		c0.722-2.563,2.712-4.29,4.158-6.367c0.271-0.387,0.921-0.683,1.415-0.711c5.448-0.311,10.477,0.8,14.698,4.517
		c1.378,1.212,2.711,2.489,4.18,3.583c2.683,1.998,3.85,4.783,4.495,7.918c0.771,3.746,1.625,7.477,2.379,11.225
		c0.267,1.318,0.349,2.671,0.532,4.129c1.408-0.393,2.713-0.732,4.004-1.116c4.817-1.432,8.981,1.434,9.532,6.435
		c0.296,2.686-0.278,5.223-0.812,7.795c-0.516,2.479-0.995,4.964-1.492,7.447c0.156,0.092,0.313,0.186,0.472,0.278
		c0.886-0.758,1.77-1.523,2.666-2.273c2.798-2.345,5.419-4.925,8.77-6.528c0.574-0.276,1.13-0.614,1.729-0.811
		c5.287-1.726,5.67-0.738,7.36,4.023c0.672,1.895,0.496,4.078-0.27,6.108c-0.384,1.02-0.486,2.142-0.771,3.204
		c-0.452,1.69-0.929,3.374-1.426,5.05c-3.059,10.256-5.367,20.699-7.107,31.236c-0.88,5.326-3.764,9.372-6.675,13.534
		c-2.877,4.113-5.758,8.223-8.735,12.264c-2.321,3.148-3.083,6.798-3.666,10.513c-0.328,2.1-0.369,4.214-0.297,6.363
		c0.116,3.448-0.896,6.736-2.57,9.757c-0.488,0.882-1.441,1.498-2.003,2.354c-3.27,4.989-5.417,10.567-8.221,15.803
		c-2.783,5.205-4.262,10.923-6.584,16.311c-2.777,6.449-5.324,12.996-7.954,19.507c-2.478,6.135-5.023,12.245-7.374,18.428
		c-2.579,6.783-4.905,13.661-7.471,20.45c-1.52,4.027-3.351,7.936-4.923,11.942C388.771,267.674,386.184,274.533,383.493,281.54z
		 M375.934,94.818c-1.542,0.221-2.96,0.383-4.363,0.631c-5.82,1.029-11.475,2.682-17.057,4.604
		c-4.457,1.534-8.937,3.064-12.924,5.607c-4.036,2.573-8.032,5.251-11.792,8.206c-4.236,3.33-8.862,6.206-12.102,10.756
		c-2.863,4.022-6.266,7.656-9.248,11.6c-2.451,3.242-4.664,6.664-6.925,10.044c-5.238,7.83-10.452,15.675-15.644,23.535
		c-0.791,1.196-1.504,2.461-2.084,3.77c-0.607,1.364-1.365,2.735-1.011,4.347c0.214,0.972-0.338,1.547-1.146,1.845
		c-2.168,0.801-4.316,1.708-6.548,2.279c-6.824,1.747-13.765,2.773-20.825,2.739c-6.147-0.031-12.3-0.007-18.435-0.315
		c-4.458-0.224-8.892-0.928-13.333-1.456c-4.457-0.53-8.816-1.382-12.895-3.425c-4.231-2.12-8.419-4.246-11.322-8.193
		c-0.471-0.64-0.976-1.32-1.618-1.758c-2.592-1.769-3.792-4.495-4.919-7.203c-1.223-2.938-2.057-6.036-3.235-8.995
		c-1.443-3.626-2.683-7.415-4.705-10.707c-2.87-4.675-6.411-8.936-9.595-13.424c-3.73-5.259-8.479-9.525-13.225-13.798
		c-2.015-1.813-4.014-3.655-6.137-5.339c-3.979-3.156-8.5-5.291-13.281-6.987c-6.455-2.291-12.761-4.983-19.46-6.585
		c-3.633-0.87-7.292-1.768-10.652-3.536c-0.613-0.324-1.377-0.447-2.083-0.49c-1.912-0.113-3.829-0.177-5.743-0.167
		c-0.587,0.002-1.26,0.178-1.749,0.497c-5.983,3.904-11.058,8.738-15.581,14.303c-4.965,6.11-6.644,13.454-8.826,20.66
		c-0.067,0.224-0.024,0.478-0.063,0.713c-0.456,2.746-0.792,5.518-1.402,8.23c-1.852,8.244-4.358,16.331-5.186,24.81
		c-0.911,9.322-1.634,18.649-0.914,27.994c0.626,8.116,1.427,16.235,2.596,24.289c1.548,10.662,3.448,21.276,5.349,31.883
		c1.382,7.699,3.438,15.233,6.594,22.418c0.858,1.954,1.957,3.808,3.025,5.663c0.552,0.958,1.354,1.774,1.911,2.73
		c1.647,2.83,3.324,5.651,4.8,8.572c0.868,1.716,1.926,2.348,3.91,2.292c13.113-0.367,26.229-0.602,39.344-0.858
		c56.061-1.097,112.122-2.199,168.183-3.233c2.169-0.04,3.521-0.668,4.573-2.583c2.73-4.969,5.668-9.822,8.433-14.772
		c6.51-11.644,13.166-23.21,19.376-35.013c4.231-8.045,7.824-16.427,11.668-24.675c1.684-3.616,3.286-7.271,4.912-10.914
		c2.372-5.315,4.623-10.691,7.129-15.941c2.958-6.191,6.282-12.207,9.182-18.423c3.099-6.652,5.884-13.452,8.818-20.183
		c0.729-1.676,1.546-3.318,2.245-5.007c1.287-3.089,2.563-6.185,3.75-9.312c0.554-1.455,0.517-2.989-0.108-4.45
		c-1.031-2.417-2.115-4.812-3.132-7.235c-1.142-2.717-2.415-5.396-3.306-8.195C377.952,102.884,377.055,99.003,375.934,94.818z
		 M81.505,70.57c-0.006,2.704-0.057,2.775,1.929,4.246c2.113,1.566,4.177,3.139,5.89,5.175c2.512,2.986,5.619,5.213,9.365,6.382
		c2.12,0.66,4.304,1.19,6.498,1.521c2.349,0.356,4.763,0.702,7.114,0.54c7.484-0.511,14.947-1.316,22.427-1.897
		c4.686-0.363,9.384-0.953,14.088-0.065c2.035,0.384,4.085,0.808,6.144,0.918c4.111,0.222,7.978,1.253,11.811,2.714
		c5.496,2.094,11.029,3.881,15.868,7.542c4.073,3.081,7.331,6.835,10.751,10.498c0.265,0.284,0.398,0.688,0.61,1.025
		c0.847,1.338,1.695,2.674,2.551,4.005c0.341,0.533,0.723,1.039,1.051,1.58c3.543,5.838,4.861,12.421,6.286,18.963
		c0.288,1.32,0.509,2.671,0.576,4.018c0.238,4.785,0.562,9.579-0.557,14.316c-0.09,0.381-0.049,0.796-0.055,1.195
		c-0.064,4.556-0.316,9.057-1.986,13.406c-1.093,2.845-0.313,4.568,2.268,6.2c1.213,0.767,2.458,1.487,3.679,2.242
		c3.224,1.992,6.669,3.443,10.414,4.064c8.506,1.413,17.032,2.584,25.69,2.587c8.08,0.002,16.15-0.105,24.122-1.549
		c2.969-0.538,5.879-1.438,8.78-2.297c1.746-0.517,2.465-1.903,2.446-3.686c-0.041-4.042,1.328-7.723,3.294-11.116
		c2.76-4.762,5.771-9.379,8.747-14.011c2.112-3.293,4.511-6.414,6.484-9.786c4.152-7.096,9.711-13.044,15.173-19.074
		c2.083-2.301,4.463-4.332,6.648-6.546c2.131-2.161,4.086-4.503,6.311-6.561c1.505-1.392,3.22-2.687,5.061-3.56
		c2.729-1.294,5.658-2.161,8.49-3.243c7.599-2.902,15.4-5.156,23.257-7.214c4.078-1.068,8.21-2.059,12.381-2.615
		c6.636-0.885,12.959-2.841,18.979-5.55c6.231-2.805,11.592-6.989,15.793-12.493c2.419-3.167,4.679-6.404,6.165-10.164
		c1.859-4.699,0.851-9.491,0.497-14.189c-0.43-5.717-1.432-11.403-2.425-17.061c-0.942-5.384-3.404-7.181-7.685-7.236
		c-0.719-0.009-1.438,0.045-2.156,0.044c-6.387-0.018-12.774,0.039-19.158-0.082c-7.104-0.134-14.199-0.475-21.302-0.646
		c-7.424-0.179-14.848-0.311-22.271-0.377c-9.665-0.086-19.331-0.123-28.996-0.111c-6.704,0.007-13.406,0.114-20.106,0.208
		c-10.865,0.152-21.73,0.277-32.594,0.521c-6.297,0.142-12.592,0.481-18.887,0.747c-11.492,0.484-22.982,0.977-34.472,1.478
		c-7.175,0.311-14.357,0.515-21.521,0.994c-13.472,0.902-26.944,1.755-40.444,1.971c-8.305,0.132-16.612,0.066-24.918,0.076
		c-3.751,0.004-7.502,0.024-11.252-0.068c-1.722-0.042-3.437-0.338-5.257-0.531c-0.809,3.808-1.422,7.421-2.362,10.945
		c-1.318,4.933-2.77,9.836-4.389,14.677c-0.725,2.164-1.639,4.449-3.088,6.146C89.797,63.837,86.116,67.742,81.505,70.57z
		 M431.463,155.355c-2.953,1.226-5.788,1.58-8.675,1.802c-4.207,0.324-8.281,1.667-12.556,1.598
		c-2.158-0.033-4.265,0.167-6.323-0.837c-1.118-0.546-2.469-0.595-3.698-0.935c-1.837-0.511-3.686-1.001-5.479-1.642
		c-3.111-1.114-5.821-2.901-8.42-4.95c-1.802-1.421-3.471-2.763-3.627-5.561c-1.852,3.84-3.593,7.326-5.225,10.863
		c-2.033,4.407-3.901,8.891-5.979,13.278c-3.213,6.775-6.596,13.468-9.797,20.25c-2.242,4.751-4.283,9.597-6.436,14.39
		c-2.483,5.526-4.847,11.11-7.518,16.543c-4.286,8.71-8.689,17.367-13.227,25.95c-2.946,5.575-6.174,11.003-9.358,16.45
		c-3.173,5.43-6.468,10.786-9.665,16.203c-0.749,1.272-1.313,2.654-2.178,4.424c22.26-0.3,44.045-0.863,65.858-1.284
		c1.134-3.007,2.172-5.854,3.276-8.678c4.069-10.414,8.199-20.804,12.225-31.234c2.386-6.179,4.499-12.463,6.939-18.619
		c3.38-8.529,6.963-16.977,10.435-25.471c3.104-7.6,5.994-15.295,9.315-22.799c2.517-5.684,5.559-11.136,8.387-16.681
		C430.27,157.373,430.887,156.373,431.463,155.355z M88.173,287.328c-0.654-1.145-1.174-2.103-1.736-3.037
		c-1.686-2.807-3.453-5.568-5.061-8.417c-1.571-2.787-3.517-5.45-3.555-8.862c-3.679-10.529-5.504-21.484-7.381-32.422
		c-0.77-4.486-1.404-8.998-1.976-13.514c-0.942-7.446-2.135-14.883-2.581-22.361c-0.594-9.958-0.74-19.918,0.295-29.919
		c0.974-9.411,2.537-18.638,5.177-27.702c0.567-1.948,1.06-3.917,1.586-5.878c-0.655,0.198-1.057,0.496-1.268,0.896
		c-1.658,3.152-4.905,4.57-7.602,6.358c-3.14,2.082-6.917,3.045-10.89,3.153c-5.123,0.141-9.862-0.751-14.035-3.795
		c-3.863-2.818-7.639-5.755-11.446-8.649c-0.705-0.535-1.376-1.114-2.063-1.674c-0.175,0.106-0.349,0.213-0.523,0.319
		c0.243,2.601,0.512,5.2,0.72,7.803c0.151,1.909,0.334,3.827,0.302,5.734c-0.046,2.791-0.324,5.579-0.412,8.369
		c-0.2,6.305-0.242,12.617-0.549,18.916c-0.16,3.259-0.766,6.496-1.143,9.745c-0.625,5.389-1.25,10.778-1.833,16.171
		c-0.359,3.335-0.757,6.67-0.932,10.017c-0.438,8.383-0.792,16.774-1.114,25.163c-0.23,5.99-0.357,11.983-0.528,17.975
		c-0.035,1.195,0.136,2.437-0.122,3.58c-0.683,3.015-0.368,6.046-0.148,9.033c0.351,4.774,0.996,9.533,1.686,14.275
		c0.49,3.375,1.257,6.708,1.938,10.257C44.729,288.349,66.216,287.846,88.173,287.328z M428.521,104.443
		c-0.191-0.539-0.345-0.981-0.504-1.422c-1.406-3.852-3.079-7.561-6.02-10.522c-1.846-1.858-3.734-3.682-5.705-5.406
		c-0.61-0.535-1.53-0.904-2.345-0.989c-2.919-0.304-5.61-1.06-7.932-2.977c-0.455-0.374-1.419-0.581-1.93-0.361
		c-3.438,1.479-6.855,3.016-10.208,4.682c-4.878,2.426-9.692,4.979-14.661,7.542c-0.206,1.512-0.146,3.143,0.514,4.746
		c1.484,3.61,2.886,7.257,4.394,10.857c1.662,3.964,3.383,7.904,5.13,11.832c0.677,1.529,1.435,3.028,2.255,4.485
		c0.569,1.014,0.166,1.614-0.864,2.479c-0.749-1.451-1.426-2.761-2.062-3.992c-0.674,2.56-1.354,5.044-1.971,7.546
		c-0.13,0.518-0.107,1.104-0.02,1.637c0.362,2.203,0.851,4.388,1.152,6.599c0.526,3.833,2.722,6.189,6.281,7.406
		c1.66,0.567,3.373,0.995,4.998,1.644c3.191,1.276,6.623,1.818,9.882,1.454c6.651-0.743,13.26-1.982,19.825-3.319
		c4.128-0.839,6.313-3.765,6.804-7.95c0.652-5.576,2.674-10.662,5.796-15.279c3.034-4.49,6.117-8.958,9.399-13.27
		c2.36-3.103,3.444-6.641,4.228-10.306c1.766-8.259,3.319-16.563,5.772-24.661c0.385-1.271,0.65-2.58,1.083-4.335
		c-1.007,0.947-1.691,1.573-2.356,2.219c-2.163,2.103-4.333,4.206-6.482,6.324c-1.643,1.619-3.563,3.058-4.821,4.938
		c-2.154,3.222-5.217,5.058-8.514,6.709c-1.067,0.535-2.106,0.685-3.204,0.11c-1.264-0.661-2.541-1.294-3.83-1.949
		c-1.949,1.416-2.118,1.784-2.008,4.153c0.112,2.458,0.255,4.919,0.278,7.38C430.888,103.74,430.228,104.559,428.521,104.443z
		 M30.24,46.4c-0.197,0.444-0.383,0.708-0.43,0.994c-0.381,2.359-0.687,4.729-1.107,7.081c-0.783,4.393-1.6,8.781-2.457,13.16
		c-0.58,2.963-1.313,5.896-1.868,8.862c-0.969,5.175-1.857,10.366-2.765,15.554c-0.096,0.543-0.171,1.109-0.13,1.655
		c0.329,4.463,0.632,8.928,1.05,13.381c0.492,5.248,0.882,10.541,3.026,15.451c0.877,2.008,1.367,4.154,2.843,5.961
		c2.469,3.02,5.58,5.214,8.654,7.483c0.56,0.413,1.268,0.648,1.935,0.886c4.888,1.74,9.915,1.463,14.899,0.757
		c4.883-0.691,9.409-2.473,13.214-5.718c1.443-1.232,3.168-2.497,3.876-4.131c0.787-1.815,1.873-3.286,3.033-4.776
		c1.378-1.769,2.667-3.54,2.999-5.879c0.14-0.986,0.724-1.93,1.202-2.842c1.057-2.021,2.286-3.917,3.584-5.812
		c3.413-4.979,7.452-9.322,11.892-13.331c1.528-1.38,3.3-2.491,5.106-3.836c-0.603-0.272-1.025-0.473-1.455-0.656
		c-3.245-1.37-6.5-2.752-9.032-5.298c-2.006-2.016-4.458-3.127-7.182-3.359c-3.129-0.267-6.294-0.174-9.442-0.145
		c-1.403,0.013-2.891,0.005-4.187,0.449c-1.695,0.581-3.309,1.489-4.832,2.456c-2.681,1.701-5.268,3.551-7.93,5.362
		c-1.554-0.458-2.298-1.505-2.229-2.955c1.721-1.605,3.234-3.14,4.883-4.514c1.094-0.913,2.296-1.79,3.595-2.344
		c2.813-1.201,5.498-2.584,7.816-4.584c1.748-1.506,3.406-3.117,5.099-4.687c1.749-1.619,1.789-1.979,0.521-3.986
		c-0.461-0.729-0.9-1.472-1.441-2.362c-2.847,1.044-5.539,0.513-7.92-0.544c-1.163,1.904-2.105,3.558-3.159,5.135
		c-0.769,1.151-1.804,1.889-3.283,2.156c-1.538,0.277-3.003,0.95-4.628,1.493c-0.065,1.832-0.31,3.596-0.149,5.322
		c0.302,3.227-0.489,6.147-1.837,9.021c-0.794,1.694-2.019,3.239-3.679,3.497c-1.78,0.276-3.886-0.089-5.533-0.856
		c-1.395-0.649-2.709-2.093-3.389-3.507c-0.949-1.973-1.472-4.215-1.827-6.4c-0.727-4.48-1.326-8.989-1.779-13.506
		c-0.461-4.597-0.339-9.252-1.84-13.719C33.169,50.421,32.245,48.205,30.24,46.4z M197.656,165.66
		c0.206-0.476,0.356-0.735,0.437-1.015c1.193-4.152,2.192-8.339,2.069-12.704c-0.061-2.153-0.045-4.316-0.264-6.457
		c-0.477-4.679-1.004-9.354-1.648-14.011c-0.78-5.637-3.253-10.75-6.01-15.556c-2.066-3.6-4.914-7.034-8.158-9.599
		c-3.761-2.972-7.992-5.431-12.607-7.242c-6.918-2.714-13.977-4.381-21.369-4.452c-6.228-0.061-12.457,0.181-18.686,0.308
		c-0.434,0.008-0.865,0.174-1.839,0.38c4.479,1.592,8.441,2.99,12.396,4.411c4.709,1.692,9.484,3.227,13.458,6.48
		c1.218,0.998,2.734,1.627,3.956,2.619c1.975,1.601,3.781,3.406,5.726,5.045c5.023,4.235,9.395,9.083,13.286,14.348
		c3.246,4.391,6.288,8.933,9.408,13.417c0.225,0.321,0.375,0.705,0.512,1.077c1.02,2.748,2.045,5.496,3.029,8.257
		c0.347,0.973,0.522,2.011,0.892,2.974c1.023,2.668,2.136,5.301,3.153,7.97C195.91,163.249,196.59,164.446,197.656,165.66z
		 M408.365,80.514c1.757,0.262,3.198,0.306,4.527,0.711c2.66,0.811,4.672-0.224,6.524-1.928c2.577-2.371,5.182-4.717,7.694-7.157
		c0.783-0.764,1.559-1.708,1.908-2.718c1.09-3.152,2.046-6.354,2.918-9.575c1.555-5.756,1.695-11.696,1.535-17.576
		c-0.135-4.936-1.486-9.756-2.852-14.523c-1.129-3.944-3.259-7.068-6.868-9.133c-0.688-0.391-1.269-0.972-1.872-1.496
		c-3.149-2.728-6.747-4.036-10.96-4.073c-2.058-0.017-3.162,0.94-3.954,2.438c-0.694,1.313-1.046,2.806-1.575,4.288
		c2.103,0.532,4.052,0.924,5.927,1.54c1.026,0.339,2.3,0.828,2.808,1.652c1.642,2.669,3.77,5.188,3.48,8.697
		c-0.11,1.333,0.146,2.706,0.325,4.049c0.704,5.296,1.509,10.581,2.149,15.885c0.429,3.555,1.082,7.17-0.172,10.68
		c-0.932,2.604-1.896,5.239-3.233,7.645c-1.106,1.99-2.771,3.67-4.202,5.477C411.252,76.937,410.015,78.462,408.365,80.514z
		 M102.6,18.108c-0.076-0.017-0.152-0.035-0.228-0.051c-0.047-0.478-0.027-0.974-0.156-1.428c-0.176-0.606-0.462-1.183-0.711-1.767
		c-1.764-4.165-4.118-5.02-8.188-2.98c-0.212,0.106-0.445,0.174-0.663,0.274c-4.983,2.285-7.296,6.222-7.119,11.643
		c0.073,2.23,0.098,4.486,0.459,6.678c0.688,4.185,0.388,8.29-0.65,12.345c-0.79,3.087-1.862,6.102-2.669,9.185
		c-0.409,1.557-0.946,2.986-1.808,4.361c-0.962,1.535-1.675,3.228-2.472,4.864c-0.75,1.539,0.031,2.774,0.861,3.976
		c0.778,1.124,1.907,1.1,3.008,0.72c1.12-0.387,2.373-0.723,3.221-1.474c1.664-1.473,3.283-3.08,4.56-4.885
		c1.273-1.8,2.514-3.804,3.062-5.903c2.394-9.178,6.119-17.995,7.493-27.449c0.079-0.546,0.36-1.061,0.49-1.603
		C101.604,22.447,102.097,20.277,102.6,18.108z M29.314,41.017c4.463,2.377,6.955,5.83,7.836,10.377
		c0.875,4.518,2.204,8.938,2.087,13.661c-0.081,3.308,0.691,6.629,1,9.952c0.356,3.84,1.209,7.533,3.154,10.892
		c0.681,1.174,1.676,2.415,3.128,2.3c1.476-0.116,2.579-1.181,3.082-2.682c0.076-0.227,0.111-0.466,0.199-0.688
		c0.441-1.112,0.848-2.24,1.352-3.323c0.902-1.944,1.188-3.967,0.79-6.054c-0.34-1.784-0.836-3.536-1.203-5.314
		c-0.255-1.243-0.198-2.586-0.643-3.746c-1.47-3.815-1.23-7.841-1.624-11.782c-0.22-2.206,0.189-4.48-0.084-6.674
		c-0.375-2.999-1.058-5.966-1.747-8.916c-0.488-2.09-1.07-4.181-1.858-6.171c-0.868-2.196-2.849-3.262-4.751-2.701
		c-1.601,0.471-3.202,1.034-4.688,1.783c-1.255,0.631-2.599,1.383-3.452,2.444C30.382,36.252,29.811,38.613,29.314,41.017z
		 M45.787,29.719c0.786,1.204,1.698,2.102,2.013,3.175c1.034,3.52,1.898,7.094,2.74,10.667c1.161,4.931,1.023,9.992,1.25,15.002
		c0.14,3.077,0.712,5.969,1.858,9.034c1.812-0.209,3.604-0.484,5.407-0.604c1.601-0.107,2.805-0.848,3.421-2.222
		c0.605-1.354,0.927-2.842,1.285-4.292c0.131-0.525,0.001-1.115,0.005-1.674c0.02-2.858,0.056-5.665,0.697-8.528
		c1.091-4.869,0.44-9.857-0.25-14.735c-0.575-4.056-1.598-8.052-2.557-12.044c-1.036-4.313-5.613-5.933-9.271-3.706
		c-2.146,1.307-3.708,3.209-5.074,5.3C46.32,26.608,45.769,28.216,45.787,29.719z M66.634,62.364
		c1.151,0.155,2.288,0.196,3.356,0.48c1.69,0.449,2.854-0.314,3.684-1.561c1.635-2.456,3.204-4.96,4.654-7.526
		c0.894-1.583,1.551-3.305,2.256-4.988c1.413-3.376,1.532-6.99,1.9-10.561c0.641-6.188-0.079-12.24-1.534-18.255
		c-0.424-1.755-1.46-2.577-3.093-2.84c-3.974-0.641-7.207,0.515-9.563,3.908c-0.621,0.893-1.031,1.752-0.939,2.866
		c0.151,1.822,0.264,3.651,0.315,5.479c0.056,2.071-0.038,4.147,0.048,6.215c0.143,3.421,0.682,6.853,0.502,10.25
		C67.932,51.303,67.197,56.75,66.634,62.364z M420.655,83.917c1.14,1.586,2.228,3.35,4.384,3.743
		c2.808,0.513,5.402-0.01,7.505-2.104c1.473-1.464,2.879-2.993,4.377-4.428c3.58-3.435,5.697-7.668,6.703-12.455
		c1.034-4.917,1.964-9.859,2.815-14.811c0.31-1.792,0.16-3.663,0.407-5.472c0.387-2.831-3.478-5.583-6.555-4.94
		c-1.698,0.356-3.339,0.986-5.061,1.511c-0.036,0.747-0.12,1.379-0.085,2.004c0.223,3.943-0.316,7.846-1.203,11.633
		c-0.963,4.101-2.453,8.08-3.758,12.1c-0.21,0.648-0.581,1.271-0.991,1.822C426.379,76.311,423.535,80.08,420.655,83.917z
		 M435.858,87.672c0.856,0.333,1.513,0.562,2.145,0.841c2.12,0.938,3.147,0.817,4.722-0.701c1.662-1.601,3.255-3.274,4.928-4.864
		c1.616-1.533,3.13-3.251,4.976-4.448c5.559-3.606,9.111-8.8,12.226-14.445c1.453-2.635,0.886-5.042-0.282-7.507
		c-0.583-1.231-1.545-1.565-2.775-1.143c-1.203,0.413-2.428,0.807-3.561,1.375c-3.385,1.704-5.945,4.512-8.919,6.762
		c-2.897,2.19-4.084,4.947-4.214,8.343c-0.168,4.449-2.46,7.781-5.359,10.886C438.362,84.248,437.215,85.943,435.858,87.672z"/>
	<path fill="#FFFFFF" d="M81.505,70.57c4.611-2.828,8.292-6.733,11.755-10.786c1.45-1.697,2.364-3.982,3.088-6.146
		c1.619-4.841,3.071-9.744,4.389-14.677c0.942-3.524,1.553-7.137,2.362-10.945c1.82,0.191,3.536,0.488,5.257,0.531
		c3.75,0.093,7.501,0.073,11.252,0.068c8.307-0.008,16.613,0.057,24.918-0.076c13.5-0.215,26.973-1.068,40.445-1.97
		c7.163-0.479,14.346-0.682,21.52-0.995c11.49-0.5,22.98-0.993,34.472-1.477c6.296-0.266,12.591-0.606,18.887-0.747
		c10.863-0.244,21.729-0.369,32.594-0.521c6.701-0.093,13.403-0.2,20.105-0.208c9.667-0.01,19.333,0.026,28.996,0.111
		c7.426,0.066,14.848,0.199,22.271,0.377c7.103,0.17,14.198,0.511,21.302,0.646c6.386,0.122,12.773,0.065,19.158,0.082
		c0.719,0.002,1.439-0.052,2.158-0.043c4.279,0.054,6.74,1.851,7.686,7.235c0.992,5.658,1.992,11.345,2.424,17.061
		c0.354,4.699,1.36,9.491-0.497,14.189c-1.488,3.759-3.748,6.997-6.165,10.164c-4.203,5.504-9.562,9.688-15.793,12.493
		c-6.021,2.709-12.345,4.665-18.981,5.55c-4.171,0.556-8.303,1.547-12.379,2.615c-7.856,2.058-15.658,4.312-23.257,7.214
		c-2.834,1.081-5.763,1.948-8.49,3.243c-1.843,0.875-3.556,2.169-5.061,3.56c-2.225,2.057-4.18,4.4-6.312,6.561
		c-2.186,2.214-4.563,4.245-6.646,6.546c-5.463,6.03-11.021,11.979-15.173,19.074c-1.975,3.373-4.372,6.493-6.485,9.786
		c-2.975,4.632-5.986,9.25-8.747,14.011c-1.968,3.394-3.336,7.074-3.295,11.116c0.02,1.783-0.7,3.169-2.445,3.686
		c-2.901,0.858-5.812,1.76-8.781,2.297c-7.97,1.444-16.042,1.552-24.122,1.549c-8.659-0.003-17.185-1.174-25.69-2.587
		c-3.746-0.621-7.19-2.072-10.414-4.064c-1.222-0.754-2.466-1.474-3.68-2.242c-2.581-1.631-3.36-3.355-2.267-6.2
		c1.67-4.349,1.922-8.85,1.985-13.406c0.005-0.399-0.036-0.812,0.055-1.195c1.119-4.737,0.794-9.532,0.556-14.316
		c-0.067-1.346-0.288-2.698-0.576-4.018c-1.424-6.542-2.741-13.125-6.286-18.963c-0.328-0.541-0.709-1.048-1.051-1.579
		c-0.855-1.332-1.705-2.667-2.551-4.006c-0.212-0.336-0.344-0.742-0.61-1.025c-3.419-3.663-6.678-7.417-10.751-10.498
		c-4.839-3.661-10.372-5.448-15.867-7.542c-3.833-1.461-7.701-2.492-11.811-2.714c-2.059-0.111-4.108-0.534-6.144-0.918
		c-4.705-0.886-9.402-0.297-14.088,0.065c-7.48,0.581-14.943,1.386-22.427,1.897c-2.351,0.161-4.765-0.185-7.114-0.54
		c-2.194-0.331-4.377-0.859-6.498-1.521c-3.745-1.168-6.853-3.397-9.365-6.381c-1.713-2.036-3.778-3.61-5.89-5.176
		C81.448,73.345,81.499,73.274,81.505,70.57z M390.655,42.905c0.044-0.124,0.089-0.246,0.133-0.368
		c-0.438-0.283-0.854-0.618-1.32-0.84c-3.424-1.63-7.159-1.551-10.795-1.72c-8.617-0.397-17.245-0.792-25.868-0.762
		c-11.321,0.04-22.654-0.123-33.971,0.514c-4.465,0.25-8.946,0.211-13.414,0.43c-8.926,0.436-17.841,1.076-26.771,1.416
		c-10.297,0.393-20.599,0.576-30.9,0.805c-8.778,0.195-17.561,0.233-26.335,0.516c-6.124,0.198-12.235,0.778-18.358,1.031
		c-7.328,0.302-14.663,0.412-21.993,0.647c-3.028,0.098-6.052,0.356-9.079,0.443c-3.025,0.086-6.062-0.1-9.075,0.108
		c-3.338,0.228-6.647,0.844-9.982,1.152c-5.323,0.492-10.656,0.854-15.982,1.309c-0.619,0.054-1.213,0.361-1.83,0.503
		c-0.235,0.054-0.54,0.054-0.749-0.051c-1.728-0.869-3.478-0.345-5.298-0.284c0.02,0.842,0.036,1.523,0.053,2.264
		c1.042-0.025,2.03,0.11,2.94-0.097c3.362-0.771,6.76-1.028,10.194-1.256c5.003-0.332,9.975-1.137,14.978-1.498
		c5.874-0.424,11.765-0.625,17.651-0.852c4.92-0.19,9.843-0.226,14.762-0.421c5.665-0.224,11.322-0.599,16.986-0.819
		c8.3-0.322,16.603-0.553,24.904-0.844c6.697-0.236,13.393-0.675,20.092-0.71c9.51-0.053,19.009-0.021,28.505-0.729
		c6.926-0.517,13.875-0.721,20.817-0.964c9.973-0.349,19.948-0.656,29.925-0.89c11.333-0.266,22.664-0.647,34.002,0.121
		c6.365,0.431,12.763,0.381,19.14,0.672c1.729,0.08,3.441,0.615,5.161,0.935C389.669,42.754,390.164,42.824,390.655,42.905z
		 M357.469,48.035c-1.194-1.249-2.297-1.671-3.484-1.728c-2.471-0.118-4.949-0.229-7.419-0.162
		c-5.178,0.142-10.353,0.425-15.53,0.607c-13.406,0.475-26.812,1.02-40.223,1.361c-10.851,0.278-21.708,0.263-32.561,0.456
		c-6.613,0.118-13.223,0.387-19.833,0.57c-2.154,0.06-4.312,0.039-6.467,0.093c-6.785,0.172-13.569,0.295-20.349,0.568
		c-4.459,0.181-8.906,0.633-13.364,0.877c-3.104,0.172-6.22,0.183-9.33,0.311c-0.427,0.018-0.844,0.302-1.265,0.462
		c0.035,0.177,0.069,0.353,0.104,0.531c1.498,0.046,3.001,0.194,4.495,0.122c5.506-0.27,11.004-0.736,16.511-0.9
		c11.498-0.345,23-0.539,34.501-0.805c7.028-0.163,14.055-0.343,21.083-0.51c10.056-0.239,20.111-0.462,30.167-0.715
		c8.216-0.206,16.435-0.42,24.647-0.681c7.584-0.241,15.162-0.593,22.749-0.809c4.223-0.121,8.451-0.088,12.676-0.075
		C355.391,47.612,356.209,47.841,357.469,48.035z M207.835,57.072c0.047,0.16,0.092,0.318,0.137,0.478
		c0.357,0.05,0.721,0.173,1.068,0.136c5.317-0.556,10.622-1.297,15.953-1.666c7.006-0.484,14.031-0.756,21.052-0.972
		c4.87-0.15,9.748,0.021,14.619-0.084c7.104-0.154,14.208-0.483,21.312-0.626c4.153-0.084,8.311,0.022,12.462,0.1
		c3.593,0.067,7.183,0.25,10.773,0.312c1.938,0.034,3.878-0.077,5.816-0.122c-0.18-0.499-0.43-0.622-0.69-0.722
		c-2.987-1.157-6.137-0.881-9.225-0.946c-5.27-0.11-10.544-0.03-15.816-0.025c-2.871,0.003-5.744-0.036-8.614,0.029
		c-8.779,0.204-17.558,0.461-26.333,0.671c-3.352,0.081-6.707-0.002-10.052,0.163c-5.019,0.25-10.038,0.586-15.045,1.014
		c-5.321,0.453-10.629,1.042-15.938,1.617C208.805,56.482,208.329,56.851,207.835,57.072z M405.225,37.788
		c-1.589,0.392-1.583,1.502-1.67,2.479c-0.296,3.334-0.598,6.669-0.785,10.01c-0.188,3.366-1.287,6.17-4.155,8.194
		c-2.799,1.975-5.476,4.117-8.238,6.143c-2.635,1.937-5.414,3.696-7.94,5.762c-2.341,1.914-4.433,4.133-6.635,6.215
		c-0.57,0.538-1.49,1.145-0.664,1.923c0.877,0.825,1.357-0.315,1.88-0.814c2.191-2.091,4.194-4.416,6.564-6.276
		c4.957-3.888,10.089-7.552,15.171-11.278c2.43-1.781,4.683-3.679,5.156-6.888c0.241-1.655,0.356-3.33,0.507-4.998
		c0.265-2.935,0.515-5.872,0.764-8.809C405.219,38.956,405.206,38.457,405.225,37.788z M113.543,74.312
		c-8.432-0.192-14.824-3.607-18.886-11.511c-0.267,0.739-0.612,1.197-0.519,1.535c0.25,0.906,0.554,1.849,1.073,2.62
		c3.333,4.944,8.023,7.847,13.882,8.762C110.677,75.964,112.321,75.697,113.543,74.312z"/>
	<path fill="#4CC1EF" d="M431.463,155.355c-0.576,1.019-1.193,2.018-1.725,3.061c-2.828,5.545-5.872,10.997-8.387,16.681
		c-3.323,7.503-6.213,15.199-9.317,22.799c-3.471,8.494-7.055,16.941-10.434,25.471c-2.439,6.156-4.555,12.438-6.94,18.619
		c-4.025,10.431-8.155,20.821-12.223,31.234c-1.105,2.824-2.145,5.671-3.278,8.678c-21.812,0.42-43.599,0.982-65.858,1.284
		c0.866-1.77,1.431-3.152,2.18-4.424c3.197-5.417,6.49-10.774,9.665-16.203c3.185-5.447,6.41-10.876,9.358-16.45
		c4.537-8.583,8.938-17.239,13.225-25.95c2.673-5.432,5.036-11.018,7.518-16.543c2.154-4.794,4.195-9.639,6.438-14.39
		c3.199-6.782,6.584-13.474,9.795-20.25c2.08-4.387,3.946-8.87,5.979-13.278c1.634-3.536,3.373-7.023,5.225-10.863
		c0.156,2.798,1.826,4.14,3.629,5.561c2.597,2.05,5.307,3.836,8.42,4.95c1.792,0.64,3.643,1.131,5.479,1.642
		c1.228,0.34,2.578,0.39,3.698,0.935c2.057,1.004,4.163,0.803,6.321,0.837c4.276,0.068,8.349-1.274,12.558-1.598
		C425.675,156.935,428.51,156.581,431.463,155.355z"/>
	<path fill="#4CC1EF" d="M88.173,287.328c-21.957,0.517-43.444,1.021-65.191,1.534c-0.681-3.55-1.448-6.884-1.938-10.258
		c-0.688-4.741-1.334-9.501-1.686-14.275c-0.22-2.987-0.535-6.017,0.148-9.034c0.258-1.143,0.088-2.384,0.122-3.579
		c0.17-5.992,0.297-11.985,0.528-17.975c0.322-8.389,0.676-16.779,1.114-25.163c0.174-3.347,0.572-6.683,0.931-10.017
		c0.583-5.393,1.209-10.782,1.833-16.171c0.376-3.25,0.983-6.486,1.143-9.745c0.309-6.299,0.351-12.611,0.549-18.916
		c0.088-2.791,0.365-5.578,0.412-8.369c0.033-1.908-0.15-3.826-0.302-5.734c-0.208-2.602-0.477-5.202-0.72-7.803
		c0.174-0.106,0.348-0.213,0.522-0.319c0.686,0.559,1.358,1.138,2.063,1.674c3.807,2.894,7.583,5.832,11.446,8.649
		c4.173,3.044,8.912,3.936,14.035,3.795c3.973-0.109,7.751-1.073,10.891-3.153c2.696-1.787,5.944-3.206,7.602-6.358
		c0.21-0.399,0.612-0.697,1.267-0.896c-0.526,1.96-1.019,3.93-1.586,5.878c-2.64,9.065-4.203,18.291-5.177,27.702
		c-1.035,10-0.889,19.961-0.295,29.919c0.446,7.479,1.638,14.916,2.581,22.361c0.572,4.516,1.205,9.028,1.976,13.514
		c1.876,10.938,3.703,21.894,7.381,32.422c0.038,3.412,1.983,6.075,3.555,8.862c1.607,2.851,3.375,5.612,5.061,8.417
		C86.998,285.225,87.52,286.184,88.173,287.328z"/>
	<path fill="#FEE5D2" d="M428.521,104.443c1.706,0.116,2.366-0.703,2.355-1.993c-0.021-2.461-0.165-4.922-0.278-7.38
		c-0.108-2.369,0.06-2.737,2.008-4.153c1.289,0.654,2.566,1.288,3.83,1.949c1.098,0.574,2.137,0.425,3.204-0.11
		c3.299-1.65,6.359-3.488,8.514-6.709c1.258-1.88,3.179-3.32,4.821-4.938c2.151-2.119,4.319-4.221,6.482-6.324
		c0.665-0.646,1.35-1.272,2.356-2.219c-0.433,1.755-0.696,3.064-1.083,4.335c-2.453,8.098-4.008,16.402-5.772,24.661
		c-0.783,3.665-1.867,7.204-4.228,10.306c-3.282,4.312-6.365,8.779-9.399,13.27c-3.122,4.619-5.144,9.704-5.794,15.279
		c-0.492,4.186-2.678,7.11-6.806,7.95c-6.565,1.336-13.174,2.575-19.825,3.319c-3.258,0.365-6.69-0.178-9.881-1.454
		c-1.624-0.65-3.339-1.078-4.998-1.644c-3.561-1.216-5.756-3.573-6.283-7.406c-0.301-2.211-0.789-4.396-1.151-6.599
		c-0.088-0.532-0.109-1.12,0.02-1.637c0.618-2.502,1.297-4.987,1.971-7.546c0.636,1.23,1.312,2.541,2.062,3.992
		c1.032-0.864,1.434-1.464,0.864-2.479c-0.819-1.457-1.578-2.957-2.255-4.485c-1.745-3.929-3.468-7.868-5.13-11.832
		c-1.508-3.6-2.911-7.247-4.394-10.857c-0.659-1.603-0.72-3.234-0.514-4.746c4.969-2.562,9.783-5.115,14.661-7.542
		c3.353-1.667,6.771-3.204,10.209-4.682c0.51-0.219,1.474-0.013,1.928,0.361c2.322,1.917,5.014,2.673,7.933,2.977
		c0.814,0.085,1.734,0.454,2.345,0.989c1.971,1.725,3.859,3.548,5.705,5.406c2.94,2.961,4.613,6.67,6.02,10.522
		C428.177,103.462,428.33,103.905,428.521,104.443z"/>
	<path fill="#FEE5D2" d="M30.24,46.4c2.003,1.805,2.929,4.021,3.719,6.37c1.5,4.466,1.379,9.123,1.84,13.719
		c0.454,4.517,1.053,9.025,1.779,13.506c0.355,2.185,0.877,4.427,1.827,6.4c0.679,1.414,1.994,2.857,3.389,3.507
		c1.646,0.767,3.752,1.132,5.533,0.856c1.66-0.258,2.884-1.803,3.679-3.497c1.348-2.874,2.139-5.794,1.837-9.021
		c-0.161-1.727,0.083-3.49,0.148-5.321c1.626-0.543,3.091-1.216,4.629-1.493c1.479-0.267,2.515-1.005,3.283-2.156
		c1.055-1.577,1.997-3.232,3.159-5.136c2.382,1.057,5.074,1.588,7.921,0.544c0.542,0.89,0.979,1.633,1.441,2.362
		c1.268,2.007,1.228,2.366-0.521,3.986c-1.693,1.568-3.352,3.179-5.099,4.687c-2.319,2-5.003,3.384-7.816,4.584
		c-1.299,0.554-2.502,1.432-3.595,2.344c-1.649,1.374-3.162,2.908-4.883,4.514c-0.068,1.451,0.675,2.497,2.229,2.955
		c2.662-1.812,5.249-3.662,7.93-5.363c1.524-0.966,3.138-1.875,4.832-2.455c1.297-0.444,2.784-0.436,4.187-0.45
		c3.148-0.029,6.313-0.122,9.442,0.145c2.723,0.231,5.175,1.343,7.182,3.359c2.532,2.546,5.787,3.929,9.032,5.298
		c0.431,0.183,0.852,0.384,1.455,0.657c-1.807,1.343-3.578,2.455-5.107,3.835c-4.439,4.009-8.477,8.353-11.891,13.331
		c-1.298,1.895-2.528,3.79-3.584,5.812c-0.478,0.913-1.062,1.856-1.202,2.842c-0.333,2.34-1.621,4.11-2.999,5.879
		c-1.161,1.491-2.248,2.961-3.034,4.776c-0.708,1.635-2.433,2.899-3.876,4.131c-3.805,3.245-8.332,5.026-13.214,5.718
		c-4.985,0.707-10.012,0.984-14.899-0.757c-0.667-0.239-1.375-0.473-1.935-0.886c-3.074-2.269-6.185-4.463-8.655-7.483
		c-1.476-1.806-1.965-3.953-2.842-5.96c-2.145-4.911-2.534-10.204-3.027-15.452c-0.418-4.454-0.721-8.918-1.05-13.381
		c-0.041-0.545,0.036-1.111,0.13-1.655c0.909-5.187,1.797-10.378,2.765-15.554c0.556-2.966,1.288-5.899,1.868-8.862
		c0.857-4.38,1.673-8.767,2.456-13.16c0.42-2.351,0.727-4.722,1.108-7.081C29.858,47.107,30.044,46.844,30.24,46.4z"/>
	<path fill="#F9F9F9" d="M197.656,165.66c-1.066-1.215-1.748-2.411-2.258-3.749c-1.018-2.669-2.131-5.302-3.153-7.97
		c-0.369-0.963-0.545-2.001-0.892-2.974c-0.984-2.761-2.01-5.509-3.029-8.257c-0.137-0.373-0.287-0.756-0.512-1.077
		c-3.12-4.484-6.163-9.025-9.408-13.417c-3.892-5.264-8.263-10.113-13.286-14.348c-1.945-1.64-3.751-3.445-5.726-5.045
		c-1.222-0.992-2.739-1.622-3.956-2.619c-3.973-3.254-8.749-4.787-13.458-6.48c-3.955-1.422-7.917-2.819-12.396-4.411
		c0.975-0.208,1.405-0.372,1.839-0.38c6.228-0.127,12.458-0.369,18.686-0.308c7.392,0.07,14.451,1.737,21.369,4.452
		c4.616,1.811,8.846,4.27,12.607,7.242c3.244,2.564,6.092,5.999,8.158,9.599c2.756,4.807,5.229,9.918,6.01,15.556
		c0.645,4.658,1.172,9.333,1.648,14.011c0.217,2.14,0.203,4.304,0.264,6.457c0.123,4.365-0.876,8.552-2.07,12.704
		C198.013,164.925,197.862,165.185,197.656,165.66z"/>
	<path fill="#FEE5D2" d="M408.365,80.514c1.649-2.052,2.887-3.577,4.108-5.117c1.429-1.807,3.096-3.487,4.202-5.477
		c1.337-2.406,2.3-5.041,3.231-7.645c1.256-3.51,0.603-7.125,0.172-10.68c-0.639-5.304-1.443-10.588-2.149-15.885
		c-0.177-1.343-0.434-2.716-0.325-4.049c0.289-3.508-1.837-6.027-3.479-8.697c-0.508-0.825-1.783-1.315-2.808-1.652
		c-1.875-0.618-3.826-1.009-5.927-1.541c0.527-1.482,0.879-2.974,1.575-4.288c0.792-1.497,1.896-2.455,3.952-2.438
		c4.215,0.037,7.812,1.346,10.962,4.073c0.602,0.523,1.184,1.104,1.87,1.496c3.609,2.064,5.739,5.188,6.868,9.133
		c1.367,4.767,2.717,9.588,2.854,14.523c0.16,5.88,0.018,11.818-1.537,17.576c-0.872,3.221-1.828,6.423-2.918,9.576
		c-0.35,1.009-1.123,1.954-1.908,2.717c-2.513,2.44-5.117,4.786-7.692,7.157c-1.854,1.705-3.864,2.739-6.526,1.928
		C411.563,80.82,410.122,80.776,408.365,80.514z"/>
	<path fill="#FEE5D2" d="M102.6,18.108c-0.502,2.168-0.996,4.339-1.511,6.503c-0.13,0.542-0.412,1.057-0.491,1.603
		c-1.374,9.455-5.099,18.271-7.493,27.449c-0.548,2.099-1.788,4.104-3.062,5.903c-1.277,1.806-2.895,3.414-4.56,4.885
		c-0.848,0.75-2.102,1.088-3.22,1.474c-1.102,0.38-2.231,0.404-3.009-0.72c-0.831-1.202-1.611-2.437-0.861-3.976
		c0.796-1.636,1.509-3.329,2.471-4.864c0.862-1.374,1.4-2.804,1.808-4.361c0.808-3.083,1.881-6.097,2.67-9.185
		c1.039-4.055,1.339-8.161,0.65-12.345c-0.361-2.191-0.386-4.448-0.459-6.678c-0.177-5.421,2.135-9.358,7.119-11.643
		c0.218-0.1,0.45-0.168,0.664-0.274c4.069-2.039,6.423-1.185,8.188,2.98c0.249,0.584,0.536,1.161,0.711,1.767
		c0.13,0.454,0.11,0.95,0.156,1.427C102.448,18.073,102.524,18.091,102.6,18.108z"/>
	<path fill="#FEE5D2" d="M29.314,41.017c0.497-2.404,1.068-4.764,2.579-6.64c0.853-1.062,2.197-1.813,3.452-2.444
		c1.487-0.749,3.087-1.312,4.688-1.783c1.902-0.561,3.883,0.505,4.751,2.701c0.788,1.99,1.369,4.082,1.858,6.171
		c0.689,2.949,1.372,5.916,1.747,8.916c0.273,2.193-0.136,4.467,0.084,6.674c0.393,3.939,0.154,7.967,1.624,11.782
		c0.446,1.159,0.387,2.502,0.643,3.746c0.367,1.778,0.862,3.531,1.203,5.314c0.399,2.086,0.113,4.11-0.79,6.054
		c-0.503,1.083-0.911,2.211-1.352,3.323c-0.087,0.221-0.124,0.461-0.199,0.688c-0.503,1.5-1.606,2.565-3.082,2.682
		c-1.452,0.114-2.447-1.126-3.128-2.3c-1.944-3.358-2.797-7.052-3.154-10.892c-0.309-3.323-1.081-6.645-1-9.952
		c0.116-4.724-1.212-9.143-2.087-13.661C36.269,46.847,33.776,43.394,29.314,41.017z"/>
	<path fill="#FEE5D2" d="M45.787,29.719c-0.019-1.502,0.533-3.111,1.523-4.625c1.367-2.092,2.928-3.994,5.074-5.3
		c3.659-2.228,8.236-0.608,9.271,3.706c0.959,3.992,1.981,7.988,2.557,12.044c0.691,4.877,1.342,9.868,0.25,14.735
		c-0.641,2.862-0.678,5.67-0.697,8.528c-0.004,0.559,0.125,1.148-0.005,1.674c-0.358,1.45-0.68,2.939-1.285,4.292
		c-0.616,1.376-1.821,2.115-3.421,2.222c-1.802,0.12-3.595,0.394-5.407,0.604c-1.145-3.065-1.718-5.957-1.858-9.034
		c-0.226-5.009-0.089-10.071-1.25-15.002c-0.842-3.573-1.706-7.147-2.74-10.667C47.485,31.819,46.573,30.921,45.787,29.719z"/>
	<path fill="#FEE5D2" d="M66.634,62.364c0.563-5.615,1.298-11.062,1.587-16.532c0.179-3.398-0.36-6.83-0.502-10.25
		c-0.087-2.068,0.007-4.145-0.048-6.215c-0.051-1.828-0.165-3.657-0.315-5.479c-0.092-1.114,0.318-1.973,0.939-2.866
		c2.356-3.394,5.589-4.549,9.563-3.908c1.633,0.265,2.668,1.085,3.093,2.84c1.455,6.015,2.173,12.069,1.534,18.255
		c-0.369,3.571-0.486,7.184-1.9,10.561c-0.706,1.684-1.363,3.405-2.256,4.988c-1.45,2.566-3.019,5.071-4.654,7.526
		c-0.829,1.246-1.994,2.01-3.684,1.561C68.921,62.561,67.785,62.521,66.634,62.364z"/>
	<path fill="#FEE5D2" d="M420.655,83.917c2.88-3.837,5.724-7.606,8.537-11.397c0.41-0.552,0.779-1.175,0.991-1.823
		c1.305-4.019,2.795-7.998,3.758-12.1c0.887-3.788,1.425-7.689,1.203-11.633c-0.035-0.625,0.049-1.257,0.085-2.004
		c1.724-0.524,3.362-1.155,5.061-1.511c3.077-0.644,6.94,2.108,6.555,4.94c-0.247,1.809-0.098,3.68-0.407,5.472
		c-0.852,4.953-1.782,9.894-2.815,14.811c-1.006,4.787-3.123,9.02-6.703,12.455c-1.498,1.435-2.904,2.964-4.377,4.428
		c-2.104,2.095-4.697,2.617-7.505,2.104C422.883,87.267,421.795,85.502,420.655,83.917z"/>
	<path fill="#FEE5D2" d="M435.858,87.672c1.358-1.729,2.506-3.424,3.885-4.902c2.899-3.105,5.193-6.436,5.359-10.885
		c0.132-3.396,1.318-6.151,4.216-8.343c2.972-2.249,5.532-5.058,8.919-6.762c1.131-0.569,2.357-0.962,3.561-1.376
		c1.229-0.422,2.19-0.088,2.772,1.143c1.171,2.464,1.738,4.874,0.285,7.507c-3.114,5.645-6.667,10.838-12.226,14.445
		c-1.846,1.197-3.361,2.916-4.976,4.449c-1.675,1.588-3.268,3.262-4.93,4.863c-1.574,1.518-2.6,1.638-4.722,0.701
		C437.369,88.233,436.715,88.006,435.858,87.672z"/>
	<path d="M390.655,42.905c-0.491-0.081-0.986-0.151-1.477-0.243c-1.722-0.32-3.432-0.856-5.161-0.935
		c-6.377-0.291-12.774-0.242-19.14-0.672c-11.338-0.767-22.67-0.387-34.002-0.122c-9.978,0.234-19.952,0.541-29.925,0.891
		c-6.942,0.243-13.892,0.447-20.817,0.964c-9.497,0.709-18.996,0.677-28.505,0.729c-6.698,0.037-13.394,0.475-20.092,0.71
		c-8.301,0.291-16.604,0.522-24.903,0.844c-5.665,0.22-11.323,0.594-16.987,0.819c-4.917,0.195-9.842,0.231-14.762,0.421
		c-5.887,0.226-11.778,0.428-17.652,0.852c-5.003,0.361-9.975,1.167-14.978,1.498c-3.433,0.229-6.833,0.485-10.194,1.256
		c-0.909,0.208-1.898,0.072-2.94,0.097c-0.017-0.74-0.033-1.421-0.053-2.264c1.821-0.061,3.572-0.585,5.298,0.284
		c0.208,0.104,0.512,0.104,0.749,0.051c0.616-0.144,1.21-0.45,1.829-0.503c5.326-0.454,10.659-0.817,15.982-1.309
		c3.334-0.308,6.645-0.924,9.982-1.153c3.013-0.207,6.05-0.02,9.075-0.107c3.028-0.087,6.052-0.347,9.079-0.443
		c7.331-0.235,14.665-0.345,21.993-0.647c6.123-0.251,12.235-0.833,18.358-1.031c8.775-0.283,17.558-0.321,26.336-0.516
		c10.301-0.229,20.603-0.413,30.899-0.805c8.93-0.34,17.845-0.979,26.771-1.416c4.467-0.219,8.949-0.179,13.414-0.43
		c11.317-0.637,22.649-0.473,33.971-0.514c8.623-0.031,17.251,0.365,25.868,0.762c3.636,0.167,7.369,0.089,10.796,1.72
		c0.466,0.223,0.881,0.557,1.319,0.84C390.744,42.659,390.699,42.781,390.655,42.905z"/>
	<path d="M357.469,48.035c-1.26-0.193-2.078-0.423-2.895-0.426c-4.225-0.013-8.452-0.047-12.676,0.075
		c-7.587,0.216-15.165,0.568-22.749,0.809c-8.214,0.261-16.432,0.475-24.647,0.681c-10.056,0.253-20.111,0.476-30.167,0.715
		c-7.027,0.167-14.054,0.347-21.082,0.51c-11.5,0.265-23.002,0.46-34.501,0.805c-5.508,0.165-11.006,0.63-16.511,0.9
		c-1.493,0.073-2.997-0.075-4.495-0.122c-0.035-0.178-0.069-0.354-0.104-0.531c0.422-0.16,0.838-0.444,1.265-0.461
		c3.11-0.129,6.224-0.14,9.33-0.311c4.458-0.246,8.905-0.698,13.364-0.878c6.78-0.272,13.564-0.396,20.348-0.567
		c2.154-0.054,4.312-0.034,6.468-0.094c6.611-0.183,13.221-0.452,19.833-0.57c10.853-0.191,21.711-0.177,32.561-0.456
		c13.411-0.342,26.817-0.886,40.223-1.361c5.178-0.184,10.353-0.466,15.53-0.607c2.47-0.067,4.948,0.043,7.419,0.162
		C355.172,46.364,356.274,46.787,357.469,48.035z"/>
	<path d="M207.835,57.072c0.494-0.221,0.971-0.589,1.481-0.645c5.309-0.574,10.617-1.164,15.938-1.617
		c5.008-0.427,10.026-0.764,15.045-1.014c3.345-0.167,6.7-0.083,10.052-0.163c8.776-0.211,17.554-0.467,26.333-0.671
		c2.87-0.065,5.743-0.026,8.615-0.029c5.271-0.005,10.546-0.084,15.815,0.025c3.087,0.065,6.237-0.211,9.225,0.946
		c0.26,0.101,0.511,0.222,0.691,0.722c-1.938,0.046-3.881,0.156-5.817,0.122c-3.59-0.062-7.18-0.245-10.773-0.312
		c-4.151-0.078-8.31-0.183-12.462-0.1c-7.105,0.143-14.208,0.472-21.313,0.626c-4.871,0.105-9.749-0.066-14.619,0.084
		c-7.021,0.216-14.046,0.488-21.052,0.972c-5.331,0.369-10.635,1.11-15.953,1.666c-0.348,0.037-0.711-0.086-1.068-0.136
		C207.928,57.391,207.882,57.231,207.835,57.072z"/>
	<path d="M405.225,37.788c-0.017,0.669-0.006,1.168-0.046,1.663c-0.247,2.937-0.499,5.874-0.764,8.809
		c-0.15,1.667-0.266,3.342-0.507,4.998c-0.472,3.209-2.727,5.107-5.154,6.888c-5.084,3.727-10.216,7.39-15.173,11.278
		c-2.37,1.86-4.373,4.184-6.562,6.277c-0.523,0.499-1.003,1.638-1.882,0.814c-0.824-0.779,0.096-1.385,0.664-1.923
		c2.202-2.082,4.294-4.3,6.637-6.214c2.526-2.067,5.302-3.826,7.94-5.762c2.763-2.027,5.439-4.169,8.236-6.144
		c2.868-2.024,3.967-4.827,4.155-8.194c0.189-3.34,0.491-6.676,0.785-10.01C403.642,39.29,403.636,38.179,405.225,37.788z"/>
	<path d="M113.543,74.312c-1.222,1.385-2.866,1.652-4.45,1.405c-5.86-0.915-10.55-3.816-13.882-8.762
		c-0.519-0.771-0.823-1.714-1.073-2.619c-0.093-0.337,0.251-0.795,0.519-1.535C98.719,70.705,105.111,74.12,113.543,74.312z"/>
</g>
</svg>
