<?xml version="1.0" encoding="utf-8"?>
<!-- Generator: Adobe Illustrator 19.2.0, SVG Export Plug-In . SVG Version: 6.00 Build 0)  -->
<svg version="1.1" id="Layer_1" xmlns="http://www.w3.org/2000/svg" xmlns:xlink="http://www.w3.org/1999/xlink" x="0px" y="0px"
	 viewBox="0 0 389 602.9" style="enable-background:new 0 0 389 602.9;" xml:space="preserve">
<style type="text/css">
	.st0{fill:#4CC1EF;}
	.st1{fill:#4197D3;}
	.st2{fill:#FEE5D2;}
	.st3{fill:#FEE65E;}
	.st4{fill:#434244;}
	.st5{fill:#FFFFFF;}
</style>
<g>
	<path d="M39.6,174.1c-1.2-0.5-1.8-0.7-2.5-1c-1.8-0.7-3.2-1.9-4.3-3.6c-1.1-1.7-2.8-3-4.1-4.5c-1.4-1.6-2.8-3.2-4.2-4.8
		c-0.9-1-1.7-2.1-2.6-3c-1.8-1.9-2.4-4.3-1.5-6.6c1,0.1,2,0.1,3.2,0.2c-1-1.3-1.9-2.5-2.8-3.7c-1.3-1.8-1.6-3.8-0.8-5.9
		c0.6-1.6,1-1.8,2.7-1.3c3.5,0.9,6.1,3,8.1,5.8c2.8,3.9,6.3,6.8,10.3,9.3c0.2,0.1,0.5,0.2,1,0c-1.7-2-3.5-4-5.2-6
		c-1.9-2.2-3.8-4.5-5.5-6.8c-0.7-1-1.2-2.2-1.5-3.5c-0.5-2,0.8-3.1,2.8-2.6c1.9,0.5,3.2,1.8,4.4,3.1c3.7,3.7,7.1,7.7,10.8,11.3
		c4.6,4.4,9.7,8.4,15.6,11c0.3,0.1,0.6,0.1,1,0.2c1-2,0.9-4.1,0.3-6.2c-0.5-1.6-1-3.2-1.5-4.8c-0.2-0.5-0.4-1.1-0.5-1.6
		c-0.5-2.8-0.1-5.2,3-6.6c1.9,0.2,2.9,1.8,3.6,3.4c1.4,2.9,2.7,5.7,4,8.6c0.9,2,2,3.8,4.6,3.7c0.4,0,0.9,0.8,1.1,1.3
		c1.2,2.9,2.3,5.9,3.6,8.8c0.9,2,2.1,3.9,3.5,5.6c1.2,1.5,3,2.6,4.5,3.8c6.6,5.2,13.3,10.5,20,15.7c5.3,4.1,10.8,8.1,16.8,11
		c1.8,0.9,3.4,2,5,3.1c3.3,2.3,6.6,4.6,10,6.9c0.6,0.4,1.3,0.6,1.6,0.7c2.3-2.2,4.5-4.1,6.6-6.2c2.4-2.4,4.6-5,6.8-7.5
		c0.9-1,1.5-2.2,2.3-3.3c3.9-4.9,7.8-9.7,11.9-14.5c3.3-3.9,6.8-7.7,10.3-11.5c1.1-1.2,2.2-2.3,3.2-3.5c4.1-5.1,9.2-8.8,14.6-12.4
		c2.2-1.4,4.6-2.5,6.8-3.8c1.8-1,3.6-2,5.3-3.1c6.2-3.8,12.8-6.9,19.7-9.1c2.4-0.7,4-1.8,6.2-4.1c-2.2-1-3.9-2.9-6.7-1.5
		c-1.2,0.6-2.7,0.9-4.3,1.4c-0.4-0.2-1-0.6-1.4-0.8c-2.5,1.6-4.9,3.1-7.3,4.5c-1.5,0.9-3.1,0.4-4.6,0c-0.7-1.1-0.4-1.9,0.7-2.8
		c2.5-2.1,4.1-5.2,2.4-8.6c-1.2,1.6-2.3,3.3-3.7,4.7c-0.8,0.8-2,1.3-3,1.8c-0.5,0.2-1.1,0.2-1.6,0.2c-1,0-2.1-0.1-3.1-0.2
		c-0.4,0-0.7-0.4-1.1-0.6c0.7-2.9,4.2-3.4,5.3-6.3c-1.3,0.3-2.5,0.3-3.5,0.7c-3.9,1.8-6.5-0.5-9.8-2.6c2.4-0.9,4.9-0.5,6.5-2.3
		c1.5-1.6,2.3-3.6,2.6-5.9c-1.1,0-2-0.1-3,0.7c-0.9,0.7-1.9,0.9-3.1,0.5c-1.5-0.5-3.1-0.7-4.6-1.2c-1.1-0.3-2.1-0.6-2.5-1.9
		c1.3-1.5,3-2.3,5.2-2.1c-1.4-1.1-2.7-2-3.7-3.1c-0.9-1-2.3-2.1-1.1-4.2c0.8,0.2,1.7,0.5,2.6,0.7c2.7,0.9,4.8,0.3,6.4-1.8
		c1.7-2.3,3.4-4.6,5.2-6.7c2.2-2.5,3.4-5.5,4.7-8.5c0.5-1.1,0.8-2.2,1.3-3.3c2.4-5.6,3.4-11.5,4.8-17.3c1-4.3,1.6-8.7,4.4-12.4
		c0.5-0.6,0.9-1.3,1.5-1.8c2-1.9,4.1-3.7,6-5.7c1.9-1.9,4.3-2.6,6.7-3.4c0.4-0.1,0.9,0.1,1.4,0.1c1.7,0,3.5,0,5.2-0.2
		c3.4-0.3,5.5-2.4,7.2-5.1c1-1.5,1.9-3.1,2.9-4.8c2.6,2.2,1.4,5,1.9,7.6c4.6-2.7,5.8-7.7,8.4-11.8c1.8,0.9,1.9,1.3,2.1,7
		c0.2-0.1,0.5-0.1,0.6-0.3c1.4-2.4,4.1-3.9,4.7-6.9c0.1-0.6,1.2-1,1.8-1.4c1.5,1.4,1,3,1.4,4.6c1.5-0.9,2.3-2.1,2.7-3.4
		c0.5-1.8,1.7-2.5,3.3-3c0.8,1.7,0,3.3,0.2,5.1c0.9-0.2,1.6-0.6,1.9-1.4c0.7-1.6,2-2.8,3.4-3.9c1-0.8,1.6-0.5,1.7,0.7
		c0.1,0.7,0,1.4,0,2.1c0,0.6-0.1,1.2,0.2,1.9c0.7-1.2,1.4-2.3,2.2-3.5c0.8-1.2,1.5-2.4,3.4-2.4c-0.1,3.4-1,6.4-2.1,9.6
		c1.5,0.4,2.7-0.1,3.7-1.1c0.7-0.7,1.3-1.6,2-2.4c0.5-0.7,0.7-1.8,2-1.6c0.4,0,0.8-0.9,1.6-1.2c-0.1,0.5-0.1,1-0.3,1.5
		c-0.8,1.6-1.6,3.1-2.5,4.6c-2.9,4.4-5.8,8.8-8.8,13.2c-1.1,1.6-1.4,3.1-1.1,5.1c0.7,4.9,3.1,9,6,12.7c1.2,1.6,3.2,2.6,4.8,3.8
		c0.7,0.5,1.5,0.9,2.2,1.4c1.4,1.1,1.3,2-0.2,2.9c-0.4,0.2-0.9,0.3-1.4,0.5c2.1,2.5,5.4,2.6,8.3,4.1c-1.3,1.4-2.4,2.5-3.5,3.6
		c1.6,1.7,3.8,0.2,5.7,0.8c1.2,2.2,1.2,2.3-0.6,3.6c-0.7,0.5-1.4,1-2.3,1.7c1.8,1.2,3.7,1.4,5.6,1.7c1,0.1,2.3-0.4,2.7,0.8
		c0.4,1.4-1,2-1.9,2.6c-0.8,0.6-1.7,1.1-2.8,1.8c3.1,1.5,6.2,0.4,9.2,1.1c0.1,3.6-2.5,5.9-4.4,8.7c0.1,0.3,0.4,0.7,0.7,1.2
		c-0.6,0.2-1.2,0.3-1.9,0.5c0.3,0.6,0.5,1.1,0.8,1.7c-1.1,2-3.5,1.4-5,2.5s-3,2-4.7,3c0,0.4,0.1,0.8,0.1,1.2c-3.6,2-7.2,4-10.6,5.9
		c-0.5,3.7-0.9,7.4-1.4,11.2c0.6,0,1.1,0.1,1.6,0c3.1-0.6,6.2-1.3,9.3-1.8c1.5-0.3,3-0.2,4.5-0.4c3.5-0.5,7.1-0.8,10.6-1.5
		c5.5-1.2,10.3,0.1,14.8,3.1c4.1,2.7,7.2,6.4,10.5,9.9c4.5,4.7,8.3,10,11.2,15.8c2.3,4.5,5,8.8,7.7,13c3,4.8,5.9,9.5,8.9,14.2
		c1.6,2.4,3.3,4.6,5.1,6.8c3.5,4.3,5.9,9.2,7.4,14.5c0.6,2.3,1.6,4.4,2.2,6.7c0.5,2.1,0.8,4.4,1,6.5c0.4,3.8-0.4,7.6-1.4,11.2
		c-0.5,1.6-1.9,3.1-3.2,4.3c-3.6,3.6-7.3,7-10.9,10.6c-4.1,4.1-8.2,8.2-12.2,12.3c-4.7,4.8-9.2,9.8-13.9,14.6
		c-4.3,4.5-8.8,8.8-13.1,13.4c-2.5,2.6-4.9,5.4-7,8.2c-1.6,2.2-2.9,4.7-4.3,7c-0.5,0.7-0.9,1.5-1.6,2c-1.7,1.3-1.7,3-1.3,4.9
		c1.2,4.7,2.3,9.5,3.5,14.3c1.3,5,2.8,9.9,4.1,14.8c1.5,5.6,2.8,11.4,4.5,16.9c2.9,9.5,4.2,19.3,6.5,28.9c1.7,7,3.8,13.9,6,20.7
		c2.1,6.5,4.9,12.7,7.1,19.1c2.1,6,4.3,12.1,6.1,18.2c1.3,4.6,2.1,9.4,3.1,14.1c0.8,4.3,1.5,8.6,2.2,12.9c0.1,0.7,0.6,1.3-0.3,1.9
		c-0.2,0.1,0,0.7,0,1.1c0.8,7.5,1.7,15,2.3,22.5c0.4,4.5,0.3,9,0.2,13.5c-0.2,7.1-0.5,14.2-1,21.3c-0.2,3.1-1.2,6.2-1.6,9.3
		c-1.1,8.7,0.2,17.2,3.3,25.4c0.8,2.2,1.7,4.4,2.6,6.6c0.5,1.1,1.1,2.1,1.8,3c1,1.3,1,1.8-0.4,2.6s-2.9,1.7-4.4,2.3
		c-1.2,0.5-1.5,1.4-1.4,2.5c0.1,1.3,0.1,2.6,0.5,3.8c1,3.4,2.1,6.8,3.3,10.1c1.2,3.4,2.8,6.7,3.9,10.2c0.7,2.2,1.2,4.5,1.3,6.7
		c0.1,1.6-0.7,3.2-1.1,4.8c-2,0.7-2.9,2.7-4.7,3.7c-4.6,2.3-9.4,4.3-14.5,4.9c-3.4,0.4-6.5-1-9.6-2.2c-2.3-0.9-4.1-2.5-5.6-4.5
		c-1.9-2.5-2.2-5.2-2.1-8.1c0.2-3.9,0.4-7.8,0.9-11.6c0.3-2.5,0.9-5,1.7-7.3c1-3.3,2.7-6.4,2-10.4c-1.7-0.1-3.5-0.3-5.3-0.4
		c-2.1-0.1-2.7-0.6-2.7-2.7c0-1.7,0.2-3.3,0.5-5c1.1-5.5,1.1-11.2,1.5-16.8c0.2-3,0.4-6,0.3-9c-0.1-2.7-0.8-5.5-1-8.2
		c-0.5-6.2-0.9-12.3-1.3-18.5c-0.4-7.3-0.9-14.6-1.1-21.8c-0.1-6.4-0.1-12.8,1.3-19.2c0.4-1.8,0.3-3.3-0.6-5
		c-3.1-5.9-5.9-11.9-9-17.8c-2.1-4-4.7-7.7-6.8-11.7c-2.4-4.5-4.7-9.1-6.9-13.8c-3.2-6.6-6.1-13.2-9.4-19.7
		c-3.6-7-7.5-13.7-11.1-20.7c-1.7-3.3-3.1-6.8-4.7-10.1c-2.2-4.7-4.4-9.3-6.5-14c-1.2-2.7-2.2-5.6-3.2-8.4c-0.2-0.4-0.4-0.9-0.7-1.6
		c-1.8,3.4-3.4,6.5-5.1,9.6c-1.1,2-2.1,4.1-3.3,6c-3.5,5.5-7.2,11-10.7,16.6c-1.9,3-3.3,6.3-5.1,9.4c-2.9,5.1-5.9,10.1-9,15.1
		c-4.8,7.6-9.8,15.2-14.7,22.7c-1.4,2.1-2.5,4.4-3.9,6.5c-2.4,3.7-3,7.8-3,12c0,3.5,0,6.9-0.7,10.4c-0.4,1.8-0.3,3.6-0.4,5.4
		c-0.2,5-0.7,9.9-1.4,14.9c-0.8,5.2-1.2,10.5-2,15.8c-0.7,4.5-1.5,8.9-2.5,13.3c-1.1,5-2.5,10-3.9,14.9c-1.2,4.1-1.7,8.4-1.8,12.7
		c-0.1,3.9-0.3,7.8,0.1,11.6c0.5,5.6,1.9,11,3.7,16.4c0.7,2.3,2,4.2,3.2,6.3c1.1,1.9,0.7,2.6-1.6,2.8c-1.5,0.2-3,0.4-4.7,0.7
		c0,1.4-0.1,2.8,0,4.2c0.1,1.5,0.4,3,0.7,4.5c0.8,4.7,1.7,9.5,2.5,14.2c0.1,0.7-0.1,1.4,0.7,1.9c0.3,0.2,0.2,1,0.1,1.5
		c-0.4,2.1-0.4,4,0.8,5.9c1,1.6,0.7,2.1-1.1,2.9c-0.7,0.3-1.5,0.5-2.2,0.7c-2.3,0.5-4.6,0.9-6.9,1.5c-6.3,1.7-12.6,2.9-19.2,2.8
		c-3.6-0.1-6.9-0.9-10.1-2.4c-3.5-1.6-5.9-4.2-7.2-7.8c-0.4-1-0.9-2-1.2-3.1c-0.2-0.6-0.2-1.2-0.2-1.8c0.8-5.9,2.8-11.2,6.2-16.1
		c2.5-3.6,4.1-7.5,3.8-12c-2.3-0.8-4.6-1.5-6.9-2.3c-2.1-0.8-2.5-2.1-1.1-3.7c3.2-3.8,4.8-8.3,6.5-12.8c1-2.7,2.1-5.3,2.8-8
		c1-3.6,1.6-7.2,2.4-10.9c1.2-5.6,0.4-11.3,0.4-17c0-6.3-0.3-12.7,0.8-18.9c0.9-5.3,1.7-10.6,2.4-16c0.7-5.2,1.2-10.4,1.8-15.6
		c0.4-3.2,0.8-6.4,1-9.7c0.1-3.5,0-7.1-0.1-10.7c-0.1-3.7-0.7-7.4-0.4-11.1c0.3-4.3,1.6-8.5,3.7-12.4c2.9-5.3,5.2-10.8,6.7-16.6
		c1.6-6,3.5-12,5.2-18c1.2-4.3,2.1-8.8,3.3-13.1c1.4-5.2,2.9-10.4,4.5-15.5c1.8-5.5,3.7-10.9,5.8-16.3c1.3-3.3,2.9-6.5,4.4-9.7
		c1.3-2.9,2.5-5.8,3.8-8.7c1.2-2.6,2.5-5.3,4-7.8c1.4-2.2,2.2-4.5,2.9-6.9c0.9-3,1.8-6,2.8-9c0.3-0.9,0-1.6-0.1-2.5
		c-0.3-1.8-0.3-3.8,0-5.6c1-5.4,0.6-10.9,0.3-16.3c-0.2-3.9-0.2-7.9-0.3-11.9s0-8.1-0.1-12.1c-0.1-3.2-0.5-6.5-0.5-9.7
		c-0.1-6.5-1.3-12.7-3.6-18.8c-2.2-5.7-4.5-11.3-6.8-17c-0.6-1.6-1.2-3.2-1.9-4.8c-0.3-0.8-1-1.4-1.3-2.2c-0.6-1.3-1.1-2.6-1.5-4
		c-0.3-1.1-0.4-2.3-0.6-3.8c-1.7,1.4-3.1,2.6-4.5,3.8c-4.2,3.3-8.3,6.5-12.6,9.7c-5.3,4.1-10.7,8.1-16.1,12.1
		c-0.5,0.4-1,0.8-1.5,1.1c-3.9,2.1-7.1,5.3-10.6,8.1c-1.7,1.3-3.3,2.7-4.9,4.2c-2.2,2.1-4.5,4.2-6.6,6.4c-1.4,1.5-3.1,2.2-5,2.4
		c-3,0.3-5.9,0-8.9-0.7c-3.6-0.9-6.6-2.8-9.7-4.9c-5.5-3.7-10.2-8.2-15.3-12.3c-2.9-2.3-5.8-4.7-8.7-7c-4.3-3.4-8.6-6.8-12.8-10.2
		c-5.2-4.3-10.1-9-16.1-12.1c-2.3-1.2-4.8-2.1-7.2-3c-3-1.2-6-2.4-9.1-3.5c-1.2-0.4-2.6-0.6-3.9-0.8c-1-0.1-1.7-0.4-2-1.3
		c-0.2-1-1-1.2-1.7-1.4c-4.1-1.4-8.3-2.4-12.7-2.6c-1.6-0.1-3.3-0.6-4.7-1.4c-3.5-1.9-7.5-2.5-11.2-3.8c-1.2-0.4-2.4-0.9-3.4-1.5
		c-2-1.3-1.8-3.6,0.4-4.4c2.9-1,5.9-1.7,9.1-0.9C35,175.1,37.1,175,39.6,174.1z M289,117.7c0.8,0,1.7,0,3,0c-1-0.7-1.6-1.1-2.2-1.6
		c0.1-0.2,0.1-0.3,0.2-0.5c0.8,0.3,1.6,0.6,2.5,0.8c0.8,0.2,1.7,0.3,2.5,0.4c0.8,0,1.7-0.1,2.6-0.1c0-0.2,0-0.3,0-0.5
		c-1.9-0.3-3.7-0.9-5.6-0.9c-2.1,0.1-4-0.2-6.1-0.7c0.5,0.7,1,1.3,1.4,2c-1-0.5-1.8-1.1-2.1-2.3c-0.2-0.7-0.9-1.2-1.4-1.7
		c-0.1-0.1-0.4-0.1-0.7-0.1c-0.2,0.5-0.4,1-0.5,1.4c3.5,4.6,7.9,6.6,14,5.3c-1.3-0.8-2.3-0.9-3.4-1
		C291.7,118.2,290.4,117.9,289,117.7z M269.7,48.1c-0.3,0.8-0.6,1.5-0.9,2.3c2-1.2,3.3-2.9,3.7-5.1c0.2-0.6,0.3-1.3,0.6-2.3
		c-1.3,1-2.3,1.7-3.3,2.4c1.4-1.5,2.8-3,4.3-4.4c2.1-2.1,3.6-4.5,3.7-7.7c-1.2,2.2-4.1,3-4.6,5.7c-1.6-0.7-1.5-1.9-1.1-3.2
		c-0.7,0.6-1.3,1.1-1.8,1.5c-1.7,1.4-2.8,3.1-2.7,5.5c0,1-0.5,2-0.8,2.9c-0.2,0.5-0.3,1.1-0.6,1.9c0.8-0.4,1.3-0.7,1.8-1
		c-0.6,0.6-1.3,1.3-1.9,1.9c-0.4,0.4-0.9,0.7-1.2,1.1c-1,1.7-1.9,3.5-2.8,5.2C265.2,53.2,267.6,50.8,269.7,48.1z M241.4,127.2
		c1.6-0.1,1,1.5,1.7,2.2c2.4-2.6,3.9-5.6,4.9-8.9c0.3-1.2,0.2-2.3-0.3-3.5c-1.4,2.4-2.7,4.5-4.1,6.7c0.2-1.2,0.5-2.5,0.7-3.7
		c0.3-2.1,0.7-4.2,0.9-6.3c0.1-0.4-0.2-0.9-0.3-1.6c-0.3,0.4-0.4,0.5-0.5,0.6c-1.3,2.9-2.6,5.9-4,8.8c-0.5,1-1,1.3-1.8,0.4
		c1.3-2.4,2.7-4.6,3.7-7c0.6-1.5,0.8-3.2,1-4.8c0.1-0.7-0.4-1.5-0.8-2.5c-2.2,4-2.7,8.5-6.5,11.6c2.3-4.4,3.5-8.6,4.1-13
		c0.2-1.3,0.1-2.5-1.1-3.7c-2.8,2.1-2.3,5.9-4.3,8.3c-0.4-0.2-0.8-0.3-1.1-0.4c0.7-2.2,1.4-4.2,1.9-6.3c0.2-0.7,0-1.6-0.4-2.1
		c-1.1-1.4-2.5-2.5-3.9-3.9c-0.4,0.9-0.7,1.8-1.2,2.6c-1,1.8-2,3.6-3,5.4c-0.2,0.3-0.7,0.4-1.1,0.7l0.1,0.1c1.8-2.7,3.2-5.5,4.3-8.6
		c0.4-1.3,0.4-2.2-0.2-3.3c-0.6-1-1-2.2-1.6-3.1c-2.1-3.1-1.3-6,0.3-8.9c0.3-0.6,0.7-1.3,0.6-1.9c-0.2-1.2-0.7-2.4-1.2-3.6
		c-0.9-1.8-1.9-3.6-2.9-5.4c-0.7-1.4-1.4-2.8-2.9-3.6c-0.6-0.3-1.4-0.9-0.6-2.1c0.8,0.3,1.6,0.6,2.5,1c0.4,0.2,0.8,0.5,1.2,0.6
		c2.7,0.4,5.5,0.6,8.2,1c2.2,0.3,4.3-0.2,6.1-1.4c-0.8,0-1.5,0.1-2.1,0c-1.1-0.2-2.4-0.2-3.1-1.4l0,0c2.4,1,5,1.3,7.6,0.9
		c2.1-0.3,3.3-2.4,4.9-3.8c-1.7-0.1-3.3-0.1-5.4-0.2c4.4,0,8.5,0.3,11.1-3.6c-1.6-0.3-3.1-0.6-4.6-0.9l-0.1,0.1c1.6,0,3.1,0,4.7,0.1
		c1.4,0.1,2.6-0.4,3.7-1.1c4-2.5,6.7-5.9,8.3-10.3c0.1-0.4,0.2-0.8,0.2-1.1c-0.7,0.5-1.1,1.1-1.5,1.6c-1.2,1.4-2.3,2.8-4.1,3.3
		c0.2-0.2,0.3-0.6,0.5-0.7c2.9-2.2,4.6-5.3,6.4-8.3c0.1-0.2,0.1-0.4,0.2-0.7c-0.5-0.1-0.9-0.1-1.3-0.2c-0.3,0.9-0.6,1.7-0.8,2.5
		c-0.2,0-0.3-0.1-0.5-0.1c0.1-0.9,0.2-1.8,0.3-2.7c0.1-0.9,0.1-1.8,0.2-2.7c-0.8-0.2-1.4-0.4-1.9-0.6c-0.9,1.6-0.8,1.6-0.3,3.1
		c0.7,1.8,1,3.7-0.5,5.3c0-1.7,0.7-3.5-0.7-5.1c-0.9,1.6-1.7,3-2.6,4.3c-1.3,1.8-2.7,3.7-4.9,4.6c1.1-1.3,2.2-2.5,3.4-3.8
		c-1.3,0.3-2,1.7-3.7,1.5c0.1-1.2,0.2-2.4,0.2-3.6c0-1.2,0.3-2.4-0.6-3.6c-1.6,2.3-3.1,4.4-4.7,6.7c1.2,0.1,2.2,0.2,3.2,0.3
		c0.2,0.8,0,1.1-0.9,1.3c-2.8,0.5-5.5,1-8.3,1.6c1,0.4,2,0.4,3,0.6c1.9,0.4,3.7,0.3,5.6-0.4c0.9-0.4,1.9-0.5,2.9-0.8
		c-1.2,0.7-2.4,1.4-3.6,2.2c0.6,0.4,1.2,0.8,1.7,1.2c-2-0.6-3.9-1.4-6-0.3c-0.2,0.1-0.7-0.2-1.1-0.3c0.3-0.3,0.5-0.5,0.7-0.8
		c-3.3-1.1-6.6-1.2-9.8,0c-3.8,1.4-6.7,4-8.6,7.7c-0.4-0.2-0.7-0.4-1.2-0.7c-0.6,1-1.2,2-1.9,3c-0.6,0.9,0.1,2.5-1.3,3.1
		c-0.4-3.6,2.5-5.8,3.6-8.8c-2.6,2.3-4.7,4.8-5.4,8.2c-0.8,3.4-1.4,6.8-2.3,10.2c-1.2,4.6-2.8,9.1-3.9,13.7
		c-1.1,4.9-3.7,9.1-5.6,13.6c-0.1,0.3-0.5,0.4-0.9,0.7c0.1-0.7,0.1-1.1,0.2-1.9c-1.9,2.5-3.6,4.6-5.1,6.9c-1.3,2-3,3.2-5.4,3.3
		c-0.6,0-1.3,0.1-1.9,0.2c1.3,0.9,2.8,1.3,2.8,3.3c1.4-0.7,2.6-1.3,3.8-1.9c0.1,0.1,0.1,0.3,0.2,0.4c-1.3,0.9-2.5,1.8-3.9,2.7
		c0.3,0.5,0.5,1,0.7,1.5c-0.1,0-0.2,0.1-0.3,0.1c-0.5-0.5-0.9-1-1.6-1.7c-0.5,0.6-1,1.1-1.4,1.5c0.5,0.4,1,1,1.6,1.1
		c1.5,0.2,3,0.2,4.5,0c3.2-0.5,4-1.1,3.8-3.7c0-0.1,0.1-0.2,0.2-0.4c0.8,1.1,0.8,1.1-0.2,4.6c-0.5,1.7-0.9,3.4-1.6,4.9
		c-0.7,1.5-1.8,2.9-2.7,4.3c0.1,0.2,0.2,0.3,0.3,0.5c1.8-0.3,3.6-0.4,5.3-1c2.3-0.8,4.8-1.4,6.2-3.8c0.3,2.4-1.8,3.7-2.2,5.8
		c-0.4,2.2-2.9,2.8-3.8,4.7c2.2-0.5,4.2-1.2,5.5-3.1c1.2-1.8,2-3.8,3.1-6c0.8,0.7,2,1.2,2.2,2c0.8,3.4,1.1,6.8-1,10
		c-0.4,0.6-0.8,1.1-1.4,2.1c1.5-0.6,2.7-0.4,3-2c0.1-0.4,0.5-0.8,0.9-1c1.9-1.1,3.5-2.6,4.3-4.5c1.4,0.5,2.6,1,4.2,1.5
		c0.8-0.7,1.7-1.5,2.8-2.5c0.2,0.8,0.4,1.6,0.6,2.2c1.9,0.6,3.1-0.2,4-1.8c0.5-0.9,1.1-1.8,1.6-2.6c0.1-0.1,0.2-0.2,0.5-0.3
		c0.3,0.4,0.6,0.8,0.8,1.3c0.7-0.3,1.3-0.6,2-0.9c-1.5,1.8-3.9,2.6-5.6,5.1c1.8-0.5,3.1,0.4,4.2-0.8
		C240.6,130.5,241.6,129.1,241.4,127.2z M272.4,52.3c-0.6,0.7-1.2,1.4-1.9,2.3c1.8,0.1,3.1-0.7,4.2-1.6c3.5-2.7,6.9-5.4,8.6-9.6
		c-0.4,1.1-0.5,2.3-1.1,3.3c-1.2,1.9-2.6,3.6-3.9,5.3c-0.2,0.3-0.3,0.7-0.5,1c0.1,0.1,0.2,0.2,0.3,0.2c1.1-0.8,2.3-1.6,3.4-2.4
		c0,0.1,0.1,0.1,0.1,0.2c-0.4,0.6-0.8,1.2-1.2,1.8c0.1,0.1,0.2,0.2,0.3,0.4c1.1-0.8,2.3-1.5,3.4-2.4c1.1-0.8,2.1-1.7,3-2.7
		c0.9-1.1,2.1-2.2,2.4-3.5c0.3-1.2,1.4-2,1.6-3.3c-0.6,0.1-1.1,0.2-1.9,0.3c1.4-0.9,2.5-1.7,3.6-2.4c-0.1-0.2-0.1-0.3-0.2-0.5
		c-1.1,0.1-2.3,0.1-3.4,0.2c0.2-0.5,0.4-1.1,0.6-1.7c-0.1,0-0.1-0.1-0.2-0.1c-1.1,1.2-2.2,2.4-3,3.3c-1.2-0.1-2.1-0.1-2.9-0.2
		c0.2-0.2,0.5-0.5,0.7-0.5c1.1,0.2,2-0.2,2.8-0.9c1.7-1.6,3.3-5.1,3.4-7.5c-1,1.1-2,2.3-3.2,3.4c-0.9,0.8-1.8,1.5-2.1,2.8
		c-0.2,0.7-0.6,1.3-1.6,1c0.3-0.9,0.6-1.6,0.9-2.4c-0.1,0-0.2-0.1-0.3-0.1c-0.2,0.4-0.5,0.8-0.7,1.2c-0.2-0.1-0.3-0.2-0.5-0.4
		c0.3-0.9,0.6-1.9,0.9-2.8c-0.1,0-0.2-0.1-0.3-0.1c-0.7,0.8-1.4,1.6-2.1,2.4c-0.3-0.4-0.5-0.7-0.9-1.2c-1.3,1.7-2.5,3.4-3.7,5
		c-3.3,4.4-5.2,9.6-9.9,13.6c2.4-0.6,3-3.2,5.4-2.7c0,0.4-0.1,0.8-0.1,1.2C272.6,52,272.5,52.1,272.4,52.3z M308,110.9
		c-5.3,1.1-10.5,0.9-16.2-0.4c0.5,0.8,0.6,1,1,1.5c-3.4,0.1-5.7-1.8-8-3.8c-0.4,1.1-0.8,1.9-1.1,2.9c1.1,0.7,2,1.3,3,1.9
		c1.8,1.1,3.6,1.3,5.7,1c0.9-0.1,2.2-0.5,2.3,1.2c3.3-0.6,6.7,0,10.3-1.6c-1.9-0.3-3.4-0.5-5.1-0.8c2,0,3.6,0.1,5.2,0
		C306.3,112.7,307.5,112.3,308,110.9c1.1-0.2,2.2-0.3,3.3-0.5c-0.1-0.2-0.1-0.4-0.2-0.6C310,110.2,309,110.6,308,110.9z
		 M311.2,100.3L311.2,100.3c-0.7-0.4-1.4-0.9-2.2-1.1c-0.9-0.3-1.9-0.3-2.8-0.6c-1.1-0.3-1.3-1-0.5-1.9c0.3-0.3,0.7-0.6,1.1-0.8
		c1.2-0.6,2.4-1.1,3.7-1.7c-0.6-0.3-1-0.6-1.4-0.7c-2.1-0.8-4.3-1.6-6.4-2.5c-0.5-0.2-1.1-0.8-1.1-1.3c0-0.9,0.8-0.7,1.4-0.6
		c1.6,0.2,2.9-0.3,3.9-1.4c-2.1-0.8-4.1-1.8-6.2-2.4c-1.4-0.4-1.8-1.2-1.9-2.5c1.8,0,3.4-0.2,5-1.2c-1.7-0.8-3.3-1.4-4.8-2.2
		c-2-1-3.9-2-5.9-3.1c-0.4-0.2-0.5-1-0.7-1.5c0.5-0.1,0.9-0.4,1.4-0.4c1-0.1,2.1,0,3.2,0c0.1-0.2,0.2-0.3,0.3-0.5
		c-7.7-4.6-10.1-12.2-12.1-20.8c-0.5,1.1-0.9,1.6-0.9,2.2c0,4,0,7.9,0.1,11.9c0,0.9,0.1,1.8,0.1,2.8c0.5,0,0.7,0.1,0.9,0.1
		c3-0.2,3.7,0.3,4,3.3c0.3,3.9,0.4,7.9,0.5,11.9c0,1.9-0.5,2.6-2.5,3.3c-0.5,0.2-0.9,0.4-1.5,0.7c1,2.8,3.1,4.3,5.3,5.7
		c-0.1,0.2-0.3,0.3-0.4,0.5c-1.3-0.6-2.5-1.3-4.2-2.2c1.2,3.3,3.9,4.8,5.9,6.8c-0.8-0.3-1.6-0.7-2.5-1.1c0.1,0.6,0.2,0.9,0.3,1.5
		c-1.8-1-0.8-3.9-3.2-4c-0.5,4.1,0.8,7.1,4.6,8.7c0.4,0.2,0.7,0.3,1,0.6c0.3,0.3,0.5,0.7,1.1,1.4c-3.2,0.3-5-1.5-7-2.8
		c-1.3,1-1.5,1.3-0.8,2c0.9,1,1.9,2,3,2.7c4,2.3,8.3,2.2,12.6,1.5c0.2,0.2,0.3,0.4,0.5,0.5c2.2,0.2,4.5,0.1,6.6-0.8
		c-0.1-1-0.5-1.1-1.3-0.9c-2,0.5-3.9,0.9-5.9,1.3c0.4-1.4,2.1-0.7,3.1-1.9c-1.3,0.1-2.4,0.4-3-0.3c1.8-0.2,3.6-0.3,5.3-0.8
		c2-0.6,4-1.5,5.8-2.5c1.9-1,3-2.8,4-5.1c-1.8,0-3.4,0-4.9,0C311.8,99.7,311.5,100.1,311.2,100.3z M324.9,161.5
		c0.2,0.2,0.4,0.4,0.5,0.7c0.4,0.9,0.9,1.9,1.2,2.9c2.1,6.8,4.2,13.6,7.8,19.8c0.6,1,1.2,2.1,1.7,3.1c2.4,5.2,5.5,10,8.6,14.8
		c3,4.7,5.8,9.4,8.8,14.1c0.4,0.6,0.7,1.3,1.2,1.7c1.3,1.1,2.1,2.5,2.8,4c0.8,2,0.7,2.7-1,4c-0.9,0.7-1.8,1.3-2.6,2
		c-4.4,3.5-8,7.9-11.4,12.4c-4.3,5.5-8.4,11.3-11.6,17.6c-2.8,5.5-6.3,10.6-10.2,15.4c-2.9,3.6-5.9,7.2-8.9,10.8
		c-2,2.3-1.7,3.4,1.7,4.6c0.4,0.1,0.8,0.1,1.2,0.2c3,0.6,6,1.1,9.1,1.7c1.9,0.4,3.5,0.3,5-1.3c2.7-2.8,5.5-5.4,8.2-8.2
		c4.1-4.2,8.2-8.4,12.2-12.6c5-5.2,9.8-10.5,14.9-15.6c5.4-5.5,10.9-10.8,16.5-16.1c4.4-4.1,5.2-9.4,4.9-14.9
		c-0.1-2.9-1-5.8-1.3-8.7c-0.4-3.5-1.9-6.7-3.5-9.8c-2.7-5.4-6-10.4-9.7-15.2c-0.9-1.1-1.6-2.4-2.3-3.6c-2.3-3.9-4.4-7.9-6.9-11.6
		c-2.9-4.2-5.4-8.5-7.8-13c-2.3-4.4-4.8-8.8-8-12.6c-4.1-4.9-8.2-9.8-13.8-13.2c-2.6-1.6-5.3-2.6-8.2-2.6c-2.6,0-5.2,0.6-7.8,0.9
		c-3.6,0.4-7.2,1.2-10.8,1.1c-3.4-0.1-6.6,0.6-9.8,1.4c-2.3,0.6-3.4,1.5-4.2,3.9c-1.6,4.8-4,9.3-6.7,13.6c-2.6,4-6.1,7.3-8.2,11.5
		c-0.9,1.7-1.9,3.6-2.2,5.4c-0.9,6.4,0,12.8,1.3,19.1c0.8,4,1.9,7.8,3,11.7c0.3,1.2,0.3,2.1-1.1,2.8c-0.4-0.6-0.8-1.1-1.1-1.7
		c-1.8-3.9-3.5-7.8-5.4-11.6c-1.2-2.4-2.6-4.7-4.2-6.8c-4.1-5.3-8.7-10.3-12.6-15.7c-4.7-6.4-8.2-13.5-10.1-21.3
		c-0.5-2.2-2.2-3.2-3.6-4.6c-1-1-2.1,0.1-3.2-0.1c-0.2,0-0.5,0-0.7,0c-4.6,0.1-8.9,1.2-13,3.4c-4.9,2.6-9.7,5.4-14.6,7.9
		c-5,2.5-9.7,5.5-13.9,9c-4.4,3.6-8.5,7.8-12.4,12c-4.6,5-8.9,10.3-13.3,15.5c-2.6,3.1-5.5,6-7.7,9.3c-2.7,3.9-6.1,7.1-8.9,10.8
		c-2.7,3.4-5.9,6.4-7.6,10.5c-0.3,0.8-0.8,0.9-1.5,0.5c0.1-0.2,0.1-0.5,0.2-0.7c1-2.2,1-2.5-1-3.9c-1.2-0.9-2.5-1.6-3.7-2.5
		c-4.8-3.4-9.6-6.7-14.8-9.4c-2.5-1.3-5-2.8-7.2-4.5c-3.9-2.9-7.6-6-11.4-8.9c-5.8-4.5-11.7-8.9-17.5-13.4c-3.2-2.5-6.1-5.2-7.2-9.4
		c-0.3-1.3-1.1-2.4-1.6-3.5c-1.2,2.7-2.1,5.3-3.5,7.7c-1.8,3.1-4.1,6-5.9,9.2c-1.8,3.1-3.9,5.7-6.7,7.8c-0.3,0.2-0.6,0.5-0.9,0.8
		c0.5,0.4,0.7,0.7,1,0.8c2.9,1.1,5.7,2.4,8.6,3.3c3.9,1.2,7.6,2.7,10.9,5.1c3.2,2.4,6.4,4.9,9.6,7.4c2.1,1.7,4,3.6,6.1,5.3
		c4.7,3.8,9.5,7.5,14.3,11.3c1.2,1,2.5,1.9,3.8,2.9c5.4,4.5,10.7,9.1,16.2,13.5c4.7,3.7,10.2,5.6,16.4,5.2c1.9-0.1,3.4-0.9,4.9-2.1
		c7.4-5.9,14-12.8,22-18c0.7-0.4,1.3-0.8,2-1.3c5.1-3.8,10.1-7.7,15.2-11.3c6.1-4.3,11.9-8.9,17.5-13.8c0.4-0.3,0.7-0.9,0.8-1.3
		c0.6-2.5,1.1-5.1,1.5-7.7c0.4-2.1,1.6-4.1,2.9-4.9c-0.5,2.6-1.2,5.3-1.4,8.1c-0.2,3-0.2,6.1,0.5,8.9c0.7,3.1,2.2,6.1,3.5,9.1
		c2.6,6,5.2,12,7.8,18.1c0.5,1.2,1.1,2.5,1.5,3.8c0.6,1.8,1.2,3.6,1.4,5.5c0.4,3.5,0.5,7,0.7,10.4c0.3,5.5,0.6,10.9,0.9,16.4
		c0.3,4.7,0.7,9.3,0.9,14c0.1,2.9,0.2,5.9,0,8.8c-0.3,4.4-0.8,8.8-1.2,13.2c-0.1,1.2,0.2,2,1.2,2.8c1.9,1.4,3.8,3,4.7,5.2
		c0.6,1.6,1.8,2,3.1,2.1c1.4,0.2,2.8,0.2,4.2,0.2c4.9-0.2,9.8-0.5,14.7-0.8c3-0.2,6-0.4,9-0.6c5.1-0.3,10.2-1.1,15-3.1
		c2.3-1,4.7-1.8,7.2-2.5c1.3-0.3,2.1-1,2.9-1.9c1.8-2.1,3.5-4.2,5.5-6.2c2-2.1,4.2-4.1,6.4-6c1.8-1.5,4.2-2.3,4.9-4.9
		c0-0.1,0.2-0.3,0.3-0.4c2.7-2.3,4.1-5,4.1-8.6c-0.1-4.2,1.5-8.4,1.5-12.6c0-4.6,0.5-9.1,0.5-13.7c0-7,0.9-13.9,1.9-20.8
		c0.8-5.6,2.3-11.1,3.5-16.7c0.5-2.1,1.1-4.2,1.8-6.2c0.4-1.1,1-2.1,1.4-3.2c0.8-2.3,1.4-4.7,2.3-6.9c1.6-3.8,3.4-7.5,5.2-11.4
		C326.6,177.8,325,169.9,324.9,161.5z M230.9,306.1c-1.2,3.6-2.2,7-3.4,10.3c-1,2.8-2,5.7-3.5,8.3c-2.1,3.8-4.1,7.7-5.7,11.7
		c-2.2,5.5-4.5,10.9-7,16.3c-2.7,5.9-4.5,12.2-6.4,18.4c-2.2,7.3-3.9,14.7-5.8,22c-1.2,4.4-2.3,8.9-3.6,13.3c-1.1,4-2.4,8-3.6,12
		c-0.5,1.6-1.7,3-1,4.9c0.1,0.2-0.1,0.4-0.2,0.6c-1,1.8-1.9,3.6-3.1,5.3c-1.6,2.4-2.7,5-3.5,7.7c-0.8,2.8-1.1,5.6-0.9,8.4
		c0.3,3,0.8,5.9,1.1,8.9c0.2,1.6,1,3.2-0.4,4.7c-0.2,0.2,0,0.6-0.1,0.9c-0.2,3.5-0.2,7-0.5,10.4c-0.8,9.4-1.8,18.7-2.7,28.1
		c-0.6,6.4-1.2,12.8-2.1,19.1c-0.4,3.3-0.5,6.6-0.1,9.9c0.1,1.3,0.4,2.7,0.3,4c-0.2,3.1-0.2,6.2-0.9,9.2s-0.7,6.1-2.4,8.9
		c-1.1,1.7-1.4,3.8-2,5.8c-1.3,4.3-2.8,8.6-4.9,12.6c-0.5,0.9-0.9,1.9-1.4,3c3.3-0.7,6.3-1.4,9.3-2c2.5-0.5,5.1-1.1,7.7-1.1
		c3.2,0,6.5,0.5,9.7,0.7c3.9,0.3,7.4,1.3,10.8,3.2c0.9,0.5,1.7,1,3,1.8c-0.9-3.1-1.6-5.6-2.3-8.2c-0.7-2.7-1.3-5.3-1.9-8
		c-0.7-3-0.6-6-0.6-9c0-6.9,0.6-13.8,2.4-20.5c1.4-5.4,3-10.6,4.2-16c1.1-4.9,1.9-9.9,2.6-15c0.7-4.7,1.2-9.4,1.8-14.1
		c0.2-1.9,0.5-3.8,0.6-5.7c0.3-4.7,0.5-9.5,0.8-14.2c0.1-2.4-0.2-4.7-1.4-6.8c-0.4-0.7-0.2-1.3,0.1-2c0.7-1.5,1.2-3.1,1.8-4.6
		c0.6-1.7,1.2-3.4,2-5c1.3-2.5,2.8-4.9,4.3-7.3c2.4-3.7,4.8-7.4,7.2-11.1c2.5-3.9,5.2-7.7,7.6-11.8c2.7-4.7,5.1-9.6,7.8-14.4
		c2.7-4.7,5.8-9.2,8.5-13.9c2.9-5.1,6.6-9.6,8.7-15.1c1.1-2.8,2.6-5.4,4-8.1c2.5-4.7,5.3-9.2,6.8-14.3c0.2-0.6,0.7-1.1,1.7-0.5
		c0,1.6,0.4,3.5-0.3,5.2c-0.8,1.8-0.5,3.5,0.1,5.3c2.1,5.6,4.4,11,7.1,16.3c3.1,6.2,5.9,12.6,9,18.8c2.3,4.5,5,8.8,7.3,13.3
		c3,5.8,5.7,11.8,8.6,17.7c0.7,1.5,1.5,3,2.2,4.5c2.9,7,6.4,13.8,10.3,20.3c3.4,5.7,6.9,11.4,9.6,17.4c1.1,2.4,2.5,4.7,3.8,7.3
		c0.4-1,0.1-2.3,1.7-1.8c-0.1,0.8-0.1,1.6-0.3,2.3c-1.6,7.6-2.3,15.2-2.2,22.9c0.1,7.4,0.7,14.7,1.1,22.1c0.5,9.4,0.9,18.8,2.5,28.1
		c0.4,2.3,0.1,4.7,0,7.1c-0.1,2.1-0.4,4.1-0.6,6.1c-0.4,4.5-0.9,9-1.3,13.5c-0.1,1.6-0.5,3.2,0.2,5.1c3.5-0.8,6.9-1.4,10.2-2.5
		c3.3-1.1,6.5-1.9,10-1.7c1.4,0.1,2.9,0.1,4.3,0c1.7-0.2,3.4-0.3,5.1-0.1c1.6,0.2,3.3,0.1,5.3,0.1c-1-2-2-3.6-2.6-5.4
		c-1.2-3.2-2.1-6.5-3.2-9.7c-2.1-6.5-2.7-13.2-2-19.9c0.7-7.2,2.5-14.4,2.4-21.7c0-1.8,0.4-3.6,0.3-5.4c0-5.3-0.2-10.6-0.3-15.9
		c0-1.5-0.1-3-0.2-4.5c-0.3-2.7-0.6-5.5-0.9-8.2c-0.6-5.2-1.2-10.4-1.9-15.5c-0.5-3.3-1.2-6.5-1.7-9.8c-0.1-0.6,0-1.3,0-1.9
		c0-0.8,0-1.7-0.1-2.5c-0.1-0.9-0.5-1.7-0.6-2.5c-0.2-5.1-1.8-10-3.5-14.7c-1.9-5.1-4.2-10.1-6.2-15.1c-1.4-3.3-2.9-6.5-4-9.9
		c-1.8-5.7-3.2-11.4-4.7-17.1c-0.9-3.1-1.8-6.2-2.5-9.4c-1.4-6.3-2.5-12.7-3.8-19.1c-0.7-3.3-1.9-6.5-2.7-9.8
		c-2.9-10.9-5.9-21.8-8.8-32.8c-1-3.9-1.8-7.8-2.8-11.8c-0.4-1.5-0.9-3-1.4-4.6c-4.3,2.5-8.7,3.2-13.2,3.9
		c-3.8,0.5-7.5,0.9-11.3,1.2c-2,0.2-4,0.5-5.9,0.2c-4.7-0.7-9.3-1.8-13.9-2.7c-0.6-0.1-1.3-0.4-1.8-0.3c-6,1.1-12.1,0.9-18.2,1.6
		c-2.4,0.3-4.7,0.4-7.1,0.4c-2.8-0.1-5.7-0.4-8.5-0.7c-1.1-0.1-2.2-0.7-2.3-2C234.2,307.7,232.8,306.8,230.9,306.1z M226.7,69.4
		c-0.1,0.1-0.2,0.3-0.3,0.4c0.2,0.4,0.4,0.9,0.6,1.3c1.3,2.9,2.7,5.9,4,8.8c1.6,3.6,2.9,7.3,4.6,10.9c1.8,3.8,4,7.5,5.9,11.3
		c2.4,4.8,5.8,8.9,8.8,13.2c0.3,0.4,0.6,0.7,1,1c2.7,2,5.4,4,8.2,5.8c1,0.7,2.3,1.1,3.5,1.3c1.2,0.2,2.5,0.2,3.8,0.2
		c2.3,0.1,4.5-0.1,6.8-0.9c1-0.3,1.7-0.8,2.2-1.6c2.3-3.8,5-7.3,6.3-11.6c1.1-3.5,2.7-6.9,3-10.7c0.3-2.7,0.2-5.4-1-7.9
		c-0.7-1.4-1.1-2.7-1.3-4.1c-0.6-3.6-1.3-7.2-1.8-10.8c-0.2-1.5-0.3-3-0.2-4.5c0.2-2.4,0.6-4.7,0.8-7.1c0.2-2.8,0-5.5-1.1-8.1
		c-2,0.1-4,0.1-5.9,0.4c-4.2,0.5-8.5,1.1-12.7,1.7c-0.4,0.1-0.7,0.3-1.1,0.5c-3.2,1.8-6.3,3.5-9.5,5.3c-1.6,0.9-3.1,2.1-4.9,2.9
		c-3,1.4-6.1,2.6-9.2,3.7c-2.2,0.8-4.4,0.8-6.7-0.2C229.4,70.2,228,69.9,226.7,69.4z M334.1,188.3c-0.3,0.1-0.5,0.2-0.6,0.3
		c-0.3,0.3-0.5,0.6-0.7,0.9c-3.9,5-5.9,11-8,16.8c-2,5.7-3.3,11.5-4.6,17.4c-1.2,5.6-1.8,11.2-2.5,16.9c-0.6,4.8-0.3,9.8-0.5,14.7
		s-0.6,9.8-0.9,14.7c-0.1,2.2-0.3,4.4-0.5,7.1c0.8-0.7,1.2-0.9,1.4-1.3c2.6-3.4,5.3-6.7,7.6-10.3c2.3-3.6,4.2-7.5,6.4-11.1
		c2.8-4.4,5.6-8.8,8.8-13c3.1-4.1,6.3-8.2,10.2-11.6c1.8-1.6,3.3-3.6,5.1-5.5c-0.7-1.5-1.3-3.1-2.2-4.4c-2.5-3.9-5.1-7.6-7.6-11.4
		c-0.8-1.2-1.6-2.5-2.4-3.8c-1-1.5-2-3-2.8-4.6c-1.4-2.7-2.6-5.4-4-8.1C335.4,190.8,334.7,189.6,334.1,188.3z M21.1,152.6
		c0.4,0.9,0.7,1.6,1.1,2.2c1.4,1.9,2.8,3.8,4.4,5.6c2.2,2.5,4.9,4.8,6.9,7.5c2.2,2.8,5,4.3,8.1,5.5c0.6,0.2,1.1,0.4,1.7,0.6
		c0.2,1.2,0.1,2.2-1.2,2.1c-3.3-0.2-6.5,0.8-9.9,0.1c-2.8-0.5-5.6,0-8.6,1.7c1.3,0.6,2.2,1.2,3.2,1.5c3.4,1.2,7,2.1,10.3,3.4
		c2.6,1.1,5.2,1.8,8,2c3.9,0.3,7.8,1.4,11.3,3c1.8,0.8,3.2,0.6,4.7-0.2c3.1-1.7,5.3-4.4,7-7.5c0.7-1.3,1.5-2.6,2.4-3.8
		c2-2.6,3.6-5.4,4.7-8.5c0.9-2.5,1-5-0.8-7.2c-0.2-0.3-0.4-0.7-0.6-1c-1.6-3.8-3.2-7.5-4.9-11.3c-0.6-1.3-1-2.8-2.4-3.6
		c-1.8,0.6-2.4,1.9-2,3.6c0.5,1.9,0.9,3.9,1.6,5.7c1.8,4.4,0.7,8.4-1.2,12.4c-0.4,0.9-1.2,1.6-2,2.3c-0.2,0.2-1,0.1-1.2-0.1
		c-0.2-0.2-0.3-0.9-0.2-1.2c0.2-0.4,0.7-0.7,0.9-1.1c0.5-0.8,1-1.7,1.5-2.5c-1.1-0.8-2-1.3-2.8-1.9c-2.2-1.4-4.4-2.8-6.5-4.3
		c-2.2-1.6-4.6-3.1-6.6-5c-3.9-3.7-7.5-7.7-11.3-11.5c-1.1-1.1-2.2-2-3.5-2.9c-0.4-0.3-1.1-0.2-1.7-0.3c0,0.5-0.2,1.1,0.1,1.5
		c1.2,2,2.3,3.9,3.7,5.7c1.4,1.8,3,3.5,4.6,5.1c2.8,2.7,4.3,6.4,7.4,8.9c0.6,0.5,0.7,1.2-0.3,1.7c-0.4-0.2-0.9-0.2-1.3-0.5
		c-1.8-1.2-3.6-2.5-5.4-3.7c-4.2-2.9-8.5-5.7-11.3-10.3c-1.5-2.5-4.3-3.8-7.1-5.2c0,0.5,0,0.8-0.1,0.9c-1.6,1.4-1.2,2.8,0,4.2
		c0.5,0.6,0.9,1.3,1.4,1.9c3.5,4.4,7.7,8.1,12.3,11.4c1.2,0.8,2.3,1.8,3.5,2.7c-1.1,1.4-1.8,0.8-2.7,0.1c-3.5-2.8-7-5.6-10.6-8.3
		C24.8,153.1,23.2,152.2,21.1,152.6z M202.5,574.2c-4.7-2.4-9.4-2.2-13.9-2.8c-4.4-0.6-9-0.4-13.4,0.7c-1.3,0.3-1.8,0.8-1.6,2
		c0.1,0.5,0,0.9,0.1,1.4c0.3,5.2-0.5,10-3.5,14.4c-2.3,3.4-4.2,7.1-5.6,10.9c-0.3,1-0.4,1.8,0.1,2.9c1.1,2.5,3.1,3.8,5.5,4.4
		c3.2,0.8,6.5,1.4,9.7,2c2.2,0.4,4.3,0.9,6.5,1c4.7,0.3,9.3-0.5,13.7-2.1c1.2-0.4,2.4-0.8,3.5-1.5c2-1.2,3.3-3,2.8-5.5
		c-0.5-2.8-0.9-5.6-1.4-8.4c-0.4-2.2-0.8-4.5-1.1-6.8C203.3,582.7,203,578.4,202.5,574.2z M336.3,611.6c-1.2,3.8,1.8,8.1,5.5,9.9
		c4.8,2.4,9.8,3.4,15.1,1.5c4.8-1.7,9.6-3.1,12.9-7.5c0.6-0.8,0.9-1.6,0.9-2.6c-0.2-3-1.2-5.7-2.2-8.5c-2.1-5.5-4.2-10.9-6-16.5
		c-0.6-2-0.6-4.2-0.7-6.3c-0.1-1.4,0-2.8,0-4.3c-1.2,0-2.2,0-3.1,0c-1.4,0.1-2.9,0.5-4.3,0.3c-4.7-0.6-9.1,0.8-13.6,2.3
		c-0.1,1.3-0.2,2.7-0.4,4c-0.3,1.9-0.4,4-1.2,5.8c-2.3,5.4-2.9,11-3,16.7c0,1.9,0.5,3.5,1.8,4.7s2.8,2.3,4.4,3.2
		c2.3,1.3,4.8,2,7.5,2c2.1,0,4.3,0.3,6.4,0.2c3.4-0.3,6.5-1.4,9.2-3.5c0.7-0.5,1.3-0.4,1.9,0.6c-0.6,0.7-1.1,1.6-1.8,2
		c-2.3,1-4.7,1.9-7.1,2.6c-3,1-6,0.2-8.9-0.1c-4.8-0.5-9.3-2-12.5-5.9C336.9,612.1,336.6,611.9,336.3,611.6z M278.9,123
		c-1.3,0.9-2.5,2.2-3.9,2.7c-4.1,1.5-8.5,1.6-12.6,0.4c-2.6-0.7-4.9-2.5-7.2-4c-1.8-1.2-3.5-2.6-5-3.8c-0.5,2.6-1.1,5-1.5,7.5
		c-0.3,1.5-0.5,3.1-0.5,4.7c0,2.3,0.2,4.6,0.5,6.9c0.3,2.7,0.8,5.4,2.2,7.6c2,3.2,4.4,6.2,6.5,9.4c1.9,2.8,3.6,5.7,5.2,8.7
		c2.3,4.2,4.4,8.6,6.5,12.9c0.1,0.3,0.5,0.5,1,1c0-0.8,0-1.2,0-1.6c-0.3-5.2,0.9-10.2,2.4-15.1c0.8-2.5,2-5,3.2-7.4
		c2.4-5,5-9.8,5.8-15.5c0.4-2.6,1.7-5.1,2.8-7.5c1-2-0.4-4.9-2.2-5.6C281,124,280,123.5,278.9,123z M280.5,310.8
		c0,0.2,0.1,0.4,0.1,0.6c2.3,0.2,4.5,0.4,6.8,0.5c4.5,0.2,9-0.2,13.4-1c3.6-0.6,7.2-1,10.6-2c3.3-1,6.1-2.9,8.1-5.9
		c1.6-2.5,3.3-5,4.9-7.5c0.2-0.4,0.3-0.8,0.6-1.5c-1.1-0.3-2.1-0.6-3.1-0.8c-1.1-0.2-2.4-0.2-3.5-0.5c-2.7-0.7-5.6-1.3-8.1-2.5
		c-1.6-0.8-2.8-0.8-4.2,0c-1,0.5-1.9,1.2-2.6,2c-3.1,3.3-6.2,6.6-9.1,10c-2.1,2.4-4.5,4.4-7.6,5.5c-1.8,0.6-3.5,1.5-5.2,2.3
		C281.3,310.1,281,310.5,280.5,310.8z M271.8,181.7c0.1,0,0.3,0,0.4,0c0.1-0.1,0.2-0.3,0.2-0.4c0-0.5-0.1-1-0.2-1.4
		c-1.2-5.6,0.2-10.9,2.7-15.8c1.5-2.9,3.9-5.3,5.8-8c1.2-1.7,2.5-3.3,3.5-5c1.2-2.1,2.3-4.4,3.2-6.6c1-2.4,1.8-4.9,2.4-7.4
		c0.7-2.9,1-5.9,1.4-8.9c0.2-1.5,0.5-3,0.8-4.8c-2.6,0.5-4.9,1-7.2,1.5c0.2,0.5,0.3,1,0.4,1.4c0.5,1.9,0.8,3.8-0.2,5.7
		c-0.6,1.2-1.2,2.4-1.5,3.7c-0.5,1.9-0.8,3.8-1.3,5.6c-1,3.9-3,7.2-4.8,10.8c-1.4,2.9-3.1,5.7-4.1,8.8c-2,5.9-2.5,12-2,18.3
		C271.5,179.9,271.7,180.8,271.8,181.7z M238.4,138.3c0.1,0.2,0.2,0.4,0.3,0.6c0.7,0.1,1.4,0.1,2.1,0.2c2.3,0.4,3.9,1.8,4.1,4
		c0.3,3.7,1.3,7.1,3,10.4c1.1,2.3,2.3,4.5,3.5,6.7c1.5,2.6,2.8,5.3,4.6,7.7c3,4.1,6.3,7.9,9.5,11.8c1.6,1.9,3.2,3.9,4.8,5.8
		c-0.6-2.8-1.5-5.4-3-7.7c-1.2-1.9-2.3-4-3.3-6c-1.7-3.1-3.3-6.3-5.1-9.4c-1.6-2.7-3.4-5.1-5-7.7c-2.6-4.2-5.4-8.2-6.8-13
		c-0.4-1.3-0.7-2.5-0.8-3.8c-0.1-2.2-0.5-4.3-0.9-7.1c-0.6,1-1,1.4-1.1,1.8c-0.4,2.5-1.9,3.9-4.3,4.5
		C239.4,137.3,238.9,137.9,238.4,138.3z M164.5,609.2c1.1,3,2.7,5.9,5.8,7.5c3.3,1.8,6.9,2.6,10.7,2.7c5,0,9.9-0.9,14.8-1.9
		c3.6-0.7,7.2-1.7,10.8-2.6c0.6-0.1,1.1-0.5,1.8-0.7c-0.5-1.9-1-3.6-1.6-5.5c-2.5,1.4-4.9,2.9-7.3,4.3c-0.6,0.3-1.3,0.7-2,0.8
		c-3.5,0.4-7.1,1-10.6,1c-3.9,0-7.9-0.9-11.6-2C171.6,611.7,168.1,610.4,164.5,609.2z M288.3,71.7c-3.1-0.9-5,0.8-4.5,3.9
		c0.3,1.7,0.2,3.5,0.5,5.2c0.3,2,0.6,4,1,6.2c1.5-0.8,2.6-1.4,3.9-2c-0.2-1.6-0.4-3.1-0.5-4.5s-0.1-2.8-0.1-4.2
		C288.5,74.7,288.4,73.2,288.3,71.7z M230.8,84.9c-1.2,2.1-1.4,3.2-0.7,5c0.5,1.2,1.1,2.4,1.6,3.7c0.5,1.2,1.3,2.3,1.8,3.5
		c0.5,1,1.4,1.9,2.2,2.8c0.6,0.7,1.4,1,2.5,0.4c-2.2-4.8-4.4-9.7-6.6-14.5C231.4,85.4,231.1,85.2,230.8,84.9z M281,117.4
		c-1.1,2.6-1,3.4,0.6,3.8c1.7,0.4,3.6,0.8,5.3,0.8c1.5,0,3.2-0.2,4.5-1.7C287.8,119.5,284.2,119.4,281,117.4z M243.8,48.3
		c0,0.2,0.1,0.4,0.1,0.5c0.7-0.1,1.4-0.3,2.1-0.5c0-0.2-0.1-0.4-0.1-0.5C245.2,48,244.5,48.1,243.8,48.3z M299.7,117.6
		c-0.1-0.2-0.2-0.3-0.3-0.5c-0.7,0.2-1.4,0.5-2,0.7c0,0.2,0.1,0.3,0.1,0.5C298.3,118.1,299,117.9,299.7,117.6z M236.5,49.7
		c0,0.1,0,0.3,0,0.4c0.6,0,1.3-0.1,1.9-0.1c0-0.1,0-0.2,0-0.3C237.8,49.7,237.1,49.7,236.5,49.7z"/>
	<path class="st0" d="M324.9,161.5c0.1,8.4,1.7,16.2,6.7,22.9c-1.8,3.9-3.6,7.6-5.2,11.4c-0.9,2.2-1.5,4.6-2.3,6.9
		c-0.4,1.1-1.1,2.1-1.4,3.2c-0.7,2.1-1.3,4.1-1.8,6.2c-1.2,5.6-2.7,11.1-3.5,16.7c-1,6.9-1.9,13.8-1.9,20.8c0,4.6-0.5,9.1-0.5,13.7
		c0,4.3-1.6,8.4-1.5,12.6c0.1,3.7-1.4,6.4-4.1,8.6c-0.1,0.1-0.3,0.2-0.3,0.4c-0.7,2.6-3.1,3.4-4.9,4.9c-2.2,1.9-4.4,3.9-6.4,6
		c-1.9,2-3.7,4.1-5.5,6.2c-0.8,0.9-1.6,1.6-2.9,1.9c-2.4,0.6-4.8,1.5-7.2,2.5c-4.8,2-9.9,2.8-15,3.1c-3,0.2-6,0.4-9,0.6
		c-4.9,0.3-9.8,0.6-14.7,0.8c-1.4,0.1-2.8,0-4.2-0.2c-1.3-0.2-2.4-0.6-3.1-2.1c-0.9-2.2-2.8-3.8-4.7-5.2c-1.1-0.8-1.3-1.7-1.2-2.8
		c0.4-4.4,0.9-8.8,1.2-13.2c0.2-2.9,0.1-5.8,0-8.8c-0.2-4.7-0.6-9.3-0.9-14c-0.3-5.5-0.6-10.9-0.9-16.4c-0.2-3.5-0.3-7-0.7-10.4
		c-0.2-1.9-0.9-3.7-1.4-5.5c-0.4-1.3-0.9-2.5-1.5-3.8c-2.6-6-5.2-12-7.8-18.1c-1.3-3-2.8-5.9-3.5-9.1c-0.7-2.9-0.7-6-0.5-8.9
		c0.2-2.8,0.9-5.6,1.4-8.1c-1.3,0.8-2.5,2.8-2.9,4.9c-0.5,2.6-1,5.1-1.5,7.7c-0.1,0.5-0.5,1-0.8,1.3c-5.6,4.9-11.4,9.5-17.5,13.8
		c-5.2,3.7-10.1,7.6-15.2,11.3c-0.6,0.5-1.3,0.9-2,1.3c-8,5.2-14.6,12.1-22,18c-1.5,1.2-3,1.9-4.9,2.1c-6.1,0.4-11.6-1.5-16.4-5.2
		c-5.5-4.3-10.8-9-16.2-13.5c-1.2-1-2.5-1.9-3.8-2.9c-4.8-3.8-9.6-7.5-14.3-11.3c-2.1-1.7-4-3.6-6.1-5.3c-3.1-2.5-6.3-5-9.6-7.4
		c-3.3-2.4-7-3.9-10.9-5.1c-2.9-0.9-5.7-2.2-8.6-3.3c-0.3-0.1-0.6-0.5-1-0.8c0.4-0.3,0.6-0.6,0.9-0.8c2.8-2.1,5-4.8,6.7-7.8
		c1.8-3.1,4.1-6,5.9-9.2c1.4-2.4,2.3-5.1,3.5-7.7c0.5,1.1,1.3,2.3,1.6,3.5c1.1,4.2,4,6.9,7.2,9.4c5.8,4.5,11.7,8.9,17.5,13.4
		c3.8,2.9,7.5,6,11.4,8.9c2.3,1.7,4.7,3.2,7.2,4.5c5.2,2.7,10,6,14.8,9.4c1.2,0.9,2.5,1.6,3.7,2.5c2,1.4,2,1.7,1,3.9
		c-0.1,0.2-0.1,0.4-0.2,0.7c0.7,0.4,1.2,0.2,1.5-0.5c1.8-4.1,5-7.1,7.6-10.5c2.9-3.7,6.3-6.9,8.9-10.8c2.3-3.3,5.1-6.2,7.7-9.3
		c4.4-5.2,8.7-10.5,13.3-15.5c3.9-4.2,7.9-8.4,12.4-12c4.3-3.5,8.9-6.5,13.9-9s9.7-5.3,14.6-7.9c4-2.1,8.4-3.3,13-3.4
		c0.2,0,0.5-0.1,0.7,0c1.1,0.1,2.2-0.9,3.2,0.1c1.4,1.4,3,2.4,3.6,4.6c1.9,7.8,5.5,14.9,10.1,21.3c3.9,5.4,8.5,10.4,12.6,15.7
		c1.6,2.1,3,4.4,4.2,6.8c1.9,3.8,3.6,7.7,5.4,11.6c0.3,0.6,0.7,1.2,1.1,1.7c1.4-0.6,1.4-1.6,1.1-2.8c-1.1-3.9-2.2-7.8-3-11.7
		c-1.2-6.3-2.2-12.7-1.3-19.1c0.3-1.9,1.3-3.7,2.2-5.4c2.2-4.2,5.7-7.6,8.2-11.5c2.8-4.2,5.1-8.8,6.7-13.6c0.8-2.4,2-3.4,4.2-3.9
		c3.2-0.8,6.4-1.5,9.8-1.4c3.6,0.1,7.2-0.6,10.8-1.1c2.6-0.3,5.2-0.9,7.8-0.9c2.9,0,5.6,1.1,8.2,2.6c5.6,3.4,9.7,8.3,13.8,13.2
		c3.2,3.8,5.7,8.2,8,12.6c2.4,4.5,4.9,8.8,7.8,13c2.5,3.7,4.6,7.7,6.9,11.6c0.7,1.2,1.4,2.5,2.3,3.6c3.6,4.8,7,9.8,9.7,15.2
		c1.6,3.1,3.1,6.2,3.5,9.8c0.3,2.9,1.2,5.8,1.3,8.7c0.3,5.5-0.4,10.8-4.9,14.9c-5.6,5.2-11.1,10.6-16.5,16.1
		c-5.1,5.1-9.9,10.4-14.9,15.6c-4.1,4.2-8.1,8.5-12.2,12.6c-2.7,2.8-5.6,5.4-8.2,8.2c-1.5,1.6-3.1,1.6-5,1.3c-3-0.6-6-1.1-9.1-1.7
		c-0.4-0.1-0.8,0-1.2-0.2c-3.4-1.3-3.7-2.3-1.7-4.6c3.1-3.5,6-7.1,8.9-10.8c3.9-4.8,7.4-9.9,10.2-15.4c3.2-6.3,7.2-12.1,11.6-17.6
		c3.5-4.4,7-8.8,11.4-12.4c0.9-0.7,1.8-1.3,2.6-2c1.7-1.3,1.8-2,1-4c-0.7-1.6-1.5-2.9-2.8-4c-0.5-0.5-0.8-1.1-1.2-1.7
		c-2.9-4.7-5.8-9.4-8.8-14.1c-3.1-4.8-6.1-9.6-8.6-14.8c-0.5-1.1-1.1-2.1-1.7-3.1c-3.6-6.2-5.7-13-7.8-19.8c-0.3-1-0.8-1.9-1.2-2.9
		C325.3,162,325,161.8,324.9,161.5z"/>
	<path class="st1" d="M230.9,306.1c1.9,0.7,3.2,1.6,3.4,3.7c0.1,1.3,1.2,1.9,2.3,2c2.8,0.3,5.6,0.7,8.5,0.7c2.4,0.1,4.8-0.1,7.1-0.4
		c6-0.7,12.2-0.5,18.2-1.6c0.6-0.1,1.2,0.1,1.8,0.3c4.6,0.9,9.3,2,13.9,2.7c1.9,0.3,3.9,0,5.9-0.2c3.8-0.4,7.6-0.7,11.3-1.2
		c4.4-0.6,8.9-1.3,13.2-3.9c0.5,1.7,1,3.1,1.4,4.6c1,3.9,1.8,7.9,2.8,11.8c2.9,10.9,5.8,21.8,8.8,32.8c0.9,3.3,2,6.5,2.7,9.8
		c1.4,6.3,2.5,12.7,3.9,19.1c0.7,3.2,1.6,6.3,2.5,9.4c1.6,5.7,3,11.5,4.7,17.1c1,3.4,2.6,6.6,4,9.9c2.1,5,4.4,10,6.2,15.1
		c1.7,4.7,3.2,9.6,3.5,14.7c0,0.9,0.4,1.7,0.6,2.5c0.1,0.8,0.1,1.7,0.1,2.5c0,0.6-0.1,1.3,0,1.9c0.6,3.3,1.3,6.5,1.7,9.8
		c0.7,5.2,1.3,10.4,1.9,15.5c0.3,2.7,0.7,5.5,0.9,8.2c0.1,1.5,0.2,3,0.2,4.5c0.1,5.3,0.2,10.6,0.3,15.9c0,1.8-0.4,3.6-0.3,5.4
		c0.1,7.3-1.7,14.5-2.4,21.7c-0.6,6.8-0.1,13.4,2,19.9c1.1,3.2,2,6.5,3.2,9.7c0.6,1.8,1.6,3.4,2.6,5.4c-1.9,0-3.6,0.2-5.3-0.1
		c-1.8-0.3-3.4-0.2-5.1,0.1c-1.4,0.2-2.8,0.1-4.3,0c-3.5-0.2-6.7,0.6-10,1.7c-3.3,1.1-6.7,1.7-10.2,2.5c-0.7-1.9-0.3-3.5-0.2-5.1
		c0.4-4.5,0.9-9,1.3-13.5c0.2-2,0.5-4.1,0.6-6.1c0.1-2.4,0.4-4.8,0-7.1c-1.6-9.3-2-18.7-2.5-28.1c-0.4-7.3-0.9-14.7-1.1-22.1
		c-0.1-7.7,0.7-15.3,2.2-22.9c0.2-0.8,0.2-1.5,0.3-2.3c-1.7-0.5-1.4,0.8-1.7,1.8c-1.4-2.6-2.7-4.9-3.8-7.3
		c-2.7-6.1-6.2-11.7-9.6-17.4c-3.9-6.5-7.4-13.3-10.3-20.3c-0.6-1.5-1.5-3-2.2-4.5c-2.8-5.9-5.6-11.9-8.6-17.7
		c-2.3-4.5-5.1-8.8-7.3-13.3c-3.1-6.2-5.9-12.6-9-18.8c-2.7-5.3-5-10.7-7.1-16.3c-0.7-1.8-0.9-3.4-0.1-5.3c0.8-1.7,0.3-3.5,0.3-5.2
		c-1-0.6-1.5-0.2-1.7,0.5c-1.5,5.1-4.4,9.6-6.8,14.3c-1.4,2.7-2.9,5.3-4,8.1c-2.1,5.5-5.9,10.1-8.7,15.1c-2.7,4.7-5.8,9.2-8.5,13.9
		c-2.7,4.7-5,9.7-7.8,14.4c-2.3,4-5,7.9-7.6,11.8c-2.4,3.7-4.9,7.4-7.2,11.1c-1.5,2.4-3,4.8-4.3,7.3c-0.8,1.6-1.4,3.3-2,5
		c-0.6,1.5-1.1,3.1-1.8,4.6c-0.3,0.7-0.6,1.2-0.1,2c1.2,2.1,1.5,4.4,1.4,6.8c-0.2,4.7-0.5,9.5-0.8,14.2c-0.1,1.9-0.4,3.8-0.6,5.7
		c-0.6,4.7-1.1,9.4-1.8,14.1c-0.8,5-1.5,10-2.6,15c-1.2,5.4-2.8,10.7-4.2,16c-1.7,6.7-2.3,13.6-2.4,20.5c0,3-0.1,6,0.6,9
		c0.6,2.7,1.2,5.4,1.9,8s1.4,5.1,2.3,8.2c-1.3-0.8-2.1-1.3-3-1.8c-3.4-1.8-7-2.9-10.8-3.2c-3.2-0.2-6.5-0.7-9.7-0.7
		c-2.6,0-5.1,0.6-7.7,1.1c-3,0.6-6,1.3-9.3,2c0.5-1.1,0.9-2.1,1.4-3c2.1-4,3.6-8.2,4.9-12.6c0.6-2,0.9-4.1,2-5.8
		c1.7-2.8,1.8-5.9,2.4-8.9c0.7-3,0.7-6.1,0.9-9.2c0.1-1.3-0.1-2.7-0.3-4c-0.4-3.3-0.3-6.6,0.1-9.9c0.8-6.4,1.4-12.7,2.1-19.1
		c0.9-9.4,1.9-18.7,2.7-28.1c0.3-3.5,0.4-7,0.5-10.4c0-0.3-0.1-0.8,0.1-0.9c1.4-1.5,0.5-3.1,0.4-4.7c-0.3-3-0.9-5.9-1.1-8.9
		c-0.2-2.8,0.1-5.7,0.9-8.4c0.8-2.8,1.9-5.4,3.5-7.7c1.1-1.7,2.1-3.5,3.1-5.3c0.1-0.2,0.3-0.5,0.2-0.6c-0.7-1.8,0.6-3.3,1-4.9
		c1.2-4,2.4-8,3.6-12c1.2-4.4,2.4-8.8,3.6-13.3c1.9-7.3,3.6-14.7,5.8-22c1.9-6.2,3.7-12.4,6.4-18.4c2.5-5.4,4.8-10.8,7-16.3
		c1.6-4,3.5-7.9,5.7-11.7c1.5-2.6,2.5-5.5,3.5-8.3C228.7,313.1,229.7,309.7,230.9,306.1z"/>
	<path class="st2" d="M226.7,69.4c1.3,0.4,2.7,0.8,4,1.3c2.2,1,4.5,1,6.7,0.2c3.1-1.2,6.2-2.4,9.2-3.7c1.7-0.8,3.2-2,4.9-2.9
		c3.1-1.8,6.3-3.6,9.5-5.3c0.3-0.2,0.7-0.4,1.1-0.5c4.2-0.6,8.4-1.2,12.7-1.7c1.9-0.2,3.9-0.2,5.9-0.4c1.1,2.6,1.3,5.3,1.1,8.1
		c-0.2,2.4-0.7,4.7-0.8,7.1c-0.1,1.5,0,3,0.2,4.5c0.5,3.6,1.2,7.2,1.8,10.8c0.2,1.5,0.7,2.8,1.3,4.1c1.2,2.4,1.3,5.2,1,7.9
		c-0.4,3.8-2,7.1-3,10.7c-1.3,4.3-4.1,7.8-6.3,11.6c-0.5,0.9-1.3,1.3-2.2,1.6c-2.2,0.8-4.5,1-6.8,0.9c-1.3,0-2.5,0-3.8-0.2
		c-1.2-0.2-2.5-0.6-3.5-1.3c-2.8-1.8-5.5-3.8-8.2-5.8c-0.4-0.3-0.7-0.6-1-1c-3-4.3-6.4-8.4-8.8-13.2c-1.9-3.8-4.1-7.4-5.9-11.3
		c-1.7-3.6-3.1-7.3-4.6-10.9c-1.3-3-2.7-5.9-4-8.8c-0.2-0.4-0.4-0.9-0.6-1.3C226.5,69.7,226.6,69.6,226.7,69.4z M241,84.4L241,84.4
		c0.6,0.4,1.3,1.2,2,1.3c1.4,0.1,2.8,0,4.2-0.2c1.5-0.3,2.9-1.1,4-2.3c-1.3-1.1-2.1,0.2-3.2,0.1c-0.1-0.5-0.1-1-0.2-1.7
		c1.4-0.2,2.7-0.4,4.3-0.7c-0.6-0.5-0.8-0.8-1-0.9c-3-0.4-5.9-0.9-8.6,1.1c-0.9,0.7-2,1.1-3.1,1.7c-0.4,0.3-0.9,0.6-1.7,1.2
		C239.1,84.1,240,84.2,241,84.4z M266.7,80.1c1.6,1.6,3.6,1.7,5.2,0.8c1.8-1.1,3.1-2.9,5.1-4.8c-1.8-0.2-3-0.3-4.2-0.5
		c-1.3-0.2-2.5-0.6-4.1-1c0.8-0.6,1.4-1.1,2-1.6c2.3-2.4,4.9-3.1,7.9-1.8c0.9,0.4,1.4-0.2,2.1-0.6c-1.4-1-2.5-1.9-4-1.8
		c-2.5,0.3-5,0.8-6.9,2.7c-0.8,0.8-1.8,1.4-2.7,1.9c-0.6,0.3-1.4,0.4-2.1,0.6c0-0.8,0-1.3,0-2.2c-1.3,1.3-2.1,2.4-2.4,3.8
		c-0.8,4.2-1.4,8.5,0.7,12.5c0.2,0.4,0.2,0.9,0.4,1.4c0.4,1.1,0.9,2.2,1.4,3.3c0.3,0.6,0.7,1,1.4,0.6c-0.9-2.4-1.7-4.7-2.6-7
		c-1-2.5-1.4-5-0.6-7.6c0-0.1,0.2-0.2,0.3-0.4c0.4,0.3,0.8,0.7,1.1,0.9c1.1-0.6,2-1.2,3.2-1.8c0.2,1,0.3,1.8,0.4,2.5
		C267.7,80,267.2,80.1,266.7,80.1z M253.7,77.9c-2-1.5-2-1.5-4.2-1.6c-1.3-0.1-2.7-0.3-4-0.3c-2.5-0.2-5.1-0.6-7.5,0.4
		c-1.6,0.7-3,1.8-4.6,2.8c1.2,1.4,2.4,0.6,3.4-0.1c2-1.5,4.2-1.8,6.5-1.4s4.6,1,6.9,1.4C251.5,79.3,252.8,79.8,253.7,77.9z
		 M268.6,97.5c-0.8-0.2-1.6-0.4-2.6-0.7c-0.6,0.9-1.2,2.2-2.8,1.9c-0.1,0-0.4,0.2-0.5,0.4c-0.9,1.2-1.8,0.6-2.6,0.1
		c-0.5-0.3-0.9-0.8-1.4-1.2c-0.6-0.5-1.3-1.1-2.1-0.5c-0.8,0.6-0.5,1.4,0.1,2.2c0.8-0.1,1.5-0.2,2.1-0.3c1,0.6,2,1.5,2.9,1.5
		c2.6,0.1,4.6-1.7,6.9-2.6C268.6,98.2,268.5,97.8,268.6,97.5z M257.1,109.2c0.1,0.1,0.3,0.2,0.4,0.4c0.6-0.3,1.2-0.8,1.8-1
		c1.1-0.3,2.3-0.9,3.4-0.7c1.4,0.2,2.6,0,3.9-0.4c1.4-0.5,2.8-1,4.4-0.8c0.2,0,0.4-0.3,0.9-0.6c-1.4-0.7-2.5-0.8-3.8-0.3
		c-1.5,0.5-3.1,1.1-4.5,0.8c-2.3-0.4-4,0.5-5.7,1.6C257.5,108.3,257.4,108.8,257.1,109.2z M267.2,109.7c-1.9,0.1-4-0.2-5.6,1
		C263.6,110.9,265.6,111.6,267.2,109.7z"/>
	<path class="st3" d="M248.2,58.1c1.5,0.3,3,0.6,4.6,0.9c-2.7,3.9-6.7,3.7-11.1,3.6c2.1,0.1,3.7,0.2,5.4,0.2
		c-1.6,1.4-2.8,3.4-4.9,3.8c-2.5,0.4-5.1,0.1-7.6-0.9c-0.9,0-1.8,0-3,0c0.3-0.9,0.5-1.5,0.7-2.1c-0.1,0-0.2-0.1-0.3-0.1
		c-0.3,0.6-0.7,1.2-1,1.8c-1.5-0.7-2.9-1.3-4.4-1.9c-0.1,0.2-0.1,0.3-0.2,0.5c2.2,1.1,4.5,2.2,7,2.4c0.4,0,0.8-0.4,1.2-0.6
		c0.7,1.2,2,1.1,3.1,1.4c0.6,0.1,1.2,0,2.1,0c-1.8,1.2-3.9,1.7-6.1,1.4c-2.7-0.3-5.5-0.6-8.2-1c-0.4-0.1-0.8-0.4-1.2-0.6
		c-0.8-0.3-1.7-0.7-2.5-1c-0.8,1.2-0.1,1.8,0.6,2.1c1.5,0.8,2.2,2.2,2.9,3.6c1,1.8,2,3.6,2.9,5.4c0.5,1.1,1,2.3,1.2,3.6
		c0.1,0.6-0.3,1.3-0.6,1.9c-1.6,2.9-2.3,5.8-0.3,8.9c0.7,1,1.1,2.1,1.6,3.1c0.6,1.1,0.6,2,0.2,3.3c-1.1,3.1-2.6,5.9-4.3,8.6
		c-0.4,0.7-0.9,1.4-1.3,2c-1,0.6-1.8,1.5-2.3,2.5c0.1,0.1,0.2,0.2,0.4,0.3c0.6-0.9,1.2-1.9,1.9-2.8c0.8-0.5,1.6-0.9,1.3-2
		c0.4-0.2,0.9-0.3,1.1-0.7c1.1-1.8,2-3.6,3-5.4c0.4-0.8,0.8-1.7,1.2-2.6c1.4,1.4,2.7,2.5,3.9,3.9c0.4,0.5,0.6,1.5,0.4,2.1
		c-0.5,2.1-1.2,4.1-1.9,6.3c0.3,0.1,0.7,0.3,1.1,0.4c2-2.4,1.5-6.3,4.3-8.3c1.2,1.1,1.3,2.3,1.1,3.7c-0.7,4.4-1.9,8.6-4.1,13
		c3.8-3.1,4.3-7.6,6.5-11.6c0.3,1.1,0.8,1.8,0.8,2.5c-0.2,1.6-0.4,3.3-1,4.8c-1,2.4-2.4,4.6-3.7,7c0.8,1,1.4,0.6,1.8-0.4
		c1.3-2.9,2.7-5.9,4-8.8c0.1-0.1,0.2-0.2,0.5-0.6c0.1,0.7,0.4,1.1,0.3,1.6c-0.3,2.1-0.6,4.2-0.9,6.3c-0.2,1.2-0.4,2.5-0.7,3.7
		c-0.3,0.5-0.7,1.1-1,1.6c-0.6,0.7-1.1,1.5-1.7,2.2l-0.1,0.1c-0.6,0.3-1.3,0.6-2,0.9c-0.3-0.4-0.5-0.8-0.8-1.3
		c-0.2,0.1-0.4,0.2-0.5,0.3c-0.6,0.9-1.2,1.7-1.6,2.6c-0.8,1.6-2,2.4-4,1.8c-0.2-0.6-0.4-1.3-0.6-2.2c-1,0.9-2,1.8-2.8,2.5
		c-1.6-0.6-2.8-1-4.2-1.5c-0.8,1.9-2.4,3.4-4.3,4.5c-0.4,0.2-0.8,0.6-0.9,1c-0.3,1.6-1.5,1.5-3,2c0.6-1,1-1.5,1.4-2.1
		c2.1-3.1,1.8-6.6,1-10c-0.2-0.8-1.4-1.3-2.2-2c-1.1,2.1-2,4.2-3.1,6c-1.2,1.9-3.3,2.6-5.5,3.1c1-1.8,3.4-2.5,3.8-4.7
		c0.4-2,2.5-3.4,2.2-5.8c-1.4,2.4-3.9,3-6.2,3.8c-1.7,0.6-3.5,0.7-5.3,1c-0.1-0.2-0.2-0.3-0.3-0.5c0.9-1.4,2-2.8,2.7-4.3
		c0.7-1.6,1.1-3.2,1.6-4.9c1-3.6,0.9-3.6,0.2-4.6c-0.1,0.1-0.2,0.3-0.2,0.4c0.2,2.6-0.5,3.3-3.8,3.7c-1.5,0.2-3,0.1-4.5,0
		c-0.6-0.1-1.1-0.7-1.6-1.1c0.4-0.5,0.9-0.9,1.4-1.5c0.7,0.7,1.1,1.2,1.6,1.7c0.1,0,0.2-0.1,0.3-0.1c-0.2-0.5-0.5-0.9-0.7-1.5
		c1.3-0.9,2.6-1.8,3.9-2.7c-0.1-0.1-0.1-0.3-0.2-0.4c-1.2,0.6-2.4,1.2-3.8,1.9c0-1.9-1.5-2.3-2.8-3.3c0.6-0.1,1.3-0.1,1.9-0.2
		c2.4-0.1,4.1-1.3,5.4-3.3c1.5-2.2,3.2-4.3,5.1-6.9c-0.1,0.8-0.1,1.2-0.2,1.9c0.4-0.3,0.8-0.5,0.9-0.7c1.9-4.5,4.6-8.7,5.6-13.6
		c1-4.6,2.6-9.1,3.9-13.7c0.9-3.4,1.6-6.8,2.3-10.2c0.8-3.4,2.9-5.9,5.4-8.2c-1,3-4,5.1-3.6,8.8c1.4-0.6,0.7-2.2,1.3-3.1
		c0.7-1,1.3-2,1.9-3c0.5,0.3,0.8,0.4,1.2,0.7c1.9-3.7,4.8-6.3,8.6-7.7c3.2-1.2,6.5-1.2,9.8,0c-0.2,0.3-0.4,0.5-0.7,0.8
		c0.4,0.1,0.9,0.4,1.1,0.3c2.1-1.1,4-0.3,6,0.3l-0.1-0.1c2.7,1.1,5.7,0.4,7.7-1.9l-0.1,0.1c1.9-0.5,3-2,4.1-3.3
		c0.5-0.5,0.8-1.1,1.5-1.6c-0.1,0.4-0.1,0.8-0.2,1.1c-1.6,4.4-4.3,7.8-8.3,10.3c-1.2,0.7-2.3,1.2-3.7,1.1
		C251.3,58.2,249.7,58.2,248.2,58.1c-0.5-0.4-0.9-1-1.7-0.2C247.1,58,247.6,58,248.2,58.1z M223.9,125.3c1.9-1.7,2.4-2.3,2.7-3.6
		C225.7,122.9,224.8,124.1,223.9,125.3c-0.7,0.5-1.5,1-2.2,1.5c0.1,0.2,0.2,0.3,0.4,0.5C222.6,126.6,223.3,126,223.9,125.3z
		 M232.9,55.8c0.5-0.1,1,0,1.4-0.2c1.5-0.8,3.1-0.9,4.8-0.4c1,0.3,2.2,0.4,3.2,0.5c-0.7-0.6-1.5-1-2.3-1.1
		C237.5,54.5,235,53.8,232.9,55.8c-3.1,0.6-4,1.5-4,3.8c0.3-0.2,0.7-0.4,0.7-0.6c0.1-1.5,1.2-2.1,2.4-2.5
		C232.4,56.4,232.6,56,232.9,55.8z M219.7,87.3c0.1,0.2,0.2,0.3,0.2,0.3c0.1,0,0.2,0,0.2-0.1c0.4-0.8,1-1.6,1.3-2.5
		c1.1-3.2,2-6.4,3-9.6c-0.3,0-0.6-0.1-0.6,0C221.7,79.2,222.2,83.8,219.7,87.3z M221.7,97.4c2.1-2.8,3.9-7.3,3.7-9.3
		c-0.2,0.1-0.5,0.2-0.5,0.4C223.8,91.4,222.8,94.3,221.7,97.4z M219.1,119.2c-0.8,0.2-1.6,0.4-2.4,0.5c-0.8,0.1-1.5,0.2-2.3,0.3
		c0,0.2,0.1,0.3,0.1,0.5C216.2,121,217.7,120.4,219.1,119.2z M233.2,60.1c-0.1,0.2-0.2,0.4-0.3,0.6c1.4,0.8,2.6,2,4.7,1.5
		C236,61.5,234.6,60.8,233.2,60.1z M217.4,116.6c0.1,0.1,0.2,0.2,0.3,0.3c0.7-0.8,1.4-1.6,2.2-2.4c-0.1,0-0.1-0.1-0.1-0.1
		C218.9,115.2,218.1,115.9,217.4,116.6z M212.6,98c0.1,0.1,0.3,0.2,0.4,0.3c0.6-0.9,1.2-1.8,1.8-2.7c-0.1-0.1-0.2-0.1-0.3-0.2
		C213.8,96.3,213.2,97.1,212.6,98z M230.5,111.5c-0.1-0.1-0.2-0.2-0.3-0.3c-0.4,0.5-0.9,1-1.3,1.4c0.1,0.1,0.1,0.1,0.2,0.2
		C229.6,112.4,230.1,111.9,230.5,111.5z M230.6,126c0.1,0.1,0.1,0.1,0.2,0.2c0.3-0.3,0.5-0.6,0.8-0.9c-0.1-0.1-0.2-0.1-0.3-0.2
		C231.1,125.5,230.9,125.8,230.6,126z M219.8,100.3c0.1,0.1,0.2,0.1,0.3,0.2c0.3-0.5,0.5-0.9,0.8-1.4c-0.1-0.1-0.2-0.1-0.3-0.2
		C220.3,99.3,220.1,99.8,219.8,100.3z M221.7,117.7c0.1,0.1,0.2,0.3,0.3,0.4c0.6-0.4,1.1-0.8,1.7-1.1c-0.1-0.1-0.1-0.2-0.2-0.3
		C222.9,117,222.3,117.4,221.7,117.7z M234.6,122.1c-0.1-0.1-0.2-0.1-0.3-0.2c-0.2,0.3-0.4,0.5-0.6,0.8c0.1,0.1,0.2,0.1,0.2,0.2
		C234.1,122.6,234.3,122.3,234.6,122.1z M209.7,114.2c0-0.1,0-0.1,0-0.2c-0.3-0.1-0.7-0.1-1-0.2c0,0.2,0,0.3,0,0.5
		C209,114.3,209.4,114.2,209.7,114.2z M226.1,115.2c-0.1-0.1-0.2-0.2-0.2-0.3c-0.5,0.4-0.9,0.7-1.4,1.1c0.1,0.1,0.2,0.2,0.2,0.3
		C225.2,115.9,225.6,115.6,226.1,115.2z"/>
	<path class="st2" d="M21.1,152.6c2.1-0.4,3.7,0.4,5,1.4c3.6,2.7,7.1,5.5,10.6,8.3c0.9,0.7,1.5,1.4,2.7-0.1
		c-1.2-0.9-2.4-1.9-3.5-2.7c-4.6-3.2-8.8-7-12.3-11.4c-0.5-0.6-0.9-1.3-1.4-1.9c-1.2-1.4-1.6-2.8,0-4.2c0.1-0.1,0-0.4,0.1-0.9
		c2.8,1.4,5.6,2.7,7.1,5.2c2.8,4.6,7.1,7.3,11.3,10.3c1.8,1.3,3.6,2.5,5.4,3.7c0.4,0.3,0.9,0.3,1.3,0.5c1-0.5,0.9-1.2,0.3-1.7
		c-3.1-2.4-4.6-6.2-7.4-8.9c-1.7-1.6-3.2-3.3-4.6-5.1c-1.4-1.8-2.5-3.8-3.7-5.7c-0.2-0.4,0-1-0.1-1.5c0.6,0.1,1.2,0,1.7,0.3
		c1.2,0.9,2.4,1.8,3.5,2.9c3.8,3.8,7.4,7.8,11.3,11.5c2,1.9,4.3,3.4,6.6,5c2.1,1.5,4.4,2.9,6.5,4.3c0.8,0.6,1.7,1.1,2.8,1.9
		c-0.5,0.8-0.9,1.7-1.5,2.5c-0.3,0.4-0.8,0.6-0.9,1.1c-0.1,0.4-0.1,1,0.2,1.2c0.2,0.2,1,0.3,1.2,0.1c0.8-0.7,1.6-1.4,2-2.3
		c1.8-4,3-8,1.2-12.4c-0.7-1.8-1.2-3.8-1.6-5.7c-0.4-1.7,0.2-3,2-3.6c1.4,0.8,1.8,2.2,2.4,3.6c1.6,3.8,3.2,7.5,4.9,11.3
		c0.2,0.4,0.3,0.7,0.6,1c1.8,2.2,1.7,4.7,0.8,7.2c-1.1,3.1-2.7,5.9-4.7,8.5c-0.9,1.2-1.7,2.5-2.4,3.8c-1.7,3.1-3.8,5.8-7,7.5
		c-1.5,0.8-2.9,1-4.7,0.2c-3.6-1.6-7.4-2.6-11.3-3c-2.8-0.2-5.4-0.9-8-2c-3.3-1.4-6.9-2.3-10.3-3.4c-1-0.3-1.9-0.9-3.2-1.5
		c3-1.8,5.8-2.2,8.6-1.7c3.3,0.6,6.6-0.3,9.9-0.1c1.3,0.1,1.5-0.9,1.2-2.1c-0.5-0.2-1.1-0.4-1.7-0.6c-3.1-1.2-5.9-2.7-8.1-5.5
		c-2.1-2.7-4.7-4.9-6.9-7.5c-1.6-1.8-3-3.7-4.4-5.6C21.8,154.2,21.5,153.5,21.1,152.6z"/>
	<path class="st4" d="M202.5,574.2c0.4,4.2,0.8,8.5,1.3,12.8c0.3,2.3,0.7,4.5,1.1,6.8c0.5,2.8,0.9,5.6,1.4,8.4
		c0.4,2.5-0.8,4.3-2.8,5.5c-1.1,0.6-2.3,1-3.5,1.5c-4.4,1.6-9,2.4-13.7,2.1c-2.2-0.1-4.4-0.6-6.5-1c-3.2-0.6-6.5-1.2-9.7-2
		c-2.4-0.6-4.4-2-5.5-4.4c-0.5-1.1-0.5-1.9-0.1-2.9c1.4-3.9,3.3-7.6,5.6-10.9c3-4.4,3.8-9.2,3.5-14.4c0-0.5,0-1-0.1-1.4
		c-0.2-1.3,0.4-1.7,1.6-2c4.5-1.1,9-1.3,13.4-0.7C193.1,572,197.8,571.8,202.5,574.2z"/>
	<path class="st4" d="M336.3,611.6c0.3,0.2,0.5,0.4,0.7,0.6c3.3,3.9,7.7,5.4,12.5,5.9c3,0.3,6,1.1,8.9,0.1c2.4-0.8,4.8-1.6,7.1-2.6
		c0.8-0.3,1.3-1.3,1.8-2c-0.6-0.9-1.2-1.1-1.9-0.6c-2.7,2.1-5.8,3.2-9.2,3.5c-2.1,0.2-4.3-0.2-6.4-0.2c-2.7,0-5.2-0.7-7.5-2
		c-1.6-0.9-3.1-2-4.4-3.2s-1.9-2.8-1.8-4.7c0.1-5.7,0.6-11.3,3-16.7c0.8-1.8,0.8-3.8,1.2-5.8c0.2-1.3,0.3-2.7,0.4-4
		c4.5-1.5,8.9-2.9,13.6-2.3c1.4,0.2,2.8-0.2,4.3-0.3c0.9-0.1,1.9,0,3.1,0c0,1.5-0.1,2.9,0,4.3c0.1,2.1,0.1,4.3,0.7,6.3
		c1.8,5.6,3.9,11,6,16.5c1,2.7,2.1,5.5,2.2,8.5c0.1,1-0.2,1.7-0.9,2.6c-3.2,4.4-8.1,5.8-12.9,7.5c-5.3,1.9-10.3,0.8-15.1-1.5
		C338.2,619.8,335.2,615.4,336.3,611.6z"/>
	<path class="st2" d="M278.9,123c1.2,0.5,2.2,1,3.2,1.4c1.8,0.7,3.2,3.6,2.2,5.6c-1.2,2.4-2.4,4.9-2.8,7.5
		c-0.8,5.6-3.4,10.5-5.8,15.5c-1.2,2.4-2.4,4.8-3.2,7.4c-1.5,4.9-2.7,9.9-2.4,15.1c0,0.4,0,0.8,0,1.6c-0.5-0.5-0.8-0.7-1-1
		c-2.2-4.3-4.3-8.7-6.5-12.9c-1.6-3-3.4-5.9-5.2-8.7c-2.1-3.2-4.4-6.2-6.5-9.4c-1.4-2.3-2-5-2.2-7.6c-0.2-2.3-0.4-4.6-0.5-6.9
		c0-1.6,0.2-3.1,0.5-4.7c0.4-2.5,1-4.9,1.5-7.5c1.6,1.2,3.2,2.6,5,3.8c2.3,1.5,4.6,3.3,7.2,4c4.1,1.2,8.5,1.2,12.6-0.4
		C276.4,125.1,277.5,123.9,278.9,123z"/>
	<path class="st3" d="M301.8,110.1c-4.3,0.7-8.6,0.9-12.6-1.5c-1.1-0.7-2.1-1.7-3-2.7c-0.6-0.7-0.4-1,0.8-2c2,1.3,3.8,3.1,7,2.8
		c-0.6-0.7-0.8-1.1-1.1-1.4c-0.3-0.3-0.7-0.4-1-0.6c-3.8-1.7-5.2-4.7-4.6-8.7c2.4,0.1,1.5,2.9,3.2,4c-0.1-0.6-0.2-1-0.3-1.5
		c0.9,0.4,1.7,0.7,2.5,1.1c-2-2-4.6-3.5-5.9-6.8c1.7,0.9,3,1.5,4.2,2.2c0.1-0.2,0.3-0.3,0.4-0.5c-2.3-1.4-4.4-3-5.3-5.7
		c0.5-0.3,1-0.5,1.5-0.7c1.9-0.7,2.5-1.3,2.5-3.3c-0.1-4-0.2-7.9-0.5-11.9c-0.2-3-1-3.5-4-3.3c-0.2,0-0.5,0-0.9-0.1
		c0-0.9-0.1-1.9-0.1-2.8c0-4-0.1-7.9-0.1-11.9c0-0.6,0.5-1.1,0.9-2.2c1.9,8.6,4.4,16.2,12.1,20.8c-0.1,0.2-0.2,0.3-0.3,0.5
		c-1.1,0-2.1,0-3.2,0c-0.5,0-1,0.3-1.4,0.4c0.2,0.5,0.3,1.3,0.7,1.5c1.9,1.1,3.9,2.1,5.9,3.1c1.5,0.8,3.1,1.4,4.8,2.2
		c-1.6,1.1-3.2,1.2-5,1.2c0.1,1.4,0.5,2.1,1.9,2.5c2.1,0.6,4.1,1.6,6.2,2.4c-1,1.2-2.3,1.6-3.9,1.4c-0.7-0.1-1.4-0.2-1.4,0.6
		c0,0.4,0.6,1.1,1.1,1.3c2.1,0.9,4.3,1.6,6.4,2.5c0.4,0.2,0.8,0.4,1.4,0.7c-1.3,0.6-2.5,1.1-3.7,1.7c-0.4,0.2-0.8,0.5-1.1,0.8
		c-0.8,0.9-0.6,1.6,0.5,1.9c0.9,0.3,1.9,0.3,2.8,0.6c0.8,0.3,1.5,0.8,2.2,1.2c-1.6-0.2-3.1-0.4-4.7-0.6c-0.7,0-1.4,0-2.1,0
		c0,0.1,0,0.2,0,0.3c0.7-0.1,1.4-0.2,2.1-0.3c0.2,0.6,0.6,0.8,1.2,0.7c1.2-0.1,2.3-0.1,3.5-0.1c0.3-0.2,0.5-0.7,0.8-0.7
		c1.6-0.1,3.1,0,4.9,0c-1,2.3-2.1,4.1-4,5.1s-3.8,1.9-5.8,2.5c-1.7,0.5-3.5,0.5-5.3,0.8c0.6,0.8,1.7,0.4,3,0.3
		C303.8,109.5,302.1,108.8,301.8,110.1L301.8,110.1z"/>
	<path class="st2" d="M280.5,310.8c0.4-0.3,0.8-0.7,1.3-0.9c1.7-0.8,3.4-1.7,5.2-2.3c3.1-1.1,5.5-3,7.6-5.5c3-3.4,6-6.7,9.1-10
		c0.7-0.8,1.7-1.5,2.6-2c1.4-0.7,2.6-0.7,4.2,0c2.5,1.2,5.4,1.8,8.1,2.5c1.1,0.3,2.3,0.3,3.5,0.5c1,0.2,1.9,0.5,3.1,0.8
		c-0.3,0.7-0.3,1.1-0.6,1.5c-1.6,2.5-3.3,5-4.9,7.5c-1.9,3-4.8,4.9-8.1,5.9c-3.5,1-7.1,1.4-10.6,2c-4.4,0.7-8.9,1.1-13.4,1
		c-2.3-0.1-4.5-0.3-6.8-0.5C280.6,311.2,280.6,311,280.5,310.8z"/>
	<path class="st0" d="M271.8,181.7c-0.1-0.9-0.3-1.8-0.4-2.7c-0.5-6.2,0-12.4,2-18.3c1-3,2.7-5.9,4.1-8.8c1.7-3.5,3.8-6.9,4.8-10.8
		c0.5-1.9,0.8-3.8,1.3-5.6c0.3-1.3,0.9-2.5,1.5-3.7c1-1.9,0.7-3.8,0.2-5.7c-0.1-0.5-0.3-0.9-0.4-1.4c2.3-0.5,4.6-0.9,7.2-1.5
		c-0.3,1.8-0.6,3.3-0.8,4.8c-0.5,3-0.8,6-1.4,8.9c-0.6,2.5-1.5,5-2.4,7.4c-0.9,2.3-2,4.5-3.2,6.6c-1,1.8-2.3,3.4-3.5,5
		c-2,2.7-4.3,5.1-5.8,8c-2.6,4.9-3.9,10.2-2.7,15.8c0.1,0.5,0.1,0.9,0.2,1.4c0,0.1-0.1,0.3-0.2,0.4
		C272.1,181.7,271.9,181.7,271.8,181.7z"/>
	<path class="st0" d="M238.4,138.3c0.5-0.4,1-1,1.5-1.1c2.3-0.7,3.9-2,4.3-4.5c0.1-0.5,0.5-0.9,1.1-1.8c0.4,2.7,0.8,4.9,0.9,7.1
		c0.1,1.4,0.4,2.6,0.8,3.8c1.4,4.8,4.2,8.8,6.8,13c1.6,2.6,3.5,5.1,5,7.7c1.8,3.1,3.4,6.3,5.1,9.4c1.1,2,2.1,4.1,3.3,6
		c1.5,2.4,2.5,4.9,3,7.7c-1.6-1.9-3.2-3.8-4.8-5.8c-3.2-3.9-6.5-7.8-9.5-11.8c-1.8-2.4-3.1-5.1-4.6-7.7c-1.2-2.2-2.4-4.4-3.5-6.7
		c-1.6-3.3-2.7-6.7-3-10.4c-0.2-2.1-1.7-3.6-4.1-4c-0.7-0.1-1.4-0.2-2.1-0.2C238.6,138.7,238.5,138.5,238.4,138.3z"/>
	<path class="st4" d="M164.5,609.2c3.6,1.2,7.2,2.5,10.8,3.5c3.8,1.1,7.7,2,11.6,2c3.5,0,7.1-0.6,10.6-1c0.7-0.1,1.3-0.4,2-0.8
		c2.5-1.4,4.9-2.8,7.3-4.3c0.5,1.9,1,3.6,1.6,5.5c-0.6,0.3-1.2,0.6-1.8,0.7c-3.6,0.9-7.2,1.9-10.8,2.6c-4.9,1-9.8,1.9-14.8,1.9
		c-3.8,0-7.4-0.9-10.7-2.7C167.1,615.1,165.6,612.3,164.5,609.2z"/>
	<path class="st3" d="M272.7,51.9c0-0.4,0.1-0.8,0.1-1.2c-2.4-0.4-3,2.2-5.4,2.7c4.7-3.9,6.6-9.2,9.9-13.6c1.2-1.6,2.5-3.3,3.7-5
		c0.3,0.5,0.5,0.8,0.9,1.2c0.7-0.8,1.4-1.6,2.1-2.4c0.1,0,0.2,0.1,0.3,0.1c-0.3,0.9-0.6,1.9-0.9,2.8c0.2,0.1,0.3,0.2,0.5,0.4
		c0.2-0.4,0.5-0.8,0.7-1.2c0.1,0,0.2,0.1,0.3,0.1c-0.3,0.8-0.6,1.5-0.9,2.4c1,0.3,1.4-0.4,1.6-1c0.3-1.2,1.2-2,2.1-2.8
		c1.2-1,2.2-2.3,3.2-3.4c-0.1,2.5-1.6,5.9-3.4,7.5c-0.8,0.7-1.7,1.1-2.8,0.9c-0.2,0-0.5,0.3-0.7,0.5v-0.1c-1.2,0.9-2.1,2.1-2.4,3.6
		c-0.1,0.1-0.1,0.1-0.2,0.2c-0.7,0.5-1.4,1-2,1.6C277,47.6,274.9,49.7,272.7,51.9z M275.6,47.1c1.8-1.8,2.7-4.1,2.7-6.7
		c-0.6,1-0.7,2.2-1.1,3.3C276.8,45,276.2,46.1,275.6,47.1c-0.3,0.5-0.8,1-1.2,1.4c0.1,0.1,0.3,0.2,0.4,0.3
		C275.1,48.3,275.4,47.7,275.6,47.1z"/>
	<path class="st3" d="M283.8,40.1c0.8,0.1,1.7,0.1,2.9,0.2c0.9-0.9,2-2.1,3-3.3c0.1,0,0.1,0.1,0.2,0.1c-0.2,0.6-0.5,1.2-0.6,1.7
		c1.1-0.1,2.2-0.1,3.4-0.2c0.1,0.2,0.1,0.3,0.2,0.5c-1.1,0.7-2.2,1.5-3.6,2.4c0.8-0.1,1.3-0.2,1.9-0.3c-0.2,1.3-1.3,2.1-1.6,3.3
		c-0.3,1.3-1.4,2.4-2.4,3.5c-0.9,1-2,1.8-3,2.7c-1.1,0.8-2.3,1.6-3.4,2.4c-0.1-0.1-0.2-0.2-0.3-0.4c0.4-0.6,0.8-1.2,1.2-1.8
		c0-0.1-0.1-0.1-0.1-0.2c-1.1,0.8-2.3,1.6-3.4,2.4c-0.1-0.1-0.2-0.2-0.3-0.2c0.2-0.3,0.3-0.7,0.5-1c1.3-1.8,2.7-3.5,3.9-5.3
		c0.6-1,0.8-2.2,1.1-3.3l-0.1,0.1C283.5,42.4,283.6,41.2,283.8,40.1L283.8,40.1z M287.4,41.4c-0.2-0.1-0.3-0.2-0.5-0.2
		c-0.5,1.5-1,3-1.7,4.3c-0.8,1.5-1.8,2.8-2.8,4.2C285.2,47.5,286.9,44.7,287.4,41.4z"/>
	<path class="st2" d="M288.3,71.7c0.1,1.5,0.2,3,0.2,4.5c0.1,1.4,0,2.8,0.1,4.2c0.1,1.5,0.3,3,0.5,4.5c-1.3,0.7-2.4,1.3-3.9,2
		c-0.4-2.2-0.7-4.2-1-6.2c-0.2-1.7-0.2-3.5-0.5-5.2C283.3,72.6,285.2,70.9,288.3,71.7z"/>
	<path class="st3" d="M307.9,110.9c-0.4,1.4-1.6,1.8-2.9,1.9c-1.6,0.1-3.3,0-5.2,0c1.7,0.3,3.1,0.5,5.1,0.8c-3.6,1.5-7,0.9-10.3,1.6
		c-0.2-1.7-1.4-1.3-2.3-1.2c-2,0.3-3.9,0-5.7-1c-1-0.6-2-1.2-3-1.9c0.4-0.9,0.7-1.8,1.1-2.9c2.3,2,4.6,3.9,8,3.8
		c-0.3-0.5-0.5-0.7-1-1.5C297.4,111.9,302.7,112.1,307.9,110.9L307.9,110.9z"/>
	<path class="st3" d="M268,46.7c-0.5,0.3-0.9,0.5-1.8,1c0.3-0.9,0.4-1.4,0.6-1.9c0.3-1,0.8-2,0.8-2.9c-0.1-2.4,1-4.1,2.7-5.5
		c0.5-0.4,1.1-0.9,1.8-1.5c-0.4,1.4-0.5,2.6,1.1,3.2c0.6-2.7,3.4-3.5,4.6-5.7c-0.1,3.2-1.6,5.6-3.7,7.7c-1.5,1.4-2.9,2.9-4.3,4.4
		C269.3,45.9,268.6,46.3,268,46.7z"/>
	<path class="st2" d="M230.8,84.9c0.3,0.3,0.6,0.5,0.8,0.8c2.2,4.8,4.4,9.7,6.6,14.5c-1.1,0.6-1.8,0.3-2.5-0.4
		c-0.8-0.9-1.7-1.7-2.2-2.8c-0.6-1.2-1.3-2.3-1.8-3.5c-0.6-1.2-1.1-2.4-1.6-3.7C229.4,88.1,229.6,87,230.8,84.9z"/>
	<path class="st3" d="M251.9,52.5c-0.6-0.4-1.1-0.7-1.7-1.2c1.2-0.7,2.4-1.5,3.6-2.2l-0.1,0.1c2.2-0.9,3.6-2.7,4.9-4.6
		c0.9-1.3,1.7-2.8,2.6-4.3c1.4,1.6,0.7,3.4,0.7,5.1c0,0.1-0.1,0.2-0.2,0.3c-0.4,0.3-0.8,0.4-1.1,0.8c-1.1,1.4-2.1,2.9-3.2,4.5
		c0.3,0,0.6-0.1,0.9-0.1C256.4,52.5,254.1,52.5,251.9,52.5L251.9,52.5z"/>
	<path class="st3" d="M253.8,49.2c-1,0.3-2,0.4-2.9,0.8c-1.8,0.7-3.7,0.8-5.6,0.4c-1-0.2-2-0.3-3-0.6c2.8-0.5,5.5-1.1,8.3-1.6
		c0.8-0.1,1.1-0.4,0.9-1.3c-1-0.1-2-0.2-3.2-0.3c1.6-2.3,3.1-4.5,4.7-6.7c0.9,1.1,0.6,2.4,0.6,3.6c0,1.2-0.1,2.3-0.2,3.6
		c1.6,0.1,2.3-1.2,3.7-1.5C255.9,46.7,254.8,48,253.8,49.2C253.7,49.3,253.8,49.2,253.8,49.2z"/>
	<path class="st3" d="M281.2,43.9c0.1-0.1,0.1-0.1,0.2-0.2c0.6,0,1.1-1.9,1.9-0.2l0.1-0.1c-1.7,4.2-5.2,7-8.6,9.6
		c-1.2,0.9-2.4,1.7-4.2,1.6c0.7-0.9,1.3-1.6,1.9-2.3c0.4-0.2,0.9-0.2,1.2-0.5C276.1,49.2,278.7,46.5,281.2,43.9z"/>
	<path class="st3" d="M242.7,125.3c0.3-0.5,0.7-1.1,1-1.6c1.3-2.2,2.6-4.4,4.1-6.7c0.5,1.2,0.6,2.4,0.3,3.5c-1,3.3-2.5,6.4-4.9,8.9
		c-0.7-0.7-0.2-2.3-1.7-2.2h0.1C241.9,126.6,242.3,125.9,242.7,125.3z"/>
	<path class="st3" d="M281,117.4c3.2,2,6.8,2.1,10.5,2.9c-1.4,1.4-3,1.7-4.5,1.7c-1.8,0-3.6-0.3-5.3-0.8
		C280,120.7,279.9,120,281,117.4z"/>
	<path class="st3" d="M268,46.7c0.6-0.4,1.2-0.8,1.9-1.2c1-0.7,2-1.5,3.3-2.4c-0.3,1-0.4,1.6-0.6,2.3c-0.4,0.2-0.8,0.4-1.1,0.6
		c-0.6,0.7-1.1,1.5-1.7,2.2v-0.1c-2.1,2.7-4.5,5.1-7.6,6.9c0.9-1.7,1.8-3.5,2.8-5.2c0.3-0.5,0.8-0.8,1.2-1.1
		C266.7,48,267.4,47.4,268,46.7z"/>
	<path class="st3" d="M261.7,45.8c0.1-0.1,0.1-0.2,0.2-0.3c1.5-1.6,1.2-3.5,0.5-5.3c-0.5-1.5-0.6-1.4,0.3-3.1
		c0.5,0.2,1.1,0.3,1.9,0.6c-0.1,0.8-0.1,1.8-0.2,2.7s-0.2,1.8-0.3,2.7c0.2,0,0.3,0.1,0.5,0.1c0.3-0.8,0.5-1.6,0.8-2.5
		c0.4,0.1,0.8,0.1,1.3,0.2c-0.1,0.3-0.1,0.5-0.2,0.7c-1.9,3-3.6,6.1-6.4,8.3c-0.2,0.2-0.3,0.5-0.5,0.7l0.1-0.1
		c-0.4,0.1-0.8,0.3-1.2,0.4C259.5,49.2,260.6,47.5,261.7,45.8z"/>
	<path class="st3" d="M289,117.7c1.4,0.2,2.7,0.6,4.1,0.6c1.1,0.1,2.1,0.2,3.4,1c-6.1,1.3-10.5-0.7-14-5.3c0.1-0.4,0.3-0.9,0.5-1.4
		c0.3,0,0.6,0,0.7,0.1c0.5,0.5,1.2,1.1,1.4,1.7c0.3,1.2,1.1,1.8,2.1,2.3C287.9,117,288.4,117.3,289,117.7z"/>
	<path class="st3" d="M289,117.7c-0.6-0.3-1.1-0.7-1.7-1c-0.5-0.7-1-1.3-1.4-2c2.1,0.5,4.1,0.7,6.1,0.7c1.9-0.1,3.7,0.6,5.6,0.9
		c0,0.2,0,0.3,0,0.5c-0.9,0-1.7,0.2-2.6,0.1c-0.9,0-1.7-0.2-2.5-0.4c-0.8-0.2-1.7-0.5-2.5-0.8c-0.1,0.2-0.1,0.3-0.2,0.5
		c0.6,0.4,1.2,0.8,2.2,1.6C290.7,117.7,289.8,117.7,289,117.7z"/>
	<path class="st3" d="M240.9,127.5L240.9,127.5c0.2-0.1,0.4-0.2,0.6-0.3h-0.1c0.2,1.9-0.8,3.3-2,4.6c-1.1,1.2-2.5,0.3-4.2,0.8
		C237,130.1,239.4,129.3,240.9,127.5z"/>
	<path d="M281.2,43.9c-2.5,2.6-5.1,5.3-7.6,7.9c-0.3,0.3-0.8,0.4-1.2,0.5c0.1-0.1,0.2-0.3,0.3-0.4c2.2-2.1,4.4-4.3,6.6-6.4
		C279.8,44.9,280.5,44.4,281.2,43.9z"/>
	<path class="st3" d="M301.7,110.2c2-0.4,4-0.8,5.9-1.3c0.8-0.2,1.2-0.1,1.3,0.9c-2.1,0.9-4.4,1-6.6,0.8
		C302.1,110.6,302,110.3,301.7,110.2C301.8,110.1,301.7,110.2,301.7,110.2z"/>
	<path class="st3" d="M271.4,46c0.4-0.2,0.8-0.4,1.1-0.6c-0.5,2.2-1.7,3.8-3.7,5.1c0.3-0.8,0.6-1.5,0.9-2.3v0.1
		C270.9,48,271.3,47.1,271.4,46z"/>
	<path class="st3" d="M243.8,48.3c0.7-0.1,1.4-0.3,2.1-0.4c0,0.2,0.1,0.4,0.1,0.5c-0.7,0.1-1.4,0.3-2.1,0.5
		C243.9,48.6,243.8,48.5,243.8,48.3z"/>
	<path class="st3" d="M308,110.9c1-0.4,2.1-0.7,3.1-1.1c0.1,0.2,0.1,0.4,0.2,0.6C310.1,110.6,309,110.7,308,110.9
		C307.9,110.9,308,110.9,308,110.9z"/>
	<path class="st5" d="M299.7,117.6c-0.7,0.2-1.4,0.4-2.2,0.7c0-0.2-0.1-0.3-0.1-0.5c0.7-0.2,1.4-0.5,2-0.7
		C299.6,117.3,299.6,117.5,299.7,117.6z"/>
	<path class="st3" d="M236.5,49.7c0.6,0,1.3,0,1.9,0c0,0.1,0,0.2,0,0.3c-0.6,0-1.3,0.1-1.9,0.1C236.5,50,236.5,49.8,236.5,49.7z"/>
	<path d="M266.7,80.1c0.5,0,1.1-0.1,1.7-0.1c-0.1-0.7-0.2-1.5-0.4-2.5c-1.1,0.7-2.1,1.2-3.2,1.8c-0.3-0.3-0.7-0.6-1.1-0.9
		c-0.2,0.2-0.3,0.3-0.3,0.4c-0.8,2.6-0.4,5.1,0.6,7.6c0.9,2.3,1.7,4.6,2.6,7c-0.6,0.4-1.1,0-1.4-0.6c-0.5-1.1-0.9-2.2-1.4-3.3
		c-0.2-0.4-0.2-1-0.4-1.4c-2.1-4.1-1.5-8.3-0.7-12.5c0.3-1.5,1.1-2.6,2.4-3.8c0,0.9,0,1.4,0,2.2c0.7-0.2,1.4-0.2,2.1-0.6
		c1-0.5,1.9-1.1,2.7-1.9c1.9-1.9,4.4-2.5,6.9-2.7c1.5-0.2,2.7,0.8,4,1.8c-0.8,0.5-1.3,1-2.1,0.6c-3.1-1.3-5.7-0.6-7.9,1.8
		c-0.5,0.5-1.2,1-2,1.6c1.6,0.4,2.8,0.8,4.1,1c1.2,0.2,2.4,0.3,4.2,0.5c-2,1.9-3.3,3.7-5.1,4.8C270.3,81.8,268.3,81.6,266.7,80.1z
		 M272.6,78.7c0.5-0.4,1-0.8,1.4-1.1c-0.1-0.1-0.1-0.2-0.2-0.4c-0.5,0-1.1,0.1-1.7,0.1C272.2,77.9,272.4,78.2,272.6,78.7z"/>
	<path d="M241,84.4c-0.9-0.2-1.8-0.3-3.2-0.5c0.8-0.6,1.2-0.9,1.7-1.2c1-0.6,2.1-1,3.1-1.7c2.7-1.9,5.7-1.5,8.6-1.1
		c0.2,0,0.4,0.4,1,0.9c-1.7,0.3-3,0.5-4.3,0.7c0.1,0.7,0.1,1.2,0.2,1.7c1.1,0.1,1.9-1.1,3.2-0.1c-1.1,1.3-2.5,2-4,2.3
		c-1.4,0.3-2.8,0.4-4.2,0.2C242.2,85.6,241.6,84.8,241,84.4c0.8,0,1.7,0,2.5,0C242.4,82.9,241.7,83.9,241,84.4z"/>
	<path d="M253.7,77.9c-0.8,1.9-2.2,1.4-3.5,1.1c-2.3-0.5-4.6-1.1-6.9-1.4c-2.3-0.4-4.5,0-6.5,1.4c-1,0.7-2.1,1.5-3.4,0.1
		c1.6-1,3-2.1,4.6-2.8c2.4-1,5-0.6,7.5-0.4c1.3,0.1,2.7,0.3,4,0.3C251.6,76.5,251.6,76.4,253.7,77.9z"/>
	<path d="M268.6,97.5c0,0.3,0,0.7-0.1,0.8c-2.3,0.8-4.3,2.7-6.9,2.6c-1,0-1.9-1-2.9-1.5c-0.6,0.1-1.3,0.2-2.1,0.3
		c-0.6-0.8-0.8-1.6-0.1-2.2c0.8-0.6,1.5-0.1,2.1,0.5c0.5,0.4,0.9,0.9,1.4,1.2c0.9,0.5,1.8,1.2,2.6-0.1c0.1-0.2,0.4-0.4,0.5-0.4
		c1.6,0.3,2.2-0.9,2.8-1.9C266.9,97.1,267.7,97.3,268.6,97.5z"/>
	<path d="M257.1,109.2c0.2-0.4,0.4-0.9,0.7-1.1c1.7-1,3.4-2,5.7-1.6c1.4,0.3,3.1-0.3,4.5-0.8c1.3-0.5,2.4-0.3,3.8,0.3
		c-0.4,0.3-0.7,0.7-0.9,0.6c-1.6-0.2-3,0.3-4.4,0.8c-1.3,0.5-2.5,0.7-3.9,0.4c-1.1-0.2-2.3,0.3-3.4,0.7c-0.7,0.2-1.2,0.7-1.8,1
		C257.4,109.4,257.3,109.3,257.1,109.2z"/>
	<path d="M267.2,109.7c-1.6,1.9-3.7,1.2-5.6,1C263.3,109.5,265.3,109.9,267.2,109.7z"/>
	<path d="M219.7,87.3c2.5-3.5,2-8.1,4.2-11.8c0-0.1,0.3,0,0.6,0c-1,3.2-2,6.4-3,9.6c-0.3,0.9-0.9,1.7-1.3,2.5c0,0-0.1,0.1-0.2,0.1
		C219.8,87.6,219.8,87.5,219.7,87.3z"/>
	<path d="M221.7,97.4c1.1-3.1,2.1-6,3.1-8.9c0.1-0.2,0.3-0.3,0.5-0.4C225.6,90.1,223.9,94.6,221.7,97.4z"/>
	<path d="M234.6,65.8c-0.4,0.2-0.8,0.6-1.2,0.6c-2.6-0.2-4.8-1.3-7-2.4c0.1-0.2,0.1-0.3,0.2-0.5c1.4,0.6,2.9,1.3,4.4,1.9
		c0.4-0.6,0.7-1.2,1-1.8c0.1,0,0.2,0.1,0.3,0.1c-0.2,0.6-0.4,1.2-0.7,2.1C232.8,65.8,233.7,65.8,234.6,65.8L234.6,65.8z"/>
	<path d="M232.9,55.8c2.1-2,4.6-1.4,7.1-1.2c0.8,0,1.6,0.5,2.3,1.1c-1.1-0.2-2.2-0.2-3.2-0.5c-1.7-0.5-3.2-0.3-4.8,0.4
		C233.8,55.8,233.3,55.7,232.9,55.8L232.9,55.8z"/>
	<path d="M232.9,55.8c-0.3,0.2-0.5,0.6-0.8,0.7c-1.2,0.4-2.3,1-2.4,2.5c0,0.2-0.4,0.4-0.7,0.6C228.9,57.3,229.8,56.4,232.9,55.8
		L232.9,55.8z"/>
	<path d="M258.3,50.9c0.4-0.1,0.8-0.3,1.2-0.4c-2,2.3-5,3-7.7,1.9C254.1,52.5,256.4,52.5,258.3,50.9L258.3,50.9z"/>
	<path d="M219.1,119.2c-1.4,1.2-2.9,1.8-4.7,1.3c0-0.2-0.1-0.3-0.1-0.5c0.8-0.1,1.6-0.2,2.3-0.3
		C217.5,119.6,218.3,119.4,219.1,119.2z"/>
	<path d="M233.2,60.1c1.4,0.7,2.8,1.4,4.3,2.1c-2,0.5-3.2-0.8-4.7-1.5C233,60.5,233.1,60.3,233.2,60.1z"/>
	<path d="M223.9,125.4c0.9-1.2,1.8-2.5,2.6-3.7C226.3,123,225.8,123.6,223.9,125.4L223.9,125.4z"/>
	<path d="M217.4,116.6c0.8-0.7,1.5-1.5,2.3-2.2c0.1,0,0.1,0.1,0.1,0.1c-0.7,0.8-1.4,1.6-2.2,2.4
		C217.6,116.8,217.5,116.7,217.4,116.6z"/>
	<path d="M212.6,98c0.6-0.8,1.3-1.7,1.9-2.5c0.1,0.1,0.2,0.1,0.3,0.2c-0.6,0.9-1.2,1.8-1.8,2.7C212.8,98.2,212.7,98.1,212.6,98z"/>
	<path d="M224.8,108.6c-0.6,0.9-1.2,1.9-1.9,2.8c-0.1-0.1-0.2-0.2-0.4-0.3C223.1,110.2,223.8,109.3,224.8,108.6
		C224.8,108.7,224.8,108.6,224.8,108.6z"/>
	<path d="M223.9,125.3c-0.6,0.7-1.2,1.3-1.9,2c-0.1-0.2-0.2-0.3-0.4-0.5C222.4,126.3,223.2,125.9,223.9,125.3
		C223.9,125.4,223.9,125.3,223.9,125.3z"/>
	<path d="M230.5,111.5c-0.5,0.4-1,0.9-1.5,1.3c-0.1-0.1-0.1-0.1-0.2-0.2c0.4-0.5,0.9-1,1.3-1.4C230.3,111.3,230.4,111.4,230.5,111.5
		z"/>
	<path d="M230.6,126c0.2-0.3,0.5-0.6,0.7-0.8c0.1,0.1,0.2,0.1,0.3,0.2c-0.3,0.3-0.5,0.6-0.8,0.9C230.8,126.2,230.7,126.1,230.6,126z
		"/>
	<path d="M219.8,100.3c0.3-0.5,0.5-1,0.8-1.4c0.1,0.1,0.2,0.1,0.3,0.2c-0.3,0.5-0.5,0.9-0.8,1.4C220,100.4,219.9,100.3,219.8,100.3z
		"/>
	<path d="M221.7,117.7c0.6-0.4,1.2-0.7,1.8-1.1c0.1,0.1,0.1,0.2,0.2,0.3c-0.6,0.4-1.1,0.8-1.7,1.1
		C221.9,118,221.8,117.9,221.7,117.7z"/>
	<path d="M248.2,58.1c-0.6-0.1-1.1-0.1-1.7-0.2C247.3,57.1,247.7,57.7,248.2,58.1C248.2,58.2,248.2,58.1,248.2,58.1z"/>
	<path d="M226.1,106.6c0.3,1.1-0.6,1.6-1.3,2h0.1C225.2,108,225.7,107.3,226.1,106.6C226.1,106.7,226.1,106.6,226.1,106.6z"/>
	<path d="M241.5,127.2c-0.2,0.1-0.4,0.2-0.5,0.2c0.6-0.7,1.1-1.5,1.7-2.2C242.3,125.9,241.9,126.6,241.5,127.2z"/>
	<path d="M234.6,122.1c-0.2,0.3-0.4,0.5-0.6,0.8c-0.1-0.1-0.2-0.1-0.2-0.2c0.2-0.3,0.4-0.5,0.6-0.8C234.4,122,234.5,122,234.6,122.1
		z"/>
	<path d="M209.7,114.2c-0.3,0-0.7,0-1,0.1c0-0.2,0-0.3,0-0.5c0.3,0.1,0.7,0.1,1,0.2C209.7,114.1,209.7,114.2,209.7,114.2z"/>
	<path d="M226.1,115.2c-0.5,0.4-0.9,0.7-1.4,1.1c-0.1-0.1-0.2-0.2-0.2-0.3c0.5-0.4,0.9-0.7,1.4-1.1C226,115,226,115.1,226.1,115.2z"
		/>
	<path d="M306.6,99.8c1.6,0.2,3.1,0.4,4.7,0.6l0,0c-1.1,0.1-2.3,0.1-3.5,0.1C307.2,100.5,306.7,100.4,306.6,99.8L306.6,99.8z"/>
	<path d="M306.6,99.7c-0.7,0.1-1.4,0.2-2.1,0.3c0-0.1,0-0.2,0-0.3C305.2,99.8,305.8,99.8,306.6,99.7
		C306.6,99.8,306.6,99.7,306.6,99.7z"/>
	<path d="M275.7,47.2c0.5-1.1,1.1-2.2,1.5-3.4c0.4-1.1,0.6-2.3,1.1-3.3C278.3,43,277.5,45.3,275.7,47.2L275.7,47.2z"/>
	<path d="M283.3,43.5c-0.8-1.7-1.3,0.2-1.9,0.2c0.3-1.5,1.2-2.7,2.4-3.6C283.6,41.2,283.5,42.4,283.3,43.5z"/>
	<path d="M275.6,47.1c-0.2,0.6-0.5,1.1-0.7,1.7c-0.1-0.1-0.3-0.2-0.4-0.3C274.9,48.1,275.3,47.7,275.6,47.1
		C275.7,47.2,275.6,47.1,275.6,47.1z"/>
	<path d="M287.4,41.4c-0.6,3.4-2.2,6.1-4.9,8.3c0.9-1.4,2-2.7,2.8-4.2c0.7-1.4,1.1-2.9,1.7-4.3C287.1,41.2,287.3,41.3,287.4,41.4z"
		/>
	<path d="M258.3,50.9L258.3,50.9c-0.3,0-0.6,0.1-1,0.1c1.1-1.5,2.1-3,3.2-4.5c0.3-0.3,0.7-0.5,1.1-0.8
		C260.6,47.5,259.5,49.2,258.3,50.9z"/>
	<path d="M271.4,46c-0.1,1.1-0.5,2-1.7,2.2C270.3,47.5,270.9,46.8,271.4,46z"/>
	<path class="st5" d="M272.6,78.7c-0.2-0.5-0.3-0.9-0.5-1.4c0.6,0,1.2-0.1,1.7-0.1c0.1,0.1,0.1,0.2,0.2,0.4
		C273.5,78,273.1,78.3,272.6,78.7z"/>
	<path class="st5" d="M241,84.4c0.8-0.5,1.5-1.4,2.5,0C242.6,84.3,241.8,84.3,241,84.4L241,84.4z"/>
</g>
</svg>
