<?xml version="1.0" encoding="utf-8"?>
<!-- Generator: Adobe Illustrator 19.2.0, SVG Export Plug-In . SVG Version: 6.00 Build 0)  -->
<svg version="1.1" id="Layer_1" xmlns="http://www.w3.org/2000/svg" xmlns:xlink="http://www.w3.org/1999/xlink" x="0px" y="0px"
	 viewBox="0 0 141.1 107.1" style="enable-background:new 0 0 141.1 107.1;" xml:space="preserve">
<style type="text/css">
	.st0{fill:#FEE5D2;}
	.st1{fill:#FEE75E;}
	.st2{fill:#FFFFFF;}
</style>
<path d="M121.4,14.5c0.2,0.4,0.3,1.1,0.5,1.1c1.1-0.1,2.3,0,3.2-0.5c1.1-0.5,2-1.3,2.9-2.1c0.6-0.5,0.9-1.2,2-0.7
	c0.3,0.2,1.1-0.6,2.1-1.3c-0.4,0.9-0.5,1.5-0.8,1.8c-1.2,1.3-2.3,2.7-3.6,3.8c-4,3.6-7.9,7.2-12,10.6c-1.6,1.3-2.2,2.8-2.4,4.9
	c-0.5,4.9,0.8,9.4,2.6,13.7c0.8,1.9,2.5,3.4,3.9,5.1c0.5,0.6,1.2,1.1,1.6,1.7c1.1,1.4,0.8,2.3-0.9,2.8c-0.4,0.1-0.8,0.1-1.3,0.2
	c1.3,3.1,4.6,3.9,6.9,6.1c-1.5,1-2.8,1.9-4.1,2.7c1.1,2.1,3.8,1,5.4,2.3c0.4,2.4,0.4,2.4-1.6,3.2c-0.8,0.3-1.6,0.7-2.6,1
	c1.3,1.6,3,2.2,4.7,2.9c0.6,0.2,1.2,0.3,1.8,0.6c1.2,0.6,1.3,1.4,0.2,2.1c-1.1,0.7-2.5,1.1-3.7,1.6c-0.4,0.1-0.8,0.2-1.4,0.5
	c2.6,2.1,5.9,1.9,8.7,3.5c-0.3,2.9-3,4.3-4.9,6.2c-0.4,0.4-1,0.7-1.6,1.1c0.1,0.4,0.2,0.8,0.3,1.4c-0.3,0.1-0.5,0.1-0.8,0.2
	c-0.3,0-0.6,0.1-0.9,0.1c0.2,1.9-0.1,2.4-1.8,2.6c-1.5,0.2-3,0.3-4.5,0.6c-1.5,0.3-2.9,0.9-4.3,1.4c-0.1,0.4-0.2,0.9-0.3,1.2
	c-2.3,0.6-4.6,1-6.7,1.7c-2.6,0.8-5.2,1.3-7.9,0.7c-1.8-0.4-3.8-0.3-5.7-0.2c-2,0.1-3.5-0.7-4.9-2c-0.5-0.4-0.9-0.9-1.5-1.4
	c-0.4,0.1-0.8,0.2-1.1,0.4c-2.3,1.4-4.8,1.9-7.4,1.3c-2.9-0.7-5.9-1.3-8.4-2.7c-2.3-1.3-4.2-3.6-6.1-5.7c-1.5-1.6-2.8-3.5-4.1-5.2
	c-0.9,2-1.8,3.8-2.7,5.6c-0.8,1.7-2.2,2.9-3.8,3.9c-2,1.2-3.9,2.4-5.5,4.2c-1.1,1.3-3,1.4-4.4,0.4c-0.9-0.6-1.5-1.5-2.4-2.1
	c-0.6-0.4-1.4-0.8-2.2-0.8c-2,0-4,0.2-6.1,0.3c-0.4-0.4-1-0.8-1.3-1C30,95.4,27.5,96.2,25,97c-1.6,0.4-1.6,0.4-5-1
	c-0.4-1.3,0-2,1.3-2.6c2.9-1.3,5.3-3.9,4.5-7.9c-1.3,1.2-2.4,2.7-3.9,3.5c-1.5,0.8-3.3,1.2-5,1.2c-1.7,0-3.5-0.4-4.7-2
	c1.4-2.7,5-2.1,6.8-4.9c-1.6,0-2.8-0.2-4,0c-3.1,0.5-4.9-1.5-6.8-3.2c-0.5-0.4-0.8-1.1-1.4-1.8c2.6-0.4,5.1,0.7,7.2-1
	c1.5-1.2,2.7-2.7,3.5-4.7c-0.9-0.5-1.9-0.7-2.9-0.3c-1.5,0.6-2.8,0.2-4.1-0.5c-1.2-0.7-2.4-1.3-3.5-2c-0.9-0.5-1.7-1.1-1.9-2.4
	c1.7-1.3,3.6-1.5,5.7-1c-1.9-1.7-3.1-3.8-3.7-6.2c-0.1-0.5,0.4-1.1,0.7-2c1,0.6,1.7,0.9,2.4,1.4c2.7,1.8,4.9,1.6,7.4-0.5
	c1.6-1.4,3.3-2.8,5.1-4c3.2-2,5.5-4.8,7.8-7.7c0.8-1.1,1.5-2.3,2.3-3.3c3.7-4.7,6-10.1,8.8-15.3c2.1-3.9,3.8-8.1,7.4-11.1
	c0.7-0.5,1.4-1.1,2.1-1.5c2.3-1.3,4.7-2.6,7.1-4c2.2-1.3,4.7-1.6,7.2-1.6c0.6,0,1.2,0.3,1.8,0.4c1.6,0.4,3.2,0.8,4.9,1.1
	c3.4,0.6,6.1-0.8,8.4-3.1c1-1,2-2,3.1-3c0.3-0.3,0.7-0.5,1.2-0.8c1.8,2.7-0.1,5.2-0.1,7.9c2.9-1.1,5.2-2.7,7-5
	c1.3-1.5,2.6-3,3.9-4.5c1.5,1.1,1.5,1.1,0.4,7.8c2.2-2.4,5.3-3.1,6.8-5.9c0.5-1,1.4-1.2,2.2-1c1,0.2,0.8,1.3,0.7,2
	c-0.1,0.8-0.2,1.6-0.4,2.7c1.6-0.4,2.7-1.4,3.5-2.5c0.9-1.5,2.2-2.2,4-2.3c0.7,1.8-0.8,3.2-0.9,5.2c2.8-0.9,4.3-4.2,7.6-4.2
	c0.9,1.9-0.5,3.4-1,5.4c2.7-1.3,3.9-4.7,7.7-4.5C124.5,9.4,123.8,12.4,121.4,14.5c-0.6,0.2-1.2,0.3-1.7,0.6c-0.7,0.4-1.4,1-2.1,1.5
	c-1.2,0.9-2.2,0.8-3-0.4c3.5,0.1,7-3,7.6-6.5c-1.2,0.7-2.3,1.6-3.6,2.2c-1.1,0.5-2.1,1.1-2.7,2.2c-0.3,0.6-0.8,1-1.7,0.5
	c0.5-0.7,0.9-1.3,1.6-2.2c-0.7,0.3-1.2,0.4-1.9,0.7c0.6-1,1-1.6,1.4-2.3c-0.1-0.1-0.2-0.2-0.3-0.3c-0.7,0.5-1.3,0.9-2.1,1.4
	c-0.3-0.4-0.6-0.7-0.9-1.1c-3.6,2.5-6.7,5.4-9.8,8.4c-0.7,0.7-1.5,1.3-2.3,1.9c0.3-0.6,0.6-1.1,0.9-1.7c0-0.1,0.1-0.2,0.2-0.2
	c-0.6-1.2,1.4-1.2,1-2.5c-0.9,0.5-1.8,0.9-2.7,1.4c0.6-0.6,1.2-1.2,1.9-1.7c1.3-0.9,2.8-1.5,4.1-2.4c2-1.3,3.5-3,4.1-5.5
	c-1.6,1.9-4.7,1.6-5.6,4.3c-1.2-1.1-1-2.3-0.4-3.7c-1.3,0.7-2.3,1-3.1,1.6c-1,0.9-2,2-2.7,3.2c-0.7,1.1-1.2,2.4-1.8,3.6
	c-0.3,0.5-0.7,1-1.3,1.8c1.2-0.3,1.9-0.5,2.6-0.7c-0.9,0.5-1.7,1-2.6,1.5c-0.7,0.4-1.5,0.6-2,1.2c-1.3,1.3-2.5,2.7-3.8,4.1
	c1.2-0.1,2.1-0.5,3-0.9c1.8-1,3.6-2,5.4-3c-0.2,0.4-0.4,0.8-0.8,1.7c1.5-0.9,2.6-1.5,3.6-2.2c-1.7,1.4-3.5,2.9-5.1,4.2
	c2.2-0.8,4.6-1.8,6.9-2.7c0.1,0,0.2-0.2,0.3-0.4c0,0,0,0,0,0c0.1,1.4-1.5,1.5-2,2.4c0,0,0,0,0,0c-0.9,0.8-1.9,1.6-2.9,2.6
	c1.7,0.5,3.1,0,4.5-0.6c2-0.9,4.1-1.8,6.1-2.7c-0.2,1.9-2.3,2.2-3.5,4.1c2.1-0.8,3.7-1.5,5.3-2.1l-0.1-0.1c-0.8,0.7-1.6,1.5-2.5,2.2
	c1.9-0.3,3.8-0.8,5.4-1.7c1.7-0.9,3.2-2.1,4.7-3.2c0.7-0.5,3-3.5,3.1-4c-0.5,0-0.9,0-1.8,0c1.8-0.6,3.1-1.1,4.4-1.6
	c0-0.1,0-0.3,0-0.4c-1.2-0.3-2.4-0.5-3.7-0.8C119.9,15.9,120.6,15.2,121.4,14.5z M97,90.5c-0.3-0.4-0.8-0.9-0.8-1.3
	c0-1-0.5-1.6-1.2-2.2c-0.1-0.1-0.3,0-0.5-0.1c-0.3,0.4-0.6,0.8-0.9,1.2c2.3,5.4,6.1,8.5,12,8.5c-0.7-0.5-1.4-1-2.1-1.3
	c-0.7-0.3-1.4-0.5-2.2-0.8c0.2-0.1,0.4-0.2,0.6-0.2c-0.4-1.2-1.6-1.6-2-2.9c-0.2-0.9-2-1.3-3.2-2C96.9,89.9,96.9,90.2,97,90.5z
	 M90.5,15.8c-1.1,1.3-2.2,2.7-3.5,4.3c4.2-1.5,6.8-4.5,9.9-7.4c-0.8-0.3-1.2-0.4-1.6-0.5c-0.5,0.8-0.8,1.5-1.2,2.2
	c-0.1-0.1-0.3-0.1-0.4-0.2c0.6-1.7,1.2-3.5,1.8-5.2c-0.8-0.5-1.3-0.8-1.7-1c-1.2,0.7-1.3,1.7-1.1,2.9C93.1,13.8,92.5,14.9,90.5,15.8
	c1.3-1.3,1.5-2.9,1.1-5.4c-3.7,4.8-8,7.6-13.7,8.2c0.3,0.5,0.5,0.8,0.7,1.1c-1.7-1.3-3.7-1-5.8-1.3c0.3-0.7,0.6-1.1,0.8-1.6
	c4.9,1.8,9.3,0.9,13-2.7c-1.5,0.3-2.6,1.9-4.5,1.1c0.8-2.3,1.9-4.4,1.6-7.2c-1.2,1.2-2.2,2.2-3.2,3c-1,0.8-2.1,1.6-3.3,2.5
	c1.3,0.5,2.2,0.9,3.2,1.3c-0.2,0.4-0.3,0.7-0.4,1c-1-0.1-1.9-0.1-2.7-0.1c-3.1-0.2-6.2-0.1-9.3-0.6c-5.7-0.8-10.3,1-14.4,5.1
	c-0.8-0.8-1.7-0.5-2.3,0.3c-0.8,1-1.6,2.2-2.4,3.3c-0.2,0.3-0.6,0.5-1,0.9c0.6-3.8,4-5.1,5.6-7.8c-2.2,1.3-4.5,2.4-5.9,4.6
	c-1.7,2.8-3.3,5.6-4.8,8.5c-2.2,4-4.3,8-6.5,12c-0.8,1.4-2,2.6-2.6,4c-2.2,4.5-6,7.6-8.9,11.7c-0.4-0.4-0.7-0.6-1.1-1
	c-1.2,0.9-2.4,1.7-3.6,2.7c-1.1,0.8-2,1.9-3.1,2.6c-2.2,1.5-4.7,1.2-7.2,0.3c0.5,1.7,3.1,1.8,2.2,4.2c1.6-0.4,2.9-0.7,4.2-0.9
	c-0.7,0.7-1.5,1.2-2.4,1.4c-1,0.3-2,0.3-1.9,2c-0.3-0.5-0.4-0.7-0.6-0.9c-0.9-0.7-1.9-0.7-2.2,0.1c-0.4,1,0.3,1.3,1,1.6
	c1.3,0.4,2.6,1,3.9,1.2c3.7,0.6,4.1,0.3,5.6-3.1c0.6,0.6,0.7,1.2,0.2,1.9c-0.4,0.6-0.6,1.2-1,1.8c-1.3,2.2-2.2,4.8-4.5,6.3
	c-1,0.7-1.7,1.7-2.7,2.8c2.8,0.9,5.3,0.9,7.9,0.5c0.6-0.1,1.3,0,2.4,0.1c0.5-0.5,1.1-1.7,2.7-1.7c-1.2,1.7-2.7,3.1-3.7,4.8
	c-1.2,1.9-3.5,1.9-4.8,3.6c1.5,0,2.9-0.2,4.2-0.6c2.9-1,4.3-3.6,6.1-6.3c0.8,1.1,1.9,2,1.8,2.9c-0.2,3.7-0.8,7.3-4,9.8
	c-0.4,0.3-0.8,0.4-1.3,0.6c0.2,0.2,0.3,0.4,0.5,0.6c1.1,0.1,2.1,0.2,2.8-1c0.2-0.4,0.8-0.7,1.3-0.9c2.1-0.7,3.9-1.7,5.2-3.4
	c1.3,0.9,2.4,1.7,3.8,2.6c1-0.5,2-1.1,3.2-1.8c0,0.9,0,1.6,0,2.4c1.8,0.9,3.2,0.6,4.5-0.9c0.7-0.8,1.7-1.5,2.6-2.2
	c0.2,1,0,1.9-0.3,2.6c-0.4,0.9-1.1,0.1-1.6,0.3c-0.6,0.3-1.1,0.7-1.7,1.2c2.8,1.5,3.7,1.4,5.4-0.6c0.7-0.8,1.3-1.7,2.2-2.8
	C51,91.3,51,91.6,51,92c0,0.4,0.1,0.7,0.1,1.2C56.2,90,59,86,58.9,83c-1.7,1.4-3.8,3.1-5.9,4.8c1.7-3.5,4.1-6.9,4.4-11.1
	c-0.4,0.2-0.5,0.6-0.8,0.8c-2,2.5-4,5-6.1,7.4c-0.3,0.3-0.9,0.2-1.4,0.3c0.1-0.5,0.2-1,0.5-1.3c1.4-1.5,2.8-3,4.2-4.5
	c1.3-1.4,2.1-3,2.6-4.8c0.3-1,0.2-1.8-0.5-2.6c-1.4,1.9-2.8,3.5-3.9,5.4c-1.2,2-3.3,2.8-4.9,4.4c-0.5,0.5-1,0.9-1.6,1.3
	c4.1-4.5,7.1-8.9,8.7-13.1c0.5-1.2,0.8-2.4,0.1-3.7c-1.4-0.2-2,0.7-2.7,1.6c-1.2,1.8-2.5,3.5-3.7,5.3c-0.6-0.4-0.9-0.6-1.3-0.9
	c1.7-2.3,3.5-4.5,4.1-7c-1.1-2-2.1-3.7-3.1-5.5c-2,2-3,4.7-5.7,5.9c0.3-0.5,0.7-0.9,1.1-1.4c1.5-2,3-4.1,4.5-6.1
	c-0.4-2-0.8-4.1-1.1-6.1c0-0.2-0.1-0.3-0.1-0.5c-0.3-1.6-0.3-3.2,0.8-4.5c0.8-1.1,1.7-2.1,2.4-3.2c0.3-0.5,0.6-1.1,0.6-1.7
	c0-1.2-0.1-2.4-0.4-3.6c-0.4-2-1-3.9-1.4-5.8c-0.3-1.6-0.7-3.1-1.9-4.3c-0.6-0.6-1.2-1.4,0-2.4c2.3,2,5,3.3,7.9,4.3
	c5.7,2.1,6.1,2.2,9,1.5c-1-0.4-1.8-0.8-2.6-1.1c1.5,0.1,2.8,0.5,4.2,1c1.4,0.5,2.6,0,3.9-0.6c2.9-1.3,2.9-1.3,3.1-2.1
	c2.5,0.4,4.6-0.5,6.8-1.9c-1.5-0.6-2.8-1.1-4.6-1.9C74.9,25,75,25,75,25c0.4,0.1,0.8,0.2,1.1,0.4c2.9,1.4,5.7,1.3,8.7,0
	c3.9-1.8,7-4.5,9.1-8.3c-0.3,0-0.6,0.1-0.8,0.3c-2.1,2.1-4.8,3.2-7.6,3.9c-2.2,0.5-4.6,1-6.4-1.2c1.2,0.3,2.3,0.8,3.5,0.9
	c1,0.1,2-0.3,3-0.5c0-1.4,1.5-1.5,2.2-2.3C88.6,17.3,89.6,16.6,90.5,15.8z M114.1,89c-0.1,0.3-0.3,0.5-0.5,0.9
	c2.4,0.5,4.6,1.2,6.9,0.6c-0.2-1.3-1.1-0.9-1.7-0.9C117.3,89.6,115.6,90,114.1,89c0.7-0.2,1.4-0.4,2.1-0.6c-0.8-0.4-1.6-0.8-2.3-1.2
	c2.1,0.7,4.2,0.7,6.3,0.5c1-0.1,2-0.4,3.1-0.4c3.2-0.2,5.4-1.9,7.6-4.3c-0.7-0.2-1.2-0.4-1.8-0.5c-2.9-0.6-5.6-1.9-8.2-3.3
	c-1.3-0.7-1.3-1.6-0.1-2.3c0.5-0.3,1-0.3,1.6-0.5c1-0.3,2.1-0.5,3.5-0.9c-1.1-0.9-1.8-1.5-2.6-2c-1.4-1-2.8-1.9-4.1-2.9
	c-0.8-0.6-1.3-1.2-0.2-2.2c1.8,0.6,3.8,1.1,5.5-0.1c-1-0.7-1.9-1.3-2.9-2c-0.9-0.6-1.7-1.5-2.7-1.9c-1.2-0.6-1.4-1.5-1.3-2.8
	c1.7,0,3.3,0,5.3,0c-2.3-1.9-4.2-3.5-6.2-5.1c-1.1-0.9-2.1-1.9-3.1-3c-0.3-0.3-0.2-1-0.3-1.5c0.5-0.1,1-0.3,1.5-0.2
	c1.1,0.2,2.1,0.5,3.1,0.8c0.1-0.2,0.2-0.3,0.3-0.5c-0.4-0.6-0.8-1.3-1.4-1.8c-1.6-1.5-2.5-3.5-3.2-5.5c-1.4-3.9-1.9-7.9-1.8-12
	c0-1.1,0-2.1,0-3.2c-0.2,0-0.4-0.1-0.6-0.1c-1.4,2.3-1.6,5.1-2.3,7.6c-0.8,2.6-1.4,5.3-2,8c3.9,0.5,4.6,1.3,4,4.9
	c-0.7,3.8-1.6,7.6-2.5,11.5c-0.4,1.5-1.4,2.2-3,2.4c-0.6,0.1-1.2,0.2-1.9,0.3c0.2,3.1,2.1,5,3.7,7.1c-0.1,0.1-0.3,0.2-0.4,0.3
	c-1.1-1-2.2-2-3.4-3c-0.5,1.9,0.7,3,1.5,4.3c0.7,1.2,1.7,2.3,2.5,3.5c-0.1,0.1-0.1,0.1-0.2,0.2c-0.6-0.5-1.3-1-2-1.6
	c-0.1,0.5-0.2,0.9-0.3,1.2c-0.9-1.5-0.2-3.6-2.2-4.8c-0.2,1.5-0.2,2.9-0.6,4.1c-0.5,1.3-0.1,2.1,0.6,3c1,1.1,2,2.2,3,3.4
	c0.3,0.4,0.5,1,1,1.9c-3.3-0.5-4.6-2.7-6.1-4.5c-1.4,0.6-1.8,1-1.4,1.7c0.8,1.3,1.7,2.7,2.7,3.7c1.1,1,2.4,1.8,3.6,2.7
	c-0.7-0.1-1.4-0.1-2.3-0.2c0.4,0.4,0.7,0.7,0.9,1c-3.4-0.4-5.2-2.9-7-5.4c-0.7,1-1.2,1.8-1.8,2.7c0.5,0.4,1,0.6,1.3,1
	c1.6,2.6,4,3.8,6.9,4.1c0.5,0.1,1.4,0.3,1.4,0.6c0.3,1.4,1.4,1.2,2.2,1.4c1.7,0.4,3.4,0.7,5.2,0.9c0.9,0.1,1.8,0,2.7,0
	c-0.2-0.5-0.5-0.6-0.8-0.7c-0.3-0.1-0.6-0.3-0.9-0.5c3.1,1.3,6-0.8,9-0.7c-0.2-0.2-0.4-0.5-0.6-0.4c-3.2,0.7-6.3-0.1-9.4-0.7
	c-2.5-0.5-4.9-1.3-6.8-3c1.7,0.4,3.3,1,5,1.3C111.7,89.1,112.9,89,114.1,89z M50.4,30.5c-0.1,0.1-0.2,0.3-0.4,0.4
	c0.1,0.5,0.2,0.9,0.3,1.4c0.5,2.6,1.2,5.1,1.5,7.7c0.6,5.1,1,10.3,2.2,15.4c1.1,4.4,1.9,8.8,3.2,13.2c1.6,5.6,3.2,11.2,6.9,15.8
	c2,2.5,4,5,6.5,7.2c1.2,1,2.7,0.9,4,1.5c2.3,1.1,4.7,1.4,7.2,1.4c1.4,0,2.6-0.3,3.7-1.4c3-3.1,6.5-5.7,8.8-9.4
	c0.7-1.2,1.5-2.3,2.3-3.4c2.3-3.1,3.8-6.4,4.6-10.2c0.3-1.4,0.5-3.1,0-4.2c-0.5-1.1-0.4-1.9-0.4-2.9c0.3-4.5,0.7-9.1,1.2-13.6
	c0.1-1.1,0.4-2.2,0.8-3.2c1-2.9,2.3-5.8,3.1-8.8c0.5-1.9,0.5-4,0.8-6.1c-1.6-0.2-2.9-0.2-4-0.6c-3.1-1-6.4-1-9.7-1.5
	c-3.6-0.6-7.1-0.5-10.6,0.5c-2.1,0.6-4.3,1.3-6.4,1.9c-1.8,0.6-3.6,1.3-5.5,1.7c-3.1,0.5-6.2,0.7-9.2,1.2c-2.9,0.4-5.3-0.2-7.6-2
	C52.6,31.7,51.5,31.2,50.4,30.5z M109.9,48.3c-3.3-1.4-4.8-0.6-5.2,2.5c-0.2,1.2-0.4,2.4-0.6,3.5c-0.5,2.6-1.1,5.2-0.5,8.1
	c0.5-0.2,1-0.5,1.4-0.4c2.3,0.2,2.8-1.3,3-3.1c0-0.4,0.1-0.8,0.2-1.2c0.4-1.8,0.8-3.5,1.1-5.3C109.5,51.1,109.7,49.7,109.9,48.3z
	 M50.8,46.3c-1.8,1.6-2.4,3.2-2.2,5.1c0.2,1.3,0.3,2.7,0.7,4c0.6,2.3,1.4,4.5,2.2,6.7c0.3,0.9,1,1.5,2.4,1.3
	C52.9,57.8,51.8,52.3,50.8,46.3z M91.2,91c-2,2.7-1.9,3.1,0.9,4.4c0.9,0.4,1.7,0.9,2.6,1.2c2,0.8,4,0.7,6.4,0
	C97.6,94.9,93.9,93.9,91.2,91z M107.9,94.5c-0.5-0.5-0.6-0.8-0.7-0.9c-1.4-0.2-2.7-0.6-3.8-1.7c-0.3-0.3-1.1-0.2-2-0.4
	C103.2,93.9,105.2,94.5,107.9,94.5z M109.3,96.1c0-0.2,0-0.4,0.1-0.6c-0.7,0-1.4,0.1-2.1,0.1c0,0.2,0,0.4,0,0.6
	C108,96.2,108.6,96.2,109.3,96.1z M66.4,14.2c0-0.1,0-0.2,0-0.3c-0.9,0-1.8,0-2.8,0c0,0.1,0,0.2,0,0.3
	C64.6,14.2,65.5,14.2,66.4,14.2z M72.3,14.4c0,0.1,0,0.2,0,0.3c0.8,0,1.6,0,2.4,0c0-0.1,0-0.2,0-0.3C73.8,14.4,73.1,14.4,72.3,14.4z
	 M50,93.6c-0.1-0.1-0.2-0.3-0.3-0.4c-0.4,0.5-0.9,0.9-1.3,1.4c0.1,0.1,0.1,0.2,0.2,0.2C49,94.4,49.5,94,50,93.6z M123.1,18.7
	c-0.1-0.1-0.2-0.3-0.4-0.4c-0.4,0.3-0.7,0.7-1.1,1c0.1,0.1,0.2,0.2,0.3,0.3C122.3,19.3,122.7,19,123.1,18.7z"/>
<path class="st0" d="M50.4,30.5c1.1,0.7,2.2,1.2,3.2,2c2.2,1.8,4.7,2.5,7.6,2c3.1-0.5,6.2-0.6,9.2-1.2c1.9-0.3,3.6-1.1,5.5-1.7
	c2.1-0.7,4.3-1.3,6.4-1.9c3.5-1,7-1.1,10.6-0.5c3.2,0.5,6.5,0.5,9.7,1.5c1.2,0.4,2.5,0.4,4,0.6c-0.2,2.1-0.2,4.2-0.8,6.1
	c-0.8,3-2.1,5.8-3.1,8.8c-0.4,1-0.7,2.1-0.8,3.2c-0.5,4.5-0.9,9.1-1.2,13.6c-0.1,0.9-0.1,1.8,0.4,2.9c0.6,1.2,0.3,2.8,0,4.2
	c-0.7,3.7-2.3,7.1-4.6,10.2c-0.8,1.1-1.6,2.2-2.3,3.4c-2.3,3.8-5.8,6.4-8.8,9.4c-1.1,1.1-2.3,1.4-3.7,1.4c-2.5-0.1-4.9-0.3-7.2-1.4
	c-1.3-0.6-2.8-0.5-4-1.5c-2.5-2.1-4.5-4.7-6.5-7.2c-3.7-4.6-5.3-10.3-6.9-15.8c-1.3-4.3-2.1-8.8-3.2-13.2
	c-1.2-5.1-1.6-10.2-2.2-15.4c-0.3-2.6-1-5.2-1.5-7.7c-0.1-0.5-0.2-0.9-0.3-1.4C50.1,30.8,50.3,30.6,50.4,30.5z M97.6,49.8
	c-2.7-1.3-5-2.3-7.5-3.5c3.5-2,6.8-4,10.5-1c0.7,0.6,1.4,0.3,2.3,0c-1.1-1.4-2.1-2.6-3.7-2.8c-2.5-0.4-4.9-0.3-7.2,1
	c-0.9,0.5-1.9,0.9-2.9,1.1c-0.8,0.2-1.6,0-2.4,0c0.2-0.7,0.3-1.2,0.6-2c-1.5,0.8-2.6,1.5-3.1,2.7c-1.9,4-3.8,8-2.7,12.6
	c0.1,0.6,0,1.3,0.1,1.9c0.1,1.2,0.3,2.4,0.6,3.5c0.1,0.4,0.6,0.6,1.1,1.1c-0.3-3.3-0.4-6.2-0.8-9.1c-0.3-2.5,0.5-4.5,1.7-6.7
	c0.4,0.5,0.8,1,1.1,1.3c1.3-0.4,2.4-0.7,3.7-1c-0.2,1-0.3,1.7-0.5,2.4c-0.6,0-1.2-0.1-2.2-0.1c0.4,0.5,0.5,0.7,0.7,0.8
	c2.1,1.3,4.1,2,6.4,0.4C94.6,51.4,96,50.7,97.6,49.8z M72,48.1c0-0.6,0.1-0.6,0-0.7c-0.1-0.1-0.1-0.3-0.2-0.4
	c-2.7-1.4-5.5-2.4-8.6-1.3c-1.1,0.4-2.3,0.6-3.4,0.9c-0.5,0.1-1,0.3-1.6,0.5c1.5,1.7,1.5,1.7,4.7,1.1c0.1,0.3,0.2,0.6,0.3,1.1
	c-0.9-0.2-1.7-0.3-2.7-0.4c2.4,3,8,3.3,10.2,0.7c-1-0.1-1.9-0.2-2.9-0.3c0.1-0.6,0.2-1.1,0.3-1.7C69.5,47.7,70.7,47.9,72,48.1z
	 M74.6,45.6c-0.7-1.2-1.6-1.9-2.9-2.3c-1.6-0.5-3.1-1.2-4.7-1.6c-2.3-0.6-4.6-1.4-7-1.4c-1.9,0-3.7,0.9-5.7,1.4
	c1,1.5,2.3,1.3,3.3,0.9c2.9-1.3,5.5-0.5,8.1,0.6c1.9,0.9,3.9,1.9,5.7,3C72.6,46.8,73.6,46.8,74.6,45.6z M81.8,67.2
	c-0.9,0.8-1.8,1.9-3.2,1.1c-0.1-0.1-0.3,0-0.4,0.1c-1.5,1.4-2.2,0.1-3-0.9c-0.4-0.4-0.6-0.9-1-1.4c-0.4-0.6-0.9-1.2-1.7-0.9
	c-0.9,0.4-1,1.2-0.7,2c1,0.7,2.4-0.2,3.1,1.2c0.4,0.9,1,1.6,2.2,1.6c1,0,2.3,0.5,3,0c1.1-0.7,2-0.7,3.1-0.6c0.9,0,1.1-0.4,0.9-1
	C83.3,68,82.7,67.7,81.8,67.2z M70.1,77c0.1,0.2,0.2,0.3,0.3,0.4c0.7-0.2,1.3-0.5,2-0.5c1.2,0,2.4-0.1,3.5,0.2
	c1.2,0.4,2.4,0.6,3.7,0.6c1.6,0,3.1,0.2,4.7,0.3c0.2,0,0.5-0.2,0.9-0.4c-1.1-1.1-2.3-1.3-3.6-1.3c-1.6,0-3.3,0.2-4.6-0.4
	c-2.1-1-4-0.4-5.9,0.1C70.6,76.2,70.4,76.7,70.1,77z M79.8,80c-1.9,0-3.8-1.3-5.7-0.3C75.9,80.5,77.8,81.5,79.8,80z"/>
<path class="st1" d="M79.2,20.1c1.8,2.2,4.2,1.7,6.4,1.2c2.8-0.7,5.5-1.8,7.6-3.9c0.2-0.2,0.4-0.3,0.8-0.3c-2.1,3.8-5.1,6.5-9.1,8.3
	c-3,1.4-5.8,1.4-8.7,0c-0.4-0.2-0.7-0.3-1.1-0.4c-0.1,0-0.2,0-0.8,0.1c1.7,0.7,3,1.2,4.6,1.9c-2.2,1.4-4.3,2.3-6.8,1.9
	c-0.2,0.8-0.2,0.8-3.1,2.1c-1.3,0.6-2.5,1.1-3.9,0.6c-1.3-0.5-2.7-0.9-4.2-1c0.8,0.4,1.7,0.7,2.6,1.1c-2.9,0.7-3.3,0.6-9-1.5
	c-2.9-1.1-5.6-2.3-7.9-4.3c-1.2,1-0.5,1.8,0,2.4c1.2,1.2,1.5,2.7,1.9,4.3c0.4,1.9,1,3.9,1.4,5.8c0.2,1.2,0.4,2.4,0.4,3.6
	c0,0.6-0.3,1.2-0.6,1.7c-0.8,1.1-1.6,2.1-2.4,3.2c-1.1,1.4-1.1,2.9-0.8,4.5c0,0.2,0.1,0.3,0.1,0.5c0.4,2,0.8,4.1,1.1,6.1
	c-1.5,2-3,4.1-4.5,6.1c-0.4,0.5-0.8,0.9-1.1,1.4c2.7-1.2,3.7-4,5.7-5.9c1,1.8,2,3.6,3.1,5.5c-0.6,2.6-2.4,4.7-4.1,7
	c0.4,0.3,0.8,0.5,1.3,0.9c1.2-1.8,2.5-3.5,3.7-5.3c0.6-1,1.3-1.8,2.7-1.6c0.7,1.3,0.3,2.5-0.1,3.7c-1.6,4.2-4.6,8.6-8.7,13.1
	c0.5-0.4,1.1-0.8,1.6-1.3c1.6-1.5,3.7-2.4,4.9-4.4c1.1-1.8,2.5-3.5,3.9-5.4c0.8,0.9,0.8,1.7,0.5,2.6c-0.6,1.8-1.3,3.4-2.6,4.8
	c-1.4,1.5-2.9,3-4.2,4.5c-0.3,0.3-0.3,0.9-0.5,1.3c0.5-0.1,1.2,0,1.4-0.3c2.1-2.4,4.1-4.9,6.1-7.4c0.2-0.3,0.4-0.6,0.8-0.8
	c-0.3,4.2-2.7,7.6-4.4,11.1c2-1.7,4.2-3.4,5.9-4.8c0.1,3-2.7,7-7.8,10.2c0-0.4-0.1-0.8-0.1-1.2c0-0.4-0.1-0.8-0.1-1.6
	c-0.9,1.1-1.5,2-2.2,2.8c-1.8,2-2.6,2-5.4,0.6c0.6-0.4,1.1-0.9,1.7-1.2c0.5-0.2,1.3,0.6,1.6-0.3c0.3-0.8,0.4-1.6,0.3-2.6
	c-0.9,0.7-1.8,1.4-2.6,2.2c-1.3,1.5-2.7,1.8-4.5,0.9c0-0.7,0-1.4,0-2.4c-1.2,0.7-2.3,1.2-3.2,1.8c-1.3-0.9-2.5-1.8-3.8-2.6
	c-1.3,1.7-3.1,2.7-5.2,3.4c-0.5,0.2-1.1,0.5-1.3,0.9c-0.7,1.2-1.7,1.1-2.8,1c-0.2-0.2-0.3-0.4-0.5-0.6c0.4-0.2,0.9-0.4,1.3-0.6
	c3.2-2.5,3.8-6.1,4-9.8c0-0.8-1.1-1.7-1.8-2.9c-1.9,2.7-3.3,5.3-6.1,6.3c-1.3,0.5-2.7,0.6-4.2,0.6c1.3-1.7,3.6-1.7,4.8-3.6
	c1.1-1.7,2.6-3.1,3.7-4.8c-1.5,0-2.2,1.2-2.7,1.7c-1.1-0.1-1.8-0.2-2.4-0.1c-2.5,0.4-5,0.4-7.9-0.5c1-1.1,1.8-2.1,2.7-2.8
	c2.3-1.6,3.2-4.1,4.5-6.3c0.4-0.6,0.6-1.2,1-1.8c0.5-0.7,0.3-1.3-0.2-1.9c-1.5,3.5-1.9,3.7-5.6,3.1c-1.3-0.2-2.6-0.7-3.9-1.2
	c-0.7-0.2-1.4-0.6-1-1.6c0.3-0.8,1.3-0.8,2.2-0.1c0.2,0.1,0.3,0.4,0.6,0.9c-0.1-1.7,0.9-1.7,1.9-2c0.9-0.2,1.7-0.7,2.4-1.4
	c-1.3,0.3-2.6,0.6-4.2,0.9c0.9-2.4-1.7-2.5-2.2-4.2c2.5,0.9,5,1.2,7.2-0.3c1.1-0.7,2-1.8,3.1-2.6c1.2-0.9,2.4-1.8,3.6-2.7
	c0.4,0.4,0.7,0.6,1.1,1c2.9-4.1,6.8-7.2,8.9-11.7c0.7-1.4,1.9-2.6,2.6-4c2.2-4,4.3-8,6.5-12c1.6-2.9,3.1-5.7,4.8-8.5
	c1.4-2.2,3.7-3.3,5.9-4.6c-1.7,2.7-5.1,4-5.6,7.8c0.5-0.4,0.8-0.6,1-0.9c0.8-1.1,1.5-2.2,2.4-3.3c0.7-0.8,1.5-1.1,2.3-0.3
	c4.1-4,8.7-5.9,14.4-5.1c3.1,0.4,6.2,0.4,9.3,0.6c0.9,0,1.7,0.1,2.7,0.1c0.1-0.3,0.3-0.6,0.4-1c-1-0.4-2-0.8-3.2-1.3
	c1.3-0.9,2.4-1.7,3.3-2.5c1-0.9,1.9-1.8,3.2-3c0.3,2.8-0.8,4.9-1.6,7.2c1.9,0.8,3.1-0.7,4.5-1.1c-3.8,3.6-8.1,4.5-13,2.7
	c-0.2,0.5-0.5,0.9-0.8,1.6c2,0.3,4.1,0.1,5.8,1.3C78.8,19.9,79,20,79.2,20.1z M29.2,74.2c0.9-0.4,1.8-0.8,2.7-1.2
	c0.8-0.6,1.7-1.2,2.5-1.7c-1.1,0.3-2.2,0.5-2.5,1.8C31.1,73.5,30.2,73.9,29.2,74.2c-0.5,0.4-1.1,0.7-1.6,1.1
	c0.1,0.1,0.2,0.3,0.3,0.4C28.4,75.2,29.4,75.3,29.2,74.2z M32.2,52.7c0.7-0.5,1.4-1,2.1-1.5c-0.1-0.2-0.3-0.3-0.4-0.5
	C33.4,51.5,32.8,52.1,32.2,52.7c-1,0.2-1.5,0.9-1.8,1.9C31,54,31.6,53.4,32.2,52.7z M64.3,18.8c2.3,1.2,4.6,2.5,6.9,3.7
	c-0.9-0.9-1.9-1.8-3-2.5C67,19.2,65.8,18.4,64.3,18.8c-2.9-1.3-5.6-0.2-8.2,0.8c-0.6,0.2-1.3,0.9-0.9,2.1c0.5-0.5,0.8-0.8,1.1-1.1
	c0.5-0.4,0.9-1,1.4-1.1C59.9,19.2,62.1,19,64.3,18.8z M39.3,46.3c3.5-2.8,5-6.9,7-10.7C43.3,38.7,42.3,43.2,39.3,46.3z M25.6,76.9
	c2.2,1.5,4.4,0.6,6.6,0.2c2.2-0.4,4.4-1,6.2-2.5C34.2,76.1,30.2,77.9,25.6,76.9z M39.1,55.6c2.6-2,5-5.3,5.4-7.2
	c-0.1,0-0.4-0.1-0.4,0C42.4,50.8,40.7,53.2,39.1,55.6z M36.4,69.7c0.1,0.1,0.2,0.2,0.3,0.3c1.5-1.1,3-2.3,4.5-3.4
	c-0.1-0.1-0.2-0.3-0.3-0.4C39.4,67.4,37.9,68.5,36.4,69.7z M61.8,25.8c-1.1-1.7-2.1-2.6-3.6-2.4C59.7,24.2,60.1,25.6,61.8,25.8z
	 M51.9,24.6c-0.1,0.2-0.2,0.3-0.4,0.5c0.9,0.7,1.8,1.4,2.8,2.2c-0.5-0.9-1.1-1.6-1.8-2.3C52.3,24.8,52,24.7,51.9,24.6z M35.8,49.5
	c0.1,0.1,0.2,0.2,0.3,0.3c0.5-0.5,1-0.9,1.5-1.4c-0.1-0.1-0.2-0.2-0.2-0.3C36.9,48.6,36.4,49,35.8,49.5z M34.4,83.9
	c-0.1-0.1-0.1-0.2-0.2-0.3c-0.5,0.3-1.1,0.6-1.6,1c0.1,0.1,0.1,0.2,0.2,0.3C33.3,84.5,33.9,84.2,34.4,83.9z M40.7,79.1
	c0.1,0.1,0.1,0.2,0.2,0.3c0.4-0.3,0.8-0.5,1.2-0.8c-0.1-0.1-0.1-0.2-0.2-0.3C41.5,78.5,41.1,78.8,40.7,79.1z M29.8,64.7
	c-0.1-0.1-0.1-0.1-0.2-0.2c-0.2,0.3-0.5,0.6-0.7,0.8c0.1,0.1,0.1,0.1,0.2,0.2C29.3,65.3,29.5,65,29.8,64.7z M57.8,28.7
	c-0.1,0.1-0.2,0.3-0.2,0.4c0.5,0.1,0.9,0.3,1.4,0.4c0-0.1,0-0.1,0.1-0.2C58.5,29.1,58.1,28.9,57.8,28.7z"/>
<path class="st1" d="M105.6,87.7c-1.2-0.9-2.6-1.6-3.6-2.7c-1.1-1.1-1.9-2.4-2.7-3.7c-0.4-0.7-0.1-1.1,1.4-1.7
	c1.5,1.8,2.8,4,6.1,4.5c-0.5-0.9-0.7-1.5-1-1.9c-1-1.2-2-2.2-3-3.4c-0.8-0.9-1.1-1.7-0.6-3c0.5-1.2,0.4-2.6,0.6-4.1
	c2.1,1.2,1.3,3.2,2.2,4.8c0.1-0.4,0.2-0.7,0.3-1.2c0.7,0.5,1.3,1,2,1.6c0.1-0.1,0.1-0.1,0.2-0.2c-0.8-1.2-1.8-2.2-2.5-3.5
	c-0.7-1.3-2-2.4-1.5-4.3c1.2,1.1,2.3,2,3.4,3c0.1-0.1,0.3-0.2,0.4-0.3c-1.6-2.1-3.5-4-3.7-7.1c0.7-0.1,1.3-0.2,1.9-0.3
	c1.5-0.1,2.6-0.9,3-2.4c0.9-3.8,1.9-7.6,2.5-11.5c0.6-3.6-0.1-4.4-4-4.9c0.7-2.7,1.3-5.4,2-8c0.7-2.6,0.9-5.3,2.3-7.6
	c0.2,0,0.4,0.1,0.6,0.1c0,1.1,0,2.1,0,3.2c-0.1,4.1,0.5,8.1,1.8,12c0.7,2.1,1.6,4,3.2,5.5c0.5,0.5,0.9,1.2,1.4,1.8
	c-0.1,0.2-0.2,0.3-0.3,0.5c-1-0.3-2.1-0.6-3.1-0.8c-0.5-0.1-1,0.1-1.5,0.2c0.1,0.5,0,1.2,0.3,1.5c0.9,1.1,2,2.1,3.1,3
	c1.9,1.6,3.9,3.2,6.2,5.1c-2,0-3.6,0-5.3,0c-0.2,1.3,0,2.2,1.3,2.8c1,0.5,1.8,1.3,2.7,1.9c0.9,0.7,1.9,1.3,2.9,2
	c-1.7,1.1-3.6,0.7-5.5,0.1c-1.1,1-0.6,1.6,0.2,2.2c1.4,0.9,2.8,1.9,4.1,2.9c0.8,0.5,1.5,1.2,2.6,2c-1.4,0.4-2.5,0.6-3.5,0.9
	c-0.5,0.1-1.1,0.2-1.6,0.5c-1.2,0.7-1.2,1.5,0.1,2.3c2.6,1.4,5.2,2.7,8.2,3.3c0.5,0.1,1,0.3,1.8,0.5c-2.2,2.4-4.4,4.2-7.6,4.3
	c-1,0.1-2,0.4-3.1,0.4c-2.1,0.1-4.2,0.2-6.3-0.5c0.7,0.4,1.5,0.8,2.3,1.2c-0.7,0.2-1.5,0.4-2.2,0.6l0.1,0c-1.2,0-2.5,0.1-3.7-0.1
	C108.8,88.6,107.1,88.1,105.6,87.7L105.6,87.7z M107.9,69.4c-1,1-0.4,1.5,0.3,2C108.1,70.8,108,70.2,107.9,69.4z M111.6,75.1
	c-0.1,0-0.1,0.1-0.2,0.1c0.2,0.2,0.5,0.4,0.8,0.6c0,0,0.1-0.1,0.1-0.1C112,75.5,111.8,75.3,111.6,75.1z"/>
<path class="st1" d="M99.8,21.2c0.8-0.6,1.6-1.2,2.3-1.9c3.1-3,6.2-5.9,9.8-8.4c0.3,0.4,0.6,0.7,0.9,1.1c0.7-0.5,1.4-1,2.1-1.4
	c0.1,0.1,0.2,0.2,0.3,0.3c-0.4,0.7-0.8,1.3-1.4,2.3c0.7-0.3,1.2-0.4,1.9-0.7c-0.6,0.9-1.1,1.6-1.6,2.2c0.9,0.5,1.4,0,1.7-0.5
	c0.6-1.1,1.6-1.7,2.7-2.2c1.3-0.6,2.4-1.5,3.6-2.2c-0.6,3.5-4.2,6.6-7.6,6.5c-0.4,0-0.8,0.1-1.2,0.1c-1.7,1.3-3.4,2.6-5.1,3.9
	c-0.1,0.1-0.1,0.4-0.2,0.7c-1.5,0.9-3,1.7-4.5,2.6c-1.2,0.4-2.3,0.8-3.5,1.2c0.5-1,2-1,2-2.4c0.5-0.1,1.1-0.1,1.5-0.3
	c0.7-0.4,1.4-1,2.1-1.5c0.9-1.3,1.8-2.7,2.7-4c0.2-0.2,0-0.7,0-1.5c-1.1,1.9-2,3.3-2.7,4.7c-0.1,0.2,0,0.6,0,0.9
	c-0.5,0.1-1,0.2-1.4,0.4c-0.7,0.4-1.4,0.9-2.1,1.4c-0.1,0.1-0.2,0.3-0.3,0.4c-2.4,0.9-4.7,1.8-6.9,2.7
	C96.4,23.9,98.2,22.5,99.8,21.2C99.9,21.1,99.8,21.2,99.8,21.2z"/>
<path class="st1" d="M113.3,16.3c0.4,0,0.8-0.1,1.2-0.1c0.9,1.2,1.9,1.3,3,0.4c0.7-0.5,1.3-1.1,2.1-1.5c0.5-0.3,1.1-0.4,1.7-0.6
	c0,0,0,0,0,0c-0.8,0.7-1.5,1.3-2.2,1.9c1.3,0.3,2.5,0.5,3.7,0.8c0,0.1,0,0.3,0,0.4c-1.3,0.5-2.6,0.9-4.4,1.6c0.9,0,1.3,0,1.8,0
	c-0.2,0.5-2.5,3.5-3.1,4c-1.5,1.1-3.1,2.3-4.7,3.2c-1.7,0.9-3.5,1.4-5.4,1.7c0.8-0.7,1.6-1.5,2.5-2.2c3.4-1.2,5.4-3.9,7.3-6.8
	c0.1-0.2-0.1-0.6-0.4-1.4c-1.3,3.4-3.4,5.4-5.7,7.1c-0.4,0.3-0.7,0.8-1.1,1.2c-1.6,0.6-3.2,1.3-5.3,2.1c1.1-1.9,3.2-2.2,3.5-4.1
	c1-0.8,2-1.6,3-2.3C112.3,20.6,113.4,18.6,113.3,16.3z"/>
<path class="st1" d="M105.5,87.6c2,1.7,4.3,2.5,6.8,3c3.1,0.6,6.2,1.4,9.4,0.7c0.2,0,0.4,0.2,0.6,0.4c-3-0.2-5.8,2-9,0.7
	c0.3,0.2,0.6,0.4,0.9,0.5c0.3,0.1,0.5,0.2,0.8,0.7c-0.9,0-1.8,0.1-2.7,0c-1.7-0.2-3.5-0.5-5.2-0.9c-0.9-0.2-2,0-2.2-1.4
	c-0.1-0.3-0.9-0.6-1.4-0.6c-2.9-0.3-5.3-1.5-6.9-4.1c-0.2-0.4-0.7-0.6-1.3-1c0.6-0.9,1.2-1.7,1.8-2.7c1.8,2.6,3.6,5,7,5.4
	c-0.3-0.3-0.5-0.5-0.9-1C104.1,87.5,104.9,87.6,105.5,87.6C105.6,87.7,105.5,87.6,105.5,87.6z"/>
<path class="st0" d="M109.9,48.3c-0.2,1.3-0.4,2.7-0.7,4.1c-0.3,1.8-0.7,3.5-1.1,5.3c-0.1,0.4-0.1,0.8-0.2,1.2
	c-0.2,1.8-0.7,3.2-3,3.1c-0.4,0-0.9,0.3-1.4,0.4c-0.6-2.8,0-5.4,0.5-8.1c0.2-1.2,0.5-2.3,0.6-3.5C105.1,47.8,106.6,46.9,109.9,48.3z
	"/>
<path class="st1" d="M97.1,18.6c-0.7,0.2-1.5,0.4-2.6,0.7c0.6-0.9,1-1.3,1.3-1.8c0.6-1.2,1.1-2.5,1.8-3.6c0.8-1.2,1.7-2.3,2.7-3.2
	c0.7-0.7,1.8-1,3.1-1.6c-0.7,1.4-0.8,2.6,0.4,3.7c1-2.7,4.1-2.4,5.6-4.3c-0.6,2.5-2.1,4.2-4.1,5.5c-1.3,0.9-2.8,1.5-4.1,2.4
	c-0.7,0.5-1.3,1.1-1.9,1.7C98.5,18.3,97.8,18.5,97.1,18.6z"/>
<path class="st0" d="M50.8,46.3c1.1,5.9,2.1,11.5,3.1,17.2c-1.4,0.2-2.1-0.3-2.4-1.3c-0.8-2.2-1.6-4.5-2.2-6.7
	c-0.4-1.3-0.5-2.7-0.7-4C48.3,49.6,48.9,48,50.8,46.3z"/>
<path class="st1" d="M79.2,20.1c-0.2-0.1-0.4-0.2-0.6-0.3c-0.2-0.3-0.3-0.5-0.7-1.1c5.7-0.6,10-3.5,13.7-8.2
	c0.4,2.5,0.2,4.1-1.1,5.4c0,0,0.1-0.1,0.1-0.1c-0.9,0.8-1.9,1.5-2.7,2.4c-0.7,0.8-2.2,0.8-2.2,2.3c-1,0.2-2,0.6-3,0.5
	C81.5,20.9,80.3,20.4,79.2,20.1z"/>
<path class="st1" d="M110.7,21.6c-1,0.8-2,1.6-3,2.3c-2,0.9-4.1,1.8-6.1,2.7c-1.4,0.6-2.8,1.1-4.5,0.6c1-0.9,2-1.7,2.9-2.6
	c0.3,0.1,0.7,0.5,0.8,0.4c0.9-0.5,1.8-1,2.7-1.5c1.5-0.9,3-1.7,4.5-2.6c1.3-0.6,2.4-1.8,4.4-2.2C111.7,19.9,111.2,20.7,110.7,21.6z"
	/>
<path class="st1" d="M90.5,15.8C90.5,15.8,90.4,15.9,90.5,15.8c1.9-0.9,2.5-2.1,2.1-4.8c-0.2-1.3-0.1-2.2,1.1-2.9
	c0.5,0.3,1,0.6,1.7,1c-0.6,1.7-1.2,3.4-1.8,5.2c0.1,0.1,0.3,0.1,0.4,0.2c0.4-0.7,0.8-1.4,1.2-2.2c0.4,0.1,0.8,0.3,1.6,0.5
	c-3.1,2.9-5.7,5.8-9.9,7.4C88.4,18.5,89.4,17.2,90.5,15.8z"/>
<path class="st1" d="M91.2,91c2.7,2.9,6.3,3.8,9.8,5.7c-2.4,0.7-4.4,0.7-6.4,0c-0.9-0.3-1.7-0.8-2.6-1.2
	C89.4,94.1,89.3,93.7,91.2,91z"/>
<path class="st1" d="M97.1,18.6c0.7-0.2,1.4-0.4,2.1-0.5c0.9-0.4,1.8-0.9,2.7-1.4c0.4,1.3-1.7,1.3-1,2.5c-0.2-0.1-0.5-0.4-0.6-0.3
	c-0.5,0.4-0.9,0.8-1.3,1.2l0.1-0.1c-0.7,0.5-1.3,1-2,1.5l0.1-0.1c-1.8,1-3.6,2-5.4,3c-0.9,0.5-1.8,0.8-3,0.9
	c1.2-1.4,2.4-2.8,3.8-4.1c0.5-0.5,1.4-0.8,2-1.2C95.4,19.6,96.2,19.1,97.1,18.6z"/>
<path class="st1" d="M101.3,94.5c0.7,0.3,1.5,0.5,2.2,0.8c0.8,0.3,1.5,0.8,2.1,1.3c-6,0-9.7-3.1-12-8.5c0.2-0.3,0.6-0.8,0.9-1.2
	c0.2,0,0.4,0,0.5,0.1c0.7,0.6,1.2,1.2,1.2,2.2c0,0.4,0.5,0.9,0.8,1.3C97.6,92.7,99.4,93.7,101.3,94.5z"/>
<path class="st1" d="M101.3,94.5c-1.9-0.8-3.7-1.8-4.3-4c-0.1-0.3-0.1-0.6-0.2-1.2c1.3,0.8,3,1.2,3.2,2c0.4,1.3,1.6,1.7,2,2.9
	C101.8,94.3,101.5,94.4,101.3,94.5z"/>
<path class="st1" d="M107.9,94.5c-2.7,0-4.7-0.7-6.6-2.9c1,0.2,1.7,0.1,2,0.4c1.1,1.1,2.4,1.4,3.8,1.7
	C107.3,93.7,107.4,94,107.9,94.5z"/>
<path class="st1" d="M114.1,89.1c1.5,0.9,3.2,0.5,4.8,0.5c0.6,0,1.5-0.4,1.7,0.9c-2.4,0.7-4.5,0-6.9-0.6
	C113.9,89.5,114,89.3,114.1,89.1C114.1,89,114.1,89.1,114.1,89.1z"/>
<path class="st1" d="M100.7,19.5c-0.3,0.6-0.6,1.1-0.9,1.7c0,0,0.1-0.1,0.1-0.1c-1,0.6-2.1,1.2-3.6,2.2c0.4-0.9,0.6-1.3,0.8-1.7
	L97,21.6c0.7-0.5,1.3-1,2-1.5l-0.1,0.1C99.5,19.9,100.1,19.7,100.7,19.5z"/>
<path d="M103.6,23.4c-0.9,0.5-1.8,1.1-2.7,1.5c-0.2,0.1-0.5-0.2-0.8-0.4c0,0,0,0,0,0C101.2,24.2,102.4,23.8,103.6,23.4z"/>
<path class="st1" d="M109.3,96.1c-0.7,0.1-1.3,0.1-2,0.2c0-0.2,0-0.4,0-0.6c0.7,0,1.4-0.1,2.1-0.1C109.3,95.7,109.3,95.9,109.3,96.1
	z"/>
<path class="st2" d="M66.4,14.2c-0.9,0-1.8,0-2.8,0c0-0.1,0-0.2,0-0.3c0.9,0,1.8,0,2.8,0C66.4,14,66.4,14.1,66.4,14.2z"/>
<path class="st2" d="M72.3,14.4c0.8,0,1.6,0,2.4,0c0,0.1,0,0.2,0,0.3c-0.8,0-1.6,0-2.4,0C72.3,14.6,72.3,14.5,72.3,14.4z"/>
<path d="M100.7,19.5c-0.6,0.2-1.2,0.5-1.8,0.7c0.4-0.4,0.9-0.9,1.3-1.2c0.1-0.1,0.4,0.2,0.6,0.3C100.8,19.3,100.7,19.4,100.7,19.5z"
	/>
<path class="st2" d="M50,93.6c-0.5,0.4-1,0.8-1.4,1.2c-0.1-0.1-0.1-0.2-0.2-0.2c0.4-0.5,0.9-0.9,1.3-1.4
	C49.8,93.3,49.9,93.5,50,93.6z"/>
<path class="st1" d="M123.1,18.7c-0.4,0.3-0.8,0.6-1.1,0.9c-0.1-0.1-0.2-0.2-0.3-0.3c0.4-0.3,0.7-0.7,1.1-1
	C122.8,18.5,123,18.6,123.1,18.7z"/>
<path d="M97.6,49.8c-1.6,1-3,1.7-4.2,2.5c-2.3,1.6-4.4,0.9-6.4-0.4c-0.2-0.1-0.3-0.3-0.7-0.8c0.9,0,1.5,0.1,2.2,0.1
	c0.1-0.7,0.3-1.4,0.5-2.4c-1.3,0.4-2.4,0.7-3.7,1c-0.3-0.3-0.6-0.8-1.1-1.3c-1.3,2.2-2,4.2-1.7,6.7c0.4,2.9,0.5,5.8,0.8,9.1
	c-0.5-0.5-1-0.7-1.1-1.1c-0.3-1.2-0.4-2.4-0.6-3.5c-0.1-0.6,0-1.3-0.1-1.9c-1.1-4.6,0.9-8.6,2.7-12.6c0.5-1.2,1.6-1.9,3.1-2.7
	c-0.2,0.8-0.4,1.3-0.6,2c0.8,0,1.6,0.1,2.4,0c1-0.2,2-0.6,2.9-1.1c2.3-1.3,4.7-1.3,7.2-1c1.6,0.2,2.6,1.4,3.7,2.8
	c-0.9,0.3-1.6,0.6-2.3,0c-3.8-2.9-7-0.9-10.5,1C92.6,47.4,94.9,48.5,97.6,49.8z M92.8,49.6c0,0.6,0,1,0,1.6c0.6-0.3,1.1-0.5,2.1-0.8
	C93.9,50,93.4,49.8,92.8,49.6z"/>
<path d="M72,48.1c-1.3-0.2-2.5-0.4-3.8-0.6c-0.1,0.6-0.2,1.1-0.3,1.7c1,0.1,1.9,0.2,2.9,0.3c-2.2,2.6-7.8,2.3-10.2-0.7
	c1,0.2,1.7,0.3,2.7,0.4c-0.1-0.4-0.2-0.8-0.3-1.1c-3.2,0.6-3.2,0.6-4.7-1.1c0.6-0.2,1.1-0.4,1.6-0.5c1.1-0.3,2.3-0.5,3.4-0.9
	c3.1-1,5.9-0.1,8.6,1.3c0.1,0.1,0.2,0.3,0.2,0.4C72,47.4,72,47.5,72,48.1z"/>
<path d="M74.6,45.6c-1,1.2-2,1.1-3.2,0.4c-1.9-1.1-3.8-2.1-5.7-3c-2.6-1.2-5.2-1.9-8.1-0.6c-1,0.5-2.3,0.6-3.3-0.9
	c2-0.5,3.9-1.4,5.7-1.4c2.3,0.1,4.7,0.8,7,1.4c1.6,0.4,3.2,1.1,4.7,1.6C73,43.7,74,44.5,74.6,45.6z"/>
<path d="M81.8,67.2c0.9,0.5,1.5,0.9,2.3,1.3c0.1,0.6-0.1,1.1-0.9,1c-1.1-0.1-2-0.1-3.1,0.6c-0.7,0.5-2-0.1-3,0
	c-1.2,0-1.7-0.7-2.2-1.6c-0.7-1.4-2.2-0.5-3.1-1.2c-0.3-0.8-0.2-1.6,0.7-2c0.9-0.4,1.3,0.3,1.7,0.9c0.3,0.4,0.6,0.9,1,1.4
	c0.8,0.9,1.5,2.3,3,0.9c0.1-0.1,0.3-0.1,0.4-0.1C80.1,69.1,81,68,81.8,67.2z"/>
<path d="M70.1,77c0.3-0.3,0.5-0.8,0.9-0.9c2-0.5,3.8-1.1,5.9-0.1c1.3,0.6,3.1,0.4,4.6,0.4c1.3,0,2.5,0.2,3.6,1.3
	c-0.4,0.2-0.6,0.4-0.9,0.4c-1.6-0.1-3.1-0.3-4.7-0.3c-1.3,0-2.5-0.1-3.7-0.6c-1.1-0.4-2.3-0.3-3.5-0.2c-0.7,0-1.3,0.3-2,0.5
	C70.3,77.3,70.2,77.2,70.1,77z"/>
<path d="M79.8,80c-2,1.5-3.8,0.5-5.7-0.3C76,78.7,77.9,80,79.8,80z"/>
<path d="M39.3,46.3c3-3.1,4.1-7.6,7-10.7C44.3,39.4,42.7,43.5,39.3,46.3z"/>
<path d="M25.6,76.9c4.6,1,8.6-0.8,12.8-2.3c-1.8,1.4-4,2-6.2,2.5C30,77.6,27.8,78.4,25.6,76.9z"/>
<path d="M39.1,55.6c1.7-2.4,3.3-4.8,5-7.2c0-0.1,0.3,0,0.4,0C44.1,50.3,41.7,53.7,39.1,55.6z"/>
<path d="M64.3,18.8c-2.2,0.2-4.4,0.4-6.6,0.7c-0.5,0.1-1,0.7-1.4,1.1c-0.3,0.3-0.6,0.6-1.1,1.1c-0.4-1.2,0.3-1.9,0.9-2.1
	C58.7,18.5,61.3,17.4,64.3,18.8L64.3,18.8z"/>
<path d="M64.2,18.8c1.6-0.5,2.8,0.4,4,1.1c1.1,0.7,2.1,1.6,3,2.5C68.9,21.2,66.6,20,64.2,18.8C64.3,18.8,64.2,18.8,64.2,18.8z"/>
<path d="M36.4,69.7c1.5-1.2,3.1-2.3,4.6-3.5c0.1,0.1,0.2,0.3,0.3,0.4c-1.5,1.1-3,2.3-4.5,3.4C36.6,69.9,36.5,69.8,36.4,69.7z"/>
<path d="M61.8,25.8c-1.6-0.2-2-1.7-3.6-2.4C59.6,23.3,60.7,24.2,61.8,25.8z"/>
<path d="M51.9,24.6c0.2,0.1,0.4,0.1,0.6,0.3c0.7,0.7,1.3,1.4,1.8,2.3c-0.9-0.7-1.8-1.4-2.8-2.2C51.6,25,51.7,24.8,51.9,24.6z"/>
<path d="M32,73.1c0.3-1.3,1.4-1.5,2.5-1.8C33.6,71.9,32.8,72.5,32,73.1C31.9,73,32,73.1,32,73.1z"/>
<path d="M35.8,49.5c0.5-0.4,1-0.9,1.5-1.3c0.1,0.1,0.2,0.2,0.2,0.3c-0.5,0.5-1,0.9-1.5,1.4C36,49.7,35.9,49.6,35.8,49.5z"/>
<path d="M32.3,52.8c0.6-0.7,1.1-1.3,1.7-2c0.1,0.2,0.3,0.3,0.4,0.5C33.7,51.8,33,52.3,32.3,52.8L32.3,52.8z"/>
<path d="M32.2,52.7c-0.6,0.6-1.2,1.3-1.8,1.9C30.7,53.6,31.2,52.9,32.2,52.7C32.3,52.8,32.2,52.7,32.2,52.7z"/>
<path d="M29.3,74.3c0.9-0.4,1.8-0.8,2.7-1.2c0,0-0.1,0,0,0C31,73.4,30.1,73.8,29.3,74.3L29.3,74.3z"/>
<path d="M34.4,83.9c-0.5,0.3-1.1,0.6-1.6,0.9c-0.1-0.1-0.1-0.2-0.2-0.3c0.5-0.3,1.1-0.6,1.6-1C34.3,83.7,34.3,83.8,34.4,83.9z"/>
<path d="M40.7,79.1c0.4-0.3,0.8-0.5,1.2-0.8c0.1,0.1,0.1,0.2,0.2,0.3c-0.4,0.3-0.8,0.5-1.2,0.8C40.9,79.3,40.8,79.2,40.7,79.1z"/>
<path d="M29.2,74.2c0.1,1.1-0.9,1-1.4,1.4c-0.1-0.1-0.2-0.3-0.3-0.4C28.2,74.9,28.7,74.6,29.2,74.2C29.3,74.3,29.2,74.2,29.2,74.2z"
	/>
<path d="M29.8,64.7c-0.2,0.3-0.5,0.6-0.7,0.9c-0.1-0.1-0.1-0.1-0.2-0.2c0.2-0.3,0.5-0.6,0.7-0.8C29.6,64.6,29.7,64.6,29.8,64.7z"/>
<path d="M57.8,28.7c0.4,0.2,0.8,0.4,1.2,0.6c0,0.1,0,0.1-0.1,0.2c-0.5-0.1-0.9-0.3-1.4-0.4C57.6,29,57.7,28.9,57.8,28.7z"/>
<path d="M107.9,69.4c0.1,0.8,0.2,1.4,0.3,2C107.4,70.9,106.9,70.4,107.9,69.4z"/>
<path d="M111.6,75.1c0.2,0.2,0.5,0.4,0.7,0.6c0,0-0.1,0.1-0.1,0.1c-0.3-0.2-0.5-0.4-0.8-0.6C111.5,75.2,111.5,75.1,111.6,75.1z"/>
<path class="st1" d="M110.7,21.6c0.5-0.9,1-1.7,1.8-2.9c-2,0.4-3.1,1.6-4.4,2.2c0.1-0.2,0.1-0.5,0.2-0.7c1.7-1.3,3.4-2.6,5.1-3.9
	C113.4,18.6,112.3,20.6,110.7,21.6z"/>
<path d="M105.5,20.4c0-0.3-0.2-0.7,0-0.9c0.8-1.4,1.6-2.8,2.7-4.7c0,0.8,0.1,1.3,0,1.5C107.4,17.7,106.4,19,105.5,20.4L105.5,20.4z"
	/>
<path d="M105.5,20.4c-0.7,0.5-1.3,1.1-2.1,1.5c-0.4,0.2-1,0.2-1.5,0.3c0,0,0,0,0,0c0.7-0.5,1.3-1,2.1-1.4
	C104.5,20.6,105,20.5,105.5,20.4C105.5,20.4,105.5,20.4,105.5,20.4z"/>
<path class="st1" d="M109.5,25.9c0.4-0.4,0.7-0.9,1.1-1.2c2.3-1.8,4.5-3.7,5.7-7.1c0.2,0.9,0.5,1.3,0.4,1.4
	C114.9,21.9,112.9,24.6,109.5,25.9C109.5,25.8,109.5,25.9,109.5,25.9z"/>
<path class="st1" d="M99,20.1c-0.7,0.5-1.3,1-2,1.5C97.7,21.1,98.3,20.6,99,20.1z"/>
<path class="st2" d="M92.8,49.6c0.6,0.2,1.1,0.4,2.1,0.8c-0.9,0.4-1.4,0.6-2.1,0.8C92.8,50.6,92.8,50.1,92.8,49.6z"/>
</svg>
