<?xml version="1.0" encoding="utf-8"?>
<!-- Generator: Adobe Illustrator 16.0.4, SVG Export Plug-In . SVG Version: 6.00 Build 0)  -->
<!DOCTYPE svg PUBLIC "-//W3C//DTD SVG 1.1//EN" "http://www.w3.org/Graphics/SVG/1.1/DTD/svg11.dtd">
<svg version="1.1" id="Layer_1" xmlns="http://www.w3.org/2000/svg" xmlns:xlink="http://www.w3.org/1999/xlink" x="0px" y="0px"
	 width="326px" height="640.5px" viewBox="159.5 0 326 640.5" enable-background="new 159.5 0 326 640.5" xml:space="preserve">
<path d="M6.699,394.9c-0.447-0.264-0.894-0.528-1.341-0.792c0.079-0.14,0.158-0.28,0.237-0.42c0.452,0.255,0.903,0.51,1.355,0.766
	C6.866,394.602,6.782,394.751,6.699,394.9z"/>
<path d="M3.747,478.971c0.228-0.463,0.456-0.925,0.683-1.387c0.098,0.039,0.196,0.079,0.293,0.118
	c-0.197,0.521-0.394,1.04-0.59,1.56C4.004,479.164,3.875,479.067,3.747,478.971z"/>
<path fill="#414042" d="M321.996,600.303c0.165,1.999,0.142,3.725,0.476,5.379c0.771,3.825,2.578,7.238,4.442,10.639
	c2.338,4.264,4.463,8.642,6.752,12.933c0.72,1.351,0.286,2.59-0.118,3.806c-0.152,0.462-0.849,0.847-1.381,1.06
	c-2.105,0.84-4.321,0.741-6.411,0.14c-3.868-1.115-7.744-2.281-11.469-3.792c-2.611-1.06-4.55-3.126-5.848-5.733
	c-1.48-2.976-2.984-5.949-4.637-8.833c-2.348-4.096-5.855-7.157-9.414-10.163c-1.115-0.942-2.162-2.002-3.075-3.14
	c-1.552-1.929-3.018-3.933-4.429-5.967c-0.593-0.857-0.954-1.877-1.547-3.078c0.966-0.047,1.548-0.075,2.236-0.108
	c2.391,7.129,7.063,12.123,13.564,15.437c0.164-0.129,0.329-0.257,0.494-0.385c-0.308-0.435-0.573-0.909-0.934-1.295
	c-3.173-3.384-6.761-6.401-9.232-10.404c-0.56-0.909-1.027-1.875-1.734-3.179c3.086-0.188,5.821-0.326,8.492,0.405
	c2.839,0.779,5.563,1.853,7.99,3.611c2.52,1.824,5.458,2.559,8.505,2.734c1.768,0.104,3.553-0.113,5.33-0.159
	C320.65,600.193,321.252,600.264,321.996,600.303z"/>
<path d="M239.455,315.315c-0.193-0.239-0.486-0.448-0.565-0.72c-1.316-4.44-2.615-8.893-3.414-13.458
	c-0.347-1.985-0.269-4.009,0.558-5.939c0.521-1.213,0.846-2.488,1.072-3.799c0.82-4.733,1.733-9.45,2.517-14.188
	c0.351-2.123,0.478-4.281,0.703-6.392c-0.682-0.495-1.327-0.2-1.914-0.296c-1.441-0.236-2.018-0.88-1.563-2.186
	c0.451-1.292,0.864-2.708,2.246-3.404c1.233-0.624,1.477-1.692,1.431-2.92c-0.079-2.086-0.168-4.17-0.232-6.256
	c-0.092-3.034,0.586-6.007,0.695-9.036c0.119-3.319,0.524-6.64,0.244-9.955c-0.319-3.758,0.243-7.458,0.757-11.119
	c0.85-6.057,1.913-12.084,2.681-18.161c0.526-4.159,1.11-8.31,1.074-12.493c-0.056-6.43-0.044-12.876-1.301-19.231
	c-0.406-2.054-0.997-4.061-1.43-6.111c-1.328-6.295-2.116-12.694-3.651-18.947c-0.683-2.779-1.438-5.54-2.134-8.316
	c-0.892-3.561-0.644-7.098,0.61-10.502c0.559-1.518,1.828-2.727,3.013-3.797c1.842-1.663,3.526-3.446,5.158-5.304
	c0.652-0.743,1.566-1.253,2.357-1.875c5.353-4.219,10.572-8.623,16.1-12.6c4.028-2.897,7.132-6.605,10.407-10.199
	c0.349-0.383,0.955-0.786,0.683-1.355c-0.298-0.625-1.04-0.624-1.658-0.585c-1.545,0.096-3.087,0.237-4.628,0.374
	c-0.376,0.034-0.87,0.35-1.107,0.045c-1.267-1.635-2.463-0.422-3.611,0.084c-1.397,0.618-2.785,1.18-4.284,1.545
	c-1.455,0.355-2.733,0.31-4.012-0.476c-0.371-0.228-0.909-0.157-0.938-0.819c-0.03-0.686,0.109-1.25,0.776-1.535
	c0.723-0.309,1.334-0.759,1.962-1.226c2.089-1.551,2.766-3.622,2.505-6.252c-0.915,0.07-1.123,0.854-1.496,1.317
	c-2.642,3.288-5.891,3.682-9.586,2.498c-0.615-0.197-1.209-0.48-1.242-1.213c-0.028-0.653,0.583-0.863,1.041-1.128
	c1.072-0.625,2.153-1.232,3.244-1.825c0.468-0.254,1.023-0.393,1.149-1.138c-0.899-0.5-1.852-0.557-2.86-0.304
	c-2.075,0.519-4.06,0.212-5.758-1.049c-0.85-0.632-1.77-0.394-2.775-0.696c0.405-0.837-0.634-1.688-0.09-2.366
	c0.583-0.724,1.609-0.242,2.438-0.209c3.316,0.127,4.919-2.076,6.628-4.852c-3.551,0.663-5.878-1.495-8.537-2.695
	c-0.889-0.402-2.15-1.039-1.697-2.125c0.358-0.858,1.65-1.244,2.752-1.254c0.676-0.007,1.353,0.239,2.207,0.022
	c-1.666-1.374-2.865-2.932-3.415-4.954c-0.178-0.652-0.332-1.246,0.164-1.724c0.56-0.54,1.153-0.164,1.691,0.159
	c0.4,0.24,0.774,0.523,1.182,0.746c2.025,1.108,4.066,0.923,5.833-0.573c2.427-2.052,4.83-4.131,7.238-6.207
	c1.785-1.537,3.091-3.487,4.386-5.406c0.644-0.955,1.192-1.999,1.905-2.911c2.814-3.6,4.145-7.958,6.17-11.957
	c1.892-3.734,3.595-7.564,5.98-11.034c0.929-1.351,1.396-2.923,1.867-4.488c1.051-3.485,2.081-6.971,4.198-10.028
	c1.085-1.567,2.432-2.746,4.011-3.789c4.411-2.914,9.281-4.139,14.497-4.367c4.5-0.197,8.993-0.521,13.501-0.523
	c3.501-0.002,6.848,0.778,9.765,2.635c2.61,1.661,4.957,3.798,6.538,6.521c2.831,4.871,4.669,10.091,5.424,15.721
	c0.718,5.339,2.271,10.428,5.09,15.111c1.819,3.022,1.693,3.098-1.7,3.673c0.435,2.321,2.252,3.648,3.703,5.219
	c0.576,0.625,1.299,1.115,1.855,1.753c1.187,1.357,0.962,2.082-0.758,2.652c-0.292,0.097-0.606,0.122-1.059,0.207
	c0.976,2.075,2.939,2.893,4.642,4c0.321,0.208,0.745,0.273,1.035,0.51c0.467,0.381,0.71,0.844,0.024,1.298
	c-0.941,0.625-1.669,1.565-3.035,1.853c0.835,1.014,1.664,1.494,2.82,1.454c0.448-0.017,0.908,0.148,1.356,0.255
	c0.644,0.152,1.101,0.439,1.201,1.208c0.105,0.793-0.082,1.419-0.764,1.782c-1.018,0.542-2.083,0.994-3.237,1.536
	c1.34,1.296,2.933,1.869,4.536,2.41c0.513,0.173,1.072,0.228,1.562,0.445c1.081,0.478,1.178,1.141,0.299,1.945
	c-0.515,0.472-1.1,0.854-1.802,1.025c-0.897,0.221-1.774,0.5-2.569,1.229c2.374,1.603,5.251,1.314,7.672,2.574
	c0.117,1.502-0.772,2.6-1.87,3.662c-3,2.903-5.933,5.864-9.992,7.341c-0.77,0.28-1.602,0.622-2.169,1.372
	c0.303,0.867,1.157,0.931,1.835,1.21c4.242,1.744,8.663,2.814,13.166,3.672c4.875,0.929,9.769,1.583,14.719,1.873
	c2.161,0.126,3.681,1.497,4.471,3.269c1.357,3.045,3.576,5.443,5.562,7.987c2.05,2.625,3.707,5.495,5.661,8.176
	c5.153,7.073,9.729,14.538,14.305,21.993c1.579,2.573,3.043,5.232,4.369,7.945c3.34,6.832,7.627,13.138,11.036,19.917
	c2.146,4.265,4.787,8.116,7.899,11.693c1.342,1.541,1.944,3.519,2.96,5.258c1.674,2.866,3.534,5.613,5.001,8.617
	c1.528,3.126,1.864,6.2,0.797,9.444c-1.615,4.908-3.236,9.822-4.755,14.753c-1.886,6.13-4.219,12.132-5.536,18.447
	c-0.389,1.865-1.22,3.661-1.798,5.509c-1.18,3.768-1.486,7.768-3.127,11.406c-0.6,1.332-1.088,2.712-1.669,4.054
	c-0.561,1.305-0.695,2.532,0.404,3.643c0.962,0.971,1.013,2.298,1.048,3.487c0.062,2.023-0.485,3.004-2.761,2.239
	c-0.433-0.146-0.859-0.309-1.418-0.511c-0.921,2-1.105,4.173-1.595,6.227c-0.662,2.777-1.111,5.619-1.373,8.49
	c-0.255,2.771-0.861,5.509-1.29,8.266c-0.107,0.687-0.234,1.396-0.169,2.077c0.316,3.312-0.639,6.216-2.446,8.976
	c-2.03,3.103-3.656,6.447-5.349,9.745c-0.578,1.124-1.454,2.007-2.358,2.845c-0.883,0.819-1.97,1.403-3.178,0.872
	c-0.829-0.366-1.176,0.053-1.496,0.576c-0.85,1.384-2.311,2.057-3.52,2.99c-1.631,1.26-2.722,0.752-3.107-1.281
	c-0.289-1.522-0.495-3.065-0.634-4.609c-0.139-1.526,0.018-3.054,0.422-4.789c-1.332,0.665-2.411,1.235-3.52,1.743
	c-0.561,0.257-1.161,0.504-1.764,0.572c-1.609,0.183-2.249-0.54-1.958-2.144c0.408-2.245,1.946-3.85,3.312-5.507
	c1.281-1.556,2.533-3.111,3.66-4.79c1.227-1.823,1.716-3.851,1.744-5.931c0.05-3.718-0.383-7.417-0.999-11.127
	c-1.221-0.048-1.575,0.981-2.1,1.651c-1.767,2.255-3.412,4.606-5.159,6.878c-1.478,1.924-3.009,3.75-5.873,3.466
	c-0.89-0.087-1.265,0.741-1.236,1.639c0.054,1.707,0.121,3.415,0.126,5.123c0.016,5.428,0.035,10.856-0.018,16.285
	c-0.013,1.259,0.193,2.481,0.397,3.69c0.684,4.025,0.195,8.035,0.005,12.049c-0.101,2.108,0.141,4.189,0.309,6.275
	c0.548,6.808,0.679,13.636,0.505,20.448c-0.081,3.22-0.16,6.466-0.425,9.698c-0.36,4.382-0.231,8.809-0.667,13.181
	c-0.583,5.849-0.561,11.723-1.054,17.578c-0.545,6.491-1.636,12.919-1.952,19.433c-0.16,3.318-0.638,6.628-1.119,9.922
	c-0.59,4.038-0.206,8.04,0.265,12.037c0.417,3.542,0.904,7.041,0.641,10.656c-0.133,1.806-0.228,3.674-0.181,5.521
	c0.059,2.27-0.451,4.408-1.241,6.566c-1.624,4.434-3.808,8.649-5.271,13.123c-1.31,4.006-2.754,8.002-3.401,12.202
	c-0.035,0.229-0.095,0.456-0.163,0.677c-2.253,7.308-4.401,14.666-7.445,21.686c-2.804,6.468-4.89,13.218-7.824,19.618
	c-2.812,6.13-5.202,12.435-7.508,18.748c-2.927,8.004-6.814,15.601-9.597,23.647c-1.263,3.655-2.448,7.341-3.529,11.052
	c-0.524,1.797-0.379,3.693-0.112,5.549c0.607,4.229-0.242,8.111-2.759,11.594c-0.376,0.521-0.49,1.066-0.481,1.732
	c0.043,3.071,0.723,5.97,1.998,8.766c1.129,2.47,2.621,4.73,3.879,7.125c1.908,3.632,3.917,7.211,5.856,10.824
	c0.606,1.134,0.701,2.394,0.5,3.637c-0.267,1.654-1.138,2.815-2.845,3.326c-1.898,0.569-3.808,0.759-5.748,0.412
	c-4.993-0.891-9.874-2.302-14.379-4.578c-3.611-1.826-6.132-4.983-7.568-8.824c-2.059-5.506-5.236-10.106-9.941-13.739
	c-3.812-2.944-7.082-6.482-9.725-10.561c-0.948-1.463-1.326-3.141-1.877-4.737c-0.397-1.148-0.834-2.044-1.896-2.707
	c-1.753-1.094-2.21-2.891-2.289-4.824c-0.034-0.847,0.215-1.53,1.085-1.852c1.161-0.428,2.21-1.112,3.449-1.373
	c2.863-0.604,4.911-2.191,6.65-4.637c2.464-3.465,3.956-7.336,5.678-11.138c2.332-5.148,4.964-10.179,6.364-15.689
	c0.765-3.014,2.351-5.688,3.103-8.726c1.841-7.428,3.692-14.855,5.621-22.263c2.067-7.938,3.362-16.073,5.326-24.04
	c2.203-8.937,4.088-17.967,7.23-26.661c1.21-3.342,2.003-6.834,3.104-10.219c1.514-4.649,3.305-9.195,6.09-13.256
	c0.649-0.947,0.743-1.494,0.045-2.541c-2.736-4.106-3.922-8.891-5.482-13.497c-1.488-4.398-2.941-8.812-4.262-13.263
	c-1.452-4.894-2.995-9.76-4.096-14.758c-0.647-2.94-1.885-5.735-2.299-8.755c-0.965-7.044-2.796-13.922-4.073-20.908
	c-0.972-5.304-1.648-10.649-2.481-15.97c-0.826-5.28-1.404-10.569-1.718-15.896c-0.004-0.077-0.008-0.156-0.022-0.231
	c-0.181-0.912-0.132-1.974-0.602-2.701c-0.614-0.951-1.702-0.051-2.587-0.105c-2.566-0.16-5.068-0.509-7.567-1.17
	c-4.27-1.127-8.599-2.027-12.898-3.052c-5.797-1.382-11.231-3.556-15.918-7.359c-3.494-2.835-7.138-5.5-9.949-9.088
	c-0.364-0.464-0.69-1.051-1.416-1.186c-0.13,0.172-0.261,0.347-0.391,0.521c-0.362,0.48,0.051,1.406-0.728,1.576
	c-0.837,0.182-1.7,0.04-2.405-0.562c-0.53-0.453-1.092-0.875-1.586-1.366c-0.488-0.485-0.909-1.038-1.321-1.517
	c-0.493,0.043-0.574,0.348-0.594,0.65c-0.198,2.909-1.808,5.247-3.178,7.657c-0.732,1.288-1.564,1.29-2.57,0.115
	c-0.7-0.817-1.321-1.73-1.821-2.684c-0.623-1.19-0.982-2.413-2.611-2.822c-0.769-0.192-1.232-1.336-1.2-2.354
	c1.663,1.052,1.667,1.022,2.546-0.539c0.295-0.522,0.253-1.022,0.301-1.554c0.107-1.195-0.303-2.302-0.553-3.431
	c-0.597-2.685-0.655-5.357-0.074-8.054c0.326-1.512,0.66-3.029,0.624-4.599c-0.014-0.583-0.197-1.282,0.571-1.612
	c1.021,1.474,1.359,2.978,0.592,5.213c-1.003,2.922-0.851,5.815-0.248,8.718c0.446,2.147,0.688,4.259,0.441,6.453
	c-0.269,2.396,0.711,4.338,2.444,5.962c3.465-3.496,4.593-9.322,2.057-13.966c-0.776-1.419-1.717-2.863-2.015-4.407
	c-0.62-3.205-0.069-6.487-0.096-9.737c-0.002-0.421,0.117-1.034,0.677-1.066c0.72-0.042,0.874,0.63,0.876,1.146
	c0.008,1.081-0.171,2.164-0.175,3.244c-0.008,2.611-0.494,5.259,0.718,7.776c0.872,1.812,1.624,3.683,2.437,5.523
	c0.727,1.641,1.722,3.115,2.87,4.485c0.532,0.635,1.076,1.297,2.156,1.461c0.181-1.092,0.29-2.049-0.054-3.023
	c-0.413-1.168-0.773-2.356-1.236-3.503c-1.718-4.246-2.278-8.5-0.265-12.82c0.981-2.106,1.926-4.229,2.932-6.325
	c0.562-1.171,1.27-2.269,0.929-3.682c-0.064-0.267,0.044-0.799,0.875-0.783c0.462,1.867,2.115,3.247,2.619,5.207
	c0.502,1.955,1.395,3.77,1.831,5.75c0.347,1.575,0.849,3.141,1.776,4.521c0.306,0.456,0.58,0.917,1.058,1.209
	c0.875,0.534,1.563,0.228,1.563-0.805c0-0.918-0.155-1.852-0.352-2.755c-0.905-4.157-2.018-8.265-1.889-12.596
	c0.033-1.093-0.25-2.272-0.646-3.396c-1.515-4.288-4.067-7.978-6.501-11.745c-0.442-0.685-0.977-0.506-1.602-0.516
	c-3.617-0.057-7.247,0.591-10.839-0.603c-3.158-1.05-3.72-0.571-4.044,2.703c-0.32,3.234-0.581,6.479-1.331,9.651
	c-0.499,2.109-1.009,4.2-1.229,6.375c-0.217,2.141-0.447,4.332-1.36,6.329c-0.913,1.999-1.14,4.134-0.581,6.143
	C238.443,306.1,238.358,310.801,239.455,315.315z M302.282,22.949c-5.025-4.32-7.001-9.783-6.03-16.333
	c-0.968-0.119-1.722,0.339-2.525,0.562c-0.819,0.226-1.255,0.82-1.491,1.631c-0.819,2.836-0.983,5.648,0.243,8.418
	c0.544,1.229,1.125,2.441,1.703,3.69c-0.854,0.213-1.175-0.312-1.383-0.763c-1.456-3.156-3.267-6.267-1.616-9.936
	c0.094-0.208,0.114-0.45,0.157-0.679c0.173-0.921-0.355-1.121-1.079-0.936c-0.77,0.197-1.399,0.587-1.65,1.459
	c-0.212,0.741-0.528,1.459-0.864,2.156c-1.802,3.732-1.801,7.435,0.044,11.158c0.613,1.239,1.449,2.189,2.763,2.667
	c1.198,0.435,2.176,1.163,2.974,2.149c0.308,0.381,0.656,0.709,1.43,0.932c-0.475-1.328-0.814-2.323-1.385-3.261
	c-0.414-0.681-0.416-1.569,0.242-2.115c0.673-0.562,1.19-0.04,1.761,0.473c2.836,2.549,5.853,4.9,8.434,7.977
	c-0.158-2.508-1.203-4.539-1.864-6.665c-0.31-1.002-0.186-1.783,0.065-2.659c2.34,3.616,6.155,5.785,8.825,9.112
	c-0.153-1.05-0.433-2.004-0.742-2.948c-1.015-3.091-2.146-6.179-3.866-8.91c-1.144-1.817-1.902-3.679-2.488-5.681
	c-0.7-2.39-1.193-4.82-1.061-7.312c0.066-1.256-0.471-1.472-1.498-1.324c-0.384,0.055-0.771,0.065-1.157,0.108
	c-2.519,0.278-3.284,1.097-2.882,3.625c0.23,1.457,0.244,2.921,0.457,4.374c0.183,1.254,0.522,2.399,1.179,3.478
	C300.096,19.237,301.182,21.096,302.282,22.949z M335.391,79.901c0.869,0.066,1.58,0.751,2.634,0.245
	c1.449-0.696,1.506-0.492,1.552,1.225c0.024,0.976-0.374,1.782-0.647,2.639c-0.329,1.021-0.828,1.984-1.17,3.002
	c-0.538,1.603-0.314,2.164,1.095,3.011c0.387,0.233,0.806,0.417,1.212,0.624c-0.436,0.081-0.91-0.208-1.323,0.14
	c1.257,1.125,1.257,1.125,2.682,0.73c-0.262-0.646-1.22-0.216-1.436-0.934c1.897,0.215,3.821,0.814,5.619-0.416
	c0.169-0.117,0.456-0.097,0.687-0.085c0.84,0.044,1.524-0.298,2.07-0.884c0.539-0.576,1.797-0.961,1.302-1.872
	c-0.394-0.726-1.4-0.055-2.121,0.147c-3.254,0.913-4.779,0.553-7.146-1.822c1.462,1.014,3.097,0.977,4.709,0.797
	c1.995-0.221,4.011-0.448,5.914-1.126c1.852-0.66,3.265-1.917,4.324-3.491c-0.116-0.213-0.141-0.321-0.188-0.333
	c-0.298-0.077-0.601-0.148-0.906-0.193c-2.794-0.41-5.343-1.523-7.828-2.784c-1.121-0.568-1.113-1.376-0.092-2.078
	c0.41-0.281,0.863-0.308,1.318-0.395c0.979-0.189,1.973-0.353,2.931-1.083c-0.722-0.547-1.366-1.093-2.067-1.554
	c-1.298-0.848-2.63-1.641-3.945-2.462c-0.56-0.35-1.047-0.78-0.685-1.508c0.345-0.696,0.939-0.345,1.427-0.192
	c1.502,0.471,2.843,0.207,4.359-0.911c-1.35,0.002-2.185-0.485-2.988-1.136c-0.841-0.682-1.727-1.356-2.696-1.816
	c-1.193-0.566-1.359-1.42-1.279-2.716c1.599,0.405,3.035,0.569,4.664-0.104c-2.057-1.557-3.936-3.008-5.848-4.416
	c-1.007-0.741-1.942-1.547-2.727-2.519c-0.286-0.356-0.587-0.732-0.255-1.246c0.376-0.582,0.818-0.567,1.396-0.298
	c0.896,0.418,1.834,0.679,3.248,0.323c-2.758-2.86-4.945-5.769-5.399-9.675c0.729,0.146,1.145,0.493,1.513,0.901
	c0.378,0.416,0.835,0.444,1.259,0.175c0.562-0.356,0.217-0.858,0.009-1.212c-0.55-0.933-1.186-1.815-1.777-2.724
	c-1.312-2.018-1.392-4.418-1.976-6.652c-0.351-1.34-1.275-2.479-1.222-3.95c0.108-2.897-0.481-5.677-1.284-8.462
	c-1.291-4.483-3.378-8.529-6.656-11.796c-3.306-3.295-7.266-5.598-12.099-5.817c-4.368-0.199-5.319,0.801-4.752,5.106
	c0.404,3.061,0.838,6.156,2.771,8.764c0.473,0.638,0.735,1.357-0.354,2.016c-1.791-5.127-5.136-9.749-3.377-15.545
	c-1.51-0.221-2.824-0.05-4.135,0.035c-1.578,0.104-1.606,0.204-1.727,1.831c-0.122,1.662,0.545,3.197,0.718,4.819
	c0.28,2.629,1.126,5.134,2.217,7.544c0.187,0.414,0.432,1.087,0.717,1.124c1.552,0.202,1.826,1.542,2.449,2.549
	c1.464,2.367,2.863,4.777,4.321,7.148c0.787,1.279,1.643,2.515,2.702,4.128c-0.037-1.736-0.612-2.829-1.1-3.965
	c-0.51-1.194-1.052-2.34-1.208-3.715c-0.356-3.115,0.982-5.577,2.535-8.025c0.217-0.342,0.511-0.708,0.903-0.438
	c0.28,0.193,0.561,0.654,0.531,0.966c-0.056,0.601-0.313,1.187-0.517,1.769c-1.35,3.855-0.389,7.316,1.796,10.568
	c0.294,0.436,0.676,0.737,1.328,0.691c-0.124-0.717-0.268-1.321-0.33-1.933c-0.233-2.249-0.347-4.494,0.429-6.682
	c0.138-0.386,0.358-0.732,0.77-0.771c0.602-0.055,0.743,0.443,0.855,0.898c0.057,0.225,0.084,0.461,0.084,0.692
	c0.001,3.706,2.279,6.212,4.735,9.104c0.062-2.251-0.122-4.052-0.848-5.782c-0.195-0.465-0.232-0.997,0.234-1.234
	c0.622-0.315,1.008,0.167,1.267,0.676c0.138,0.273,0.203,0.583,0.299,0.878c0.703,2.165,0.922,4.413,0.846,6.654
	c-0.03,0.882,0.126,1.442,0.745,1.996c0.398,0.357,0.687,0.834,1.055,1.23c1.634,1.758,2.329,3.721,1.735,6.158
	c-0.315,1.294-0.886,2.622-0.591,4.001c3.321,0.372,3.854,1.014,3.614,4.179c-0.012,0.155-0.009,0.313-0.033,0.465
	c-0.52,3.057-0.886,6.139-1.664,9.154c-0.272,1.053-0.712,1.728-1.671,2.318c-2.698,1.66-2.884,3.371-0.8,5.71
	c0.257,0.289,0.593,0.509,0.839,0.805c0.26,0.313,0.86,0.535,0.374,1.172c-1.054-0.72-2.049-1.506-3.096-2.335
	c0.209,2.722,2.09,4.509,3.653,6.533c-0.624,0.103-0.851-0.249-1.146-0.466c-0.263-0.195-0.433-0.648-0.9-0.33
	c0.076,0.635,0.209,1.229,0.671,1.698c-0.868-0.579-1.538-1.217-1.405-2.435c0.114-1.032-0.391-1.836-1.357-2.512
	c-0.708,1.65-0.312,3.258-0.804,4.72c-0.094,0.277,0.184,0.754,0.408,1.049c1.088,1.414,2.279,2.742,3.65,3.884
	c1.099,0.914,1.862-0.157,2.646-0.64C336.594,80.834,335.318,80.444,335.391,79.901z M280.548,81.47l0.039,0.017
	c1.579-1.033,2.003-2.861,2.948-4.328c1.095-1.701,1.901-3.561,2.406-5.523c0.206-0.801,0.444-1.911-0.416-2.32
	c-1.073-0.509-1.608,0.536-2.111,1.326c-0.789,1.242-1.546,2.508-2.398,3.705c-0.331,0.464-0.411,1.546-1.458,0.948
	c-1.194-0.682-0.047-1.154,0.221-1.616c0.812-1.408,1.758-2.74,2.309-4.291c0.184-0.519,0.452-1.104,0.05-1.548
	c-1.147-1.266-1.833-2.828-2.874-4.559c-2.006,3.301-4.181,6.117-7.342,7.959c1.275-1.439,2.711-2.73,3.967-4.178
	c3.551-4.087,3.729-5.078,2.194-10.205c-0.111-0.372-0.297-0.732-0.344-1.11c-0.132-1.077-0.373-2.249,0.268-3.178
	c0.913-1.323,1.193-3.044,2.58-4.06c0.438-0.321,0.38-0.813,0.359-1.269c-0.049-1.078-0.048-2.137-0.401-3.209
	c-0.771-2.353-1.397-4.754-2.038-7.147c-0.244-0.912-0.618-1.871,0.14-3.073c0.616,1.259,1.691,1.243,2.598,1.56
	c0.952,0.333,0.744,2.003,2.189,1.803c0-0.832-0.023-1.667,0.005-2.501c0.043-1.283,0.245-1.4,1.32-0.817
	c0.455,0.246,0.797,0.759,1.585,0.559c-0.279-1.838,0.855-3.594,0.577-5.385c-0.309-1.992-0.3-4.018-0.725-5.984
	c-0.659-3.055-1.044-6.1-0.287-9.201c0.108-0.445,0.213-1.002-0.088-1.514c-0.852,0.258-1.315,0.67-1.625,1.376
	c-0.435,0.991-0.958,1.948-1.498,2.888c-1.176,2.049-1.917,4.207-2.062,6.595c-0.202,3.329-1.419,6.449-1.961,9.788
	c-1.095-0.597-1.032-1.653-1.481-2.721c-0.781,1.41-1.411,2.474-1.973,3.574c-2.992,5.856-5.636,11.874-8.922,17.6
	c-2.149,3.746-5.028,6.871-7.359,10.426c-0.178,0.271-0.426,0.419-0.753,0.471c-0.528,0.083,0.094-1.154-0.744-0.646
	c-0.462,0.281-0.875,0.64-1.313,0.96c-1.319,0.96-2.557,2.021-3.649,3.228c-1.165,1.29-2.578,1.964-4.296,1.922
	c-0.957-0.023-1.91-0.189-3.061-0.312c0.886,1.212,2.591,1.6,2.247,3.359c0.752-0.14,1.298-0.198,1.816-0.349
	c0.558-0.163,1.067-0.526,1.79-0.366c-0.7,0.791-1.512,1.163-2.444,1.318c-0.472,0.079-1.045,0.232-1.179,0.646
	c-0.215,0.666-0.113,1.25-0.86,0.245c-0.474-0.637-1.325-0.514-1.751,0.208c-0.402,0.68,0.052,1.114,0.69,1.438
	c1.417,0.721,2.964,0.929,4.495,1.11c2.28,0.27,3.111-0.344,3.901-2.564c0.066-0.185,0.098-0.492,0.756-0.205
	c-0.954,4.627-3.531,8.299-7.167,11.379c3.118,1.687,6.117-0.258,8.996,0.53c0.39-0.828,1.224-1.219,1.827-1.84
	c0.223-0.228,0.54-0.307,0.817,0.058c-0.458,1.814-2.396,2.568-3.103,4.218c-0.755,1.765-2.759,2.079-4.313,3.464
	c2.987,0.293,4.967-0.843,6.597-2.734c0.707-0.819,1.339-1.706,1.771-2.718c0.208-0.486,0.718-0.845,1.076-0.43
	c0.61,0.706,1.654,1.095,1.536,2.399c-0.313,3.462-0.897,6.761-3.854,9.085c-0.076,0.059-0.029,0.272-0.044,0.477
	c0.796,0.132,1.722,0.196,2.084-0.573c0.476-1.008,1.359-1.235,2.186-1.555c1.333-0.517,2.513-1.184,3.346-2.379
	c0.222-0.318,0.782-0.709,0.876-0.33c0.288,1.164,1.446,0.557,2.035,1.218c0.846,0.95,1.706,0.83,2.746,0.04
	c0.337-0.257,0.396-0.87,0.989-0.79c0.074,0.054,0.156,0.087,0.189,0.146c0.076,0.131,0.172,0.272,0.183,0.415
	c0.137,1.761,0.133,1.769,1.684,1.939c0.383,0.042,0.774,0.011,1.162,0.014l-0.048-0.051c2.104,1.724,3.626,1.638,5.262-0.351
	c0.61-0.742,1.133-1.556,1.685-2.324c0.849,0.505,0.125,1.462,0.986,1.988c3.021-2.728,6.085-5.431,6.21-10.037
	c-1.78,1.923-3.351,4.021-5.576,5.824c1.833-3.583,3.829-6.788,3.977-10.668c-1.69,2.821-3.974,5.14-5.919,7.711
	c-0.3,0.397-0.773,0.609-1.195,0.208c-0.443-0.421-0.142-0.783,0.204-1.163c1.247-1.367,2.451-2.772,3.68-4.156
	c1.157-1.302,1.878-2.828,2.325-4.493c0.224-0.837,0.312-1.658-0.532-2.418c-1.509,2.148-2.998,4.207-4.416,6.312
	C282.238,81.645,281.576,82.042,280.548,81.47z M396.766,257.796c3.425,3.209,7.296,4.968,11.57,5.543
	c2.45,0.33,4.91,0.486,7.298,1.195c0.348,0.104,0.771-0.043,0.988,0.391c0.242,0.485,0.519,1.135,1.159,0.739
	c0.514-0.316,0.303-1.029,0.149-1.519c-0.182-0.579-0.451-1.194-0.86-1.623c-1.214-1.269-1.029-2.683-0.563-4.129
	c0.307-0.955,0.704-1.883,1.092-2.809c0.66-1.572,1.475-3.079,1.925-4.736c1.281-4.706,2.504-9.426,3.854-14.112
	c2.593-9,5.477-17.91,8.394-26.81c0.819-2.501,1.603-5.027,2.187-7.592c0.48-2.111,0.465-4.141-0.633-6.29
	c-1.521-2.975-3.298-5.789-4.914-8.697c-1.37-2.464-2.243-5.329-4.925-6.875c-0.188-0.108-0.324-0.34-0.434-0.542
	c-1.181-2.183-2.659-4.182-3.785-6.405c-1.508-2.97-3.092-5.91-4.791-8.774c-3.201-5.394-6.317-10.836-9.119-16.444
	c-3.679-7.363-8.363-14.12-12.589-21.151c-2.351-3.91-5.161-7.544-7.729-11.326c-2.697-3.976-5.642-7.764-8.552-11.583
	c-1.358-1.784-2.758-2.339-4.773-2.522c-3.474-0.316-6.957-0.688-10.378-1.339c-4.485-0.855-8.908-2.008-13.242-3.51
	c-4.147-1.437-8.545-2.325-11.596-5.901c-0.026-0.031-0.142,0.013-0.322,0.038c-0.479,1.316-0.933,2.674-1.085,4.139
	c-0.187,1.803-0.301,1.855-2.202,1.82c-0.854-0.016-1.713,0.041-2.561-0.037c-0.99-0.09-1.477,0.31-1.959,1.192
	c-1.371,2.506-2.883,4.932-4.571,7.25c-1.959,2.689-3.888,5.395-5.974,7.991c-1.21,1.506-2.253,3.156-3.281,4.796
	c-1.049,1.67-1.664,3.521-1.521,5.512c0.174,2.385,0.099,4.775,0.544,7.158c0.769,4.122,0.829,8.329,1.155,12.502
	c0.4,5.101,0.817,10.203,1.055,15.313c0.266,5.727,0.255,11.464,0.137,17.197c-0.093,4.489,0.421,8.954,0.125,13.473
	c-0.347,5.339-1.347,10.62-1.345,15.975c0.002,4.578-1.098,9.076-0.877,13.67c0.06,1.226-0.168,2.467-0.267,3.701
	c-0.033,0.416-0.193,0.814-0.637,0.843c-0.424,0.027-0.692-0.324-0.799-0.718c-0.121-0.446-0.224-0.904-0.262-1.363
	c-0.121-1.472-0.125-2.943,0.036-4.417c0.302-2.775,0.69-5.539,0.788-8.34c0.102-2.863,0.342-5.728,0.657-8.578
	c0.58-5.25,1.188-10.519,1.027-15.784c-0.197-6.438-0.167-12.877-0.227-19.312c-0.067-7.462-0.974-14.86-1.291-22.298
	c-0.206-4.807-0.589-9.6-1.22-14.371c-0.43-3.257-1.178-6.37-2.933-9.238c-1.059-1.73-2.283-3.313-3.49-4.92
	c-2.666-3.552-5.742-6.729-9.15-9.562c-3.22-2.676-6.659-5.086-9.762-7.906c-0.81-0.736-1.625-0.98-2.46-0.226
	c-1.327,1.196-2.934,1.448-4.569,1.339c-1.849-0.124-3.065,0.659-4.1,2.075c-3.75,5.133-8.701,9.024-13.688,12.823
	c-6.346,4.833-12.945,9.333-18.539,15.093c-1.525,1.572-3.036,3.23-3.763,5.223c-1.067,2.924-1.187,6.04-0.415,9.136
	c0.955,3.831,1.929,7.658,2.75,11.519c0.87,4.095,1.643,8.214,2.324,12.344c1.005,6.104,2.925,12.029,3.138,18.296
	c0.244,7.199,0.483,14.359-0.506,21.541c-0.855,6.211-1.744,12.417-2.739,18.606c-0.678,4.225-1.185,8.454-1.016,12.739
	c0.063,1.621,0.329,3.247,0.254,4.859c-0.177,3.793-0.472,7.583-0.78,11.37c-0.222,2.725,0.154,5.417,0.292,8.123
	c0.097,1.887-0.285,3.49-2.057,4.57c-0.831,0.507-1.652,1.195-1.395,2.399c0.808,0.419,1.629,0.198,2.326,0.005
	c1.906-0.53,3.707-0.118,5.485,0.41c4.515,1.343,8.863,0.82,13.173-0.882c-0.244-0.603-0.453-1.1-0.646-1.603
	c-0.163-0.426-0.482-0.617-0.906-0.521c-2.679,0.599-4.951-1.016-7.456-1.355c-0.637-0.086-1.048-0.487-0.929-1.091
	c0.127-0.648,0.734-0.701,1.312-0.621c1.079,0.152,2.139,0.377,3.146,0.812c1.084,0.468,2.207,0.708,3.399,0.638
	c1.184-0.07,1.959-0.521,2.46-1.714c0.934-2.225,1.465-4.57,2.167-6.855c1.117-3.625,1.428-7.442,2.104-11.173
	c0.318-1.756,0.719-3.521,0.788-5.294c0.397-10.241,0.414-20.488-0.05-30.727c-0.231-5.089-0.985-10.153-0.45-15.269
	c0.628-5.999-0.659-11.72-2.626-17.342c-0.896-2.558-1.764-5.135-2.459-7.752c-1.961-7.404-4.447-14.668-5.879-22.214
	c-0.302-1.587-0.96-3.103-1.358-4.676c-0.252-1-0.531-2.113,0.896-2.797c0.314,1.498,0.498,2.859,0.896,4.154
	c0.774,2.526,1.484,5.061,1.868,7.677c0.498,3.395,1.73,6.59,2.673,9.86c1.439,4.987,3.009,9.934,4.691,14.85
	c2.213,6.47,4.64,12.818,8.495,18.513c0.83,1.227,0.865,2.625,1.255,3.947c0.114,0.383,0.008,0.779-0.414,0.978
	c-0.425,0.2-0.747-0.005-1.015-0.313c-0.578-0.663-1.008-1.474-2.023-2.142c-0.877,5.681-1.712,11.094-2.595,16.812
	c3.505-1.775,6.837-2.438,10.271-2.351c2.404,0.061,4.802,0.051,7.199-0.038c5.668-0.208,10.028,2.052,13.315,6.653
	c3.063,4.289,6.135,8.543,8.868,13.075c2.972,4.927,5.54,10.041,7.908,15.239c3.068,6.729,6.814,13.013,11.003,19.076
	c1.713,2.479,3.722,4.781,4.892,7.611c1.514,3.662,3.378,7.061,6.301,9.857c1.631,1.562,3.369,2.973,5.097,4.41
	c5.787,4.814,12.473,6.343,19.814,5.301c1.938-0.276,3.869-0.439,5.787-0.085c1.273,0.235,2.475,0.051,3.682-0.22
	c1.504-0.335,3.023-1.184,3.418-2.515c0.609-2.048,1.287-4.153,1.351-6.343c0.141-4.893-1.604-9.291-3.9-13.437
	c-2.071-3.741-3.87-7.594-5.354-11.576c-2.85-7.646-4.426-15.635-6.058-23.605c-2.006-9.806-1.504-19.572,0.344-29.331
	c0.562-2.972,1.186-5.942,1.539-8.943c0.914-7.754,2.929-15.22,5.921-22.396c1.845-4.428,3.705-8.855,5.383-13.342
	c2.891-7.731,3.936-15.746,2.916-23.995c-0.18-1.449-0.029-2.939-0.012-4.41c0.005-0.398,0.125-0.86,0.528-0.956
	c0.589-0.14,0.729,0.404,0.892,0.827c0.055,0.143,0.081,0.3,0.104,0.453c0.749,4.834,0.973,9.687,0.586,14.569
	c-0.322,4.05-1.339,7.931-2.64,11.757c-0.336,0.986-0.22,1.881,0.254,2.89c2.582,5.51,6.178,10.378,9.706,15.262
	c4.855,6.72,10.215,13.057,15.546,19.407c0.299,0.356,0.59,0.923,0.952,0.983c1.81,0.302,1.966,1.953,2.8,3.087
	c0.728,0.991-0.047,1.949,0.303,2.889c1.243,3.325,0.417,6.614-0.437,9.822c-1.569,5.908-3.272,11.773-4.637,17.741
	c-1.523,6.665-2.503,13.364-2.679,20.192c-0.1,3.834,1.146,5.108,5.086,5.073c1.089-0.01,2.171-0.062,3.251,0.115
	c0.382,0.063,0.782,0.081,1.136,0.221c0.429,0.169,0.854,0.425,0.743,1.016c-0.103,0.552-0.573,0.859-1.005,0.777
	c-2.714-0.516-5.627,0.318-8.186-1.169c-0.599-0.347-0.963-0.259-1.371,0.259C397.682,257.061,397.284,257.331,396.766,257.796z
	 M338.484,441.59c-0.465,1.371-0.951,2.443-1.777,3.418c-1.252,1.476-2.642,2.873-3.533,4.604c-1.882,3.651-3.604,7.375-4.77,11.334
	c-0.437,1.481-1.172,2.897-1.439,4.403c-0.531,2.985-1.574,5.847-2.598,8.625c-1.209,3.279-2.218,6.619-3.13,9.954
	c-1.594,5.821-2.744,11.767-3.988,17.679c-0.381,1.814-1.13,3.562-1.326,5.367c-0.449,4.153-1.818,8.098-2.465,12.207
	c-0.57,3.625-2.443,6.939-2.812,10.672c-0.213,2.152-1.134,4.177-1.713,6.264c-1.257,4.541-2.155,9.185-3.858,13.595
	c-1.751,4.539-2.961,9.289-5.119,13.666c-2.225,4.512-4.173,9.143-6.208,13.737c-1.619,3.658-3.954,6.436-8.061,7.342
	c-1.052,0.231-2.077,0.6-3.092,0.964c-2.333,0.838-2.569,2.032-0.774,3.809c0.271,0.269,0.616,0.46,0.907,0.71
	c2.275,1.967,5.065,1.85,7.751,1.699c5.522-0.309,10.557,0.9,15.258,3.864c2.559,1.614,5.414,2.54,8.512,2.86
	c2.452,0.254,4.876-0.734,7.347,0.17c0.989,0.362,2.477-0.93,2.656-1.834c0.208-1.047-0.496-2.259-1.78-2.615
	c-2.774-0.771-5.339-2.074-8.035-3.035c-1.701-0.606-3.188-1.603-4.475-2.87c-0.266-0.262-0.458-0.655-0.142-1.029
	c0.264-0.313,0.578-0.103,0.845,0.013c0.915,0.401,1.867,0.747,2.712,1.266c0.964,0.592,1.996,0.686,3.352,0.952
	c-1.82-1.83-4.595-2.286-4.913-5.13c3.68,3.562,8.176,5.127,13.093,5.688c0.34-0.451,0.345-0.965,0.211-1.379
	c-0.631-1.93-0.284-3.826,0-5.755c0.381-2.563,1.713-4.796,2.384-7.264c0.586-2.152,1.028-4.351,1.975-6.416
	c1.966-4.288,3.813-8.638,5.585-13.002c3.582-8.82,6.772-17.798,10.457-26.579c2.43-5.791,4.51-11.726,6.951-17.501
	c3.444-8.15,6.341-16.454,8.652-24.987c1.257-4.636,2.558-9.292,4.322-13.747c1.622-4.095,3.104-8.249,4.857-12.291
	c0.762-1.755,0.914-3.662,0.791-5.461c-0.203-2.991-0.731-5.967-1.781-8.833c-0.627-1.71-1.207-3.485-1.285-5.577
	c2.75,1.578,1.944,4.781,3.712,7.04c-0.043-3.807-0.922-7.119-1.17-10.506c-0.268-3.648-0.552-7.34-0.005-10.913
	c0.529-3.456,0.845-6.925,1.043-10.38c0.325-5.663,1.444-11.228,1.708-16.895c0.224-4.867,0.862-9.714,1.163-14.58
	c0.307-4.939,0.339-9.897,0.646-14.836c0.508-8.125,0.735-16.254,0.445-24.391c-0.178-5.03-0.836-10.037-0.737-15.081
	c0.106-5.361-0.299-10.707-0.538-16.057c-0.277-6.212-0.079-12.424-0.097-18.637c-0.004-0.961,0.225-1.973-0.278-2.959
	c-2.424,0.614-4.76,1.001-7.19,0.479c-0.959-0.207-2.029-0.134-3.011,0.036c-3.809,0.656-7.519,0.245-11.309-0.4
	c-3.722-0.633-6.936-2.146-9.865-4.338c-3.735-2.796-7.234-5.871-9.962-9.72c-0.257-0.363-0.397-0.962-0.929-0.959
	c-1.951,0.009-2.615-1.53-3.319-2.849c-3.399-6.354-6.757-12.732-10.057-19.139c-5.043-9.793-10.059-19.603-14.81-29.542
	c-0.238-0.502-0.546-0.923-0.918-1.327c-2.103-2.288-3.914-4.804-5.721-7.323c-2.526-3.521-5.974-5.311-10.285-5.41
	c-2.791-0.064-5.583-0.051-8.375-0.061c-3.214-0.013-6.246,0.475-9.127,2.166c-1.58,0.929-2.063,1.841-2.016,3.609
	c0.261,9.547,0.388,19.097-1.219,28.569c-0.04,0.229-0.127,0.47-0.094,0.689c0.329,2.138-0.268,4.18-0.846,6.161
	c-0.998,3.417-1.692,6.927-3.129,10.219c-0.79,1.808-0.651,1.914,1.258,2.086c0.401,0.037,0.777,0.087,0.963,0.502
	c0.183,0.409-0.006,0.714-0.258,1.045c-1.071,1.408-2.522,2.257-4.127,2.786c-0.049,0.69,0.3,1.135,0.569,1.592
	c1.452,2.461,2.882,4.936,4.399,7.356c1.523,2.428,2.299,5.048,2.366,7.901c0.013,0.535-0.051,1.305,0.256,1.556
	c1.313,1.075,1.127,2.641,1.568,4.004c0.496,1.537,0.521,3.315,1.648,4.542c1,1.088,1.886,2.259,2.859,3.363
	c0.579,0.656,1.204,1.159,2.025,1.5c2.768,1.15,4.45,3.778,7.002,5.236c0.12,0.068,0.186,0.246,0.258,0.383
	c0.48,0.912,1.231,1.573,1.971,2.27c2.03,1.913,3.395,4.43,5.572,6.221c0.225,0.185,0.379,0.511,0.459,0.802
	c0.385,1.376,1.366,2.411,2.011,3.627c0.756,1.422,1.243,2.824,2.562,4.053c1.608,1.497,2.48,3.769,4.339,5.198
	c0.729,0.559,1.423,1.252,1.894,2.032c0.518,0.852,1.199,1.097,2.084,1.234c1.454,0.229,2.934,0.346,4.335,0.85
	c0.951,0.342,1.974,0.627,2.641,1.411c0.526,0.62-0.495,1.237-0.223,1.966c0.16,0.426,0.15,0.914,0.237,1.372
	c0.233,1.223,0.284,2.457,0.383,3.696c0.344,4.385,0.738,8.761,1.671,13.084c0.646,2.99,0.958,6.054,1.375,9.091
	c0.273,1.991,0.35,4.015,0.713,5.988c1.331,7.229,2.729,14.446,4.137,21.662c0.563,2.883,1.146,5.765,1.853,8.613
	c0.709,2.851,1.59,5.656,2.384,8.484c1.427,5.074,2.74,10.18,4.292,15.214c1.389,4.511,2.994,8.956,4.584,13.4
	c0.6,1.672,1.291,3.323,2.284,4.821c0.527,0.797,1.054,1.112,1.765,0.157C336.396,442.177,336.975,441.413,338.484,441.59z
	 M377.989,284.709c1.964-2.792,3.512-5.335,4.529-8.155c1.31-3.631,3.009-6.932,6.253-9.279c1.24-0.899,2.407-1.966,3.511-3.021
	c1.387-1.327,3.158-2.218,4.287-3.753c-0.094-0.41-0.35-0.583-0.605-0.764c-1.32-0.936-2.097-2.266-2.606-3.757
	c-0.342-1.002,0.142-1.5,1.163-1.288c0.578,0.12,0.989,0.831,1.766,0.445c0.383-0.916,0.331-1.921,0.267-2.928
	c-0.25-3.964,0.033-7.955,0.596-11.83c1.068-7.353,2.739-14.617,4.825-21.769c1.085-3.719,2.19-7.438,2.722-11.292
	c0.395-2.852,0.216-5.817-1.598-7.985c-3.876-4.638-7.806-9.227-11.639-13.909c-5.375-6.566-9.973-13.631-14.636-20.674
	c-0.526-0.795-0.857-1.726-1.746-2.46c-1.456,3.629-2.843,7.159-4.288,10.664c-1.304,3.16-2.204,6.457-3.365,9.662
	c-1.009,2.782-1.835,5.638-2.126,8.534c-0.613,6.072-2.213,11.974-2.759,18.073c-0.301,3.361-0.908,6.725-1.014,10.125
	c-0.165,5.297,0.373,10.541,1.448,15.717c0.946,4.549,1.998,9.074,3.101,13.592c1.498,6.139,3.648,12.004,6.669,17.505
	c3.062,5.58,5.603,11.216,5.062,17.782C377.802,284.018,377.842,284.096,377.989,284.709z M280.602,37.188
	c-0.438,0.707-0.023,1.336,0.181,1.981c0.746,2.369,1.242,4.778,1.628,7.241c0.671,4.273,1.154,8.594,2.417,12.76
	c0.849,2.795,1.289,5.681,2.427,8.436c0.804,1.947,1.042,4.209,1.898,6.185c1.71,3.942,2.79,8.229,5.913,11.45
	c0.917,0.945,1.724,2.007,2.705,2.874c1.108,0.979,1.801,2.344,3.081,3.146c2.621,1.643,5.602,2.07,8.566,2.517
	c2.529,0.381,4.777-0.123,6.372-2.354c0.177-0.249,0.42-0.458,0.652-0.662c5.282-4.598,8.534-10.545,11.064-16.924
	c0.837-2.105,0.919-4.411,0.328-6.633c-0.286-1.077-0.385-2.13-0.326-3.216c0.203-3.794,0.584-7.576,0.546-11.385
	c-0.015-1.429,0.082-2.938,1.391-4.001c0.432-0.35,0.364-0.995,0.417-1.536c0.099-1.007,0.226-2.005,0.664-2.938
	c0.235-0.5,0.379-1.056,0.232-1.586c-0.388-1.388-0.841-2.757-1.265-4.127c-0.819,0.098-0.643,0.872-1.031,1.208
	c-0.243,0.208-0.469,0.416-0.81,0.355c-0.448-0.08-0.646-0.405-0.68-0.817c-0.034-0.385-0.024-0.776,0-1.162
	c0.09-1.457-0.358-2.728-1.172-3.933c-0.821-1.214-1.824-2.244-2.829-3.396c-0.37,0.939,0.083,1.644,0.24,2.366
	c0.426,1.939,0.141,3.863-0.033,5.791c-0.038,0.408-0.317,0.717-0.769,0.716c-0.443,0-0.737-0.291-0.8-0.698
	c-0.082-0.532-0.066-1.08-0.09-1.621c-0.036-0.89-0.358-1.665-0.967-2.308c-0.322-0.34-0.721-0.69-1.2-0.601
	c-0.53,0.099-0.573,0.616-0.677,1.085c-0.254,1.159-0.259,2.474-1.663,3.167c-0.936-2.343-2.123-4.427-3.885-6.581
	c0.03,1.622,0.082,2.861-0.275,4.045c-0.141,0.472-0.249,1.149-0.976,1.121c-0.545-0.021-0.774-0.499-0.904-0.944
	c-0.397-1.362-1.243-2.49-1.909-3.708c-0.995-1.817-2.651-2.952-4.32-4.115c0.719,2.207,0.108,4.562,1.254,6.63
	c0.459,0.831,0.298,1.898-0.802,2.973c-1.902-4.857-5.171-8.284-9.549-11.343c0.408,1.219,0.61,2.038,0.951,2.796
	c0.623,1.384,0.594,2.866,0.78,4.319c0.064,0.506,0.022,0.961-0.499,1.164c-0.674,0.263-0.988-0.212-1.25-0.718
	c-0.106-0.206-0.192-0.424-0.297-0.631c-1.096-2.163-2.213-4.272-4.723-5.199c-0.443-0.163-0.683-0.839-1.324-0.376
	c-0.425,0.307-1.071,0.401-1.143,1.049c-0.179,1.61-0.985,3.098-0.817,4.789c0.081,0.81,0.754,1.913-0.01,2.411
	c-0.909,0.594-1.486-0.821-2.367-0.989c-0.119-0.022-0.263,0.091-0.405,0.146c-0.297,1.105,0.444,2.278-0.13,3.363
	c-0.853,0.195-1.344-0.411-1.954-0.704C281.846,37.772,281.396,37.128,280.602,37.188z M384.559,308.171
	c1.254-0.001,2.098-0.517,2.965-1.027c3.76-2.209,6.172-5.795,9.109-8.845c0.998-1.036,1.529-2.293,1.894-3.673
	c0.494-1.875,1.128-3.709,1.643-5.579c0.146-0.534,0.28-1.054,0.653-1.462c0.206-0.228,0.506-0.351,0.842-0.277
	c0.4,0.088,0.415,0.413,0.396,0.715c-0.028,0.46,0.002,0.963-0.175,1.369c-0.776,1.788-1.104,3.717-1.764,5.529
	c-0.522,1.435-0.97,2.976-2.009,4.153c-0.971,1.099-2.126,2.032-3.117,3.114c-0.991,1.083-2.184,2.126-2.748,3.421
	c-1.593,3.656-1.853,7.438-0.081,11.381c2.324-1.112,4.06-2.684,4.558-5.219c0.445-2.266,1.474-4.215,2.61-6.169
	c1.566-2.693,2.863-5.48,2.835-8.732c-0.011-1.221,0.277-2.472,0.816-3.612c0.355-0.754,0.71-1.533,1.619-1.746
	c0.457,0.46,0.373,0.927,0.212,1.358c-0.773,2.06-0.968,4.226-1.271,6.377c-0.194,1.387-0.674,2.702-1.182,4.01
	c-0.682,1.753-1.782,3.255-2.712,4.86c-0.916,1.58-1.363,3.202-0.071,4.866c1.683-0.526,2.379-1.877,3.036-3.163
	c1.798-3.52,3.547-7.057,5.681-10.398c1.007-1.578,1.531-3.389,1.406-5.323c-0.188-2.891,0.384-5.693,1.001-8.491
	c0.218-0.984,0.558-1.962,0.611-2.955c0.182-3.338,0.651-6.608,1.478-9.858c0.558-2.208,1.146-4.454,1.215-6.748
	c-1.467-0.708-2.939-0.789-4.409-0.881c-1.396-0.086-2.808-0.12-4.103-0.72c-2.175-1.009-4.586-1.42-6.673-2.641
	c-0.498-0.292-0.845-0.109-1.251,0.186c-3.26,2.377-6.366,4.941-9.205,7.807c-1.651,1.667-2.954,3.597-3.673,5.856
	c-1.043,3.282-2.797,6.181-4.665,9.04c-1.054,1.611-2.287,3.143-2.806,5.055c-0.291,1.078,0.049,1.431,1.12,1.268
	c0.643-0.098,1.167-0.423,1.639-0.83c0.997-0.863,1.948-1.76,2.688-2.88c2.478-3.757,5.321-7.206,8.686-10.213
	c0.306-0.273,0.594-0.591,0.984-0.367c0.414,0.238,0.319,0.722,0.11,1.029c-0.829,1.216-0.551,2.467-0.316,3.778
	c0.273,1.524,0.354,3.083,0.542,4.623c0.662,5.433,0.011,10.522-3.815,14.797c-0.465,0.519-0.924,1.044-1.359,1.586
	C386.196,304.166,384.79,305.739,384.559,308.171z M289.691,593.698c1.064,2.559,2.256,4.716,4.017,6.484
	c2.407,2.413,4.511,5.119,7.124,7.335c0.357,0.301,0.715,0.737,0.317,1.178c-0.37,0.409-0.922,0.224-1.241-0.116
	c-1.189-1.265-2.812-1.896-4.155-2.947c-3.713-2.904-6.262-6.623-7.929-10.964c-0.496-1.29-1.185-1.434-2.298-0.987
	c-0.116,1.569,0.883,2.588,1.67,3.73c2.733,3.97,5.717,7.673,9.568,10.676c3.064,2.389,5.517,5.403,7.422,8.823
	c1.469,2.638,2.938,5.269,4.171,8.036c1.178,2.643,3.284,4.516,5.889,5.689c3.54,1.599,7.256,2.731,11.033,3.633
	c1.825,0.437,3.676,0.631,5.535,0.245c2.761-0.574,3.68-2.495,2.648-5.176c-1.729-4.498-4.343-8.535-6.614-12.747
	c-2.544-4.72-5.137-9.365-4.928-14.986c0.046-1.21-0.447-1.572-1.814-1.365c-1.855,0.283-3.713,0.319-5.563,0.19
	c-3.046-0.212-5.966-0.94-8.517-2.719C301.188,594.34,295.841,593.034,289.691,593.698z M296.747,90.586
	c-0.67,0.45-0.809,1.08-1.078,1.606c-1.913,3.75-1.545,6.933,1.207,10.096c0.863,0.992,1.856,1.87,2.788,2.801
	c2.132,2.127,4.571,4.036,6.309,6.448c1.703,2.363,3.432,4.787,4.709,7.456c0.216,0.452,0.311,1.031,1.124,1.225
	c0.873-2.131,1.98-4.137,3.38-5.991c2.847-3.771,5.599-7.611,8.386-11.428c0.364-0.501,0.787-1,0.857-1.634
	c0.258-2.356,1.461-4.17,3.063-5.842c1.156-1.207,1.16-2.163,0.354-3.6c-0.692-1.232-1.678-2.227-2.721-3.154
	c-1.925-1.711-2.522-1.639-4.047,0.393c-0.093,0.123-0.182,0.252-0.262,0.385c-1.564,2.593-4.053,4.243-6.312,6.112
	c-1.22,1.01-2.665,1.362-4.326,1.336c-2.864-0.046-5.431-1.189-8.134-1.817c-0.549-0.128-0.901-0.579-1.309-0.938
	C299.412,92.874,298.07,91.729,296.747,90.586z M337.172,82.912c-1.773,1.506-3.614,2.205-5.518,2.445
	c-1.896,0.239-3.531,1.017-5.433,1.701c2.002,1.896,3.476,3.955,4.019,6.547c0.207,0.996,0.885,0.957,1.587,0.749
	c0.636-0.188,0.966-0.757,1.234-1.323c1.091-2.296,2.217-4.577,3.225-6.911C336.669,85.235,337.253,84.368,337.172,82.912z
	 M329.956,64.01c0.591-0.188,0.949-0.313,1.313-0.416c2.312-0.646,2.313-0.645,2.621-3.01c0.049-0.382,0.109-0.769,0.102-1.151
	c-0.034-1.627,0.123-3.185,0.783-4.733c0.408-0.955,0.517-2.085,0.41-3.183c-0.049-0.505-0.188-0.84-0.738-1.007
	c-1.93-0.583-3.411,0.301-3.719,2.297c-0.271,1.752-0.497,3.512-0.754,5.267C329.691,59.996,329.66,61.913,329.956,64.01z
	 M294.812,89.788c-1.524-0.088-2.602-0.15-3.681-0.214c-0.765-0.045-1.353,0.266-1.781,0.888c-0.75,1.084-1.505,2.165-2.236,3.263
	c-0.322,0.484-0.48,1.114-0.008,1.499c1.831,1.493,3.222,3.574,6.009,4.528C291.952,96.104,293.055,93.03,294.812,89.788z
	 M281.456,51.493c-1.447,1.359-1.877,2.75-1.615,4.356c0.273,1.679,0.551,3.361,0.944,5.013c0.394,1.657,0.995,3.255,1.929,4.699
	c0.248,0.384,0.547,0.747,0.88,1.057c0.295,0.275,0.722,0.361,1.084,0.177c0.454-0.231,0.245-0.644,0.159-1.011
	c-0.62-2.632-1.173-5.283-1.871-7.895C282.434,55.886,282.501,53.744,281.456,51.493z M266.618,187.173
	c0.059,3.777-0.229,7.53-0.484,11.291c-0.165,2.442-0.344,4.952,0.636,7.783c0.548-4.046,1.031-7.654,1.527-11.26
	C268.68,192.213,268.291,189.59,266.618,187.173z M331.295,83.175c-0.955-1.332-2.223-2.012-2.982-3.172
	c-0.318-0.485-0.804-0.331-1.225-0.082c-0.37,0.22-0.6,0.642-0.389,0.967c0.606,0.939,1.208,1.934,2.02,2.678
	C329.435,84.222,330.274,83.594,331.295,83.175z M291.582,84.837c0.314,1.136-0.393,1.774,0.104,2.592
	c0.676-0.011,1.338,0.309,2.151-0.149C293.289,86.56,292.911,85.753,291.582,84.837z M325.288,83.186
	c-0.407-0.033-0.54,0.255-0.662,0.538c-0.201,0.466-0.014,0.762,0.467,0.77c0.318,0.006,0.87,0.186,0.817-0.441
	C325.882,83.692,325.648,83.354,325.288,83.186z"/>
<path d="M-23.71,426.702c0.87,0.123,1.422,0.242,1.596,1.076C-22.87,427.916-23.26,427.543-23.71,426.702z"/>
<path d="M-24.978,512.344c-0.406-0.925,0.103-1.268,0.545-1.766C-24.148,511.406-24.724,511.718-24.978,512.344z"/>
<path fill="#42C2F1" d="M396.766,257.796c0.519-0.465,0.916-0.735,1.2-1.095c0.409-0.518,0.772-0.606,1.371-0.259
	c2.559,1.488,5.472,0.653,8.186,1.169c0.432,0.082,0.901-0.225,1.005-0.777c0.11-0.591-0.313-0.847-0.743-1.016
	c-0.353-0.139-0.754-0.157-1.136-0.22c-1.078-0.178-2.162-0.125-3.251-0.116c-3.94,0.035-5.185-1.239-5.085-5.074
	c0.175-6.827,1.153-13.528,2.679-20.191c1.362-5.968,3.066-11.834,4.636-17.741c0.853-3.207,1.68-6.496,0.437-9.822
	c-0.35-0.94,0.425-1.896-0.303-2.889c-0.833-1.134-0.99-2.786-2.801-3.087c-0.361-0.06-0.653-0.627-0.951-0.983
	c-5.33-6.35-10.69-12.686-15.546-19.407c-3.529-4.884-7.124-9.752-9.706-15.261c-0.473-1.008-0.589-1.904-0.253-2.891
	c1.3-3.826,2.316-7.708,2.639-11.757c0.387-4.884,0.163-9.735-0.586-14.57c-0.023-0.152-0.051-0.309-0.104-0.452
	c-0.162-0.423-0.303-0.967-0.892-0.827c-0.402,0.096-0.523,0.558-0.528,0.956c-0.019,1.47-0.169,2.961,0.012,4.41
	c1.02,8.25-0.025,16.264-2.916,23.995c-1.677,4.487-3.538,8.914-5.383,13.342c-2.992,7.177-5.006,14.644-5.922,22.396
	c-0.353,3.001-0.976,5.971-1.538,8.943c-1.847,9.76-2.35,19.525-0.344,29.331c1.633,7.97,3.209,15.959,6.058,23.605
	c1.482,3.982,3.282,7.836,5.354,11.576c2.296,4.146,4.04,8.545,3.9,13.437c-0.062,2.19-0.741,4.295-1.351,6.343
	c-0.394,1.331-1.915,2.179-3.418,2.515c-1.207,0.271-2.407,0.455-3.683,0.22c-1.917-0.354-3.848-0.19-5.787,0.086
	c-7.342,1.042-14.026-0.486-19.813-5.301c-1.727-1.436-3.466-2.847-5.097-4.409c-2.922-2.798-4.788-6.197-6.301-9.858
	c-1.17-2.831-3.179-5.133-4.892-7.611c-4.189-6.064-7.935-12.347-11.003-19.076c-2.369-5.199-4.937-10.312-7.909-15.239
	c-2.732-4.533-5.805-8.788-8.867-13.076c-3.287-4.601-7.646-6.862-13.315-6.653c-2.397,0.089-4.795,0.099-7.199,0.038
	c-3.434-0.087-6.765,0.576-10.271,2.351c0.883-5.72,1.719-11.132,2.595-16.812c1.016,0.668,1.446,1.479,2.023,2.142
	c0.268,0.308,0.588,0.514,1.015,0.314c0.422-0.199,0.528-0.595,0.414-0.978c-0.39-1.321-0.425-2.72-1.255-3.947
	c-3.855-5.694-6.282-12.043-8.495-18.513c-1.682-4.915-3.252-9.863-4.691-14.85c-0.942-3.271-2.176-6.466-2.673-9.86
	c-0.383-2.616-1.093-5.151-1.868-7.677c-0.398-1.295-0.581-2.656-0.896-4.154c-1.426,0.685-1.147,1.797-0.896,2.797
	c0.398,1.573,1.057,3.09,1.357,4.676c1.434,7.546,3.919,14.811,5.88,22.214c0.693,2.618,1.563,5.194,2.458,7.752
	c1.967,5.622,3.255,11.343,2.626,17.342c-0.535,5.117,0.219,10.18,0.45,15.269c0.464,10.238,0.448,20.485,0.05,30.726
	c-0.069,1.773-0.468,3.539-0.788,5.294c-0.676,3.731-0.989,7.547-2.104,11.173c-0.704,2.285-1.233,4.631-2.167,6.855
	c-0.501,1.192-1.276,1.644-2.46,1.714c-1.192,0.07-2.315-0.169-3.399-0.638c-1.007-0.436-2.066-0.661-3.145-0.812
	c-0.577-0.081-1.184-0.028-1.312,0.62c-0.119,0.604,0.293,1.005,0.93,1.091c2.504,0.34,4.775,1.955,7.455,1.355
	c0.423-0.095,0.743,0.095,0.906,0.521c0.193,0.503,0.402,1,0.647,1.603c-4.311,1.702-8.659,2.225-13.174,0.882
	c-1.778-0.528-3.579-0.94-5.485-0.41c-0.695,0.193-1.518,0.414-2.326-0.005c-0.257-1.204,0.563-1.892,1.395-2.399
	c1.772-1.081,2.152-2.684,2.057-4.57c-0.138-2.707-0.513-5.399-0.292-8.124c0.308-3.786,0.603-7.576,0.78-11.37
	c0.075-1.613-0.191-3.238-0.254-4.86c-0.169-4.286,0.339-8.514,1.017-12.738c0.993-6.189,1.882-12.395,2.738-18.606
	c0.99-7.182,0.75-14.343,0.506-21.54c-0.213-6.267-2.132-12.193-3.138-18.297c-0.681-4.13-1.455-8.25-2.324-12.344
	c-0.821-3.861-1.794-7.688-2.75-11.519c-0.772-3.096-0.652-6.212,0.414-9.136c0.728-1.994,2.237-3.652,3.763-5.223
	c5.593-5.761,12.193-10.26,18.539-15.094c4.986-3.797,9.937-7.689,13.688-12.822c1.034-1.416,2.25-2.199,4.1-2.075
	c1.634,0.109,3.243-0.143,4.569-1.339c0.834-0.753,1.648-0.51,2.459,0.226c3.104,2.819,6.543,5.23,9.763,7.906
	c3.409,2.833,6.485,6.01,9.15,9.562c1.208,1.607,2.433,3.189,3.491,4.92c1.754,2.869,2.501,5.981,2.932,9.238
	c0.632,4.772,1.014,9.565,1.22,14.371c0.317,7.439,1.223,14.836,1.291,22.298c0.059,6.435,0.028,12.873,0.228,19.312
	c0.161,5.266-0.447,10.535-1.028,15.784c-0.316,2.85-0.555,5.715-0.657,8.578c-0.099,2.802-0.486,5.564-0.789,8.34
	c-0.161,1.474-0.157,2.945-0.036,4.417c0.038,0.458,0.142,0.917,0.263,1.362c0.105,0.395,0.375,0.746,0.799,0.719
	c0.442-0.029,0.604-0.426,0.636-0.843c0.1-1.234,0.326-2.474,0.268-3.701c-0.22-4.593,0.879-9.091,0.877-13.67
	c-0.003-5.355,0.997-10.636,1.345-15.975c0.295-4.519-0.219-8.984-0.125-13.473c0.119-5.734,0.129-11.471-0.138-17.198
	c-0.237-5.11-0.654-10.213-1.053-15.313c-0.326-4.173-0.388-8.38-1.156-12.502c-0.445-2.383-0.37-4.773-0.543-7.158
	c-0.144-1.991,0.472-3.842,1.52-5.512c1.029-1.64,2.072-3.29,3.281-4.796c2.087-2.597,4.015-5.301,5.974-7.991
	c1.688-2.319,3.2-4.745,4.571-7.25c0.482-0.883,0.969-1.283,1.96-1.193c0.847,0.078,1.707,0.021,2.561,0.037
	c1.901,0.035,2.016-0.017,2.201-1.82c0.152-1.464,0.607-2.823,1.085-4.139c0.18-0.024,0.296-0.069,0.322-0.038
	c3.051,3.577,7.447,4.463,11.598,5.902c4.331,1.501,8.755,2.655,13.24,3.509c3.421,0.651,6.904,1.024,10.378,1.339
	c2.016,0.182,3.415,0.739,4.773,2.522c2.91,3.819,5.854,7.606,8.552,11.583c2.567,3.782,5.377,7.415,7.729,11.326
	c4.226,7.031,8.91,13.788,12.589,21.151c2.802,5.607,5.918,11.05,9.119,16.444c1.699,2.864,3.283,5.804,4.791,8.774
	c1.126,2.223,2.605,4.222,3.785,6.405c0.11,0.202,0.246,0.434,0.434,0.542c2.684,1.545,3.555,4.411,4.925,6.875
	c1.617,2.909,3.392,5.722,4.914,8.697c1.099,2.148,1.112,4.179,0.633,6.29c-0.584,2.564-1.367,5.09-2.187,7.591
	c-2.918,8.9-5.801,17.811-8.394,26.81c-1.351,4.685-2.572,9.407-3.854,14.112c-0.45,1.657-1.265,3.164-1.925,4.736
	c-0.387,0.926-0.785,1.854-1.092,2.809c-0.465,1.448-0.65,2.861,0.563,4.129c0.409,0.428,0.679,1.045,0.86,1.623
	c0.152,0.489,0.363,1.202-0.149,1.519c-0.641,0.396-0.917-0.254-1.158-0.739c-0.219-0.436-0.641-0.287-0.989-0.392
	c-2.388-0.708-4.847-0.866-7.298-1.195C404.061,262.764,400.19,261.004,396.766,257.796z"/>
<path fill="#3C97D3" d="M338.484,441.59c-1.51-0.178-2.088,0.586-2.637,1.319c-0.711,0.954-1.236,0.64-1.765-0.157
	c-0.993-1.498-1.685-3.148-2.284-4.821c-1.59-4.444-3.195-8.889-4.584-13.399c-1.551-5.035-2.867-10.142-4.292-15.215
	c-0.794-2.828-1.675-5.635-2.384-8.484c-0.707-2.848-1.289-5.73-1.853-8.613c-1.408-7.215-2.806-14.431-4.137-21.661
	c-0.363-1.974-0.439-3.997-0.713-5.988c-0.415-3.037-0.728-6.101-1.375-9.091c-0.933-4.322-1.327-8.699-1.671-13.084
	c-0.098-1.238-0.149-2.474-0.383-3.696c-0.087-0.458-0.076-0.947-0.237-1.372c-0.274-0.729,0.749-1.348,0.223-1.967
	c-0.667-0.785-1.688-1.07-2.641-1.411c-1.401-0.503-2.881-0.62-4.335-0.85c-0.884-0.138-1.566-0.383-2.084-1.234
	c-0.47-0.78-1.165-1.474-1.894-2.033c-1.859-1.428-2.731-3.7-4.339-5.197c-1.32-1.229-1.806-2.63-2.562-4.053
	c-0.646-1.216-1.626-2.25-2.011-3.627c-0.081-0.291-0.235-0.618-0.459-0.802c-2.178-1.792-3.542-4.308-5.573-6.221
	c-0.74-0.697-1.49-1.358-1.971-2.27c-0.072-0.137-0.138-0.314-0.258-0.382c-2.552-1.458-4.234-4.087-7.002-5.237
	c-0.821-0.341-1.446-0.845-2.024-1.5c-0.972-1.104-1.86-2.275-2.86-3.363c-1.128-1.229-1.153-3.005-1.648-4.542
	c-0.441-1.364-0.255-2.93-1.568-4.004c-0.307-0.251-0.243-1.021-0.255-1.556c-0.066-2.854-0.843-5.473-2.366-7.901
	c-1.518-2.421-2.948-4.896-4.4-7.356c-0.27-0.458-0.618-0.901-0.569-1.592c1.606-0.528,3.057-1.378,4.127-2.785
	c0.251-0.332,0.442-0.636,0.258-1.045c-0.186-0.415-0.563-0.465-0.963-0.502c-1.909-0.172-2.048-0.279-1.258-2.086
	c1.437-3.293,2.132-6.802,3.129-10.219c0.579-1.982,1.175-4.023,0.846-6.161c-0.033-0.22,0.054-0.46,0.094-0.689
	c1.607-9.471,1.48-19.021,1.219-28.568c-0.048-1.768,0.436-2.682,2.016-3.609c2.881-1.691,5.913-2.179,9.127-2.166
	c2.792,0.01,5.583-0.003,8.375,0.061c4.311,0.099,7.76,1.889,10.285,5.41c1.807,2.519,3.618,5.037,5.722,7.323
	c0.371,0.404,0.679,0.825,0.917,1.327c4.751,9.941,9.767,19.749,14.81,29.542c3.301,6.408,6.657,12.785,10.057,19.139
	c0.706,1.318,1.369,2.857,3.319,2.849c0.531-0.003,0.672,0.597,0.929,0.959c2.729,3.849,6.228,6.924,9.962,9.72
	c2.93,2.192,6.144,3.705,9.865,4.338c3.789,0.646,7.5,1.057,11.309,0.4c0.981-0.17,2.051-0.243,3.012-0.036
	c2.43,0.522,4.766,0.136,7.189-0.479c0.504,0.986,0.274,1.998,0.278,2.959c0.018,6.212-0.182,12.425,0.097,18.637
	c0.239,5.35,0.645,10.695,0.538,16.056c-0.1,5.044,0.56,10.052,0.738,15.082c0.289,8.137,0.062,16.265-0.446,24.391
	c-0.308,4.939-0.34,9.897-0.646,14.836c-0.302,4.865-0.939,9.712-1.163,14.58c-0.264,5.667-1.383,11.231-1.708,16.895
	c-0.198,3.456-0.514,6.925-1.043,10.38c-0.547,3.574-0.264,7.265,0.005,10.913c0.249,3.387,1.127,6.699,1.17,10.506
	c-1.768-2.259-0.962-5.462-3.712-7.04c0.078,2.091,0.659,3.867,1.285,5.577c1.05,2.866,1.578,5.842,1.781,8.833
	c0.123,1.799-0.029,3.705-0.791,5.461c-1.753,4.042-3.235,8.195-4.857,12.291c-1.765,4.455-3.065,9.111-4.322,13.746
	c-2.312,8.534-5.208,16.839-8.652,24.988c-2.442,5.775-4.521,11.711-6.951,17.501c-3.685,8.781-6.876,17.759-10.457,26.579
	c-1.771,4.363-3.619,8.714-5.585,13.002c-0.946,2.065-1.39,4.265-1.975,6.416c-0.67,2.468-2.002,4.701-2.384,7.264
	c-0.284,1.928-0.63,3.825,0,5.756c0.135,0.413,0.129,0.927-0.21,1.377c-4.917-0.56-9.414-2.124-13.094-5.687
	c0.316,2.845,3.094,3.299,4.913,5.13c-1.355-0.266-2.388-0.36-3.351-0.951c-0.846-0.52-1.798-0.865-2.713-1.267
	c-0.265-0.115-0.58-0.326-0.845-0.013c-0.316,0.374-0.123,0.768,0.142,1.029c1.286,1.268,2.773,2.264,4.475,2.87
	c2.697,0.961,5.261,2.264,8.035,3.035c1.284,0.356,1.988,1.568,1.78,2.616c-0.18,0.903-1.667,2.195-2.656,1.833
	c-2.469-0.905-4.895,0.084-7.347-0.17c-3.096-0.32-5.953-1.246-8.512-2.86c-4.701-2.965-9.735-4.174-15.258-3.865
	c-2.686,0.151-5.476,0.269-7.75-1.699c-0.291-0.25-0.637-0.44-0.908-0.709c-1.795-1.776-1.558-2.971,0.774-3.808
	c1.015-0.365,2.041-0.733,3.092-0.965c4.107-0.906,6.442-3.684,8.061-7.341c2.034-4.596,3.983-9.228,6.208-13.738
	c2.158-4.377,3.368-9.127,5.119-13.666c1.703-4.41,2.602-9.055,3.858-13.595c0.579-2.087,1.499-4.111,1.713-6.264
	c0.369-3.732,2.243-7.047,2.812-10.672c0.646-4.109,2.015-8.054,2.466-12.207c0.195-1.806,0.944-3.553,1.325-5.367
	c1.244-5.912,2.395-11.857,3.988-17.679c0.912-3.335,1.921-6.675,3.13-9.954c1.023-2.778,2.066-5.64,2.598-8.625
	c0.268-1.506,1.004-2.922,1.439-4.403c1.166-3.959,2.888-7.683,4.77-11.334c0.892-1.731,2.281-3.13,3.533-4.604
	C337.533,444.033,338.02,442.961,338.484,441.59z"/>
<path fill="none" d="M377.989,284.709c-0.146-0.613-0.187-0.691-0.182-0.765c0.54-6.565-2.001-12.202-5.063-17.782
	c-3.02-5.502-5.17-11.368-6.669-17.505c-1.103-4.517-2.154-9.043-3.1-13.592c-1.075-5.177-1.613-10.42-1.448-15.717
	c0.105-3.4,0.713-6.764,1.014-10.125c0.546-6.099,2.146-12,2.759-18.073c0.292-2.896,1.117-5.751,2.126-8.534
	c1.161-3.205,2.062-6.501,3.365-9.662c1.445-3.504,2.832-7.034,4.288-10.664c0.889,0.734,1.221,1.665,1.747,2.46
	c4.663,7.042,9.26,14.108,14.635,20.674c3.833,4.682,7.763,9.271,11.639,13.909c1.812,2.168,1.992,5.133,1.598,7.985
	c-0.532,3.854-1.637,7.572-2.722,11.292c-2.085,7.152-3.757,14.415-4.825,21.769c-0.562,3.874-0.846,7.864-0.596,11.83
	c0.063,1.006,0.115,2.012-0.267,2.927c-0.777,0.386-1.188-0.325-1.766-0.445c-1.022-0.211-1.506,0.287-1.163,1.289
	c0.509,1.491,1.285,2.82,2.606,3.757c0.256,0.182,0.512,0.354,0.606,0.764c-1.13,1.535-2.902,2.427-4.288,3.754
	c-1.104,1.055-2.27,2.123-3.511,3.021c-3.245,2.348-4.944,5.648-6.254,9.28C381.501,279.375,379.953,281.918,377.989,284.709z"/>
<path fill="#FEE5D2" d="M280.602,37.188c0.794-0.061,1.244,0.585,1.858,0.88c0.61,0.293,1.102,0.899,1.955,0.704
	c0.574-1.086-0.166-2.258,0.13-3.364c0.142-0.054,0.286-0.169,0.405-0.146c0.882,0.168,1.458,1.583,2.367,0.99
	c0.764-0.499,0.091-1.601,0.011-2.411c-0.169-1.691,0.638-3.179,0.816-4.79c0.073-0.648,0.718-0.742,1.143-1.049
	c0.642-0.463,0.88,0.213,1.323,0.376c2.509,0.926,3.627,3.036,4.723,5.199c0.105,0.207,0.19,0.425,0.297,0.631
	c0.262,0.506,0.575,0.981,1.25,0.718c0.522-0.203,0.564-0.659,0.499-1.164c-0.186-1.454-0.158-2.934-0.781-4.319
	c-0.341-0.758-0.543-1.577-0.951-2.796c4.379,3.06,7.647,6.485,9.549,11.343c1.1-1.074,1.26-2.142,0.802-2.972
	c-1.146-2.069-0.534-4.424-1.254-6.631c1.669,1.163,3.324,2.298,4.32,4.115c0.667,1.218,1.512,2.345,1.909,3.708
	c0.13,0.445,0.358,0.922,0.905,0.944c0.727,0.029,0.834-0.648,0.975-1.121c0.358-1.183,0.306-2.423,0.275-4.045
	c1.762,2.154,2.949,4.239,3.885,6.581c1.404-0.692,1.409-2.008,1.664-3.167c0.103-0.47,0.146-0.987,0.676-1.085
	c0.479-0.089,0.878,0.26,1.2,0.601c0.608,0.644,0.931,1.418,0.967,2.308c0.023,0.541,0.008,1.089,0.09,1.621
	c0.062,0.407,0.356,0.698,0.8,0.699c0.452,0,0.731-0.309,0.769-0.717c0.174-1.928,0.459-3.851,0.033-5.791
	c-0.157-0.722-0.61-1.426-0.24-2.366c1.005,1.152,2.008,2.182,2.829,3.396c0.813,1.206,1.262,2.476,1.172,3.933
	c-0.023,0.386-0.034,0.778,0,1.162c0.034,0.412,0.231,0.738,0.68,0.816c0.341,0.061,0.566-0.146,0.81-0.355
	c0.39-0.335,0.212-1.11,1.031-1.208c0.425,1.37,0.877,2.739,1.265,4.127c0.146,0.53,0.003,1.086-0.232,1.586
	c-0.438,0.932-0.565,1.931-0.664,2.938c-0.053,0.541,0.016,1.186-0.417,1.536c-1.309,1.063-1.404,2.572-1.391,4.001
	c0.038,3.809-0.343,7.591-0.546,11.385c-0.059,1.085,0.041,2.139,0.326,3.216c0.592,2.222,0.509,4.528-0.328,6.633
	c-2.53,6.379-5.781,12.326-11.064,16.925c-0.232,0.203-0.476,0.411-0.652,0.661c-1.595,2.23-3.844,2.734-6.372,2.354
	c-2.964-0.447-5.945-0.874-8.566-2.517c-1.279-0.803-1.973-2.167-3.08-3.146c-0.982-0.867-1.789-1.929-2.705-2.874
	c-3.124-3.221-4.204-7.508-5.914-11.45c-0.855-1.974-1.095-4.237-1.898-6.185c-1.139-2.755-1.578-5.639-2.427-8.436
	c-1.264-4.167-1.747-8.486-2.418-12.76c-0.386-2.463-0.884-4.872-1.628-7.241C280.578,38.525,280.164,37.896,280.602,37.188z
	 M301.165,51.303c-3.092-1.368-6.183-2.433-9.48-0.526c-0.572,0.332-1.344,0.303-2.006,0.5c-0.461,0.137-1.129-0.034-1.264,0.674
	c0.458,1.059,1.905,0.637,2.25,1.269c1.392,2.558,3.755,1.904,5.857,1.966c1.177,0.035,2.368-0.347,3.298-1.235
	c-0.555-0.965-1.323-0.486-1.955-0.563c-0.325-0.039-0.613-0.098-0.619-0.492c-0.005-0.387,0.013-0.801,0.483-0.929
	c0.695-0.188,1.379-0.026,2.055,0.141c0.748,0.186,1.175-0.115,1.34-0.854c0.454-0.758,1.64-0.458,2.009-1.468
	c-0.467-0.966-1.305-1.598-2.365-1.917c-2.511-0.755-5.027-1.497-7.556-2.191c-1.659-0.456-3.388-0.65-5.018-0.032
	c-1.129,0.429-2.186,1.063-3.547,1.289c1.062,1.345,2.254,1.029,3.253,0.544c1.816-0.881,3.604-0.771,5.408-0.197
	c1.615,0.514,3.256,1.025,4.758,1.785C299.183,49.633,300.518,50.031,301.165,51.303z M328.646,48.435
	c-2.337-3.062-3.177-3.076-5.74-2.593c-1.468,0.277-2.816,0.711-4.156,1.355c-1.425,0.687-2.852,1.593-4.498,1.259
	c-0.422-0.616,0.666-1.017-0.212-1.712c-1.062,0.864-2.255,1.661-2.847,3.063c-1.996,4.731-2.407,9.576-0.937,14.532
	c0.222,0.748,0.193,2.084,1.297,1.725c0.779-0.253,0.076-1.354-0.104-2.07c-0.997-3.952-1.521-7.89,0.36-11.783
	c1.15,0.989,1.154,0.999,2.462,0.485c0.635-0.25,1.267-0.418,2.029-0.357c-0.197,0.699-0.26,1.343-0.556,1.852
	c-0.28,0.481-1.173-0.377-1.597,0.624c1.627,0.846,3.207,1.807,5.02,1.058c1.407-0.582,2.661-1.539,3.974-2.345
	c0.331-0.203,0.659-0.491,0.55-0.922c-0.078-0.303-0.402-0.451-0.721-0.515c-1.979-0.394-3.617-1.602-5.569-2.18
	c0.698-1.004,1.839-1.016,2.639-1.59c2.013-1.446,4.03-1.308,6.096-0.134C326.926,48.64,327.735,49.107,328.646,48.435z
	 M307.46,71.711c1.73,0.785,3.055-1.099,4.773-0.727c0.291,0.063,0.517-0.578,0.354-0.688c-0.674-0.444-1.91-1.229-2.069-1.061
	c-0.961,1.011-2.317,0.721-3.243,1.201c-1.555,0.805-2.062-0.006-2.816-0.838c-0.518-0.57-0.966-1.21-1.528-1.729
	c-0.233-0.217-0.645-0.431-1.052-0.137c-0.505,0.365-0.587,0.886-0.567,1.441c0.018,0.515,0.448,0.452,0.784,0.615
	c0.662,0.322,1.562-0.349,2.058,0.587C304.855,71.704,305.928,72.286,307.46,71.711z M313.742,78.659
	c-0.793-1.056-1.739-1.312-2.896-1.206c-1.826,0.167-3.585,0.226-5.454-0.447c-1.492-0.536-3.354-0.129-4.857,0.826
	c-0.254,0.163-0.526,0.448-0.374,0.767c0.223,0.466,0.605,0.282,0.973,0.125c1.306-0.556,2.784-1.125,4.045-0.472
	C308.025,79.727,310.917,77.747,313.742,78.659z M309.19,80.791c-1.778-0.12-3.534-0.933-5.265-0.029
	C305.686,81.327,307.433,82.264,309.19,80.791z"/>
<path fill="#FEE5D2" d="M384.559,308.171c0.23-2.432,1.638-4.005,2.94-5.629c0.437-0.542,0.896-1.068,1.36-1.586
	c3.826-4.274,4.477-9.365,3.815-14.797c-0.187-1.54-0.268-3.099-0.542-4.623c-0.234-1.312-0.512-2.562,0.316-3.778
	c0.209-0.308,0.304-0.791-0.11-1.029c-0.39-0.223-0.678,0.095-0.984,0.367c-3.365,3.007-6.209,6.456-8.686,10.213
	c-0.738,1.12-1.689,2.017-2.688,2.88c-0.47,0.408-0.994,0.733-1.638,0.83c-1.072,0.163-1.411-0.189-1.119-1.268
	c0.517-1.912,1.751-3.444,2.805-5.055c1.869-2.857,3.621-5.757,4.665-9.04c0.719-2.26,2.021-4.19,3.673-5.856
	c2.84-2.866,5.945-5.429,9.205-7.806c0.406-0.296,0.753-0.478,1.251-0.186c2.087,1.221,4.497,1.632,6.673,2.642
	c1.295,0.601,2.707,0.633,4.102,0.719c1.471,0.091,2.943,0.173,4.409,0.881c-0.067,2.294-0.655,4.54-1.215,6.748
	c-0.825,3.251-1.296,6.521-1.477,9.858c-0.054,0.992-0.394,1.971-0.611,2.955c-0.618,2.796-1.19,5.6-1.001,8.491
	c0.125,1.934-0.399,3.744-1.406,5.323c-2.133,3.342-3.883,6.879-5.681,10.398c-0.657,1.285-1.354,2.636-3.036,3.163
	c-1.292-1.664-0.844-3.286,0.071-4.866c0.93-1.606,2.03-3.107,2.712-4.86c0.507-1.31,0.987-2.624,1.182-4.01
	c0.303-2.151,0.497-4.319,1.271-6.377c0.161-0.432,0.245-0.898-0.212-1.358c-0.91,0.212-1.264,0.991-1.619,1.746
	c-0.539,1.141-0.827,2.392-0.816,3.612c0.027,3.252-1.27,6.039-2.835,8.732c-1.137,1.954-2.164,3.904-2.61,6.169
	c-0.499,2.537-2.234,4.108-4.558,5.219c-1.771-3.942-1.512-7.726,0.081-11.381c0.563-1.295,1.758-2.339,2.747-3.421
	c0.992-1.083,2.147-2.015,3.117-3.114c1.04-1.178,1.487-2.719,2.01-4.154c0.66-1.812,0.988-3.741,1.764-5.529
	c0.177-0.406,0.145-0.909,0.175-1.369c0.02-0.302,0.005-0.626-0.396-0.715c-0.336-0.074-0.636,0.049-0.843,0.276
	c-0.372,0.409-0.506,0.929-0.652,1.463c-0.515,1.868-1.149,3.704-1.643,5.579c-0.364,1.379-0.896,2.637-1.894,3.673
	c-2.937,3.05-5.35,6.635-9.108,8.845C386.656,307.654,385.812,308.17,384.559,308.171z"/>
<path fill="none" d="M289.691,593.698c6.15-0.664,11.495,0.642,16.334,4.014c2.553,1.778,5.472,2.507,8.517,2.719
	c1.851,0.129,3.708,0.093,5.563-0.19c1.367-0.207,1.86,0.155,1.814,1.365c-0.209,5.62,2.384,10.266,4.928,14.986
	c2.271,4.213,4.885,8.249,6.615,12.747c1.03,2.681,0.111,4.602-2.648,5.176c-1.86,0.386-3.711,0.191-5.536-0.245
	c-3.778-0.901-7.493-2.035-11.033-3.632c-2.604-1.174-4.711-3.049-5.889-5.69c-1.232-2.769-2.702-5.399-4.171-8.036
	c-1.905-3.419-4.358-6.435-7.422-8.823c-3.852-3.003-6.835-6.706-9.568-10.676c-0.787-1.143-1.786-2.161-1.67-3.73
	c1.114-0.446,1.802-0.303,2.298,0.988c1.667,4.34,4.215,8.059,7.929,10.963c1.343,1.051,2.966,1.683,4.155,2.947
	c0.32,0.341,0.871,0.525,1.241,0.116c0.399-0.44,0.041-0.876-0.317-1.178c-2.612-2.215-4.717-4.921-7.124-7.335
	C291.948,598.414,290.756,596.256,289.691,593.698z"/>
<path fill="#FEE5D2" d="M239.455,315.315c-1.096-4.515-1.012-9.216-2.269-13.723c-0.56-2.008-0.333-4.145,0.581-6.143
	c0.913-1.997,1.143-4.188,1.36-6.329c0.22-2.176,0.729-4.267,1.229-6.376c0.75-3.172,1.011-6.417,1.331-9.651
	c0.323-3.274,0.885-3.752,4.044-2.702c3.591,1.194,7.222,0.546,10.839,0.603c0.625,0.01,1.161-0.168,1.603,0.516
	c2.434,3.767,4.987,7.457,6.5,11.745c0.396,1.123,0.679,2.303,0.646,3.395c-0.128,4.332,0.985,8.439,1.89,12.596
	c0.197,0.903,0.353,1.836,0.352,2.754c0,1.033-0.688,1.339-1.563,0.805c-0.479-0.292-0.751-0.752-1.057-1.209
	c-0.928-1.38-1.428-2.947-1.776-4.521c-0.436-1.982-1.328-3.796-1.831-5.75c-0.504-1.96-2.157-3.34-2.619-5.207
	c-0.831-0.017-0.939,0.516-0.875,0.783c0.342,1.414-0.365,2.511-0.928,3.682c-1.006,2.094-1.951,4.219-2.933,6.325
	c-2.013,4.319-1.451,8.574,0.265,12.82c0.464,1.147,0.825,2.335,1.236,3.503c0.344,0.973,0.234,1.932,0.054,3.023
	c-1.08-0.164-1.623-0.825-2.155-1.461c-1.148-1.37-2.144-2.844-2.869-4.485c-0.814-1.841-1.566-3.711-2.438-5.523
	c-1.213-2.517-0.726-5.165-0.718-7.775c0.003-1.082,0.183-2.164,0.175-3.245c-0.003-0.515-0.156-1.187-0.877-1.146
	c-0.561,0.032-0.681,0.645-0.676,1.066c0.026,3.25-0.524,6.533,0.095,9.737c0.298,1.542,1.239,2.987,2.015,4.406
	c2.537,4.645,1.41,10.472-2.057,13.966c-1.732-1.624-2.713-3.566-2.444-5.961c0.246-2.194,0.006-4.307-0.44-6.454
	c-0.603-2.902-0.755-5.795,0.248-8.718c0.767-2.235,0.429-3.739-0.592-5.213c-0.768,0.33-0.585,1.03-0.571,1.612
	c0.037,1.57-0.297,3.087-0.623,4.6c-0.582,2.696-0.523,5.37,0.074,8.054c0.251,1.129,0.66,2.235,0.554,3.43
	c-0.048,0.532-0.006,1.032-0.301,1.555c-0.88,1.559-0.884,1.59-2.546,0.538C239.385,315.237,239.455,315.315,239.455,315.315z"/>
<path fill="#FEE5D2" d="M296.747,90.586c1.322,1.142,2.665,2.288,3.988,3.454c0.408,0.359,0.76,0.81,1.309,0.938
	c2.703,0.628,5.27,1.771,8.134,1.817c1.66,0.026,3.105-0.326,4.326-1.336c2.26-1.869,4.748-3.519,6.312-6.112
	c0.08-0.133,0.167-0.262,0.262-0.385c1.524-2.031,2.122-2.104,4.047-0.393c1.043,0.927,2.027,1.922,2.721,3.154
	c0.807,1.436,0.803,2.393-0.354,3.6c-1.603,1.671-2.807,3.486-3.063,5.842c-0.07,0.633-0.491,1.133-0.857,1.634
	c-2.787,3.816-5.539,7.657-8.386,11.428c-1.399,1.854-2.507,3.86-3.38,5.991c-0.813-0.192-0.908-0.772-1.124-1.225
	c-1.277-2.669-3.006-5.093-4.709-7.456c-1.737-2.412-4.176-4.319-6.309-6.448c-0.932-0.93-1.924-1.81-2.788-2.801
	c-2.752-3.165-3.12-6.346-1.207-10.096C295.938,91.667,296.077,91.036,296.747,90.586z"/>
<path fill="#FEE75E" d="M302.204,22.868c-0.248,0.881-0.372,1.662-0.061,2.665c0.661,2.126,1.706,4.158,1.864,6.665
	c-2.581-3.076-5.597-5.428-8.435-7.977c-0.57-0.513-1.087-1.035-1.761-0.473c-0.657,0.547-0.655,1.434-0.242,2.115
	c0.571,0.939,0.911,1.935,1.386,3.261c-0.775-0.222-1.123-0.551-1.431-0.932c-0.798-0.986-1.777-1.714-2.974-2.148
	c-1.314-0.478-2.149-1.429-2.763-2.667c-1.845-3.723-1.846-7.426-0.045-11.158c0.336-0.696,0.652-1.416,0.864-2.156
	c0.25-0.873,0.88-1.263,1.65-1.459c0.723-0.185,1.251,0.015,1.079,0.936c-0.042,0.229-0.062,0.472-0.156,0.68
	c-1.651,3.668,0.16,6.779,1.616,9.935c0.208,0.451,0.528,0.976,1.383,0.763c-0.578-1.25-1.159-2.462-1.703-3.69
	c-1.225-2.771-1.061-5.583-0.243-8.418c0.234-0.811,0.67-1.404,1.491-1.631c0.803-0.223,1.558-0.68,2.525-0.562
	c-0.971,6.55,1.005,12.013,6.03,16.333L302.204,22.868z"/>
<path fill="#FEE75E" d="M302.282,22.949c-1.1-1.852-2.186-3.712-3.306-5.552c-0.657-1.078-0.996-2.224-1.179-3.478
	c-0.213-1.454-0.226-2.917-0.457-4.374c-0.401-2.529,0.364-3.347,2.882-3.625c0.385-0.043,0.774-0.053,1.157-0.108
	c1.027-0.147,1.564,0.068,1.498,1.324c-0.134,2.492,0.36,4.922,1.061,7.312c0.586,2.002,1.345,3.864,2.488,5.681
	c1.72,2.731,2.852,5.819,3.866,8.91c0.31,0.943,0.589,1.897,0.742,2.948c-2.67-3.327-6.485-5.496-8.827-9.115
	C302.204,22.868,302.282,22.949,302.282,22.949z"/>
<path fill="#99DAF4" d="M337.172,82.912c0.081,1.456-0.504,2.323-0.886,3.209c-1.008,2.333-2.134,4.614-3.225,6.911
	c-0.269,0.566-0.599,1.135-1.234,1.323c-0.702,0.207-1.379,0.246-1.587-0.749c-0.543-2.593-2.017-4.652-4.019-6.547
	c1.901-0.685,3.537-1.462,5.433-1.701C333.558,85.117,335.398,84.418,337.172,82.912z"/>
<path fill="#99DAF4" d="M294.812,89.788c-1.757,3.242-2.858,6.316-1.697,9.964c-2.788-0.955-4.178-3.036-6.009-4.529
	c-0.472-0.385-0.313-1.015,0.008-1.499c0.73-1.098,1.486-2.179,2.236-3.263c0.429-0.622,1.016-0.933,1.781-0.888
	C292.209,89.637,293.288,89.699,294.812,89.788z"/>
<g>
	<path fill="#FEE5D2" d="M329.956,64.01c-0.296-2.097-0.265-4.015,0.019-5.933c0.258-1.755,0.483-3.514,0.754-5.267
		c0.308-1.998,1.789-2.88,3.719-2.297c0.551,0.166,0.689,0.502,0.738,1.007c0.106,1.097-0.003,2.228-0.41,3.183
		c-0.66,1.547-0.817,3.104-0.783,4.733c0.008,0.382-0.053,0.769-0.102,1.15c-0.308,2.366-0.31,2.364-2.621,3.01
		C330.905,63.697,330.547,63.822,329.956,64.01z"/>
	<path fill="#FEE5D2" d="M281.456,51.493c1.045,2.251,0.977,4.394,1.512,6.396c0.697,2.612,1.25,5.263,1.87,7.895
		c0.086,0.366,0.296,0.78-0.158,1.011c-0.363,0.184-0.79,0.098-1.084-0.177c-0.333-0.311-0.632-0.673-0.88-1.057
		c-0.933-1.444-1.535-3.042-1.928-4.699c-0.394-1.652-0.671-3.335-0.945-5.013C279.579,54.241,280.009,52.852,281.456,51.493z"/>
</g>
<path fill="none" d="M266.618,187.173c1.672,2.417,2.062,5.04,1.68,7.814c-0.496,3.605-0.979,7.213-1.527,11.26
	c-0.981-2.831-0.802-5.34-0.636-7.783C266.389,194.703,266.677,190.95,266.618,187.173z"/>
<g>
	<path fill="#FEE75E" d="M276.206,94.353c-0.388-0.003-0.779,0.028-1.162-0.014c-1.551-0.169-1.547-0.179-1.684-1.939
		c-0.012-0.143-0.107-0.283-0.183-0.415c-0.034-0.061-0.115-0.092-0.189-0.146c-0.594-0.08-0.652,0.534-0.989,0.789
		c-1.04,0.791-1.9,0.91-2.746-0.04c-0.588-0.661-1.748-0.054-2.035-1.218c-0.094-0.38-0.654,0.012-0.876,0.33
		c-0.833,1.195-2.013,1.861-3.346,2.379c-0.827,0.32-1.71,0.546-2.186,1.555c-0.363,0.769-1.289,0.706-2.084,0.573
		c0.016-0.205-0.03-0.417,0.044-0.477c2.957-2.325,3.541-5.624,3.854-9.084c0.118-1.304-0.926-1.693-1.536-2.399
		c-0.358-0.415-0.868-0.055-1.076,0.43c-0.433,1.012-1.066,1.898-1.771,2.717c-1.631,1.892-3.611,3.028-6.597,2.735
		c1.554-1.385,3.558-1.699,4.313-3.464c0.707-1.65,2.644-2.404,3.102-4.218c-0.276-0.365-0.595-0.286-0.816-0.058
		c-0.603,0.621-1.436,1.012-1.827,1.84c-2.879-0.789-5.878,1.156-8.996-0.53c3.636-3.08,6.213-6.752,7.167-11.379
		c-0.658-0.288-0.69,0.02-0.756,0.205c-0.79,2.222-1.62,2.835-3.901,2.564c-1.531-0.182-3.078-0.388-4.495-1.11
		c-0.638-0.324-1.092-0.758-0.69-1.438c0.426-0.722,1.278-0.845,1.751-0.208c0.749,1.006,0.646,0.42,0.86-0.245
		c0.134-0.414,0.707-0.566,1.179-0.646c0.932-0.155,1.744-0.528,2.444-1.318c-0.723-0.16-1.232,0.203-1.79,0.366
		c-0.518,0.151-1.064,0.209-1.816,0.349c0.345-1.759-1.361-2.148-2.247-3.359c1.151,0.122,2.104,0.288,3.061,0.312
		c1.719,0.043,3.131-0.633,4.296-1.922c1.092-1.208,2.33-2.267,3.649-3.228c0.438-0.32,0.852-0.68,1.313-0.96
		c0.838-0.509,0.215,0.73,0.744,0.646c0.327-0.052,0.575-0.2,0.753-0.471c2.331-3.555,5.21-6.681,7.359-10.426
		c3.287-5.727,5.931-11.745,8.922-17.6c0.562-1.1,1.192-2.164,1.973-3.574c0.449,1.069,0.386,2.125,1.481,2.721
		c0.541-3.338,1.759-6.458,1.961-9.787c0.145-2.388,0.886-4.546,2.062-6.595c0.54-0.94,1.062-1.897,1.498-2.888
		c0.31-0.705,0.773-1.118,1.625-1.376c0.302,0.512,0.196,1.068,0.088,1.514c-0.757,3.1-0.372,6.146,0.287,9.201
		c0.425,1.965,0.416,3.991,0.725,5.984c0.279,1.792-0.855,3.548-0.577,5.385c-0.788,0.2-1.131-0.313-1.585-0.559
		c-1.076-0.583-1.277-0.465-1.32,0.817c-0.028,0.834-0.005,1.669-0.005,2.501c-1.445,0.201-1.238-1.47-2.189-1.803
		c-0.907-0.317-1.982-0.3-2.598-1.56c-0.756,1.202-0.383,2.161-0.14,3.073c0.641,2.394,1.266,4.795,2.038,7.147
		c0.352,1.072,0.351,2.13,0.401,3.209c0.02,0.455,0.079,0.948-0.359,1.269c-1.386,1.016-1.666,2.737-2.579,4.06
		c-0.642,0.929-0.4,2.101-0.268,3.178c0.046,0.378,0.231,0.738,0.344,1.11c1.535,5.126,1.356,6.117-2.194,10.206
		c-1.256,1.446-2.692,2.738-3.967,4.177c3.163-1.842,5.337-4.658,7.342-7.959c1.041,1.732,1.727,3.294,2.874,4.559
		c0.403,0.445,0.135,1.029-0.05,1.549c-0.551,1.551-1.498,2.883-2.309,4.291c-0.267,0.462-1.415,0.934-0.221,1.616
		c1.047,0.599,1.128-0.483,1.458-0.948c0.853-1.197,1.609-2.462,2.398-3.705c0.503-0.791,1.038-1.836,2.111-1.326
		c0.859,0.409,0.622,1.518,0.416,2.32c-0.505,1.962-1.31,3.821-2.406,5.522c-0.944,1.467-1.369,3.295-2.938,4.337
		c-0.796,1.618-2.393,2.61-3.289,4.152c1-0.838,1.942-1.723,2.865-2.629c0.435-0.426,0.937-0.867,0.376-1.548
		c1.028,0.571,1.689,0.174,2.301-0.732c1.417-2.107,2.907-4.165,4.416-6.313c0.843,0.76,0.757,1.581,0.532,2.418
		c-0.445,1.665-1.167,3.192-2.324,4.493c-1.229,1.382-2.433,2.789-3.68,4.156c-0.346,0.379-0.648,0.741-0.204,1.163
		c0.422,0.401,0.896,0.188,1.195-0.208c1.946-2.57,4.229-4.89,5.919-7.711c-0.148,3.88-2.144,7.086-3.977,10.668
		c2.225-1.803,3.796-3.902,5.576-5.824c-0.125,4.606-3.189,7.31-6.21,10.037c-0.86-0.526-0.137-1.482-0.986-1.989
		c-0.552,0.768-1.075,1.582-1.686,2.325c-1.636,1.989-3.156,2.075-5.261,0.352c0.842,0.302,1.178-0.654,1.812-0.74
		c0.638-0.086,1.34,0.279,1.729-0.601c0.328-0.742,0.306-1.422-0.078-2.562C278.586,92.114,276.992,92.839,276.206,94.353z
		 M271.698,76.906c-0.621,0.83-1.873,0.709-2.444,1.618c-0.951-0.126-1.675,0.515-2.52,0.746c-2.067,0.49-4.12,1.198-6.27,0.373
		c-0.232-0.089-0.444,0.08-0.539,0.297c-0.171,0.396,0.158,0.624,0.413,0.658c2.28,0.315,4.464,0.121,6.375-1.351
		c1.035,0.395,1.852,0.087,2.496-0.775c1.222,0.109,2.106-0.317,2.482-1.557c1.012,0.179,1.93,0.112,2.631-0.924
		C273.297,76.154,272.661,76.962,271.698,76.906z M271.402,51.496c2.823-2.686,4.196-6.23,5.726-9.689
		C274.48,44.584,273.899,48.618,271.402,51.496z M271.391,60.405c1.899-2.072,3.719-4.19,4.534-6.946
		C274.039,55.533,272.956,58.136,271.391,60.405z M263.658,59.291c1.023-0.902,2.047-1.804,3.071-2.708
		C265.249,56.97,264.397,58.067,263.658,59.291z M268.434,55.075c0.465-0.496,0.929-0.991,1.394-1.487
		C269.084,53.838,268.491,54.22,268.434,55.075z M268.883,85.047c-0.966,0.647-1.587,1.064-2.208,1.481
		C267.583,86.543,268.274,86.23,268.883,85.047z M278.488,77.533c-0.77,0.222-1.041,0.515-1.148,0.983
		C277.904,78.575,278.03,78.1,278.488,77.533z M274.979,80.584c-0.627,0.122-0.958,0.437-1.353,1.153
		C274.386,81.421,274.859,81.261,274.979,80.584z M263.071,77.713c-0.778,0.137-1.234,0.35-1.555,1.418
		C262.237,78.53,262.767,78.45,263.071,77.713z M268.072,74.333c0.743-0.427,1.264-0.558,1.354-1.198
		C268.801,73.188,268.438,73.494,268.072,74.333z M256.099,73.779c0.262,0.019,0.448-0.077,0.488-0.353
		c0.032-0.22,0.122-0.598,0.043-0.641c-0.417-0.225-0.404,0.252-0.557,0.438C255.94,73.383,255.802,73.61,256.099,73.779z
		 M261.717,60.938c0.106-0.31,0.029-0.407-0.142-0.325c-0.198,0.095-0.383,0.231-0.546,0.38c-0.139,0.126-0.07,0.367,0.034,0.33
		C261.33,61.229,261.561,61.037,261.717,60.938z M252.757,68.108c-0.307,0.339-0.552,0.587-0.76,0.865
		c-0.029,0.04,0.122,0.31,0.204,0.319c0.317,0.032,0.583-0.121,0.645-0.446C252.883,68.648,252.801,68.428,252.757,68.108z"/>
	<path fill="#FEE75E" d="M332.501,77.358c-0.461-0.468-0.595-1.062-0.67-1.698c0.468-0.318,0.638,0.134,0.9,0.33
		c0.295,0.219,0.521,0.569,1.146,0.466c-1.562-2.024-3.443-3.812-3.653-6.533c1.047,0.829,2.042,1.616,3.096,2.335
		c0.486-0.637-0.116-0.859-0.374-1.172c-0.246-0.296-0.582-0.516-0.84-0.805c-2.083-2.339-1.897-4.049,0.801-5.71
		c0.959-0.59,1.398-1.265,1.672-2.318c0.777-3.015,1.144-6.097,1.663-9.154c0.024-0.152,0.021-0.31,0.034-0.465
		c0.238-3.166-0.293-3.807-3.615-4.179c-0.295-1.38,0.275-2.707,0.59-4.001c0.595-2.438-0.101-4.4-1.734-6.158
		c-0.368-0.395-0.656-0.873-1.055-1.23c-0.618-0.553-0.776-1.112-0.745-1.996c0.076-2.242-0.143-4.49-0.847-6.654
		c-0.095-0.295-0.161-0.605-0.298-0.878c-0.26-0.51-0.645-0.992-1.267-0.677c-0.467,0.237-0.431,0.769-0.235,1.234
		c0.727,1.73,0.911,3.531,0.849,5.782c-2.457-2.893-4.734-5.398-4.736-9.104c0-0.231-0.027-0.468-0.083-0.692
		c-0.113-0.457-0.254-0.954-0.855-0.899c-0.411,0.039-0.633,0.385-0.77,0.771c-0.776,2.188-0.662,4.433-0.429,6.682
		c0.062,0.611,0.206,1.215,0.33,1.933c-0.652,0.046-1.034-0.255-1.328-0.691c-2.185-3.252-3.146-6.713-1.796-10.568
		c0.203-0.582,0.461-1.168,0.516-1.769c0.031-0.312-0.25-0.772-0.53-0.966c-0.393-0.271-0.687,0.096-0.903,0.438
		c-1.553,2.448-2.892,4.91-2.535,8.025c0.157,1.375,0.697,2.521,1.208,3.716c0.485,1.136,1.062,2.228,1.1,3.964
		c-1.06-1.612-1.916-2.85-2.702-4.127c-1.458-2.371-2.857-4.781-4.321-7.148c-0.623-1.007-0.897-2.347-2.449-2.549
		c-0.284-0.037-0.53-0.709-0.717-1.124c-1.091-2.411-1.938-4.916-2.217-7.545c-0.173-1.622-0.841-3.157-0.718-4.819
		c0.12-1.627,0.149-1.728,1.728-1.831c1.31-0.085,2.624-0.256,4.134-0.035c-1.759,5.796,1.585,10.418,3.377,15.545
		c1.091-0.658,0.827-1.378,0.354-2.016c-1.933-2.608-2.366-5.704-2.771-8.764c-0.567-4.306,0.384-5.306,4.752-5.106
		c4.833,0.219,8.793,2.522,12.099,5.817c3.278,3.268,5.365,7.313,6.656,11.796c0.802,2.785,1.392,5.565,1.284,8.462
		c-0.056,1.471,0.871,2.61,1.221,3.95c0.586,2.234,0.665,4.633,1.977,6.652c0.592,0.909,1.228,1.791,1.777,2.724
		c0.208,0.353,0.554,0.854-0.009,1.212c-0.426,0.269-0.883,0.242-1.259-0.175c-0.367-0.407-0.783-0.753-1.513-0.901
		c0.454,3.906,2.642,6.816,5.399,9.675c-1.414,0.355-2.353,0.095-3.248-0.323c-0.578-0.27-1.02-0.284-1.395,0.298
		c-0.333,0.513-0.033,0.89,0.254,1.246c0.784,0.972,1.72,1.778,2.727,2.519c1.914,1.408,3.793,2.86,5.847,4.416
		c-1.627,0.673-3.065,0.509-4.663,0.104c-0.079,1.295,0.086,2.15,1.279,2.716c0.97,0.459,1.855,1.134,2.696,1.816
		c0.804,0.649,1.638,1.138,2.988,1.136c-1.517,1.118-2.856,1.382-4.36,0.911c-0.487-0.153-1.08-0.504-1.426,0.192
		c-0.362,0.728,0.123,1.158,0.685,1.508c1.315,0.82,2.647,1.615,3.944,2.462c0.702,0.459,1.347,1.007,2.068,1.554
		c-0.958,0.73-1.95,0.894-2.931,1.084c-0.455,0.087-0.908,0.113-1.318,0.395c-1.022,0.703-1.029,1.51,0.091,2.078
		c2.486,1.26,5.035,2.374,7.829,2.784c0.305,0.044,0.607,0.116,0.906,0.193c0.048,0.012,0.071,0.12,0.188,0.333
		c-1.06,1.574-2.472,2.832-4.324,3.49c-1.902,0.677-3.919,0.905-5.914,1.126c-1.611,0.18-3.247,0.216-4.709-0.797
		c2.366,2.375,3.892,2.735,7.146,1.822c0.721-0.202,1.728-0.873,2.122-0.147c0.495,0.911-0.766,1.296-1.303,1.872
		c-0.546,0.586-1.232,0.928-2.071,0.884c-0.229-0.011-0.516-0.031-0.687,0.085c-1.8,1.23-3.721,0.631-5.618,0.416l0.074,0.063
		c-0.404-0.206-0.822-0.389-1.21-0.623c-1.409-0.848-1.634-1.408-1.095-3.011c0.341-1.017,0.84-1.982,1.17-3.002
		c0.274-0.856,0.673-1.663,0.647-2.639c-0.047-1.718-0.102-1.921-1.551-1.225c-1.054,0.506-1.766-0.179-2.636-0.245
		C334.415,79.067,333.19,78.516,332.501,77.358z M345.988,89.47c-1.773-0.204-2.993-0.343-4.211-0.484
		c-0.011,0.172-0.022,0.344-0.033,0.517C342.967,89.888,344.223,89.739,345.988,89.47z"/>
	<path fill="#FEE75E" d="M332.501,77.358c0.69,1.157,1.915,1.708,2.89,2.542c-0.072,0.543,1.203,0.933,0.248,1.522
		c-0.782,0.483-1.545,1.555-2.645,0.64c-1.37-1.143-2.562-2.469-3.65-3.884c-0.225-0.293-0.504-0.772-0.409-1.049
		c0.491-1.462,0.097-3.069,0.805-4.72c0.967,0.676,1.472,1.48,1.357,2.512C330.962,76.14,331.634,76.779,332.501,77.358z"/>
	<path fill="#FEE75E" d="M331.295,83.175c-1.021,0.42-1.861,1.047-2.576,0.391c-0.813-0.744-1.413-1.738-2.021-2.678
		c-0.211-0.326,0.021-0.748,0.39-0.967c0.42-0.25,0.907-0.403,1.225,0.082C329.073,81.163,330.34,81.844,331.295,83.175z"/>
	<path fill="#FEE75E" d="M291.582,84.837c1.329,0.916,1.706,1.723,2.255,2.443c-0.813,0.458-1.475,0.139-2.151,0.149
		C291.189,86.61,291.896,85.973,291.582,84.837z"/>
	<path fill="#FEE75E" d="M339.988,90.583c0.216,0.718,1.174,0.287,1.437,0.932c-1.426,0.397-1.426,0.397-2.683-0.728
		c0.411-0.348,0.888-0.059,1.322-0.14C340.062,90.645,339.988,90.583,339.988,90.583z"/>
	<path fill="#FEE75E" d="M325.288,83.186c0.36,0.168,0.592,0.506,0.623,0.867c0.054,0.627-0.5,0.447-0.817,0.441
		c-0.481-0.009-0.669-0.304-0.468-0.77C324.748,83.442,324.881,83.154,325.288,83.186z"/>
</g>
<path d="M328.646,48.435c-0.911,0.671-1.72,0.204-2.509-0.245c-2.065-1.174-4.083-1.312-6.097,0.134
	c-0.8,0.575-1.939,0.586-2.638,1.59c1.952,0.578,3.591,1.786,5.569,2.18c0.318,0.063,0.643,0.211,0.72,0.515
	c0.109,0.431-0.219,0.719-0.549,0.922c-1.313,0.806-2.567,1.764-3.974,2.345c-1.812,0.749-3.395-0.213-5.02-1.058
	c0.423-1,1.314-0.142,1.597-0.624c0.296-0.508,0.358-1.152,0.556-1.851c-0.763-0.062-1.395,0.107-2.029,0.357
	c-1.308,0.515-1.312,0.504-2.462-0.485c-1.881,3.893-1.356,7.83-0.36,11.783c0.181,0.717,0.884,1.817,0.104,2.07
	c-1.104,0.359-1.075-0.978-1.297-1.725c-1.471-4.956-1.06-9.801,0.937-14.532c0.592-1.402,1.785-2.2,2.847-3.063
	c0.878,0.694-0.211,1.096,0.212,1.712c1.646,0.334,3.073-0.572,4.498-1.258c1.34-0.646,2.688-1.079,4.156-1.356
	C325.469,45.358,326.31,45.373,328.646,48.435z M320.497,53.959c0.231-0.194,0.875-0.054,0.687-0.644
	c-0.131-0.41-0.597-0.461-0.98-0.43c-0.424,0.034-0.399,0.376-0.349,0.688C319.912,53.932,320.082,54.124,320.497,53.959z"/>
<path d="M301.136,51.272c-0.178,0.721-0.606,1.021-1.354,0.836c-0.675-0.167-1.36-0.329-2.055-0.141
	c-0.47,0.127-0.488,0.542-0.483,0.929c0.006,0.394,0.294,0.454,0.619,0.492c0.631,0.076,1.4-0.402,1.955,0.563
	c-0.93,0.89-2.121,1.271-3.298,1.235c-2.102-0.062-4.465,0.591-5.857-1.966c-0.344-0.632-1.792-0.21-2.25-1.269
	c0.135-0.708,0.804-0.538,1.264-0.674c0.663-0.196,1.435-0.169,2.006-0.5c3.297-1.906,6.388-0.84,9.48,0.526L301.136,51.272z
	 M292.33,52.529c-0.24-0.008-0.479,0.059-0.548,0.29c-0.125,0.417,0.232,0.507,0.51,0.601c0.223,0.075,0.472,0.021,0.521-0.243
	C292.879,52.821,292.674,52.609,292.33,52.529z"/>
<path d="M301.165,51.303c-0.647-1.273-1.982-1.671-3.1-2.237c-1.503-0.761-3.143-1.272-4.758-1.785
	c-1.805-0.574-3.593-0.685-5.408,0.197c-0.998,0.486-2.189,0.8-3.253-0.544c1.362-0.226,2.419-0.86,3.547-1.289
	c1.63-0.619,3.359-0.424,5.018,0.032c2.529,0.694,5.044,1.437,7.556,2.191c1.059,0.32,1.898,0.951,2.365,1.917
	c-0.369,1.01-1.555,0.709-2.003,1.477C301.136,51.272,301.165,51.303,301.165,51.303z"/>
<path d="M307.46,71.711c-1.532,0.574-2.604-0.008-3.307-1.335c-0.496-0.937-1.396-0.266-2.06-0.587
	c-0.334-0.163-0.766-0.101-0.783-0.616c-0.019-0.556,0.062-1.076,0.567-1.441c0.407-0.294,0.817-0.08,1.052,0.137
	c0.562,0.521,1.011,1.159,1.528,1.729c0.756,0.832,1.262,1.643,2.815,0.838c0.926-0.48,2.283-0.19,3.243-1.201
	c0.161-0.168,1.396,0.617,2.07,1.061c0.163,0.108-0.063,0.75-0.354,0.688C310.515,70.612,309.19,72.496,307.46,71.711z"/>
<path d="M313.742,78.659c-2.825-0.912-5.717,1.068-8.562-0.406c-1.261-0.653-2.739-0.083-4.045,0.472
	c-0.368,0.156-0.75,0.342-0.973-0.125c-0.152-0.319,0.12-0.605,0.374-0.767c1.505-0.955,3.365-1.362,4.857-0.826
	c1.869,0.673,3.628,0.614,5.454,0.447C312.003,77.347,312.949,77.603,313.742,78.659z"/>
<path d="M309.19,80.791c-1.758,1.473-3.505,0.537-5.265-0.029C305.656,79.858,307.412,80.671,309.19,80.791z"/>
<path d="M271.402,51.496c2.497-2.878,3.078-6.912,5.726-9.689C275.598,45.266,274.225,48.811,271.402,51.496z"/>
<path d="M271.391,60.405c1.565-2.27,2.648-4.874,4.534-6.946C275.11,56.215,273.29,58.334,271.391,60.405z"/>
<path d="M276.206,94.353c0.785-1.514,2.38-2.24,3.417-3.953c0.384,1.139,0.406,1.819,0.078,2.562
	c-0.388,0.88-1.091,0.515-1.729,0.601c-0.634,0.086-0.971,1.042-1.812,0.74C276.159,94.302,276.206,94.353,276.206,94.353z"/>
<path d="M266.704,79.232c-1.899,1.485-4.084,1.68-6.364,1.365c-0.256-0.034-0.584-0.262-0.413-0.658
	c0.095-0.218,0.307-0.386,0.539-0.297c2.15,0.826,4.203,0.117,6.276-0.365C266.75,79.285,266.704,79.232,266.704,79.232z"/>
<path d="M280.548,81.47c0.561,0.681,0.06,1.122-0.376,1.548c-0.922,0.906-1.865,1.791-2.864,2.629
	c0.896-1.542,2.493-2.534,3.289-4.152C280.587,81.487,280.548,81.47,280.548,81.47z"/>
<path d="M263.658,59.291c0.74-1.223,1.591-2.321,3.071-2.708C265.706,57.486,264.681,58.388,263.658,59.291z"/>
<path d="M268.434,55.075c0.057-0.854,0.651-1.236,1.394-1.487C269.363,54.083,268.898,54.579,268.434,55.075z"/>
<path d="M268.883,85.047c-0.61,1.183-1.3,1.497-2.208,1.481C267.297,86.111,267.918,85.694,268.883,85.047z"/>
<path d="M269.255,78.524c0.57-0.909,1.823-0.788,2.444-1.618l-0.006,0.007c-0.375,1.24-1.259,1.667-2.481,1.557L269.255,78.524z"/>
<path d="M271.698,76.906c0.962,0.056,1.599-0.752,2.626-0.918c-0.701,1.037-1.62,1.103-2.631,0.925L271.698,76.906z"/>
<path d="M278.488,77.533c-0.458,0.566-0.583,1.042-1.148,0.983C277.446,78.048,277.717,77.755,278.488,77.533z"/>
<path d="M274.979,80.584c-0.12,0.678-0.591,0.838-1.353,1.153C274.02,81.02,274.351,80.705,274.979,80.584z"/>
<path d="M269.211,78.47c-0.645,0.864-1.461,1.17-2.502,0.769c-0.006-0.006,0.04,0.046,0.033,0.038
	c0.838-0.239,1.562-0.879,2.513-0.752L269.211,78.47z"/>
<path d="M263.071,77.713c-0.304,0.737-0.833,0.816-1.555,1.418C261.837,78.063,262.293,77.85,263.071,77.713z"/>
<path d="M268.072,74.333c0.366-0.839,0.729-1.145,1.354-1.198C269.335,73.775,268.815,73.906,268.072,74.333z"/>
<path d="M256.1,73.779c-0.298-0.17-0.16-0.396-0.025-0.557c0.154-0.186,0.141-0.663,0.557-0.438
	c0.079,0.043-0.012,0.421-0.043,0.641C256.548,73.702,256.36,73.798,256.1,73.779z"/>
<path d="M261.717,60.938c-0.156,0.098-0.387,0.292-0.652,0.385c-0.104,0.037-0.173-0.204-0.034-0.33
	c0.162-0.148,0.348-0.285,0.546-0.38C261.746,60.531,261.823,60.628,261.717,60.938z"/>
<path d="M252.757,68.108c0.043,0.319,0.126,0.54,0.089,0.738c-0.061,0.325-0.327,0.478-0.645,0.446
	c-0.083-0.009-0.233-0.279-0.204-0.319C252.205,68.695,252.451,68.448,252.757,68.108z"/>
<path d="M345.988,89.47c-1.764,0.269-3.021,0.418-4.244,0.033c0.011-0.172,0.022-0.344,0.033-0.517
	C342.995,89.126,344.215,89.267,345.988,89.47z"/>
<path fill="none" d="M320.497,53.959c-0.415,0.165-0.585-0.026-0.643-0.385c-0.051-0.313-0.075-0.654,0.349-0.688
	c0.384-0.031,0.85,0.021,0.98,0.43C321.373,53.905,320.729,53.765,320.497,53.959z"/>
<path fill="none" d="M292.33,52.529c0.344,0.08,0.549,0.293,0.484,0.648c-0.048,0.264-0.298,0.318-0.522,0.243
	c-0.277-0.094-0.635-0.184-0.509-0.601C291.851,52.588,292.091,52.521,292.33,52.529z"/>
</svg>
