<?xml version="1.0" encoding="utf-8"?>
<!-- Generator: Adobe Illustrator 16.0.4, SVG Export Plug-In . SVG Version: 6.00 Build 0)  -->
<!DOCTYPE svg PUBLIC "-//W3C//DTD SVG 1.1//EN" "http://www.w3.org/Graphics/SVG/1.1/DTD/svg11.dtd">
<svg version="1.1" id="Layer_1" xmlns="http://www.w3.org/2000/svg" xmlns:xlink="http://www.w3.org/1999/xlink" x="0px" y="0px"
	 width="486.632px" height="540.64px" viewBox="40.104 251.36 486.632 540.64"
	 enable-background="new 40.104 251.36 486.632 540.64" xml:space="preserve">
<path d="M101.519,291.502c0.476-0.971,0.914-1.74,1.237-2.557c0.428-1.087,1.11-1.953,1.953-2.707
	c0.889-0.793,1.776-1.568,2.367-2.664c0.273-0.506,0.767-0.932,1.246-1.269c1.217-0.854,2.782-0.275,2.767,1.21
	c-0.043,4.297,2.083,7.792,3.752,11.442c1.156,2.529,3.009,4.643,4.498,6.978c2.859,4.481,5.971,8.786,8.577,13.445
	c2.417,4.32,5.533,8.16,8.534,12.065c4.384,5.707,9.056,11.142,14.474,15.846c1.464,1.27,2.784,2.729,4.329,3.866
	c4.412,3.247,8.797,6.546,13.808,8.839c2.953,1.351,5.492,1.059,8.335-0.642c6.858-4.101,13.504-8.583,20.769-11.98
	c3.736-1.748,7.357-3.778,11.099-5.542c3.34-1.576,6.749-2.869,10.336-3.779c3.202-0.811,6.297-2.072,9.424-3.181
	c4.802-1.702,9.71-2.966,14.714-3.854c3.479-0.619,6.958-1.215,10.504-1.271c1.094-0.017,2.102-0.393,3.146-0.848
	c4.054-1.767,7.548-4.325,10.848-7.271c2.222-1.984,4.755-3.539,7.404-4.903c1.799-0.926,3.715-0.834,5.603-1.073
	c3.898-0.493,7.715,0.16,11.287,1.584c3.599,1.436,6.639,3.983,9.125,7.009c1.599,1.948,3.581,2.554,5.8,2.757
	c1.531,0.139,3.08,0.216,4.633-0.056c1.334-0.232,1.525,0.11,1.305,1.495c-0.502,3.168-1.772,6.051-3.089,8.915
	c-0.787,1.705-0.782,1.759,0.941,1.845c4.92,0.248,9.845,0.375,14.763,0.57c8.133,0.322,16.325,0.486,24.291,2.452
	c4.062,1.003,8.048,2.345,11.977,3.884c4.821,1.887,9.281,4.511,13.976,6.637c4.037,1.826,8.12,3.552,12.389,4.776
	c2.195,0.63,4.305,1.564,6.49,2.238c4.854,1.497,9.729,2.926,14.702,3.972c1.059,0.223,1.91-0.045,2.629-0.77
	c2.041-2.06,4.216-3.964,6.04-6.268c2.228-2.814,4.927-5.183,7.512-7.657c4.312-4.121,9.023-7.745,13.514-11.639
	c3.429-2.971,7.092-5.652,10.545-8.595c2.258-1.922,4.637-3.731,6.514-6.092c0.849-1.066,1.356-2.25,1.723-3.603
	c1.163-4.268,2.776-8.289,6.839-10.633c0.387-0.224,0.759-0.526,1.188-0.548c1.342-0.07,1.839-0.924,2.108-2.123
	c0.849-3.764,2.435-7.263,3.865-10.806c1.122-2.783,2.491-5.445,4.569-7.698c1.352-1.462,2.938-2.177,4.751-2.614
	c0.458-0.11,1.007-0.203,1.232,0.188c0.832,1.437,2.296,2.553,1.891,4.612c-0.686,3.476-0.876,7.041-1.709,10.496
	c-0.066,0.273,0.022,0.587,0.042,0.902c5.489-2.007,10.047-5.314,14.195-9.383c2.956-2.9,5.526-5.994,7.51-9.694
	c1.229-2.292,2.825-4.433,4.824-6.158c1.484-1.283,2.455-0.953,2.934,1.005c0.272,1.117,0.274,2.244-0.201,3.333
	c-0.118,0.273-0.177,0.577,0.056,0.976c1.053-0.242,1.897-0.951,2.796-1.534c0.49-0.318,0.992-0.904,1.558-0.365
	c0.618,0.591,1.401,1.224,1.079,2.287c-0.193,0.647-0.495,1.252-0.532,1.953c-0.035,0.688-0.107,1.346,0.551,1.824
	c0.813,0.591,0.749,1.387,0.425,2.231c-0.591,1.549-1.232,3.069-2.053,4.511c-0.43,0.757-0.968,1.479-1.153,2.34
	c0.611,0.42,1.093,0.037,1.584-0.02c1.079-0.125,1.901,0.324,2.46,1.196c0.554,0.864,0.206,1.703-0.25,2.531
	c-0.93,1.686-2.119,3.05-3.9,3.828c-2.594,1.133-4.686,3.133-7.155,4.474c-5.347,2.904-8.99,7.749-13.034,12.108
	c-1.97,2.122-4.206,3.772-6.646,5.156c-1.494,0.847-2.945,1.684-4.112,2.982c-0.553,0.614-1.22,1.082-1.907,1.532
	c-1.24,0.81-2.464,1.648-3.542,2.7c1.804,1.627,3.742,3.02,5.303,4.831c1.57,1.821,1.679,3.506,0.329,5.084
	c-0.88,1.033-2.192,1.266-3.397,1.303c-1.367,0.043-2.57,0.371-3.791,0.956c-2.739,1.312-5.41,2.725-7.941,4.435
	c-1.159,0.784-2.486,1.298-3.718,1.972c-3.939,2.16-7.225,5.158-10.324,8.413c-1.747,1.835-3.579,3.588-5.407,5.343
	c-4.407,4.236-8.684,8.61-12.947,12.999c-1.349,1.388-2.861,2.589-4.15,4.064c-5.209,5.965-10.108,12.185-14.722,18.643
	c-0.472,0.659-0.818,1.38-1.142,2.152c-0.672,1.606-2.052,2.503-3.785,2.677c-1.493,0.149-2.984-0.118-4.343-0.646
	c-6.532-2.537-13.232-4.564-19.835-6.89c-3.344-1.179-6.575-2.615-9.776-4.136c-1.67-0.793-3.374-1.466-5.236-1.632
	c-0.502-0.046-0.986-0.287-1.479-0.441c-5.272-1.644-10.545-3.275-15.809-4.948c-0.948-0.3-1.863-0.443-2.812-0.12
	c-0.505,0.174-1.017,0.204-1.529,0.132c-3.659-0.514-7.357-0.336-11.028-0.686c-1.493-0.141-1.817-0.611-2.657,1.521
	c-1.901,4.832-4.037,9.575-5.778,14.465c-1.814,5.093-3.496,10.242-4.555,15.586c-0.467,2.353-1.364,4.609-1.771,6.999
	c-0.524,3.091-0.466,6.19-0.229,9.279c0.372,4.81,0.589,9.642,1.452,14.41c0.848,4.681,1.759,9.372,1.464,14.174
	c-0.349,5.727-0.697,11.46-2.883,16.863c-0.45,1.115-0.766,2.279-0.849,3.505c-0.114,1.668,0.103,2.051,1.752,2.576
	c2.105,0.673,4.244,1.246,6.142,2.456c0.375,0.238,0.756,0.468,1.122,0.722c0.755,0.523,0.652,1.206,0.069,1.681
	c-0.799,0.646-1.685,1.174-2.759,1.326c-1.827,0.258-3.638,0.596-5.494,0.558c-0.643-0.012-1.315-0.175-2.113,0.213
	c0.892,5.238,0.613,10.625,1.831,15.863c0.478,2.051,0.624,4.182,0.619,6.304c-0.004,2.353,0.363,4.663,0.671,6.983
	c0.151,1.123,0.266,2.264,0.246,3.391c-0.121,6.801,0.541,13.58,0.383,20.392c-0.124,5.346-0.15,10.709,0.151,16.074
	c0.224,3.965-0.478,7.978-0.569,11.975c-0.098,4.07-0.419,8.13-0.261,12.222c0.127,3.231-0.189,6.488-0.39,9.729
	c-0.267,4.298-0.665,8.584-0.905,12.885c-0.344,6.106-0.494,12.224-0.752,18.335c-0.196,4.521-0.928,9.017-1.474,13.518
	c-0.383,3.155-0.813,6.315-0.202,9.473c0.209,1.077-0.421,1.869-0.515,2.829c-0.831,8.493-1.936,16.957-2.001,25.529
	c-0.033,4.519-0.937,9.007-1.679,13.476c-0.362,2.16-0.797,4.309-1.107,6.477c-0.526,3.677-1.578,7.193-2.854,10.657
	c-1.825,4.96-2.529,10.054-1.61,15.334c0.233,1.339,0.729,2.443,1.895,3.13c0.417,0.246,0.788,0.468,0.632,1.018
	c-0.128,0.448-0.392,0.837-0.877,0.929c-0.43,0.085-0.873,0.093-1.309,0.135c-2.017,0.185-2.295,0.31-2.655,2.521
	c-0.544,3.349-1.114,6.721-1.276,10.103c-0.234,4.831-0.085,9.681,0.377,14.507c0.071,0.746,0.256,1.487,0.461,2.207
	c1.278,4.509,1.738,9.192,2.842,13.738c0.772,3.184,0.123,6.319-0.633,9.401c-0.187,0.758-0.821,1.406-1.275,2.089
	c-1.66,2.499-3.312,4.984-5.54,7.037c-2.235,2.059-4.585,3.085-7.75,3.033c-4.845-0.08-8.401-2.188-11.42-5.774
	c-1.138-1.349-1.796-2.917-2.272-4.594c-1.365-4.817-1.208-9.738-0.641-14.62c0.512-4.419,1.268-8.818,2.156-13.174
	c0.752-3.688,1.649-7.343,2.236-11.07c0.493-3.142,0.5-6.315,0.754-9.471c0.168-2.065-0.451-4.128-1.516-5.828
	c-0.695-1.11-0.741-2.112-0.556-3.177c0.476-2.75,0.966-5.505,1.687-8.188c0.46-1.718,0.447-3.449,0.589-5.165
	c0.515-6.242,1.178-12.487-0.009-18.75c-0.363-1.914-0.348-3.909-0.438-5.869c-0.197-4.296-1.326-8.511-1.026-12.849
	c0.058-0.821,0.093-1.643,0.138-2.485c-0.532-0.129-0.562,0.294-0.629,0.613c-1.403,6.791-2.761,13.589-4.226,20.364
	c-0.321,1.489-0.095,2.987-0.489,4.482c-0.902,3.432-1.683,6.904-3.27,10.082c-0.916,1.833-1.107,3.737-0.986,5.707
	c0.106,1.743,0.081,3.467-0.221,5.19c-0.25,1.436,0.124,2.862,0.147,4.298c0.114,7.179,0.448,14.353,0.105,21.533
	c-0.165,3.477-1.083,6.612-3.018,9.546c-2.439,3.697-5.025,7.282-7.65,10.828c-2.782,3.757-6.527,5.546-11.261,4.592
	c-0.995-0.202-1.807-0.685-2.535-1.305c-2.109-1.798-4.014-3.897-5.331-6.296c-1.912-3.485-2.834-7.362-2.93-11.442
	c-0.091-3.902,1.147-7.448,2.555-10.924c2.236-5.518,3.968-11.22,6.118-16.764c0.35-0.903,0.588-1.896,0.646-2.862
	c0.163-2.635,0.429-5.257,0.703-7.881c0.298-2.852,0.283-5.732,0.983-8.539c0.357-1.432-0.243-2.852-0.231-4.278
	c0.049-5.895-0.354-11.787-0.033-17.694c0.533-9.799,0.185-19.616,0.429-29.425c0.066-2.643,0.097-5.269,0.039-7.914
	c-0.098-4.417-1.45-8.439-2.911-12.469c-1.53-4.221-3.032-8.424-4.018-12.847c-1.246-5.594-2.521-11.179-3.762-16.772
	c-0.522-2.353-0.89-4.744-1.412-7.099c-0.408-1.839-0.847-3.682-1.447-5.459c-1.418-4.211-2.955-8.368-3.548-12.829
	c-0.677-5.094-2.198-10.019-3.08-15.068c-0.662-3.78-1.037-7.61-1.625-11.405c-0.802-5.159-0.799-10.385-1.346-15.562
	c-0.142-1.349-0.32-2.699-0.572-4.03c-0.889-4.7-0.859-9.477-1.184-14.226c-0.175-2.562-0.426-5.119-0.657-7.68
	c-0.088-0.964-0.317-1.597-1.569-1.641c-2.994-0.109-5.656-1.574-8.431-2.557c-0.506-0.181-0.921-0.733-1.294-1.188
	c-0.762-0.925-0.78-1.562,0.189-2.281c1.252-0.933,2.285-2.131,3.545-3.018c4.093-2.892,6.569-6.889,7.708-11.762
	c1.015-4.338,2.404-8.57,3.375-12.908c0.97-4.334,1.633-8.741,2.392-13.125c1.02-5.883,1.263-11.859,1.911-17.786
	c0.065-0.599,0.096-1.202,0.171-1.799c0.349-2.807,0.159-5.532-0.641-8.277c-1.621-5.563-3.038-11.188-4.588-16.774
	c-1.15-4.139-2.602-8.174-4.206-12.148c-0.455-1.124-0.755-2.272-1.038-3.453c-0.909-3.796-1.568-7.678-3.239-11.242
	c-0.479-1.019-0.83-2.325-1.643-2.899c-1.268-0.896-2.257-2.209-3.787-2.742c-1.328-0.462-2.659-0.839-4.06-1.002
	c-2.948-0.344-5.667,0.659-8.426,1.42c-2.856,0.788-5.516,2.081-8.062,3.608c-1.733,1.04-3.694,1.469-5.531,2.227
	c-3.334,1.375-6.545,3.013-9.82,4.507c-3.694,1.686-7.342,3.536-11.09,5.035c-2.529,1.011-4.913,2.568-7.81,2.763
	c-3.242,0.216-6.525,0.553-9.694,0.096c-3.29-0.475-6.258-2.208-8.625-4.73c-1.731-1.849-3.361-3.798-5.032-5.708
	c-0.195-0.224-0.432-0.455-0.521-0.726c-1.044-3.178-2.885-5.942-4.441-8.842c-1.449-2.7-2.914-5.394-4.339-8.108
	c-1.568-2.99-3.112-5.992-4.706-8.969c-3.243-6.059-7.256-11.544-11.986-16.45c-4.401-4.563-8.472-9.434-12.756-14.104
	c-3.341-3.641-7.015-6.847-11.103-9.57c-1.916-1.276-3.742-2.68-5.25-4.484c-0.711-0.852-1.566-1.532-2.567-2.074
	c-1.487-0.806-1.435-2.076,0.013-3.027c0.187-0.122,0.396-0.208,0.574-0.342c1.986-1.494,2.469-1.441,0.689-3.711
	c-1.821-2.323-4.213-3.798-6.564-5.263c-3.083-1.924-6.164-3.797-8.932-6.2c-3.885-3.372-8.336-5.891-12.682-8.548
	c-3.52-2.152-6.528-4.908-9.27-7.959c-1.396-1.552-1.611-3.679-1.628-5.753c-0.007-0.907,0.522-1.442,1.342-1.511
	c1.101-0.09,1.098-0.696,0.925-1.556c-0.193-0.96-0.125-2.013-0.473-2.9c-0.944-2.401-0.745-4.884-0.798-7.364
	c-0.027-1.258,0.623-2.005,1.627-2.433c1.159-0.492,1.768,0.411,2.293,1.226c0.882,1.367,1.692,2.78,2.537,4.18
	c0.676-0.33,0.462-0.829,0.501-1.216c0.135-1.358,1.057-2.054,2.166-2.25c1.072-0.189,2.217,0.06,2.824,1.224
	c0.725,1.388,1.415,2.793,2.096,4.204c1.448,2.995,3.364,5.663,5.374,8.277c1.194,1.553,2.975,2.172,4.542,3.08
	c2.687,1.557,5.514,2.856,8.417,4.332c0.154-0.853-0.23-1.453-0.58-2.076c-1.792-3.201-3.99-6.174-5.227-9.691
	c-0.05-0.14-0.106-0.307-0.211-0.395c-1.943-1.617-1.755-3.496-0.896-5.65c0.433-1.083,1.065-1.275,1.853-0.964
	c2.81,1.109,5.723,2.101,7.648,4.712c1.17,1.587,2.556,2.872,4.202,3.945c3.836,2.504,6.284,6.276,8.477,10.233
	c1.306,2.355,2.55,4.729,3.381,7.342C99.266,288.258,100.172,289.92,101.519,291.502z M108.381,285.256
	c-0.933,1.449-1.752,2.866-2.411,4.395c-1.578,3.667-2.636,7.528-4.029,11.259c-1.797,4.817-4.871,8.582-9.371,10.994
	c-1.076,0.576-2.267,0.927-3.548,1.437c1.337,1.64,2.609,3.097,4.221,4.156c3.812,2.506,7.093,5.633,10.168,9.001
	c5.426,5.946,10.824,11.917,16.222,17.889c4.33,4.79,8.212,9.974,10.89,15.886c3.202,7.064,7.4,13.561,10.624,20.598
	c0.716,1.563,1.548,3.116,2.583,4.468c1.745,2.277,3.499,4.411,6.245,5.819c2.765,1.418,5.443,2.479,8.497,2.657
	c3.372,0.198,6.583-0.763,9.789-1.545c3.551-0.867,7.189-1.633,10.141-4.163c0.774-0.662,1.771-1.077,2.707-1.51
	c1.742-0.805,3.636-1.335,5.253-2.342c5.487-3.415,11.632-5.029,17.636-7.023c2.096-0.696,4.312-1.022,6.389-1.768
	c4.676-1.679,9.128-0.978,13.477,1.078c1.889,0.894,3.364,2.194,3.321,4.617c-0.005,0.362,0.182,0.725,0.268,1.092
	c0.991,4.26,2.373,8.402,3.697,12.56c0.708,2.222,1.343,4.463,2.216,6.635c0.784,1.947,1.465,3.977,1.879,6.033
	c1.129,5.636,2.744,11.136,4.358,16.624c1.411,4.794,1.686,9.538,1.013,14.476c-0.375,2.751-0.782,5.52-0.912,8.32
	c-0.169,3.684-0.402,7.379-0.883,11.03c-0.838,6.365-2.45,12.581-3.646,18.879c-0.495,2.606-1.519,5.024-2.324,7.521
	c-1.039,3.221-3.163,5.766-4.973,8.489c-1.208,1.816-2.884,3.233-5.053,3.852c-0.244,0.069-0.592,0.098-0.499,0.677
	c0.768,0.319,1.644,0.302,2.515,0.367c1.837,0.139,3.855-0.115,5.465,0.591c3.637,1.597,6.027-0.238,8.448-2.456
	c0.164-0.15,0.302-0.329,0.454-0.495c3.11-3.376,6.854-5.564,11.236-6.819c6.656-1.906,13.332-3.658,20.134-4.949
	c4.859-0.922,9.736-1.65,14.649-2.108c5.949-0.553,11.915-0.739,17.89-0.621c5.748,0.115,11.462,0.544,17.096,1.845
	c2.564,0.592,5.177,0.96,7.766,1.454c1.27,0.244,2.283-0.115,3.147-1.178c-1.329-1.156-2.939-1.131-4.413-1.462
	c-1.358-0.304-2.521-0.855-3.323-2.027c-0.599-0.877-1.049-1.749-0.067-2.783c0.35-0.37,0.729-0.878,0.859-1.527
	c0.699-3.544,1.369-7.099,2.252-10.594c0.827-3.284,0.799-6.577,0.479-9.879c-0.605-6.24-1.728-12.413-2.276-18.663
	c-0.204-2.343-0.419-4.659-0.123-7.008c0.178-1.428,0.077-2.872-0.138-4.298c-0.353-2.339-0.204-4.663,0-7.01
	c0.234-2.684,1.483-5.046,2.03-7.633c1.697-8.001,4.961-15.425,8.128-22.89c1.108-2.611,2.414-5.176,2.814-8.077
	c0.255-1.856,1.221-2.63,2.984-2.108c2.236,0.663,4.481,0.701,6.752,0.766c0.44,0.013,0.881,0.093,1.315,0.179
	c2.243,0.447,4.504,0.725,6.776,0.983c2.188,0.25,4.391,0.266,6.571,0.791c4.329,1.044,8.36,2.891,12.514,4.425
	c8.858,3.271,17.5,7.115,26.372,10.342c3.313,1.205,6.609,2.598,10.202,2.662c2.16,0.038,4.13-0.335,5.602-2.359
	c2.776-3.811,5.688-7.519,8.618-11.209c2.322-2.924,4.437-6.017,7.126-8.644c6.933-6.774,13.767-13.654,20.684-20.446
	c2.336-2.294,4.719-4.556,7.228-6.65c4.124-3.447,8.96-5.738,13.549-8.425c1.22-0.714,2.52-1.303,3.818-2.489
	c-1.351-0.043-2.269-0.662-3.344-0.464c-0.287,0.053-0.589-0.129-0.546-0.52c0.031-0.302,0.161-0.646,0.47-0.687
	c0.504-0.066,1.042-0.113,1.529-0.002c1.07,0.243,2.161,0.488,3.166,0.919c0.965,0.416,1.657,0.434,2.63-0.185
	c2.516-1.599,2.6-2.08-0.048-3.719c-1.125-0.696-2.39-1.165-3.615-1.675c-2.324-0.965-4.515-2.264-6.416-3.852
	c-2.018-1.684-3.146-4.189-3.655-6.834c-0.689-3.582-0.922-7.19,0.141-10.766c0.104-0.352,0.224-0.793,0.108-1.104
	c-0.3-0.812,0.06-2.027-0.879-2.405c-1.168-0.471-1.827,0.675-2.598,1.324c-0.374,0.313-0.446,0.744-0.324,1.233
	c0.12,0.468,0.011,0.92-0.34,1.248c-0.932,0.873-1.102,2.105-1.501,3.228c-1.997,5.623-0.515,10.494,3.034,14.94
	c0.562,0.707,1.466,1.156,1.837,2.353c-1.371-0.298-2.21-1.053-2.892-1.882c-2.297-2.801-3.36-6.134-3.604-9.739
	c-0.128-1.857,0.266-3.701,0.456-5.563c-0.285,0.217-0.506,0.441-0.598,0.71c-0.652,1.903-0.931,3.948-2.155,5.631
	c-0.191,0.263-0.152,0.734-0.15,1.109c0.016,4.184,1.246,7.823,4.52,10.542c0.412,0.341,1.139,0.508,0.815,1.478
	c-4.725-2.088-5.423-6.786-6.88-11.089c-0.536,0.624-0.933,1.168-1.408,1.625c-4.259,4.079-8.998,7.555-13.663,11.096
	c-6.224,4.725-12.24,9.673-17.768,15.237c-1.26,1.269-2.601,2.492-3.655,3.93c-2.672,3.65-5.688,6.913-9.305,9.592
	c-1.185,0.877-2.559,1.098-3.904,1.424c-0.511,0.123-1.072-0.165-1.114-0.815c-0.034-0.526,0.389-0.782,0.856-0.847
	c0.8-0.113,1.63-0.144,1.794-1.318c-3.619-0.792-7.062-2.142-10.621-3.098c-2.559-0.686-5.134-1.319-7.646-2.148
	c-4.698-1.549-9.196-3.642-13.775-5.513c-8.324-3.401-16.175-7.981-24.863-10.499c-1.715-0.498-3.405-0.925-5.181-1.025
	c-6.17-0.349-12.36-0.371-18.508-1.078c-2.277-0.262-4.592-0.11-6.829-0.467c-3.823-0.611-7.628-0.426-11.451-0.371
	c-0.77,0.011-1.192,0.321-1.572,0.973c-2.741,4.705-6.359,8.668-10.2,12.414c-3.191,3.111-7.111,5.331-10.147,8.658
	c-1.318,1.445-2.673,2.85-3.325,4.737c-2.031,5.882-2.921,11.991-3.14,18.199c-0.13,3.695-0.054,7.398-0.05,11.097
	c0,0.688,0.065,1.319-0.587,1.821c-0.763,0.587-1.104,0.545-1.442-0.391c-0.102-0.282-0.137-0.588-0.209-0.882
	c-0.945-3.887-1.364-7.871-2.076-11.801c-0.486-2.68-1.095-5.328-2.323-7.751c-2.849-5.631-5.403-11.41-7.643-17.306
	c-2.713-7.139-4.223-14.611-4.172-22.319c0.014-2.13-1.242-3.491-2.211-5.049c-0.606-0.974-1.786-0.442-2.668-0.759
	c-0.548-0.197-1.161-0.198-1.738-0.318c-3.508-0.731-7.013-0.743-10.524-0.005c-1.731,0.365-3.49,0.6-5.202,1.035
	c-3.488,0.887-7.004,1.602-10.415,2.872c-3.304,1.229-6.601,2.523-10.005,3.494c-5.45,1.553-10.721,3.602-15.743,6.311
	c-3.447,1.86-6.966,3.583-10.431,5.407c-1.697,0.894-3.365,1.849-5.014,2.832c-4.566,2.722-9.058,5.579-13.7,8.154
	c-1.64,0.908-3.142,1.922-4.522,3.153c-1.028,0.915-2.19,1.527-3.473,1.897c-0.886,0.256-1.364-0.333-1.134-1.26
	c0.28-1.129,1.313-1.396,2.104-1.844c0.794-0.452,1.593-0.782,1.885-1.819c-0.308-0.158-0.615-0.388-0.958-0.481
	c-2.382-0.65-4.494-1.738-6.319-3.503c-1.058-1.023-2.369-1.771-3.673-2.494c-1.483-0.823-3.044-1.624-4.213-2.879
	c-2.96-3.179-6.534-5.631-9.577-8.715c-2.31-2.34-4.592-4.688-6.558-7.342c-1.47-1.984-2.884-4.014-4.417-5.946
	c-4.789-6.04-8.751-12.689-13.294-18.911c-2.607-3.571-4.348-7.721-6.935-11.32c-1.898-2.64-3.206-5.591-4.217-8.694
	C109.414,287.181,109.156,286.146,108.381,285.256z M259.75,635.81c-0.4,0.712-0.369,1.317-0.388,1.92
	c-0.097,3.02-0.231,6.04-0.307,9.062c-0.182,7.327-0.55,14.652-0.522,21.987c0.017,4.459-0.005,8.918-0.009,13.379
	c-0.004,6.499-0.146,13.001,0.708,19.478c0.262,1.985,0.822,3.832,1.658,5.604c1.961,4.155,5.583,5.032,9.236,2.289
	c0.415-0.312,0.848-0.621,1.315-0.832c1.509-0.678,2.454-1.899,3.142-3.359c0.672-1.427,1.434-2.835,1.893-4.336
	c1.492-4.882,2.815-9.816,4.294-14.702c1.55-5.125,2.625-10.375,4.088-15.522c2.086-7.329,3.773-14.757,5.096-22.271
	c0.366-2.081,0.808-4.159,0.989-6.26c0.335-3.911,0.649-7.817,1.259-11.694c0.28-1.783,0.756-3.576,0.5-5.401
	c-0.339-2.402-0.307-4.82-0.462-7.229c-0.5-7.764-1.479-15.487-1.808-23.272c-0.114-2.712-0.146-5.409-0.174-8.116
	c-0.045-4.532-0.476-9.061-0.601-13.595c-0.23-8.315-0.355-16.634-0.531-24.95c-0.015-0.604,0.062-1.277-0.168-1.796
	c-1.117-2.503-1.369-5.232-2.055-7.844c-1.129-4.301-2.027-8.668-3.723-12.792c-0.293-0.71-0.237-1.319,0.058-1.945
	c0.319-0.679,0.712-1.325,1.024-2.006c0.156-0.341,0.211-0.766,0.688-0.726c0.614,0.05,0.6,0.565,0.606,1.008
	c0.051,3.94,2.007,7.386,2.751,11.143c0.107,0.544,0.225,1.164,0.853,1.49c0.426-0.319,0.389-0.786,0.47-1.221
	c0.533-2.814,0.62-5.696,1.479-8.463c1.162-3.737,2.22-7.51,2.837-11.397c0.272-1.706,0.821-3.362,0.896-5.107
	c0.017-0.377,0.118-0.795,0.576-0.839c0.441-0.038,0.659,0.327,0.722,0.7c0.216,1.254,0.719,2.464,0.433,3.792
	c-0.587,2.726-0.897,5.536-1.725,8.181c-2.067,6.589-2.552,13.458-3.708,20.207c-0.274,1.593,0.176,3.145-0.002,4.743
	c-1.02,9.134-0.426,18.281,0.375,27.372c0.55,6.241,0.365,12.521,1.231,18.741c0.287,2.071,0.034,4.219,0.33,6.326
	c0.601,4.264,0.329,8.598,0.949,12.868c0.325,2.233,0.741,4.495,0.705,6.736c-0.062,3.917,0.086,7.837,0.034,11.752
	c-0.065,5.069-1.19,9.884-2.239,14.722c-0.786,3.617-1.496,7.21-1.815,10.903c-0.255,2.939-0.077,5.883-0.275,8.811
	c-0.599,8.852-0.239,17.675,0.518,26.495c0.519,6.034,0.828,12.085,0.221,18.119c-0.346,3.439-0.999,6.863-1.739,10.24
	c-0.528,2.414,0.26,4.166,1.978,5.596c1.26,1.048,2.783,1.676,4.279,2.303c0.48,0.198,1.002,0.179,1.518-0.002
	c3.036-1.057,6.212-1.777,8.704-4.08c0.482-0.446,1.108-0.745,1.698-1.059c0.781-0.415,1.614-0.909,2.495-0.754
	c1.384,0.244,1.474-0.605,1.48-1.581c0.02-2.797,0.063-5.594,0.019-8.392c-0.052-3.116,0.175-6.213,1.086-9.182
	c2.164-7.06,2.914-14.424,4.553-21.597c0.381-1.676,0.372-3.447,0.55-5.169c0.47-4.582,1.412-9.098,1.706-13.702
	c0.25-3.921,0.358-7.864,1.174-11.72c0.91-4.312,0.763-8.72,1.223-13.067c0.058-0.527,0.139-1.108-0.243-1.805
	c-0.352,0.809-0.489,1.453-0.687,2.088c-0.647,2.087-1.436,4.126-2.671,5.938c-0.254,0.373-0.644,0.74-1.073,0.313
	c-0.355-0.353-0.304-0.825,0.103-1.184c0.753-0.659,1.135-1.562,1.556-2.448c1.695-3.574,2.398-7.432,3.088-11.294
	c0.652-3.659,0.6-7.384,0.65-11.073c0.035-2.608,0.804-5.252-0.078-7.86c-0.076-0.219-0.003-0.592,0.187-0.567
	c1.155,0.152,0.686-0.583,0.588-1.087c-0.13-0.667-0.312-1.321-0.441-1.985c-0.04-0.199,0.019-0.421,0.034-0.683
	c0.37,0.141,0.693,0.262,1.232,0.464c-0.229-2.503-0.355-4.896-0.223-7.285c0.442-7.91,0.316-15.852,1.246-23.74
	c0.512-4.35,0.41-8.747,0.674-13.115c0.364-6.049,0.211-12.091-0.003-18.127c-0.226-6.333-0.821-12.652-1.098-18.983
	c-0.163-3.757,0.18-7.525-0.185-11.286c-0.276-2.858-0.527-5.721-0.45-8.595c0.043-1.529-0.115-3.026-0.439-4.5
	c-0.229-1.04-0.388-2.077-0.374-3.141c0.033-2.816-0.411-5.569-1.016-8.303c-0.403-1.831-0.46-1.843-2.27-2.149
	c-1.088-0.183-2.164-0.44-3.241-0.687c-5.61-1.285-11.276-2.079-17.037-1.968c-3.239,0.063-6.445,0.664-9.669,0.795
	c-4.563,0.187-9.067,0.598-13.592,1.306c-8.072,1.266-16,3.209-23.981,4.896c-2.138,0.452-4.316,1.124-6.034,2.644
	c-1.166,1.031-2.224,2.206-3.238,3.397c-1.588,1.869-3.435,3.279-5.786,3.965c-0.558,0.165-1.069,0.502-1.596,0.773
	c-1.132,0.58-1.62,1.375-1.654,2.821c-0.143,5.829,0.833,11.617,0.53,17.442c-0.011,0.225,0.05,0.452,0.069,0.677
	c0.505,6.174,1.686,12.252,2.45,18.389c0.243,1.945,0.422,3.903,0.69,5.848c0.112,0.814,0.579,1.622,0.534,2.411
	c-0.18,3.114,0.435,6.14,0.937,9.162c1.378,8.277,3.573,16.365,5.5,24.518c0.501,2.12,1.046,4.251,2.195,6.149
	c1.308,2.161,1.914,4.538,1.971,7.075c0.007,0.297,0.127,0.589,0.18,0.886c0.894,5.051,1.807,10.099,2.67,15.154
	c0.356,2.083,0.72,4.165,1.386,6.165c2.459,7.366,4.228,10.727,8.974,16.746c2.946,3.735,6.923,5.575,11.509,6.183
	c-0.415,0.623-0.934,1.071-1.729,1.133c-2.163,0.164-4.323,0.11-6.227-1.062C263.742,638.934,261.647,637.664,259.75,635.81z
	 M310.752,722.337c-1.013-0.589-1.727-0.176-2.415,0.284c-1.915,1.273-3.771,2.649-5.736,3.834
	c-2.999,1.807-6.013,3.644-9.616,1.283c-1.046-0.685-1.435-0.244-1.716,1.339c-0.565,3.189-1.004,6.395-1.395,9.612
	c-0.692,5.7-2.377,11.212-3.183,16.891c-0.623,4.396-1.888,8.729-1.163,13.254c0.25,1.557,0.426,3.132,0.633,4.699
	c0.436,3.288,1.847,6.035,4.343,8.16c0.788,0.672,1.598,1.408,2.664,1.522c2.559,0.276,5.142,0.5,7.694,0.096
	c1.658-0.262,3.294-0.702,4.772-1.664c2.721-1.77,4.327-4.415,5.743-7.256c0.588-1.18,0.861-2.372,0.772-3.703
	c-0.397-5.895-1.346-11.69-2.78-17.413c-0.472-1.88-0.98-3.824-0.963-5.736c0.015-1.491,0.121-2.997,0.02-4.494
	c-0.208-3.174-0.278-6.342,0.261-9.491C309.321,729.841,309.263,726.001,310.752,722.337z M75.172,263.09
	c-0.188,0.456,0.035,0.693,0.145,0.965c0.827,2.016,1.512,4.11,2.509,6.032c0.985,1.898,1.959,3.758,2.499,5.861
	c0.564,2.198,2.056,3.856,3.681,5.259c2.127,1.837,3.371,4.357,5.167,6.438c0.342,0.396,0.346,0.795,0.017,1.218
	c-0.363,0.463-0.674,0.358-1.113,0.058c-0.93-0.634-1.726-1.32-2.081-2.48c-0.405-1.321-1.174-2.258-2.39-3.074
	c-1.578-1.06-2.996-2.307-4.749-3.167c-1.445-0.709-2.8-1.616-4.337-2.18c-6.664-2.45-6.696-2.439-10.697-8.379
	c-1.96-2.913-3.744-5.953-5.636-8.914c-0.251-0.392-0.419-1.06-1.138-0.816c-0.679,0.229-1.127,0.647-1.204,1.437
	c-0.22,2.242,0.05,4.43,0.499,6.627c1.165,5.718,3.621,10.413,9.417,12.655c-0.547,0.752-1.1,1.177-1.713,0.582
	c-1.342-1.308-3.075-2.032-4.441-3.281c-0.72-0.659-1.259-1.445-1.599-2.403c-0.781-2.194-1.652-4.356-2.448-6.546
	c-1.284-3.531-2.579-7.056-4.673-10.195c-0.262-0.393-0.393-1.015-1.194-0.812c-0.277,2.61-0.479,5.144,0.445,7.761
	c0.67,1.9,1.976,4.005,0.176,6.081c-0.069,0.079-0.019,0.296,0.02,0.437c0.436,1.596,0.8,3.217,1.926,4.512
	c1.676,1.93,3.736,3.351,5.859,4.688c0.318,0.2,0.728,0.24,0.512,0.763c-0.199,0.482-0.584,0.729-1.058,0.555
	c-0.33-0.12-0.61-0.414-0.883-0.665c-1.038-0.949-2.067-1.908-3.095-2.87c-1.875-1.755-3.475-3.694-3.955-6.367
	c-0.04-0.22-0.121-0.438-0.215-0.642c-0.163-0.349-0.385-0.679-0.809-0.647c-0.53,0.04-0.772,0.458-0.809,0.926
	c-0.113,1.47,0.136,2.924,1.017,4.079c1.634,2.145,3.465,4.162,5.632,5.721c2.583,1.858,5.358,3.433,8.056,5.12
	c2.628,1.646,5.4,3.033,7.806,5.066c2.836,2.397,5.8,4.644,9.085,6.372c4.449,2.341,7.633,6.014,10.449,10.127
	c0.383,0.56,0.229,1.616,1.243,1.647c0.792,0.024,1.357-0.52,1.968-0.939c0.669-0.46,1.438-0.756,2.003-1.389
	c2.401-2.687,4.534-5.559,5.907-8.955c0.85-2.105,1.666-4.228-0.517-6.08c-0.162-0.138-0.258-0.369-0.354-0.572
	c-1.625-3.459-3.773-6.662-4.842-10.398c-0.271-0.948-0.844-1.757-1.381-2.574c-1.439-2.187-3.294-4.06-4.547-6.398
	c-0.413-0.771-1.13-1.363-1.849-1.924c-2.455-1.914-5.165-3.498-7.16-6.015c-0.635-0.801-1.574-1.353-2.388-2.002
	C77.038,262.681,76.098,262.561,75.172,263.09z M257.522,708.203c0.095,2.868-0.552,5.145-1.085,7.458
	c-0.342,1.479-0.788,2.886-1.435,4.244c-0.419,0.879-0.879,1.76-1.129,2.695c-0.978,3.64-2.364,7.133-3.755,10.608
	c-1.992,4.973-3.241,10.009-2.491,15.407c0.387,2.791,1.126,5.442,3.063,7.601c2.026,2.26,4.441,3.928,7.128,5.232
	c2.204,1.069,4.109,0.854,5.868-0.885c1.161-1.146,2.234-2.396,3.268-3.669c2.935-3.614,5.214-7.666,7.452-11.756
	c1.183-2.164,1.777-4.441,1.957-6.885c0.396-5.437-0.09-10.868-0.06-16.303c0.021-3.854-0.225-7.699,0.423-11.525
	c0.121-0.708,0.161-1.438-0.16-2.438c-0.765,0.895-1.335,1.558-1.901,2.222c-1.24,1.46-2.787,2.781-4.552,3.037
	c-3.726,0.537-7.322-0.088-10.215-2.951C259.274,709.681,258.584,709.135,257.522,708.203z M278.656,368.475
	c0.596-0.197,0.681-0.57,0.744-0.944c0.477-2.858,1.521-5.514,2.812-8.066c1.381-2.729,2.577-5.572,4.57-7.939
	c2.597-3.085,5.158-6.202,7.742-9.298c0.869-1.039,1.699-2.126,2.198-3.384c1.462-3.678,3.642-6.868,6.032-9.953
	c1.573-2.029,1.268-4.109-0.687-5.74c-0.807-0.673-1.618-1.285-1.951-2.371c-0.182-0.594-0.709-0.946-1.136-1.362
	c-3.334-3.239-7.068-5.619-11.766-6.181c-5.148-0.617-10.11-0.604-14.542,2.798c-1.146,0.88-1.903,1.828-2.173,3.233
	c-0.415,2.146-0.875,4.285-1.255,6.437c-0.733,4.162-0.495,8.13,1.153,12.17c1.496,3.669,2.9,7.42,3.998,11.268
	c1.057,3.706,1.553,7.527,2.401,11.273C277.407,363.1,278.035,365.781,278.656,368.475z M476.457,305.161
	c0.241-2.003,1.148-3.444,2.352-4.628c1.745-1.72,2.463-3.882,2.858-6.204c0.416-2.452,0.732-4.922,1.088-7.385
	c0.074-0.52,0.181-1.045,0.172-1.567c-0.021-1.064-0.69-1.542-1.61-1.885c-0.969-0.36-1.323,0.269-1.754,0.89
	c-1.194,1.718-2.378,3.436-3.818,4.966c-1.068,1.136-1.991,2.43-2.551,3.935c-1.179,3.172-2.261,6.384-3.544,9.509
	c-0.718,1.748-1.067,3.405-0.406,5.225c0.208,0.573,0.164,1.225-0.048,1.789c-0.908,2.417-0.646,4.936-0.51,7.397
	c0.21,3.827,1.72,6.883,5.182,8.901c1.38,0.803,2.198,0.391,3.107-0.321c2.576-2.014,5.158-4.03,7.61-6.194
	c1.405-1.242,2.894-2.408,4.471-3.291c4.246-2.376,7.139-6.158,10.297-9.698c2.379-2.669,4.248-5.993,8.105-6.849
	c0.416-0.093,0.774-0.431,1.177-0.613c2.38-1.081,4.28-2.925,6.475-4.302c0.957-0.6,1.898-1.379,1.874-2.886
	c-1.088,0.026-1.894,0.51-2.709,1.008c-1.326,0.81-2.676,1.583-4.015,2.372c-0.341,0.201-0.715,0.327-0.943-0.1
	c-0.14-0.26-0.052-0.611,0.158-0.846c0.944-1.06,1.93-2.082,2.849-3.161c1.5-1.765,2.458-3.834,3.132-6.079
	c-2.281,2.034-4.688,3.858-6.73,6.121c-1.971,2.185-3.756,4.604-6.436,6.145c-0.215-0.772,0.146-1.071,0.411-1.424
	c2.247-3.001,4.706-5.827,7.324-8.476c2.293-2.321,3.917-5.083,5.602-7.828c0.233-0.38,0.409-0.807,0.548-1.235
	c0.089-0.277,0.096-0.61-0.147-0.848c-0.251-0.244-0.566-0.184-0.81-0.035c-1.448,0.888-3.028,1.538-4.325,2.703
	c-0.694,0.624-0.836,1.706-1.591,2.134c-1.848,1.047-2.682,2.964-3.804,4.571c-1.802,2.579-3.75,5.041-5.562,7.607
	c-0.298,0.419-0.698,0.774-1.091,1.109c-0.199,0.169-0.492,0.402-0.751,0.057c-0.197-0.263-0.237-0.657-0.002-0.823
	c2.193-1.539,3.428-3.924,4.926-6.035c1.685-2.37,3.567-4.632,4.82-7.297c0.985-2.1,1.457-4.441,2.819-6.37
	c0.322-0.456,0.178-0.895-0.213-1.184c-0.425-0.315-0.916-0.171-1.144,0.263c-0.817,1.544-2.277,2.563-3.083,4.125
	c-2.42,4.696-5.643,8.807-9.089,12.729c-0.974,1.108-2.08,2.316-3.372,2.856c-2.113,0.883-4.136,1.949-6.138,3.011
	c-2.918,1.548-5.91,3.021-8.236,5.582C478.592,303.473,477.886,304.615,476.457,305.161z M304.73,324.204
	c0,0.99,0.002,1.664,0,2.339c-0.004,1.457-0.368,2.694-1.279,3.94c-0.91,1.251-2.093,2.325-2.697,3.833
	c-0.604,1.508-1.426,2.916-2.182,4.347c-1.822,3.446-4.51,6.084-6.953,8.965c-1.784,2.102-3.813,4.04-5.29,6.349
	c-3.507,5.48-5.696,11.551-6.715,18.037c-0.115,0.733-0.287,1.578,0.64,2.302c0.107-2.854,0.34-5.443,1.292-7.967
	c2.365-6.273,6.676-10.761,12.086-14.26c1.772-1.146,3.33-2.491,4.667-4.12c1.377-1.675,2.819-3.305,4.076-5.071
	c1.431-2.006,3.012-3.94,3.971-6.252c1.409-3.401,2.822-6.798,4.396-10.124c0.244-0.516,0.684-1.018,0.384-1.744
	C309.118,324.478,307.033,324.917,304.73,324.204z M277.266,376.474c0.06-2.719-0.135-5.339-1.035-7.852
	c-0.764-2.135-1.17-4.361-1.631-6.579c-0.692-3.314-1.281-6.656-2.383-9.873c-2.12-6.18-4.44-12.318-5.332-18.843
	c-0.305-2.235-0.794-4.488-0.063-6.88c0.533-1.743,0.722-3.73,0.619-5.823c-0.801,0.335-1.192,0.797-1.409,1.342
	c-0.815,2.035-2.39,2.743-4.393,2.792c-0.36,0.009-0.73,0.094-1.074,0.208c-0.36,0.121-0.689,0.389-0.735,0.778
	c-0.054,0.447,0.335,0.608,0.689,0.734c0.209,0.074,0.424,0.132,0.626,0.222c2.782,1.215,3.521,2.626,3.099,5.659
	c-0.291,2.086-0.303,4.173-0.112,6.295c0.265,2.954,1.021,5.786,1.605,8.662c0.598,2.942,1.029,5.953,2.215,8.718
	c2.283,5.323,4.642,10.613,7.08,15.864C275.742,373.429,276.33,375.031,277.266,376.474z"/>
<path fill="#42C2F1" d="M108.381,285.256c0.776,0.89,1.033,1.926,1.354,2.912c1.011,3.103,2.318,6.055,4.217,8.694
	c2.587,3.6,4.328,7.75,6.935,11.321c4.542,6.222,8.505,12.871,13.294,18.91c1.532,1.933,2.946,3.962,4.416,5.947
	c1.966,2.655,4.248,5.001,6.559,7.343c3.044,3.083,6.616,5.535,9.577,8.714c1.169,1.255,2.729,2.056,4.213,2.879
	c1.305,0.725,2.615,1.471,3.673,2.493c1.826,1.766,3.938,2.855,6.32,3.504c0.342,0.094,0.648,0.321,0.957,0.48
	c-0.291,1.038-1.089,1.368-1.884,1.82c-0.792,0.448-1.825,0.714-2.104,1.844c-0.229,0.927,0.249,1.516,1.135,1.26
	c1.283-0.37,2.444-0.981,3.472-1.897c1.381-1.23,2.883-2.245,4.523-3.153c4.642-2.574,9.134-5.432,13.7-8.153
	c1.649-0.983,3.317-1.937,5.014-2.831c3.466-1.826,6.985-3.547,10.431-5.408c5.021-2.71,10.293-4.758,15.742-6.311
	c3.405-0.97,6.7-2.265,10.006-3.494c3.411-1.269,6.927-1.984,10.415-2.872c1.712-0.436,3.47-0.67,5.202-1.034
	c3.511-0.739,7.016-0.726,10.524,0.005c0.577,0.12,1.19,0.121,1.738,0.317c0.883,0.317,2.063-0.215,2.668,0.759
	c0.97,1.557,2.227,2.917,2.212,5.049c-0.051,7.707,1.459,15.179,4.171,22.318c2.241,5.896,4.794,11.675,7.644,17.306
	c1.226,2.423,1.836,5.07,2.322,7.751c0.713,3.93,1.131,7.915,2.076,11.801c0.071,0.294,0.106,0.6,0.209,0.882
	c0.339,0.937,0.68,0.977,1.443,0.391c0.653-0.502,0.588-1.133,0.587-1.822c-0.004-3.698-0.081-7.4,0.049-11.096
	c0.219-6.208,1.109-12.317,3.14-18.199c0.651-1.887,2.006-3.292,3.324-4.736c3.036-3.328,6.957-5.547,10.147-8.659
	c3.842-3.746,7.459-7.709,10.201-12.415c0.379-0.65,0.803-0.96,1.572-0.973c3.822-0.056,7.628-0.24,11.45,0.372
	c2.237,0.356,4.552,0.205,6.829,0.467c6.147,0.708,12.338,0.729,18.508,1.078c1.775,0.101,3.466,0.528,5.182,1.024
	c8.688,2.519,16.538,7.099,24.862,10.5c4.58,1.871,9.078,3.964,13.775,5.514c2.513,0.829,5.089,1.46,7.646,2.147
	c3.559,0.956,7.003,2.306,10.621,3.097c-0.165,1.174-0.995,1.206-1.794,1.318c-0.468,0.066-0.891,0.322-0.857,0.848
	c0.043,0.65,0.605,0.938,1.115,0.815c1.346-0.326,2.721-0.546,3.905-1.424c3.615-2.681,6.631-5.941,9.304-9.593
	c1.055-1.438,2.396-2.661,3.655-3.929c5.528-5.563,11.545-10.513,17.77-15.237c4.665-3.541,9.402-7.017,13.662-11.096
	c0.476-0.456,0.872-1.002,1.408-1.625c1.456,4.304,2.154,9.001,6.879,11.088c0.324-0.969-0.404-1.136-0.814-1.478
	c-3.274-2.719-4.506-6.357-4.521-10.542c-0.001-0.375-0.04-0.846,0.151-1.108c1.225-1.684,1.503-3.729,2.155-5.631
	c0.093-0.269,0.314-0.493,0.599-0.71c-0.191,1.863-0.584,3.707-0.457,5.563c0.245,3.606,1.308,6.939,3.604,9.741
	c0.683,0.829,1.52,1.583,2.892,1.881c-0.37-1.197-1.274-1.646-1.838-2.353c-3.548-4.446-5.03-9.317-3.032-14.94
	c0.398-1.124,0.569-2.356,1.5-3.229c0.351-0.329,0.46-0.78,0.341-1.249c-0.123-0.489-0.05-0.92,0.323-1.233
	c0.771-0.649,1.431-1.793,2.597-1.325c0.94,0.38,0.58,1.595,0.88,2.406c0.115,0.311-0.004,0.75-0.107,1.103
	c-1.063,3.576-0.83,7.185-0.141,10.766c0.509,2.645,1.637,5.151,3.654,6.834c1.901,1.589,4.091,2.887,6.416,3.852
	c1.227,0.51,2.49,0.979,3.615,1.675c2.648,1.639,2.562,2.12,0.048,3.719c-0.973,0.618-1.665,0.6-2.63,0.186
	c-1.005-0.434-2.094-0.678-3.165-0.92c-0.488-0.11-1.026-0.063-1.53,0.003c-0.309,0.04-0.438,0.384-0.471,0.686
	c-0.042,0.391,0.259,0.572,0.547,0.519c1.075-0.198,1.993,0.42,3.345,0.465c-1.299,1.186-2.599,1.776-3.819,2.489
	c-4.59,2.687-9.425,4.979-13.549,8.424c-2.509,2.096-4.891,4.356-7.228,6.652c-6.917,6.791-13.751,13.671-20.684,20.445
	c-2.689,2.626-4.804,5.719-7.126,8.645c-2.93,3.689-5.842,7.398-8.618,11.208c-1.472,2.024-3.441,2.397-5.603,2.359
	c-3.591-0.064-6.889-1.457-10.201-2.662c-8.871-3.228-17.513-7.071-26.372-10.343c-4.153-1.534-8.186-3.379-12.514-4.424
	c-2.18-0.527-4.384-0.543-6.57-0.791c-2.273-0.258-4.533-0.536-6.777-0.984c-0.434-0.086-0.875-0.167-1.315-0.179
	c-2.271-0.065-4.516-0.103-6.752-0.766c-1.764-0.522-2.729,0.253-2.983,2.109c-0.401,2.901-1.707,5.465-2.815,8.077
	c-3.168,7.465-6.432,14.889-8.127,22.89c-0.548,2.585-1.797,4.947-2.03,7.633c-0.205,2.347-0.354,4.671-0.001,7.01
	c0.216,1.426,0.316,2.868,0.138,4.298c-0.295,2.349-0.081,4.667,0.124,7.008c0.548,6.25,1.672,12.423,2.275,18.663
	c0.32,3.302,0.349,6.595-0.481,9.88c-0.881,3.494-1.552,7.051-2.25,10.592c-0.13,0.65-0.509,1.16-0.859,1.528
	c-0.979,1.034-0.531,1.906,0.068,2.783c0.801,1.172,1.964,1.722,3.322,2.029c1.474,0.331,3.084,0.304,4.413,1.46
	c-0.865,1.062-1.878,1.422-3.146,1.18c-2.589-0.493-5.202-0.864-7.767-1.456c-5.634-1.301-11.347-1.731-17.096-1.844
	c-5.974-0.119-11.94,0.067-17.89,0.622c-4.914,0.456-9.789,1.185-14.649,2.106c-6.803,1.292-13.479,3.041-20.135,4.949
	c-4.382,1.256-8.126,3.445-11.236,6.819c-0.152,0.164-0.289,0.345-0.453,0.496c-2.42,2.217-4.811,4.052-8.448,2.455
	c-1.611-0.706-3.629-0.452-5.465-0.591c-0.872-0.067-1.748-0.048-2.515-0.367c-0.093-0.579,0.255-0.606,0.499-0.677
	c2.17-0.618,3.845-2.034,5.054-3.852c1.81-2.724,3.933-5.269,4.972-8.489c0.807-2.499,1.83-4.913,2.325-7.521
	c1.196-6.298,2.807-12.514,3.646-18.879c0.48-3.651,0.713-7.347,0.883-11.032c0.129-2.799,0.536-5.565,0.912-8.318
	c0.673-4.939,0.397-9.682-1.013-14.478c-1.614-5.488-3.229-10.986-4.359-16.622c-0.414-2.059-1.095-4.086-1.879-6.033
	c-0.874-2.172-1.507-4.414-2.215-6.635c-1.325-4.158-2.706-8.298-3.697-12.56c-0.084-0.366-0.273-0.729-0.268-1.092
	c0.042-2.422-1.433-3.724-3.322-4.616c-4.349-2.056-8.799-2.757-13.477-1.079c-2.077,0.746-4.293,1.072-6.389,1.769
	c-6.005,1.994-12.149,3.607-17.637,7.022c-1.617,1.007-3.511,1.538-5.253,2.342c-0.937,0.434-1.933,0.847-2.706,1.511
	c-2.952,2.528-6.589,3.296-10.142,4.162c-3.206,0.782-6.417,1.742-9.789,1.545c-3.053-0.18-5.731-1.239-8.496-2.657
	c-2.747-1.408-4.5-3.542-6.245-5.819c-1.036-1.352-1.867-2.905-2.583-4.468c-3.224-7.037-7.422-13.533-10.623-20.598
	c-2.679-5.912-6.562-11.096-10.891-15.886c-5.398-5.972-10.795-11.944-16.221-17.888c-3.074-3.368-6.356-6.496-10.168-9.001
	c-1.611-1.059-2.882-2.518-4.221-4.156c1.28-0.512,2.472-0.86,3.548-1.437c4.5-2.413,7.574-6.177,9.371-10.995
	c1.393-3.732,2.451-7.592,4.03-11.259C106.628,288.122,107.447,286.704,108.381,285.256z M244.783,479.404
	c0.999,0.932,1.625,0.45,2.21,0.01c0.651-0.492,1.209-1.119,1.886-1.563c5.037-3.314,10.265-6.097,16.259-7.27
	c8.101-1.584,16.181-2.149,24.363-0.82c3.049,0.493,6.108,0.932,9.196,1.191c1.918,0.161,3.903,0.146,5.738,1.058
	c-2.706,0.202-5.402,0.181-8.097,0.206c-2.451,0.025-4.809,0.552-7.114,1.406c-1.358,0.506-1.948,1.775-2.834,2.747
	c-0.291,0.319,0.013,0.73,0.285,0.976c0.303,0.272,0.509-0.018,0.723-0.228c2.179-2.146,4.844-2.928,7.799-3.188
	c4.409-0.385,8.82-0.304,13.234-0.355c0.732-0.01,1.469-0.06,2.193-0.17c0.358-0.056,0.688-0.319,0.746-0.742
	c0.06-0.431-0.205-0.656-0.554-0.858c-1.617-0.94-3.288-1.66-5.182-1.768c-1.981-0.111-3.971-0.248-5.879-0.887
	c-1.893-0.633-3.827-1.067-5.802-1.341c-3.708-0.516-7.437-1.156-11.171-0.806c-3.513,0.332-7.037,0.338-10.55,0.738
	c-5.212,0.595-10.325,1.266-15.144,3.661C252.71,473.58,248.69,476.242,244.783,479.404z"/>
<path fill="#3C97D3" d="M259.75,635.81c1.898,1.854,3.993,3.126,6.064,4.399c1.904,1.172,4.063,1.226,6.227,1.062
	c0.796-0.062,1.315-0.51,1.729-1.133c-4.586-0.607-8.564-2.447-11.508-6.183c-4.747-6.02-6.516-9.38-8.975-16.746
	c-0.667-1.998-1.03-4.08-1.386-6.165c-0.864-5.056-1.776-10.104-2.67-15.154c-0.053-0.297-0.173-0.589-0.18-0.886
	c-0.057-2.537-0.663-4.913-1.971-7.075c-1.149-1.898-1.693-4.028-2.195-6.149c-1.926-8.152-4.123-16.24-5.5-24.518
	c-0.502-3.021-1.117-6.048-0.937-9.162c0.045-0.789-0.422-1.597-0.534-2.411c-0.268-1.944-0.447-3.902-0.689-5.848
	c-0.764-6.137-1.945-12.214-2.45-18.389c-0.019-0.225-0.081-0.452-0.069-0.677c0.303-5.827-0.673-11.613-0.531-17.442
	c0.035-1.446,0.524-2.241,1.655-2.82c0.526-0.272,1.039-0.611,1.596-0.774c2.35-0.688,4.197-2.098,5.786-3.965
	c1.014-1.191,2.072-2.366,3.238-3.397c1.718-1.52,3.896-2.193,6.035-2.644c7.98-1.687,15.908-3.632,23.981-4.896
	c4.526-0.71,9.029-1.121,13.592-1.306c3.224-0.131,6.43-0.731,9.669-0.795c5.759-0.111,11.425,0.683,17.037,1.968
	c1.077,0.246,2.152,0.504,3.241,0.687c1.81,0.305,1.866,0.319,2.27,2.149c0.603,2.733,1.049,5.486,1.016,8.303
	c-0.014,1.062,0.146,2.101,0.374,3.141c0.324,1.474,0.481,2.971,0.439,4.5c-0.078,2.872,0.175,5.738,0.45,8.595
	c0.364,3.761,0.021,7.527,0.186,11.286c0.275,6.331,0.871,12.65,1.097,18.983c0.214,6.034,0.368,12.078,0.002,18.127
	c-0.263,4.368-0.162,8.768-0.672,13.115c-0.931,7.889-0.804,15.828-1.247,23.74c-0.133,2.388-0.006,4.782,0.223,7.285
	c-0.539-0.202-0.862-0.323-1.232-0.464c-0.017,0.26-0.074,0.481-0.034,0.683c0.13,0.662,0.312,1.318,0.441,1.983
	c0.097,0.506,0.567,1.241-0.588,1.089c-0.188-0.024-0.263,0.347-0.187,0.567c0.882,2.608,0.113,5.252,0.078,7.86
	c-0.051,3.689,0.002,7.414-0.65,11.073c-0.689,3.862-1.393,7.718-3.089,11.294c-0.42,0.887-0.801,1.789-1.554,2.448
	c-0.407,0.358-0.459,0.831-0.104,1.184c0.431,0.427,0.82,0.058,1.074-0.313c1.235-1.812,2.022-3.852,2.671-5.938
	c0.197-0.637,0.335-1.279,0.687-2.09c0.382,0.698,0.299,1.281,0.244,1.807c-0.46,4.348-0.313,8.757-1.224,13.067
	c-0.814,3.854-0.926,7.799-1.175,11.72c-0.291,4.604-1.235,9.122-1.705,13.702c-0.177,1.722-0.169,3.493-0.55,5.169
	c-1.638,7.171-2.389,14.537-4.554,21.597c-0.909,2.969-1.137,6.065-1.085,9.182c0.046,2.798,0.002,5.595-0.02,8.392
	c-0.007,0.976-0.096,1.825-1.479,1.581c-0.881-0.155-1.714,0.339-2.496,0.754c-0.589,0.313-1.214,0.612-1.697,1.059
	c-2.491,2.303-5.667,3.023-8.704,4.08c-0.515,0.179-1.038,0.2-1.517,0.002c-1.497-0.625-3.019-1.255-4.28-2.305
	c-1.716-1.428-2.505-3.18-1.977-5.594c0.74-3.377,1.393-6.801,1.739-10.242c0.606-6.032,0.296-12.083-0.222-18.117
	c-0.756-8.82-1.117-17.644-0.518-26.495c0.198-2.928,0.02-5.871,0.275-8.811c0.319-3.693,1.029-7.288,1.815-10.903
	c1.049-4.838,2.173-9.65,2.239-14.722c0.053-3.915-0.096-7.835-0.034-11.752c0.036-2.241-0.379-4.503-0.705-6.736
	c-0.62-4.271-0.349-8.604-0.95-12.868c-0.294-2.106-0.042-4.255-0.329-6.326c-0.866-6.22-0.681-12.5-1.23-18.741
	c-0.802-9.091-1.396-18.238-0.375-27.372c0.178-1.599-0.272-3.15,0.002-4.743c1.157-6.749,1.641-13.618,3.708-20.207
	c0.827-2.645,1.138-5.455,1.726-8.181c0.286-1.33-0.217-2.54-0.434-3.792c-0.063-0.373-0.282-0.738-0.723-0.7
	c-0.456,0.044-0.558,0.462-0.574,0.839c-0.075,1.745-0.625,3.401-0.897,5.107c-0.617,3.886-1.674,7.66-2.837,11.397
	c-0.86,2.767-0.946,5.65-1.479,8.463c-0.082,0.435-0.044,0.901-0.47,1.221c-0.629-0.328-0.747-0.946-0.854-1.49
	c-0.745-3.757-2.7-7.202-2.751-11.143c-0.005-0.442,0.007-0.96-0.606-1.01c-0.476-0.038-0.532,0.385-0.688,0.728
	c-0.312,0.681-0.705,1.327-1.024,2.004c-0.295,0.628-0.352,1.237-0.058,1.947c1.697,4.124,2.595,8.491,3.724,12.79
	c0.685,2.613,0.938,5.343,2.054,7.847c0.231,0.518,0.154,1.191,0.169,1.795c0.175,8.316,0.301,16.635,0.532,24.95
	c0.125,4.534,0.555,9.062,0.6,13.595c0.027,2.707,0.059,5.405,0.174,8.116c0.328,7.783,1.309,15.507,1.808,23.272
	c0.155,2.41,0.123,4.827,0.462,7.229c0.257,1.825-0.22,3.618-0.5,5.401c-0.61,3.88-0.923,7.783-1.259,11.692
	c-0.181,2.103-0.624,4.182-0.99,6.262c-1.323,7.514-3.011,14.941-5.096,22.271c-1.463,5.147-2.538,10.397-4.088,15.522
	c-1.479,4.886-2.802,9.82-4.294,14.702c-0.459,1.501-1.221,2.91-1.893,4.336c-0.687,1.46-1.633,2.682-3.141,3.357
	c-0.468,0.213-0.901,0.521-1.316,0.834c-3.652,2.743-7.274,1.866-9.235-2.289c-0.837-1.771-1.396-3.62-1.658-5.604
	c-0.854-6.477-0.713-12.979-0.708-19.478c0.003-4.461,0.025-8.92,0.009-13.379c-0.028-7.335,0.34-14.66,0.522-21.987
	c0.075-3.022,0.208-6.043,0.306-9.062C259.38,637.127,259.35,636.521,259.75,635.81z"/>
<path fill="#5D5E5E" d="M310.752,722.337c-1.487,3.664-1.431,7.504-2.064,11.217c-0.539,3.149-0.469,6.317-0.26,9.491
	c0.1,1.497-0.007,3.003-0.021,4.494c-0.018,1.912,0.492,3.854,0.963,5.736c1.436,5.723,2.384,11.519,2.781,17.413
	c0.088,1.331-0.185,2.523-0.772,3.703c-1.415,2.841-3.021,5.486-5.742,7.256c-1.48,0.962-3.115,1.402-4.774,1.664
	c-2.552,0.404-5.134,0.181-7.693-0.096c-1.065-0.114-1.875-0.851-2.664-1.522c-2.496-2.125-3.907-4.874-4.343-8.16
	c-0.207-1.567-0.383-3.141-0.633-4.699c-0.725-4.524,0.539-8.858,1.163-13.254c0.806-5.679,2.491-11.19,3.183-16.891
	c0.39-3.218,0.828-6.423,1.395-9.612c0.282-1.583,0.671-2.023,1.716-1.339c3.604,2.36,6.617,0.523,9.616-1.283
	c1.965-1.185,3.821-2.561,5.735-3.836C309.023,722.161,309.739,721.748,310.752,722.337z"/>
<path fill="#FEE5D2" d="M75.172,263.09c0.926-0.529,1.866-0.409,2.756,0.302c0.814,0.65,1.754,1.201,2.389,2.002
	c1.994,2.517,4.705,4.101,7.159,6.015c0.719,0.561,1.436,1.153,1.849,1.924c1.253,2.338,3.106,4.21,4.547,6.398
	c0.538,0.816,1.11,1.625,1.381,2.574c1.07,3.736,3.217,6.939,4.843,10.398c0.096,0.203,0.192,0.434,0.353,0.572
	c2.183,1.852,1.366,3.975,0.517,6.08c-1.372,3.395-3.505,6.267-5.907,8.955c-0.564,0.633-1.334,0.929-2.003,1.389
	c-0.611,0.419-1.176,0.964-1.968,0.939c-1.014-0.031-0.86-1.088-1.242-1.647c-2.815-4.112-6-7.786-10.449-10.127
	c-3.285-1.728-6.251-3.975-9.085-6.372c-2.406-2.033-5.179-3.421-7.806-5.066c-2.697-1.687-5.474-3.262-8.055-5.12
	c-2.167-1.559-3.997-3.577-5.632-5.721c-0.88-1.153-1.13-2.608-1.016-4.079c0.036-0.469,0.279-0.887,0.809-0.926
	c0.425-0.032,0.648,0.297,0.809,0.647c0.095,0.204,0.176,0.422,0.216,0.642c0.479,2.673,2.079,4.612,3.956,6.367
	c1.027,0.962,2.056,1.921,3.094,2.87c0.273,0.251,0.554,0.543,0.883,0.665c0.473,0.174,0.859-0.073,1.058-0.555
	c0.216-0.523-0.194-0.562-0.512-0.763c-2.122-1.336-4.182-2.757-5.86-4.688c-1.125-1.294-1.489-2.917-1.925-4.512
	c-0.039-0.141-0.089-0.358-0.021-0.437c1.801-2.075,0.495-4.18-0.175-6.081c-0.923-2.619-0.722-5.151-0.445-7.762
	c0.801-0.202,0.933,0.419,1.194,0.812c2.094,3.138,3.389,6.663,4.674,10.195c0.795,2.189,1.667,4.352,2.448,6.546
	c0.341,0.958,0.879,1.744,1.6,2.403c1.365,1.249,3.098,1.973,4.44,3.281c0.613,0.595,1.166,0.172,1.713-0.582
	c-5.796-2.242-8.252-6.938-9.417-12.655c-0.448-2.198-0.717-4.385-0.498-6.627c0.076-0.789,0.525-1.208,1.205-1.437
	c0.719-0.244,0.886,0.424,1.137,0.816c1.893,2.962,3.676,6.002,5.637,8.914c4,5.94,4.033,5.93,10.697,8.379
	c1.538,0.564,2.893,1.471,4.337,2.18c1.754,0.86,3.171,2.108,4.749,3.167c1.215,0.816,1.984,1.753,2.39,3.074
	c0.355,1.16,1.152,1.846,2.081,2.48c0.44,0.3,0.751,0.405,1.113-0.058c0.33-0.422,0.325-0.822-0.017-1.218
	c-1.795-2.08-3.038-4.601-5.167-6.438c-1.625-1.403-3.116-3.062-3.681-5.259c-0.54-2.104-1.514-3.962-2.499-5.861
	c-0.998-1.922-1.682-4.017-2.509-6.032C75.207,263.783,74.984,263.546,75.172,263.09z"/>
<path fill="#5D5E5E" d="M257.522,708.203c1.062,0.932,1.752,1.478,2.375,2.093c2.894,2.863,6.489,3.488,10.215,2.951
	c1.765-0.256,3.311-1.577,4.552-3.037c0.566-0.664,1.135-1.327,1.901-2.222c0.322,1,0.281,1.73,0.16,2.438
	c-0.648,3.826-0.402,7.672-0.423,11.525c-0.031,5.433,0.457,10.866,0.06,16.303c-0.178,2.443-0.772,4.721-1.957,6.885
	c-2.237,4.09-4.517,8.142-7.452,11.756c-1.033,1.273-2.107,2.522-3.268,3.669c-1.759,1.738-3.664,1.952-5.868,0.885
	c-2.687-1.305-5.102-2.975-7.128-5.232c-1.937-2.158-2.675-4.81-3.063-7.601c-0.749-5.398,0.5-10.435,2.491-15.407
	c1.391-3.476,2.778-6.969,3.755-10.608c0.25-0.936,0.71-1.816,1.129-2.695c0.647-1.36,1.093-2.765,1.435-4.244
	C256.97,713.35,257.618,711.071,257.522,708.203z"/>
<path fill="#FEE5D2" d="M278.656,368.475c-0.621-2.694-1.25-5.375-1.858-8.06c-0.849-3.746-1.345-7.568-2.401-11.273
	c-1.097-3.848-2.502-7.599-3.998-11.268c-1.648-4.04-1.887-8.008-1.152-12.17c0.379-2.152,0.84-4.291,1.254-6.437
	c0.27-1.405,1.028-2.353,2.173-3.233c4.432-3.403,9.394-3.416,14.542-2.798c4.697,0.562,8.432,2.942,11.766,6.181
	c0.428,0.415,0.955,0.768,1.136,1.362c0.333,1.086,1.144,1.697,1.951,2.371c1.955,1.632,2.261,3.71,0.687,5.74
	c-2.39,3.085-4.571,6.275-6.032,9.953c-0.499,1.258-1.329,2.345-2.199,3.384c-2.585,3.095-5.146,6.213-7.742,9.298
	c-1.993,2.367-3.189,5.209-4.57,7.939c-1.291,2.552-2.336,5.208-2.812,8.066C279.338,367.904,279.252,368.278,278.656,368.475z"/>
<path fill="#FEE5D2" d="M476.457,305.161c1.429-0.546,2.134-1.688,2.924-2.558c2.325-2.562,5.318-4.035,8.235-5.583
	c2.002-1.062,4.025-2.128,6.138-3.011c1.292-0.541,2.399-1.749,3.372-2.856c3.446-3.922,6.669-8.033,9.089-12.729
	c0.806-1.562,2.266-2.581,3.083-4.125c0.228-0.434,0.719-0.578,1.145-0.263c0.39,0.29,0.535,0.729,0.213,1.184
	c-1.363,1.928-1.834,4.27-2.821,6.369c-1.252,2.666-3.133,4.928-4.818,7.298c-1.499,2.111-2.733,4.496-4.927,6.035
	c-0.235,0.165-0.195,0.561,0.002,0.823c0.259,0.345,0.553,0.113,0.75-0.057c0.395-0.335,0.794-0.69,1.092-1.109
	c1.812-2.567,3.761-5.029,5.562-7.607c1.122-1.607,1.957-3.523,3.804-4.571c0.754-0.428,0.896-1.511,1.591-2.134
	c1.297-1.166,2.877-1.815,4.325-2.703c0.243-0.149,0.558-0.21,0.81,0.035c0.243,0.237,0.237,0.569,0.146,0.848
	c-0.137,0.428-0.313,0.854-0.547,1.235c-1.685,2.746-3.309,5.507-5.602,7.829c-2.619,2.65-5.077,5.476-7.324,8.476
	c-0.265,0.353-0.628,0.65-0.411,1.423c2.68-1.54,4.466-3.959,6.437-6.144c2.041-2.264,4.448-4.088,6.729-6.122
	c-0.674,2.246-1.633,4.314-3.132,6.079c-0.919,1.08-1.903,2.102-2.849,3.161c-0.21,0.235-0.298,0.585-0.158,0.846
	c0.229,0.427,0.603,0.301,0.943,0.1c1.339-0.789,2.688-1.562,4.015-2.372c0.815-0.499,1.622-0.982,2.709-1.008
	c0.022,1.508-0.917,2.287-1.873,2.886c-2.196,1.376-4.096,3.22-6.476,4.301c-0.402,0.183-0.762,0.522-1.177,0.613
	c-3.856,0.855-5.727,4.179-8.105,6.849c-3.158,3.541-6.051,7.322-10.297,9.698c-1.576,0.883-3.064,2.049-4.471,3.291
	c-2.453,2.164-5.034,4.18-7.61,6.194c-0.909,0.711-1.728,1.124-3.107,0.321c-3.461-2.019-4.972-5.075-5.183-8.901
	c-0.135-2.461-0.397-4.981,0.511-7.397c0.211-0.564,0.255-1.214,0.048-1.789c-0.662-1.82-0.312-3.478,0.406-5.225
	c1.283-3.125,2.364-6.337,3.545-9.509c0.558-1.504,1.48-2.798,2.55-3.935c1.44-1.53,2.623-3.248,3.819-4.966
	c0.431-0.621,0.785-1.25,1.753-0.89c0.919,0.343,1.59,0.82,1.61,1.885c0.01,0.522-0.097,1.048-0.172,1.567
	c-0.355,2.463-0.672,4.934-1.088,7.385c-0.395,2.322-1.112,4.483-2.858,6.204C477.605,301.717,476.698,303.158,476.457,305.161z"/>
<path fill="#42C2F1" d="M304.73,324.204c2.303,0.713,4.388,0.274,6.396,0.571c0.3,0.726-0.14,1.228-0.384,1.745
	c-1.573,3.326-2.985,6.723-4.396,10.124c-0.959,2.312-2.539,4.245-3.971,6.252c-1.257,1.766-2.699,3.396-4.076,5.071
	c-1.338,1.63-2.896,2.975-4.667,4.12c-5.411,3.5-9.72,7.987-12.086,14.26c-0.952,2.524-1.185,5.113-1.292,7.967
	c-0.927-0.725-0.755-1.567-0.64-2.302c1.019-6.487,3.207-12.557,6.714-18.037c1.477-2.309,3.506-4.247,5.291-6.348
	c2.443-2.88,5.131-5.52,6.954-8.965c0.755-1.431,1.577-2.838,2.181-4.347c0.604-1.508,1.786-2.583,2.698-3.834
	c0.909-1.247,1.273-2.483,1.277-3.941C304.732,325.868,304.73,325.194,304.73,324.204z"/>
<path fill="#42C2F1" d="M277.266,376.474c-0.936-1.442-1.523-3.045-2.234-4.576c-2.438-5.25-4.797-10.54-7.08-15.864
	c-1.186-2.765-1.617-5.775-2.215-8.718c-0.584-2.876-1.341-5.709-1.605-8.662c-0.191-2.123-0.178-4.208,0.112-6.295
	c0.422-3.033-0.317-4.444-3.099-5.659c-0.202-0.089-0.417-0.148-0.626-0.222c-0.354-0.125-0.743-0.287-0.689-0.734
	c0.046-0.389,0.375-0.657,0.735-0.778c0.344-0.116,0.714-0.2,1.074-0.208c2.003-0.048,3.578-0.757,4.393-2.792
	c0.218-0.545,0.609-1.006,1.409-1.342c0.103,2.091-0.086,4.08-0.619,5.822c-0.73,2.393-0.241,4.646,0.063,6.881
	c0.892,6.525,3.213,12.663,5.332,18.843c1.102,3.216,1.691,6.558,2.383,9.872c0.461,2.219,0.867,4.445,1.631,6.58
	C277.13,371.135,277.326,373.755,277.266,376.474z"/>
<path d="M244.783,479.404c3.907-3.162,7.927-5.824,12.305-8.002c4.818-2.394,9.932-3.066,15.143-3.661
	c3.513-0.398,7.038-0.406,10.55-0.736c3.733-0.351,7.462,0.288,11.171,0.804c1.975,0.273,3.908,0.71,5.803,1.343
	c1.908,0.637,3.897,0.773,5.878,0.885c1.894,0.107,3.564,0.827,5.183,1.77c0.348,0.2,0.612,0.428,0.553,0.856
	c-0.057,0.423-0.388,0.688-0.746,0.744c-0.724,0.11-1.461,0.16-2.193,0.168c-4.413,0.052-8.823-0.027-13.234,0.357
	c-2.955,0.258-5.62,1.041-7.8,3.186c-0.214,0.212-0.419,0.502-0.722,0.228c-0.272-0.243-0.576-0.656-0.286-0.974
	c0.887-0.972,1.477-2.241,2.834-2.747c2.306-0.854,4.664-1.381,7.114-1.406c2.694-0.025,5.392-0.006,8.097-0.206
	c-1.834-0.914-3.82-0.896-5.737-1.06c-3.088-0.258-6.148-0.696-9.197-1.189c-8.182-1.329-16.262-0.766-24.363,0.82
	c-5.994,1.173-11.221,3.953-16.259,7.268c-0.676,0.446-1.235,1.073-1.886,1.563C246.408,479.854,245.782,480.336,244.783,479.404z"
	/>
</svg>
