<?xml version="1.0" encoding="utf-8"?>
<!-- Generator: Adobe Illustrator 16.0.4, SVG Export Plug-In . SVG Version: 6.00 Build 0)  -->
<!DOCTYPE svg PUBLIC "-//W3C//DTD SVG 1.1//EN" "http://www.w3.org/Graphics/SVG/1.1/DTD/svg11.dtd">
<svg version="1.1" id="Layer_1" xmlns="http://www.w3.org/2000/svg" xmlns:xlink="http://www.w3.org/1999/xlink" x="0px" y="0px"
	 width="126px" height="260.172px" viewBox="64.5 30.328 126 260.172" enable-background="new 64.5 30.328 126 260.172"
	 xml:space="preserve">
<g>
	<path d="M154.021,33.446c3.65,0.383,7.315-0.254,10.966,0.14c4.163,0.448,7.398,2.523,9.926,5.771
		c2.398,3.083,4.496,6.395,7.108,9.315c0.226,0.251,0.409,0.572,0.118,0.847c-0.366,0.346-0.856,0.345-1.184-0.024
		c-1.001-1.131-1.995-2.274-2.918-3.469c-1.714-2.217-3.208-4.631-5.104-6.674c-2.326-2.506-5.342-3.906-8.844-3.956
		c-3.31-0.047-6.62-0.03-9.93-0.029c-2.706,0-5.414,0.277-7.829,1.504c-1.545,0.785-2.947,1.893-3.957,3.476
		c-1.413,2.217-3.269,4.133-4.393,6.565c-1.81,3.916-3.511,7.867-4.831,11.981c-1.064,3.315-2.403,6.55-3.323,9.901
		c-1.081,3.94-2.485,7.795-3.156,11.855c-0.192,1.165-0.869,2.271-1.438,3.343c-0.252,0.474-0.409,1.024-0.276,1.39
		c0.214,0.595-0.04,1.068-0.214,1.473c-1.121,2.615-1.777,5.363-2.497,8.098c-0.585,2.221-1.282,4.413-1.839,6.641
		c-0.93,3.715-1.76,7.412-1.744,11.323c0.011,2.823-0.637,5.685-1.525,8.427c-0.357,1.104-0.533,2.246-0.679,3.391
		c-0.327,2.567-1.073,5.046-1.572,7.575c-0.998,5.054-2.582,9.961-3.618,15.014c-0.672,3.273-1.574,6.54-2.505,9.779
		c-1.101,3.83-2.296,7.649-3.104,11.567c-0.678,3.278-1.549,6.516-2.298,9.776c-1,4.353-2.459,8.573-3.423,12.934
		c-0.597,2.701-1.684,5.292-2.35,7.981c-0.948,3.828-1.648,7.718-2.582,11.55c-0.476,1.955-1.341,3.814-1.831,5.766
		c-0.858,3.416-2.553,6.51-3.612,9.84c-0.837,2.625-1.604,5.268-2.983,7.685c-0.1,0.176,0.224,0.51,0.163,0.893
		c-0.417,2.639-2.318,4.454-4.991,4.671c-0.239,0.02-0.481,0.008-0.718,0.042c-0.418,0.059-0.802,0.198-0.835,0.699
		c-0.032,0.484,0.153,0.906,0.652,1.015c3.325,0.724,6.556,2.075,10.021,1.9c3.579-0.18,7.163-0.172,10.744-0.379
		c2.599-0.15,5.21,0.312,7.737,1.109c2.862,0.902,5.673,1.94,8.471,3.022c3.294,1.274,6.271,0.555,8.668-2.021
		c0.394-0.423,0.177-0.702-0.068-1.133c-1.189-2.085-2.139-4.535-1.452-6.719c1.104-3.509,1.581-7.19,2.954-10.593
		c1.453-3.604,2.271-7.397,3.59-11.042c1.145-3.163,1.82-6.492,2.809-9.715c0.391-1.275,1.146-2.444,1.413-3.766
		c0.471-2.33,1.444-4.524,1.949-6.814c0.893-4.052,2.525-7.835,3.869-11.716c0.843-2.434,1.854-4.837,3.07-7.134
		c0.785-1.483,0.95-3.174,1.522-4.741c1.254-3.437,2.393-6.914,3.717-10.329c1.861-4.798,3.578-9.652,5.492-14.429
		c0.931-2.322,1.906-4.652,2.493-7.052c0.901-3.682,2.822-6.999,3.542-10.73c0.167-0.868,0.599-1.767,1.147-2.464
		c1.356-1.726,1.587-3.872,2.287-5.821c0.972-2.708,2.074-5.369,2.929-8.125c0.529-1.708,0.838-3.464,1.471-5.156
		c2.279-6.097,3.386-12.485,4.365-18.894c0.054-0.354,0.085-0.718,0.2-1.052c0.13-0.38,0.469-0.578,0.856-0.5
		c0.453,0.091,0.275,0.478,0.282,0.784c0.069,3.103-0.284,6.195-0.142,9.306c0.095,2.082-0.376,4.149-0.642,6.217
		c-0.01,0.076-0.061,0.15-0.061,0.225c-0.003,1.454-0.339,2.767-1.135,4.044c-1.094,1.756-0.914,3.914-1.49,5.862
		c-0.829,2.804-1.761,5.561-3.31,8.009c-3.259,5.148-5.253,10.834-7.418,16.461c-2.253,5.854-4.346,11.784-6.928,17.491
		c-1.879,4.154-3.368,8.438-4.961,12.684c-1.22,3.25-2.66,6.447-3.432,9.869c-0.179,0.792-0.743,1.491-1.062,2.261
		c-1.659,4.01-3.194,8.066-4.427,12.232c-1.123,3.794-2.248,7.588-3.409,11.371c-0.618,2.012-1.481,3.962-1.937,6.006
		c-0.759,3.402-1.863,6.692-3.081,9.931c-1.204,3.205-1.937,6.541-3.027,9.777c-0.853,2.531-1.944,5.203-1.409,7.993
		c0.417,2.172,0.774,4.418,1.878,6.372c0.559,0.989,0.157,1.641-0.389,2.202c-1.68,1.721-3.589,3.095-6.141,3.106
		c-0.504,0.002-0.669,0.194-0.802,0.634c-1.285,4.268-2.311,8.597-2.914,13.011c-0.147,1.08-0.018,2.265,0.268,3.325
		c0.691,2.566,0.228,4.878-1.188,7.049c-0.579,0.888-0.583,1.917-0.652,2.878c-0.165,2.284-1.359,4.015-2.689,5.723
		c-1.414,1.817-3.166,3.148-5.233,4.188c-3.13,1.574-6.409,2.465-9.878,2.221c-2.078-0.146-4.035-1.015-5.972-1.858
		c-2.421-1.054-4.931-1.903-7.405-2.833c-3.317-1.245-6.566-2.571-9.15-5.159c-0.954-0.955-2.016-1.7-2.269-3.188
		c-0.117-0.686,0.182-1.229,0.165-1.861c-0.053-2.035,0.004-4.073-0.011-6.109c-0.008-1.163,0.046-2.274,0.688-3.327
		c0.999-1.642,1.116-3.521,1.212-5.386c0.14-2.725,1.471-4.999,2.75-7.291c0.954-1.709,1.428-3.565,1.916-5.45
		c0.534-2.058,0.326-3.578-1.808-4.471c-0.258-0.108-0.404-0.479-0.608-0.724c-1.426-1.712-1.257-1.869,0.703-2.689
		c2.985-1.249,5.192-3.448,6.684-6.361c1.712-3.346,2.383-7.067,3.849-10.49c0.998-2.33,1.686-4.761,2.624-7.109
		c0.667-1.669,0.881-3.52,1.309-5.282c0.371-1.532,0.855-3.039,1.173-4.584c0.35-1.699,0.71-3.395,1.056-5.094
		c0.415-2.047,1.196-3.991,1.713-6.004c0.737-2.869,1.745-5.656,2.485-8.519c0.913-3.527,1.733-7.08,2.552-10.63
		c1.051-4.556,2.019-9.134,3.395-13.605c1.142-3.712,1.89-7.522,2.923-11.257c1.489-5.38,2.642-10.834,3.862-16.273
		c1.155-5.149,2.295-10.306,3.229-15.498c0.481-2.68,1.055-5.372,1.034-8.133c-0.012-1.641,0.711-3.145,1.062-4.719
		c1.055-4.728,2.285-9.412,3.636-14.064c0.134-0.461,0.304-0.891,0.493-1.331c0.385-0.894,0.734-1.785,0.644-2.846
		c-0.062-0.724,0.325-1.45,0.69-2.174c0.568-1.13,1.087-2.338,1.33-3.637c0.24-1.277,0.617-2.537,1.037-3.77
		c0.87-2.555,1.08-5.287,2.121-7.793c2.061-4.963,3.165-10.25,5.147-15.239c1.021-2.567,1.914-5.21,3.205-7.637
		c1.259-2.364,2.828-4.585,4.57-6.646c0.39-0.461,0.706-0.871,0.863-1.49c0.247-0.969,1.071-1.538,1.896-2.035
		c2.029-1.224,4.26-1.82,6.589-2.141C151.808,33.596,152.896,33.357,154.021,33.446z M97.951,245.845
		c-2.203,0.043-3.424,0.145-6.639,1.81c-0.912,0.472-1.938,0.758-2.778,1.327c-2.002,1.358-3.704,3.089-5.371,4.825
		c-2.358,2.455-4.947,4.856-3.903,8.852c0.211,0.807,0.289,1.638,0.662,2.412c1.443,3,4.203,4.276,7.057,5.41
		c2.565,1.019,5.104,2.104,7.65,3.165c2.583,1.077,5.186,1.6,7.967,1.552c2.898-0.05,5.772-0.48,8.687-0.35
		c3.195,0.143,6.507-3.359,6.331-6.501c-0.033-0.59-0.554-1.019-0.426-1.686c0.414-2.158-0.614-4.021-1.59-5.747
		c-1.248-2.206-2.846-4.215-3.95-6.52c-0.85-1.773-2.078-3.285-3.594-4.48c-1.335-1.053-2.929-1.75-4.424-2.58
		C101.819,246.326,99.984,245.808,97.951,245.845z M78.299,263.579c-1.688,0.825-1.792,2.312-1.975,3.829
		c-0.237,1.977,0.193,3.97-0.184,5.925c-0.448,2.332,0.837,3.701,2.48,4.993c2.396,1.884,5.349,2.605,7.99,3.971
		c2.443,1.264,5.209,1.761,7.643,2.984c3.965,1.994,7.844,1.366,11.795,0.193c2.994-0.888,5.146-2.931,7.036-5.259
		c1.055-1.301,2-2.725,2.398-4.492c-0.841,0.137-1.496,0.512-2.253,0.637c-2.229,0.367-4.472,0.072-6.694,0.304
		c-4.583,0.479-9.016,0.143-13.228-1.999c-2.285-1.163-4.647-2.22-7.067-3.062C82.24,270.209,79.496,267.688,78.299,263.579z
		 M117.256,261.217c0.396-0.17,0.487-0.423,0.511-0.639c0.37-3.451,1.547-6.729,2.189-10.124c0.214-1.125-0.361-1.375-1.042-1.458
		c-1.566-0.19-2.955-0.891-4.429-1.337c-2.336-0.709-4.494-1.928-6.92-2.398c-1.667-0.323-3.321-0.685-5.055-0.282
		c0.832,0.242,1.419,0.854,2.148,1.236c3.633,1.904,6.688,4.396,8.598,8.17C114.438,256.718,115.895,258.912,117.256,261.217z
		 M79.451,255.118c3.704-3.875,7.384-7.595,12.293-9.818c-2.591-0.131-4.991-0.862-7.425-1.39c-0.741-0.161-1.027-0.081-0.96,0.742
		c0.076,0.934-0.243,1.775-0.722,2.585c-1.11,1.882-1.253,4.138-2.291,6.062C80.048,253.853,79.446,254.29,79.451,255.118z"/>
	<path fill="#3C97D3" d="M155.457,35.284c3.4,0,6.811-0.163,10.199,0.042c3.854,0.234,7.146,1.885,9.464,4.929
		c1.912,2.511,3.711,5.131,5.839,7.451c2.006,2.187,1.922,4.457,1.188,6.901c-0.621,2.069-1.377,4.106-2.186,6.115
		c-2,4.964-3.617,10.028-4.732,15.255c-0.548,2.567-0.496,5.17-0.761,7.751c-0.331,3.23-1.076,6.382-1.597,9.574
		c-0.277,1.692-0.01,3.364-0.214,5.049c-0.375,3.103-0.762,6.156-2.135,9.061c-1.173,2.48-1.55,5.244-2.505,7.826
		c-1.224,3.305-2.128,6.804-3.673,9.898c-1.657,3.324-2.512,6.884-4.12,10.192c-0.939,1.934-1.436,4.082-2.049,6.156
		c-0.913,3.09-2.279,6.009-3.439,9.007c-0.591,1.526-1.042,3.104-1.652,4.621c-1.096,2.715-2.283,5.394-3.388,8.105
		c-0.405,0.993-0.66,2.042-1.017,3.054c-0.832,2.345-1.863,4.638-2.485,7.033c-0.803,3.087-2.412,5.833-3.577,8.76
		c-0.938,2.362-1.712,4.782-2.708,7.12c-1.528,3.593-2.413,7.394-3.518,11.105c-1.581,5.312-3.306,10.586-4.933,15.882
		c-1.168,3.804-2.236,7.667-3.783,11.378c-0.834,2-1.175,4.203-1.64,6.334c-0.181,0.834-0.555,1.538-0.926,2.283
		c-0.711,1.427-0.191,2.91,0.043,4.352c0.208,1.294,0.651,2.534,1.464,3.613c0.273,0.363,0.188,0.681-0.132,0.948
		c-1.329,1.112-2.709,2.147-4.407,2.69c-0.524,0.167-1.056,0.226-1.576,0.077c-3.153-0.899-6.21-2.069-9.312-3.107
		c-3.727-1.247-7.554-2.036-11.608-1.678c-3.704,0.327-7.456,0.351-11.177,0.234c-1.96-0.062-3.906-0.692-5.849-1.101
		c-0.881-0.185-1.734-0.488-2.613-0.674c-0.604-0.127-1.004-0.395-1-1.014c0.004-0.721,0.59-0.804,1.134-0.812
		c1.362-0.021,2.539-0.414,3.61-1.282c1.356-1.099,2.022-2.321,1.864-4.135c-0.068-0.781,0.755-1.643,1.084-2.517
		c1.697-4.503,3.637-8.93,5.106-13.501c1.135-3.529,2.431-7.014,3.125-10.71c0.43-2.287,1.025-4.635,1.707-6.923
		c0.71-2.379,1.326-4.8,2.013-7.196c1.287-4.495,2.691-8.964,3.776-13.505c0.659-2.748,1.544-5.438,2.051-8.229
		c0.595-3.275,1.507-6.491,2.449-9.693c1.309-4.451,2.599-8.905,3.65-13.427c0.949-4.089,2.009-8.155,3.075-12.219
		c1.158-4.411,2.17-8.868,2.926-13.382c0.463-2.771,1.386-5.479,1.768-8.287c0.199-1.454,0.277-2.911,0.297-4.377
		c0.028-2.154,0.334-4.258,1.165-6.288c0.308-0.752,0.264-1.634,0.479-2.431c0.961-3.549,1.871-7.114,2.981-10.618
		c0.447-1.417,0.747-2.903,1.529-4.23c0.546-0.925-0.065-2.103,0.596-3.081c1.369-2.029,1.504-4.463,2.204-6.712
		c0.607-1.949,1.259-3.902,1.746-5.864c0.512-2.064,1.265-4.021,1.963-6.009c1.993-5.682,3.783-11.424,6.402-16.898
		c1.721-3.599,4.097-6.719,6.702-9.648c1.162-1.307,2.939-2.25,4.946-2.585C151.345,35.607,153.368,35.214,155.457,35.284z"/>
	<path fill="#414042" d="M97.951,245.844c2.033-0.036,3.868,0.482,5.679,1.488c1.495,0.83,3.089,1.527,4.424,2.58
		c1.516,1.196,2.744,2.708,3.594,4.48c1.104,2.305,2.702,4.314,3.95,6.52c0.976,1.725,2.004,3.588,1.59,5.747
		c-0.128,0.667,0.393,1.096,0.426,1.686c0.176,3.143-3.136,6.645-6.331,6.501c-2.914-0.13-5.788,0.3-8.687,0.35
		c-2.781,0.048-5.384-0.475-7.967-1.552c-2.546-1.061-5.085-2.146-7.65-3.165c-2.854-1.134-5.613-2.41-7.057-5.41
		c-0.373-0.773-0.451-1.604-0.662-2.412c-1.044-3.996,1.545-6.397,3.903-8.852c1.667-1.735,3.369-3.467,5.371-4.825
		c0.84-0.569,1.866-0.854,2.778-1.327C94.527,245.989,95.748,245.888,97.951,245.844z"/>
	<path fill="#414042" d="M78.299,263.579c1.197,4.109,3.941,6.63,7.942,8.024c2.42,0.843,4.782,1.9,7.067,3.062
		c4.212,2.142,8.645,2.478,13.228,1.999c2.223-0.232,4.466,0.062,6.694-0.304c0.757-0.125,1.412-0.5,2.253-0.637
		c-0.398,1.768-1.344,3.191-2.398,4.492c-1.891,2.328-4.042,4.371-7.036,5.259c-3.951,1.172-7.83,1.801-11.795-0.193
		c-2.434-1.224-5.199-1.721-7.643-2.984c-2.642-1.366-5.594-2.087-7.99-3.971c-1.644-1.292-2.929-2.662-2.48-4.993
		c0.377-1.955-0.054-3.948,0.184-5.925C76.507,265.891,76.611,264.404,78.299,263.579z"/>
	<path fill="#414042" d="M117.256,261.217c-1.361-2.305-2.817-4.499-3.999-6.833c-1.91-3.774-4.965-6.266-8.598-8.17
		c-0.729-0.382-1.316-0.994-2.148-1.236c1.733-0.403,3.388-0.041,5.055,0.282c2.426,0.47,4.584,1.689,6.92,2.398
		c1.474,0.446,2.862,1.147,4.429,1.337c0.681,0.083,1.256,0.333,1.042,1.458c-0.643,3.395-1.819,6.673-2.189,10.124
		C117.743,260.794,117.651,261.046,117.256,261.217z"/>
	<path fill="#414042" d="M79.451,255.118c-0.005-0.828,0.597-1.265,0.896-1.818c1.038-1.924,1.181-4.18,2.291-6.062
		c0.479-0.811,0.798-1.652,0.722-2.585c-0.067-0.823,0.219-0.903,0.96-0.742c2.434,0.528,4.834,1.258,7.425,1.39
		C86.835,247.522,83.155,251.243,79.451,255.118z"/>
</g>
</svg>
