<?xml version="1.0" encoding="utf-8"?>
<!-- Generator: Adobe Illustrator 19.2.0, SVG Export Plug-In . SVG Version: 6.00 Build 0)  -->
<svg version="1.1" id="Layer_1" xmlns="http://www.w3.org/2000/svg" xmlns:xlink="http://www.w3.org/1999/xlink" x="0px" y="0px"
	 viewBox="0 0 50.7 30.7" style="enable-background:new 0 0 50.7 30.7;" xml:space="preserve">
<style type="text/css">
	.st0{fill:#010101;stroke:#000000;stroke-miterlimit:10;}
</style>
<path class="st0" d="M5.5,5.9C9.7,6.5,13.9,7,18,8.1c3.1,0.8,5.8,2,8.5,3.3c3.2,1.6,6,3.3,8.5,5.2c2,1.6,4.3,3.1,6.4,4.6
	c1,0.7,2,1.4,2.9,2.2c0.3,0.2,2.1,2.2-0.2,1.1c-0.5-0.3-0.8-0.7-1.3-1c-3.8-2.8-7.4-5.6-11.3-8.2c-5.8-4-12.8-6.9-21.2-8.1
	C8.8,6.9,7.4,6.7,6,6.3c-0.2,0-0.4-0.1-0.6-0.2C5.4,6,5.4,5.9,5.5,5.9z"/>
</svg>
