<?xml version="1.0" encoding="utf-8"?>
<!-- Generator: Adobe Illustrator 16.0.4, SVG Export Plug-In . SVG Version: 6.00 Build 0)  -->
<!DOCTYPE svg PUBLIC "-//W3C//DTD SVG 1.1//EN" "http://www.w3.org/Graphics/SVG/1.1/DTD/svg11.dtd">
<svg version="1.1" id="Layer_1" xmlns="http://www.w3.org/2000/svg" xmlns:xlink="http://www.w3.org/1999/xlink" x="0px" y="0px"
	 width="1634.505px" height="1368.137px" viewBox="0 0 1634.505 1368.137" enable-background="new 0 0 1634.505 1368.137"
	 xml:space="preserve">
<g id="XMLID_1_">
	<g>
		<path d="M1552.704,428.209c36.869,101.28,32.55,201.38-11.341,299.64c-30.72,68.771-77.14,125.851-133.67,174.95
			c-78.79,68.42-169.46,115.521-268.029,148.21c-46.07,15.28-93.091,26.83-140.931,35.04c-0.79,0.13-1.55,0.45-3.34,0.98
			c5.71,17.77,10.99,35.12,16.851,52.26c15.6,45.66,34.38,89.9,59.71,131.13c17.97,29.24,38.859,56.06,65.689,77.88
			c-0.09,0.45-0.189,0.91-0.28,1.36c-9.14-0.73-18.33-1.04-27.399-2.25c-49.63-6.63-93.7-27.32-135.17-54.28
			c-52.62-34.21-98.261-76.52-140.28-122.81c-19.81-21.82-38.36-44.78-57.63-67.101c-1.41-1.62-3.99-3.029-6.1-3.13
			c-104.57-5.04-206.28-24.38-304.39-61.3c-88.43-33.28-169.65-78.93-240.26-142.28c-54.86-49.22-99.83-106.02-128.89-174.22
			c-48.33-113.39-44.68-225.76,9.28-336.3c33.08-67.79,81.53-123.46,139.35-171.23c75.06-62.01,160.17-105.63,252.09-136.54
			c63.52-21.35,128.66-35.49,195.19-43.49c64.38-7.74,128.91-9.61,193.59-5.58c107.029,6.66,210.76,28.51,310.239,69.06
			c79.44,32.38,152.65,75.13,216.78,132.57C1475.253,285.87,1524.233,350,1552.704,428.209z M1530.973,567.33
			c0.97-58.24-13.51-112.81-40.64-164.14c-30.63-57.96-73.5-105.62-124.311-146.44c-57.939-46.54-122.56-81.33-191.729-107.9
			c-80.761-31.02-164.41-49.6-250.42-58.05c-69.73-6.85-139.43-6.7-209.101,0.39c-71.51,7.27-141.54,21.7-209.73,44.6
			c-81,27.21-156.66,64.67-224.03,117.78c-50.9,40.14-94.34,86.95-125.37,144.27c-49.79,91.96-58.14,187.23-20.17,285.33
			c25.57,66.09,68.2,120.2,120.87,166.76c62.31,55.08,133.72,94.971,210.96,124.771c104.75,40.41,213.61,60.02,325.61,63.12
			c4.18,0.12,5.52,1.81,7.1,5.13c9.73,20.43,18.98,41.14,29.8,60.979c21.01,38.53,51.88,68.62,85.22,96.44
			c46.601,38.899,95.45,74.81,145.181,109.56c1.149,0.8,2.399,1.45,3.6,2.17c-0.21-1.72-0.939-2.939-1.689-4.14
			c-16.04-25.71-32.67-51.09-47.99-77.23c-16.94-28.899-31.8-58.939-41.41-91.229c-7.53-25.31-11.39-51.34-14.4-77.51
			c-1.21-10.54-2.119-21.13-3.189-31.95c2.21-0.38,3.81-0.72,5.43-0.94c67.92-9.13,134.271-24.76,198.7-48.21
			c72.65-26.439,140.64-61.56,201.63-109.449c52.601-41.311,97-89.79,128.71-149.15
			C1515.473,673.859,1530.053,622.35,1530.973,567.33z"/>
		<path fill="#FFFFFF" d="M1490.333,403.189c27.13,51.33,41.609,105.9,40.64,164.14c-0.92,55.02-15.5,106.53-41.37,154.96
			c-31.71,59.36-76.109,107.84-128.71,149.15c-60.99,47.89-128.979,83.01-201.63,109.449c-64.43,23.45-130.78,39.08-198.7,48.21
			c-1.62,0.221-3.22,0.561-5.43,0.94c1.07,10.82,1.979,21.41,3.189,31.95c3.011,26.17,6.87,52.2,14.4,77.51
			c9.61,32.29,24.47,62.33,41.41,91.229c15.32,26.141,31.95,51.521,47.99,77.23c0.75,1.2,1.479,2.42,1.689,4.14
			c-1.2-0.72-2.45-1.37-3.6-2.17c-49.73-34.75-98.58-70.66-145.181-109.56c-33.34-27.82-64.21-57.91-85.22-96.44
			c-10.82-19.84-20.07-40.55-29.8-60.979c-1.58-3.32-2.92-5.01-7.1-5.13c-112-3.101-220.86-22.71-325.61-63.12
			c-77.24-29.8-148.65-69.69-210.96-124.771c-52.67-46.56-95.3-100.67-120.87-166.76c-37.97-98.1-29.62-193.37,20.17-285.33
			c31.03-57.32,74.47-104.13,125.37-144.27c67.37-53.11,143.03-90.57,224.03-117.78c68.19-22.9,138.22-37.33,209.73-44.6
			c69.67-7.09,139.37-7.24,209.101-0.39c86.01,8.45,169.659,27.03,250.42,58.05c69.17,26.57,133.79,61.36,191.729,107.9
			C1416.833,297.569,1459.704,345.229,1490.333,403.189z"/>
	</g>
	<g>
	</g>
</g>
</svg>
